<?xml version="1.0" encoding="UTF-8" standalone="no"?>
<!-- Created with Inkscape (http://www.inkscape.org/) -->

<svg
   xmlns:dc="http://purl.org/dc/elements/1.1/"
   xmlns:cc="http://creativecommons.org/ns#"
   xmlns:rdf="http://www.w3.org/1999/02/22-rdf-syntax-ns#"
   xmlns:svg="http://www.w3.org/2000/svg"
   xmlns="http://www.w3.org/2000/svg"
   xmlns:sodipodi="http://sodipodi.sourceforge.net/DTD/sodipodi-0.dtd"
   xmlns:inkscape="http://www.inkscape.org/namespaces/inkscape"
   version="1.1"
   width="287.89346"
   height="398.82751"
   id="svg2"
   inkscape:version="0.48.4 r9939"
   sodipodi:docname="washing-machine.svg">
  <sodipodi:namedview
     pagecolor="#ffffff"
     bordercolor="#666666"
     borderopacity="1"
     objecttolerance="10"
     gridtolerance="10"
     guidetolerance="10"
     inkscape:pageopacity="0"
     inkscape:pageshadow="2"
     inkscape:window-width="1280"
     inkscape:window-height="744"
     id="namedview21"
     showgrid="false"
     inkscape:zoom="1.1896685"
     inkscape:cx="14.07862"
     inkscape:cy="233.03657"
     inkscape:window-x="-4"
     inkscape:window-y="-4"
     inkscape:window-maximized="1"
     inkscape:current-layer="svg2" />
  <defs
     id="defs4" />
  <metadata
     id="metadata7">
    <rdf:RDF>
      <cc:Work
         rdf:about="">
        <dc:format>image/svg+xml</dc:format>
        <dc:type
           rdf:resource="http://purl.org/dc/dcmitype/StillImage" />
        <dc:title />
      </cc:Work>
    </rdf:RDF>
  </metadata>
  <rect
     style="fill:#43517d;fill-opacity:1;stroke:none"
     id="rect2996"
     y="74.568542"
     x="-2.006836e-006"
     height="324.25897"
     width="287.89346" />
  <rect
     style="fill:#404d77;fill-opacity:1;stroke:none"
     id="rect2998"
     y="-2.3535156e-006"
     x="-2.006836e-006"
     ry="10.101525"
     height="68.690376"
     width="287.89346" />
  <rect
     style="fill:#e4e4e4;fill-opacity:1;stroke:none"
     id="rect3000"
     y="9.9187908"
     x="12.12184"
     ry="7.5761437"
     height="46.467018"
     width="80.812202" />
  <path
     inkscape:connector-curvature="0"
     style="fill:#f9e7e7;fill-opacity:1;stroke:none"
     id="path3021"
     d="m 176.60041,34.2384 a 12.5,12.5 0 0 1 -25,0 12.5,12.5 0 1 1 25,0 z" />
  <path
     inkscape:connector-curvature="0"
     style="fill:#df8f87;fill-opacity:1;stroke:none"
     id="path3021-7"
     d="m 215.52195,33.62048 a 12.5,12.5 0 0 1 -25,0 12.5,12.5 0 1 1 25,0 z" />
  <path
     inkscape:connector-curvature="0"
     style="fill:#8aa678;fill-opacity:1;stroke:none"
     id="path3021-4"
     d="m 259.59882,15.84099 -3.8007,3.8007 c -6.80695,-4.6021 -16.11476,-3.9052 -22.14128,2.12132 -6.02664,6.02665 -6.74583,15.3564 -2.14342,22.16338 l -3.33666,3.33666 4.48571,4.48571 3.31456,-3.31456 c 6.82907,4.81283 16.31944,4.18666 22.42855,-1.92245 6.10989,-6.10989 6.73728,-15.59929 1.92244,-22.42854 l 3.75651,-3.75651 -4.48571,-4.48571 z" />
  <path
     inkscape:connector-curvature="0"
     style="fill:#ffffff;fill-opacity:1;stroke:none"
     id="path3051"
     d="m 239.40614,209.42392 a 95.459414,95.459414 0 1 1 -190.918825,0 95.459414,95.459414 0 1 1 190.918825,0 z" />
  <path
     inkscape:connector-curvature="0"
     style="fill:#8d91d0;fill-opacity:1;stroke:none"
     id="path3051-9"
     d="m 145.98504,283.87501 c 23.20255,0 43.93906,-10.46188 57.78125,-26.9375 -10.7147,-13.02907 -17.125,-29.72056 -17.125,-47.90625 0,-18.47097 6.63757,-35.38353 17.65625,-48.5 -13.83954,-16.82905 -34.82297,-27.5625 -58.3125,-27.5625 -41.67508,0 -75.46875,33.79367 -75.46875,75.46875 0,41.67508 33.79367,75.4375 75.46875,75.4375 z" />
  <text
     xml:space="preserve"
     style="font-size:24px;font-style:normal;font-variant:normal;font-weight:900;font-stretch:normal;text-align:start;line-height:97.00000286%;letter-spacing:0px;word-spacing:0px;writing-mode:lr-tb;text-anchor:start;fill:#dd2a2b;fill-opacity:1;stroke:none;font-family:Arial Black;-inkscape-font-specification:'Arial Black, Heavy'"
     x="35.303951"
     y="39.904015"
     id="text2996"
     sodipodi:linespacing="97.000003%"><tspan
       sodipodi:role="line"
       id="tspan2998"
       x="35.303951"
       y="39.904015">TAC</tspan></text>
  <path
     inkscape:connector-curvature="0"
     style="fill:#cccdea;fill-opacity:1;stroke:none"
     id="path3021-7-1"
     d="m 281.48249,57.555974 a 5.355155,5.7754396 0 0 1 -10.71031,0 5.355155,5.7754396 0 1 1 10.71031,0 z" />
  <rect
     style="fill:#7382b3;fill-opacity:1;stroke:none"
     id="rect3000-1"
     y="351.21747"
     x="226.89525"
     ry="4.8351541"
     height="29.655613"
     width="48.029961" />
</svg>
