<?xml version="1.0" encoding="UTF-8" standalone="no"?>
<!-- Created with Inkscape (http://www.inkscape.org/) -->

<svg
   xmlns:dc="http://purl.org/dc/elements/1.1/"
   xmlns:cc="http://creativecommons.org/ns#"
   xmlns:rdf="http://www.w3.org/1999/02/22-rdf-syntax-ns#"
   xmlns:svg="http://www.w3.org/2000/svg"
   xmlns="http://www.w3.org/2000/svg"
   xmlns:sodipodi="http://sodipodi.sourceforge.net/DTD/sodipodi-0.dtd"
   xmlns:inkscape="http://www.inkscape.org/namespaces/inkscape"
   width="64px"
   height="64px"
   id="svg2996"
   version="1.1"
   inkscape:version="0.48.2 r9819"
   sodipodi:docname="Documento nuevo 2">
  <defs
     id="defs2998" />
  <sodipodi:namedview
     id="base"
     pagecolor="#ffffff"
     bordercolor="#666666"
     borderopacity="1.0"
     inkscape:pageopacity="0.0"
     inkscape:pageshadow="2"
     inkscape:zoom="5.5"
     inkscape:cx="32"
     inkscape:cy="32"
     inkscape:current-layer="layer1"
     showgrid="true"
     inkscape:document-units="px"
     inkscape:grid-bbox="true"
     inkscape:window-width="1680"
     inkscape:window-height="994"
     inkscape:window-x="-4"
     inkscape:window-y="-4"
     inkscape:window-maximized="1" />
  <metadata
     id="metadata3001">
    <rdf:RDF>
      <cc:Work
         rdf:about="">
        <dc:format>image/svg+xml</dc:format>
        <dc:type
           rdf:resource="http://purl.org/dc/dcmitype/StillImage" />
        <dc:title></dc:title>
      </cc:Work>
    </rdf:RDF>
  </metadata>
  <g
     id="layer1"
     inkscape:label="Layer 1"
     inkscape:groupmode="layer">
    <path
       sodipodi:type="star"
       style="fill:none;stroke:#136ad6;stroke-width:2.29143548;stroke-linecap:butt;stroke-linejoin:round;stroke-miterlimit:4;stroke-opacity:1;stroke-dasharray:none;stroke-dashoffset:0"
       id="path3024"
       sodipodi:sides="7"
       sodipodi:cx="6.909091"
       sodipodi:cy="9.272727"
       sodipodi:r1="29.700989"
       sodipodi:r2="17.55172"
       sodipodi:arg1="0.77241188"
       sodipodi:arg2="1.2212108"
       inkscape:flatsided="false"
       inkscape:rounded="0.21"
       inkscape:randomized="0.047"
       d="M 27.169733,29.728386 C 25.013244,32.2821 14.66025,23.129153 11.578235,24.408078 8.4962206,25.687003 6.6393909,39.1341 3.3071401,38.993129 -0.02511049,38.852157 0.91445325,26.949682 -1.9446847,25.158604 c -2.8591381,-1.791078 -15.0810253,3.34372 -17.0117283,0.569017 -1.930702,-2.774702 8.403637,-10.308248 8.19374,-13.566752 -0.209897,-3.2585049 -10.936253,-10.0036344 -9.712288,-13.06583173 1.223964,-3.06219717 12.0590479,-0.21386597 14.474209,-2.52953107 2.4151612,-2.3156652 0.7741756,-15.3362732 3.9137487,-16.2517622 3.139573,-0.915489 6.1950436,10.0329229 9.4593203,10.280471 3.264277,0.2475482 11.944248,-8.425366 14.803863,-6.774742 2.859615,1.650623 -1.726822,13.0796387 0.03239,15.84516339 1.759209,2.76552481 12.739744,3.15253011 13.354311,6.42891241 0.614567,3.2763822 -10.178057,6.5799722 -11.316244,9.7437452 -1.138187,3.163774 5.079588,11.337377 2.923098,13.891092 z"
       inkscape:transform-center-x="-0.64638888"
       inkscape:transform-center-y="0.36159808"
       transform="matrix(1.0793664,0,0,1.021226,24.134217,21.975315)" />
  </g>
</svg>
