<?xml version="1.0" encoding="UTF-8" standalone="no"?>
<svg id="svg2" xmlns:rdf="http://www.w3.org/1999/02/22-rdf-syntax-ns#" xmlns="http://www.w3.org/2000/svg" height="100%" width="100%" version="1.1" xmlns:cc="http://creativecommons.org/ns#" xmlns:dc="http://purl.org/dc/elements/1.1/" viewBox="0 -200 1000 1000">
 <metadata id="metadata12">
  <rdf:RDF>
   <cc:Work rdf:about="">
    <dc:format>image/svg+xml</dc:format>
    <dc:type rdf:resource="http://purl.org/dc/dcmitype/StillImage"/>
   </cc:Work>
  </rdf:RDF>
 </metadata>
 <g id="g4" transform="matrix(1.12,0,0,-1.12,-60,860)">
  <path id="path6" fill="currentColor" d="m780 380q41 41 41 66 0 13-13 22l32 32-32 32q13 9 13 23 0 24-41 65l-140 140-160-160-40 40 160 160-49 49q9 14 9 31 0 25-17.5 42.5t-42.5 17.5-42.5-17.5-17.5-42.5q0-17 9-31l-229-229q-41-41-41-65 0-14 13-23l-32-32 32-32q-13-9-13-22 0-25 41-66l141-139 159 159 40-40-159-159 20-20 29-28q-10-14-10-33 0-25 17.5-42.5t42.5-17.5 42.5 17.5 17.5 42.5q0 18-9 33zm-320 120-20-20h-180l-20 20 20 20h180zm80 0 20 20h180l20-20-20-20h-180zm-40 400q8 0 14-6t6-14-6-14-14-6-14 6-6 14 6 14 14 6zm0-760q8 0 14-6t6-14-6-14-14-6-14 6-6 14 6 14 14 6z"/>
 </g>
 <path id="path2989" d="m488.53 739.86c-10.081-7.3717-8.534-21.445 3.1683-28.814 17.735-11.169 36.691 16.448 19.778 28.814-10.603 7.7533-12.344 7.7533-22.947 0z" stroke-miterlimit="3.8" stroke-width="0" fill="#ececec"/>
 <path id="path2991" d="m559.32 309.49c-8.2891-9.1594-8.2891-9.8237 0-18.983 8.0749-8.9227 14.617-9.4915 109.15-9.4915 94.536 0 101.08 0.56886 109.15 9.4915 8.2891 9.1594 8.2891 9.8237 0 18.983-8.0749 8.9227-14.617 9.4915-109.15 9.4915-94.536 0-101.08-0.56886-109.15-9.4915z" stroke-miterlimit="3.8" stroke-width="0" fill="none"/>
 <path id="path2993" d="m222.37 309.49c-8.2891-9.1594-8.2891-9.8237 0-18.983 8.0749-8.9227 14.617-9.4915 109.15-9.4915 94.536 0 101.08 0.56886 109.15 9.4915 8.2891 9.1594 8.2891 9.8237 0 18.983-8.0749 8.9227-14.617 9.4915-109.15 9.4915-94.536 0-101.08-0.56886-109.15-9.4915z" stroke-miterlimit="3.8" stroke-width="0" fill="none"/>
 <path id="path2995" d="m486.71-113.83c-15.126-15.126 3.6207-37.779 22.78-27.525 16.165 8.6513 9.1453 33.22-9.4915 33.22-4.1763 0-10.156-2.5627-13.288-5.6949z" stroke-miterlimit="3.8" stroke-width="0" fill="#ececec"/>
 <path id="path3008" stroke-linejoin="round" d="m221.05 508.81-9.237-9.8323 9.8308-9.2355c9.5253-8.9485 12.926-9.2355 109.45-9.2355h99.624l9.9101 10.549c9.6213 10.241 9.6855 10.797 2.2005 19.068-7.3179 8.0862-12.913 8.519-110.13 8.519-101.65 0-102.49-0.0734-111.66-9.8323z" transform="translate(0,-200)" fill="#ececec"/>
 <path id="path3010" stroke-linejoin="round" d="m557.16 510.13c-7.4849-8.2707-7.4208-8.8264 2.2005-19.068l9.9101-10.549h100.22c99.352 0 100.3 0.0849 109.45 9.8323l9.237 9.8323-9.8308 9.2355c-9.5377 8.9602-12.866 9.2355-111.66 9.2355-96.62 0-102.22-0.43542-109.53-8.519z" transform="translate(0,-200)" fill="#ececec"/>
</svg>
