<?xml version="1.0" encoding="UTF-8" standalone="no"?>
<svg id="svg2" xmlns:rdf="http://www.w3.org/1999/02/22-rdf-syntax-ns#" xmlns="http://www.w3.org/2000/svg" height="100%" width="100%" version="1.1" xmlns:cc="http://creativecommons.org/ns#" xmlns:dc="http://purl.org/dc/elements/1.1/" viewBox="0 -200 1000 1000">
 <metadata id="metadata12">
  <rdf:RDF>
   <cc:Work rdf:about="">
    <dc:format>image/svg+xml</dc:format>
    <dc:type rdf:resource="http://purl.org/dc/dcmitype/StillImage"/>
   </cc:Work>
  </rdf:RDF>
 </metadata>
 <g id="g4" transform="matrix(1.12,0,0,-1.12,-60,860)">
  <path id="path6" fill="currentColor" d="m397 353q16-11 31-18-19-87-65-141t-103-54q-50 0-85 35t-35 85q0 57 54 103t141 66q5-15 17-32-74-11-123-49t-49-88q0-33 23.5-56.5t56.5-23.5q50 0 88 49t49 124zm103 247q-41 0-70.5-29.5t-29.5-70.5 29.5-70.5 70.5-29.5 70.5 29.5 29.5 70.5-29.5 70.5-70.5 29.5zm165-171q87-20 141-66t54-103q0-50-35-85t-85-35q-57 0-103 54t-65 141q15 7 31 18 11-75 49-124t88-49q33 0 56.5 23.5t23.5 56.5q0 50-49 88t-123 49q12 17 17 32zm-18 174q75 11 124 49t49 88q0 33-23.5 56.5t-56.5 23.5q-50 0-88-49t-49-124q-12 9-31 18 19 87 65 141t103 54q50 0 85-35t35-85q0-57-54-103t-141-65q-9 19-18 31zm-250 44q-11 75-49 124t-88 49q-33 0-56.5-23.5t-23.5-56.5q0-50 49-88t124-49q-9-12-18-31-86 19-139.5 65t-53.5 103q0 49 35 84.5t83 35.5q57 0 103-54t66-141q-18-8-32-18zm103-7q58 0 99-41t41-99-41-99-99-41-99 41-41 99 41 99 99 41zm-60 171q-36 61-82 95t-98 34q-41 0-77-15.5t-64-43-43.5-64-15.5-77.5q0-52 34-98t95-82h-69v-120h69q-61-36-95-82t-34-98q0-41 15.5-77t43.5-64 64-43.5 77-15.5q52 0 98 34t82 95v-69h120v69q36-61 82.5-95t97.5-34q41 0 77.5 15.5t64 43.5 43 64 15.5 77q0 52-34 98t-95 82h69v120h-69q61 36 95 82t34 98q0 41-15.5 77.5t-43 64-64 43-77.5 15.5q-51 0-97.5-34t-82.5-95v69h-120v-69z"/>
 </g>
 <path id="path2989" d="m677.92 201.2c-5.8142-11.243-6.0955-14.697-1.3083-16.064 3.354-0.9579 19.972-5.346 36.929-9.7514 59.74-15.51 115.24-54.54 135.4-95.199 13.9-28.036 12.74-75.068-2.4-97.747-27.83-41.671-78.05-53.899-125.67-30.601-45.76 22.39-83.46 77.458-100.61 146.98l-7.6199 30.878-13.606-7.0359c-16.256-8.4064-16.432-10.797-3.6756-49.907 24.233-74.296 72.139-138.1 120.58-160.6 63.291-29.395 140.96-0.51902 171.38 63.715 41.12 86.833-25.22 183.12-156.5 227.15-20.526 6.8836-39.157 12.516-41.404 12.516-2.2462 0-7.4169-6.4451-11.49-14.323z" stroke-miterlimit="3.8" stroke-width="0" fill="#f9f9f9"/>
 <path id="path2991" d="m272.08 204.23c-127.72-44.3-193.52-132.48-161.71-216.74 11.872-31.453 41.76-63.703 71.319-76.956 29.612-13.277 71.753-12.614 102.38 1.6113 50.623 23.511 101.24 93.599 125.28 173.47l8.7506 29.074-15.404 7.3458-15.404 7.3458-7.5817-30.723c-10.28-41.646-32-85.701-55.3-112.18-52.57-59.709-132.51-61.602-170.95-4.044-15.145 22.679-16.3 69.711-2.4017 97.747 20.155 40.656 75.664 79.688 135.4 95.206 16.957 4.4054 33.575 8.7935 36.929 9.7514 4.7872 1.3672 4.5059 4.8208-1.3083 16.064-8.7298 16.882-9.8475 16.949-49.997 3.0254z" stroke-miterlimit="3.8" stroke-width="0" fill="#f9f9f9"/>
 <path id="path2993" d="m444.74 442.93c-33.939-13.052-64.721-41.722-82.069-76.438-12.16-24.334-14.539-34.657-14.539-63.084 0-45.802 10.263-73.28 39.197-104.94 27.474-30.061 46.857-41.225 85.38-49.175 52.183-10.769 100.77 6.3036 139.96 49.175 28.933 31.658 39.197 59.135 39.197 104.94 0 28.428-2.3791 38.751-14.539 63.084-35.791 71.624-119.11 104.69-192.58 76.438zm87.298-33.626c30.382-7.6502 69.327-45.547 77.178-75.099 13.706-51.592-6.0389-103.46-49.651-130.42-20.56-12.71-27.41-14.36-59.57-14.36-32.164 0-39.006 1.6495-59.569 14.363-43.612 26.963-63.357 78.828-49.651 130.42 4.0835 15.371 12.61 28.087 30.562 45.579 33.537 32.677 64.924 41.047 110.7 29.521z" stroke-miterlimit="3.8" stroke-width="0" fill="#f9f9f9"/>
 <path id="path2995" d="m189.15 693.77c-58.894-20.993-93.005-76.155-86.802-140.37 6.2188-64.381 70.917-124.56 169.56-157.7l40.61-13.646 7.7826 15.05 7.7826 15.05-38.454 11.102c-88.154 25.45-141.65 73.442-148.76 133.45-7.3079 61.704 44.277 112.2 104.58 102.38 60.254-9.8159 110.6-68.748 133.24-155.97 3.9983-15.404 8.3035-29.04 9.5671-30.304 3.4086-3.4086 26.322 12.635 26.322 18.43 0 11.901-25.658 80-38.822 103.04-21.742 38.049-62.407 79.395-91.735 93.269-27.676 13.093-68.147 15.748-94.867 6.2231z" stroke-miterlimit="3.8" stroke-width="0" fill="#f9f9f9"/>
 <path id="path2997" d="m715.06 687.59c-28.434-14.051-69.821-56.578-90.813-93.316-13.164-23.038-38.822-91.137-38.822-103.04 0-5.7952 22.914-21.839 26.322-18.43 1.2636 1.2636 5.5687 14.9 9.5671 30.304 22.64 87.222 72.983 146.15 133.24 155.97 60.301 9.8237 111.89-40.677 104.58-102.38-7.11-60-60.6-107.99-148.76-133.44l-38.454-11.102 7.7826-15.05 7.7826-15.05 40.61 13.646c51.509 17.309 95.161 42.828 125.64 73.447 34.821 34.986 42.561 53.641 42.455 102.32-0.0999 45.64-5.8969 60.561-34.728 89.393-25.48 25.48-49.72 35.726-88.573 37.437-27.923 1.23-37.144-0.47536-57.823-10.694z" stroke-miterlimit="3.8" stroke-width="0" fill="#f9f9f9"/>
 <path id="path2988" d="m745.61 694.43c-51.688-8.1222-108.26-65.72-138.31-140.82-23.272-58.155-24.779-70.569-9.046-74.518 6.6145-1.6601 12.552-2.3806 13.195-1.601 0.64299 0.77957 6.0268 16.367 11.964 34.638 15.595 47.991 31.016 76.372 56.029 103.11 30.213 32.3 53.148 43.525 89.478 43.791 25.01 0.18333 32.237-1.8595 49.831-14.086 23.862-16.583 41.934-48.433 41.934-73.905 0-62.167-52.887-116.41-140.92-144.53-22.984-7.3421-42.671-14.031-43.747-14.864-1.0765-0.83299 0.59468-7.1156 3.7138-13.961 4.9747-10.918 7.5463-12.042 20.94-9.1531 21.154 4.5631 22.912 5.0946 38.998 11.79 22.78 9.4818 37.784 15.173 40.339 15.302 1.3051 0.0657 3.4407 1.5874 4.7458 3.3814s13.559 10.338 27.23 18.987c32.89 20.808 71.028 63.048 76.806 85.069 5.625 21.438 7.4084 75.747 2.9136 88.725-6.7196 19.401-18.966 38.045-32.434 49.377-7.6267 6.4174-16.36 14.161-19.407 17.209-13.304 13.304-60.536 21.347-94.248 16.05z" stroke-miterlimit="3.8" stroke-width="0" fill="#ececec"/>
 <path id="path2990" d="m467.47 448.36c-29.586-7.5076-53.158-20.783-74.116-41.741-11.478-11.478-21.365-22.329-21.972-24.115-0.60716-1.7859-5.5418-12.857-10.966-24.603-7.7189-16.715-9.677-29.606-9.0102-59.322 1.2336-54.984 6.3563-68.285 39.439-102.4 31.948-32.947 56.246-43.647 104.69-46.104 36.74-1.8632 42.981-0.86531 65.29 10.44 38.443 19.481 76.536 61.142 85.015 92.981 1.0427 3.9152 2.2792 24.203 2.7477 45.085 0.70577 31.457-1.1015 42.034-10.541 61.695-6.2661 13.051-11.489 24.797-11.607 26.102-0.27147 3.0069-38.35 39.666-43.955 42.317-43.651 20.643-83.989 27.541-115.01 19.668zm83.614-47.179c41.61-21.228 66.804-68.184 61.339-114.32-11.086-93.602-125.56-133.4-192.16-66.797-20.524 20.524-29.346 38.55-32.692 66.797-6.5486 55.292 27.349 105.31 83.922 123.83 18.437 6.0366 58.503 1.2492 79.593-9.5105z" stroke-miterlimit="3.8" stroke-width="0" fill="#ececec"/>
 <path id="path2992" d="m198.64 695.19c-37.36-10.34-67.68-35.66-84.54-70.61-15.473-32.08-14.397-79.23 2.57-112.45 13.376-26.188 54.447-67.703 79.874-80.737 8.9842-4.6056 17.403-10.008 18.708-12.004 1.3051-1.9967 3.4407-3.3417 4.7458-2.9888s14.119-4.5176 28.475-10.823c14.356-6.3057 28.237-11.976 30.847-12.601 33.978-8.1319 35.16-7.9955 40.955 4.7236 3.1191 6.8458 4.7903 13.128 3.7138 13.961-1.0765 0.83298-20.763 7.5217-43.747 14.864-88.035 28.122-140.92 82.362-140.92 144.53 0 25.472 18.072 57.322 41.934 73.905 17.594 12.227 24.821 14.27 49.831 14.086 63.949-0.46881 114.51-51.517 145.51-146.9 5.9372-18.271 11.321-33.858 11.964-34.638 0.64298-0.77958 6.5809-0.0591 13.195 1.601 15.733 3.9488 14.226 16.362-9.046 74.518-23.432 58.555-66.452 110.63-108.64 131.5-21.812 10.793-64.6 15.839-85.424 10.075z" stroke-miterlimit="3.8" stroke-width="0" fill="#ececec"/>
 <path id="path2994" d="m680.71 204.06c-12.837-13.664-8.7275-17.21 32.85-28.342 57.893-15.501 114.53-56.22 135.14-97.162 13.714-27.245 14.369-61.449 1.6431-85.801-26.076-49.898-77.757-66.216-129.51-40.893-43.016 21.046-77.52 69.789-97.83 138.2-10.573 35.614-16.865 41.689-28.571 27.584-10.177-12.263-5.059-33.859 20.459-86.321 47.628-97.917 116.54-145.35 182.91-125.89 11.093 3.2516 20.202 4.4124 20.242 2.5796 0.0399-1.8328 1.6417-1.084 3.5593 1.664s11.35 9.7729 20.96 15.611c34.674 21.064 59.44 73.541 54.492 115.46-5.1408 43.552-47.556 102.52-89.799 124.84-9.7681 5.1614-17.76 11.034-17.76 13.051 0 2.0166-2.2042 3.6666-4.8982 3.6666s-11.77 2.8713-20.169 6.3808c-8.3992 3.5094-17.407 6.9341-20.017 7.6103-2.6102 0.67625-10.619 4.2665-17.797 7.9784s-13.051 5.6791-13.051 4.3716-5.1013-0.43779-11.336 1.9327c-9.0818 3.4529-13.36 2.1555-21.514-6.5238z" stroke-miterlimit="3.8" stroke-width="0" fill="#ececec"/>
 <path id="path2996" d="m293.56 210.65c-15.55-3.7112-49.774-17.958-82.722-34.435-30.469-15.238-78.749-62.266-92.733-90.328-13.139-26.367-16.402-71.622-6.9689-96.659 19.936-52.913 75.042-91.336 125.48-87.489 47.824 3.6487 98.524 40.124 130.39 93.806 9.0696 15.279 18.68 29.35 21.356 31.267 2.6761 1.9177 3.1888 3.5194 1.1394 3.5593-2.0495 0.03987-1.0754 4.8778 2.1646 10.751 8.3261 15.092 22.578 56.587 22.763 66.274 0.14495 7.6138-12.825 17.964-22.511 17.964-2.3685 0-8.2277-13.347-13.02-29.661-12.02-40.908-37.18-90.317-57.4-112.69-40.09-44.379-104.75-55.937-142.94-25.556-26.763 21.289-40.443 50.681-37.589 80.758 1.2724 13.41 5.9282 31.562 10.346 40.339 20.627 40.978 77.348 81.737 135.14 97.108 40.35 10.733 46.273 16.025 32.132 28.715-8.2479 7.4014-14.116 8.8727-25.013 6.2719z" stroke-miterlimit="3.8" stroke-width="0" fill="#ececec"/>
 <path id="path2998" stroke-linejoin="round" d="m451.9 441.67c-22.914-8.4045-59.449-35.055-72.277-52.722-24.565-33.832-33.411-95.025-20.473-141.63 2.8985-10.441 5.556-20.015 5.9057-21.276 0.34968-1.2613 14.754-15.25 32.009-31.085 34.033-31.232 49.508-37.86 100.41-43.008 30.039-3.0376 34.089-2.251 62.404 12.121 53.956 27.387 81.053 64.053 85.949 116.3 4.954 52.866-7.9652 91.63-41.46 124.4-40.012 39.145-104.07 54.647-152.47 36.896zm96.762-39.308c22.421-9.7172 33.109-20.118 52.036-50.637 16.734-26.983 16.615-76.828-0.25048-104.92-29.45-49.056-85.903-70.899-137.95-53.375-24.289 8.1785-56.553 36.463-66.449 58.252-11.249 24.768-11.66 67.757-0.87462 91.579 10.457 23.097 48.502 60.023 68.712 66.69 21.124 6.9688 59.009 3.5779 84.772-7.5875z" fill="#ececec"/>
</svg>
