<?xml version="1.0" encoding="UTF-8" standalone="no"?>
<svg id="svg2" xmlns:rdf="http://www.w3.org/1999/02/22-rdf-syntax-ns#" xmlns="http://www.w3.org/2000/svg" height="100%" width="100%" version="1.1" xmlns:cc="http://creativecommons.org/ns#" xmlns:dc="http://purl.org/dc/elements/1.1/" viewBox="0 -200 1000 1000">
 <metadata id="metadata12">
  <rdf:RDF>
   <cc:Work rdf:about="">
    <dc:format>image/svg+xml</dc:format>
    <dc:type rdf:resource="http://purl.org/dc/dcmitype/StillImage"/>
   </cc:Work>
  </rdf:RDF>
 </metadata>
 <g id="g4" transform="matrix(1.1,0,0,-1.1,-50,850)">
  <path id="path6" fill="currentColor" d="m631 347 149 93 60 60-60 60q14 7 22.5 25.5t12 39 4.5 35 1 20.5q0 56-24.5 104.5t-62.5 85-79 59.5-74 31v-80h-280q-36-14-55.5-41.5t-19.5-58.5 19.5-58 55.5-42h60q0-13 9-27l-149-93-60-60 60-60q-14-7-22.5-25.5t-12-39-4.5-35-1-20.5q0-56 24.5-104.5t62.5-85 79-59.5 74-31v80h280q36 15 55.5 42t19.5 58-19.5 58.5-55.5 41.5h-60q0 14-9 27zm-171 13 20 40zm-160 80q-14-7-22.5-25.5t-12-39-4.5-35-1-20.5q0-48 17-83t39.5-56 39-29.5 24.5-11.5v-40q-10 4-32.5 16t-52.5 38.5-52.5 68.5-22.5 97q0 6 1 20.5t4.5 35 12 39 22.5 25.5h40zm305-70-20-40q-23 14-55.5 22t-69.5 8l20 40q37 0 69.5-8t55.5-22zm-210 260 20 40q23-14 55.5-22t69.5-8l-20-40q-37 0-69.5 8t-55.5 22zm345-70h-40q14 7 22.5 25.5t12 39 4.5 35 1 20.5q0 48-17 83t-39.5 56-39 30-24.5 11v40q10-4 32.5-16t52.5-38.5 52.5-68.5 22.5-97q0-6-1-20.5t-4.5-35-12-39-22.5-25.5zm-320-360q-8 0-14 6t-6 14 6 14 14 6 14-6 6-14-6-14-14-6zm160 600q8 0 14-6t6-14-6-14-14-6-14 6-6 14 6 14 14 6zm200-300-20-20h-200l-20 20 20 20h200zm-560 0 20 20h200l20-20-20-20h-200z"/>
 </g>
 <path id="path2989" d="m334.53 719.76c-43.29-26.07-76.55-57.23-100.92-94.57-32.75-50.16-43.51-98.01-36.02-160.15 8.237-68.31 24.903-96.986 56.366-96.986 17.916 0 17.965 0.0514 9.1588 9.504-23.846 25.596-36.129 122.82-22.304 176.55 4.2327 16.45 13.898 40.749 21.479 53.999 16.907 29.551 56.167 67.33 82.608 79.493 18.595 8.5539 19.696 10.158 19.809 28.866 0.0661 10.895-0.5275 19.809-1.3192 19.809s-13.78-7.4311-28.863-16.514z" stroke-miterlimit="3.8" stroke-width="0" fill="#ececec"/>
 <path id="path2991" d="m400.12 621.74c-9.2968-9.2968-9.2968-18.003 0-27.3 8.6652-8.6652 9.2882-8.7396 20.948-2.4994 11.732 6.2786 11.732 26.021 0 32.299-11.66 6.2401-12.283 6.1658-20.948-2.4994z" stroke-miterlimit="3.8" stroke-width="0" fill="#ececec"/>
 <path id="path2993" d="m574.58 475.42c-18.689-9.5593-76.552-23.466-97.636-23.466-16.645 0-16.51 0.44076-6.3734-20.816 7.4763-15.678 9.0014-16.472 31.648-16.472 27.265 0 70.19 10.203 93.125 22.134l15.689 8.1623-10.069 19.401-10.069 19.401-16.314-8.3444z" stroke-miterlimit="3.8" stroke-width="0" fill="#ececec"/>
 <path id="path2995" d="m207.14 310.63-10.161-10.816 10.814-10.159c10.464-9.8304 14.283-10.159 118.07-10.159 106.17 0 107.36 0.10989 117.42 10.816l10.161 10.816-10.814 10.159c-10.464 9.8305-14.283 10.159-118.07 10.159-106.17 0-107.36-0.10989-117.42-10.816z" stroke-miterlimit="3.8" stroke-width="0" fill="none"/>
 <path id="path2997" d="m556.72 310.63-10.161-10.816 10.814-10.159c10.464-9.8304 14.283-10.159 118.07-10.159 106.17 0 107.36 0.10989 117.42 10.816l10.161 10.816-10.814 10.159c-10.464 9.8305-14.283 10.159-118.07 10.159-106.17 0-107.36-0.10989-117.42-10.816z" stroke-miterlimit="3.8" stroke-width="0" fill="none"/>
 <path id="path2999" d="m460.38 181.51c-20.96-4.2071-72.246-22.702-72.246-26.054 0-1.1997 4.1271-10.271 9.1714-20.159l9.1714-17.977 26.951 10.812c14.823 5.9464 44.256 13.312 65.405 16.369 21.149 3.0564 38.453 6.2934 38.453 7.1933s-3.5347 9.0484-7.8548 18.108c-7.3682 15.451-9.1729 16.44-29.131 15.961-11.702-0.28088-29.666-2.1947-39.921-4.2529z" stroke-miterlimit="3.8" stroke-width="0" fill="#ececec"/>
 <path id="path3001" d="m571.73-2.8945c-3.8323-15.269 7.1004-27.478 20.732-23.151 21.173 6.7201 15.74 35.198-6.7153 35.198-7.9346 0-11.834-3.3516-14.017-12.047z" stroke-miterlimit="3.8" stroke-width="0" fill="#ececec"/>
 <path id="path3003" d="m740.12 216.02c6.295-9.2762 13.592-24.483 16.216-33.792 8.4748-30.069 11.056-95.934 4.9887-127.28-10.76-55.588-51.33-111.45-101.68-140.01-23.07-13.086-24.47-14.939-24.47-32.35v-18.472l28.939 15.422c16.436 8.7587 44.233 30.525 64.338 50.379 61.041 60.279 84.271 124.96 74.067 206.23-5.3378 42.51-11.682 62.422-25.998 81.59-9.4016 12.589-14.399 15.148-29.579 15.148h-18.266l11.445-16.866z" stroke-miterlimit="3.8" stroke-width="0" fill="#ececec"/>
 <path id="path2996" stroke-linejoin="round" d="m208.07 310.63-10.161-10.816 10.814-10.159c10.465-9.831 14.281-10.159 118.16-10.159 101.61 0 107.8 0.50047 115.83 9.3709 8.2334 9.0978 8.1629 9.709-2.4206 20.975l-10.901 11.604h-105.58c-104.41 0-105.69-0.11953-115.74-10.816z" fill="#ececec"/>
 <path id="path2998" stroke-linejoin="round" d="m557.65 310.63-10.161-10.816 10.814-10.159c10.464-9.8304 14.283-10.159 118.07-10.159 106.17 0 107.36 0.10989 117.42 10.816l10.161 10.816-10.814 10.159c-10.464 9.8305-14.283 10.159-118.07 10.159-106.17 0-107.36-0.10989-117.42-10.816z" fill="#ececec"/>
</svg>
