<?xml version="1.0" encoding="UTF-8" standalone="no"?>
<svg id="svg2" xmlns:rdf="http://www.w3.org/1999/02/22-rdf-syntax-ns#" xmlns="http://www.w3.org/2000/svg" height="100%" width="100%" version="1.1" xmlns:cc="http://creativecommons.org/ns#" xmlns:dc="http://purl.org/dc/elements/1.1/" viewBox="0 -200 1000 1000">
 <metadata id="metadata12">
  <rdf:RDF>
   <cc:Work rdf:about="">
    <dc:format>image/svg+xml</dc:format>
    <dc:type rdf:resource="http://purl.org/dc/dcmitype/StillImage"/>
   </cc:Work>
  </rdf:RDF>
 </metadata>
 <g id="g4" transform="matrix(1.12,0,0,-1.12,-60,860)">
  <path id="path6" fill="currentColor" d="m500 620q-50 0-85-35t-35-85 35-85 85-35 85 35 35 85-35 85-85 35zm0 40q32 0 61.5-12.5t51.5-34.5 34.5-51.5 12.5-61.5-12.5-61.5-34.5-51.5-51.5-34.5-61.5-12.5-61.5 12.5-51.5 34.5-34.5 51.5-12.5 61.5 12.5 61.5 34.5 51.5 51.5 34.5 61.5 12.5zm0 60q-45 0-85-17t-70.5-47.5-47.5-70.5-17-85 17-85 47.5-70.5 70.5-47.5 85-17 85 17 70.5 47.5 47.5 70.5 17 85-17 85-47.5 70.5-70.5 47.5-85 17z"/>
 </g>
 <path id="path2989" d="m458.48 470.16c-54.57-14.7-92.68-46.33-116.95-97.08-13.13-27.46-14.75-35.53-14.75-73.65 0-38.576 1.5008-45.854 15.169-73.559 66.479-134.75 249.62-134.75 316.1 0 13.668 27.706 15.169 34.983 15.169 73.559 0 38.121-1.6164 46.192-14.752 73.659-24.708 51.665-62.544 82.611-118.98 97.311-32.96 8.585-48.416 8.5398-81.009-0.23685zm109.08-51.01c44.02-25.79 67.2-67.14 67.06-119.62-0.14-55.94-24.79-96.22-73.86-120.74-102.07-51.01-216.95 36.95-193.81 148.4 9.5565 46.034 42.486 85.48 84.395 101.1 11.519 4.2924 31.366 6.086 56.209 5.0799 31.28-1.2667 42.411-3.9036 60.008-14.217z" stroke-miterlimit="3.8" stroke-width="0" fill="#f9f9f9"/>
 <path id="path2984" d="m471.53 472c-11.746-2.5038-23.492-5.0198-26.102-5.5911-11.352-2.4849-60.909-33.744-71.642-45.189-6.4693-6.8987-19.157-27.245-28.196-45.215-15.158-30.135-16.433-36.03-16.43-75.932 0.003-38.229 1.6248-46.572 13.942-71.735 15.577-31.823 31.531-51.067 59.614-71.904 26.179-19.425 55.385-27.757 97.288-27.757s71.109 8.3328 97.288 27.757c28.082 20.837 44.037 40.08 59.614 71.904 12.317 25.163 13.938 33.506 13.942 71.735 0.003 39.83-1.2935 45.854-16.356 75.961-19.353 38.684-36.139 56.858-67.41 72.981-12.656 6.5254-24.579 14-26.497 16.61-1.9177 2.6102-3.5194 3.1969-3.5593 1.3039-0.04-1.893-4.8778-1.6502-10.751 0.5396-19.128 7.1321-52.929 9.1807-74.746 4.5302zm76.11-44.4c89.78-31.68 117.55-154.77 50.13-222.2-30.07-30.06-51.78-38.64-97.77-38.64-45.988 0-67.704 8.5843-97.766 38.647-40.394 40.394-49.746 104.04-22.977 156.39 14.982 29.294 47.388 58.327 75.051 67.238 22.707 7.3142 70.623 6.5797 93.327-1.4306z" stroke-miterlimit="3.8" stroke-width="0" fill="#ececec"/>
</svg>
