<?xml version="1.0" encoding="UTF-8" standalone="no"?>
<svg id="svg2" xmlns:rdf="http://www.w3.org/1999/02/22-rdf-syntax-ns#" xmlns="http://www.w3.org/2000/svg" height="100%" width="100%" version="1.1" xmlns:cc="http://creativecommons.org/ns#" xmlns:dc="http://purl.org/dc/elements/1.1/" viewBox="0 -200 1000 1000">
 <metadata id="metadata12">
  <rdf:RDF>
   <cc:Work rdf:about="">
    <dc:format>image/svg+xml</dc:format>
    <dc:type rdf:resource="http://purl.org/dc/dcmitype/StillImage"/>
   </cc:Work>
  </rdf:RDF>
 </metadata>
 <g id="g4" transform="matrix(1.1,0,0,-1.1,-50,850)">
  <path id="path6" fill="currentColor" d="m500 520q8 0 14-6t6-14-6-14-14-6-14 6-6 14 6 14 14 6zm-260 260q8 0 14-6t6-14-6-14-14-6-14 6-6 14 6 14 14 6zm-100-260q8 0 14-6t6-14-6-14-14-6-14 6-6 14 6 14 14 6zm100-260q8 0 14-6t6-14-6-14-14-6-14 6-6 14 6 14 14 6zm260-100q8 0 14-6t6-14-6-14-14-6-14 6-6 14 6 14 14 6zm260 100q8 0 14-6t6-14-6-14-14-6-14 6-6 14 6 14 14 6zm100 260q8 0 14-6t6-14-6-14-14-6-14 6-6 14 6 14 14 6zm-100 260q8 0 14-6t6-14-6-14-14-6-14 6-6 14 6 14 14 6zm-260 100q8 0 14-6t6-14-6-14-14-6-14 6-6 14 6 14 14 6zm460-380q0 41-29.5 70.5t-70.5 29.5q-22 0-42-9.5t-34-25.5l-62 26 30 69h8q41 0 70.5 29.5t29.5 70.5-29.5 70.5-70.5 29.5-70.5-29.5-29.5-70.5v-8l-70-30-26 62q17 14 26.5 34t9.5 42q0 41-29.5 70.5t-70.5 29.5-70.5-29.5-29.5-70.5q0-22 9.5-42t26.5-34l-26-62-70 30v8q0 41-29.5 70.5t-70.5 29.5-70.5-29.5-29.5-70.5 29.5-70.5 70.5-29.5h8l30-69-62-26q-14 16-34 25.5t-42 9.5q-41 0-70.5-29.5t-29.5-70.5 29.5-70.5 70.5-29.5q22 0 42 9.5t34 25.5l62-26-30-69h-8q-41 0-70.5-29.5t-29.5-70.5 29.5-70.5 70.5-29.5 70.5 29.5 29.5 70.5v8l70 30 26-62q-17-14-26.5-34t-9.5-42q0-41 29.5-70.5t70.5-29.5 70.5 29.5 29.5 70.5q0 22-9.5 42t-26.5 34l26 62 70-30v-8q0-41 29.5-70.5t70.5-29.5 70.5 29.5 29.5 70.5-29.5 70.5-70.5 29.5h-8l-30 69 62 26q14-16 34-25.5t42-9.5q41 0 70.5 29.5t29.5 70.5zm-460 140q58 0 99-41t41-99-41-99-99-41-99 41-41 99 41 99 99 41zm0-40q-41 0-70.5-29.5t-29.5-70.5 29.5-70.5 70.5-29.5 70.5 29.5 29.5 70.5-29.5 70.5-70.5 29.5z"/>
 </g>
 <path id="path2989" d="m774.07 598.31c-7.7008-7.7008-8.5596-11.36-4.4629-19.014 7.573-14.15 18.044-16.087 28.804-5.3267s8.8236 21.231-5.3267 28.804c-7.6546 4.0966-11.313 3.2379-19.014-4.463z" stroke-miterlimit="3.8" stroke-width="0" fill="#f9f9f9"/>
 <path id="path2991" d="m881.46 311.88c-12.382-14.919 5.804-37.837 21.954-27.667 16.138 10.163 10.389 34.434-8.1568 34.434-4.4993 0-10.708-3.0454-13.797-6.7676z" stroke-miterlimit="3.8" stroke-width="0" fill="#f9f9f9"/>
 <path id="path2993" d="m772.35 24.465c-12.886-18.398 5.943-37.472 24.299-24.615 12.284 8.6043 12.738 16.604 1.5189 26.758-11.315 10.24-17.504 9.7263-25.818-2.1432z" stroke-miterlimit="3.8" stroke-width="0" fill="#f9f9f9"/>
 <path id="path2995" d="m485.27-84.31c-12.382-14.919 5.8041-37.837 21.954-27.667 16.138 10.163 10.389 34.434-8.1568 34.434-4.4993 0-10.708-3.0454-13.797-6.7676z" stroke-miterlimit="3.8" stroke-width="0" fill="#f9f9f9"/>
 <path id="path2997" d="m200.98 27.587c-8.9057-10.731-4.1461-27.995 8.2004-29.746 20.616-2.9225 31.015 15.03 16.889 29.156-9.1296 9.1296-17.832 9.3341-25.09 0.58948z" stroke-miterlimit="3.8" stroke-width="0" fill="#f9f9f9"/>
 <path id="path2999" d="m89.084 311.88c-12.382-14.919 5.8041-37.837 21.954-27.667 16.138 10.163 10.389 34.434-8.1568 34.434-4.4993 0-10.708-3.0454-13.797-6.7676z" stroke-miterlimit="3.8" stroke-width="0" fill="#f9f9f9"/>
 <path id="path3001" d="m199.21 599.86c-5.539-5.539-3.2895-23.566 3.6605-29.334 15.239-12.647 38.321 10.435 25.674 25.674-5.768 6.95-23.795 9.1995-29.334 3.6605z" stroke-miterlimit="3.8" stroke-width="0" fill="#ececec"/>
 <path id="path3003" d="m772.29 593.02c-5.8889-8.4076-5.9813-10.93-0.59724-16.314 3.5027-3.5027 11.762-6.3685 18.354-6.3685 10.111 0 11.985 2.1085 11.985 13.484 0 12.249-6.7564 19.143-18.761 19.143-2.2085 0-7.1501-4.4753-10.981-9.945z" stroke-miterlimit="3.8" stroke-width="0" fill="#ececec"/>
 <path id="path3005" d="m434.69 434.87c-112.86-56.395-112.86-213.35 0-269.75 23.899-11.943 34.038-14.279 61.958-14.279 44.984 0 71.971 10.08 103.06 38.497 42.106 38.482 58.874 86.205 48.297 137.46-7.8081 37.835-18.772 56.871-48.297 83.855-31.092 28.417-58.079 38.497-103.06 38.497-27.92 0-38.059-2.3366-61.958-14.279zm123.19-39.635c13.843-8.5584 27.941-22.702 36.616-36.733 12.486-20.196 14.106-26.915 14.106-58.505s-1.62-38.309-14.106-58.505c-26.482-42.833-77.421-62.225-128.09-48.764-31.915 8.4786-67.108 46.606-74.818 81.056-8.9415 39.955-0.53706 70.934 27.425 101.09 26.4 28.471 48.782 37.574 87.72 35.675 22.074-1.0766 33.798-4.5867 51.148-15.314z" stroke-miterlimit="3.8" stroke-width="0" fill="#ececec"/>
 <path id="path3007" d="m485.27 311.88c-12.382-14.919 5.8041-37.837 21.954-27.667 16.138 10.163 10.389 34.434-8.1568 34.434-4.4993 0-10.708-3.0454-13.797-6.7676z" stroke-miterlimit="3.8" stroke-width="0" fill="#ececec"/>
 <path id="path3009" d="m92.245 312c-13.818-13.818 3.3464-37.838 18.219-25.495 5.6962 4.7274 9.3817 27.476 4.4514 27.476-1.0721 0-4.9966 1.1694-8.721 2.5986-3.7245 1.4292-10.002-0.63136-13.949-4.579z" stroke-miterlimit="3.8" stroke-width="0" fill="#ececec"/>
 <path id="path3011" d="m203.43 26.998c-4.0284-4.0285-7.3245-9.1223-7.3245-11.32 0-8.146 14.108-17.739 22.761-15.476 12.35 3.2295 15.293 22.078 4.4999 28.818-10.824 6.7597-11.191 6.7224-19.936-2.0224z" stroke-miterlimit="3.8" stroke-width="0" fill="#ececec"/>
 <path id="path3013" d="m488.43-84.184c-13.818-13.818 3.3464-37.838 18.219-25.495 5.6962 4.7274 9.3817 27.476 4.4515 27.476-1.0721 0-4.9966 1.1694-8.721 2.5986-3.7245 1.4292-10.002-0.63134-13.949-4.579z" stroke-miterlimit="3.8" stroke-width="0" fill="#ececec"/>
 <path id="path3015" d="m776.32 26.583c-8.37-8.365-8.81-16.462-1.32-23.956 11.884-11.884 32.822 0.74328 28.519 17.199-3.0635 11.715-18.428 15.531-27.202 6.7566z" stroke-miterlimit="3.8" stroke-width="0" fill="#ececec"/>
 <path id="path3017" d="m884.62 312c-13.818-13.818 3.3464-37.838 18.219-25.495 5.6962 4.7274 9.3817 27.476 4.4515 27.476-1.0721 0-4.9966 1.1694-8.721 2.5986-3.7245 1.4292-10.002-0.63136-13.949-4.579z" stroke-miterlimit="3.8" stroke-width="0" fill="#ececec"/>
 <path id="path3021" d="m485.27 708.06c-12.382-14.919 5.8041-37.837 21.954-27.667 16.138 10.163 10.389 34.434-8.1568 34.434-4.4993 0-10.708-3.0454-13.797-6.7676z" stroke-miterlimit="3.8" stroke-width="0" fill="#ececec"/>
 <path id="path3023" d="m201.01 596.27c-8.2577-9.9499 2.0247-26.931 15.169-25.051 12.938 1.8505 16.121 17.606 5.1745 25.61-10.634 7.776-13.491 7.6974-20.343-0.55924z" stroke-miterlimit="3.8" stroke-width="0" fill="#ececec"/>
 <path id="path3025" d="m486.9 307.32c-4.6408-12.094 1.8639-22.089 13.316-20.463 7.7034 1.0939 10.508 4.6023 10.508 13.145 0 8.5424-2.8047 12.051-10.508 13.145-6.303 0.89504-11.632-1.4365-13.316-5.8263z" stroke-miterlimit="3.8" stroke-width="0" fill="#ececec"/>
</svg>
