<?xml version="1.0" encoding="UTF-8" standalone="no"?>
<svg id="svg2" xmlns:rdf="http://www.w3.org/1999/02/22-rdf-syntax-ns#" xmlns="http://www.w3.org/2000/svg" height="100%" width="100%" version="1.1" xmlns:cc="http://creativecommons.org/ns#" xmlns:dc="http://purl.org/dc/elements/1.1/" viewBox="0 -200 1000 1000">
 <metadata id="metadata12">
  <rdf:RDF>
   <cc:Work rdf:about="">
    <dc:format>image/svg+xml</dc:format>
    <dc:type rdf:resource="http://purl.org/dc/dcmitype/StillImage"/>
   </cc:Work>
  </rdf:RDF>
 </metadata>
 <g id="g4" transform="matrix(1.12,0,0,-1.12,-60,860)">
  <path id="path6" fill="currentColor" d="m858 540q-7 61-34 116.5t-70 98.5-98 69.5-116 33.5v-61q-19 3-40 3-20 0-40-3v61q-61-7-116-33.5t-98-69.5-70-98-34-117h61q-3-19-3-40 0-20 3-40h-61q7-61 34-116t70-98 98-70 116-34v61q20-3 40-3 21 0 40 3v-61q61 7 116 34t98 70 70 98 34 116h-61q3 20 3 40 0 21-3 40h61zm-438 187q-51-18-89.5-57t-56.5-90h-83q7 24 13 40h43q21 44 55 78t78 55v43q15 7 40 14v-83zm0-453v-84q-25 7-40 14v44q-43 20-77.5 54t-55.5 78h-43q-6 16-13 40h83q18-51 56.5-89.5t89.5-56.5zm160 0q51 18 89.5 56.5t56.5 89.5h84q-3-14-13-40h-44q-20-43-54.5-77.5t-78.5-55.5v-43q-15-7-40-14v84zm146 306q-18 51-56.5 90t-89.5 57v83q24-7 40-13v-44q43-20 77.5-54.5t55.5-78.5h44q6-16 13-40h-84z"/>
 </g>
 <path id="path2989" d="m590.44 599.07 0.2671-44.218 34.14-16.175c44.612-21.136 94.032-70.308 116.21-115.62l15.626-31.932h42.51c23.38 0 42.51 1.3539 42.51 3.0087s-2.4736 11.265-5.497 21.356c-5.4884 18.318-5.5366 18.347-30.807 18.347h-25.31l-14.552 25.784c-18.853 33.405-67.78 82.616-104.04 104.64l-28.61 17.38v23.503c0 24.784-0.0713 24.861-32.034 34.818-10.56 3.2895-10.675 2.8364-10.411-40.892z" stroke-miterlimit="3.8" stroke-width="0" fill="#ececec"/>
 <path id="path2991" d="m745.14 184.7c-20.4-49.6-77.79-106.83-131.43-131.08l-23.537-10.637v-43.951-43.951l21.356 7.2767 21.356 7.2767 0.12144 24.469 0.12143 24.469 33.72 21.356c38.069 24.111 78.824 66.228 99.88 103.22l14.182 24.915h25.134c22.593 0 25.424 1.1549 28.001 11.424 1.5769 6.2829 4.1725 14.825 5.768 18.983 2.5267 6.5844-2.8276 7.5572-41.505 7.5418l-44.406-0.0178-8.7602-21.302z" stroke-miterlimit="3.8" stroke-width="0" fill="#ececec"/>
 <path id="path2993" d="m160.19 198.47c1.5955-4.1577 4.1911-12.7 5.768-18.983 2.5773-10.269 5.4081-11.424 28.001-11.424h25.134l14.403-25.521c20.664-36.615 60.819-77.937 99.717-102.61l33.662-21.356 0.12143-23.892 0.12144-23.892 21.356-7.9151 21.356-7.9151v44.012 44.012l-23.537 10.637c-53.65 24.246-111.04 81.479-131.44 131.08l-8.7602 21.302-44.406 0.0176c-38.678 0.0157-44.032-0.95741-41.505-7.5418v0.00023z" stroke-miterlimit="3.8" stroke-width="0" fill="#ececec"/>
 <path id="path2995" d="m386.1 635.95c-15.889-5.7146-16.675-7.0895-18.098-31.673l-1.4882-25.699-28.621-16.487c-35.84-20.65-84.4-68.78-103.45-102.53l-14.521-25.729h-23.806c-25.126 0-25.149-0.0208-35.121-32.034-3.2804-10.53-2.7344-10.678 39.503-10.678h42.83l15.626 31.932c22.174 45.313 71.595 94.486 116.21 115.62l34.14 16.175 0.2671 43.898c0.1469 24.144-1.3346 43.736-3.2922 43.537-1.9576-0.19858-11.034-3.0493-20.17-6.335z" stroke-miterlimit="3.8" stroke-width="0" fill="#ececec"/>
</svg>
