<?xml version="1.0" encoding="UTF-8" standalone="no"?>
<svg id="svg2" xmlns:rdf="http://www.w3.org/1999/02/22-rdf-syntax-ns#" xmlns="http://www.w3.org/2000/svg" height="100%" width="100%" version="1.1" xmlns:cc="http://creativecommons.org/ns#" xmlns:dc="http://purl.org/dc/elements/1.1/" viewBox="0 -200 1000 1000">
 <metadata id="metadata12">
  <rdf:RDF>
   <cc:Work rdf:about="">
    <dc:format>image/svg+xml</dc:format>
    <dc:type rdf:resource="http://purl.org/dc/dcmitype/StillImage"/>
   </cc:Work>
  </rdf:RDF>
 </metadata>
 <g id="g4" transform="matrix(1.12,0,0,-1.12,-60,860)">
  <path id="path6" fill="currentColor" d="m500 100q-8 0-14 6t-6 14 6 14 14 6 14-6 6-14-6-14-14-6zm0 800q8 0 14-6t6-14-6-14-14-6-14 6-6 14 6 14 14 6zm-20-77q11-3 20-3 11 0 20 3l23-23-140-140 77-77 140 140 134-134q12-12 12-20 0-9-12-9h-222l-32-32-32 32h-222q-12 0-12 9 0 8 12 20zm40-646q-9 3-20 3-9 0-20-3l-23 23 140 140-77 77-140-140-134 134q-12 12-12 20 0 9 12 9h222l32 32 32-32h222q12 0 12-9 0-8-12-20zm-283 343h215l20-20-20-20h-215l-20 20zm526-40h-215l-20 20 20 20h215l20-20zm-314-329q-9-13-9-31 0-25 17.5-42.5t42.5-17.5 42.5 17.5 17.5 42.5q0 18-9 31l232 232q30 29 30 56 0 14-9 25l36 36-36 37q9 10 9 24 0 27-30 56l-163 163-140-140-20 20 140 140-49 49q9 14 9 31 0 25-17.5 42.5t-42.5 17.5-42.5-17.5-17.5-42.5q0-17 9-31l-232-232q-30-30-30-56 0-14 9-25l-36-36 36-36q-9-10-9-24 0-27 30-57l163-163 140 140 20-20-140-140z"/>
 </g>
 <path id="path2989" fill="#f9f9f9" d="m467.73 646.98-10.197-10.855 75.811-75.7c41.696-41.635 75.811-77.905 75.811-80.6 0-2.6952-19.231-24.042-42.734-47.437l-42.734-42.536-78.301 78.193-78.301 78.193-81.351-81.351c-58.089-58.089-80.517-83.523-78.436-88.947 2.574-6.7078 18.039-7.5967 132.16-7.5967h129.25l15.65-15.168 15.65-15.17 15.65 15.168 15.65 15.168h129.25c114.05 0 129.59 0.89182 132.16 7.5871 2.0971 5.4648-35.438 45.954-134.19 144.75l-137.1 137.16h-21.746c-16.52 0-24.196-2.6085-31.943-10.855z"/>
 <path id="path2991" fill="#f9f9f9" d="m481.02 247.32-16.099-16.61h-127.35c-112.32 0-127.7-0.89562-130.27-7.5871-2.0969-5.4645 35.29-45.806 133.64-144.2l136.55-136.61h22.808c17.985 0 25.087 2.4261 33.587 11.474l10.78 11.474-78.017 78.125-78.017 78.125 42.536 42.734c23.395 23.504 44.693 42.734 47.329 42.734 2.6358 0 39.009-34.169 80.829-75.932l76.037-75.932 80.121 80.225c57.017 57.091 79.283 82.408 77.215 87.797-2.5601 6.6715-18.047 7.5717-130.26 7.5717h-127.35l-16.099 16.61c-8.8546 9.1356-17.397 16.61-18.983 16.61-1.5861 0-10.128-7.4746-18.983-16.61z"/>
 <path id="path2985" stroke-linejoin="round" d="m198.64 309.49c-8.2891-9.1594-8.2891-9.8237 0-18.983 8.1567-9.013 14.617-9.4915 128.14-9.4915s119.98 0.47853 128.14 9.4915c8.2891 9.1594 8.2891 9.8237 0 18.983-8.1566 9.013-14.617 9.4915-128.14 9.4915s-119.98-0.47853-128.14-9.4915z" fill="#f9f9f9"/>
 <path id="path2987" stroke-linejoin="round" d="m545.08 309.49c-8.2891-9.1594-8.2891-9.8237 0-18.983 8.1566-9.013 14.617-9.4915 128.14-9.4915s119.98 0.47853 128.14 9.4915c8.2891 9.1594 8.2891 9.8237 0 18.983-8.1567 9.013-14.617 9.4915-128.14 9.4915s-119.98-0.47853-128.14-9.4915z" fill="#f9f9f9"/>
 <path id="path2990" stroke-linejoin="round" d="m486.71-113.83c-15.126-15.126 3.6207-37.779 22.78-27.525 16.165 8.6513 9.1453 33.22-9.4915 33.22-4.1763 0-10.156-2.5627-13.288-5.6949z" fill="#f9f9f9"/>
 <path id="path2992" stroke-linejoin="round" d="m488.53 739.86c-10.081-7.3717-8.534-21.445 3.1683-28.814 17.735-11.169 36.691 16.448 19.778 28.814-10.603 7.7533-12.344 7.7533-22.947 0z" fill="#f9f9f9"/>
</svg>
