<?xml version="1.0" encoding="UTF-8" standalone="no"?>
<svg id="svg2" xmlns:rdf="http://www.w3.org/1999/02/22-rdf-syntax-ns#" xmlns="http://www.w3.org/2000/svg" height="100%" width="100%" version="1.1" xmlns:cc="http://creativecommons.org/ns#" xmlns:dc="http://purl.org/dc/elements/1.1/" viewBox="0 -200 1000 1000">
 <metadata id="metadata12">
  <rdf:RDF>
   <cc:Work rdf:about="">
    <dc:format>image/svg+xml</dc:format>
    <dc:type rdf:resource="http://purl.org/dc/dcmitype/StillImage"/>
   </cc:Work>
  </rdf:RDF>
 </metadata>
 <g id="g4" transform="matrix(1.12,0,0,-1.12,-60,860)">
  <path id="path6" fill="currentColor" d="m500 560q25 0 42.5-17.5t17.5-42.5-17.5-42.5-42.5-17.5-42.5 17.5-17.5 42.5 17.5 42.5 42.5 17.5zm0 40q-41 0-70.5-29.5t-29.5-70.5 29.5-70.5 70.5-29.5 70.5 29.5 29.5 70.5-29.5 70.5-70.5 29.5zm-180-100q0-18 5-40h-165v80h165q-5-22-5-40zm22-85q25-47 73-74-6-50-20.5-95t-35.5-77.5-46.5-50.5-52.5-18q-32 0-61.5 12.5t-51.5 34.5-34.5 51.5-12.5 61.5q0 55 68.5 98t173.5 57zm316 0q106-14 174-57t68-98q0-32-12.5-61.5t-34.5-51.5-51.5-34.5-61.5-12.5q-27 0-52.5 18t-46.5 50.5-35.5 77-20.5 95.5q49 27 73 74zm222 85v80h-101q75 29 118 70.5t43 89.5q0 41-15.5 77.5t-43 64-64 43-77.5 15.5q-48 0-90-43t-70-117v100h-160v-100q-27 74-69.5 117t-90.5 43q-41 0-77-15.5t-64-43-43.5-64-15.5-77.5q0-48 43-89.5t118-70.5h-101v-160h101q-75-28-118-70t-43-90q0-41 15.5-77t43.5-64 64-43.5 77-15.5q48 0 90.5 43t69.5 117v-100h160v100q28-74 70-117t90-43q41 0 77.5 15.5t64 43.5 43 64 15.5 77q0 48-43 90t-118 70h101v80zm-380-340h-40v164q26-4 40-4t40 4v-164h-40zm180 340q0 18-5 40h165v-80h-165q5 22 5 40zm-320 0q0 58 41 99t99 41 99-41 41-99-41-99-99-41-99 41-41 99zm140 340h40v-164q-26 4-40 4t-40-4v164h40zm158-255q-24 47-73 74 6 50 20.5 95t35.5 77.5 46.5 50.5 52.5 18q32 0 61.5-12.5t51.5-34.5 34.5-51.5 12.5-61.5q0-55-68-98t-174-57zm-316 0q-105 14-173.5 57t-68.5 98q0 32 12.5 61.5t34.5 51.5 51.5 34.5 61.5 12.5q27 0 52.5-18t46.5-50.5 35.5-77 20.5-95.5q-48-27-73-74z"/>
 </g>
 <path id="path2989" fill="#f9f9f9" d="m204.72 742.3c-77.21-13.5-139.44-79.03-148.41-156.28-2.638-22.72-1.346-31.89 7.329-52.06 24.655-57.31 118.66-111.73 224.31-129.84 32.729-5.6123 33.137-5.5516 40.689 6.0482 13.613 20.91 39.004 46.948 56.062 57.491 16.418 10.147 16.622 10.667 13.51 34.51-6.0302 46.214-27.077 110.16-49.363 149.97-19.759 35.301-39.154 57.368-64.89 73.831-27.944 17.875-47.443 21.895-79.242 16.336z"/>
 <path id="path2991" fill="#f9f9f9" d="m120.34 300.95v-42.712h88.983 88.983v42.712 42.712h-88.983-88.983v-42.712z"/>
 <path id="path2993" fill="#f9f9f9" d="m276.95 193.94c-141.68-30.3-230.07-100.64-221.21-176.04 10.173-86.566 78.3-155.17 160.66-161.78 25.837-2.074 33.556-0.6836 54.155 9.755 59.224 30.011 113 127.47 127.53 231.11 2.9806 21.265 2.792 21.635-20.555 40.339-12.96 10.383-30.748 28.921-39.529 41.197-17.7 24.744-17.572 24.711-61.051 15.414z"/>
 <path id="path2995" fill="#f9f9f9" d="m457.29 10.271v-88.983h42.712 42.712v88.983 88.983h-42.712-42.712v-88.983z"/>
 <path id="path2997" fill="#f9f9f9" d="m663.73 179.78c-7.8305-11.893-25.632-30.471-39.558-41.286l-25.321-19.663 3.0369-21.652c14.567-103.86 68.283-201.26 127.56-231.3 20.6-10.439 28.318-11.829 54.155-9.755 82.363 6.6113 150.49 75.211 160.66 161.78 3.969 33.77-9.5474 64.243-42.015 94.726-40.588 38.106-126.73 74.162-205.3 85.929-18.385 2.7535-19.432 2.1619-33.22-18.78z"/>
 <path id="path2999" fill="#f9f9f9" d="m701.69 300.95v-42.712h88.983 88.983v42.712 42.712h-88.983-88.983v-42.712z"/>
 <path id="path3001" fill="#f9f9f9" d="m749.23 743.56c-17.541-4.439-57.528-33.118-72.003-51.64-34.533-44.19-62.794-112.74-73.698-178.77-5.1499-31.184-4.9062-34.013 3.3331-38.69 16.241-9.2186 55.217-47.263 62.144-60.659 8.6482-16.724 19.191-16.916 80.111-1.4626 92.534 23.473 165.4 70.852 187.32 121.8 8.64 20.084 9.9894 29.419 7.3888 51.112-5.8187 48.538-35.51 99.765-72.803 125.61-33.744 23.384-94.325 39.65-121.79 32.699z"/>
 <path id="path3003" fill="#f9f9f9" d="m457.29 591.23v-89.379h42.712 42.712v89.379 89.379h-42.712-42.712v-89.379z"/>
 <path id="path3005" fill="#f9f9f9" d="m444.74 442.93c-33.939-13.052-64.721-41.722-82.069-76.438-12.16-24.334-14.539-34.657-14.539-63.084 0-45.802 10.263-73.28 39.197-104.94 27.474-30.061 46.857-41.225 85.38-49.175 52.183-10.769 100.77 6.3036 139.96 49.175 28.933 31.658 39.197 59.135 39.197 104.94 0 28.428-2.3791 38.751-14.539 63.084-35.791 71.624-119.11 104.69-192.58 76.438zm87.298-33.626c30.382-7.6502 69.327-45.547 77.178-75.099 13.706-51.592-6.0389-103.46-49.651-130.42-20.56-12.71-27.41-14.36-59.57-14.36-32.164 0-39.006 1.6495-59.569 14.363-43.612 26.963-63.357 78.828-49.651 130.42 4.0835 15.371 12.61 28.087 30.562 45.579 33.537 32.677 64.924 41.047 110.7 29.521z"/>
 <path id="path3007" fill="#f9f9f9" d="m459.94 348.02c-28.358-24.898-31.729-57.935-9.0241-88.439 23.549-31.639 74.616-31.639 98.165 0 22.705 30.504 19.334 63.541-9.0241 88.439-13.792 12.109-20.689 14.628-40.059 14.628s-26.267-2.5185-40.059-14.628z"/>
</svg>
