<?xml version="1.0" encoding="UTF-8" standalone="no"?>
<svg id="svg2" xmlns:rdf="http://www.w3.org/1999/02/22-rdf-syntax-ns#" xmlns="http://www.w3.org/2000/svg" height="100%" width="100%" version="1.1" xmlns:cc="http://creativecommons.org/ns#" xmlns:dc="http://purl.org/dc/elements/1.1/" viewBox="0 -200 1000 1000">
 <metadata id="metadata12">
  <rdf:RDF>
   <cc:Work rdf:about="">
    <dc:format>image/svg+xml</dc:format>
    <dc:type rdf:resource="http://purl.org/dc/dcmitype/StillImage"/>
   </cc:Work>
  </rdf:RDF>
 </metadata>
 <g id="g4" transform="matrix(1.1,0,0,-1.1,-50,850)">
  <path id="path6" fill="currentColor" d="m420 200q8 0 14 6t6 14-6 14-14 6-14-6-6-14 6-14 14-6zm160 600q-8 0-14-6t-6-14 6-14 14-6 14 6 6 14-6 14-14 6zm-112-360 32 32 32-32h168l-104-65q-34 16-67 20.5t-49 4.5l-20-40q10 0 32-1.5t52.5-9.5 53-24.5 22.5-44.5h60q45-30 45-60t-45-60h-300v-60q-10 4-32.5 16t-52.5 38.5-52.5 68.5-22.5 97q0 6 1 20.5t4.5 35 12 39 22.5 25.5h208zm64 120-32-32-32 32h-168l104 65q34-16 67-20.5t49-4.5l20 40q-10 0-32 2t-52.5 9.5-53 24.5-22.5 44h-60q-45 30-45 60t45 60h300v60q10-4 32.5-16t52.5-38.5 52.5-68.5 22.5-97q0-6-1-20.5t-4.5-35-12-39-22.5-25.5h-208zm16-80-20 20 20 20h212l20-20-20-20h-212zm-96 40 20-20-20-20h-212l-20 20 20 20h212zm-292-20 60-60q-14-7-22.5-25.5t-12-39-4.5-35-1-20.5q0-56 24.5-104.5t62.5-85 79-59.5 74-31v80h280q36 15 55.5 42t19.5 58-19.5 58.5-55.5 41.5h-60q0 14-8 27l148 93 60 60-60 60q14 7 22.5 25.5t12 39 4.5 35 1 20.5q0 56-24.5 104.5t-62.5 85-79 59.5-74 31v-80h-280q-36-14-55.5-41.5t-19.5-58.5 19.5-58 55.5-42h60q0-14 8-27l-148-93z"/>
 </g>
 <path id="path2989" fill="#f9f9f9" d="m334.8 719.94c-43.59-26.279-76.784-57.36-101.19-94.751-32.747-50.164-43.507-98.014-36.014-160.15 5.1453-42.67 14.729-71.84 28.375-86.366 9.8576-10.493 11.345-10.62 124.33-10.62h114.35l17.675-17.26 17.675-17.26 17.675 17.26 17.675 17.26h88.198 88.198l-52.484 32.749-52.484 32.749-31.25-9.8149c-17.187-5.3982-46.981-10.953-66.207-12.344l-34.958-2.5295-10.487 21.669c-5.768 11.918-10.487 22.662-10.487 23.875 0 1.2132 8.9142 2.2422 19.809 2.2868 29.904 0.12216 81.912 12.406 109.34 25.826 26.918 13.17 42.583 29.9 46.545 49.711 2.5498 12.749 3.101 12.942 37.086 12.942 34.463 0 34.518 0.0205 54.649 20.151 11.083 11.083 21.211 25.694 22.506 32.47 3.3155 17.344-11.026 46.465-30.017 60.95l-16.096 12.277h-165.99-165.99l-1.3694 32.812-1.38 32.81-27.7-16.7zm89.584-93.469c5.7538-4.0301 10.359-12.171 10.359-18.311 0-11.786-10.976-25.704-20.27-25.704-11.212 0-26.34 14.723-26.34 25.636 0 9.4488 14.715 25.636 23.305 25.636 1.4227 0 7.2484-3.2651 12.946-7.2558z"/>
 <path id="path2991" fill="#f9f9f9" d="m483.78 246.96-13.305-13.887-89.83-1.2612-89.83-1.2612 51.627-32.154 51.627-32.154 21.504 7.4714c25.938 9.012 70.584 17.218 93.677 17.218 15.43 0 17.747-1.8263 27.323-21.538 5.7552-11.846 9.8437-21.985 9.0856-22.53-0.75816-0.54566-23.213-4.487-49.9-8.7586-74.28-11.89-116.71-35.41-124.03-68.733-2.96-13.461-3.36-13.614-35.56-13.614-28.309 0-34.755-1.668-49.293-12.757-19.467-14.848-33.57-42.931-30.258-60.253 1.2723-6.6557 11.096-21.267 21.83-32.47l19.516-20.368h168.6 168.6v-32.9-32.9l28.939 15.422c16.436 8.7587 44.233 30.525 64.338 50.379 61.041 60.279 84.271 124.96 74.067 206.23-5.3378 42.51-11.682 62.422-25.998 81.59l-11.313 15.148h-117.75-117.75l-13.397 13.983c-7.3681 7.6907-14.709 13.983-16.314 13.983-1.6043 0-8.9041-6.2492-16.222-13.887zm122.49-238.74c8.5131-8.5131 6.6908-24.596-3.87-34.153-20.362-18.428-49.875 11.803-32.252 33.037 6.7608 8.1462 28.423 8.8157 36.122 1.1164z"/>
 <path id="path2985" stroke-linejoin="round" d="m204.03 308.39c-8.1411-8.9958-8.1411-9.6483 0-18.644 8.011-8.852 14.356-9.322 125.85-9.322s117.84 0.46999 125.85 9.322c8.1411 8.9958 8.1411 9.6483 0 18.644-8.011 8.852-14.356 9.322-125.85 9.322s-117.84-0.46998-125.85-9.322z" fill="#f9f9f9"/>
 <path id="path2987" stroke-linejoin="round" d="m544.28 308.39c-8.1411-8.9958-8.1411-9.6483 0-18.644 8.011-8.852 14.356-9.322 125.85-9.322s117.84 0.46999 125.85 9.322c8.1411 8.9958 8.1411 9.6483 0 18.644-8.011 8.852-14.356 9.322-125.85 9.322s-117.84-0.46998-125.85-9.322z" fill="#f9f9f9"/>
</svg>
