<?xml version="1.0" encoding="UTF-8" standalone="no"?>
<svg id="svg2" xmlns:rdf="http://www.w3.org/1999/02/22-rdf-syntax-ns#" xmlns="http://www.w3.org/2000/svg" height="100%" width="100%" version="1.1" xmlns:cc="http://creativecommons.org/ns#" xmlns:dc="http://purl.org/dc/elements/1.1/" viewBox="0 -200 1000 1000">
 <metadata id="metadata12">
  <rdf:RDF>
   <cc:Work rdf:about="">
    <dc:format>image/svg+xml</dc:format>
    <dc:type rdf:resource="http://purl.org/dc/dcmitype/StillImage"/>
   </cc:Work>
  </rdf:RDF>
 </metadata>
 <g id="g4" transform="matrix(1.12,0,0,-1.12,-60,860)">
  <path id="path6" fill="currentColor" d="m500 680q37 0 69.5-14t57.5-39 39-57.5 14-69.5-14-69.5-39-57.5-57.5-39-69.5-14-69.5 14-57.5 39-39 57.5-14 69.5 14 69.5 39 57.5 57.5 39 69.5 14zm0-80q41 0 70.5-29.5t29.5-70.5-29.5-70.5-70.5-29.5-70.5 29.5-29.5 70.5 29.5 70.5 70.5 29.5zm0 40q-58 0-99-41t-41-99 41-99 99-41 99 41 41 99-41 99-99 41zm0 80q-45 0-85-17t-70.5-47.5-47.5-70.5-17-85 17-85 47.5-70.5 70.5-47.5 85-17 85 17 70.5 47.5 47.5 70.5 17 85-17 85-47.5 70.5-70.5 47.5-85 17z"/>
 </g>
 <path id="path2989" fill="#f9f9f9" d="m466.08 403.78c-30.745-11.486-55.075-35.308-68.238-66.812-20.797-49.774 9.3609-116.36 62.855-138.78 19.599-8.213 59.011-8.213 78.61 0 55.481 23.25 84.497 91.401 60.968 143.2-9.977 21.963-33.188 46.694-53.853 57.38-19.965 10.324-59.516 12.791-80.342 5.0101z"/>
 <path id="path2991" fill="#f9f9f9" d="m464.85 495.25c-101.94-17.07-178.44-125.28-159.96-226.29 13.986-76.47 66.164-135.71 139.77-158.68 110.96-34.638 228.74 39.985 250.45 158.68 18.896 103.31-57.861 209.19-164.26 226.6-31.738 5.1911-33.23 5.1842-65.993-0.30398zm91.905-46.678c30.675-11.656 57.469-33.158 75.798-60.83 18.629-28.125 24.739-51.009 24.608-92.177-0.44-137.86-168.94-205.06-269.52-107.48-51.697 50.157-60.651 138.62-20.211 199.67 17.984 27.151 44.865 49.002 74.567 60.613 30.483 11.917 83.693 12.017 114.75 0.21689z"/>
</svg>
