<?xml version="1.0" encoding="UTF-8" standalone="no"?>
<svg id="svg2" xmlns:rdf="http://www.w3.org/1999/02/22-rdf-syntax-ns#" xmlns="http://www.w3.org/2000/svg" height="100%" width="100%" version="1.1" xmlns:cc="http://creativecommons.org/ns#" xmlns:dc="http://purl.org/dc/elements/1.1/" viewBox="0 -200 1000 1000">
 <metadata id="metadata12">
  <rdf:RDF>
   <cc:Work rdf:about="">
    <dc:format>image/svg+xml</dc:format>
    <dc:type rdf:resource="http://purl.org/dc/dcmitype/StillImage"/>
   </cc:Work>
  </rdf:RDF>
 </metadata>
 <g id="g4" transform="matrix(1.1,0,0,-1.1,-50,850)">
  <path id="path6" fill="currentColor" d="m500 520q8 0 14-6t6-14-6-14-14-6-14 6-6 14 6 14 14 6zm0 40q-25 0-42.5-17.5t-17.5-42.5 17.5-42.5 42.5-17.5 42.5 17.5 17.5 42.5-17.5 42.5-42.5 17.5zm0 40q41 0 70.5-29.5t29.5-70.5-29.5-70.5-70.5-29.5-70.5 29.5-29.5 70.5 29.5 70.5 70.5 29.5zm0 40q-58 0-99-41t-41-99 41-99 99-41 99 41 41 99-41 99-99 41zm-227 70q-17-10-33-10-25 0-42.5 17.5t-17.5 42.5 17.5 42.5 42.5 17.5 42.5-17.5 17.5-42.5q0-16-10-33l140-57 54 132q-19 5-31.5 21t-12.5 37q0 25 17.5 42.5t42.5 17.5 42.5-17.5 17.5-42.5q0-21-12.5-37t-31.5-21l54-132 140 57q-10 17-10 33 0 25 17.5 42.5t42.5 17.5 42.5-17.5 17.5-42.5-17.5-42.5-42.5-17.5q-16 0-33 10l-57-139 132-55q5 19 21 31.5t37 12.5q25 0 42.5-17.5t17.5-42.5-17.5-42.5-42.5-17.5q-21 0-37 12.5t-21 31.5l-132-55 57-139q17 10 33 10 25 0 42.5-17.5t17.5-42.5-17.5-42.5-42.5-17.5-42.5 17.5-17.5 42.5q0 16 10 33l-140 57-54-132q19-5 31.5-21t12.5-37q0-25-17.5-42.5t-42.5-17.5-42.5 17.5-17.5 42.5q0 21 12.5 37t31.5 21l-54 132-103-42-37-15q10-17 10-33 0-25-17.5-42.5t-42.5-17.5-42.5 17.5-17.5 42.5 17.5 42.5 42.5 17.5q16 0 33-10l57 139-132 55q-5-19-21-31.5t-37-12.5q-25 0-42.5 17.5t-17.5 42.5 17.5 42.5 42.5 17.5q21 0 37-12.5t21-31.5l132 55zm687-210q0 41-29.5 70.5t-70.5 29.5q-22 0-42-9.5t-34-25.5l-62 26 30 69h8q41 0 70.5 29.5t29.5 70.5-29.5 70.5-70.5 29.5-70.5-29.5-29.5-70.5v-8l-70-30-26 62q17 14 26.5 34t9.5 42q0 41-29.5 70.5t-70.5 29.5-70.5-29.5-29.5-70.5q0-22 9.5-42t26.5-34l-26-62-70 30v8q0 41-29.5 70.5t-70.5 29.5-70.5-29.5-29.5-70.5 29.5-70.5 70.5-29.5h8l30-69-62-26q-14 16-34 25.5t-42 9.5q-41 0-70.5-29.5t-29.5-70.5 29.5-70.5 70.5-29.5q22 0 42 9.5t34 25.5l62-26-30-69h-8q-41 0-70.5-29.5t-29.5-70.5 29.5-70.5 70.5-29.5 70.5 29.5 29.5 70.5v8l70 30 26-62q-17-14-26.5-34t-9.5-42q0-41 29.5-70.5t70.5-29.5 70.5 29.5 29.5 70.5q0 22-9.5 42t-26.5 34l26 62 70-30v-8q0-41 29.5-70.5t70.5-29.5 70.5 29.5 29.5 70.5-29.5 70.5-70.5 29.5h-8l-30 69 62 26q14-16 34-25.5t42-9.5q41 0 70.5 29.5t29.5 70.5z"/>
 </g>
 <path id="path2989" fill="#f9f9f9" d="m468.79 749.53c-21.26-12.963-30.904-30.001-30.542-53.959 0.35796-23.678 13.479-45.279 33.925-55.852l13.389-6.9239-29.857-72.807c-16.421-40.044-30.582-73.531-31.467-74.417-0.88552-0.8855-36.114 12.651-78.285 30.082-65.334 27.004-76.395 33.014-74.78 40.627 1.0423 4.9144 2.091 19.81 2.3305 33.102 0.37353 20.729-1.5218 26.209-13.326 38.528-34.038 35.523-90.357 23.912-105.42-21.734-16.289-49.356 30.088-95.816 78.868-79.01l18.608 6.4111 31.115-75.948c17.113-41.771 29.959-77.818 28.547-80.104-2.8564-4.6217-142.7-63.668-144.51-61.017-0.62814 0.92041-4.8162 7.5416-9.3067 14.714-33.852 54.068-116.42 31.597-116.42-31.684 0-23.551 9.9088-40.872 30.938-54.08 26.706-16.773 71.156-4.7069 85.281 23.15 2.8226 5.5663 6.4506 11.439 8.0622 13.051 3.942 3.942 147.56-55.508 147.59-61.094 0.0308-5.7037-56.122-143.6-60.442-148.43-1.8094-2.0231-12.714-1.1578-24.232 1.9228-18.351 4.9081-23.194 4.4981-39.141-3.3132-21.537-10.549-39.297-35.109-39.297-54.344 0-20.259 13.569-45.342 29.924-55.315 29.822-18.185 73.317-6.3597 89.138 24.236 7.3772 14.266 7.4142 35.751 0.0997 57.865-2.766 8.3624 4.9389 12.558 74.847 40.761 42.862 17.291 78.807 30.563 79.878 29.492 1.0708-1.0708 15.253-34.095 31.516-73.388 25.949-62.695 28.658-72.011 22.124-76.102-43.053-26.953-53.473-71.766-23.986-103.15 31.571-33.606 94.054-19.475 106.05 23.986 8.4561 30.626-4.8935 58.461-37.968 79.167-6.5337 4.0904-3.8253 13.407 22.124 76.102 16.263 39.292 30.445 72.317 31.516 73.388 1.0709 1.0708 37.016-12.2 79.878-29.492 69.908-28.202 77.613-32.398 74.847-40.761-7.3145-22.114-7.2776-43.599 0.0998-57.865 15.821-30.595 59.316-42.421 89.138-24.236 16.355 9.973 29.924 35.056 29.924 55.315 0 19.235-17.76 43.795-39.297 54.344-15.947 7.8113-20.791 8.2212-39.141 3.3132-11.518-3.0806-22.422-3.9459-24.232-1.9228-4.3201 4.8303-60.472 142.73-60.442 148.43 0.0279 5.5862 143.65 65.036 147.59 61.094 1.6116-1.6116 5.2395-7.4844 8.0622-13.051 14.126-27.857 58.575-39.923 85.281-23.15 21.029 13.208 30.938 30.528 30.938 54.08 0 63.281-82.563 85.752-116.42 31.684-4.4905-7.1722-8.6785-13.793-9.3067-14.714-1.8096-2.6516-141.65 56.395-144.51 61.017-1.4127 2.2858 11.433 38.332 28.547 80.104l31.115 75.948 18.608-6.4111c48.78-16.806 95.157 29.654 78.868 79.01-15.065 45.646-71.383 57.257-105.42 21.734-11.804-12.319-13.699-17.798-13.326-38.528 0.23958-13.292 1.2882-28.279 2.3305-33.306 1.6335-7.8783-8.6938-13.478-74.831-40.576-42.2-17.29-77.428-30.735-78.285-29.877-0.85729 0.8573-14.994 34.322-31.416 74.366l-29.857 72.807 13.389 6.9239c30.826 15.94 44.225 61.131 26.257 88.553-11.185 17.07-34.84 30.341-54.082 30.341-8.9724 0-23.016-4.0869-31.209-9.0821h-0.0001zm96.46-308.4c47.75-22.29 81.35-67.05 87.91-117.09 7.08-54.09-6.83-96.04-44.75-134.95-30.8-31.61-59.35-42.93-108.41-42.99-46.468-0.0564-75.261 10.528-104.2 38.303-36.45 34.982-50.325 67.125-50.154 116.19 0.23277 66.865 34.66 117.77 97.501 144.18 36.058 15.152 84.994 13.694 122.11-3.637z"/>
 <path id="path2991" fill="#f9f9f9" d="m473.64 403.72c-24.35-5.47-60.53-36.61-72.09-62.06-16.35-36.01-9.62-77.48 17.77-109.48 21.75-25.41 47.49-37.31 80.68-37.31 33.192 0 58.934 11.904 80.681 37.311 27.393 32.003 34.123 73.478 17.767 109.49-12.561 27.653-47.34 56.345-75.66 62.419-12.786 2.7421-24.717 4.761-26.513 4.4864-1.7965-0.27453-11.981-2.4559-22.631-4.8474zm62.226-45.72c21.275-12.972 30.41-29.393 30.802-55.372 0.81953-54.325-50.823-86.891-99.14-62.517-21.898 11.047-34.628 34.315-34.203 62.517 0.58377 38.697 27.227 64.454 66.671 64.454 12.586 0 26.931-3.6322 35.87-9.0821z"/>
 <path id="path2993" fill="#f9f9f9" d="m488.55 314.24c-6.3128-4.616-7.7515-9.5261-5.4631-18.644 2.4875-9.9111 5.8578-12.378 16.912-12.378s14.425 2.4667 16.912 12.378c2.2885 9.118 0.84971 14.028-5.4631 18.644-10.632 7.7744-12.266 7.7744-22.898 0z"/>
</svg>
