<?xml version="1.0" encoding="UTF-8" standalone="no"?>
<svg id="svg2" xmlns:rdf="http://www.w3.org/1999/02/22-rdf-syntax-ns#" xmlns="http://www.w3.org/2000/svg" height="100%" width="100%" version="1.1" xmlns:cc="http://creativecommons.org/ns#" xmlns:dc="http://purl.org/dc/elements/1.1/" viewBox="0 -200 1000 1000">
 <metadata id="metadata12">
  <rdf:RDF>
   <cc:Work rdf:about="">
    <dc:format>image/svg+xml</dc:format>
    <dc:type rdf:resource="http://purl.org/dc/dcmitype/StillImage"/>
   </cc:Work>
  </rdf:RDF>
 </metadata>
 <g id="g4" transform="matrix(1.12,0,0,-1.12,-60,860)">
  <path id="path6" fill="currentColor" d="m274 580h-83q22 84 83.5 145.5t145.5 84.5v-83q-51-18-89.5-57t-56.5-90zm0-160q18-51 56.5-89.5t89.5-56.5v-84q-84 23-145.5 85t-83.5 145h83zm422 120h61q3-19 3-40 0-20-3-40h-61q-12-58-55-101t-101-55v-61q-19-3-40-3-20 0-40 3v61q-58 12-101 55t-55 101h-61q-3 20-3 40 0 21 3 40h61q12 58 55 101t101 55v61q20 3 40 3 21 0 40-3v-61q58-12 101-55t55-101zm162 0q-7 61-34 116.5t-70 98.5-98 69.5-116 33.5v-61q-19 3-40 3-20 0-40-3v61q-61-7-116-33.5t-98-69.5-70-98-34-117h61q-3-19-3-40 0-20 3-40h-61q7-61 34-116t70-98 98-70 116-34v61q20-3 40-3 21 0 40 3v-61q61 7 116 34t98 70 70 98 34 116h-61q3 20 3 40 0 21-3 40h61zm-278-266q51 18 89.5 56.5t56.5 89.5h84q-22-84-84-145.5t-146-84.5v84zm0 453v83q84-23 146-84.5t84-145.5h-84q-18 51-56.5 90t-89.5 57z"/>
 </g>
 <path id="path2989" fill="#f9f9f9" d="m475.08 587.14-17.797-2.0207-0.0403-34.12-0.0403-34.12-28.851-8.9962c-57.38-17.89-113.37-72.79-134.87-132.25l-10.699-29.592-33.503-1.3891-33.503-1.3891-3.1721-21.153c-1.7447-11.634-1.7447-30.672 0-42.307l3.1721-21.153 33.304-1.3891 33.304-1.3891 8.0379-23.791c22.88-67.72 78.44-121.54 149.07-144.41l17.797-5.7617v-32.345c0-37.387 0.80527-38.106 42.712-38.106s42.712 0.71842 42.712 38.106v32.345l17.797 5.7617c70.634 22.868 126.19 76.687 149.07 144.4l8.0378 23.791 33.304 1.3891 33.304 1.3891 3.1721 21.153c1.7447 11.634 1.7447 30.672 0 42.307l-3.1721 21.153-33.503 1.3891-33.503 1.3891-10.699 29.592c-21.498 59.463-77.486 114.36-134.88 132.26l-28.851 8.9962-0.0403 34.407c-0.0389 33.042-0.4875 34.407-11.312 34.407-6.1992 0-17.411 0.78039-24.915 1.7342-7.5042 0.9538-21.653 0.8249-31.441-0.28664l-0.00023 0.00013z"/>
 <path id="path2991" fill="#f9f9f9" d="m384.86 635.42c-58.09-21.33-119.11-64.55-158.84-112.51-19.07-23.02-58.42-95.9-65.4-121.11-2.9063-10.503-2.2526-10.678 39.875-10.678h42.83l15.626 31.932c22.174 45.313 71.595 94.486 116.21 115.62l34.14 16.175 0.2671 43.898c0.14687 24.144-1.3346 43.748-3.2922 43.564-1.9576-0.18391-11.594-3.2845-21.414-6.8902z"/>
 <path id="path2993" fill="#f9f9f9" d="m160.78 195.36c5.9368-20.385 30.243-69.929 45.354-92.445 40.873-60.906 113.11-116.02 185.57-141.58l18.135-6.3983v44.028 44.028l-23.537 10.637c-53.65 24.232-111.04 81.465-131.44 131.06l-8.7602 21.302-44.218 0.0176c-43.617 0.0178-44.176-0.12718-41.108-10.66z"/>
 <path id="path2995" fill="#f9f9f9" d="m745.14 184.7c-20.4-49.6-77.79-106.83-131.43-131.08l-23.537-10.637v-44.028-44.028l19.161 6.7603c52.302 18.453 97.291 47.287 140.37 89.964 37.131 36.786 46.335 49.239 64.992 87.94 34.352 71.254 35.552 66.444-16.573 66.423l-44.218-0.0178-8.7602-21.302z"/>
 <path id="path2997" fill="#f9f9f9" d="m590.44 599.25 0.2671-44.406 34.14-16.175c44.612-21.136 94.032-70.308 116.21-115.62l15.626-31.932h43.024 43.024l-3.1122 13.051c-5.8576 24.563-34.505 79.478-56.908 109.09-37.261 49.246-106.67 101.7-156.05 117.93-13.539 4.4505-27.285 9.077-30.548 10.281-4.4905 1.6573-5.8673-8.6024-5.6651-42.217z"/>
</svg>
