<?xml version="1.0" encoding="UTF-8" standalone="no"?>
<svg id="svg2" xmlns:rdf="http://www.w3.org/1999/02/22-rdf-syntax-ns#" xmlns="http://www.w3.org/2000/svg" xmlns:osb="http://www.openswatchbook.org/uri/2009/osb" height="100%" width="100%" version="1.1" xmlns:cc="http://creativecommons.org/ns#" xmlns:xlink="http://www.w3.org/1999/xlink" viewBox="0 -200 1000 1000" xmlns:dc="http://purl.org/dc/elements/1.1/">
 <metadata id="metadata12">
  <rdf:RDF>
   <cc:Work rdf:about="">
    <dc:format>image/svg+xml</dc:format>
    <dc:type rdf:resource="http://purl.org/dc/dcmitype/StillImage"/>
    <dc:title/>
   </cc:Work>
  </rdf:RDF>
 </metadata>
 <defs id="defs10">
  <linearGradient id="linearGradient8281">
   <stop id="stop8283" stop-color="#fff" offset="0"/>
   <stop id="stop8287" stop-color="#e6effa" offset=".45226"/>
   <stop id="stop8285" stop-color="#9fbde1" offset="1"/>
  </linearGradient>
  <linearGradient id="linearGradient4833" y2="214.97" xlink:href="#linearGradient7238" gradientUnits="userSpaceOnUse" x2="479.36" y1="200.99" x1="393.87"/>
  <linearGradient id="linearGradient7238">
   <stop id="stop7242" stop-color="#404040" offset="0"/>
   <stop id="stop7240" offset="1"/>
  </linearGradient>
  <linearGradient id="linearGradient4835" y2="249.3" xlink:href="#linearGradient7238" gradientUnits="userSpaceOnUse" x2="502.25" y1="290.61" x1="364.29"/>
  <linearGradient id="linearGradient4190" y2="244.85" xlink:href="#linearGradient8281" gradientUnits="userSpaceOnUse" x2="493.99" y1="245.74" x1="376.13"/>
 </defs>
 <g id="g4738" fill-rule="evenodd" transform="matrix(2.781 0 0 2.781 -652.43 -332.05)" stroke="#616267" stroke-width="3.5958">
  <path id="path4740" d="m414.21 112.39c-11.778-3.8512-13.611 126.52-72.499 165.04 0.1167 106.46 145.91 106.46 146.24 0-58.879-38.52-61.963-168.89-73.741-165.04z" fill="url(#linearGradient4833)"/>
  <path id="path4742" d="m345 277.36c-10 55 50 75 40 100h29.973 0.0273 29.973c-10-25 50-45 40-100h-69.973-0.0273-69.973z" fill="url(#linearGradient4835)"/>
  <path id="path4744" d="m385 367.36h60" fill="url(#linearGradient4190)"/>
 </g>
</svg>
