<?xml version="1.0" encoding="UTF-8" standalone="no"?>
<svg id="svg2" xmlns:rdf="http://www.w3.org/1999/02/22-rdf-syntax-ns#" xmlns="http://www.w3.org/2000/svg" height="100%" width="100%" version="1.1" xmlns:cc="http://creativecommons.org/ns#" xmlns:xlink="http://www.w3.org/1999/xlink" viewBox="0 -200 1000 1000" xmlns:dc="http://purl.org/dc/elements/1.1/">
 <metadata id="metadata12">
  <rdf:RDF>
   <cc:Work rdf:about="">
    <dc:format>image/svg+xml</dc:format>
    <dc:type rdf:resource="http://purl.org/dc/dcmitype/StillImage"/>
    <dc:title/>
   </cc:Work>
  </rdf:RDF>
 </metadata>
 <defs id="defs10">
  <linearGradient id="linearGradient4553">
   <stop id="stop4555" offset="0"/>
   <stop id="stop4557" stop-color="#404040" offset=".86856"/>
   <stop id="stop4559" offset="1"/>
  </linearGradient>
  <radialGradient id="radialGradient4507-1" xlink:href="#linearGradient4553" gradientUnits="userSpaceOnUse" cy="484.31" cx="273.93" gradientTransform="matrix(1.3172 -1.1292 .78890 .92026 -476.2 628.48)" r="41.807"/>
  <linearGradient id="linearGradient4509-6" y2="547.59" xlink:href="#linearGradient4553" gradientUnits="userSpaceOnUse" x2="213.94" gradientTransform="translate(-1.7333 296)" y1="488.9" x1="319.9"/>
 </defs>
 <rect id="rect3034" opacity="0.98" ry="46.61" stroke-linejoin="round" rx="0" transform="translate(0,-200)" height="93.22" width="0" stroke-linecap="round" y="169.49" x="432.2" stroke-width="5" fill="#f60"/>
 <g id="g4580" transform="matrix(5.5 0 0 5.5 -984.53 -3941.7)" stroke="#616267">
  <path id="path4455-8" d="m231.89 847.36c1.3439-0.80144-1.0861-42.233-2.3152-56.139-1.2287-13.902 0.0141-29.348 1.4721-38.339 2.8491-17.569 9.5587-25.105 23.085-34.02 21.384-14.094 63.315-5.9712 55.647 3.888-5.103 6.561-13.861 22.287-13.861 22.287 1.987-21.431 4.4856-12.251-7.3036-2.5699-57.192-14.988-48.778 73.016-56.724 104.89z" fill-rule="evenodd" stroke-width="2" fill="url(#radialGradient4507-1)"/>
  <path id="path4457-4" d="m286.47 772.09c3.1587-0.41344 3.2462-4.496 5.1827-12.003 2.7302-5.4972 3.5462-13.429 3.5462-13.429 3.2196-3.9897 3.6553-15.551 1.8003-16.172-1.8479-0.23016-7.7184 8.2252-7.5314 11.881-57.979-14.509-50.867 68.819-56.477 105.04h51.273c-2.43-46.17-22.133-66.778-14.955-85.757 6.2702-14.538 12.574-10.541 13.103-7.269-1.1927 2.8752 0.58879 11.301 0.58879 11.301s-2.2633 7.5633 3.4687 6.4026z" fill-rule="evenodd" stroke-width="2" fill="url(#linearGradient4509-6)"/>
  <path id="path4459-2" d="m234.13 842.65h49.749" stroke-width="2.0441" fill="none"/>
  <path id="path4461-7" d="m289.95 750.15s-1.5516 1.8409-1.6352 2.6958c-0.0762 0.77913 0.48614 2.5191 0.48614 2.5191 0.71748-0.58841 1.0118-1.6336 1.1276-2.4445 0.12524-0.87744 0.0215-2.7704 0.0215-2.7704z" fill-rule="evenodd" stroke-width="1px" fill="#575c6c"/>
  <path id="path4442" d="m231.08 821.21 4.0217-0.0442" stroke-width="1px" fill="none"/>
  <path id="path4444" d="m231.08 815.73h4.4194" stroke-width="1px" fill="none"/>
  <path id="path4446" d="m231.26 810.43c1.7088 0.48614 3.4619 0.39775 5.1265 0" stroke-width="1px" fill="none"/>
  <path id="path4448" d="m230.73 805.13c1.974 0.64818 3.7712 0.72184 5.6569 0.35356" stroke-width="1px" fill="none"/>
  <path id="path4450" d="m306.74 716.39c-4.0212 4.6337-6.68 10.06-8.662 15.556" stroke-width="1px" fill="none"/>
  <path id="path4452" d="m298.43 713.03c-6.3934 7.1595-10.489 16.971-13.347 27.842" stroke-width="1px" fill="none"/>
  <path id="path4454" d="m287.12 711.97c-5.3917 8.4558-7.0711 17.972-8.7504 28.549" stroke-width="1px" fill="none"/>
  <path id="path4456" d="m276.69 712.14c-3.3882 8.721-4.8319 19.033-4.8614 28.815" stroke-width="1px" fill="none"/>
  <path id="path4458" d="m267.14 713.56c-2.3276 8.8978-1.6499 18.679-0.61871 28.815" stroke-width="1px" fill="none"/>
  <path id="path4460" d="m257.42 716.92c-0.58926 8.6915 1.1196 18.09 4.0659 27.135" stroke-width="1px" fill="none"/>
  <path id="path4462" d="m248.94 722.4c1.0017 8.7799 3.0641 17.029 7.2478 25.279" stroke-width="1px" fill="none"/>
  <path id="path4464" d="m242.57 728.05c1.6794 8.4558 4.5962 15.674 9.2808 23.776" stroke-width="1px" fill="none"/>
  <path id="path4466" d="m236.91 734.95c2.799 7.4836 6.6586 14.79 12.109 21.92" stroke-width="1px" fill="none"/>
  <path id="path4468" d="m233.03 744.85c3.2704 6.1872 7.955 12.021 13.523 16.971" stroke-width="1px" fill="none"/>
  <path id="path4470" d="m230.55 752.8c2.9463 5.3917 8.5442 10.253 14.142 14.054" stroke-width="1px" fill="none"/>
  <path id="path4472" d="m229.67 760.76c3.2704 4.0364 8.6621 8.0728 12.993 10.518" stroke-width="1px" fill="none"/>
  <path id="path4474" d="m229.14 768.89c2.8874 3.2409 8.0728 6.305 12.374 7.0711" stroke-width="1px" fill="none"/>
  <path id="path4476" d="m229.14 776.31c2.8284 2.357 7.0711 4.714 10.607 4.4194" stroke-width="1px" fill="none"/>
  <path id="path4478" d="m229.31 783.56c2.9463 2.4749 9.3692 3.182 9.3692 3.182" stroke-width="1px" fill="none"/>
  <path id="path4480" d="m229.84 791.52c2.7106 2.5927 8.1317 1.9445 8.1317 1.9445" stroke-width="1px" fill="none"/>
  <path id="path4482" d="m229.67 797.7c2.5927 2.4749 7.2478 1.591 7.2478 1.591" stroke-width="1px" fill="none"/>
 </g>
</svg>
