<?xml version="1.0" encoding="UTF-8" standalone="no"?>
<svg id="svg2" xmlns:rdf="http://www.w3.org/1999/02/22-rdf-syntax-ns#" xmlns="http://www.w3.org/2000/svg" xmlns:osb="http://www.openswatchbook.org/uri/2009/osb" height="100%" width="100%" version="1.1" xmlns:cc="http://creativecommons.org/ns#" xmlns:xlink="http://www.w3.org/1999/xlink" viewBox="0 -200 1000 1000" xmlns:dc="http://purl.org/dc/elements/1.1/">
 <metadata id="metadata12">
  <rdf:RDF>
   <cc:Work rdf:about="">
    <dc:format>image/svg+xml</dc:format>
    <dc:type rdf:resource="http://purl.org/dc/dcmitype/StillImage"/>
    <dc:title/>
   </cc:Work>
  </rdf:RDF>
 </metadata>
 <defs id="defs10">
  <linearGradient id="linearGradient8281">
   <stop id="stop8283" stop-color="#fff" offset="0"/>
   <stop id="stop8287" stop-color="#e6effa" offset=".45226"/>
   <stop id="stop8285" stop-color="#9fbde1" offset="1"/>
  </linearGradient>
  <linearGradient id="linearGradient4477" y2="244.85" xlink:href="#linearGradient8281" gradientUnits="userSpaceOnUse" x2="493.99" y1="245.74" x1="376.13"/>
  <linearGradient id="linearGradient8407" y2="244.77" gradientUnits="userSpaceOnUse" x2="450.84" y1="254.21" x1="394.19">
   <stop id="stop4405" stop-color="#fff" offset="0"/>
   <stop id="stop4407" stop-color="#fffffa" offset=".59437"/>
   <stop id="stop4409" stop-color="#e1e1e1" offset="1"/>
  </linearGradient>
  <linearGradient id="linearGradient8409" y2="277.9" gradientUnits="userSpaceOnUse" x2="474.28" y1="244.85" x1="377">
   <stop id="stop4421" stop-color="#fff" offset="0"/>
   <stop id="stop4423" stop-color="#fffffa" offset=".65073"/>
   <stop id="stop4425" stop-color="#e1e1e1" offset="1"/>
  </linearGradient>
 </defs>
 <g id="g6565" fill-rule="evenodd" transform="matrix(2.781 0 0 2.781 -652.91 -332.05)" stroke="#575c6c" stroke-width="3.5958">
  <path id="path4731" d="m414.21 112.39c-11.778-3.8512-13.611 126.52-72.499 165.04 0.56618 104.65 146.13 104.65 146.24 0-58.879-38.52-61.963-168.89-73.741-165.04z" fill="url(#linearGradient8407)"/>
  <path id="path4746" d="m345 277.36c-10 55 50 75 40 100h29.973 0.0273 29.973c-10-25 50-45 40-100h-69.973-0.0273-69.973z" fill="url(#linearGradient8409)"/>
  <path id="path4756" d="m385 367.36h60" fill="url(#linearGradient4477)"/>
 </g>
</svg>
