<?xml version="1.0" encoding="UTF-8" standalone="no"?>
<svg id="svg2" xmlns:rdf="http://www.w3.org/1999/02/22-rdf-syntax-ns#" xmlns="http://www.w3.org/2000/svg" height="100%" width="100%" version="1.1" xmlns:cc="http://creativecommons.org/ns#" xmlns:xlink="http://www.w3.org/1999/xlink" viewBox="0 -200 1000 1000" xmlns:dc="http://purl.org/dc/elements/1.1/">
 <metadata id="metadata12">
  <rdf:RDF>
   <cc:Work rdf:about="">
    <dc:format>image/svg+xml</dc:format>
    <dc:type rdf:resource="http://purl.org/dc/dcmitype/StillImage"/>
   </cc:Work>
  </rdf:RDF>
 </metadata>
 <defs id="defs10">
  <linearGradient id="linearGradient4369">
   <stop id="stop4371" stop-color="#fff" offset="0"/>
   <stop id="stop4375" stop-color="#e1e1e1" offset="1"/>
  </linearGradient>
  <linearGradient id="linearGradient4308" y2="208.36" xlink:href="#linearGradient4369" gradientUnits="userSpaceOnUse" x2="547.27" y1="208.36" x1="392.3"/>
  <linearGradient id="linearGradient7042" y2="231.84" gradientUnits="userSpaceOnUse" x2="521.94" y1="205.5" x1="421.12">
   <stop id="stop4449-7" stop-color="#fff" offset="0"/>
   <stop id="stop4451-0" stop-color="#fffffa" offset=".48172"/>
   <stop id="stop4453-7" stop-color="#c8c8c8" offset="1"/>
  </linearGradient>
  <linearGradient id="linearGradient7264" y2="79.459" xlink:href="#linearGradient4369" gradientUnits="userSpaceOnUse" x2="449.72" y1="77.701" x1="447.04"/>
  <linearGradient id="linearGradient7256" y2="83.791" xlink:href="#linearGradient4369" gradientUnits="userSpaceOnUse" x2="423.41" y1="82.424" x1="419.43"/>
  <linearGradient id="linearGradient7288" y2="116.14" xlink:href="#linearGradient4369" gradientUnits="userSpaceOnUse" x2="451.65" y1="117.37" x1="448.93"/>
  <linearGradient id="linearGradient7280" y2="115.64" xlink:href="#linearGradient4369" gradientUnits="userSpaceOnUse" x2="422.63" y1="113.89" x1="421.03"/>
  <linearGradient id="linearGradient7272" y2="95.168" xlink:href="#linearGradient4369" gradientUnits="userSpaceOnUse" x2="403.29" y1="96.925" x1="400.13"/>
  <linearGradient id="linearGradient7304" y2="78.287" xlink:href="#linearGradient4369" gradientUnits="userSpaceOnUse" x2="491.75" y1="80.045" x1="489.46"/>
  <linearGradient id="linearGradient7312" y2="77.345" xlink:href="#linearGradient4369" gradientUnits="userSpaceOnUse" x2="519.36" y1="78.713" x1="516.36"/>
  <linearGradient id="linearGradient7296" y2="116.55" xlink:href="#linearGradient4369" gradientUnits="userSpaceOnUse" x2="490.69" y1="115.57" x1="487.69"/>
  <linearGradient id="linearGradient7328" y2="114.28" xlink:href="#linearGradient4369" gradientUnits="userSpaceOnUse" x2="518.74" y1="116.82" x1="516.55"/>
  <linearGradient id="linearGradient7320" y2="96.144" xlink:href="#linearGradient4369" gradientUnits="userSpaceOnUse" x2="538.85" y1="94.972" x1="535.89"/>
  <radialGradient id="radialGradient7202" gradientUnits="userSpaceOnUse" cy="91.185" cx="472.68" gradientTransform="matrix(.69395 .090264 -.085584 .65797 152.13 -9.4772)" r="11.562">
   <stop id="stop9038" stop-color="#fff" offset="0"/>
   <stop id="stop9040" stop-color="#fffffa" offset=".45226"/>
   <stop id="stop9042" stop-color="#e1e1e1" offset="1"/>
  </radialGradient>
 </defs>
 <g id="g4569" transform="matrix(4.5 0 0 4.5 -3260 -1756.2)" stroke="#575c6c">
  <g id="g6953" transform="matrix(.64 0 0 .64 535.09 321.29)" stroke-width="3.125">
   <path id="path4145-5-8-7" d="m418.01 152.49s11.992 14.873-22 46.25c-9.5651 8.8291 43.992 58.623 19 148.25-1.2662 4.5408-11.804 5.6448-10 10h64.994 0.006 64.994c1.804-4.3552-8.7334-5.4593-10-10-25-89.63 28.65-139.46 19.05-148.25-34.252-31.377-22.003-46.25-22.003-46.25z" fill-rule="evenodd" fill="url(#linearGradient7042)"/>
   <path id="path5367-7" d="m459.82 64.55s-15.426 4.8117-17.772 9.2272c-1.7486 3.2911 0.7283 11.157 0.7283 11.157s8.5293 1.9149 11.157-0.7283c4.2364-4.262 5.8875-19.655 5.8875-19.655z" fill-rule="evenodd" fill="url(#linearGradient7264)"/>
   <path id="path5367-2-9" d="m428.09 60.436s3.6287 15.747 1 20c-1.9593 3.1702-10 5-10 5s-5.9565-6.3981-5-10c1.5424-5.8079 14-15 14-15z" fill-rule="evenodd" fill="url(#linearGradient7256)"/>
   <path id="path5367-2-4-0" d="m455.59 130.92s3.6287-15.747 1-20c-1.9593-3.1702-10-5-10-5s-5.9565 6.3981-5 10c1.5424 5.8079 14 15 14 15z" fill-rule="evenodd" fill="url(#linearGradient7288)"/>
   <path id="path5367-2-4-3-0" d="m408.78 125.53s4.8117-15.426 9.2272-17.772c3.2911-1.7486 11.157 0.72829 11.157 0.72829s1.9149 8.5293-0.7283 11.157c-4.262 4.2364-19.655 5.8875-19.655 5.8875z" fill-rule="evenodd" fill="url(#linearGradient7280)"/>
   <path id="path5367-2-3-4" d="m393.38 81.051s14.459 7.2162 16.069 11.95c1.1999 3.5283-2.5026 10.897-2.5026 10.897s-8.7257 0.52655-10.897-2.5026c-3.5005-4.8844-2.6693-20.344-2.6693-20.344z" fill-rule="evenodd" fill="url(#linearGradient7272)"/>
   <path id="path5433-8" d="m417.63 96.362h105" fill-rule="evenodd" fill="url(#linearGradient4308)"/>
   <path id="path5437-3" d="m479.75 64.55s15.426 4.8117 17.772 9.2272c1.7486 3.2911-0.7283 11.157-0.7283 11.157s-8.5293 1.9149-11.157-0.7283c-4.2364-4.262-5.8875-19.655-5.8875-19.655z" fill-rule="evenodd" fill="url(#linearGradient7304)"/>
   <path id="path5439-3" d="m511.48 60.436s-3.6287 15.747-1 20c1.9593 3.1702 10 5 10 5s5.9565-6.3981 5-10c-1.5424-5.8079-14-15-14-15z" fill-rule="evenodd" fill="url(#linearGradient7312)"/>
   <path id="path5441-3" d="m483.98 130.92s-3.6287-15.747-1-20c1.9593-3.1702 10-5 10-5s5.9565 6.3981 5 10c-1.5424 5.8079-14 15-14 15z" fill-rule="evenodd" fill="url(#linearGradient7296)"/>
   <path id="path5443-1" d="m530.79 125.53s-4.8117-15.426-9.2272-17.772c-3.2911-1.7486-11.157 0.72829-11.157 0.72829s-1.9149 8.5293 0.7283 11.157c4.262 4.2364 19.655 5.8875 19.655 5.8875z" fill-rule="evenodd" fill="url(#linearGradient7328)"/>
   <path id="path5445-4" d="m546.19 81.051s-14.459 7.2162-16.069 11.95c-1.1999 3.5283 2.5026 10.897 2.5026 10.897s8.7257 0.52655 10.897-2.5026c3.5005-4.8844 2.6693-20.344 2.6693-20.344z" fill-rule="evenodd" fill="url(#linearGradient7320)"/>
   <path id="path6018-7" d="m445 152.36v195.62" fill-rule="evenodd" fill="url(#linearGradient4308)"/>
   <path id="path6020-4" d="m455 152.36v195.62" fill-rule="evenodd" fill="url(#linearGradient4308)"/>
   <path id="path6022-9" d="m394.27 202.36h150.47" fill-rule="evenodd" fill="url(#linearGradient4308)"/>
   <circle id="path5435-7" cy="96.362" cx="470.13" r="10" fill="url(#radialGradient7202)"/>
  </g>
  <path id="path7178" d="m800 544.36h72" stroke-width="2" fill="none"/>
 </g>
</svg>
