<?xml version="1.0" encoding="UTF-8" standalone="no"?>
<svg id="svg2" xmlns:rdf="http://www.w3.org/1999/02/22-rdf-syntax-ns#" xmlns="http://www.w3.org/2000/svg" height="100%" width="100%" version="1.1" xmlns:cc="http://creativecommons.org/ns#" xmlns:xlink="http://www.w3.org/1999/xlink" viewBox="0 -200 1000 1000" xmlns:dc="http://purl.org/dc/elements/1.1/">
 <metadata id="metadata12">
  <rdf:RDF>
   <cc:Work rdf:about="">
    <dc:format>image/svg+xml</dc:format>
    <dc:type rdf:resource="http://purl.org/dc/dcmitype/StillImage"/>
    <dc:title/>
   </cc:Work>
  </rdf:RDF>
 </metadata>
 <defs id="defs10">
  <linearGradient id="linearGradient9036">
   <stop id="stop9038" stop-color="#fff" offset="0"/>
   <stop id="stop9040" stop-color="#fffffa" offset=".45226"/>
   <stop id="stop9042" stop-color="#e1e1e1" offset="1"/>
  </linearGradient>
  <radialGradient id="radialGradient4393" xlink:href="#linearGradient9036" gradientUnits="userSpaceOnUse" cy="462.46" cx="131.74" gradientTransform="matrix(1 0 0 .67975 0 148.57)" r="36.228"/>
  <linearGradient id="linearGradient8265-7" y2="519.65" xlink:href="#linearGradient9036" gradientUnits="userSpaceOnUse" x2="173.46" gradientTransform="translate(-.011359)" y1="519.91" x1="119.63"/>
 </defs>
 <g id="g4645" transform="matrix(5.8 0 0 5.8 -354.6 -2471)" stroke="#575c6c" stroke-miterlimit="3.4">
  <path id="path4188-1" d="m147.25 440.3c-3.1112-0.0198-6.2255 2.9347-2.3927 8.9232-33.537 0-28.626 31.381-28.626 33.777 0 2.3955-2.5153 4.5514-2.5153 4.5514h33.512 0.0252 33.512s-2.5153-2.156-2.5153-4.5514c0-2.3955 4.9108-33.777-28.626-33.777 3.8464-5.9092 0.73818-8.9034-2.373-8.9232z" fill-rule="evenodd" stroke-width="2" fill="url(#radialGradient4393)"/>
  <path id="path4145-7" d="m120.89 487.55s-10.204 23.864-7.0667 38.448c1.3116 6.097 7.0667 19.044 7.0667 19.044s-5.6553 2.7044-4.791 4.791h31.139 0.003 31.139c0.86429-2.0866-4.791-4.791-4.791-4.791s5.7551-12.947 7.0667-19.044c3.1373-14.584-7.0667-38.448-7.0667-38.448h-26.348-0.003-26.348z" fill-rule="evenodd" stroke-width="2" fill="url(#linearGradient8265-7)"/>
  <path id="path4158-6" d="m120.89 545.05h52.701" stroke-width="2" fill="none"/>
  <path id="path4164-2" d="m115.69 502.68h63.099" stroke-width="1.954" fill="none"/>
  <path id="path4648-9" d="m114.19 514.72h66.102" stroke-width="2" fill="none"/>
 </g>
</svg>
