<?xml version="1.0" encoding="UTF-8" standalone="no"?>
<svg xmlns:rdf="http://www.w3.org/1999/02/22-rdf-syntax-ns#" xmlns="http://www.w3.org/2000/svg" height="1e3" width="1e3" version="1.1" xmlns:cc="http://web.resource.org/cc/" xmlns:dc="http://purl.org/dc/elements/1.1/">
 <metadata id="metadata24111">
  <rdf:RDF>
   <cc:Work rdf:about="">
    <dc:format>image/svg+xml</dc:format>
    <dc:type rdf:resource="http://purl.org/dc/dcmitype/StillImage"/>
    <cc:license rdf:resource="http://web.resource.org/cc/PublicDomain"/>
    <dc:title>Blank Africa Map</dc:title>
   </cc:Work>
   <cc:License rdf:about="http://web.resource.org/cc/PublicDomain">
    <cc:permits rdf:resource="http://web.resource.org/cc/Reproduction"/>
    <cc:permits rdf:resource="http://web.resource.org/cc/Distribution"/>
    <cc:permits rdf:resource="http://web.resource.org/cc/DerivativeWorks"/>
   </cc:License>
  </rdf:RDF>
 </metadata>
 <style id="style_css_sheet" type="text/css">/*
 * Below are Cascading Style Sheet (CSS) definitions in use in this file,
 * which allow easily changing how countries are displayed.
 *
 */
/*
 * Circles around small countries
 *
 * Change opacity to 1 to display all circles.
 *
 */
.circle
{
   opacity:0;
   fill:#b9b9b9;
   fill-opacity:1;
   stroke:black;
   stroke-width:0.5;
   stroke-miterlimit:3.97446823;
   stroke-dasharray:none;
   stroke-opacity:1;
}
/*
 * Land
 */
.land
{
   fill: #b9b9b9;
   fill-opacity: 1;
   stroke:white;
   stroke-opacity: 1;
   stroke-width:0.5;
   stroke-miterlimit: 3.97446823;
   stroke-dasharray: none;
}
/*
 * Styles for coastlines of islands with no borders
 */
.coast
{
   stroke-width: 0.3;
}
 .BORDER
{
 fill: #DD8585;
 opacity: 1;
}
.DONE
{
 fill: #55A3FF;
}
.BORDERDONE
{
 fill: #82BBFF;
}
.CURRENT
{
 fill: #C156F8;
}</style>
 <g transform="matrix(1.5943 0 0 1.5943 -1721.8 -693.26)">
  <path id="bf" class="land bf" d="m1228.9 669.24c0.5-1.39 1-2.99 0.7-4.47-0.4-1.61 0.6-0.65 1.2-1.86 0.4-0.75 1.2-3.03 0.3-3.72-0.5-0.46 0.6-1.5-1.1-1.98 0.8 0.05 1.3-0.6 1.9-0.99 1.1-0.63 2.6-0.12 3.6-0.77 1.3-0.79 2.9-3.89 1.8-5.25-0.6-0.65 0.2-1.08 0.9-1 1.1 0.13 1-0.86 0.9-1.72-0.1-0.56-1.3-1.39-0.3-1.73 0.8-0.26 1.8-2.36 2.2-3.01 0 1.27 3 2.78 4 2.88-0.2-1.2 0.5-1.04 1.5-1.01-0.1-1.09 0.4-2.59-0.1-3.6 0.8 0.16 1.6 0.22 2.3 0.65 1.1-1.64 1-5.23 3.8-5.53 1.4-0.14 3.2 2.08 3.4-0.4 0.2-1.33 1.7-1.16 2.6-1.63 1.1-0.61 2-1.5 3.3-2.09 1.4-0.7 4.1-4.33 6.2-2.47 0.4 0.35 1.3-0.47 2-0.27 0.8 0.26 1.7 0.56 2.5 0.95 1.3 0.6-1 3.77 0.9 4.81 1.2 0.64 0.2 2.64 1.1 3.54 0.5 0.5 1.5 1.54 1.4 2.21 0.9 0.37 3.4 2.03 5 3.26-0.8 0.35-1.4 0.33-2.1-0.15-0.9 2.49 2.3 5.38 4.3 6.32 1.6 0.75 2.5-1.14 3.6-0.81 1 0.27 1.1 1.74 1.5 2.48-2.5 0.87-0.4 2.32 0.5 4.06 1 1.86-1.4 4.55-3.2 4.67-0.5 0.02-2.2 0.53-2.5 0.27-0.9-0.71-1.1-0.35-1.9 0.32-1.4 1.32-2.3 3.06-4.1 3.33-2.9 0.41-3.5-0.51-5.2-0.83-0.8-0.15-1.6-0.42-2.4-0.43s-2.7 1.94-3.3 1.69c-1.4-0.59 1.6-0.64-8.6-0.61-3.4 0.01-5.4 0.24-8.1-0.01 0.3 1.56-1.2 2.37-0.7 3.31 0.5 1.29 0.8 2.31 1 3.65 0.2 1.14 0.3 2.57 0.2 3.85-0.1 1.13 0.8 2.48 0 3.09-1.3-0.94-2.5-3.2-3.3-4.54-0.7 1.07-3.6-0.21-4.8 0.22-1.2 0.47-3.8 0.84-3.8 2.59-0.8-0.13-3.5-1.27-4-1.86-0.4-0.55-0.9-0.84-1-1.28-0.1-0.86-0.9-2.5-1.5-2.84-1.1-0.57-2.2 0.27-2.6-1.29"/>
  <path id="ly" class="land ly" d="m1342.4 499.68c-0.9-0.83 1.1-1.81 1.6-2.05 1.7-0.75 2.5-1.18 3.5-2.75 0.8-1.27 1.6-1.89 1.2-3.52-0.2-1.41-0.9-2.82-0.7-4.29 0.2-2.02 2.6-1.5 3-2.94 0.4-1.56 1.7-2.36 3-2.98 1-0.47 4.2-1.36 4.2-2.73 0.1-0.69-0.6-1.12-0.5-1.85 0.1-1.35 0.1-2.69 0.3-4.04 1.3 0.9 3 1.36 4.4 2.21 1.4 0.9 3.1 1.2 4.8 1.02 1.7-0.19 3-1.28 4.7-0.64 1.6 0.57 3.3 0.63 4.8 1.28 1.4 0.58 2.5 1.63 3.8 2.17 1.2 0.47 2.9-0.02 3.9 0.72 1.3 0.87 1.5 2.37 1.8 3.77 0.3 1.79 1 3.22 2.4 4.43 2.5 2.18 5.6 1.67 8.7 2.22 3 0.55 7.4 1.94 9.8 3.91 2 1.59 3.8 4.26 6.6 4.01 3.2-0.3 6.6-3.14 7.3-6.38 0.4-1.49-0.6-2.65-1.1-4-0.5-1.49-0.9-3.19-0.4-4.73 1-2.82 5.6-6.32 8.6-6.42 1.5-0.05 2.4-1.15 3.8-1.26s3-0.14 4.4 0.21c1.6 0.4 3 1.19 4.6 1.8 1.8 0.73 1.4 0.98 1.4 2.59 0.1 1.31 2.2 1.59 3.2 1.66 1.8 0.14 3 0.97 4.7 1.46 1.7 0.48 3.4-0.08 5.1 0.23 1 0.18 2.4 2.1 2.1 3.12-0.4 1.06-1.7 1.34-1.8 2.54-0.3 1.66 0.8 2.89 1.1 4.43 0.3 1.74-0.8 3.28-1.4 4.79-0.7 1.6 1 3.5 1.3 5.16 0.4 2.83 0.9 5.5 1.1 8.4l1.8 75.28h-7.5c0.1 1.44 0 2.88 0.1 4.32l-59.6-33.76-13.5 6.48c-1.2 0.31-2.6-1.56-3.2-2.22-2.8-2.79-5.9-3.35-9.6-4.2-1.3-0.3-3.1-0.46-4.2-1.19-1-0.58-1.4-2.22-1.8-3.17-1.1-2.79-2.5-3.55-5.3-4.58-0.9-0.34-1.7-1.11-2.7-1.09-1 0.03-2.1 1.11-3 0.12-0.7-0.8-2-2.85-2-3.96 0-2.32-0.3-3.16-1.5-5.14-1-1.52-4.3-4.22-2.9-6.24 1.6-2.33 4.1-1.44 3.1-5.27-0.6-1.91-1-3.38-0.3-5.33 0.6-1.66 0.9-3.04 0.3-4.76-0.7-1.81-0.2-3.62 0-5.46 0.2-2.18-0.1-4.38-0.9-6.44-0.6-1.76-1.5-3.42-2.6-4.94"/>
  <g id="mg" transform="translate(-29.902 -45.074)" class="land coast mg">
   <path id="path2622" d="m1625.4 995.61c0.6 2.41-0.6 5.29 1.1 7.39 0.8 1.1 0.8 2.2 1.2 3.4 0.4 1.1 1.5 1.3 0.4 2.5-1 1.2-0.9 5.2-0.2 6.6 0.6 1.3 1.3 2.3 1.6 3.8 0.5 1.9 1.7 2.4 3.1 3.5-1.8-1-0.2 0.4 0.2 0.5 0.6 0.2 1.3 0.1 2 0.3 1.5 0.4 2.4 2.1 4 2.5 2.7 0.6 5.5-2.9 8-3.6 0.9-0.3 1.9 0.3 2.7 0 0.7-0.3 1.3-0.7 2-0.9 1-0.1 1.6-1.3 1.9-2.2 0.6-1.1 0.9-2.2 1.2-3.4 0.5-1.7 1.5-3 2-4.5 0.9-2.9 1.9-5.7 2.7-8.7 1.1-4.21 2.8-7.98 4.3-12.07 1.2-3.31 1.9-6.7 3.3-9.91 0.5-0.94 1.3-2.42 0.8-3.49 0.5 0 1.1-2.03 1.2-2.36 0.9-2.25 1.3-4.62 2.3-6.83 1.3-3.23 2.5-5.98 3.2-9.45 0.5-2.58-1.2-6.36 1.9-8.05 0.6-0.34 1.3-2.29 1.4-3.06 0-0.72-0.1-1.43 0-2.14 0.2-0.98-1-0.86-1-1.79 0-0.71-0.7-6.19 1-5.44 1.5 0.64 1 3.76 2.5 4.27 1.6 0.57 2.7-3.82 2.9-4.79 0.2-1.39-0.7-2.08-1.1-3.32-0.7-2.26-0.6-4.47-0.7-6.8-0.2-4.29-1.2-8.83-2.9-12.67-0.3 0.16-0.5 0.33-0.7 0.51 0.2-0.58-0.1-0.7-0.4-1.05-0.6-0.59 0.3-0.95-0.2-1.59-0.5-0.6-0.8-2.88-2.1-2.12-0.1-0.26-0.1-0.52-0.1-0.79 2.2 0.21-1-3.08-0.6-0.32 0.1 1.08-2.1 3.08-3.1 3.06 1.9 0.97 0.7 3.82 0.3 5.11-0.6 1.9-0.6 3.11-2.9 3.17 0.3 1.37-0.2 0.29-0.8 1.08-0.5 0.57-0.5 1.4-0.7 2.08-0.6-0.02-2.7-4.4-3.1-1.3-0.1 1.11 0.3 1.83 0.7 2.82 0.4 0.89-0.3 3.34-0.4 1.58-0.2 0.86-2.8 0.96-1.8 2.94 0.6 1.05 2.7 0.64 1.8 2.32 0.3-1.31-1-1.43-1.8-0.8-1.2 0.87-1.1 2.84-2.6 3.32-0.2-1.11 0.9-1.96 0.6-3.1-1.1 0.24-0.8 1.01-1.3 1.8-0.4 0.77-1.7 1.18-1.8 2.09-0.2 0.63 0.5 1.33 0.8 1.85 0.5 1-1.3 1.21-1.9 1.68 0.1-0.69 1.4-2.7-0.4-2.66-1 0.03-1.9 1.3-2.6 1.83-0.5 0.36-1.9 1.09-1.8 1.89 0.1 0.41-0.3 0.93-0.1 1.31 0.2 0.53 0.9 0.44 1.1 1.08-0.8-0.05-1.6 0.11-1.8-1.01-0.2-1.42-1.6-1.39-1.6 0.08-0.3-0.55-1.9-0.71-2.5-0.44-0.7 0.35-0.4 1.53-1 2.02 0-1.49-1.7-0.32-1.8 0.58-0.2-0.46-0.5-0.9-0.8-1.3-0.9 0.6-1.6 1.63-2.6 2-0.9 0.35-2.6-0.41-3.3 0.3-0.4 0.35-0.1 3.2-0.4 2.89 0.3 1.15-0.5 2.48-1.1 3.42-0.9 1.56-3.9 4.48-2.8 6.37 0.8 1.3 0.1 3.65 0.2 5.17 0.2 1.73 1.4 3.16 1.4 4.86 0 1.58-0.1 2.58 0.8 3.98 0.9 1.5 0.4 2.18-0.1 3.65-0.3 1.05 1 1.38 0.4 2.51-0.7 1.2-1.5 2.35-2.3 3.53-0.7 1.26-1.7 2.53-2.3 3.92-0.4 1.07 0 2.85-1.4 3.33-1.6 0.57-2 0.6-2.2 2.47-0.1 1.56-1.5 2.99-1.9 4.59"/>
   <path id="path2624" d="m1667.4 920.73c0.4-0.62 0-1.29-0.5-1.73-0.7 0.59-0.5 1.75 0.5 1.73"/>
   <path id="path2628" d="m1678.8 949.6v-0.43c-0.5 0.81-1.6 1.71-1.1 2.74 0.4-0.72 0.6-1.57 1.1-2.31"/>
  </g>
  <path id="ci" class="land ci" d="m1205 703.22c0.5-0.92 1.6-1.13 2-2.12 0.2-0.66 0.4-1.71 0.5-2.41 0.1-1.28-0.4-3.6-1.4-4.54 0.6-0.62 1.4-0.3 2 0.07 0.2-0.75 1.4-1.58 0.9-2.41-0.4-0.67 0.2-2.11 1.2-1.62-0.7-1.02-1.9-1.66-2.2-2.92-0.6-2.37 3.8-0.5 4.5-0.18-0.5-1.57-0.3-3.33-2.3-3.67 0.3-1.05 0.3-2.17 1.7-2.37-1.1-1.34-1.3-1.05-1-3.03-2.4 1.57-2.3-3.84-2-5.04 0.3-1.15 1.2-1.45 2.2-1.75 0.5-0.16 0.6-1.19 1-1.56 0.6-0.54 1.4-0.19 2.1-0.5-0.2 1.4 2.7 2.8 3.8 2.3-0.8-1.27 0.5-1.34 1.5-1.32 1.2 0.01 0.8-2.04 0.8-2.86 0.5 0.27 1 1.19 1.7 1.01 0.6-0.17 0.7-1.38 1.4-1.65 0.6 0.99-0.2 4.35 1.2 4.71 1.3 0.32 0.3-2.51 4.2-2.39 0.4 0.01-0.8 1.14 2.3 1.34 1.5 0.09 1.8 3.02 2 3.26 1 1.24 3 2.55 4.9 2.94 0-1.75 2.6-2.12 3.8-2.59 1.2-0.43 4.1 0.85 4.8-0.22 1.2 1.43 1.7 2.99 3.3 4.54 0.2-0.23 0.3-0.47 0.5-0.72 0.5 1.43-0.6 2.79-0.4 3.51 0.3 1.2 1 1.78 1.2 3.17 0.1 1.15 0.8 3.09 0.4 4.18-0.5 1.22-1.1 1.87-1.7 2.98-0.8 1.47-2.1 2.33-2.1 3.96 0.1 2.13-1 3.68-1.4 5.26-0.5 1.66-0.2 4.35 0.8 5.71 1 1.33 1.5 3.13 1.1 4.56 2.5-0.71 1 3.18 1.5 4.4-0.6-0.01-1.1 0.06-1.6 0.21 0.2-0.27 0.4-0.54 0.5-0.79-1.2 1.81-2.2-0.47-2.4-1.37-0.7 0.72-0.9 1.72-2 1.8-0.7 0.05-1.7-0.29-2.2-0.79-0.4 0.73-1.3 0.04-1.6-0.29 0.6-0.14 1.3 0.48 1.8-0.21-0.2-0.24-0.5-0.43-0.8-0.58 0.3 1.44-0.2 0.1-1.2 0.36 0.2 0.43-2.4 0.18-3 0.25-0.4 0.04-3.6 0.61-3.3 0.75 1.6 0.86 4.7-1.91 6-0.28-2 0.11-3.9 0.44-5.8 0.78-0.5 0.08-1.4 0.27-1.7-0.25-0.4-0.73-2.3-0.4-3 0.26 1.2-0.45 1.8-0.33 2.9 0.07-2.4 0.28-5.1 0.15-7.4 1.15-2 0.86-3.8 2.48-6 2.71-1.1 0.11-3.5 1.4-4.4 2.2-1.9 1.81-2.2-1.53-1.9-2.91 0.3-1.63 0.9-3.44 1.4-4.79 0.6-1.8 0.1-3.75-1.4-4.95-0.8-0.72-2.1-1.04-1.9-2.56 0.1-1.74-5.2-0.22-4.1-2.22-0.6 0.14-1.2-0.14-1.7-0.58"/>
  <path id="dz" class="land dz" d="m1208.9 523.44l0.5-10.87c-0.5-2.93 4-3.89 5.6-5.36 0.8-0.73 2.1-2.22 3.3-2.14 1.1 0.06 1.4-1.55 2.8-1.82 2.3-0.45 3.4 1.77 4.8-1.26 0.4-0.95 1.9-0.55 2.7-0.66 1.5-0.2 3-0.4 4.3-0.91 2.8-1.04 3-4.05 5.4-5.31 0.9-0.52 2.2-0.58 3.3-0.96 1.2-0.48 2.1-1.91 3.4-2.18 0.5-0.09 3.1-0.3 2-1.67-0.7-0.89-1.8-1.21-0.3-2.5-2.1-0.55-0.2-2.67 1.2-2.54 2 0.16 3.8-0.54 4.5-2.37 1.3-3.51 10.4-0.4 13-1.07-3-1.33 2.1-2.97 0.5-4.21-0.7-0.59-1.6-1.1-2.2-1.85-0.7-0.87-0.3-2.11-1-3.18-0.8-1.11-0.4-2.02-0.2-3.12 0.2-1.04-0.6-1.05-0.5-2.06 0.2-0.94 0.1-2.07 0.2-3 0-1.26-0.9-2.27 0.4-3.24-1.3-0.53-0.8-1.25-1-2.22-0.2-1.28-2.5-1.7-3-3.03 2.4 0 3.5-0.58 5.5-1.62 0.9-0.46 1.4-0.46 2-1.39 0.5-0.83 0.8-1.52 1.7-1.99 0.5-0.27 1.4-1.04 2-0.63 0.7 0.54 1.5-0.39 2-0.81 1.1-1.07 2.7 1.63 3.9-0.84 1.7-3.3 7.2-4.73 10.4-5.11 2.4-0.26 4.7-0.9 7-0.74 1.8 0.11 3-2.1 4.5-1.25 0.6 0.37 0.5 0.16 0.7-0.25 0.1-0.09 2.7-0.05 3.1-0.21 2.2-0.89 4.5-0.55 6.9-0.62 1.9-0.05 2.4 0.36 3.9 1.49 1.9 1.45 2.6-0.69 4.3-0.9 0.5-0.06 3.8-0.21 3.6-1.19-0.3-1.77 2.1-0.68 2.7-0.29 1.2 0.8 3 1.21 4.2 0.22 0.7-0.54 0.3-1.24 1.6-0.92 0.9 0.23 1.6 0.9 2.6 0.85-0.9 1.39 1.2 0.9 1.9 0.73 1.3-0.34 2.7-0.02 4-0.45 0.1 1.8-2.2 2.68-3.2 3.82 2.7 0.58 0.1 4.38 0.7 6.12 0.9 3.02 0.5 5.3-0.1 8.28-0.5 2.45-3.3 4.36-5.1 5.97-1 0.94-0.5 3.39 0.1 4.43 1 1.68 0.5 3.51 2.6 4.3 2.8 1.07 2 4.65 4.3 6.35 1 0.79 2.3 1.37 3.2 2.36 1.2 1.34 1.4 3.54 1.6 5.25 0.6 3.52 2.3 7.43 2.3 10.98 0 0.95-2 0.59-0.7 2.32 1.2 1.68 2.3 3.65 2.7 5.72 1.4 7.11-0.7 7.06 0.4 10.71 0.5 1.74 0.5 3.01-0.1 4.7-0.8 1.92-0.1 3.7 0.3 5.61 0.6 2.88-0.7 2.93-2.7 4.48-2.3 1.76 1.5 5.19 2.6 6.75 1.9 2.91 0.7 6.37 3.2 9.09 1 1.04 2.1-0.21 3.1-0.13 1.3 0.1 2.8 1.08 4 1.53 2.8 1.01 3.7 3.36 4.8 6.02 0.5 1.26 0.9 1.41-0.4 2.18-14.2 9.06-28.5 18.11-40.6 29.89-0.7 1.01-3 3.54-4.7 4.51-1.3 0.73-3.3 0.8-4.8 1.1-1.9 0.41-3.9 0.8-5.9 1.22-1 0.21-9.7 3.21-9.4 0.12 0.2-1.08 0.9-1.51 0.8-2.71 0-0.47 0.1-2.9-0.4-3.14-1.4-0.73-3.3-1.07-4.9-1.38-0.8-0.15-1.8-2.18-2.4-2.03-3.5 0.86-4.1-2.63-4.7-3.15-0.8-0.62-2-0.67-2.7-1.19-0.8-0.58-0.1-2.02-0.6-2.8-0.6-0.99-1.6-1.84-2.5-2.4-1.6-0.95-3.1-2.08-4.6-3.23-3.7-2.85-7.3-5.78-10.9-8.65-14.1-11.08-28.2-22.12-42.9-32.32-3.6-2.44-7.1-4.85-10.6-7.23"/>
  <path id="cm" class="land cm" d="m1336.2 717.91c0.9-0.81 1.5-1.99 1.5-3.19 0.1-1.12 1.5-3.28 1.1-4.05-0.4-0.78-0.6-1.09 0.6-2.39 1.1-1.3 2.3-2.61 3.5-3.79 0.8-0.68 1.7-0.97 2.1-1.91 0.3-0.81 1.6-2.97 2.5-3.22 1-0.28 1.5 1.03 2.7 0.77 1-0.21 1.1-1.55 1.3-2.31 0.2 0.77 2.2 2.87 3 3.07 0.7 0.2 0.9 1.23 0.6 2.02-0.2 0.57 0.8 1.42 2 1.15 0.3-0.58 2.2-2.3 1.7-3.34-0.3-0.72 1.2-1.68 1.7-2.1 0.9-0.7 0-1.75 0.5-2.69 0.9-1.83 2.2-3.51 2.8-5.8 0.3-0.97-0.1-2 0.2-2.92 0.2-0.71 1.4-0.96 1.3-2.14-0.3-0.1 2.5 0.28 3.1-2.51 0.1-0.63 1.2-3.75 0.2-3.96 1.2-0.63 3-1.43 3.2-2.83 0.1-0.91 0.1-1.67 0.1-2.59 0-0.95 0.9-0.87 1.4-1.52 0.5-0.8 0.4-1.92 0.8-2.92 0.3-1.05 0.6-2.05 0.7-2.68 0.3-1.23 1-3.53 2.3-4.05 0.7-0.27 4.7-0.24 5.2-2.51 0.1-0.64-0.5-1.14-0.4-1.88 0.1-1.29 0.2-2.03 0.4-3.01 0.3-1.14-1.8-2.13-2.5-1.92-0.5 0.21-1.3-0.97-1.5-2.45-0.2-2.34-0.1-3.22-0.5-3.9 0.9 0 2.3-0.07 2.9 0.68 1 1.12 0 2.24 2.2 2.85 1.2 0.32 1.3 2.98 1.4 3.9 0 0.92-0.1 0.15 0.8 1.06 1.9 1.81-0.1 7.18 0.1 9.56 0.4 3.3 2 7.08 5 8.74-1.2 1.03-2.8 0.54-3.8 0.05-1 0.1-1.2 0.26-2.2 0.3-2.3 0.08-4.5-1.36-5.7 0.47-1.3 2.23-1.2 2.62 0.6 4.71 1.9 2.09 3.9 3.9 5.9 5.81 0.6 0.57 1.4 1.46 1.8 2.21 0.8 1.46 1.4 4.46 2.3 5.88 0.9 1.45-0.9 2.47-1.3 3.06-0.7 0.93-1.7 3.1-2.3 4.62-0.2 0.5-0.7 1.28-0.9 1.79-0.4 0.95-1 1.7-1.4 2.62-0.6 1.28-3.8 2.53-2 3.25 1.4 0.53 1.2 1.87 1.1 3.62-0.1 0.79-0.2 1.5-0.6 2.17 0-0.07 1 1.17 1 1.26 0.2 1.48-0.2 3.73 0.8 4.91 0.6 0.73 1.4 1.01 1.7 2.14 0.2 0.85 0.6 1.98 1.4 2.53-2.5 0.07 3 6.61 3.5 6.99 1.2 0.96 2.9 1.53 3.1 2.39 0.2 0.66 0.3 1.01 0.3 1.65 0.1 1.6 0.5 3.26 0.8 4.81-1.9 0.88 0.2 4.01-1 4.9-1-1.05-2.2-2-3.7-2.47-0.6-0.2-2.5-0.96-3-0.62-0.7 0.44-2 0.37-2.4-0.62 0-0.05-2.2-0.46-2.4-0.55-0.7-0.26-2.6-0.06-3.5-0.11-1.6-0.09-3.2-0.07-4.8-0.3-0.3-0.04-1.1 0.21-1.4 0.06-0.6-0.3 0.3-0.91-0.9-0.79-1.5 0.14-2.8 0.38-4.3 0.06-1.7-0.38-3.2-0.08-5-0.14-1.1-0.03-3.2-0.7-4.3-0.09-0.4 0.18-0.2 1.11-0.6 1.11h-3.3c-1.5 0-3 0.05-4.6 0.09-3.3 0.07-4-1.74-3.3-4.79 0.4-1.74 1-3.63 0.1-5.31-0.5-0.8-2-2.14-0.4-2.67-0.9 0.52-2.6-0.33-1.6-1.38 0.6-0.55 1.8-1.51 0.2-1.57 0.3-0.35 0.5-0.75 0.5-1.22-0.5 1.23-1.1 0.25-1.9 0.29 0.3 0.4 0.5 0.7 0 0.43 0 0.39 0 0.78-0.1 1.15-0.7-0.02-1-0.54-0.8-1.15-0.6 1.04-2.2-0.27-2.4-1.03-0.4-1.21-0.4-3.28-1.3-4.23-1 1.22-0.8-0.21-1.4-0.21 0.1 0.47 0.1 0.95 0.2 1.43-2.1 0.26-1-1.66-0.7-2.73"/>
  <path id="bw" class="land bw" d="m1421.3 973.8l0.9-23.98 6.8 0.01 1-31.85c2.4-0.58 8.5-0.94 12-2.15 1.1-0.38 3.8-0.95 4.9-0.32 1.4 0.85 1.7 2.61 2.4 4 2-1.52 3.5-4.62 5.7-4.68 0.9-0.02 0.8 0.48 1.4 0.57 0.8 0.11 1.3-1 1.9-1.36 1.9-1.16 4-0.99 3.6-0.29-0.1 0.2 0 1.31 0.1 1.55 0.5 1.31 1.3 2.56 2.1 3.68 0.9 1.09 1.6 1.68 2.2 3.56 0.4 1.35 0.6 1.63 1 2.91 0.8 2.68 2.8 4.98 5.2 6.23 2.6 1.34 4.9 1.06 4.1 5.18 2.3-0.55 4.2-0.28 3.1 2.85-0.3 1.08-0.2 1.9 0.4 2.84 0.7 1.02 1.2 3.44 2.2 3.77 2.2 0.67 4.1 0.56 6.4 1.35 1.7 0.58 0.2 1.39 0.7 2.27 0.4 0.67 2 0.46 2.2 1.43-2.7 0.33-2.3 0.9-3.3 2.29-1.1 1.56-4.1 0.78-5.4 2.2-1.2 1.28-2.2 3.41-3.8 4.67-0.2 0.14-0.8 0.72-1.4 1.17-1.1 0.76-2.3 1.04-3.1 1.97-1.1 1.25-1.3 1.61-1.5 3.48-0.3 2.29-1.6 2.81-3.2 4.75-1 1.14-2.6 1.46-4.2 1.72-1.1 0.19-0.4 0.63-0.7 1.75-0.2 1.48-1 2.81-1.4 4.22-0.7 2.1-1.9 2.83-4 2.64-2-0.16-1.7 1.23-4.2 0.68-1-0.22-3.4-1.33-4.2-1.38-1.3-0.09-2.1-0.86-2.8-1.75-1.1-1.33-4-2.31-5.5-0.38-1.3 1.77-0.7 3.74-2 5.56-0.6 0.89-1.5 1.51-2.3 2.08-1.1 0.72-1.4 1.87-2.3 2.69-0.6 0.62-1.2 0.35-1.9 0.65-0.3 0.21-0.3 0.46-0.2 0.81-0.3 0.79-1.5 1.01-2.2 0.97-1.1-0.07-1.8-0.35-2.8-0.43s-1.9-0.46-3.1 0.57c-1.8-3.46 2-5.02 0.6-9.72-0.5-1.78-1.2-3.76-2.1-5.37-0.8-1.41-2.3-2.11-3.3-3.41"/>
  <path id="ke" class="land ke" d="m1530.8 768.6c1.5-1.11-2.3-5.71 2.9-4.63 0.1-0.29 0.3-0.88 0-1.43l3.2-0.4c-2.1-3.15-3-0.68-4 0.18-0.9 0.74-2.9-2.52-2.8-4.51 0.8-1.45 0.3-2.1 1.8-3.46 1.1-1 1.9-4.31 3.7-5.12 0.9-0.39 0.8-0.52 0.7-1.27-0.1-1.17 1.3-1.73 1.6-2.76 0.3-1.23 0.5-2.44 0.6-3.67 0.1-1.12-1-1.9-1.3-3.15-0.5-2.79-2.2-3.4-2.5-4.63-0.2-0.98-0.7-1.81-1-2.74-0.3-0.41-0.4-0.84-0.4-1.3 0-0.63 0.7-0.98 0.5-1.65-0.2-0.59-0.8-0.74-1.3-0.93-1.1-0.42-0.3-1.28-1.5-1.16 0.5-1.12-0.9-2.2-0.8-2.98s1.1-1.4 1.6-1.96c1.9-1.95 4.2-1.39 6.6-1.39 1.4 0 2.8-0.12 4.2-0.13 0.7-0.01 1.4-0.05 2.1 0.06 0.6 0.1 0.8 1.13 1.5 1.4 2.2 0.85 4.6-0.18 6.8 0.85 2.4 1.08 4.9 3.07 6.7 4.85 0.9 0.9 1.6 1.54 3 1.69 0.8 0.09 2.8-0.45 3.5-0.01 1.9 1.22 4.8 0.13 6.5 1.73 0.2-1.14 1.8-2.78 2.5-3.76 1.2-1.74 3.9-2.43 5.7-3.29 2-0.92 2.3 1.24 3.8 2.1 1 0.59 2.1 0.2 3.2 0.01 0.8-0.15 1.8 0.41 2.6-0.03-1.2 2.1-2.3 4.4-3.8 6.32-1.6 2.03-3 3.16-3 5.89 0 6.45 0.1 12.9 0.1 19.35 0 4.83-1 9.42 2.2 13.37 1.1 1.34 2.8 3.06 1.6 4.82-0.7 1.03-2.8 2.92-4.1 1.73-0.1 0.26-0.2 0.52-0.2 0.79-0.3-0.25-0.4-0.51-0.6-0.79 0.3 0.79 1.2 2.23 0.4 3.03-0.1-1.96-0.9 0.28-1.1 0.73-0.4 0.93-1.2 1.11-2.1 1.23-2 0.28-2.7 2.01-2.1 3.67 0.3 0.75-1.1 2.94-1.7 3.41-1 0.78-1.8 6.09-2.9 5.64 0.5 2.06-1.5 3.52-1.9 5.4-0.8-0.61-0.7 0.45-1.4 0.29-0.9-0.21-2-1.75-2.7-2.27-3-2.29-6.8-4.78-8.7-7.25-0.4-0.65-1.3-0.76-0.3-1.89 1.4-1.6-1.1-3.53-2.4-4.35l-25.1-15.68"/>
  <g id="sl" transform="translate(-29.902 -45.074)" class="land coast sl">
   <path id="path2896" d="m1202.4 738.72c-0.1 0.17-0.1 0.34-0.2 0.5 1 0.31 1.9 0.72 2.9 0.87 0.2-0.39 0.3-0.92-0.1-1.19-0.7-0.48-1.8-0.13-2.6-0.18"/>
   <path id="path2902" class="land sl" d="m1199.4 726.48c0.7-0.57 1.5-0.07 2.1-0.5 0.7-0.42 0.5-1.57 1.3-1.8 1.4-0.4 2.3-2.97 2.7-4.13 0.7-1.94 2.7-0.51 4.2-1.48 1.2-0.83 4.7-0.9 5.9 0.02 1.2 0.88 1.8 2.38 2.6 3.6 0.4 0.64 0.8 1.29 1.1 2 0.2 0.51-0.4 1.15 0 1.52 0.4 0.45 0.9 0.35 1 1.12 0 0.61-0.2 1.65 0.2 2.14 0.7 0.68-1.5 2.89-1.4 4.06 0.2-0.36 1.8-1.21 2.2-1.44 1.4-0.89 1.2 0.33 0.8 1.45-0.4 1.27-2.2 0.92-2.4 2.77-0.2 1.78-0.2 1.69-1.2 2.73-0.8 0.82-1.5 1.64-2.7 2.45-1.4 1.09-2.1 3.86-2.8 3.66-0.7-0.22-6.5-3.35-7.4-4.13 1.6 0.46 0.3-0.31-0.1-0.58 0.7-0.48 1.6-0.48 2.2-1.08-1.3 0.17-3.3 0.38-2.1-1.58-0.9 2.02-2-0.25-2.8-0.14-0.5 0.07-1-3.47-1-3.89-1.1 0.25-2.8-0.66-2-2.09 0.5 0.38 1 0.71 1.5 1.01-1.2-0.63 0.6-1.71 1.3-1.66-0.3-0.48-0.1-0.35-0.1-0.93-0.6 1.3-1.2 0.63-2 0.14-0.2 0.26-0.2 0.52-0.3 0.79-1-1.58-0.2-2.19 1.2-2.52-0.5-0.7-1.6-0.64-2-1.51"/>
  </g>
  <path id="ml" class="land ml" d="m1178.5 631.8c1.4-0.33 2 0.4 3.1-1.01 0.9-1.18 0.5-3.74 1-5.23 1-3.38 5.7 2.23 6.2 3.29 0.9-2.47 2.4-3.82 5.2-2.67 1.9 0.76 5.8 0.62 6.2-1.94 1.1 2.56 6.3 1.42 8.3 1.26 5-0.38 10.2-0.11 15.2-0.11 1.8 0 3.9-0.21 5.7-0.03 1.3 0.13 0.9-2 1-3.1 0.2-1.24 1.4-3.63 0.1-4.45-2.3-1.43-1.7-2.69-1.7-4.5l-5.2-70.07h13.3c13.7 10.27 26.5 20.49 39.5 30.67 1.5 1.12 4.4 2.25 4.2 4.59 0 0.74-0.1 1.39 1.2 1.92 0.6 0.25 1.3 0.43 1.9 0.79 0.9 0.61 0.7 1.69 1.4 2.42 0.7 0.68 1.4 0.78 2.3 0.93 0.7 0.11 0.2-0.59 1.4-0.02 0.8 0.41 1.1 1.51 2.1 1.81 1.5 0.46 3.4 0.59 4.8 1.4 1 0.58 0.7 3.35 0.3 4.32-0.6 1.34-1.5 2.61 0.7 2.91 2.2 0.33 4.8-0.87 7-1.15-0.3 6.14 0.6 12.67-0.2 18.75-0.1 0.7 0.1 1.18-0.4 4.51-0.2 1.09 0.2-0.3-1.3 2.9-0.5 0.98-0.4 2.17-0.9 3.18-0.4 0.98-1.3 1.28-2.1 1.88-1 0.74-0.3 1.71-1.6 1.49-0.3-0.05-3-0.75-3.1-0.3-0.3 1.19-8.5 0.79-9.7 0.89-3.1 0.24-3-0.13-5.2 2.22-0.6 0.74-2 1-2.9 0.79-0.6-0.1-1.8-0.11-2.4-0.1-1-0.01-0.9-0.78-0.9 0.46-0.7-0.27-1.4-0.61-2.1-0.91-1.7-0.71-2.1 0.48-2.8 0.01-0.6-0.47-1.7-1.08-3.1 0.18-1.5 1.32-3.6 2.41-4.4 2.98-1.4 0.94-2.5 1.69-3.9 2.05-1.2 0.3-0.3 2.82-2 2.05-1.1-0.48-2.1-1.13-3.2-0.34-1 0.68-1.5 1.92-1.9 2.99-0.2 0.61-0.5 1.59-0.8 2.17-0.2-0.17-1.8-0.56-2.4-0.66 0.5 1.01 0 2.5 0.1 3.6-1-0.04-1.7-0.2-1.5 1.01-1-0.11-4-1.62-4-2.89-1.9 4.55-3.3 2.4-2.3 4.02 0.5 0.9 0.6 1.58 0.3 2.35 0 0.31-2.3-0.09-1.8 0.87 1 1.76 0.6 3.65-1.4 5.32-0.9 0.77-2 0.46-3.1 0.66-1 0.19-1.6 1.31-2.7 1.26 2 0.5 0.5 1.54 1.1 1.89 1 0.6 0.2 3.25-0.4 4.19-0.2 0.32-1.3 0.45-1.2 0.75 0.3 1.51 0.5 3.38-0.5 4.74-0.4 0.55-1.7 0.53-2.3 0.7-1.2 0.34-0.5 1.98-2.1 1.84-1.7-0.16-0.6-3.61-1.2-4.68-0.7 0.28-0.8 1.48-1.4 1.66-0.7 0.18-1.2-0.74-1.7-1.01 0 0.82 0.4 2.87-0.8 2.85-1-0.02-2.3 0.06-1.5 1.32-1.1 0.51-4-0.9-3.8-2.3-0.6 0.26-1.5-0.04-2 0.49-0.7 0.84-0.6 1.84-2 1.96 1-1.91-2.3-2.19-2.3-3.81 0-1.03 0.2-2.24 0-3.25-0.4-1.43-2.3 0.25-2.9 0.22 0.2-0.93 1-3.36 2.3-2.88 0.6-1.39-2.3-1.91-2.5-3.24-0.9 0.51-0.8-0.51-0.7-1.09 0.2-1.31-0.4-1.82-0.9-2.92-0.4-0.86 0.1-2.09-0.9-2.6-0.4-0.19-1.8-0.96-2.2-0.57-0.5 0.42 1 1.49 0 1.95-1.1 0.52-2 1.41-3.1 1.96-0.8 0.39-1.6-0.72-2.3-0.98-1.3-0.56-2.4-0.46-3.4 0.7-2.4 2.91-1.1-0.56-3.2-1.28-1.3-0.46-2.8 3.94-4.2 0.54-0.4-1.08 1.4-2.08 0.5-3.3-0.5-0.71-0.1-2.39 0.2-3.13 0.3-0.87-2.3-5.84-2.9-3.68-0.6-0.18-1.6-2.11-1.9-2.7-0.2-0.53 0.6-1.59 0.5-2.63 0-1.57 0.2-2.24-0.9-3.47-0.4-0.43-0.8-0.95-0.6-1.56 0.5-1.06 0.2-1.06-0.3-2.1"/>
  <path id="cd" class="land cd" d="m1363.8 809.5c0.7-0.52 1.5-0.08 1.8-1.01 0.2-0.76 0.9-3.72 0.3-4.33-1.4-1.59 4-3.99 5-4.89 0.3 1.14 2 1.31 2 2.52 0.6-0.56 1.3-0.89 1.9-1.37 0.8-0.66 0.5-1.85 1.2-2.59 1.2 1.59 3-1.45 4.4-0.75 1.3 0.68 0.1 0.98-0.1 1.83-0.2 0.95 0.4 1.99 0.4 2.95 0.6-0.77 1.9 0.2 2.7-0.36 1.2-0.83 1.9-2.41 2.8-3.52 0.5-0.57 2.4-1.5 2.5-2.02 0.3-1.38 1.4-1.71 2.6-2.2 2.6-1.14 3.1-6.14 3-8.53 0-1.82 0.2-3.46-0.1-5.28-0.2-1.74 2-2.19 2.7-3.57 1.8-3.24 1.6-5.3 5.2-7.69 1.4-1 2.4-2.19 3.3-3.57 1-1.39 0.3-3.4 0.7-4.99 0.4-1.39 1-7.37 1.1-8.93 0.1-1.78 1.1-3.33 1.4-5.05 0.3-1.68-0.2-3.44 0.2-5.1 0.7-3.11 2.5-5.66 3.6-8.62 0.6-1.72 0.3-3.53 0.3-5.29-0.1-0.81 0.3-1.65 0.2-2.44-0.1-0.71-0.6-1.3-0.7-1.98-0.4-1.07 1.5-1.04 2-2.03 0.6-1.35 1.2-2.55 2.2-3.64 1-1.06 2.2-1.96 3.7-1.95 1.3 0.01 1.8 1.12 2.6 1.3 1.9 0.42 3.7 2.46 4.4 4.2 0.6 1.42 2.6 0.36 3.8 0.71 0.6 0.19 0.9 1.03 1.6 1s0.8-0.15 1.4 0.19c1 0.51 1.2 0 2.2-0.06 0.7-0.05 1.4 0.3 2 0.52 1 0.4 2.5 1.17 3.7 0.76 2.1-0.74 1.4-5.75 4.2-5.88 1.6-0.08 2 3.14 4.1 1.18 0.9-0.84 7-1.64 6.6-3.63 1.2-0.05 1.7 1.67 2.9 1.55 1.4-0.15 3.9-0.37 4.5-1.91 0.2-0.58-0.4-1.15 0.4-1.53 0.9-0.47 1.7-0.19 2.4 0.53 1.2 1.14 2.3-0.21 3.6 0.4 0.6 0.31 1.1 0.79 1.8 1.11 0.7 0.37 1.2 0.05 2 0.17 1.8 0.28 2.5-1.76 4.4-0.66 0.8 0.41 3.3 2.02 3.3 2.97 0 0.46 0.6 1.61 1.1 1.79 1.9 0.78 3.7 3.57 5.7 1.66 1.2-1.08 2-1.29 3.5-0.55 1.6 0.76 2.2 0.45 3.1-1.36 1.3-2.4 4.4 3.6 4.5 4 0.7 1.75 5.5 1.98 4 4.72 0.9-0.22 2.1-0.27 2.3 0.9 0.1 0.31 0.3 0.6 0.5 0.87 0.1 0.6-0.7 1.72-0.6 2.35 0.2 2.01-0.1 4.02-0.4 5.93-0.1 1.01 0.6 0.88 1.8 0.68 0.5-0.09 2.5 1.3 2.1 2.4-0.9 2.63-4.1 5.23-6 7.18-0.6 0.65-1.9 2.36-2.6 2.99-0.8 0.64-0.9 0.1-1.3 0.92-0.5 1.04 0.1 2.3-0.5 3.36-0.7 1.17-1.5 2.94-1.6 4.32-0.2 1.24-0.1 2.49-0.2 3.73-0.1 1.45-0.3 2.72-0.5 4.1-0.1 1.01 0.2 2.43-0.3 3.35-0.5 1.05-1.4 1.45-2.1 2.3-1.2 1.32-1.1 1.74-1.2 3.29 0 1.01-1.1 2.16-1.6 2.89-1.3 1.6 0.4 3.27 1.4 4.8 0.7 1.15 1.2 1.96 0.7 3.55-1.9 1.67 0.4 6.93-1.4 8.65 1.3 0.76 1-2.63 1.5-2.06 0.5 2.67-1.2 4.61-1.2 7.23 0 3.4 2.8 4.97 1.6 7.32-0.7 1.36-1.4 1.66-0.8 2.54 0.9 1.33 1.3 3.54 3 7.03 1.2 2.33 4.6 1.89 4.8 7.5 0.1 2.2 1.8 0.99 2.5 4.37-4.7 1.07-8.2 1.19-12.9 2.2 1.9 3.23-3.1 4.57-4 6.98 2.7 0.84 1.8 5.04 1.6 7.09-0.1 1.49 0.4 2.9 0.3 4.38 0 0.77-0.2 1.51-0.5 2.18-0.4 0.97-0.7 1.7-1 2.72-0.5 2-1.2 3.15 0.1 5.09 0.9 1.35 2.5 3.05 3.7 4.16 0.5 0.49 3.3 2.2 3.5 1.16 0.4-1.83 0.9-1.49 2.7-2.01 0 2.9-0.1 5.81-0.2 8.7 0 0.45 0.3 2.36-0.4 2.43-0.9 0.09-1.1-0.92-0.5-1.41-1.3-1.59-4.2 3.38-5.6 0.39-0.4-0.99-0.8-2.25-1.5-3.15-0.4-0.51-1.4-1.17-1.5-1.78-0.3-1.18-0.5-2.55-2-2.6-1.2-0.03-1.8-1.34-3-1.48-1-0.12-1.6 0.64-2.3-0.47-0.5-0.85-0.5-2.09-1.3-2.79-1.1-1-1.9-4.48-2.9-1.36-1 3.21-2.7 1.52-5.3 1.61-1.6 0.06-2-0.48-3.5-1.12-0.1-0.05-1.6-0.4-1.6-0.4-2.3 0.4-3-3.06-2.2-4.64-1.4 0.08-2.8 0.38-4.1 0.87-1.6 0.61-1.9 1.4-3.7 0.65 0.7-1.24 0.7-2.87 0.1-2.84-0.8 0.04-1.1-0.63-1.6-1.14-1.3-1.19-1.1 0.21-1.4 0.32-1.1 0.38-1.6 0.33-2.6 0.07-1.2-0.32-2 0.53-3 0.9-1.4 0.49-2.3-0.43-3.2-0.28-0.3 0.06-1.6-0.08-1.6-0.06-0.9 0.46-1.3 1.76-2.5 1.73 0.3-0.89-0.3-1.59-0.4-2.42-0.2-1.15 0.6-1.35 0.8-2.24 0.6-2.04-0.2-5.59-1.4-7.24-1.5-2-2.2-3.26-2-5.86 0.2-2.68 1.1-5.5 0.4-8.17-0.2-1.02-1-1.91-0.9-2.99 0-1.22 0.6-2.37 0.7-3.59 0.2-2-1.1-1.78-2.7-1.79s-3.1-0.04-4.6 0.02c-3.2 0.14-2.7-0.55-1.8-3.23-0.7 0-1.4-0.18-2.1 0.09-0.5 0.18-0.2 0.39-0.4 0.61-0.9 0.72-4.7 0.09-5.8 0.09 0.4 0.95-0.3 2.05-0.2 3.06 0.2 0.82 0.2 2.12-1.1 1.84 0.4 1.25-0.3 2.48-0.1 3.74-0.5 0-4 0.12-4.5-0.21-1.7-0.95-4.6 0.83-5.1 0.88-1.3-0.21-2.6-0.15-4-0.14-1.8-0.38-2.6-4.17-3.5-5.5-0.3-0.47-0.6-0.81-0.9-1.28-0.6-0.86-0.4-1.48-0.5-2.4-0.2-1.64-1.9-2.72-1.7-4.46 0.2-1.56 0-2.87-0.7-3.78-1-1.28-1-1.75-2.6-1.67-4.4 0.21-8.7 0.38-13.1 0.13-3.6-0.2-7.7 0.38-11.2-0.28-2.8-0.54-5.1 3.6-6.7-0.58"/>
  <path id="so" class="land so" d="m1583.7 739.51c0-1.41-0.4-3.35 0.2-4.67 0.6-1.25 1.8-2.22 2.6-3.35 1.6-2.26 3-6.3 5.4-7.76 2.2-1.32 4.7-0.46 6.7-2.53 2.1-2.34 4.2-3.88 7.5-4.35 2.5-0.36 6.8 1.4 8.5-0.87l21.7-25.65c-2.6 0-5.3 0.45-7.9-0.21-2.9-0.75-5.7-2.16-8.5-3.21-2.9-1.09-5.8-2.21-8.7-3.31-2.7-1.02-5.1-1.73-7.2-3.8-0.6-0.69-0.9-1.06-1.8-1.31-1-0.26-1.4-1.77-1.8-2.57-0.8-1.35-1.3-2.45-2.4-3.65-1.3-1.42-2.9-3.25-2.3-5.38 0.7-2.33 2.7-4.37 3.6-6.67 2.4 1.34 3.8 4.54 5.4 6.62 2.1 2.58 5.2 3.3 8.4 2.26 1.2-0.4 2.8-1.49 3.8-2.25 1.8-1.36 2.3-1.13 4.6-0.76 2.3 0.38 3.4 0.87 5.6-0.49 1.1-0.68 3.6-3.24 5-2.74 1.6 0.56 2.6 0.63 4.3 0.05 1-0.35 2-0.86 3-1.09 1.2-0.27 2 0.25 3.2 0.37 1.9 0.18 3.3-0.93 4.9-1.59 1.7-0.69 3.6-0.38 5.3-1.25 1.5-0.72 1.6-2.58 2.8-3.17 1.2-0.58 5 0.42 4.5 2.11-0.6 2.19-1 3.53-0.6 5.85 0.3 1.61 0.7 3.93-0.7 5.17 0.9 0.36 1.7 0.14 1.5-0.86 0.5 0.31 1 0.53 1.5 0.65-0.3 1.55-3.8-0.58-3.8 2.15 0 2.22 0.1 4.5-0.5 6.68-0.5 1.86-1.6 3.28-2.7 4.85-1.2 1.82-1.1 4.52-2.6 6.28-0.5 0.68-1.3 0.85-1.7 1.75s-0.1 1.91-0.4 2.86c-0.8 2.16-2.3 3.87-3.4 5.86-1.5 2.65-1.6 5.56-2.7 8.3-1.1 2.79-2.9 5.24-4.5 7.75-1.6 2.43-2.7 5.25-4.5 7.52-2 2.52-4 5.03-6.1 7.52-4.1 5-8.3 9.07-13.7 12.59-2.3 1.47-4.6 3-6.5 4.96-2.2 2.2-4.6 4.37-6.6 6.75-1.9 2.35-3.9 4.65-5.8 7.01-1 1.15-1.8 2.39-2.7 3.56-0.5 0.72-2.2 3.33-2.5 1.81 0 2.48-1.6 4.86-3.1 6.73 0.1-1.95-1.8-3.55-3.1-5.47-1.5-2.19-1.3-3.7-1.3-6.23-0.1-7.67 0.1-15.16 0.1-22.82"/>
  <g id="gw" transform="translate(-29.902 -45.074)" class="land coast gw">
   <path id="path3430" d="m1176.9 705.31c0-0.19 0-0.38-0.1-0.57-0.2 0.15-0.5 0.34-0.7 0.57h0.8"/>
   <path id="path3432" d="m1177.3 702.22c0.7-0.33 0.6-0.57-0.2-0.72 0.1 0.24 0.2 0.48 0.2 0.72"/>
   <path id="path3434" d="m1178 709.27c0.3-0.21 0.5-0.37 0.9-0.5-0.6-1.22-2.1-0.41-0.9 0.5"/>
   <path id="path3436" d="m1179.2 701.78c-0.3 0.03-0.7 0.08-1.1 0.15 0.1 1.05 1.4 0.88 1.1-0.15"/>
   <path id="path3438" d="m1179.1 704.95c-0.1 0.24-0.1 0.48-0.2 0.72 0.6 0.31 0.9-0.05 1-0.65-0.2-0.01-0.5-0.03-0.8-0.07"/>
   <path id="path3440" d="m1181 708.05c0.4-0.32 0.7-0.73 0.8-1.23-0.5 0.2-0.9 0.65-0.8 1.23"/>
   <path id="path3442" d="m1184.5 708.19c0.3-0.69 0-0.89-0.7-0.57 0.3 0.19 0.5 0.38 0.7 0.57"/>
   <path id="path3444" class="land gw" d="m1174 698.04c0.7-0.48 1.6-0.12 2.4-0.45 0.8-0.37 1.5-0.82 2.5-0.85 1.9-0.05 3.6 0.46 5.2-0.93 1.5-1.23 3.3-0.87 5-0.87h7.8c-0.3 1.01 0.9 2.19 0 3.07-0.5 0.48-1.9 0.37-2.1 1.11-0.2 1.04 3.5 1.85 1.6 3.94-0.9 1.07-2.3 0.49-3.5 0.7-1.1 0.19-2.5 1.08-3.6 1.42-2 0.6-1.1 4.08-3.1 4.81-0.5-1.87-0.8-2.12-2.4-2.95 0.1-0.27 0.3-0.54 0.5-0.79-1.5 1.08-0.1-3.35 2-1.73-0.5-1.41-1.8-0.47-2.5 0.14-0.7-1.26-0.9-2.11 0.7-2.66 1.3-0.47 1.8 0.95 3 0.86-0.7-0.26-1-1.1-0.4-1.65-0.5-0.17-1-0.1-1.4 0.18-0.7 0.39-1.3-0.09-2 0.03s-1.2 0.66-1.7 1.08c-0.7 0.55-1.6 0.46-2.4 0.65 0-1.31 1.1-1.73 2-2.45-1.2-0.12-2.2 1.18-3.5 0.91-2.4-0.52-0.8-2.65 0.3-3.43-0.4 0.05-0.9 0.12-1.3 0.22-0.3 0.29-0.5 0.55-0.8 0.79-0.9 0.04-1.4-1.01-2.3-1.15"/>
  </g>
  <path id="gh" class="land gh" d="m1246.5 705.45c-0.4-2.45-0.6-4.41 0.5-6.73 0.9-1.99 0.3-2.68 1.1-4.68 0.5-1.48 2.5-3.53 3.1-4.81 0.8-1.74 0.2-4.33-0.4-6.12-0.2-0.72-0.5-1.17-0.8-1.84-0.3-0.72 0.2-1.47 0.2-2.2 0.2-1.69-0.7-2.87-0.3-4.49 0.4-1.73-0.4-3.59-0.7-5.28-0.1-0.8-1-1.7-0.5-2.55 0.4-0.66 0.9-1.6 0.7-2.41 4.2 0.38 8.1-0.27 12.5 0.03 0.9 0.06 3.6-0.17 3.8 0.35 0.4 0.96 2-0.58 2.8-1.17 0.8-0.6 3.2-0.1 2.7 0.97-0.8 1.63-1 3.25 1.3 5.02 2 1.46 0.9 0.86 1.2 2.37 0.2 0.73 0.3 0.67 0.2 1.51-0.1 0.85-0.1 2.23-0.3 3.31-1.1-0.17-0.6 0.59-1.1 1.22 0.7 0.11 1.1-0.62 1.7-0.45 0.9 0.24 0.9 1.51 0.7 2.15-0.4 1.24 0.4 4.44-1.2 4.13 0.4 1.07 1.5 1.73 2.2 2.64 0.7 1.09 0.1 1.42-0.4 2.44-0.5 1.23 0.5 2.85-0.2 4.01-0.8 1.39-0.9 2.08 0.2 3.26 0.6 0.56 0 1.96-0.3 2.6-0.6 1.55-0.7 2.25 0.1 3.79 0.6 0.98 1.8 1.84 2.7 2.53 0.2 0.19 1.7 1.09 1.8 1.2 0.2 0.82-1.2 1.22-1.4 1.91-0.3 0.94-0.9 1.74-2 1.62-0.7-0.08-0.9-1.49-1.2-1.91-0.8-0.91-2-0.56-3-0.98 0.8 0.64 2.1 0.25 2.9 0.87 1.7 1.22-0.8 1.99-1.7 2.14-3.1 0.55-5.1 2.33-7.7 3.88-1.5 0.89-3.2 0.87-4.7 1.52-1 0.4-2.1 0.61-2.9 1.28-0.7 0.55-1.3 1.28-2.1 1.7s-1.4 0.28-2.1-0.36c-0.8-0.86-1.7-0.97-2.8-1.3-1.1-0.34-2-0.07-2.8-1.24 1-0.03 0.5-0.16 1.5-0.13-0.5-1.22 0.9-5.07-1.6-4.36 0.9-1.54-0.8-4.17-1.7-5.44"/>
  <path id="ug" class="land ug" d="m1496.5 769.61c0.5-1.36 0.3-3.18 0.5-4.61 0.3-1.81 0.5-3.6 0.7-5.42 0.3-2.22 1.6-3.48 1.8-4.64 0.1-0.7-0.2-1.41 0-2.12 0.2-1.12 1.2-0.83 1.7-1.64 1.6-2.46 4.1-4.21 6.2-6.38 0.8-0.85 1.9-2.31 2.2-3.45 0.3-0.94-1.4-1.92-2.1-2.28-0.5-0.29-1.3 0.59-1.7-0.3-0.4-0.7-0.1-1.66 0-2.37 0.5-2.19-0.3-3.95 0.8-5.95 0.3-0.59-0.5-0.74-0.3-1.36 0.2-0.65 0.8-1.2 1.3-1.61s1.1-0.79 1.8-0.67c0.5 0.11 1.6 1.26 2.1 1.01 0.7-0.31 1.8-1.61 2.5-0.62 0.8 1.06 1 1.44 2.4 1.94-0.7-1.31 1.4-1.81 2.5-1.95 1.2-0.18 2.7-1.19 3.9-1.05 1.7 0.2 2.2 1.69 4.1 0.41 1.3-0.92 2.2-2.3 3.2-3.53 0.6 0.8 1.2 1.93 0.9 2.95 1.2-0.12 0.4 0.75 1.5 1.09 1.2 0.35 1.6 0.57 1.1 2.06-0.6 1.94 1.3 4.02 2.3 6.32 0.2 0.45 1.4 1.97 1.4 2.36-0.1 0.83 0.9 2.06 1.1 2.87 0.4 1.43 0 3.38-0.6 4.81-0.5 1.22-1.5 1.4-1.3 2.82 0.1 0.74-1 1.2-1.6 1.48-1.1 0.54-1.1 1.97-1.7 3.04-0.5 0.79-1.3 1.22-1.6 2.04-0.5 1.12-0.9 1.93-1.4 3.01-0.5-0.03-2.4 0.58-2.1-1.02-1.1 0.44-0.8 0.77-1.2 0.85-1.4 0.22-1.5-0.64-0.4-0.57-0.3-0.57-1.2-1.28-0.9-1.69-0.8 0.29-0.3 0.08-1.4 0.49l0.4 0.57c-1 0.25-0.2 1.18-1.4 1.12 0.1 1.86-2.7 0.9-3 0.96-0.1 0.04 0.1-1.67-0.1-1.38-1.3 3.15-1.8 1.48-2.1 1.64 0.1 0.67-0.4 0.72-1.6 0.83-0.5 0.78-1.8 0.76-1.7 1.03 1 2.62-1.1 3.05-1.5 4.88-0.3 1.59 0.3 1.67 0.5 2.72-7.2 0 1.5 0.31-5.6-0.22-2.5-0.19-5.4 0.32-6.9 2.11-0.5 0.63-1.2 2.37-2 1.79-0.3-0.15-0.4-0.99-0.8-0.96-0.7 0.06-1.8 0.83-2.2 1.07 0.2-0.65 1.1-1.78 0.3-2.48"/>
  <g id="mz" transform="translate(-28.713 62.008)" class="land coast mz">
   <path id="path3382" d="m1566.1 886.09c0.3-0.72 0.4-1.48 0.4-2.24-0.3 0.69-0.7 1.48-0.4 2.24"/>
   <path id="path3384" d="m1573.7 860.96c0.6-0.57 0.4-0.81-0.5-0.72 0.2 0.24 0.3 0.48 0.5 0.72"/>
   <path id="path3462" class="land mz" d="m1528.6 827.33c5.5-2.08 11.1-4.11 16.7-6.1 1.2-0.45 2.4-1.04 3.6-1.52 0.4-0.16 1.5-0.85 2-0.7l4.1 4.65c0.1-0.93 2.1-0.61 3-0.87 0.8-0.23 2-0.99 2.7-0.13 1.2 1.6 1.2 5.46 0.6 7.23-0.8 2.24-2.7 4.25-1.5 6.55 0.3 0.55 0.1 1.2 0.4 1.72 0.4 0.59 1.1 0.91 1.5 1.5 0.7 1.15 1.8 2.22 2.8 3.1 1 0.85 1 1 0.3 2.11-0.7 1.18 1.6 1.62 1.8 0.03 0.1-1.54-0.3-2.91-1.2-4.17 1.4-1.02 0.7-3.14 2.7-3.57 2.8-0.58 3.1-1.81 3.1-4.63 0-1.03-0.2-2.07-0.1-3.1 0.1-1.67 0.9-3.51 0.2-5.15s-2.2-3.19-3.2-4.72c-0.8-1.42-1.7-2.95-2.9-4.2-0.8-0.92-0.5-0.08-1.2-0.92-0.3-0.72 0.1-2.13-0.3-3.52-0.6-1.83 0.4-2.93 0.2-3.74-1.4-4.68-0.5-3.53-0.6-4.12 0.5-1.23 2.3-1 1.9-5.36 1.5 0.14 2.9 0.47 4.6-0.04 1-0.28 1.9-1.51 3-0.8 0.8 0.48 1.1 1.41 1.9 1.84 0.7 0.32 2.7 0.43 3.4 0.26 1.1-0.29 1.9-2.17 3.1-0.8 2.4 2.55 5.2-0.46 6.3-2.33 0.7-1.04 1.8-1.06 2.8-0.44 1.5 1 1.9 1 3.4-0.06 1.3-0.89 2.3-1.51 3.9-1.19 1 0.19 2.8-1.63 3.7-2.03 1.7-0.79 3.2-1.91 4.7-3.06 1.8-1.42 3 0.95 1.4 1.71 0.3 0.11 0.5 0.23 0.8 0.36-0.8 0.94-0.4 1.99-0.8 3.02-0.2 0.55-1.6 1.27-0.8 1.85 0.7 0.48 0.6 3.06 0.7 4.06 0 0.75 0.1 1.51 0 2.26-0.1 1.14-0.4 0.85-0.1 1.86 0.1 0.38 0 0.75-0.1 1.11-0.1 0.7 0.3 0.91 0.5 1.51 0.2 0.88-0.1 2.14-0.7 2.83 2 0.29-0.6 4.68 0.2 4.94 1.4 0.43 0 5.01 0.5 6.08 1.5-0.89-0.2 2.02 0.2 2.73 0.1-1.27 1.4-1.05 1.2 0.21-0.3 1.37 0.1 2.34-1.4 3.11 0.3 0.2 0.6 0.39 0.8 0.57-1.6-0.39-0.2 0.21-0.7 0.78-0.3 0.35-0.7 0.49-0.9 0.95 1.6-0.57 0.2 1.96 0 2.46-0.8 1.68-2.5 2.62-3.3 4.29-0.9 1.66-2.2 2.63-3.1 4.2-0.7 1.21-5.4 2.84-5.2 4.16 0.1 0.6-3.5 1.23-4.3 1.66-0.6 0.38-1.3 0.69-2 0.9-1.1 0.33-0.9-0.11-1.7 0.66-1.2 1.09-2.9 1.61-4.3 2.34s-3.6 4.14-5.2 2.8c2.9 3.22-4.2 4.46-3.5 7.71-0.6 0.08-1-0.31-1.2-0.87 0.2 1.14-0.9 2.59-0.8 1.01-1.3 1.19-3 2.01-4.1 3.47-1 1.3-1.9 2.54-3.1 3.67-0.5 0.46-2.4 2.48-3.1 1.64-0.4-0.54-1-2.38-2-1.8 1.7-0.1 1.1 2.07 1.5 2.6 0.3 0.5 0.3 1.31 0 1.83-0.1 0.27-0.3 0.43-0.6 0.47 0.3 0.42 0.3 0.86 0.3 1.32-0.2 2.27 0.5 1.65 1.7 3.14 0.7 0.84 0.8 1.83 0.8 2.87 0 0.41-0.3 3.54 0.3 1.6-0.5 1.7 0.7 3.53 0.8 5.25 0.1 1.04 0.5 2.12 0.3 3.17-0.1 0.88-0.5 1.86 0.5 2.45 0.1-1.11 0.1-2.1 0.8-3.03 0 0.34 0 2.77 0.4 0.73-0.2 1.17-0.5 2.33-0.6 3.52-0.1 1.06 0.6 2.01 0.5 3.05-0.4 2.82-2.4 5.55-1.9 8.55-0.3-1.64 0.9 0.05 1-1.37 1.1 1.83-1 4.56-2.2 5.85-1.8 2.13-4.6 3.1-7.2 4.01-3 1.04-5.9 2.12-8.6 3.82-1.1 0.77-2.4 1.45-3 2.77-0.6 1.12-0.9 2.44-2.4 2.63 1-0.01 2.6 3.49 3.4 1.37-0.2 1.8 0.8 6.45-1.1 6.32l-4.4-0.17c0-1.48-0.9-3.14-0.7-4.28 0.2-0.96-0.2-1.89-0.9-2.74-0.5-0.64-0.3-2.16 0.2-3.37 0.2-0.68 0.2-3.14 0.2-3.84 0.1-1.72 0.1-3.45 0.2-5.17 0.1-1.55-0.2-2.58-0.5-4.07-0.3-2.22-1.9-4.03-2.3-6.19-0.2-1.05-0.1-2.15-0.3-3.22-0.2-1.5-0.5-2.93-0.9-4.39-0.3-0.94-0.7-0.66-0.2-1.36 0.6-0.42 2-2.35 2.7-2.99 0.9-0.95 5.2-7.05 6.4-6.22-1.2-1.48 0-2.34 0.3-3.82 0.3-0.91-0.6-2.18 0.4-2.77 1.4-0.83 1.7-1.96 2.5-3.39 0.3-0.61 0.5-1.13 0.7-1.79 0.4-1.04 0.1-1.84 0.2-2.85-0.3 0.1-0.5 0.2-0.7 0.29-0.6-1.05-0.9-1.99-0.7-2.57 0.2-0.7 1.1-1.29 0.8-2.23-0.3-0.81-1.5-0.52-1.2-1.82 0.3-0.98 2-1.13 1.9-2.32-0.3-2.03 1-1.27 0.9-2.6-0.1-1.11-0.8-2.15-0.6-3.27 0.2-0.78 0.7-1.64 0.5-2.42-0.4-1.56-0.2-2.61-0.2-4.27 0-0.54-0.3-0.93-0.4-1.46-0.3-0.76 0.5-2.06 0.6-2.82-1 0.3-1.6 0.29-2.1-0.75-0.6-0.98-3.6-1.06-4.4-1.52-2.4-1.4-4.7-2.85-7.4-3.59-0.8-0.24-3.4-0.16-4.3-0.38-1.5-0.35-0.9-2.76-1-3.86-0.2-1.6-1.4-3.03-1.3-4.66"/>
   <path id="path3466" d="m1600.8 838.85c0.2-0.17 0.5-0.33 0.7-0.5 0 0.42 0 0.83-0.2 1.22-0.2-0.24-0.3-0.48-0.5-0.72"/>
  </g>
  <g id="mr" transform="translate(-29.902 -45.074)" class="land coast mr">
   <path id="path3878" d="m1178.3 635.04c0.5-0.64 0.6-1.45 0.6-2.23-0.6 0.55-1 1.42-0.6 2.23"/>
   <path id="path3882" class="land mr" d="m1174 624.96c-0.2-1.38 0-2.33 0.5-3.65 0.2-0.37 0.7-1.27 1.6-1.32l27.9-0.03c1.4-0.75 0.5-6.91 0.4-9.28-0.2-2.38-0.4-3.94 1.5-5.75 1.6-1.51 1.5-1.13 6.6-3.2l1.1-21.84 24.9-0.29 0.3-11.07c9.5 6.37 18.8 12.94 27.9 19.78h-13.2l5.4 72.91c0.5 1.2 1.7 1.71 1.8 1.99 0.8 1.85-0.2 2.41-0.3 3.84-0.1 1.68-0.2 3.19-0.7 3.37l-15.9 0.01c-9 0.32-12.9 1.55-13.7-1.12-0.4 2.42-3.9 2.82-5.7 2.11-2.8-1.1-4.6-0.64-5.7 2.5-0.7-1.07-1.6-1.98-2.6-2.92-1.1-1.1-2.2-1.69-2.8-1.36-2.3 1.27 0.9 7.65-4.8 7.25 0.1 0.1-1.5-1.09-1.9-1.87-0.5-0.97-1.1-0.66-2-1.49-1.1-0.9-1-2.36-1.9-2.94-2.3-1.53-1.4-1.55-1.6-2.59-0.3-1.28-1.6-2.91-2.2-2.92-3.4-0.05-3.7-2.81-5.9-3.87-1.1-0.53-2-0.82-3.5-0.87-2.4-0.07-3.2 2.21-8.5 1.81-1.1-0.09-1-0.84-2-0.57-0.9 0.34-2 3.35-2.4 4.14 0-5.21 3.5-9.45 4-14.55 0.3-3.07-0.2-5.67-0.6-8.67-0.1-1.08-0.1-2.27-0.8-3.19-0.6-0.81-1.6-1.37-1.7-2.47 0.8 0.25 1.7-0.34 1.6-1.22-0.6 0.14-1 0.55-1.2 1.08 0.2-1.04 1.1-1.78 1.5-2.7 0.3-0.59-0.1-1.54 0.2-1.93 1.6-1.79-0.8-4.97-1.4-6.75-0.2 0.43-0.4 0.89-0.5 1.37-1.6-1.2-1.2-3.69-2.8-4.89-0.3 1.06-0.6 2.09-0.9 3.16"/>
  </g>
  <g id="ao" transform="translate(-29.902 -45.074)" class="land ao">
   <path id="path3888" d="m1390 953.92c-0.1-3.51 0.9-7.05 0.5-10.57-0.1-0.54-0.5-1.07-0.3-1.62 0.4-0.8 1.2-1.26 1.6-2.09 0.3-0.66 0.3-1.38 0.4-2.08 0.1-0.64 0.9-1.41 0.7-1.95-0.4-1.15 1.1-4.23 1.4-5.52 0.3-1.83-0.1-3.83 1-5.44 0.7-1.07 0.2-3.32 1-4.01 0.8-0.72 2.1-2.26 2.7-3.22 0.7-1.42 0.2-3.67 2.5-3.88 1.7-0.15 1.8-1.39 2.6-2.78 1.9-3.32 2.4-8.45 1.6-12.12-0.4-1.7-1.1-2.91-2.1-4.34-1-1.49-1-2.65-1.5-4.21-0.3-0.71-0.9-1.25-1-2.01-0.1-0.93 0-1.8-0.4-2.67-0.6-1.3-1.8-2.98 0-3.91-0.5 0.35-0.8 0.89-0.8 1.52 0.4-0.74 0.8-1.48 1.4-2.07 0.5-0.47 1.3-0.44 1.3-1.19 0.3-1.95-0.1-3.74-1.1-5.44-1-1.92-1.6-3.94-2.4-5.96-0.4-0.89-0.3-1.89-0.6-2.81-0.4-1.37-1.6-2.3-2.4-3.49-0.5-0.98-2.5-4.39-0.8-4.93 0.8-0.25 1.7-0.25 2.5-0.36 1.1-0.15 1.7-1.19 3-1.31 5.9-0.57 11.8 0.1 17.8-0.03 2.2-0.05 4.5-0.23 6.8-0.15 2.1 0.08 1.6 1.52 2.6 2.87 0.4 0.57 0 2.27 0.2 3.02 0.3 1.36 1 2.59 1.5 3.89 0.4 1-0.2 1.87 0.6 2.77 0.9 0.96 1.2 1.66 1.7 2.82 0.3 0.72 1.9 4.09 2.9 3.81 0.6-0.17 3.7 0.07 3.7 0.06-0.1-0.39 3.4-1.4 4-1.26 1.8 0.4 3.5 0.61 5.6 0.61-0.3-1.26 0.5-2.49 0.1-3.74 1 0.23 1.1-0.79 1-1.57-0.2-1.07 0.6-2.39 0.3-3.33 1.8 0 3.7 0.03 5.5 0.02 0.6-0.01 0.3-0.65 0.7-0.8 0.7-0.22 1.4-0.01 2.1-0.01-0.5 2.06-1.6 3.24 1 3.24 2.3 0 4.6-0.12 6.9-0.07 1.9 0.04 1.6 1.94 1.1 3.22-0.2 0.72-0.5 1.46-0.6 2.22-0.1 1.22 1 2.44 1.2 3.66 0.4 2.54-0.5 5.36-0.7 7.92-0.2 2.67 0.7 3.73 2.3 5.73 1 1.41 1.6 5.06 1.3 6.79-0.2 0.61-0.7 1-0.9 1.57-0.4 1.08 0.6 2.11 0.3 3.23 0.9 0.02 1.8-1.3 2.5-1.71 0.7-0.35 2.6 0.17 3.4 0.37 1.2 0.36 2.8-1.08 4.1-1.03s2.8 0.86 3.3-0.87c0.6 0.88 0.7 3.68 0.5 4.68-0.2 1.38-0.2 2.75-0.5 4.12-0.4 1.64 0.6 3.14 0.2 4.74-0.5 1.62-1.6 2.94-0.2 4.46-2.9 1.2-6.9 0.62-9.9 0.6-1.5 0-3.3-0.37-4.8-0.17-1.3 0.18-0.6 5.12-0.7 6.7-0.2 4.2 0.1 7.16-0.1 10.38-0.2 3.2 0 6.47-0.1 9.68-0.1 3.28 2.2 4.16 4.1 6.5 2 2.5 4.1 5.01 6.8 6.78-4.5 0.87-9 1.62-13.4 2.76-1.7 0.46-2.4 0.02-4.1-0.17-0.7-0.08-1.3 0.27-2 0.5-1.1 0.36-2.1-0.17-3.2-0.46-3.7-1.02-7.7-0.61-11.5-1.21-1.6-0.25-2.5-1.66-3.3-2.92-0.6-1.13-2.8-0.67-4-0.61-9.3 0.43-18.9 0.02-28.2 0.02-1.9 0-2.1-0.12-3.8-1.42-1.6-1.3-3-2.93-5.2-1.93-1.7 0.73-3.4 2.73-5.3 1.82-2.3-1.1-2.6 0.04-4.4 0.36"/>
   <path id="path3890" d="m1392.3 848.01c1.3-1.01 2.7-3.61 4.4-3.95 0.8-0.15 0.7-1.37 1.5-1.37 1 0.01 1.6 1.5 2.2 2.01-1.5 1.04-2.9 1.96-4.2 3.27-0.6 0.64-0.4 0.64-0.2 1.38 0.5 1.04 0.2 2.27 0.1 3.34-0.1 1.46-2.8 2.64-2.9 0.73 0-1.05 0.6-1.3 0.3-2.46-0.3-0.86-1.6-2.3-0.5-3.09-0.3 0.05-0.5 0.1-0.7 0.14"/>
  </g>
  <path id="sd" class="land sd" d="m1533 665.86c0.8644-1.0886 1.8629 1.318 1.8324 2.5313 0.6082-0.66754 2.532-3.2068 2.2439-4.2524-0.2542-0.92589-0.4131-1.9623-0.1647-2.8722 0.4599-1.6972 0-4.0698 1.546-5.0436 1.4602-0.90783 2.0937-4.1483 3.0003-5.5841 0.9248-1.4647 2.1151-0.42171 3.5448-0.62053 0.9516-0.13271 0.5291-3.3052 0.5462-3.9727 0.042-1.8837 1.4107-3.3287 1.7277-5.1336 0.3842-2.2001 0.6193-4.727 0.3642-6.935-0.1994-1.762-0.9858-4.231-0.2739-5.9442 0.9109-2.191 1.162-4.4657 2.0913-6.6648 0.3685-0.87211 0.7972-1.865 1.0009-2.792 0.2214-1.0096-0.5488-1.7072-0.3647-2.7019 0.187-1.0127 0.7414-2.7728 1.6745-3.3226 0.6774-0.39934 2.5964-0.0663 2.8568-0.98056 0.5054-1.776 0.2885-1.9207 2.2538-2.6619 1.084-0.40978 3.1514-1.4175 3.852-2.3116 0.5101-0.65056 1.6523-2.3862 1.5455-3.2423-0.1667-1.3449-2.3886-0.93235-2.4553-2.1615-0.9343 0.83813-3.5046-3.5441-4.9092-3.7827-2.4303-0.41237-3.1684-5.0807-3.2728-7.1151-0.1498-2.8975-1.0147-5.5274-0.636-8.376 0.1666-1.2611-0.2239-2.6392-0.728-3.7827-0.696-1.5825 0.6556-2.371 1.0004-0.81057-0.092-2.0504-2.4324-3.321-2.9997-5.2237-0.6864-2.2988 0.3039-3.2036-1.819-4.6834-1.6012-1.1164-2.5998-3.1808-4.273-4.0528-1.8699-0.97476-3.3987-1.7488-3.9093-3.9629-0.6743 0.6805-2.469 3.3549-3.5454 2.7921-1.4129-0.73833-1.8797 1.1242-2.1822 1.9813-0.5833 1.6513-1.1058 2.5738-2.9095 2.8821-1.7863 0.30659-2.1744 0.73087-2.5451 2.5217-0.8116 3.9162-4.6871 0.92073-6.5467-0.0904-1.6125-0.87594-4.4217-0.25339-6.1815-0.17965-2.3008 0.0949-4.1921 0.21049-6.4699-0.17968 0.1791-0.60955-0.2886-3.4022-1.1671-1.6611-0.9307 1.8479-2.5983 1.6611-4.4557 1.6611h-14.182-29.002c0.1931 5.745 0.2741 11.544 0.365 17.292h-7.7854c0.5967 12.37 0.5068 24.725 0.5068 37.107-1.2372-0.38309-2.0324-0.82375-3.2678-0.17967-1.0197 0.53302-1.9621-0.0625-3.0002 0.45029-2.4217 1.1953 0.1497 3.0298-1.3639 4.9536-1.2134 1.5405-1.4245 3.2121-3.1819 4.1429-1.1066 0.58471-0.043 3.3144 0.6359 3.9629-2.5194 2.0105-4.08 2.638-2.2719 6.0343 0.6877 1.2931-0.217 1.8676-1.2729 2.6119-1.13 0.79533-1.3125 1.8421-1.819 3.0622 0.9808 2.6401 2.8069 0.12791 4.4548 1.0808 0.9756 0.56681-0.4459 1.4883 0 2.2516 0.5471 0.93187 0.077 3.2762-0.2263 4.3428 0.2595-0.13044 1.2287-1.352 1.4975-1.4607 0.7847 1.2571-0.6402 2.6897 0 3.9628 0.6338 1.2672 2.2679 1.4207 2.8185 2.3417 0.8092 1.3531-0.8727 2.5578-0.2738 3.8728 0.6208 1.3619 1.6851 2.3838 2.727 3.4225 1.8639 1.8588 2.8866 3.2036 2.8998 5.8647l-0.6153 2.9822 5.9662-2.4528 5.7144-9.814 5.6749-0.76667 3.3536 6.9 1.8067 1.0223 3.3533-1.0223 6.1924-0.25521 2.0628 1.5334 4.1278 0.51113 1.8057-3.0667h2.8374l0.5159-2.8112 3.3544-1.7889 6.1906 4.3445 2.838-0.25521 5.9335-7.4112 3.0959-3.3222-2.3223-6.9001 7.7402-2.0445v11.245l6.1908 4.8556v4.8555l4.5696 3.9821c1.8144-2.6449 0.9462-7.2715 2.0843-8.7062z"/>
  <path id="ss" class="land ss" d="m1531 674.33c-0.5876 1.8003-0.6029 3.6785-0.4583 5.5473 0.1784 2.2919 1.2027 6.5377-2.2884 6.9114-1.0654 0.11386-2.2588-0.32209-3.3883-0.27242-1.7244 0.0747-1.0356 0.85198-1.2821 2.2734-0.1985 1.1525-2.3522 2.1747-0.4575 3.2739 1.241 0.72035 2.8659-0.097 4.1381 0.63193 1.3035 0.74655 2.1917 1.769 2.8205 3.1875 0.5787 1.3076 1.5179 2.4104 2.6553 3.2738 1.0402 0.78984 1.4528 1.8794 2.5641 2.5462 1.2951 0.77884 0.9452 2.6327 1.5563 3.8194 0.7265 1.4105 0.8121 3.0296 1.5567 4.4561 0.2756 0.52895 0.6364 1.3256 1.1902 1.6369 0.6555 0.36761 0.3669 1.1969 0.9155 1.7279 0.8535-1.092 1.5619-0.8449 2.5635-0.73207 1.1346 0.12684 0.8024 0.96777 1.0993 1.7324 0.3367 0.86633-0.2757 1.9346-0.2757 2.8191 0 1.1132 0.6403 1.7353 1.2818 2.5463-3.5604 0-7.9772-0.62911-11.445 0.1822-2.192 0.51282-4.0536 4.0246-5.4934 5.7292-0.2669 0.31515-1.2995 1.774-1.8319 1.6369-0.7463-0.19354-1.7079 0.15798-2.3803-0.27247-0.6092-0.38973-0.8614-0.6957-1.6482-0.54564-1.2256 0.23483-6.3548 0.95052-5.86 2.91-1.3501-0.48654-1.5375-0.965-2.289-2.0007-0.5652-0.77979-1.7164 0.19763-2.2891 0.4549-0.9951 0.44849-1.6058-0.71395-2.4722-0.90942-1.4239-0.32242-2.8492 1.5401-3.2969 2.6373-0.157-1.2815-1.2739-1.3291-2.2882-1.0913 1.127-2.4562-2.6744-3.1668-3.9371-4.547-0.567-0.61855-1.0527-1.2398-1.5567-1.9098-0.5408-0.71823-0.4346-1.5337-1.1905-2.1825-2.2932-1.9766-2.1154 2.166-4.0287 2.0007-1.9121-0.16581-2.2477-2.2775-4.0287-0.54571-1.2378 1.2039-2.022 1.7017-3.5703 0.72752-0.4079-0.25444-1.0627-0.84088-1.2822-1.2731-0.4163-0.83212-1.4578-0.47529-1.9231-1.637-0.4391-1.102-0.9323-1.7791-1.9222-2.3644-0.7142-0.42132-1.1064-1.6216-1.6489-2.2735-0.744-0.89662-0.3666-2.0411-0.4569-3.0919-0.137-1.5968-1.9319-1.9404-3.0219-2.7282-1.2432-0.89864-2.846-1.1627-2.8387-2.7281 0-0.66599-0.8526-0.97757-1.1903-1.4551-0.6066-0.85645 0.5017-1.5414 0.1803-2.3644-0.2813-0.73043-1.4589-1.0022-1.9229-1.6369-0.6403-0.87564-0.3267-1.3964-1.3734-2.0008-2.0338-1.1707-4.0073-2.0534-5.5847-3.8195-0.5568-0.62157 0.4577-1.3378 0.4577-2.0007 0-1.0205-0.6581-1.2114-1.4651-1.5459-0.8919-0.36838-0.8532-1.2134-1.4647-1.8188-0.5725-0.56728-1.4325-0.69856-2.198-0.81843-1.1144-0.17486-3.5707-0.0778-3.5707-1.7278 0-0.46858 0.7238-1.7078 0.3665-2.0917-0.9866-1.0608-4.0791-0.66865-5.4026-0.90938 0.2754-0.71632 0.7638-1.4675 0.5499-2.2736-0.2639 0.0964-0.5583 0.26733-0.8244 0.36382-0.2325-1.1987 0.3951-1.4342 1.0079-2.2735l-0.098-1.8317 5.5659-2.8068 5.7557-9.9094 5.7154-0.77414 3.3778 6.9672 1.8191 1.0321 3.377-1.0321 6.2351-0.25833 2.0793 1.5482 4.1564 0.51601 1.8185-3.0965h2.8577l0.5203-2.8384 3.3775-1.8063 6.2345 4.3867 2.8581-0.25806 5.9756-7.4832 3.118-3.3546-2.3387-6.9671 7.7943-2.0643v11.354l6.2361 4.9028v4.9028l1.8183 1.0321z"/>
  <path id="ne" class="land ne" d="m1272.9 634.75c-1-1.25 0.2-3.53 0.1-4.97 1.3 0.45 2.9 0.32 4.2 0.34 1.6 0.01 2-0.79 2.9-1.88 1.1-1.3 2.4-0.98 4-1.1 2.1-0.16 4.1-0.35 6.2-0.39 1-0.02 1.9-0.02 2.9 0.1 1.9 0.22 0.1-0.59 1-0.81 1.4-0.37 3.3 1.55 3.9-0.07 0.5-1.43 2.2-1.63 2.8-2.92 0.5-1.33 0.5-2.75 1.3-4.04 1.5-2.69 1.1-5.68 1.3-8.76 0.2-4.39 0.1-8.79 0.1-13.18 0-2.73 0.2-3.44 3-4.07 2.4-0.56 4.8-0.69 7.2-1.28 2.9-0.7 4.7-3.48 6.7-5.42 2.9-2.83 5.7-5.91 8.9-8.41 6.6-5.09 13.8-9.69 20.8-14.15 3.3-2.09 6.4-4.39 9.7-6.49 3.1-1.96 7.2 0.05 10.5 0.95 2.9 0.78 5.2 2.64 7.1 4.82 0.9 0.94 1.1 0.99 2.2 0.28 1.4-1.01 3-1.81 4.5-2.71 0.8 3.82 1.4 7.55 1.7 11.42 0.1 1.54 1 2.6 1.8 3.85 0.4 0.71 0.8 1.46 1.2 2.25 0.2 0.74-0.6 1.34 0.1 2.08 0.8 0.94 2.2 1.74 2.5 3.02 0.4 1.56-1.3 3.17-1.5 4.73-0.4 4.66-1.1 9.3-1.1 13.98 0 2.02-0.3 4.03-0.3 6.05-0.1 1.63 0.2 3.61-0.4 5.17-0.4 1.34-1.8 2.48-2.6 3.57-1.5 1.78-3 3.45-4.4 5.21-2.3 2.9-4.3 6.21-5.6 9.69-0.3 0.83-0.7 1.65-1.3 2.35-0.3 0.33-0.8 0.24-1 0.64-0.7 1.27 0.9 4.87 1.1 6.27-0.7 0-1.6-0.17-2.2 0.23-0.7 0.43-0.6 0.89-1.3 1.22-1.7 0.74-2.9 1.41-4.1 2.74-2 2.05-3.1 1.16-5.5 0.2-2.8-1.12-5.3-1.27-8.2-1.35-2.5-0.06-4.7 0.4-6.6 2.13-0.7 0.59-1.2 1.27-1.7 1.99-0.8 1.24-1.3 0.45-2.6 0.56-2.9 0.27-4.2-1.2-6.6-2.17-1.8-0.71-3.8-3.22-5.9-2.08-0.8 0.42-1.5 1.13-2.2 1.59-0.7 0.36-1.6-0.18-1.9 0.41-1.1 2.42-3.1-0.58-3.5-1.58-1.1-2.38-2.8-3.29-5.2-3.73-1.3-0.24-2.4-1.4-3.8-1.53-1.2-0.12-1.7 1.17-3 1.15-2.4-0.05-4.6-0.25-6.3 1.73-0.6 0.65-1.2 0.97-1.3 1.86-0.1 1.49-0.2 2.73-1.1 3.98-1.2 1.69-2.6 2.8-2.5 5.04 0 0.47-0.3 5.25-0.6 5.09-1.4-0.81-4.4-6.21-5.9-6.02-0.5 0.05-0.7 0.62-1.1 0.78-0.6 0.21-1.8 0.06-2.2 0.62-0.1 0.29 0.7 2.68 0.1 2.66-0.5-0.01-1.6-2.14-1.9-2.53-0.8-1.28-0.2-1.55 0.9-1.97-0.3-0.71-0.4-1.7-1.1-2.22-1.2-0.93-1.9 1-3.2 0.78-2.3-0.41-6.1-4.1-5.1-6.55 0.7 0.47 1.3 0.49 2.1 0.14-0.4-0.29-4.9-3.48-5.1-3.17 0.3-0.68-1.3-1.95-1.6-2.7-0.3-1.31 0-2.52-1.3-3.42"/>
  <path id="zm" class="land zm" d="m1437.6 899.5c0-8.19 0-16.4 0.1-24.58 0.1-0.88-0.3-2.68 1-2.95 1-0.23 2.3 0.07 3.4 0.1 3.7 0.1 7.5 0.73 11.1-0.44-1.2-1.26-0.6-2.4-0.1-3.76 0.7-1.66-0.2-2.96-0.1-4.62 0.2-3.06 1.5-6.57 0.2-9.62 1.2 0.02 1.1 1.27 2.3 1.51 1.3 0.28 0.7 2.24 0.2 3.03 1.6 0.35 1.4 0.31 3-0.37 1.5-0.65 3.2-1.06 4.8-1.15-0.6 1.15-0.3 3.26 0.6 4.18 0.8 0.72 1.9 0.28 2.8 0.68 1.3 0.6 2.3 1.17 3.7 1.19 2.4 0.03 4.6 1.6 5.5-1.43 0.9-3.3 1.9 0.39 3 1.39 0.8 0.69 0.7 1.79 1.3 2.62 0.9 1.33 1.9 0.07 2.7 0.59 1.2 0.79 1.6 1.5 2.9 1.48 1.6-0.02 1.2 2.48 2.2 3.42 1.5 1.38 1.8 2.55 2.6 4.32 1.1 2.23 4.2-2.1 5.4-0.65-0.5 0.41-0.5 1.09 0.1 1.36 1.2 0.46 0.8-1.88 0.8-2.38 0.1-2.9 0.2-5.8 0.2-8.7-0.5 0.2-1.1 0.25-1.6 0.42-1 0.28-0.7 1.07-1.1 1.69-0.7 1.08-3.7-1.4-4.4-2.12-2.1-2.2-4.5-3.99-3.3-7.63 0.7-1.97 1.3-3.6 1.8-5.27 0.4-1.16-0.4-3.08-0.3-4.39 0.2-2.12 1.3-6.6-1.6-7.47 0.9-2.42 6-3.76 4.1-6.98 4.2-0.9 7.9-1.16 12.7-2.23 0 0.81-1 1.84-0.9 2.05 0 0.43 1.4-0.18 0.7 0.95 0.1 0.27 0.7-1.17 2.4 0.6 1.9 1.83 2.6 0.62 2.4-0.29 2 0.02 2.5 0.74 3.4 2.25 0.4 0.66 0.8 0.39 1.3 0.19 0.8-0.27 1 0.95 1.6 1.2 1.2 0.51 3.5 0.34 3.9 1.77 0.1 0.42 0.9 0.27 1.4 0.42 0.8 0.26 1.5 0.53 1.8 0.88 0.4 0.36 0.3 0.79 0.2 1.25-0.4 1.21 2.4 0.75 2.9 2.55 0.1 0.6-0.4 0.95-0.3 1.51 0.2 0.86 0.8 1.17 1.4 1.7 0.5 0.47 0.7 2.03 1 2.67 0.4 1.21-1 2.36-2.2 2.71-1.3 0.39-0.5 1.37-0.2 2.34 0.5 1.52-0.4 2.32-0.5 3.78-0.1 2.1-1 6.6 1.6 7.39-1.1 1.15-4.3 1.69-4.3 3.62 0 1.26 0.3 1.73 0.1 3.16-0.4 2.07-1.8 3.29-2.2 4.74-0.3 0.84 0.6 1.51 1.3 1.96 0.9 0.65 1.3 0.17 1.7 0.81-7.2 3.32-14.8 5.34-22 8.29-1 0.65 1.6 3.96 1.1 5.62-0.7 0.08-2.6 0.37-3.3 0.1-1.3-0.53-2.9 0.28-4.1 0.7-1.8 0.6-4.1 1.65-4.5 3.7-0.1 0.88 0.1 1.83-0.3 2.66-0.6 1.18-2.1 1.33-3.2 1.75-1.9 0.74-4.4 2.27-5.5 4.04-1 1.79-5.1 9.64-8.2 7.78-0.7-0.4-1.4-0.78-2.2-1.02-1.1-0.35-2.2 1.11-3.1 0.63-0.6-0.38-0.9-1.65-1.8-1.45-0.2 0.05-2.4 0.6-3.5-0.43-1.2-1.17-1.8-1.98-2.7-2.25-1.1-0.22-1.8 0.88-3.7-0.25-1.5-0.24-2.6 0.57-4.1 0.68-0.8 0.06-2.2 0.66-2.7 0.47-2.6-1-4.4-3.97-6.2-6.02-1-1.12-1.8-2.02-2.9-3.06-1-0.97-1.3-1.94-1.6-3.39"/>
  <path id="et" class="land et" d="m1522.1 691.34c0.2-1.16 1.3-1.78 1.3-2.97 0-2.02 1.4-2.22 3.1-1.93 1.5 0.26 2.9 0.74 4-0.93 0.8-1.16 0.2-3.17 0.1-4.44-0.3-2.12-0.6-4.41 0.2-6.45 0.3-0.8 0.7-1.56 1-2.37 0.5-1.19 0-1.98 0-3.16 0-1.17 0.6-2.36 1.4-3.24 0.8-1.02 2.1 0.2 2.1 1.3 0.5-0.56 2.5-3.64 1.5-4.61-0.5-0.55 0.4-1.85 0.5-2.4 0.4-1.1-0.4-2.47 0.6-3.36 1.6-1.43 2.2-3.3 3.1-5.22 0.5-0.82 0.7-1.66 1.7-1.71 0.4-0.02 2.4 0.19 2.5-0.3 0.6-1.49 0.5-3.35 0.7-4.92 0.1-0.89 0.5-1.59 0.9-2.41 0.6-1.47 0.5-2.84 0.7-4.37 0.6-2.9 1.8-1.84 4-1.86 0.9-0.01 1-1.73 2.2-1.04 1 0.53 1.5 1.77 2.1 2.61 0.8-2.22 1.7-4.45 2.3-6.77 0.4 0.53 0.8 1.2 1.3 1.51 0.7 0.34 1.4 0.07 1.7 0.82 0.8 1.48 1.7 1.66 3.2 1.38 0.6-0.11 1.2-0.26 1.7-0.65 0.2-0.24 0.5-1.12 0.7-1.2 0.6-0.15 1.4 1.64 1.5 2.03 1.5-1.85 4 0.3 5.5-0.11 2.1-0.55 4.2 1.67 6 2.42 2.4 1 3 4.07 5 5.61 1.1 0.93 2.7 1.67 3.4 3.04 0.6 1.25 0.9 2.3 2.1 3.19 2 1.51 2.8 2.67 1.5 4.95-1.5 2.69-3.6 4.23-3.1 7.52 0.2 1.64-0.4 3.63 1.9 3.47 1.4-0.09 2.8-0.75 4.1-1.08 1.1-0.28 1.5 0.67 2.5 0.34-0.1 1.71-2.1 3.15-1.2 5.14 1.2 2.38 2.2 2.99 3.7 5.12 0.5 0.71 1.4 3.07 1.9 3.72 0.6 0.65 1.1 0.44 1.7 0.97 1 0.82 2.6 2.56 3.9 3.02 5.1 1.84 9.6 3.75 14.7 5.63 2.5 0.89 4.4 1.95 6.9 2.54 2.3 0.54 5.3 0.16 7.6 0.16l-21.4 25.39c-1.3 1.52-2.3 1.67-4.2 1.42-3-0.41-7.3-0.58-11.2 3.07-1.1 0.96-1.5 2.16-3 2.47-1.4 0.28-2.9 0.23-4.2 0.95-1.4 0.77-1.3 2.09-3.2 1.67-1.5-0.36-3.7 0.92-5.1-0.6-0.5-0.64-1-1.65-2-1.76-0.9-0.11-2.2 0.57-3 0.94-1.3 0.59-3.4 1.72-4.2 2.92-0.9 1.3-1.5 2.28-2.1 3.28-1-0.93-3.2-1.07-4.4-0.96-1 0.09-1.7-0.69-2.5-0.87-1-0.19-2 0.23-2.9 0.14-3.6-0.34-0.5-0.81-10.2-6.64-1.7-1-4.1 0.13-6.1-0.58-1-0.33-2.4-2.18-2.8-3.03-0.6-1.19 0.4-2.75 0-4.05-0.3-1.18-2.7-1.89-3.5-0.86-0.5-0.48-1.2-1.88-1.6-2.51-0.9-1.44-1.3-3.38-1.9-4.98-0.5-1.21-0.7-2.56-1.3-3.69-0.3-0.52-0.7-0.7-1.2-0.96-0.6-0.28-0.6-0.83-1-1.2-0.3-0.17-0.4-0.31-0.7-0.35-0.8-0.22-0.8-1.07-1.3-1.65-0.9-1.28-1.5-2.84-2.8-3.86-0.9-0.75-2-1.26-3.2-1.41-1.1-0.13-2.6-0.14-3.2-1.28"/>
  <path id="eh" class="land eh" d="m1144.1 579.89c-1.1-2.09 0.6-5.63 1-7.79 0.2-1.48 0.6-2.87 1.4-4.16 0.9-1.56 2.7-1.57 3.3-3.52 0.3-1 0.3-2.55 1.3-3.14 0.5-0.34 0.2-1.48 0.6-2.12 0.7-1.04 3.6-4.57 2.8-5.92-0.5 0.35-1 0.82-1.3 1.37 1.2-2.73 4.4-4.74 6.5-6.84 2.7-2.81 2.2-5.71 3.5-9.15 1.1-2.82 2-5.93 4.7-7.49 3-1.71 4.6-3.11 5.9-6.44 0.8-2.11 2.3-5.11 1.8-4.49l33.5-0.27-0.5 14.59-24.9 0.29-1.1 21.83c-1.5 1.07-3.6 1.19-5.1 2.15-2.4 1.44-3.3 2.99-3.1 5.74 0.1 1.59 1.3 9.91-0.4 10.39h-27.6c-2.1 0-2.5 3.46-2.3 4.97"/>
  <path id="td" class="land td" d="m1373.2 634.82c0.2-0.67 0.9-0.52 1.2-1.07 0.4-0.48 0.4-1.16 0.9-1.52 0.6-0.45 0.7-2.18 1-2.86 1.4-3.7 4.6-7.08 7.1-10.05 2.3-2.73 4.9-5.04 5.1-8.72 0.2-4.62 0.3-9.24 0.6-13.85 0.3-3.56 0.1-8.25 1.9-11.41 1-1.82 0.3-2.67-0.9-4.09-0.4-0.4-0.8-0.72-1.2-1.11-0.6-0.69 0.2-1.31 0-2.02-0.7-1.65-2-2.92-2.8-4.49-0.6-1.32-0.2-2.93-0.4-4.35-0.2-2.34-0.9-4.61-1.3-6.93 0-0.27-0.5-1.23-0.1-1.41l8.2-3.91 59.6 33.72 0.6 32.98c-1.9-0.61-2.1-0.36-4.2-0.04-1.3 0.22-3.1 0-3.5 1.28-0.4 0.93 0.5 2.7-0.2 3.61-0.6 0.84-1.6 3.75-2.9 4.22-1.6 0.53-0.9 3.2 0.2 4.26-2.5 1.99-4.1 3.24-2.2 6.03 1.3 1.88-1.8 2.67-2.6 4.26-0.6 1.08-0.8 1.46 0.1 2.34 0.7 0.74 2-0.06 2.8-0.05 1 0.01 1.9 0.47 1.2 1.26-0.9 1.15 1 2.51 0.2 4.52 0.3-0.13 0.6-0.25 0.8-0.36 0.6 0.93 0 1.98 0 2.95 0 1.11 0.1 1.13 0.8 1.9 0.6 0.69 2.2 0.31 2.3 2.21 0 0.85-0.8 2.39-0.6 3.35-0.4-0.73-2.5-1.43-3.4-0.96-0.5 0.28-1.3 0.52-1.6 1.05-0.5 0.65-0.6 0.24-1.1 0.79-0.7 0.87-2.6 0.66-2.9 2.03-0.1 0.56 0.3 1.04 0.1 1.62-0.6 1.96-2.3 2.76-3.8 4.05-1.1 1.03-1.7 2.48-2.7 3.6-1.8 2-3 2.45-5.6 3.39-1.4 0.54-5 0.77-6.5 0.62-0.5-0.04-3.7 0.7-2.6 1.56 0.5 0.37 1.8 0.62 1.5 1.51-0.3 1.01-1.5 2.45-2.3 3.18-0.6 0.57-1.1 2-1.9 2.19-1.5 0.37-3.3 0.08-4.8 0.22-2 0.18-3.5 0.68-5.3 1.74-0.9 0.59-2.7 1.1-3.1 2.24-0.7-0.98-1.7-1.67-2-2.88-0.6 0.22-0.9 1.05-1.2 1.58-0.2 0.37-1.4 0.48-1.9 0.66-2 0.91-2.7 0.75-4.9 0.78 1.1-1.46-0.2-1.99-0.6-3.35-0.6-1.86-1.1-3.94-2.3-5.49-1-1.33-2.5-2.25-3.8-3.3-1.2-1.05-2-2.32-3-3.56-0.7-0.84-2.5-2.44-1.6-3.66 0.8-1.25 1.2-2.13 2.8-2.05 1.8 0.08 3.6 0.81 5.4 0.21 0.8-0.27 1.5 0.12 2.2 0.4 0.6 0.26 1.6-0.34 2.2-0.51-3.6-1.99-5.3-6.78-5.1-10.69 0-0.9 0.5-1.61 0.6-2.46 0.1-0.88-0.1-1.77-0.2-2.65 0-0.67 0.2-1.76-0.2-2.35-0.3-0.46-1.2-0.12-1.1-0.9 0-1.02-0.4-2.41-0.6-3.42-0.1-0.72-1.2-0.84-1.7-1.16-1.7-1.03 0.5-2.58-2.8-3.07-0.8-0.12-0.6 0.49-1.4-0.15-1.2-1.39-2.8-4.09-3.2-4.83-1.1-2-0.9-4.46-1.3-6.63"/>
  <g id="gn" transform="translate(-29.902 -45.074)" class="land coast gn">
   <path id="path5380" d="m1186.6 709.85c-0.4 0.55-0.4 1.45 0.5 1.58-0.3-0.58-0.1-1.09 0.3-1.51-0.2-0.02-0.5-0.05-0.8-0.07"/>
   <path id="path5400" class="land gn" d="m1186.8 709.7c1-1.24 0.9-3.27 2.1-4.33 0.9-0.72 2.6-0.87 3.6-1.4s2.1 0.11 3.1-0.44c0.7-0.37 1.3-1.03 1.2-1.84-0.2-1.22-2.3-1.7-2-2.65 0.3-0.84 2-0.59 2.3-1.45 0.2-0.95-0.5-2.33-0.2-2.63l3.6-0.01c0.5 0.14 1.1 0.54 1.5 0.56 0.3 0.09-0.4 1.72 0.7 1.05 0.8-0.46 2.4 0.6 2.8 0.93 0 0.05 1.6 0.54 1.6 0.54 1.1-0.1 1.8-0.9 3-0.77 1.6 0.18 3.3-0.54 4.5-0.01-0.6 1.16-1.5 2.02 0.1 3.34 0.9 0.74 2.2-2.11 3.2-1.72 2.5 0.95 0.9 3.95 3.1 1.45 2.8-3.19 4.5 0.47 5.6 0.2 0.6-0.16 1.1-0.76 1.6-1.24 0.5-0.4 1.7-0.51 1.9-0.88 0.4-0.73-1.4-2.45 1.1-1.82 0.5 0.14 1.8 0.73 1.7 1.72-0.1 0.33 0.4 2 0.6 2.22 1.2 1.1-0.2 3.98 1.2 3.21 0.2 1.44 2.9 1.5 2.6 3.21-0.6 0.03-0.9-0.01-1.3 0.49-0.6 0.68-0.9 1.58-1.1 2.42 0.7-0.12 1.1-0.74 2-0.83 1.4-0.15 1 1.63 0.9 2.62 0 0.72-0.3 1.92 1 2.66 0.3 0.14 1.4 0.88 1.6 1.53 0.2 0.89-0.6 1.32-1.3 1.82-0.5 0.33-0.5 1.82-0.4 2.5 0 1.26 0.4 4.06 2.2 2.95-0.4 1.98-0.2 1.69 0.9 3.02-1.4 0.2-1.4 1.32-1.7 2.38 2 0.33 1.8 2.09 2.3 3.67-1-0.37-4.1-1.57-4.5-0.55-0.5 1.35 1.5 2.69 2.2 3.64-0.8-0.39-1.3 1.08-1.3 1.13 0.1 0.8 0.4 0.54 0.3 1.03-0.2 0.5-1.1 1.77-1.1 1.88-0.2-0.19-1.3-0.72-1.9-0.19-0.3 0.28 0.1-0.56-0.9-1.05-0.9-0.33-1.2 1.68-1.4 2.14-0.7 1.33-1.2 1.6-2.7 2.19-0.1-1.68-1.4-1.94-2.8-1.44 0.4-1.09 0.6-2.22 0.7-3.39 0-0.45-0.2-2.88-0.3-2.65-0.1 0.17-0.3 0.61-0.3-0.84 0-0.23-0.5-1.03 0-1.66-2.3-2.65-2.5-1.23-2.9-1.41-0.8 0.62-1 0.22-2.1 0.11-0.7-0.07-1.5 0.11-2.1 0.48-0.4 0.23-2 1.08-2.2 1.44-0.1-1.45 1.8-3.33 1.5-3.76-1.2-1.72 0.7-2.24-1.3-3.5-0.6-0.39 0.2-1.04-0.1-1.58-2.1-3.86-2.9-6.86-7.6-6.15-1.3 0.19-1.6 0.59-2.7 0.85-2 0.45-2.6-0.56-3.5 1.37-0.6 1.55-1.2 3.34-2.2 3.78-0.8 0.4-0.9 0.72-1.3 1.59-0.5 1.04-1.7 0.2-2.4 0.85-0.1-0.67 0.3-1.16 1-1.22-0.2-0.28-0.4-0.52-0.6-0.72-0.2 0.23-0.4 0.47-0.5 0.72-0.1-0.48-0.1-0.96-0.1-1.44-0.3 0.02-0.5 0.04-0.8 0.07 0.2-0.89-1.1-1.06-0.5-1.94-1.3 1.33-0.7-2.12-1.1-2.45 0 0.58-0.3 0.79-0.8 0.64 0.2-0.5 0.4-1.03 0.5-1.58-0.3 1.06-1 0.69-1.7 0.22-0.9-0.68-0.4-1.16-0.8-2.09-0.5 0.18-0.8 0.51-1 1.01-0.1-1.82-3.9-1.66-2.9-3.96-0.3 0.12-0.6 0.19-1 0.21 0.6-1.05 1-2.23 1.3-3.38-0.4 0.44-0.7 0.94-1 1.51-0.1-1.17-0.6-0.57-0.9 0-0.2-0.79-0.3-2.46 0.7-2.81-0.8 0.45-1.6 0.43-2.5 0.43"/>
  </g>
  <g id="ng" transform="translate(-29.902 -45.074)" class="land coast ng">
   <path id="path5382" d="m1355.3 766.73c0.9-0.06 1.2-0.63 0.5-1.23-0.4 0.35-0.5 0.76-0.5 1.23"/>
   <path id="path5386" d="m1357.2 766.3c0.2-0.15 0.5-0.29 0.7-0.44-0.5 0.01-1 0.13-1.4 0.36 0.2 0.03 0.5 0.05 0.7 0.08"/>
   <path id="path5406" class="land ng" d="m1321.1 736.34c0.9-3.12-0.4-6.83 0.9-9.78 0.4-0.72 1.6-0.08 2.2-0.77 1.1-1.19 0.1-2.63 1.2-3.82 0.7-0.77 0.6-2.01 1.5-2.5 0.9-0.51 2.2-1.61 1.8-2.87-0.4-0.97-0.8-1.78 0.5-2.05 1.8-0.37 0.3-2.98 0.1-3.77s0.1-1.5-0.3-2.27c-0.4-0.66-0.9-1.19-1.3-1.86-0.7-1.38 0.4-2.54 0.8-3.83 0.5-1.54 0.1-3.18 0.2-4.78 0.2-1.94 0.7-2.34 2-3.67 1.2-1.14 1.7-2.87 1.7-4.47-0.1-1.34 0.9-2.14 1.8-2.94 1.2-0.95 2.6-1.21 4-1.27 1.9-0.07 2.9-0.75 4.6-1.19 1-0.25 2.3 0.91 3.2 1.32 1.4 0.73 2.9 0.3 4.1 1.51 1.1 1.07 1.7 2.34 2.4 3.63 0.3 0.49 0.7 1.01 1.2 1.19 1.2 0.39 1.4-0.95 2.3-1.05 3.2-0.35 4.2-3.18 7.5-0.84 0.5 0.33 1 0.71 1.3 1.19 0.1 0.24 1 0.12 1.3 0.25 1.3 0.74 1.9 1.77 3.7 1.84 1 0.04 3.2 0.61 4.1 0.2 1.3-0.56 1.7-2.22 2.8-3.05 2.6-1.99 6.6-2.16 9.8-1.86 1.6 0.15 3.1 0.6 4.6 1.37 1.2 0.65 2.7 1.6 4.2 1.07 1.4-0.51 2.1-2.09 3.2-2.95 0.7-0.47 1.3-0.91 2.1-0.95 1.2-0.07 0.3-0.32 1-0.78 2.7-1.75 3.5 0.73 4.4 2.51 0.9 1.51 2.5 1.64 2.1 5.83 0 0.46 0.7 2.31 1.1 2.64 0.5 0.41 0.9 0.03 1.5 0.25 3.2 1.18 0.3 4.38 1.3 5.9 1.2 1.94-2.8 3.44-4.2 3.28-2.2-0.23-3 4.56-3.6 6.29-0.3 0.99-0.5 2.03-0.8 3.01-0.3 1.1-1.6 0.93-1.6 2.17 0 1.11 0.2 2.52-0.6 3.5-0.7 0.83-1.8 1.21-2.7 1.7 1 0.21 0 2.98-0.1 3.6-0.2 1.79-1.4 2.81-3.2 2.88 0.2 0.94-0.5 1.15-1 1.74-0.7 0.74-0.1 1.84-0.3 2.73-0.4 2.05-1.4 4.2-2.7 5.89-1.1 1.46 0.9 2.35-1.6 4.01-1.1 0.71-0.5 1.47-0.9 2.48-0.2 0.66-1.1 1.3-1.4 1.92-0.4 0.61-1.4 0.25-1.9 0.07-0.6-0.23-0.4-1.89-0.5-2.39 0-0.58-2-1.11-2.3-1.77-0.4-1.06-0.9-0.71-1.2-1.93-0.2 0.75-0.3 2.09-1.3 2.3-1.2 0.27-1.7-1.04-2.7-0.72-1.7 0.57-2.1 3.33-3.3 4.09-1.5 0.98-6.2 5.86-5.6 6.5 1 1.04-0.8 3.71-0.8 4.45 0 1.27-0.5 2.32-2 4.78-0.7-0.15-1.2-1.03-0.9-1.6-0.7 0.42-1.2-0.23-1.5-0.72 0.7 2.36 1.2 2.9-1.5 3.3-1.1 0.16-4.7 0.87-3.7-1.36-0.4 0.9-0.5 1.15-1.5 1.08-1.3-0.08-1-0.39-2.2-1.15 0.5 0.4 1.2 2.47-0.1 1.94-0.9-0.35 0.4-2.44-1.1-1.65 0.4 0.86 0.8 1.69 0.4 2.66-0.7-0.3-1.5-2.88-1.3-3.67-0.8 0.71 0.5 2.79 0.1 3.77-0.6 1.35-0.6-1.83-0.5-2.12-0.2 0.4-0.4 2.58-0.5 0.65 0 0.57-0.1 1.21-0.5 1.66 0-0.52-0.1-1-0.4-1.44 0.3 0.61 0.3 1.61-0.7 1.53-1.7-0.16-1.2 0.24-1.7-1.39 0 1.54-1.2 2.87-1.4 0.65 0 1.44-0.4 0.5-1.4-0.02-1.1-0.51-1.8-1.52-2.3-2.5-0.5-0.93-1.1-1.94-0.8-3.01 0.1-0.72 0.2-1.38-0.8-1.1-0.2-0.78-0.1-1.22 0.7-1.38 1.6-0.31 0.1-0.87 1.3-1.57-0.8 0.07-1.6 1.18-2.4 1-2.6-0.59 1-1.49 1.6-1.57-0.4-0.51-0.9-0.58-1.5-0.22 0.1-0.31 0.1-0.63 0.1-0.94-0.1 0.9-1.3 1.55-1.7 0.43-0.4-1 0.8-1.45 1.4-2.01-0.7 0.27-1.3 0.72-1.8 1.22-1-2.24-3.1-4.73-5.6-5.35-1.2-0.31-2.6-0.46-3.9-0.39-0.9 0.06-2.3 0.48-3.1-0.23 1 0.2 2.5-0.49 3.1-1.37-1-0.05-1.8 1.21-2.9 0.36-0.3 0.45-0.4 0.96-0.2 1.51-1.8 0.23-3.5-0.1-5.2 0.29-0.1-1.08 0.5-2.03 0.5-3.1 0.1-1.1-0.4-1.91-0.1-3.05 0.4-1.85 0.4-5.42-0.6-7.1"/>
  </g>
  <g id="tn" class="land coast tn">
   <path id="path5410" class="land tn" d="m1329 464.9c0.1-0.85 0.9-1.17 1.5-1.64 1-0.73 1.1-1.38 2.1-2.19 0.9-0.64 1.5-1.84 1.9-2.91 0.6-2.14 0.4-3.81 0.5-5.86 0.1-1.29-0.7-2.42-0.5-3.71 0.2-1.48 1.8-4.28-0.6-4.78 0.9-0.98 2.3-1.49 2.9-2.65 0.3-0.43 0.1-1.16 0.7-1.33 0.6-0.19 1 0 1.6-0.55 1.1-1.18 2.2-1.71 3.8-2.15 0.7-0.21 1.7-0.76 2.5-0.45 0.9 0.37 0 0.81 0.1 1.51 0.8 0 1-0.38 0.5-1.01 1.4 0.31 1.8 0.09 2.4 1.37 0.2 0.56-0.5 0.61 0.2 1.15 0.6 0.41 0.7 1.12 0.2 1.58 0-0.04 0.6 0.67 1.2 0.41 0.9-0.34 1.6-1.02 2.2-1.6 0.3-0.22 1.2-1.21 1.7-1.02 1 0.47 0.9 1.49 0.4 2.33-0.9 1.63-4 3.18-4.1 5.03 0 1.39 0.8 3.06 2 3.73 1.9 1.02 1.9 1.07 2.3 3.25 0.6 2.73-1.3 5.58-3.4 7.24-2.1 1.65-5.3 2.58-3.3 5.79 0.5 0.7 1.1 1.37 1.9 1.72 0.8 0.39 1.2-0.15 2-0.04 0.3 0.04 0.4 1.32 0.6 1.59 0.4 0.66 1.5-1.28 2.1-1.07 0.8 0.3 0.2 0.96 0.5 1.51 0.3 0.77 1.5 1.47 0.3 1.59 0.6 0.69 2-0.07 2.6 0.72 0.5 0.66-0.3 3.24-0.1 4.21 0.2 1.45 1.3 2.07-0.3 3.02-1.6 0.94-4.8 1.99-5.7 3.28-0.5 0.43-0.4 1.66-1.1 1.96-1.6 0.64-3.1 1.17-2.5 3.59 0.5 1.94 1.3 3.46 0.1 5.36-1.3 2.21-2.4 3.06-4.7 4.07-0.6-3.62-1.6-7.1-2.3-10.67-0.7-3.71-1.1-5.84-4.2-7.58-1.5-0.81-2.1-1.79-2.5-3.41-0.3-1.42-1-2.43-2.3-3.19-0.6-0.38-1.2-0.69-1.7-1.37-0.4-0.7-0.3-1.64-0.7-2.35-0.9-1.46-1.4-3.02-0.8-4.48"/>
   <path id="path5412" d="m1353.2 468.5c-0.1-0.96-0.8-0.18-1-0.65-0.5-1.14 0-1.51 1-1.5 2.1 0.03 0.8 1.3 0 2.15"/>
  </g>
  <path id="na" class="land na" d="m1360.1 908.85c1.1-0.17 1.9-1.1 3.1-0.9 0.9 0.17 1.8 0.9 2.8 0.71 2.1-0.41 3.6-2.88 6-2.22 1.9 0.52 3 2.69 4.9 3.33 1.1 0.36 4.5 0.22 6.3 0.24 8.2 0.07 16.4 0.23 24.6-0.1 2.2-0.08 2.9-0.24 4 1.67 1.3 2.44 3.2 1.9 5.6 2.16 3 0.34 6.3 0.2 9.2 1.21 1.1 0.39 2.1 0.53 3.1-0.07 0.8-0.52 1.6-0.33 2.9-0.03 1.3 0.31 2 0.1 2.8-0.09 5.2-1.19 11-2.4 16.4-3.42 1.1-0.2 2.1-0.69 3.2-0.52 0.7 0.1 1.6 0.72 2.3 0.4 2-1.02 3 1.14 4.3 2.07-1-0.26-2.1 0.31-3 0.68-1.2 0.45-1.5 2.18-2.7 1.16-1.7-1.65-5.2 3.74-6.6 4.38-0.6-1.24-1.3-3.99-3.1-4.16-2.4-0.23-5.3 0.96-7.6 1.45-2.7 0.57-5.9 0.68-8.6 1.19l-1 31.9-6.8-0.1-1.5 54.41c0.2 2.5-1.9 1.4-3.1 2.5-0.6 0.6-0.6 1.1-1.7 1.5-0.8 0.3-1.2 0.6-0.5 1.4-1.8 0.5-1.7-0.2-3.4-0.4-1.8-0.3-3.3 0.7-5.3 0.2-3.3-0.7-5.3-1.9-5.4-2.5-0.4-1.7-0.1-1 0-2.3-0.1-0.5-0.6-0.4-1-0.8-0.6-0.6-1.1-1.9-1.7-1.5-1.9 1.2-1.4 3-2 3.5-1 0.8-2.2 1.7-3.2 0.5-1.3-1.6-3-3-4.2-4.7-1-1.6-1.8-3.23-2.6-4.9-0.5-0.89-0.5-1.84-0.7-2.79-0.1-0.99-0.8-1.5-1-2.4-0.4-1.65 0.4-2.25-0.8-3.77-0.5-0.61-0.4-1-0.3-1.77 0-1.25-0.5-2.34-0.6-3.56-0.1-0.86 0-1.74-0.3-2.59-0.3-1.21 0.3-2.37 0.1-3.57-0.4-2.07-1.4-3.96-2.2-5.92-0.8-2.21-0.2-4.07-0.4-6.3-0.2-1.52-0.4-3.42-0.3-4.2 0.1-0.37 1-4.05 0.6-3.96-0.1-1.98-1.1-3.93-2.2-5.52-0.6-0.89-1.3-1.73-1.9-2.69-0.5-0.89-0.6-1.97-1.2-2.78-3-3.72-3.6-8.23-5.8-12.26-2-3.69-2.6-8.77-5.9-11.67-3.5-3.13-3.9-7.69-3.6-12.1"/>
  <path id="za" class="land za" d="m1394.8 1006.8c0.7-0.7 1.9-0.5 2-1.6 0.1-1 0.8-2.6 1.8-2.9 1.3-0.4 1.1 1.4 2 1.7 1.6 0.4 0 1.9 0.8 2.9 1.3 1.6 3.3 1.8 5.3 2.4 1.7 0.6 3.2-0.2 4.9-0.2 1.6 0.1 2.2 1 3.8 0.5-1-1.1 0.2-1.3 0.8-1.5 0.9-0.4 1-1.5 2.1-1.9 0.7-0.2 2.2-0.3 2.3-1.3l0.7-31.1c0.9 1.2 2.3 1.77 3.1 3.02 0.9 1.42 1.5 3.32 2.1 4.9 0.6 1.6 1.1 3.33 0.3 4.98-1 2.1-1.7 3.25-0.7 5.6 1.7-1.98 5.9 1.03 7.8-0.78 0.3-0.3 0.1-1.07 0.5-1.2 0.5-0.15 1-0.04 1.5-0.33 1.3-0.73 1.5-2.43 2.9-3.23 1.5-0.88 2.4-1.84 2.8-3.6 0.2-1.54 0.2-2.81 1.5-3.96 1.1-1 2.5-1.2 3.8-0.59 1.1 0.5 2.7 2.85 3.8 2.82 2.4-0.06 5.1 2.79 7.4 1.02 1-0.8 2.5 0.31 3.7-0.62 1.4-1 1.9-2.66 2.4-4.16 0.3-0.8 0.6-1.62 0.7-2.46 0.3-1.37-0.4-1.27 1-1.67 0.8-0.22 3.2-0.63 3.6-1.38 0.8-1.36 2.4-1.97 3-3.4 0.7-1.56 0.4-3.17 1.5-4.65 0.9-1.25 1.9-1.37 3.1-2.19 1.2-0.85 2.8-2.15 3.7-3.31 0.8-0.99 1.3-2.52 2.5-3.12s2.6-0.66 3.8-1.11c1.2-0.43 1.2-0.96 1.8-1.88 0.4-0.78 1.8-1.03 2.6-1.2 3.4-0.7 5.4 1.5 8.6 1.52 2.9 0.02 5.6-1.09 6.5 2.46 0.5 1.98 1 4 1.1 6.06 0 1.87 1.1 3.48 1.8 5.16 1.5 3.61 1.1 7.03 0.9 10.84 0 1.46 0 3.25-0.5 4.8-0.2 0.75-0.4 0.7-0.1 2.88 0.1 0.05-0.9-1.08-1.9-1.42-0.9-0.33-1.7-0.2-2.5-0.2-0.7 1.25-1.6 0.99-2.4 2.57-0.8 1.9-1.6 4.82-1.9 4.6 1.4 1.28 1.9 2.29 2.8 3.29 1.4 1.63 3.4 2.5 5 0.96 0.4-0.42-0.2-0.65 1.3-2.81l1.3 0.03 4.6 0.16c-0.9 3.79-2 7.14-3 10.9-0.5 1.9-1.5 5.9-4.2 5.7 0.4 0.9-0.8 0.9-1.4 1-0.7 0.2-1.3 1.1-1.8 1.6-1.6 1.8-3.2 3.9-4 6.2-0.4 1.3-1.5 2.1-2.2 3.2-1 1.8-2 3.5-3.2 5.2-2.1 3-4.3 5-7.1 7.3-2.3 1.9-3.7 4.7-6 6.6-3 2.4-5.9 5-8.9 7.3-2.4 1.8-5.1 4-8.2 4.4-1.5 0.2-3-0.6-4.4-0.2-1.1 0.3-2.6 1.6-1.1 2.5-1.8 0.8-3.7-1.4-5.3-0.3-1.9 1.3-2.3 2.1-4.9 1.1-2-0.8-4.5-1.5-6.5-0.8-1 0.4-0.5 1-1.9 0.5-0.8-0.3-2.3 0.2-2.7-0.8v0.4c-2.1-0.3-5.5 0.6-6.6 2.6-0.9 1.7-5.6 0-7.1 0.6-0.9 0.4-1.9 0.1-2.7 0.5-1.1 0.5-2.2 1.5-3.1 2.2-1.1 0.9-0.7 0.7-2 0.4-0.6-0.2-1.2 0.1-1.7-0.3-0.6-0.4-1.2-1-1.9-1.2 1.3-1.8-2.7-1.9-3.6-2.1 0.5-1.4 0-2.6-1.7-2.3-1.1 0.2-0.7 1.5-0.7 2.3-2-0.8-0.4-3.2-0.2-4.4 0.2-1.1-0.4-2.3-1-3.1-0.3-0.6-2.8-4.1-1.1-2.5-0.8-0.7-0.5-1.5-1.5-1.5-0.9 0 0.1-2.3 0.2-2.6 2.3 1.4 2.9-1.3 2.9-3.1 0.1-3-0.8-5.6-2.3-8.3-2.4-3.9-4.5-7.8-5.8-12.2-0.7-2-1.1-4.1-1.9-6.1-0.7-2.1-2.5-3.9-2.7-6.1"/>
  <path id="eg" class="land eg" d="m1455.4 499.97c-1.4-2.29 1.5-4.68 1.1-7.01-0.4-2.52-2.6-4.27 1-7.25 0.1 1.83 2.2 1.17 3.3 0.85 2-0.61 3.7 0.06 5.7 0.27 2.2 0.22 4.3 0.71 6.4 1.27 0.9 0.24 1 1.22 2 1.5 0.8 0.25 1.4 0.15 2.2 0.07 0.5-0.06 0.8 0.78 1.4 0.91 0.7 0.14 1.3 0.14 2 0.21 2.2 0.21 3.6 1.57 5.7 1.91 1.9 0.32 3.8-1 5.2-2.2 0.7-0.62 1.4-1.29 2.1-1.98 0.5 0.45 1 0.91 1.7 0.79-0.4-0.21-0.3-0.33-0.9-0.29 0.7-0.37 1.5-1.06 1.6-1.87 1.2 0.73 2.4-0.58 3.6-0.57-0.8 0.37-1.6 0.84-2.2 1.51 0.2-0.13 5.2-1.63 2.8-1.8 1.7-0.58 2.9 1.42 4.6 1.19 0.8-0.12 1.5-0.91 2.4-0.62 0.8 0.28 1.2 1.43 1.9 1.88-0.8-0.5-1.5-1.6-2.4-1.66 0.3 0.75-0.8 2.16 0.4 2.45 1.4 0.31 0.7 0.64 1.6 1.44 0-0.3 2.4-1.29 0.6-2.09 1.9 0.42 2.5 2.1 4.6 1.91 0.7-0.06 2.7-1.33 2.4 0.18 1.3-0.84 2.8-0.35 4.2-0.78 1.2-0.37 2.5-0.86 3.5-1.73l6 16.05c-1.5 1.95-1.1 5.57-2.1 7.88-0.6 1.36-0.6 2.2-0.6 3.63 0.1 1.23-1.5 2.41-1.1 3.6-0.8-0.68-1.8-0.99-2.6-1.57-1-0.73-1.7-1.79-2.5-2.81-0.9-1.31-3.5-2.16-3.1-4.11 0.4-1.97-1.5-3.34-2.5-4.73-1.3-1.91-2.3-4.15-2.8-6.43-0.9 0.97-1.9 3.08-1 4.19 1.6 1.89 1.5 4.22 2.8 6.18 1.2 1.69 2.4 3.77 3.8 5.22 0.7 0.64 1.4 1.19 2 1.88 0.3 0.37 1.6 2.46 0.1 1.32 1.2 0.97 0.2 2.2 1 2.99 1 1.07 1.6 2.2 2.1 3.55 0.3 0.66 0.7 1.23 1.1 1.82 0.3 0.46-0.3 1.04-0.3 1.48 0 0.6 0.9 1.48 1.2 1.99 0.6 1.18 1.3 2.32 1.9 3.49 2 3.85 4.1 7.64 6 11.55 0.7 1.52 1.8 2.62 2.8 3.99 0.8 1.28 2.4 1.68 3.2 2.98-0.8 0.04-1.6-0.09-2.3-0.43-0.5 2.09-0.2 5.28 0.8 6.51 1.1 1.17-1.3 3.52-2.7 3.59-0.7 0.04-1-0.48-1.7 0.32-0.6 0.63-0.9 1.7-1.1 2.5-0.3 0.93-0.8 1.75-1.8 1.99-0.8 0.2-2.3 0.03-2.7 0.98-0.8 1.74-0.4 3.78-2.8 3.58-2.9-0.23-4.3-2.55-5.8-2.48-5 0.2-7.9 0.66-11.8 0 0.2-0.39 0.6-1.22 0.3-1.62-0.7-1.02-1.2 0.83-1.4 1.16-1 1.33-5.6 0.53-7.1 0.53l-40.1-0.09-1.5-54.18c-0.1-2.53 0-5.19-0.4-7.7-0.3-2.16-0.8-5.35-1.8-7.29"/>
  <g id="tz" transform="translate(-29.902 -45.074)" class="land coast tz">
   <path id="path4894" d="m1599.6 856.73c0.2 1.8 0.5 2.44 1.9 3.68 1 0.86 1.3-3.49-0.3-2.17 0.3-1.1-0.1-2.91-0.6-3.89-0.3 0.78-1.3 1.49-1 2.38"/>
   <path id="path4896" d="m1602.8 873.79c0.8-0.69 2.1-1.15 1.6-2.45-0.5 1.05-1.8 1.1-1.6 2.45"/>
   <path id="path4898" d="m1603.3 847.87c0.1 0.92 0.9 1.69-0.2 1.8 0.3 0.16 0.5 0.33 0.8 0.5-1.5 0.85-0.2 2.14 0.4 0.78 0.8-1.62 0.6-3.19-0.9-3.8-0.1 0.24-0.1 0.48-0.1 0.72"/>
   <path id="path5432" class="land tz" d="m1527.6 851.35c0.5-4.24 0.7-1.29-1.1-5.09-0.3-0.73 0.5-2.02 0.1-3.23 1.7-0.19 2-0.34 3.1-1.63 1-1.04 2.4-2.46 3.3-3.59 0.7-0.81-0.7-1.61-0.4-2.2 0.3-0.72 1.8-0.14 1.5-0.99-0.1-0.57 1.3-1.38 1.6-1.67 0.8-0.82-0.4-1.79 0.3-2.58-2.2 0.65-3.7-0.73-2.4-2.8-1.3 0.12-0.4-0.79 0.1-1.52 0.6-0.92 1.7-0.56 2.2-1.5 0.9-1.76-0.5-4.91-1.3-6.6-0.5-1.18-2.5-3.88-0.6-4.48 2.2-0.74 7.2-0.16 9.7-0.09 1 3.78-0.8 3.86-0.7 4.3 0.5 1.51-0.8 3.31-0.8 3.68 0.8 1.07 0 2.08 0.1 2.63 0.6 1.83 1 0.38 1.2 4.85 0.2-0.95 0.9-1.46 1.4-0.42-0.2-1.84 0-2.02 1.2-1.87-0.9-0.47-0.3-1.53 1-2.28 0.3 0.27 1.6 3.08 3 1.28-0.2 0.43 0.8 0.58 1 1.15 0.3 1.13 0.3 3.15-0.7 2.71l0.6 0.76c0.5-0.57-0.4-0.78 1.6-0.94-1.2 0.22-3-6.38 3.1-2.6 0.3-1.62 4.4-3.46 3.1-3.58-1.5-0.16-1.3 0.48-2.1 0.37-2.5-0.34-2.4-0.83-2.5-0.72 0.5-0.68 0-0.68 2.6-0.86-0.2-0.96-2.6-0.44-2-0.59 0.2-0.24-0.8-0.64 2.1-1.02 0.3-0.05 0.7-0.56 0.6-1.14-0.1-0.35 0.3-0.06 0.5-0.24-1.2-1.2-0.4-1.35-0.1-1.5s0.6 0.15 1.8 0.4c-0.2 0.03-0.9-1.07-0.3-1.72 0.3-0.46 0 0.51 0.3 0.08-0.4-0.29-0.3-0.96 0-1.31 0.3-0.37 0.7-0.79 1-1.17l22.9 14.33c1.9 1.22 4.3 2.1 4.9 4.46 0.2 1.01-0.6 0.97-0.8 1.84-0.1 0.64 1 1.36 1.3 1.89 1.3 1.84 3.8 3.06 5.4 4.53 1 0.88 5.6 3.85 5.4 5.13-0.3 2.06-1 4.36-1.9 6.26-0.4 0.96-0.9 1.91-1.2 2.93-0.1 0.47-0.2 0.96-0.3 1.46 0 0.68 0.6 1.31 0.5 1.92-0.4 2.59 3.7 2.79 3.2 5.55 2.3-0.71 2 1.96 1.1 3.04-1.3 1.71-0.5 3.73-1.4 5.38 1.5-1.43 1.4 1.54 1.1 2.29-0.6 1.12-1 2.46-0.8 3.71 0.1 1.16 1.8 3.11 0.5 3.36 1 0.19 0.4 1.98 1.2 1.91 1.2-0.12 0.6 1.22 0.3 1.81-0.5 1.09 0.8 1.49 1 2.48 0.1 0.55-0.3 0.88 0 1.43 0.4 0.73 0.6 1.17-0.2 1.8 1.3-0.23 1.8 0.84 2 1.87-0.1-1.79 4.3 0.79 2.9 2.78-3 2.34-5.7 3.71-8.5 5.43-1 0.35-1.1-0.29-2.1 0.06-1.1 0.37-2.7 1.66-3.8 2.02s-2.4-1.75-3.6-1.14c-1.5 0.71-2.1 2.85-3.6 3.52-2.5 1.11-3 0.26-3.8-0.43-1.5-1.33-2.1 1.12-3.8 0.92-2-0.23-2.6 0.04-3.7-1.32-0.9-1.07-1.8-1.56-3.1-0.42-0.8 0.81-3.9 0.66-5.4 0.34-0.1-0.14-0.2-0.94-0.4-1.24-0.6-0.81-1.1-1.63-1.6-2.53-0.6-1.25-0.2-2.62-0.4-3.94-0.4-1.78-0.1-3.42-0.5-5.16-0.5-1.82-1.6-3.51-3.1-4.63-1.4-1.1-1.7 1.03-1.5 1.35-1.5-1.54-2.8-0.1-4.2-1.58-0.4-0.46-2-0.58-2.6-0.94-1-0.61-2-1.1-3.6-1.33-0.2-0.04-0.4-0.43-0.5-0.65-0.5-0.61-0.9-0.46-1.6-0.78-0.6-0.3-1.4-0.2-2-0.51-0.5-0.29-0.6-0.97-1.1-1.22-0.4-0.2-0.9 0.29-1.3 0.17-0.7-0.21-0.8-0.96-1.2-1.48-0.7-1.02-1.7-1.21-2.7-1.14-0.4-1.05-2.9-6.11-4.1-9.16-1-2.81-0.2-8.04-4.2-9.53-0.6-0.23-0.1 0.45-0.8 0.13-1.4-0.66-2.9-2.29-0.3-4.81 1-0.97-0.7-2.82-1.1-4.48"/>
  </g>
  <g id="gq" transform="translate(-29.902 -45.074)" class="land coast gq">
   <path id="path5778" d="m1366.8 776.95c0.6-0.62 3-5.28 0.9-4.83-0.9 0.17-1.3 0.68-1.5 1.45-0.4 0.91-0.9 1.02-1.5 1.69-0.6 0.78 1.7 1.48 2.1 1.69"/>
   <path id="path5784" class="land gq" d="m1374 790.92c0.3 0.06 0.5 0.02 0.8-0.14-1.6 0.76-0.2-1.56 0.1-2 0.8-1.28 0.2-3.14 0.7-4.68 1.1 2.07 1.8 1.56 3.2 1.85l8.2-0.09v10.01l-9-0.2c-0.6 0.08-3.4 0.93-2.4-0.36-0.9-0.48-3.1 0.53-3.6-0.65-0.6-1.08 1.5-2.88 2-3.74"/>
  </g>
  <path id="ls" class="land ls" d="m1471.9 1016.1c0.9 0.9 0.8 2.3 1.6 3.2 0.7 0.9 0.5 2 1.2 2.7 0.8 0.9 3.1 3.8 4.7 2.6 0.6-0.6 1.2-2.4 1.7-3.2 0.7-1.2 1.9-1 3.2-1.3 0.8-0.2 2.7-1 3.1-1.9 0.4-1.2 0.5-1.8 1.3-2.9 0.4-0.4 1.4-1.4 1.2-2-0.5-1.8-1.3-2-2.5-3.2-0.9-1-1.9-1.9-2.9-2.9-0.8-0.9-2.2 0.5-2.9 0.8-0.8 0.3-1.2 0.7-2 1.2-0.9 0.5-1.9 0.3-2.7 1.3s-1.2 2.3-1.9 3.3c-0.8 1.3-2 1.4-3.1 2.3"/>
  <path id="bi" class="land bi" d="m1492.2 783.29c1-3.04 2.6 0.28 2.9 0.31 3.3 0.39 4-0.71 4.3-4.06 1.8 1.58 1.2-0.71 5.4 0.73-0.7 0.35-2.5 2.29-1.1 2.23-1.2 3.07 1.1 3.19 2.4 2.8-0.7 1.2 1 1.71-0.7 2.92-1 0.74-1 0.32-1.2 1.67-0.1 0.33-1.3 0.16-1.5 0.59-0.2 0.47 0.7 1.56 0.6 1.86 0 0.2-0.6 1.24-1.4 1.88-1.4 1.01-1.6 2.2-3.1 3.14-0.7 0.46-1.4 0.6-2.1 0.6-0.2-0.87-1.8-4.16-2.1-5.24-0.4-1.56 0.2-3.17-0.8-4.52 0.1-0.77 0.5-1.7-0.2-2.54-0.5-0.75-1.1-1.46-1.4-2.37"/>
  <path id="dj" class="land dj" d="m1588.7 664.13c0-2.33-0.9-4.63 0.5-6.73 1-1.58 2-3.01 2.9-4.67 1.1-1.93 1.6-0.9 3.2-0.48 0.7 0.2 0.7-1.02 1-1.42 0.5-0.62 1.3-0.87 1.9-1.25 0.7 1.47 3.5 4.21 2.2 5.92-0.7 0.88-2.9 1.89-3.9 2.29-1.1 0.42-1.2 1.68-2.4 1.87 0.8 1.03 3.1-0.66 4.3-0.21 2.1 0.8 0 2.84-0.6 3.99-0.8 1.72-2.1-0.08-3.4 0.26-1.4 0.35-4.9 2.09-5.7 0.43"/>
  <path id="cg" class="land cg" d="m1355.6 793.58c0.6-1.76 0.9-2.29 2.4-3.39 1.3-0.98 1.7 2.27 3.4 1.24 0.3-0.15-0.1-1.61 0.2-2.15 0.6-1.17-0.6-1.43-1.3-1.87-0.6-0.39 1.1-4.22-1.6-3.47 0.9-1.29 0.7-2.83 0.3-4.25 1.1 0.25 1.5 0.14 2.6 0.16 0.4 0 0.7 0.71 1.1 0.6 1.3-0.31 3.6 0.02 3.3-1.93-0.2-1.33-0.7-4.17 1.9-2.79 0.9 0.5 2.6 3.28 2 4.32 1.1-0.68 2.3 0.79 3.5 0.5 1-0.25 2-1.93 2.3-2.88 0.3 0.58 0.9 3.84 1.6 3.78 0.6-0.04 2-1.46 1.9-2.07-0.1-0.63 0-2.78 0.7-3.15 0.8-0.49 1.6-2.1 0.5-2.81 1.5-0.51 0.8-3.3 0.5-4.31-0.5-1.55 1.1-3.27 0.3-4.64-0.4-0.81-1.5-1.05-2.3-1.05-0.5-0.34-0.1-1.46-1.1-1.56-2.4-0.24-0.5-1.55-0.8-3.09-0.2-1.06 0.1-3.14 1.1-3.85 1.1-0.74 2-0.37 2.6-1.77 0.5-1.09-0.3-1.91-0.7-2.85-0.7-1.71-1-3.32-3.2-2.97-1.9 0.31-3.6 1.36-5.5 1.68 0.5-1.42-0.1-2.96-0.2-4.4-0.1-1.57 0.9-3.06 0.9-3.86 0-0.65 7.7 0.2 8.4 0.13 1.3-0.14 1.7 0.2 2.9 0.29 1.1 0.08 1.2 1.47 2.6 1.09 2.7-0.75 5.6 1.18 7.4 3.01 0.9-1.25 0-2.18 0.1-3.5 0-1.09 1.1-1.74 1.5-2.69 0.6-1.34 1.2-2.65 1.6-4.07 0.2-1.14-0.2-2.19 0.1-3.29 0.2-0.84 0.4-2.08 1.2-2.54 1.1-0.59 2.4-0.01 3.6-0.5 1.2-0.53 2.2-1.38 3.6-0.73 1.3 0.63 2.2 1.2 3.8 0.95 1.9-0.31 4.3-1.01 4.1 1.64-0.3 2.26-1.8 5.4-2.9 7.33-1.3 2.28-1.3 3.78-1.3 6.41 0 1.47-0.3 2.95-0.7 4.36-0.5 1.53-0.9 2.37-0.9 4.05 0 1.08-0.1 2.14-0.1 3.24-0.1 1.09-0.4 2.47-0.7 3.53-0.7 2.69 0.6 4.44-1.6 6.91-2 2.21-4.2 2.83-5.5 5.31-0.7 1.17-1.2 2.44-1.7 3.73-1 2.4-3.3 2.76-3.2 4.22 0.3 2.4 0.1 4.75 0.1 7.41 0 2.59-1.2 6.57-3.6 7-0.9 0.16-1.9 1.11-2.2 2.05-0.1 0.51-1.7 1.2-2.2 1.78-0.9 1.04-1.5 2.26-2.5 3.28-1.2 1.3-2.5-0.25-3.2 0.71 0-0.93-0.9-2.6-0.2-3.36 0.5-0.61 0.7-1.16-0.3-1.48-1.3-0.41-3.1 2.3-4.2 0.81-0.6 0.59-0.5 1.32-0.8 2.02-0.4 0.92-1.6 1.26-2.3 1.94 0-1.21-1.7-1.37-2-2.52-0.9 1.65-1.8-3.27-3.3-0.86-0.6 0.83-1.4 0.76-2.1 1.32-0.6 0.56-1.8 1.87-2.4 2.61-1.6 1.76-2.1-1.51-2.4-2.46-0.6-2.46-3.3-4.61-5.1-6.3"/>
  <path id="rw" class="land rw" d="m1491.2 781.13c-0.6-1.09 2.2-2.96 2.2-4.41-0.1-2.56 1.1-3.66 3.2-4.93 0.3-0.16 1.6-0.99 2-0.72 0.4 0.36 0.6 1.59 1.3 0.77 0.6-0.64 2.5-3.47 3.6-3.1-0.5 1.46 0.7 3.31 1.4 4.4 0.8 1.36 1.7 3.69 1.5 5.25-0.3 1.96-1.4 2.21-3.1 1.58-1.9-0.71-2.3 0.99-3.9-0.43-0.3 1.77-0.1 3.7-2.2 4.14-1.1 0.23-2.2 0.37-2.7-0.72-0.6-1.2-2.1-1.11-2.3 0.33-0.6-0.64-1-1.22-1-2.16"/>
  <path id="sn" class="land sn" d="m1140 632.09c-0.4-0.02-0.8 0.13-1.1 0.43-0.2-1.23 2.1-1.61 2.9-2.32 1.5-1.54 2.7-3.62 3.6-5.59 0.5-0.94 2.6-9.94 4.8-7.87 1 0.93 6.2-0.01 7.1-0.99 1.3-1.52 6.4 0.18 7.4 1.47 1.5 1.74 1.7 2.44 4.1 2.69 1.3 0.13 2.7 2.67 2.4 3.92-0.1 0.58 1.8 1.61 2.1 2.22 0.4 0.77 0.6 1.66 1.2 2.32 0.6 0.64 1.8 0.72 2.2 1.51 0.6 1.15 2.3 1.79 2.5 3.14 0.1 0.61-0.9 1.32-0.2 1.93 0.5 0.52 0.9 0.85 1 1.74 0.1 0.93 0.9 3.19 0.2 3.9-0.8 0.17-0.9 0.55-0.2 1.15 0.1 0.44 0.4 0.81 0.7 1.11 0.7 0.38 0.1 1.13 1 1.41 0.5-2.05 2.2 1.5 2.5 2.06 0.4 0.84 0.6 1.47 0.4 2.44-0.3 1.1 0.4 2.51 0.1 3.41-1.3-0.53-2.6 0.31-3.9 0.08-1.4-0.24-2.2 0.56-3.5 0.74s-3.5-2.18-4.6-1.44c-0.8 0.58-0.5-1.05-0.7-1.1-1.2-0.35-0.8-0.56-1.8-0.56l-12.6-0.02c-1.7 0-2.4 0.1-3.6 1.08-1.1 0.86-2.6 0.78-4.2 0.73-1.4-0.05-2.4 0.79-3.7 1-0.7 0.11-1.4-0.12-2 0.29-0.1-0.33-0.8-1.04-0.4-1.43 0.9-1 1.4-1.49 2.6-0.73 0.9 0.57 2-0.32 3-0.34 0.7-0.01 1 0.53 1.8 0.3 0.5-0.17 0.8-0.06 1.3 0.11 0.9 0.3 0.8-2.02 1.9-2.38-1.6 0.11-0.7 1.42-1.6 2.09-0.8 0.58-3-0.19-3.2-1.15-0.6 2.42-5.4 0.66-4.4-0.58-0.4 0.65-0.4 1.74-1.3 1.95-0.2-0.6 0-1.07 0.5-1.44-1.3 0.28-0.6-1.65-0.3-2.51 0.4-1.29 1.9-1.37 3-1.37l4.1-0.01c0.8 0.42-0.8-0.27 0.5-1.15 1.2-0.77 2.4-0.25 3.5-0.57 1.3-0.37 0.6-2.19 2.3-1.13 2.4 1.47 4.8 3.02 7.5 2.1 1.1-0.35 2.2-1.37 0.9-2.09-1.7-0.9-2 0.39-3.3 0.33-1.4-0.07-1-2.06-2.6-1.45-0.5 0.23-1.1-0.57-1.3-0.96-0.4-0.8-1.6-0.53-2.3-0.06-1.1 0.65-1.3-0.38-1.9 0.2-0.4 0.42-0.3 0.97-0.8 1.26l-7.5-0.04c0.3-0.62-0.3-1.04-1-1.12 0.1-0.59 0.5-0.84 1-0.57-0.1-0.62 0-1.22 0.2-1.8-0.5 0.82-1 1.44-2 1.58-0.2-0.8 2.1-2.86 2.9-2.95-0.9-0.37-3.2 1.76-3.2 2.59 0-2.37-1.5-6.65-4-7.56"/>
  <path id="tg" class="land tg" d="m1269.8 663.19c1.5 0.39 3 0.54 4.4 1.17 1.1 0.51 2.9 0.2 3.8-0.2-0.6 1.66-1.9 4.48-0.5 6.08 0.7 0.91 3.5 1.94 3.6 3.17 0.2 1.84-0.2 3.98 0.7 5.66 1.1 1.89 1.6 3.17 1.5 5.41 0 3.9 0 7.77 0.1 11.67 0 0.61 0.2 2.93-0.9 2.9 0.4 1.12 0.2 2.4 0.7 3.48 0.5 0.88 1.1 1.69 1.2 2.71-1.6 0.14-3.2 0.86-4.6 1.51 0-0.74-1.9-1.67-2.4-2.11-1-0.95-1.8-1.6-2.5-2.82-0.9-1.66 0.8-3.29 0.8-4.98 0-1.13-1.3-1.24-1.1-2.33 0.3-1.31 1-2.05 0.9-3.49-0.1-0.76-0.3-1.55 0-2.31 0.1-0.48 0.8-0.91 0.6-1.44-0.4-1.48-1.9-2.13-2.4-3.49 1.6-0.16 0.5-2.53 1-3.61 0.3-0.59 0.4-1.58 0.1-2.18-0.6-1.14-1.5 0.1-2.3-0.04 0.5-0.63 0-1.39 1.1-1.22-0.2-1.19 0.6-3.23 0.2-4.22-0.7-1.71 0.5-1.9-1.2-2.9-0.9-0.52-2.2-2.3-2.1-3.4 0.1-0.85 0.9-1.39 0.5-2.32-0.1-0.37-0.9-0.39-1.2-0.7"/>
  <g id="ga" transform="translate(-29.902 -45.074)" class="land coast ga">
   <path id="path5980" d="m1368.9 810.72l0.3 0.57c0.3-0.48 0.2-0.91-0.2-1.29 0 0.24 0 0.48-0.1 0.72"/>
   <path id="path6014" class="land ga" d="m1367.9 812.3c-0.4-0.63-0.8-1.45-0.4-2.23 0 0.59 0.2 1.09 0.6 1.51 0.2-1.63 1.2-0.28 1.1 0.65 0.2-1.99 2.2-3.13 2.4-5.08 0.2-1.34-0.7-3.97 0.5-5 0.1 0.66 0.5 1.13 0.9 1.66 0.2-1.08 1.8-0.48 2.3 0.43-0.2-0.92 0.8-1.26 1.6-1.23-1.9 0-3.3-0.37-4.3-1.99-0.4-0.64-1.8-1.45-0.3-1.75 0.7-0.13 1.5 0.19 1.5 0.95 0.6-1.2-0.3-2.79 0-4.06 0.2-0.7 1-0.63 1.6-0.35 0.9 0.5 1.6-0.12 2.6-0.12l9 0.15-0.1-9.89c0.4-2.31 1.4-1.42 3.1-1.34 1.5 0.06 3.3 0.26 4.8 0.18s3 0.41 4 0.36c2.3-0.12 4.1-1.35 2.6 2.37-1 2.31 0.6 4.5-0.2 6.57 1.7-0.29 3.3-1.21 5-1.58 3.2-0.7 2.8 1.2 3.7 2.8 0.9 1.51 1.7 3.72-1.3 4.42-1.7 0.39-1.8 3.24-1.6 4.57 0 0.63-1.3 2.35 0.2 2.43 0.7 0.04 1.5 0.6 1.4 1.13-0.1 0.76 1.6 0.62 2.2 1.26 1.4 1.39-0.3 3.16 0 4.67 0.1 0.96 1.3 3.82-0.5 4.71 1.1 0.72 0.4 2.61-0.6 3.02-0.3 0.11-0.7 2.51-0.6 2.61 0.6 0.73-1.1 2.52-1.9 2.44-0.9-0.09-1.2-3.11-1.6-3.83-0.3 0.93-1.4 2.85-2.4 2.98-1.1 0.13-2.4-1.2-3.4-0.6 0.7-2.82-4.7-7.29-4-2.58 0.5 2.76-0.6 2.8-3.2 3.04-0.8 0.08-0.6-0.61-1.4-0.55-1 0.08-1.3-0.02-2.3-0.27 0.4 1.43 0.6 2.97-0.3 4.25 1-0.37 1.7 0.22 1.7 1.26 0 0.89-0.2 1.65-0.1 2.12 0.4 0.43 1 0.43 1.3 0.85 0.6 0.94-0.1 1.07-0.1 1.88 0.1 0.66 0.5 1.58-0.6 1.64-1.3 0.07-1.3-1-2.2-1.54-0.9-0.55-2.9 2.81-3.1 3.43-1.7-1.3-3.1-4.01-4.2-5.76-1.7-2.57-4.3-4.63-6.5-6.76 1.2-0.75 1.7 2.03 2.8 0.64-0.8 0.08-2-0.92-2.9-1.14-1.4-0.35-2.4-3.61-3.3-4.76 0.9 0.09 1.2 1.09 2.1 1.3-0.8-1.25-0.9-0.95-2-1.6-0.5-0.29-0.4-1.18-0.5-1.62-0.3-1.09-1.1-1.94-1.6-2.91 0.7 0.58 2.1 1.85 1.8 2.89 0.8-0.24 1.5-0.41 2.3-0.35-0.4-0.32-0.8-0.71-1-1.16-0.2 0.57-0.6 0.86-1.2 0.58 0.1-0.76 0.7-1.44 0.4-2.24-1.2 3.3-3.2-3.06-3.8-3.46"/>
  </g>
  <path id="mw" class="land mw" d="m1518.9 878.13c0.3-0.49 1.6-2.66 2.1-4.09 0.5-1.44 0.4-1.83 0.1-3.71-0.3-1.73 3.6-2.82 4.4-3.67-2.8-0.86-1.6-5.49-1.6-7.53 0-1.7 1.1-2.42 0.1-4.13-1-2.01 0.6-1.56 1.6-2.35 1.3-0.94 1.6-2.88-0.5-5.33-1.7-1.96 0.4-2.56-1.2-3.63-1.3-0.87-1.8-0.84-2.1-1.16-0.2-0.18 0.3-1.27-0.2-1.83 0.3 0.17 1.9 0.8 2.7 0.91 1 0.13 0.7 0.88 1.6 1 0.8 0.11 2.6-0.04 3.1 0.94 0 1.31 0.1 2.85 1.7 4.78 1.4 1.74 0 2.09 0.2 3.48 0.2 1.18 0.7 6.73 0.7 7.37 0.1 2.55-3.3 5.09-2.4 6.61 3.4 5.85 2.3 5.76 2.1 6.94-0.7 4.89 2.6 3.78 2.1 5.99-1.3 5.46 2 4.57 1.9 1.98l2.7 3.49c0.6 0.32 0.2-4.48-1.6-5.91-1.6 0.25-0.9-1.3-1.1-1.74 1.3 0.63 1.4 0.72 3 3.04 1 1.54 1.9 3.15 3.2 4.75 1.6 1.78 1.6 3.48 1 5.73-0.5 1.97 0.3 3.91 0 5.96-0.2 0.88-0.4 1.94-1.2 2.5-0.9 0.63-2.1 0.43-2.9 1.12-0.8 0.68-0.5 2.14-1.7 3.07 0.3 0.32 1.2 2.03 1.2 2.97 0 0.39 0 1.6-0.3 2-0.4 0.4-1.8 0.31-1.6-0.43 0.4-1.57 1.1-1.14-0.5-2.72-1.1-1.07-4.2-4.09-4.3-5.29-0.3-2.09-0.9-1.61-0.4-3.25 0.1-0.75 0.6-2.35 1.1-3.06 0.9-1.13 0.7-1.44 0.9-2.86 0.1-1.67 0.2-3.88-1-5.54-0.4-0.65-1.8 0.24-3 0.39-1 0.11-2.5-0.17-2.5 0.75-0.6-0.62-4.4-5.06-4.6-4.97-1 0.4-3-1.78-2.8-2.57z"/>
  <path id="ma" class="land ma" d="m1175.7 520.2c0.4-0.38 1.5-2.17 1.9-2.31 1.4-0.51 3-0.58 4.4-0.9 2.7-0.6 5.5-1.46 7.5-3.42 2.1-1.93 4.1-3.44 6.2-5.23 2.1-1.71 3.6-3.99 5.2-6.06 1.1-1.41 3.6-5.46 1.5-7-0.8-0.59-1.4-0.61-0.9-1.71s0.5-2.19 0.6-3.38c0.1-3.32 1.3-4.8 3.3-7.27 1.2-1.42 0.9-2.86 1.4-4.48 0.3-1.18 1.3-2.09 2.2-2.89 1.9-1.72 3.3-3.83 5.7-4.89 2.6-1.16 5.3-2.07 7.8-3.47 4.8-2.76 7.1-9.5 9-14.45 0.2-0.48 0.8-2.93 1.6-2.85 0.9 0.09 1.8-0.28 2.5-0.69 1-0.53 1.2 0.77 1.5 1.47 0.5 1.35 1.3 2.26 2.5 3.11 2.4 1.76 4.5 1.27 7.3 0.93 2.4-0.28 5.4 1.15 6.8-1.62 0 0.9 0.2 1.13 0.4 1.81 0.1 0.73 1.4 1.1 0.3-0.08 0.6 0.87 1.7 1.32 2.7 0.81 1.1-0.51 1.7 0.55 2.3 1.13 0.7 0.63 1.9 0.99 2.3 1.88 0.5 1.01-0.5 1.94 0.9 2.52-0.8 0.6-0.5 1.7-0.4 2.5 0.2 1.28-0.2 2.4 0 3.63 0.1 0.99 0.7 1.62 0.5 2.68-0.4 1.6-0.2 2.17 0.5 3.57 0.4 0.72 0.1 1.35 0.5 2.01 0.5 0.97 1.4 1.36 2.3 2.03 1.6 1.24-3.1 3.29-0.6 4.24-2.6 0.66-11.7-2.44-13 1.07-0.7 1.83-2.5 2.53-4.5 2.36-1.4-0.12-3.3 1.99-1.2 2.55-1.8 1.56 1.4 2.72 0.6 3.46-0.8 0.84-2.3 0.54-3.2 1.21-1 0.71-2.1 1.76-3.2 2.16-0.9 0.3-1.9 0.27-2.7 0.73-1.5 0.87-2.2 2.72-3.3 4.01-1.3 1.48-3.8 2.05-5.7 2.13-1.5 0.06-3-0.55-3.6 1.17-0.6 1.84-2.4 0.46-3.9 0.57-1 0.08-1.6 0.58-2.2 1.29-0.7 0.72-1.5 0.57-2.3 0.9-1 0.39-1.6 1.33-2.3 1.97-0.8 0.68-1.9 1.1-2.7 1.77-1.6 1.32-3 1.51-2.9 3.78 0.2 2.26 0 4.77-0.3 7.01-0.1 0.95-30.2 0.24-33.3 0.24"/>
  <path id="lr" class="land lr" d="m1183.1 699.62c1-0.38 1.1-2.03 1.8-2.78 1.4-1.38 3-2.56 4.3-4.01 0.8-0.94 0.2-2.21 0.9-3.05 1-1.25 1.6-0.54 2.3-2.38 0.2-0.74 0-0.85 0.1-1.01-1.3-0.45 1.4-0.43 2.1-0.19 0.7 0.23 1.1-0.55 1.7-0.51 0.9 0.06 1.6 1.11 2.2 1.62-0.4 0.54-0.2 1.06 0 1.61 0.2 0.41-0.1 1.36 0.4 0.91 0.4 2.11 0.2 4.01-0.5 6.05 1.4-0.51 2.7-0.24 2.8 1.44 1.7-0.66 2.3-1.14 2.9-2.83 0.1-0.5 0.3-1.47 0.9-1.57 0.8-0.11 1.4 1.47 1.7 2.03 0.9 2.05 0.9 3.15 0.6 5.35-0.2 0.97-0.8 1.81-1.2 1.93-0.6 0.21-0.9 0.82-1 0.9 0 0.24 0.4 0.64 1.6 0.67-0.6 2.11 3.7 0.39 4.1 1.96 0.1 0.56-0.2 1.33 1 2.1 0.9 0.6 1.8 1.37 2.2 2.33 0.8 2.22 0 3.48-0.3 4.64-0.7 2.57-1.7 4.36-0.5 6.79-1.2 0.22-2.1-0.26-3.1-0.81-1.3-0.72-2.8-0.82-4-1.77-2.1-1.73-4.8-2.51-6.7-4.44-2.2-2.16-3.9-4.73-6.2-6.85-0.6-0.66-5.8-2.44-4.6-3.59-0.9 0.09-2.1-1.35-2.9-1.73-1.5-0.77-1.4-1.66-2.6-2.81"/>
  <path id="cf" class="land cf" d="m1380.6 707.25c0.5-0.79 1.2-1.32 1.9-1.9 1.1-0.91 1.2-1.95 1.9-3.08 1.2-1.94 2-4.83 3.4-6.67 1.7-2.28 1.9-0.72 4.1-1.34 1.1-0.33 2-0.57 3.1-0.92 1.1-0.34 0.8-1.52 1.9-1.93 0.3 1.21 1.3 1.9 2 2.88 0.6-1.19 2.4-1.78 3-2.21 1.8-1.35 4.6-1.9 6.7-1.9 1.9-0.01 3.7 0.52 4.6-1.21 0.7-1.21 3.3-3.37 3.1-4.54 0-0.72-1.6-0.53-1.7-1.46-0.1-1.42 4.2-1.45 5.4-1.44 3.5 0.06 7.4-1.33 9.8-4.22 1.2-1.51 1.9-3.14 3.5-4.31 0.8-0.6 3-2.62 2.6-3.55-0.6-1.16 0.4-2.33 1.8-2.67 1.6-0.39 2.8-2.39 4.7-2.43 2.2-0.05 2.7 1.4 3.7 2.61 1.6 1.89 3.3 3.29 4.2 5.31 0.9 1.96 0.9 3.74 0.8 5.8-0.1 2.05-1.9 2.33-1.6 3.84 0.3-0.09 0.5-0.19 0.8-0.29 0.2 0.8-0.2 1.52-0.5 2.23 1.6 0.3 3.5-0.12 4.9 0.7 1.6 0.88-1 3.16 2 3.67 1 0.17 2.4 0.06 3.3 0.71 1 0.75 1.5 1.59 2.6 2.39 1.6 1.26 0.4 2.23 0.3 2.86 0 1.06 1.5 1.82 2.3 2.3 0.9 0.53 1.9 1.1 2.8 1.57 1.7 0.91 1.2 1.4 1.9 2.44 0.4 0.73 2.4 1.1 1.9 2.18-0.8 1.45-0.2 1.7 0.7 2.53 0.8 0.76-0.1 1.4 1.3 2.31 0.9 0.59 1.8 0.88 2.8 1.38 1.5 0.81 2.1 1.76 2 3.47 0 1.59 1.1 2.47 1.6 3.82-1.3-1.37-3-1.92-4.1-0.76-0.5 0.49-1.5 0.37-2 0.31-0.3-0.09-0.6-0.07-0.9 0.06-0.6 0.33-0.8-0.29-1.3-0.48-1-0.39-1.9-1.2-2.9-0.9-2.1 0.61-2.2-0.8-3.6-1.01-0.8-0.14-1.4 0.42-1.3 1.28 0.3 1.4-1.3 1.61-2.3 1.92s-2.3 0.75-3.2 0.09c-0.5-0.35-1.6-1.88-1.9-0.93-0.4 1.31-3.1 2.18-4.2 2.39-2.1 0.38-3.4 2.32-4.3 1.37-1-1.09-2.1-2.65-3.7-0.73-0.5 0.59-0.5 1.47-0.9 2.11-0.5 0.87-0.6 2.06-1.5 2.7-1.3 0.89-4.4-1.06-6-1-1 0.04-1.2 0.32-2.3-0.05-1.1-0.38-1.5 0.17-2.3-0.81s-2.5-0.15-3.6-0.35c-1.4-0.25-1.4-2.17-2.2-2.93-1.3-1.31-3.4-2.23-4.7-3.02-1.8-1.11-4.4 1.19-5.3 2.79-0.6 0.91-1.3 1.82-1.7 2.81-0.3 0.77-1.4 0.64-1.7 1.07-0.4 0.71 0.7 2.15 0.7 2.97-0.2 1.18-0.3 1.69-0.2 4.35-1-1.65-3.5-0.22-5.2-0.48-0.8-0.11-2.1-0.73-2.8-1.05-1.4-0.63-2.5 0.65-3.9 0.92-2 0.41-3.6-0.3-4.1 2.22-0.2 1.36-0.1 2.84-0.3 4.16-0.4 1.77-1.6 3.48-2.2 5.18-0.4-1.98-0.8-3.75-0.9-5.76-0.2-2.02-2.3-1.92-3.4-3.1-0.5-0.58-5.9-6.92-3.4-6.98-1.3-0.91-1.1-2.9-2.4-3.93-1.7-1.34-1.4-3.26-1.5-5.26 0-0.75-1-1.27-1-1.77 0.1-0.74 0.5-1.5 0.5-2.28 0.1-0.86 0.1-1.78-0.1-2.61-0.3-0.78-1.2-0.42-1.5-1.44"/>
  <path id="zw" class="land zw" d="m1461.9 913.68c1 0.22 2 0.43 2.9 0.07 1-0.34 1.4 1.07 2 1.46 0.7 0.43 1.9-0.63 2.5-0.73 0.8-0.13 2.1 0.81 2.8 1.12 2.1 0.9 3.4-1.01 4.5-2.54 1.5-2.04 3-3.94 4.1-5.76 0.5-0.87 1.2-1.22 2-1.83 1.1-0.83 2.2-1.35 3.5-1.88 2.5-1.02 2.9-1.32 3-4.11 0.1-1.37 2.4-3.07 3.7-3.56 1.1-0.46 2.5-1.1 3.8-1.14 1.5-0.06 3 0.42 4.5 0.04 0 2.86-0.2 3.14 3 3.14 2 0 3.1 0.48 5 1.27 1.1 0.43 3.6 1.89 4.6 2.44 1.5 0.79 4 0.45 4.6 1.7 0.4 0.92 1.1 0.99 2 0.73-0.2 1.33-1 2.09-0.4 3.46 0.8 1.61-0.1 2.8 0.4 4.31 0.4 1.46-0.7 3.09-0.4 4.69 0.3 1.1 0.9 2.01 0 2.89-0.8 0.64-0.1 2.14-0.5 2.38-1.1 0.58-1.3 0.49-1.7 1.78-0.2 0.58 0.8 0.79 1 1.04 0.3 0.22 0.1 1.07 0 1.31-0.1 0.59-0.5 0.91-0.7 1.45-0.1 0.42 0.5 2 0.7 2.47 0.2-0.1 0.4-0.2 0.7-0.29-0.1 1.57 0.5 2.19-0.4 3.79-0.8 1.28-1.3 3.41-2.7 4.08-1.6 0.73-0.4 1.72-0.7 2.93-0.3 1.48-1.5 2.34-0.3 3.82-1.2-0.87-6.6 7.13-7.6 7.76-1 0.61-1.5 1.94-1.9 1.93-0.8-1.76-4.1-1.03-5.8-1.02-1.5 0-2.9-0.57-4.2-1.04-3.2-1.08-4.1-0.31-4.3-0.52-0.8-0.99-0.9-0.5-1.9-1.02-1-0.57 0-1.5-0.3-1.94-1.5-1.95-7.1-0.7-7.9-2.75-0.9-2.01-2.5-3.93-1.8-5.93 1-2.75-0.4-3.38-3.1-2.82 0.5-2.6-0.2-3.66-2.6-4.38-1.9-0.57-4.5-2.7-5.6-4.36-1.6-2.54-1.6-5.72-3.6-8.18-0.8-1.07-3.6-4.83-2.9-6.26"/>
  <path id="bj" class="land bj" d="m1277 666.86c0.3-0.78 0.4-1.97 0.9-2.57 0.6-0.56 0.7-0.47 1.2-0.96 1-1.02 2.6-3.9 3.9-2.54 0.4 0.42 4.5-0.59 5.2-1.98 0.6-0.89 1.2-2.08 1.2-3.14 0-0.65-0.8-2.13 0.2-2.35 0.7-0.14 1.6 0.04 1.9-0.38 1-1.53 2.3 0.15 3.1 1.02 0.6 0.62 0.9 1.14 1.4 1.78 0.7 0.74 1.5 1.49 2.2 2.37 0.3 0.5-0.5 1.72-0.6 2.21-0.2 1.13 0.8 2.06 1.4 2.9 0.6 0.99 0.1 2.01 0.5 2.92 0.5 1.1 1.2 1.92 0.5 3.1-0.4 0.62-1.2 0.04-1.5 0.75-0.3 1.09 1.2 1.86-0.1 3.35-0.6 0.67-1.5 0.86-1.9 1.64-0.4 0.72-0.6 1.45-1.2 2.19-1.1 1.42 0.7 3.38-1.8 3.98-0.8 0.2-1.3-0.17-1.5 0.78-0.1 0.89-0.6 1.73-0.5 2.62 0.1 2.19 0.1 4.37-0.1 6.54-0.1 0.95 0.9 2.86 0.7 4.22-0.1 1.19-0.1 2.24-0.3 3.28-0.3 1.55 0.3 2.18 0.2 3-0.1 0.92-0.7 2.29-0.6 2.92-1 0.02-2.7 0.24-3.7 0.44-1.5 0.3-3.1 0.58-4.6 0.79 0.4-0.33 0.8-0.5 1.3-0.51-0.1-0.77-0.6-1.6-1-2.26-0.6-1.02-0.7-2.73-0.9-3.87 0.1-0.02 1-0.26 0.9-2.35-0.2-3.82-0.1-7.7-0.1-11.55 0-2.18-0.1-3.83-1.3-5.68-1.2-1.75-0.8-3.8-0.9-5.75 0-1.53-2.3-2.26-3.4-3.32-1.1-0.99-0.8-2.35-0.7-3.59"/>
  <g id="er" transform="translate(-29.902 -45.074)" class="land coast er">
   <path id="path6816" d="m1603.5 667.37c0.1 0.56 0.7 2.26-0.4 1.44 0.5 1.27 2.7 1.15 3.7 1.08-0.5-1.1-1.9-0.04-2.3-1.17-0.1-0.44-0.2-1.85-1-1.35"/>
   <path id="path6830" class="land er" d="m1576.9 673.56c1.2-1.08 1.1-2.78 1.5-4.21 0.5-1.56 1.2-3.07 1.7-4.6 0.5-1.4-0.9-7.23 1.3-7.55 0.5-0.06 2.2 0.28 2.4-0.17 0.8-1.21 0.2-2.15 1.6-2.6 1.2-0.37 2.5-1.28 3.8-1.76 1.7-0.71 1.8-2.54 3.1-3.73 2.2 4.46 3.9 8.76 5 13.64 0.2 1.16 0.2 2.31 0.7 3.41 0.6 1.19 1.1 2.13 1.4 3.43 0.1 0.89 1.3 0.96 1.5 1.91 0.2 0.87 0.4 2.36 1.2 2.95 0.9-0.68-0.6-3.26 0.4-3.43 0.9-0.16 1.5 1.07 1.6 1.8 0.1 0.86 0.7 2.31 1.5 2.69 1.2 0.54 1.9-1.03 3.1 0.29 1 1.09 1.1 1.89 2.7 2.11 1.8 0.25 2.5 1.65 3.4 3.1 1 1.4 1.8 2.82 3.3 3.74 0.7 0.43 1.3 0.97 1.8 1.54 0.3 0.28 1.7 2.22 1 0.47 1 0.62 1 1.99 1.3 2.95 0.3 0.84 1.2 0.61 1.8 1.18 0.5 0.55 2.6 4.45 3.3 2.5 0.8 0.74 1.2 1.08 0.8 1.62-1.2 0.54-2.1 1.28-2.1 1.93-0.1 2.22-1.8-0.96-3.8 0.6 0.2-0.57-0.3-2.34-2.5-3.81-1.9-2.86-3.1-4.84-4.3-5.15-2-0.55-2.7-3.09-3.9-4.79-1.4-1.85-3.4-1.94-5.1-3.25-1.6-1.22-2.5-0.2-4-0.64-1.1-0.35-3.1-1.43-4.3 0.02 0-0.89-1.8-2.67-1.4-2.05 0.2 0.29-1.3 1.9-2.4 1.96-0.7 0.05-2.2 0.25-2.9-0.85-1.4-2.02-1.8-0.37-3.4-2.95-0.6 2.32-1.5 4.56-2.3 6.77-0.5-0.68-1.8-3.24-3-2.61-0.7 0.4-0.6 1.13-1.6 1.05-2.9-0.21-2.8-0.33-3.6 1.46-0.5-2.55-0.7-6.43-0.7-8.79"/>
  </g>
  <path id="sz" class="land sz" d="m1501 990.66h0.2c0.9 0.94 0.8 0.77 1.6 1.74 0.6 0.84 0.7 1.22 1.4 1.92 0.9 0.87 2.8 2.08 4.4 0.85 0.6-0.54 0.3-0.57 0.7-1.38l0.9-1.76h1.3v-0.51c-1.6-6.17 0.3-1.99-1.1-6-0.8-0.86-1.8-1.81-2.6-2.14l-2.4-0.1c-0.8 1.03-1.4 1.15-2.1 2.24-0.4 0.62-0.6 1.1-0.8 1.53s-1 3.2-1.5 3.61z"/>
  <path id="gm" class="land gm" d="m1143.6 643.89c1.4-1.11 1.2-1.04 2 0.52 0.5 1.18 2.2-0.41 3 0.2-1.8-0.92 3.7-1.46 4-1.65-1.4-0.09-3.1-0.03-4.4 0.55-1.1 0.49-1.8 0.82-2.5-0.49-0.6-1.17 0.6-1.19 1.4-1.13 2.2 0.16 4.3 0.06 6.5 0.06 0.5 0 0.3-1.73 1.6-1.37 1 0.29 2-0.96 3-0.41 0.6 0.28 0.7 0.97 1.2 1.28 0.5 0.3 1-0.25 1.5 0 0.6 0.27 0.4 1.12 1 1.38 0.7 0.28 1.5-0.25 2.1-0.43 0.8-0.22 2.5-0.07 2.4 1.05-0.1 1.03-1.7 1.39-2.6 1.51-3.4 0.49-7-3.44-7.5-2.5-0.6 1.09-0.7 1.45-2.8 1.42-0.8-0.01-2.8 0.44-2.4 1.58 0.1 0.22-6.7-0.54-6.9 1.06-0.4-0.79-0.7-1.74-0.6-2.63"/>
  <g id="cv">
   <g id="cv-" transform="translate(-29.902 -45.074)" class="land coast cv">
    <path id="path5762" d="m1110.6 658.3c0.7 0.06 2.4-1.03 2.1-1.92-0.6-1.47-3.3 0.45-2.1 1.92"/>
    <path id="path5764" d="m1112.7 659.45c2.1-0.18-0.8-1.91 0 0"/>
    <path id="path5766" d="m1116.5 676.51c0.6-0.2 1.1-1.42 0.5-1.82-1.2-0.69-1.6 1.19-0.5 1.82"/>
    <path id="path5768" d="m1117.7 662.04c0.2-1.64 1.7-0.03 2.2-0.94-0.9-0.39-2-0.92-3-0.57 0.3 0.48 0.6 0.98 0.8 1.51"/>
    <path id="path5770" d="m1123.1 675.72c1.2-1.23-0.7-2.6-1.3-3.6-0.5 1.47-0.8 3.54 1.3 3.6"/>
    <path id="path5772" d="m1125.9 673.85c2-2.13-2.1-1.3 0 0"/>
    <path id="path5774" d="m1129 666.36c2-0.81 0.2-1.87-0.8-2.23 0.1 0.89-0.8 2.25 0.8 2.23"/>
    <path id="path5776" d="m1128.2 661.1c0.5-0.69 0.4-1.47 0.2-2.23-0.8 0.65-0.2 1.44-0.2 2.23"/>
   </g>
   <path id="cv." class="circle cv" d="m1088.6 625.42c6.1 0 6.1-9.15 0-9.15s-6.1 9.15 0 9.15"/>
  </g>
  <g id="km">
   <g id="km-" transform="translate(-29.902 -45.074)" class="land coast km">
    <path id="path5750" d="m1630.9 907.92c0.4-0.4 0.1-1.17 0-1.62-0.5-1.12-0.2-2.17-0.5-3.28-1.4-0.04-0.8 1.78-1.1 2.57-0.5 1.24 1 1.57 1.6 2.33"/>
    <path id="path5752" d="m1633.8 911.81c-0.3-0.69-0.9-1.25-1.7-1.09 0 1 0.9 0.94 1.7 1.09"/>
    <path id="path5754" d="m1638.8 911.73c0.8-2.19-0.8-1.37-2.2-1.73 0.8 0.55 1.6 1.02 2.2 1.73"/>
   </g>
   <path id="km." class="circle km" d="m1603.7 867.68c6.1 0 6.1-9.15 0-9.15s-6.1 9.15 0 9.15"/>
  </g>
  <g id="mu">
   <path id="mu-" class="land coast mu" d="m1704.1 932.62c-0.5 0.55-3 4.26-1.2 4.47 2.7 0.34 3.1-4.87 1.2-4.47"/>
   <path id="mu." class="circle mu" d="m1700.7 938.23c6.1 0 6.1-9.14 0-9.14s-6.1 9.14 0 9.14"/>
  </g>
  <g id="st">
   <g id="st-" transform="translate(-29.902 -45.074)" class="land coast st">
    <path id="path2898" d="m1350.2 804.45c0.7-0.37 1.4-0.95 1.7-1.72 0.1-0.4 0-1.73-0.7-1.52-1.8 0.48-1.2 2-1 3.24"/>
    <path id="path5384" d="m1356.9 791.42c0.3-0.48 0.3-0.99 0.1-1.51-0.6 0.42-0.6 1.03-0.1 1.51"/>
   </g>
   <path id="st." class="circle st" d="m1322.9 756.51c6.2 0 6.2-9.26 0-9.26s-6.2 9.26 0 9.26"/>
  </g>
  <g id="sc">
   <path id="sc-" class="land coast sc" d="m1694.5 801c0.1-0.7-0.2-1.57-1.1-1.37 0.6 0.28 1 0.77 1.1 1.37"/>
   <path id="sc." class="circle sc" d="m1695.2 799.9c6.1 0 6.1-9.15 0-9.15s-6.1 9.15 0 9.15"/>
  </g>
  <g id="pt-30">
   <path id="pt-30-" class="land coast pt-30" d="m1151 477.14c-0.8-0.14-1.3-0.52-1.9-1.04-0.4-0.41 0.4-1.03 0.8-0.58 0.6 0.59 1.4-0.35 2 0.37 0.7 0.79-0.1 1.45-0.9 1.25"/>
   <path id="pt-30_" class="circle pt-30" d="m1150.6 480.84c6.1 0 6.1-9.14 0-9.14s-6.1 9.14 0 9.14"/>
  </g>
  <g id="es-cn">
   <g id="es-cn-" transform="translate(-29.902 -45.074)" class="land coast es-cn">
    <path id="path5984" d="m1170.1 565.49c-1.1-0.72-0.2-1.85 0.8-1.51-0.2 0.54-0.5 1.05-0.8 1.51"/>
    <path id="path5986" d="m1172.1 557.78c-0.2 0.15-0.4 0.29-0.7 0.44-0.1-0.74-1.4-2.75 0-3.03 1.5-0.31 1.2 1.82 0.7 2.59"/>
    <path id="path5988" d="m1175.8 562.32c-0.7-0.45-0.7-1.8 0.4-1.58 1.2 0.23 0.4 1.46-0.4 1.58"/>
    <path id="path5990" d="m1179.9 562.54c-0.6-1.02-0.9-2.16-1.5-3.17 2.2-0.51 3.8-1.19 5.9-2.02-0.7 1.61-2.6 4.54-4.4 5.19"/>
    <path id="path5992" d="m1187.9 564.7c-1.8-0.26-2.1-3.15-0.3-3.56 2.8-0.62 2 2.76 0.3 3.56"/>
    <path id="path5994" d="m1197.3 561.96c-0.2-0.14-0.4-0.29-0.7-0.43 2.2-0.71 2.4-3.97 4-5.44 1-0.93 0.4 2.71 0.3 3.07-0.7 1.68-2.5 1.65-3.6 2.8"/>
    <path id="path5996" d="m1201.8 555.12c-0.3-0.1-0.5-0.19-0.8-0.29 0.3-0.65 2.7-3.68 3.2-2.19 0.4 1.25-1.8 1.83-2.4 2.48"/>
   </g>
   <path id="es-cn_" class="circle es-cn" d="m1157 509.99c6.1 0 6.1-9.15 0-9.15s-6.1 9.15 0 9.15"/>
  </g>
  <g id="yt">
   <path id="yt-" class="land coast yt" d="m1613.4 871.99c0.5-0.64 1.1-2.02 0-2.45-0.2 0.56-0.4 1.92 0 2.45"/>
   <path id="yt." class="circle yt" d="m1614.5 877.06c6.1 0 6.1-9.15 0-9.15s-6.1 9.15 0 9.15"/>
  </g>
  <g id="re">
   <path id="re-" class="land coast re" d="m1689.5 941.26c-0.1-1.99-4-0.81-3.6 1.09 0.7 2.86 6 3.1 3.6-1.09"/>
   <path id="re_" class="circle re" d="m1688.2 946.01c5.4 0 5.4-8.47 0-8.47s-5.4 8.47 0 8.47"/>
  </g>
  <g id="sh">
   <path id="sh-" class="land coast sh" d="m1220.3 908.36c0.3-0.49 0.4-0.99 0.1-1.51-0.6 0.41-0.6 1.03-0.1 1.51"/>
   <path id="sh." class="circle sh" d="m1220.3 912.28c6.2 0 6.2-9.36 0-9.36-6.3 0-6.3 9.36 0 9.36"/>
  </g>
 </g>
</svg>
