<?xml version="1.0" encoding="UTF-8" standalone="no"?>
<!-- Created with Inkscape (http://www.inkscape.org/) -->
<svg
   xmlns:dc="http://purl.org/dc/elements/1.1/"
   xmlns:cc="http://creativecommons.org/ns#"
   xmlns:rdf="http://www.w3.org/1999/02/22-rdf-syntax-ns#"
   xmlns:svg="http://www.w3.org/2000/svg"
   xmlns="http://www.w3.org/2000/svg"
   xmlns:xlink="http://www.w3.org/1999/xlink"
   xmlns:sodipodi="http://sodipodi.sourceforge.net/DTD/sodipodi-0.dtd"
   xmlns:inkscape="http://www.inkscape.org/namespaces/inkscape"
   width="100"
   height="100"
   id="svg36220"
   sodipodi:version="0.32"
   inkscape:version="0.46"
   version="1.0"
   inkscape:export-filename="/home/maurizio/out/wn.png"
   inkscape:export-xdpi="90"
   inkscape:export-ydpi="90"
   sodipodi:docbase="/home/maurizio/out"
   sodipodi:docname="wn.svg"
   inkscape:output_extension="org.inkscape.output.svg.inkscape">
  <defs
     id="defs36222">
    <inkscape:perspective
       sodipodi:type="inkscape:persp3d"
       inkscape:vp_x="0 : 437.5 : 1"
       inkscape:vp_y="0 : 1000 : 0"
       inkscape:vp_z="875 : 437.5 : 1"
       inkscape:persp3d-origin="437.5 : 291.66667 : 1"
       id="perspective3675" />
    <linearGradient
       id="linearGradient4060">
      <stop
         style="stop-color:#ffffff;stop-opacity:1;"
         offset="0"
         id="stop4062" />
      <stop
         style="stop-color:#000000;stop-opacity:1;"
         offset="1"
         id="stop4064" />
    </linearGradient>
    <linearGradient
       inkscape:collect="always"
       xlink:href="#linearGradient4060"
       id="linearGradient4264"
       gradientUnits="userSpaceOnUse"
       gradientTransform="matrix(0.2473084,3.5413438e-2,-3.5413438e-2,0.2473084,-41.87777,-56.131286)"
       x1="462.73083"
       y1="428.60229"
       x2="618.62885"
       y2="428.60229" />
    <linearGradient
       inkscape:collect="always"
       xlink:href="#linearGradient4060"
       id="linearGradient4266"
       gradientUnits="userSpaceOnUse"
       gradientTransform="matrix(0.232273,9.2004743e-2,-9.2004743e-2,0.232273,-4.7807697,-81.420526)"
       x1="522.39294"
       y1="485.50229"
       x2="618.62885"
       y2="469.00677" />
    <linearGradient
       inkscape:collect="always"
       xlink:href="#linearGradient4060"
       id="linearGradient4268"
       gradientUnits="userSpaceOnUse"
       gradientTransform="matrix(0.2498311,0,0,0.2498311,-64.40254,-66.991266)"
       x1="419.67706"
       y1="352.28876"
       x2="483.55563"
       y2="352.28876" />
    <linearGradient
       inkscape:collect="always"
       xlink:href="#linearGradient4060"
       id="linearGradient4274"
       gradientUnits="userSpaceOnUse"
       gradientTransform="matrix(0.2498311,0,0,0.2498311,-64.40254,-66.991266)"
       x1="462.73083"
       y1="428.60229"
       x2="618.62885"
       y2="428.60229" />
    <linearGradient
       inkscape:collect="always"
       xlink:href="#linearGradient4060"
       id="linearGradient4278"
       gradientUnits="userSpaceOnUse"
       gradientTransform="matrix(0.2498311,0,0,0.2498311,-64.40254,-66.991266)"
       x1="456.65414"
       y1="391.58966"
       x2="566.70068"
       y2="425.28772" />
    <linearGradient
       inkscape:collect="always"
       xlink:href="#linearGradient4060"
       id="linearGradient4280"
       gradientUnits="userSpaceOnUse"
       gradientTransform="matrix(0.2498311,0,0,0.2498311,-63.11452,-66.991266)"
       x1="280.6785"
       y1="392.55249"
       x2="406.05249"
       y2="444.0405" />
    <linearGradient
       inkscape:collect="always"
       xlink:href="#linearGradient4060"
       id="linearGradient4282"
       gradientUnits="userSpaceOnUse"
       gradientTransform="matrix(0.2498311,0,0,0.2498311,-63.11452,-66.991266)"
       x1="433.81351"
       y1="323.27167"
       x2="357.96667"
       y2="397.28345" />
    <linearGradient
       inkscape:collect="always"
       xlink:href="#linearGradient4060"
       id="linearGradient4284"
       gradientUnits="userSpaceOnUse"
       gradientTransform="matrix(0.2498311,0,0,0.2498311,-63.11452,-66.991266)"
       x1="377.70755"
       y1="413.54922"
       x2="474.78088"
       y2="505.35657" />
    <linearGradient
       inkscape:collect="always"
       xlink:href="#linearGradient4060"
       id="linearGradient4288"
       gradientUnits="userSpaceOnUse"
       gradientTransform="matrix(0.2498311,0,0,0.2498311,-60.36692,-52.309446)"
       x1="462.73083"
       y1="428.60229"
       x2="618.62885"
       y2="428.60229" />
    <linearGradient
       inkscape:collect="always"
       xlink:href="#linearGradient4060"
       id="linearGradient2242"
       x1="354.36316"
       y1="724.97058"
       x2="456.54602"
       y2="864.27307"
       gradientUnits="userSpaceOnUse"
       gradientTransform="matrix(0.1181438,0,0,0.1181438,4.3186903,-0.5560458)" />
    <linearGradient
       inkscape:collect="always"
       xlink:href="#linearGradient4060"
       id="linearGradient2244"
       x1="794.93005"
       y1="722.53284"
       x2="770.78296"
       y2="895.88794"
       gradientUnits="userSpaceOnUse"
       gradientTransform="matrix(0.1181438,0,0,0.1181438,1.3543703,-0.8480558)" />
    <linearGradient
       inkscape:collect="always"
       xlink:href="#linearGradient4060"
       id="linearGradient3120"
       gradientUnits="userSpaceOnUse"
       gradientTransform="matrix(0.2498311,0,0,0.2498311,-64.40254,-66.991266)"
       x1="462.73083"
       y1="428.60229"
       x2="618.62885"
       y2="428.60229" />
    <linearGradient
       inkscape:collect="always"
       xlink:href="#linearGradient4060"
       id="linearGradient3126"
       gradientUnits="userSpaceOnUse"
       gradientTransform="matrix(0.2498311,0,0,0.2498311,-64.40254,-66.991266)"
       x1="511.89685"
       y1="446.66107"
       x2="611.99969"
       y2="452.35666" />
    <linearGradient
       inkscape:collect="always"
       xlink:href="#linearGradient4060"
       id="linearGradient3132"
       gradientUnits="userSpaceOnUse"
       gradientTransform="matrix(0.2498311,0,0,0.2498311,-64.40254,-66.991266)"
       x1="522.39294"
       y1="485.50229"
       x2="618.62885"
       y2="469.00677" />
    <linearGradient
       inkscape:collect="always"
       xlink:href="#linearGradient4060"
       id="linearGradient3138"
       gradientUnits="userSpaceOnUse"
       gradientTransform="matrix(0.24246,6.0238459e-2,-6.0238459e-2,0.24246,-26.55511,-82.914846)"
       x1="522.39294"
       y1="485.50229"
       x2="618.62885"
       y2="469.00677" />
  </defs>
  <sodipodi:namedview
     id="base"
     pagecolor="#ffffff"
     bordercolor="#666666"
     borderopacity="1.0"
     inkscape:pageopacity="0.0"
     inkscape:pageshadow="2"
     inkscape:zoom="0.31"
     inkscape:cx="-118.95161"
     inkscape:cy="267.51443"
     inkscape:current-layer="layer1"
     inkscape:document-units="px"
     inkscape:window-width="1059"
     inkscape:window-height="817"
     inkscape:window-x="135"
     inkscape:window-y="127"
     showgrid="false" />
  <metadata
     id="metadata36225">
    <rdf:RDF>
      <cc:Work
         rdf:about="">
        <dc:format>image/svg+xml</dc:format>
        <dc:type
           rdf:resource="http://purl.org/dc/dcmitype/StillImage" />
        <dc:publisher>
          <cc:Agent>
            <dc:title />
          </cc:Agent>
        </dc:publisher>
        <dc:creator>
          <cc:Agent>
            <dc:title>Maurizio Monge</dc:title>
          </cc:Agent>
        </dc:creator>
        <cc:license
           rdf:resource="http://creativecommons.org/licenses/GPL/2.0/" />
      </cc:Work>
      <cc:License
         rdf:about="http://creativecommons.org/licenses/GPL/2.0/">
        <cc:permits
           rdf:resource="http://web.resource.org/cc/Reproduction" />
        <cc:permits
           rdf:resource="http://web.resource.org/cc/Distribution" />
        <cc:requires
           rdf:resource="http://web.resource.org/cc/Notice" />
        <cc:permits
           rdf:resource="http://web.resource.org/cc/DerivativeWorks" />
        <cc:requires
           rdf:resource="http://web.resource.org/cc/ShareAlike" />
        <cc:requires
           rdf:resource="http://web.resource.org/cc/SourceCode" />
      </cc:License>
    </rdf:RDF>
  </metadata>
  <g
     id="layer1"
     inkscape:label="Layer 1"
     inkscape:groupmode="layer">
    <path
       style="fill:none;fill-opacity:0.75;fill-rule:evenodd;stroke:#000000;stroke-width:1.03041506;stroke-linecap:round;stroke-linejoin:round;stroke-miterlimit:4;stroke-dasharray:none;stroke-opacity:1"
       d="M 15.35052,56.777574 C 15.98066,57.859824 16.28949,58.466534 17.84346,58.855024 C 18.75106,59.081924 18.46669,57.368564 18.46669,56.362084 C 18.46669,54.787484 18.82872,54.622984 19.92091,54.076894 C 20.97176,53.551464 21.57045,55.298544 21.79061,55.738854 C 22.3136,56.784834 23.73184,56.290564 24.28355,55.738854 C 25.03019,54.992214 24.90678,54.075704 24.90678,52.830424 C 24.90678,52.430664 23.86806,52.010894 23.86806,50.752974 C 23.86806,50.443824 26.29959,50.545234 26.77649,50.545234 C 26.95434,50.545234 28.55061,52.734844 28.64619,52.830424 C 29.45902,53.643254 30.53466,53.208384 30.93139,52.414934 C 31.45449,51.368724 30.1696,50.683694 29.47717,50.337484 C 28.7959,49.996844 28.77985,48.379164 28.64619,47.844544 C 28.40867,46.894464 30.71486,47.756184 31.55462,48.260034 C 32.81571,49.016684 32.20375,49.915524 33.83982,49.506504 C 35.1054,49.190104 34.58396,47.835194 34.25531,47.013564 C 34.03708,46.468004 33.27162,46.292654 33.00884,45.767094"
       id="path2701" />
    <path
       style="fill:url(#linearGradient2242);fill-opacity:1;fill-rule:evenodd;stroke:#000000;stroke-width:2.06083012;stroke-linecap:butt;stroke-linejoin:miter;stroke-miterlimit:4;stroke-dasharray:none;stroke-opacity:1"
       d="M 55.79028,84.494794 C 52.12082,87.015364 57.2662,91.347224 53.76031,94.102094 C 50.20722,97.337234 52.48213,96.566414 48.05603,97.467244 C 44.99432,98.286524 34.75884,98.641604 37.80247,96.472344 C 41.83589,93.585494 43.45187,88.865084 46.76657,85.418544 C 48.80086,83.913244 57.39219,76.665704 55.79028,84.494794 z"
       id="path1343"
       sodipodi:nodetypes="cccccc" />
    <path
       style="fill:url(#linearGradient4264);fill-opacity:1;fill-rule:evenodd;stroke:#000000;stroke-width:2.06083012;stroke-linecap:round;stroke-linejoin:round;stroke-miterlimit:4;stroke-dasharray:none;stroke-opacity:1"
       d="M 76.33824,81.245484 C 76.41985,80.219484 77.23264,79.225364 76.77256,78.186034 C 76.33404,77.402044 75.9897,76.299624 76.64479,75.532814 C 77.74894,74.349844 79.43267,74.125484 80.83567,73.458764 C 81.62343,73.171534 82.41969,72.906414 83.22778,72.682094 C 84.15883,72.905824 84.47145,74.005954 84.35488,74.851404 C 84.27478,76.865194 83.97792,78.882824 84.19538,80.896524 C 84.26194,82.202984 84.10453,83.523454 84.38509,84.813604 C 84.503,85.521514 84.62868,86.315474 84.15309,86.930164 C 83.63278,87.757524 82.52915,88.136584 81.62431,87.736564 C 80.58509,87.402834 80.04598,86.383724 79.25302,85.722484 C 78.37036,85.013954 77.17438,84.669004 76.49966,83.724154 C 76.10823,82.953324 76.32019,82.066764 76.33824,81.245484 z"
       id="path4260" />
    <path
       style="fill:url(#linearGradient4266);fill-opacity:1;fill-rule:evenodd;stroke:#000000;stroke-width:2.06083012;stroke-linecap:round;stroke-linejoin:round;stroke-miterlimit:4;stroke-dasharray:none;stroke-opacity:1"
       d="M 77.14671,82.415724 C 78.07418,81.682484 76.26084,81.835864 77.93639,81.519804 C 79.61194,81.203744 81.45127,81.967374 82.40506,83.383764 C 82.86967,83.939684 83.34412,84.694504 84.11606,84.792644 C 85.57169,84.730134 85.4333,82.973174 86.08579,82.142274 C 86.92498,81.507184 87.61132,82.481164 87.3291,83.283254 C 87.24459,84.382834 87.60877,85.405294 88.08765,86.359674 C 88.34642,87.419964 88.22085,88.589574 88.84047,89.543494 C 89.92317,91.810464 89.8582,94.382034 89.77342,96.831784 C 88.72762,97.028494 89.06792,95.324804 88.69612,94.683804 C 88.47054,93.368534 88.65798,91.979564 88.26696,90.702424 C 87.4983,89.755114 86.40888,91.203534 86.9605,92.009284 C 86.87203,93.097824 86.23899,94.222764 85.50699,94.955944 C 85.527,94.223904 85.23194,93.181594 84.26906,93.358914 C 82.98782,93.698484 84.35014,95.260524 83.29497,95.722374 C 82.35178,95.801144 81.94307,94.583484 81.57329,93.886114 C 81.02796,92.443004 80.89151,90.883594 80.33106,89.442994 C 79.74044,87.863504 79.42262,86.028304 78.07603,84.885444 C 77.27048,84.477354 76.21925,83.148964 77.14671,82.415724 z"
       id="path4262"
       sodipodi:nodetypes="ccccccccccccccccccc" />
    <path
       id="path4241"
       d="M 76.1285,66.923124 C 76.06384,65.895924 76.72752,64.796624 76.12475,63.833004 C 75.57953,63.119094 75.0824,62.076614 75.62218,61.224684 C 76.5475,59.897154 78.18242,59.436394 79.47675,58.577524 C 80.21584,58.181534 80.96648,57.806224 81.73461,57.469614 C 82.68797,57.559114 83.15338,58.603824 83.15783,59.457264 C 83.36399,61.462074 83.35612,63.501404 83.85683,65.463944 C 84.10791,66.747784 84.13926,68.077234 84.59987,69.314594 C 84.81694,69.998624 85.05389,70.766764 84.67023,71.442664 C 84.27246,72.335424 83.2337,72.867094 82.28129,72.599374 C 81.20526,72.416314 80.52714,71.483924 79.64845,70.941754 C 78.67428,70.365504 77.44147,70.193564 76.63963,69.353894 C 76.14289,68.646334 76.22704,67.738674 76.1285,66.923124 z"
       style="fill:url(#linearGradient4288);fill-opacity:1;fill-rule:evenodd;stroke:#000000;stroke-width:2.06083012;stroke-linecap:round;stroke-linejoin:round;stroke-miterlimit:4;stroke-dasharray:none;stroke-opacity:1" />
    <path
       style="fill:url(#linearGradient3138);fill-opacity:1;fill-rule:evenodd;stroke:#000000;stroke-width:2.06083012;stroke-linecap:round;stroke-linejoin:round;stroke-miterlimit:4;stroke-dasharray:none;stroke-opacity:1"
       d="M 76.47016,68.545444 C 76.93963,68.236564 76.1275,67.526844 77.03618,67.578774 C 78.8948,66.906454 81.03524,67.698164 82.23342,69.214784 C 82.87068,70.097064 84.44091,70.286324 84.75666,69.018234 C 84.99609,68.248104 85.03191,66.289174 86.29698,66.983484 C 87.03396,67.600054 86.5024,68.605404 86.95265,69.359064 C 87.37826,70.350904 88.07495,71.228674 88.22372,72.327774 C 88.39568,73.364924 89.12888,74.127754 89.56526,75.043564 C 90.4723,76.948664 90.69875,79.076864 90.90498,81.150704 C 89.83367,81.187544 89.89699,79.839334 89.60494,79.117134 C 89.12345,78.043194 89.19275,76.801204 88.76572,75.699694 C 88.42546,74.299924 86.74579,75.616734 87.31128,76.637244 C 87.81339,77.569744 86.8536,79.466184 86.42336,79.691064 C 86.55697,78.601044 84.62049,77.751374 84.52831,79.143264 C 84.69497,79.820124 84.82412,81.351714 83.68286,80.809464 C 82.33914,79.910194 81.92563,78.235924 81.33278,76.823654 C 80.76399,75.361564 80.02842,73.971844 79.2912,72.590224 C 78.78714,71.701114 78.03453,70.949204 77.0948,70.534724 C 76.49775,70.121564 75.80229,69.213114 76.47016,68.545444 z"
       id="path4243" />
    <path
       style="fill:url(#linearGradient4284);fill-opacity:1;fill-rule:evenodd;stroke:#000000;stroke-width:2.06083012;stroke-linecap:round;stroke-linejoin:round;stroke-miterlimit:4;stroke-dasharray:none;stroke-opacity:1"
       d="M 44.6142,23.228364 C 46.54011,25.920964 60.35913,43.538204 51.57306,52.091884 C 47.63676,56.158574 42.62354,57.636084 36.92195,57.226074 C 31.83032,59.132024 13.36964,70.232324 7.6192203,73.006974 C 5.4341803,73.312824 1.7195303,72.163804 1.9768103,70.494184 C 4.5560303,69.151074 6.9583803,69.236764 8.5567103,67.324364 C 11.9537,66.533664 15.40942,64.286974 16.8538,59.627074 C 20.06876,58.836034 31.43785,51.302364 35.01726,47.922754 C 36.73216,45.926484 39.79434,43.808504 40.99732,41.438964 C 42.25506,38.514274 41.57807,30.661854 40.49937,27.122534 C 44.72065,32.320264 40.00154,19.120284 44.6142,23.228364 z"
       id="path1404"
       sodipodi:nodetypes="ccccccccccc" />
    <path
       style="fill:url(#linearGradient4282);fill-opacity:1;fill-rule:evenodd;stroke:#000000;stroke-width:2.06083012;stroke-linecap:round;stroke-linejoin:round;stroke-miterlimit:4;stroke-dasharray:none;stroke-opacity:1"
       d="M 41.70185,8.7896042 C 43.61495,8.5653742 46.08009,10.064544 45.31951,12.220584 C 45.01383,14.090104 43.61965,15.680644 41.79558,16.195164 C 39.7798,17.266704 37.26643,16.814614 35.31483,17.921394 C 33.72138,19.965714 37.45795,25.348984 39.06377,25.189974 C 38.70193,28.288584 38.54574,38.345744 38.28716,39.745014 C 37.75417,41.938004 31.54143,46.469504 28.79083,48.429524 C 27.29806,50.425634 24.25403,50.976384 22.82005,48.599374 C 21.34149,46.971154 23.32581,34.191334 24.82134,30.168724 C 25.64421,27.884664 28.96912,15.615954 31.75108,12.815394 C 32.70453,12.177014 39.38831,8.9542942 41.70185,8.7896042 z"
       id="path3182"
       sodipodi:nodetypes="ccccccccccc" />
    <path
       style="fill:url(#linearGradient4280);fill-opacity:1;fill-rule:evenodd;stroke:#000000;stroke-width:2.06083012;stroke-linecap:round;stroke-linejoin:round;stroke-miterlimit:4;stroke-dasharray:none;stroke-opacity:1"
       d="M 34.61775,10.608444 C 34.10535,9.9443242 26.79647,15.568444 24.91195,17.818624 C 21.4535,22.129754 16.96332,27.832244 15.12169,31.262674 C 13.13322,33.250974 4.2950903,43.899364 1.2247603,53.825554 C 2.2192703,53.226014 6.9108403,48.082094 8.3605703,47.384594 C 10.1651,45.539504 6.1503003,55.085384 4.4492203,57.690134 C 2.6804203,58.704724 2.4855103,60.777904 1.8025703,62.694564 C 1.2399703,64.575254 0.50887025,66.533614 1.5761603,68.300154 C 3.6146903,67.472544 5.6294003,65.258264 8.2279103,64.849354 C 9.0556303,62.583644 9.6864103,58.080754 13.57586,57.635484 C 17.41689,57.057644 20.89073,55.101114 23.72526,52.490514 C 25.68424,50.410264 34.53143,44.572654 34.43677,43.996254 C 31.20828,44.771574 27.70207,46.549524 24.27957,46.143244 C 25.8876,43.875514 34.34248,35.081324 35.95918,32.176114 C 36.84875,29.478384 37.90833,26.830494 39.15234,24.267394 C 40.08093,22.013304 42.43927,20.205804 39.30293,17.332064 C 38.2886,16.813144 38.09146,19.304724 37.13807,20.652654 C 35.45951,23.320424 30.08146,23.290044 29.24874,19.888544 C 28.31596,16.069794 34.95731,11.048544 34.61775,10.608444 z"
       id="path2295"
       sodipodi:nodetypes="ccccccccccccccccccs" />
    <path
       style="fill:url(#linearGradient4278);fill-opacity:1;fill-rule:evenodd;stroke:#000000;stroke-width:2.06083012;stroke-linecap:round;stroke-linejoin:round;stroke-miterlimit:4;stroke-dasharray:none;stroke-opacity:1"
       d="M 54.28913,14.839624 C 55.10563,16.383704 56.67844,17.420094 58.34799,17.834104 C 59.76127,18.828864 58.1638,20.796024 59.28218,21.942834 C 60.38822,23.084604 61.17122,24.530784 61.47388,26.088574 C 62.25844,27.822444 63.13119,29.556484 63.36947,31.469394 C 64.00489,33.440714 65.89801,34.552364 67.21227,36.038014 C 68.05178,36.967844 69.0376,37.880864 69.44554,39.090134 C 69.84043,40.375274 68.54604,40.845304 67.54982,40.668094 C 66.81722,41.181084 67.70724,43.699934 66.22084,42.851634 C 64.947,41.813664 64.58423,40.085254 64.76934,38.524724 C 64.66306,36.628024 63.52619,35.018654 62.87272,33.289614 C 61.67122,31.350334 59.8782,29.713994 57.69549,28.972814 C 56.31181,28.445544 54.94193,27.634604 54.28123,26.247574 C 53.3096,24.826444 52.44457,23.262664 52.35929,21.501814 C 52.03045,19.286544 52.11995,16.813564 53.55964,14.981054 C 53.75346,14.801254 54.0439,14.769954 54.28913,14.839624 z"
       id="path4100" />
    <path
       style="fill:url(#linearGradient3120);fill-opacity:1;fill-rule:evenodd;stroke:#000000;stroke-width:2.06083012;stroke-linecap:round;stroke-linejoin:round;stroke-miterlimit:4;stroke-dasharray:none;stroke-opacity:1"
       d="M 62.98399,25.466664 C 64.04666,24.690104 65.37783,25.392044 66.55509,25.150384 C 68.19315,24.993584 70.03919,24.897704 71.42001,25.956424 C 72.65397,27.277424 73.52387,28.934774 73.87654,30.708964 C 74.30714,32.010654 75.28464,33.008674 76.08866,34.079074 C 76.57471,34.915944 76.81939,36.133224 76.11459,36.915664 C 75.30558,37.512644 74.3553,36.715324 73.93515,36.015304 C 73.2961,35.184014 72.74334,34.070074 71.84251,33.567894 C 70.93004,33.935364 72.12728,35.125214 71.8002,35.869604 C 71.7828,36.819214 72.07599,37.752664 72.53188,38.578264 C 72.81774,39.475814 72.20122,40.874694 71.10852,40.635304 C 70.18986,40.340094 70.15399,39.240914 69.98301,38.448514 C 69.57933,37.090684 67.9176,36.775214 67.23759,35.607734 C 65.57357,32.971374 63.70044,30.305334 63.16148,27.169544 C 63.08007,26.604414 63.04351,26.034224 62.98399,25.466664 z"
       id="path4102" />
    <path
       style="fill:url(#linearGradient4274);fill-opacity:1;fill-rule:evenodd;stroke:#000000;stroke-width:2.06083012;stroke-linecap:round;stroke-linejoin:round;stroke-miterlimit:4;stroke-dasharray:none;stroke-opacity:1"
       d="M 72.09287,52.241294 C 72.02822,51.214094 72.69189,50.114794 72.08912,49.151174 C 71.5439,48.437264 71.04677,47.394784 71.58656,46.542854 C 72.51187,45.215324 74.1468,44.754564 75.44113,43.895694 C 76.18022,43.499704 76.93086,43.124394 77.69899,42.787784 C 78.65235,42.877284 79.11775,43.921994 79.1222,44.775434 C 79.32836,46.780244 79.3205,48.819574 79.8212,50.782114 C 80.07228,52.065954 80.10364,53.395404 80.56424,54.632764 C 80.78131,55.316804 81.01826,56.084934 80.63461,56.760834 C 80.23684,57.653594 79.19807,58.185264 78.24567,57.917544 C 77.16963,57.734484 76.49151,56.802094 75.61283,56.259924 C 74.63865,55.683674 73.40585,55.511734 72.60401,54.672064 C 72.10727,53.964504 72.19142,53.056854 72.09287,52.241294 z"
       id="path4106" />
    <path
       style="fill:url(#linearGradient3132);fill-opacity:1;fill-rule:evenodd;stroke:#000000;stroke-width:2.06083012;stroke-linecap:round;stroke-linejoin:round;stroke-miterlimit:4;stroke-dasharray:none;stroke-opacity:1"
       d="M 72.10267,55.159244 C 72.48381,54.746274 71.52451,54.253314 72.41891,54.084614 C 74.06058,52.983984 76.32876,53.236244 77.85728,54.419214 C 78.68847,55.121814 80.25801,54.926884 80.25868,53.620064 C 80.30535,52.814934 79.86779,50.905164 81.26294,51.273964 C 82.12684,51.694634 81.85338,52.798494 82.47206,53.421354 C 83.12426,54.281314 84.01204,54.965204 84.42144,55.996004 C 84.8384,56.961094 85.73389,57.524624 86.37822,58.308194 C 87.71785,59.938384 88.45076,61.949194 89.15094,63.912124 C 88.12013,64.206194 87.8565,62.882484 87.39893,62.252014 C 86.67271,61.325854 86.4405,60.103794 85.76047,59.137754 C 85.09274,57.861324 83.78014,59.544284 84.57501,60.398324 C 85.28713,61.182254 84.81293,63.254154 84.4496,63.576134 C 84.31645,62.486074 82.23223,62.128374 82.47838,63.501424 C 82.80333,64.118134 83.29796,65.573394 82.05962,65.322324 C 80.53872,64.773584 79.73371,63.248404 78.81784,62.020754 C 77.9133,60.738944 76.86435,59.567584 75.81574,58.404484 C 75.11217,57.663144 74.20047,57.114894 73.18853,56.939214 C 72.50947,56.682204 71.6155,55.968244 72.10267,55.159244 z"
       id="path4108" />
    <path
       style="fill:url(#linearGradient3126);fill-opacity:1;fill-rule:evenodd;stroke:#000000;stroke-width:2.06083012;stroke-linecap:round;stroke-linejoin:round;stroke-miterlimit:4;stroke-dasharray:none;stroke-opacity:1"
       d="M 81.33979,45.754654 C 82.52487,46.310394 82.58332,47.966444 83.80914,48.480714 C 84.5513,49.018994 85.12424,50.196174 84.50313,51.019184 C 83.70242,51.897214 82.45752,50.775724 82.39013,49.843714 C 82.23348,48.383214 80.6123,47.900824 79.8556,46.824524 C 79.57952,46.473544 79.48292,45.574154 78.89933,45.746034 C 79.23438,46.571564 79.90323,47.799634 78.97646,48.500404 C 77.71486,48.838834 77.36856,47.271734 76.62091,46.667444 C 75.60845,45.976374 74.33516,47.367884 75.48419,48.148434 C 76.146,48.457094 76.31084,50.025194 75.33981,49.517144 C 74.39427,48.922274 73.96155,47.732884 72.87641,47.313254 C 71.6641,46.709964 70.14725,46.498684 69.32777,45.302404 C 68.58138,44.394444 67.8276,43.475574 67.24961,42.451044 C 67.00436,41.230324 68.5622,41.179074 69.35322,41.522884 C 70.26964,41.720314 71.40715,42.108044 72.19658,41.390854 C 73.01888,40.430864 72.23185,38.839184 73.31895,38.024794 C 74.48829,37.321204 75.21717,38.752284 75.89716,39.411024 C 76.83534,39.950424 78.19501,39.777824 78.8102,40.826754 C 79.34169,41.815994 79.83159,42.833364 80.52697,43.724734 C 80.88755,44.340054 81.53579,44.984144 81.33979,45.754654 z"
       id="path4104" />
    <path
       style="fill:url(#linearGradient4268);fill-opacity:1;fill-rule:evenodd;stroke:#000000;stroke-width:2.06083012;stroke-linecap:round;stroke-linejoin:round;stroke-miterlimit:4;stroke-dasharray:none;stroke-opacity:1"
       d="M 47.80249,14.977634 C 46.70328,14.085084 44.96723,13.786264 43.78869,14.696144 C 41.74522,15.451644 40.51048,18.798384 42.33063,19.919744 C 43.18,20.738764 45.52989,20.973024 46.39218,20.414374 C 48.40885,20.967134 49.41024,22.485584 50.40521,22.719164 C 51.5088,23.347634 51.81434,24.681134 52.40547,25.715364 C 52.85202,26.574894 53.33806,27.536064 54.2203,28.008814 C 55.26369,28.245524 56.07768,27.200444 55.33977,26.569624 C 54.38005,25.684994 54.33421,18.154074 54.10857,15.561234 C 54.06523,14.521744 52.13785,13.628104 51.65323,14.533394 C 50.78463,15.442594 50.34625,20.110224 50.56648,18.756224 C 50.21812,17.622444 48.73204,15.802984 47.80249,14.977634 z"
       id="path4084"
       sodipodi:nodetypes="cccccccccccc" />
    <path
       style="fill:url(#linearGradient2244);fill-opacity:1;fill-rule:evenodd;stroke:#000000;stroke-width:2.06083012;stroke-linecap:butt;stroke-linejoin:miter;stroke-miterlimit:4;stroke-dasharray:none;stroke-opacity:1"
       d="M 83.27772,90.670414 C 74.96641,86.098444 69.25476,83.354304 61.42843,79.017914 C 56.88533,76.990144 56.19483,84.827414 57.8896,88.393134 C 59.6927,92.186764 52.28522,93.712044 57.74388,97.395514 C 62.90839,98.528534 75.37779,98.890734 84.33868,98.851544 C 89.73677,99.947374 107.16486,93.164994 94.38545,88.794124 C 90.42863,87.835874 87.29588,91.947934 83.27772,90.670414 z"
       id="path1341"
       sodipodi:nodetypes="ccscccc" />
    <path
       style="fill:#000000;fill-opacity:1;fill-rule:evenodd;stroke:#000000;stroke-width:0.12880188px;stroke-linecap:butt;stroke-linejoin:miter;stroke-opacity:1"
       d="M 27.39972,27.901024 C 26.8766,29.078064 27.88318,30.046454 28.43845,30.601714 C 28.96143,31.124694 30.07854,31.427224 30.93139,31.640434 C 31.83729,31.866914 32.85065,31.382834 33.78996,31.382834 C 35.02422,31.382834 35.29403,29.562344 35.29403,28.524264 C 35.29403,27.537294 33.94259,26.652364 33.63207,26.031324 C 33.26616,25.299494 31.27786,25.380614 30.83167,24.934434 C 30.51813,24.620894 28.31653,25.838204 27.39972,27.901024 z"
       id="path2699"
       sodipodi:nodetypes="csssssss" />
  </g>
</svg>
