<?xml version="1.0" encoding="UTF-8" standalone="no"?>
<svg id="svg2" xmlns:rdf="http://www.w3.org/1999/02/22-rdf-syntax-ns#" xmlns="http://www.w3.org/2000/svg" height="100%" width="100%" version="1.1" xmlns:cc="http://creativecommons.org/ns#" xmlns:dc="http://purl.org/dc/elements/1.1/" viewBox="0 -100 1000 1000">
 <metadata id="metadata12">
  <rdf:RDF>
   <cc:Work rdf:about="">
    <dc:format>image/svg+xml</dc:format>
    <dc:type rdf:resource="http://purl.org/dc/dcmitype/StillImage"/>
   </cc:Work>
  </rdf:RDF>
 </metadata>
 <g id="g4" transform="matrix(1,0,0,-1,0,840)">
  <path id="path6" fill="currentColor" d="m205 0v27l3 31q3 30 16 54.5t47 27.5l35 3 38 4 72 7 85 3q22 0 49.5-1t57.5-4q34 0 71-5t63-8 39-34q3-8 8-26t5-39l1-19v-21h-590zm543 269 4-14 3-15 2-13q0-8-5-15.5t-20-15.5l-124 12-107 5-92-3-77-7-31-4-30-3q-12 7-20 18-3 6-5 21l1 10q0 7 2 11l1 6 2 5 3 16 2 15q0 15-8 24-6 11-18 21l-14 12-16 14q-19 17-38 44-17 28-17 72 0 69 46 118.5t110 49.5q56 0 91-21 31-18 53-45l2-3q16-19 24.5-37t16.5-26l6-6 6-1 4 1 5 5 14 26q7 17 22 38l2 3q20 25 56 45.5t103 20.5q63 0 105.5-45.5t42.5-122.5q0-38-17.5-64.5t-36.5-47.5l-12-12-11-12-22-31q-9-15-9-33zm-402 157 3-6 8-15 12-14 12-17q6-8 9-17l1-5 1-4v-5l1-4 3-16q3-6 10-6 5 0 10 6l3 15v12q0 7-2 11l-3 11-6 13-6 13-9 21-6 22-2 6-8 10q-3 3-12 5-5 0-11-6l-6-13q-1-5-2-6v-11zm307 11-1 6-7 13q-3 6-10 6t-13-5l-7-10-2-4-7-22-8-20-7-15-5-14-4-11-1-11v-12l3-15q3-6 10-6 6 0 9 7l4 15 1 6v7l2 5 9 17 12 17 11 14 9 15 2 6 1 6zm-102 353q19-17 19-47 0-16-10-45l-22-61q-2-8-5-12l-4-11-16-37-13-30-14 31q-5 16-8 22-6 11-8 15l-4 11-5 11-21 58q-9 27-9 43v6l1 6q3 21 20.5 39t47.5 18q33 0 51-17z"/>
 </g>
</svg>
