<?xml version="1.0" encoding="UTF-8" standalone="no"?>
<svg id="svg2" xmlns:rdf="http://www.w3.org/1999/02/22-rdf-syntax-ns#" xmlns="http://www.w3.org/2000/svg" height="100%" width="100%" version="1.1" xmlns:cc="http://creativecommons.org/ns#" xmlns:dc="http://purl.org/dc/elements/1.1/" viewBox="0 -100 1000 1000">
 <metadata id="metadata12">
  <rdf:RDF>
   <cc:Work rdf:about="">
    <dc:format>image/svg+xml</dc:format>
    <dc:type rdf:resource="http://purl.org/dc/dcmitype/StillImage"/>
   </cc:Work>
  </rdf:RDF>
 </metadata>
 <g id="g4" transform="matrix(1,0,0,-1,0,840)">
  <path id="path6" fill="currentColor" d="m244 0v27l3 31q3 30 16 54.5t47 27.5l35 3 38 4 72 7 85 3q22 0 49.5-1t57.5-4q34 0 71-5t63-8 39-34q3-8 8-26t5-39l1-19v-21h-590zm176 393q-20-9-33-14-3-1-37-12l-2-1-21-6-20-7q-7-2-17-12l-11-17-2-3-1-3-13-18q-6-6-17-7l-11 1-11 2q-20 6-39 21t-19 33q0 43 22 81 21 40 50 67 12 12 24 28 6 8 14 20 16 29 16 62 0 12 5 20l15 17 13 10 14 13 19 21q8 11 16 30l3 11 3 12v2l7 27q5 12 19 12l19-19 19-21 3-5 4-5q18-24 40.5-44t54.5-20q12 0 46-11.5t71-40.5q45-35 86-105 20-34 30-77.5t10-100.5v-31q0-12 2-18v-64q0-25-17-25h-8l-5 1-118 12-102 4-84-3-72-7-38-4-35-3q-7 0-10 2-3 3-3 8l3 11 9 14 12 12 14 12 3 2 3 3 33 15q14 5 21 8t22 11q33 15 60 39t27 64l-1 9-1 11q-2 7-3 11l-5 12.5t-8 11.5h-3l-3-2-3-3q-24-40-59-54z"/>
 </g>
</svg>
