<?xml version="1.0" encoding="UTF-8" standalone="no"?>
<svg id="svg2" xmlns:rdf="http://www.w3.org/1999/02/22-rdf-syntax-ns#" xmlns="http://www.w3.org/2000/svg" height="100%" width="100%" version="1.1" xmlns:cc="http://creativecommons.org/ns#" xmlns:dc="http://purl.org/dc/elements/1.1/" viewBox="0 -100 1000 1000">
 <metadata id="metadata12">
  <rdf:RDF>
   <cc:Work rdf:about="">
    <dc:format>image/svg+xml</dc:format>
    <dc:type rdf:resource="http://purl.org/dc/dcmitype/StillImage"/>
   </cc:Work>
  </rdf:RDF>
 </metadata>
 <g id="g4" transform="matrix(1,0,0,-1,0,840)">
  <path id="path6" fill="currentColor" d="m199 0v27l3 31q3 30 16 54.5t47 27.5l35 3 40 4 74 7 86 3q23 0 49-1t55-4q32 0 69-5t63-8 39-34q3-8 8-26t5-39l1-19v-21h-590zm119 431q25 7 76 13t106 6q53 0 104-5.5t83-13.5l34-235-119 12q-23 0-59.5 2.5t-42.5 2.5l-87-3-72-7-34-4-27-3zm101 169 19 112h7l8 2 23 2 24 1 20-1 20-1 10-2 10-1 17-112h52l34 97 20-3 21-3 20-6 21-9-6-98q-3-29-15.5-51.5t-36.5-40.5l-26 3-26 4-61 7-74 4q-19 0-40.5-1t-43.5-4q-18 0-41.5-3.5t-56.5-9.5q-27 14-38.5 34t-16.5 46l-10 110 22 9 25 7 19 3 18 2 34-97h48z"/>
 </g>
</svg>
