<?xml version="1.0" encoding="UTF-8" standalone="no"?>
<svg id="svg2" xmlns:rdf="http://www.w3.org/1999/02/22-rdf-syntax-ns#" xmlns="http://www.w3.org/2000/svg" height="100%" width="100%" version="1.1" xmlns:cc="http://creativecommons.org/ns#" xmlns:dc="http://purl.org/dc/elements/1.1/" viewBox="0 -100 1000 1000">
 <metadata id="metadata12">
  <rdf:RDF>
   <cc:Work rdf:about="">
    <dc:format>image/svg+xml</dc:format>
    <dc:type rdf:resource="http://purl.org/dc/dcmitype/StillImage"/>
   </cc:Work>
  </rdf:RDF>
 </metadata>
 <g id="g4" transform="matrix(1,0,0,-1,0,840)">
  <path id="path6" fill="currentColor" d="m877 0h-291q-16 0-29 9t-23 22l-9 11-8 10-8 6q-3 3-9 3l-6-1-4-2q-5-3-13-12l-14-15q-10-12-26.5-21.5t-44.5-9.5h-269l-42 200h273l12 1q3 1 5 6 0 8-15 22l-32 37q-19 24-33 57t-14 80q0 59 21 101.5t48 74 48.5 49.5 22.5 25l-2 9-3 14-4 17-1 23q0 33 29 60.5t64 27.5h10q29-3 55.5-31t26.5-68l-1-14q0-8-2-12l-4-11-6-12 20-17 19-17q52-47 78.5-98t26.5-122q0-38-14.5-70.5t-32.5-56.5l-33-42q-12-15-14-26 4-6 6-6l17-1h267zm-44 129h-217q-26 0-46 17.5t-20 42.5l1 10 3 11q6 16 19 35l28 37q6 8 17 25 8 12 18 29 16 30 16 65 0 64-24.5 115t-77.5 80q-26-55-32-110l-5-85v-14h-67v7q0 39 1.5 57.5t8.5 46.5q14 51 31 92l28 64q11 26 13 35v5q0 18-8 31-6 14-24 14h-5q-9-1-19-11t-10-25l1-19 4-17v-4l1-3 2-13 1-13q0-9-4-16l-11-14-22-19q-13-10-24-22-23-22-42.5-63t-19.5-112q0-33 15-59.5t35-50.5l18-24 17-23 10-21 4-22q0-30-18.5-44.5t-45.5-14.5h-216l12-58h226q17 0 29 9l20 22 3 3 18 19q9 9 25 9 10 0 21-9l20-18 3-4 22-22q11-9 24-9h230z"/>
 </g>
 <path id="path2989" fill="#f9f9f9" d="m180.89 764.79c-0.99671-1.7479-3.1177-10.805-4.7133-20.127s-3.8466-20.177-5.0021-24.121c-1.9326-6.597 7.5116-7.2764 117.81-8.4746 135.46-1.4716 142.36-2.9079 154.59-32.181 13.147-31.466 3.1474-58.489-45.022-121.66-39.262-51.493-46.874-70.231-46.798-115.2 0.13025-77.653 19.991-123.5 77.613-179.16 20.582-19.881 39.097-40.363 41.146-45.516 2.2331-5.6166 1.8295-23.536-1.0076-44.74-5.5167-41.231-3.0041-55.471 11.46-64.948 14.112-9.2468 29.967-4.7193 38.022 10.858 9.2395 17.867 8.0815 29.217-6.5634 64.329-53.998 129.46-63.241 160.8-66.377 225.02l-2.224 45.551h36.561 36.561v-32.95c0-63.394 14.865-141.67 31.128-163.91 5.7806-7.9054 6.3668-7.9258 17.53-0.61106 20.321 13.314 47.168 44.403 58.721 67.998 23.481 47.954 31.156 120.53 16.815 158.99-7.2195 19.363-35.451 64.039-65.515 103.68-22.164 29.222-30.86 56.09-25.091 77.516 4.9061 18.22 21.62 36.394 39.781 43.255 7.3539 2.7785 55.806 4.5069 126.34 4.5069 112.39 0 114.37 0.15 112.01 8.4746-2.505 8.8299-4.0692 15.302-8.4936 35.143l-2.6397 11.838-120.26-1.2448-120.26-1.2447-28.977-27.981c-43.991-42.48-55.356-43.15-91.122-5.3714-12.425 13.124-28.727 26.474-36.226 29.667-10.394 4.425-40.295 5.8045-125.81 5.8045-61.696 0-112.99-1.4301-113.99-3.178z"/>
</svg>
