<?xml version="1.0" encoding="UTF-8" standalone="no"?>
<svg id="svg2" xmlns:rdf="http://www.w3.org/1999/02/22-rdf-syntax-ns#" xmlns="http://www.w3.org/2000/svg" height="100%" width="100%" version="1.1" xmlns:cc="http://creativecommons.org/ns#" xmlns:dc="http://purl.org/dc/elements/1.1/" viewBox="0 -100 1000 1000">
 <metadata id="metadata12">
  <rdf:RDF>
   <cc:Work rdf:about="">
    <dc:format>image/svg+xml</dc:format>
    <dc:type rdf:resource="http://purl.org/dc/dcmitype/StillImage"/>
   </cc:Work>
  </rdf:RDF>
 </metadata>
 <g id="g4" transform="matrix(1,0,0,-1,0,840)">
  <path id="path6" fill="currentColor" d="m195 0q0 45 1.5 62t6.5 43q9 46 58 85 0 14-1 22.5t-6 18.5q-8 19-22 36l-18 20-19 23q-21 25-43 63-10 19-16.5 42t-6.5 49v13l1 13q8 57 47 103t99 46 96-26q37-24 62-56 21-27 37-57 13-24 25-25 7 0 19.5 25.5t36.5 56.5 62 56.5 100 25.5q81 0 119.5-53.5t38.5-129.5q0-42-20-76-11-19-20-32.5t-24-31.5l-30-39-23-36-8-21-3-21v-5l1-6q49-34 57.5-83t8.5-105h-616zm542 71q0 37-26.5 52t-72.5 24l-28 4-44 3h-15q-9 0-25 2l-28 1-27-1-45-3q-20 0-32-2l-26-3-8-1-5-1q-33-4-59.5-20t-26.5-55h468zm-260 329-17 16-22 29-24 36q-24 35-56 60-32 27-83 27-25 0-40-14t-25-34l-8-26-2-18q0-46 19-78.5t46-66.5l22-28 21-28 15-30q6-14 6-30 26 5 42.5 7.5t36.5 2.5l83 3 43-1 45-3q26 0 49-4 13 0 21-1t26-4q0 25 12 47.5t27 41.5l12 15 12 15q24 29 43.5 62.5t19.5 78.5q0 49-28 71t-73 22q-49 0-80-27t-52-60l-21-34-18-28q-6-11-15-17.5t-18-6.5q-10 0-19 5zm73 394q21-18 21-47 0-11-8-39.5t-22-58.5l-5-14-6-14-19-43-15-28q-7 9-15 26l-17 41-7 16-6 17-19 57q-1 5-4 20.5t-4 19.5q0 26 21 47 22 19 55 19 30 0 50-19zm-71-45-4-21q0-12 6-33l14-46 15 46q6 20 6 33 0 16-5 21-3 6-15 6-11 0-17-6z"/>
 </g>
 <path id="path2989" fill="#f9f9f9" d="m330.47 615.28c-0.0772-14.746-21.104-53.248-47.977-87.852-61.919-79.731-78.706-112.63-78.962-154.74-0.1986-32.754 7.4743-53.808 27.77-76.198l17.796-19.633 33.292 0.29242c26.086 0.22912 37.378 2.4071 52.169 10.063 25.84 13.375 61.183 49.98 92.322 95.621 34.009 49.846 46.965 62.095 66.262 62.642 19.475 0.55203 30.915-10.138 57.965-54.166 56.486-91.939 95.903-120.48 159.43-115.43 65.557 5.206 94.576 44.155 85.205 114.36-4.3489 32.585-17.355 56.914-62.226 116.4-42.849 56.805-54.601 76.954-58.345 100.03-2.5051 15.44-3.2919 16.138-15.808 14.017-47.505-8.0502-170.76-12.029-237.75-7.6753-39.619 2.5751-76.324 5.9185-81.568 7.4298-7.4564 2.149-9.5429 1.0242-9.5753-5.1618z"/>
 <path id="path2991" fill="#f9f9f9" d="m485.39 151.1c-3.9803-14.729-6.6117-34.407-5.8474-43.729 1.1452-13.969 3.1066-17.193 11.157-18.334 14.236-2.0182 22.013 6.6205 22.013 24.454 0 15.342-10.772 54.029-16.962 60.914-1.7178 1.911-6.3799-8.5763-10.36-23.305z"/>
 <path id="path2993" fill="#f9f9f9" d="m272.67 753.58c6.1902-30.951 31.283-47.284 89.622-58.336 43.53-8.2466 224.05-9.1332 264.83-1.3007 68.518 13.16 105.93 35.016 105.93 61.885v10.446h-231.46-231.46l2.5388-12.694z"/>
</svg>
