<?xml version="1.0" encoding="UTF-8" standalone="no"?>
<svg id="svg2" xmlns:rdf="http://www.w3.org/1999/02/22-rdf-syntax-ns#" xmlns="http://www.w3.org/2000/svg" height="100%" width="100%" version="1.1" xmlns:cc="http://creativecommons.org/ns#" xmlns:dc="http://purl.org/dc/elements/1.1/" viewBox="0 -100 1000 1000">
 <metadata id="metadata12">
  <rdf:RDF>
   <cc:Work rdf:about="">
    <dc:format>image/svg+xml</dc:format>
    <dc:type rdf:resource="http://purl.org/dc/dcmitype/StillImage"/>
   </cc:Work>
  </rdf:RDF>
 </metadata>
 <g id="g4" transform="matrix(1,0,0,-1,0,840)">
  <path id="path6" fill="currentColor" d="m227 0v18l1 18q0 24 6.5 47.5t19.5 48.5q21 45 83 69 0 30 26 53l58 42 6 4 6 4 50 37q22 19 22 44l-3 15q-3 6-16 7l-9-3-7-7-8-10-7-10-12-14-15-11-18-8q-2-1-19-6l-32-10q-16-4-26.5-10.5t-12-17-2.5-11.5l-3-6q-8-8-28-19-19-8-40-8-39 0-62 29t-26 64v6q0 38 18 70 10 18 19 31.5t22 28.5l17 21 16 22q8 11 10 15 3 6 7.5 16t6.5 17.5 2 18.5q0 16 11 27l28 25 4 3 5 3 31 27q16 16 16 33l2 14q0 11 2.5 22t9 22 20.5 14q13-7 27-23l29-33q15-21 32.5-37.5t36.5-21.5q3-1 16.5-4.5t31.5-9.5q39-11 84.5-42.5t87.5-94 42-167.5q0-21-1-39t-4-34l-12-58-4-11-3-11q54-35 63-81t9-101v-17h-614zm540 71q0 33-27 48-13 8-27 13t-40 13l-3 1-21 5-18 3-46 3h-64l-39-1-52-3-22-3-20-4q-35-9-61-24.5t-26-50.5h466zm-93 433q-48 63-106 93-18 10-38 16t-39 6q-6 0-15 9l-17 20-2 2-19 24q-8 8-15 10l-4-2q-3-21-14-36t-24-26l-26-20q-10-7-13-16-10-35-22-60l-24-45q-17-26-32.5-44.5t-23.5-33.5l-8-16-2-15v-6l1-6q2-13 8-22t18-9l9 1 7 4 8 8 13 14 2 2 4 3 17 10 22 10 32 12 18 5q7 1 9 2l8 8 11 14 13 17 24 28q15 13 32 13h6q24 0 44-18t32-41l6-16 2-15q0-48-22.5-72.5t-50.5-42.5l-25-13q-14-5-21-11l-20-13q-5-5-7-16l44 5q27 3 76 3l82-3q12 0 23.5-0.5t42.5-4.5q12 19 20 61 2 13 3 40.5t1 43.5q0 74-48 139z"/>
 </g>
 <path id="path2989" fill="#f9f9f9" d="m434.54 611.72c1.3087-3.4105 19.74-15.508 40.958-26.884 50.147-26.885 89.637-63.878 96.64-90.531 8.5374-32.493 3.8929-66.881-12.19-90.257-19.307-28.062-42.44-42.599-68.397-42.982-25.457-0.37529-35.865 6.8022-69.111 47.66-20.046 24.635-27.879 31.095-42.373 34.938-31.49 8.35-85.152 36.269-100.18 52.12-8.0313 8.4715-17.904 15.403-21.938 15.403-11.116 0-24.9-20.371-24.9-36.799 0-18.219 6.9116-31.524 40.466-77.9 29.255-40.434 51.508-81.935 63.427-118.29 4.4216-13.486 13.12-28.396 20.72-35.517 44.193-41.408 54.057-52.773 58.409-67.298 2.6184-8.7394 6.132-15.89 7.808-15.89s15.601 14.026 30.944 31.17c26.604 29.726 28.935 31.291 50.307 33.782 77.405 9.0224 174.46 98.55 205.19 189.29 12.413 36.643 11.091 131.26-2.418 173.03l-10.052 31.085-29.869-2.9996c-40.068-4.0239-185.72-4.1044-213.56-0.11822-18.65 2.6709-21.88 2.1817-19.887-3.0121v0.00013z"/>
 <path id="path2991" fill="#f9f9f9" d="m306.74 751.86c3.6012-18.006 15.961-30.463 40.849-41.169 45.645-19.636 72.108-22.988 184.19-23.33 99.549-0.30383 107.97 0.28092 139.83 9.7046 58.571 17.327 91.102 38.916 91.102 60.459 0 7.6153-8.3524 7.9031-229.34 7.9031h-229.34l2.7135-13.567z"/>
</svg>
