<?xml version="1.0" encoding="UTF-8" standalone="no"?>
<svg id="svg2" xmlns:rdf="http://www.w3.org/1999/02/22-rdf-syntax-ns#" xmlns="http://www.w3.org/2000/svg" height="100%" width="100%" version="1.1" xmlns:cc="http://creativecommons.org/ns#" xmlns:dc="http://purl.org/dc/elements/1.1/" viewBox="0 -100 1000 1000">
 <metadata id="metadata12">
  <rdf:RDF>
   <cc:Work rdf:about="">
    <dc:format>image/svg+xml</dc:format>
    <dc:type rdf:resource="http://purl.org/dc/dcmitype/StillImage"/>
    <dc:title/>
   </cc:Work>
  </rdf:RDF>
 </metadata>
 <g id="g4" transform="matrix(1,0,0,-1,0,840)">
  <path id="path6" fill="currentColor" d="m240 0q0 71 26.5 125t78.5 91q12 8 15 23l4 32v9l1 18q0 9 4 16l9 14 14 14 2 2 18 20q9 9 9 22 0 10-7 21l-15 27-16 33q-6 18-6 37 0 47 37.5 81.5t86.5 34.5q48 0 85.5-34.5t37.5-81.5q0-17-6-36.5t-16-33.5l-15-27q-1-2-4-10.5t-3-10.5q0-13 8-22l19-20 2-2 14-14q7-6 9-14l4-18 1-23v-9q0-15 4-27.5t15-20.5q49-34 77-89 14-28 21-58t7-69h-521zm450 71q0 28-16 48t-37 36l-25 19-19 17q-5 5-8 13l-2 14v8l2 10v10l1 11q0 13-1.5 22.5t-9.5 22.5q-3 10-11 15l-14 14-1 1q-12 9-21 21t-9 33q0 11 2 16l6 13 4 7 4 8 12 26q6 15 6 42 0 25-14 38-4 3-13.5 8t-23.5 5q-25 0-39.5-13t-14.5-38q0-26 4.5-40.5t10.5-23.5l2-4 4-8 5-7 6-13 2-16q0-21-9-33l-20-21-2-2-14-13-10-15-10-26-2-22v-10l2-10v-9l1-8-3-14q-2-7-7-12l-19-17-25-19q-18-14-37-36-16-21-16-48h379z"/>
 </g>
 <path id="path2989" fill="#fff" d="m313.65 760.13c0.26727-15.212 18.358-41.977 42.415-62.751 14.683-12.68 34.92-30.866 44.971-40.415l18.275-17.361-0.51562-37.723c-0.42548-31.129 1.1638-41.264 9.0915-57.98 5.2839-11.141 12.948-22.596 17.032-25.457 4.0836-2.8602 14.334-13.47 22.778-23.577 21.006-25.143 20.956-44.91-0.22301-86.536-13.386-26.311-15.594-34.708-15.703-59.731-0.11979-27.518 0.62263-29.786 13.524-41.314 25.69-22.954 71.624-14.017 81.482 15.855 7.4454 22.56 2.431 51.744-14.754 85.869-15.65 31.076-18.887 53.022-10.27 69.62 2.6426 5.0904 15.826 20.837 29.297 34.992 29.016 30.491 35.891 49.844 31.678 89.181-3.6446 34.033 2.0382 45.038 37.748 73.101 43.864 34.471 65.511 60.781 65.814 79.989l0.15014 9.5339h-186.44c-146.38 0-186.42-1.1382-186.35-5.2966z"/>
 <path id="path2991" fill="#f9f9f9" d="m313.65 760.13c0.27575-15.694 18.513-42.198 44.677-64.93 15.898-13.812 36.123-31.998 44.943-40.414l16.038-15.301-0.37835-37.665c-0.47047-46.837 5.1802-60.962 38.879-97.185 23.155-24.89 25.239-28.723 25.239-46.411 0-13.834-4.4004-27.929-15.576-49.895-13.386-26.311-15.594-34.708-15.703-59.731-0.1198-27.518 0.62263-29.786 13.524-41.314 10.786-9.6374 17.683-12.197 32.862-12.197 54.288 0 67.464 44.384 33.941 114.33-15.624 32.602-18.692 53.128-10.345 69.207 2.6426 5.0904 15.826 20.837 29.297 34.992 29.016 30.491 35.891 49.844 31.678 89.181-3.5949 33.568 1.7871 44.366 35.198 70.615 44.65 35.079 68.062 63.323 68.363 82.475l0.15015 9.5339h-186.44c-146.38 0-186.42-1.1382-186.35-5.2966z"/>
</svg>
