<?xml version="1.0" encoding="UTF-8" standalone="no"?>
<svg id="svg2" xmlns:rdf="http://www.w3.org/1999/02/22-rdf-syntax-ns#" xmlns="http://www.w3.org/2000/svg" height="100%" width="100%" version="1.1" xmlns:cc="http://creativecommons.org/ns#" xmlns:dc="http://purl.org/dc/elements/1.1/" viewBox="0 -100 1000 1000">
 <metadata id="metadata12">
  <rdf:RDF>
   <cc:Work rdf:about="">
    <dc:format>image/svg+xml</dc:format>
    <dc:type rdf:resource="http://purl.org/dc/dcmitype/StillImage"/>
    <dc:title/>
   </cc:Work>
  </rdf:RDF>
 </metadata>
 <g id="g4" transform="matrix(1,0,0,-1,0,840)">
  <path id="path6" fill="currentColor" d="m196 0q0 45 1.5 62t7.5 53 56 75l-91 289q-29 0-48 21t-19 49q0 31 21 52t50 21q30 0 51-21.5t21-51.5l-3-18q-2-9-11-20l79-84 30 153q-25 11-39 31t-14 45q0 33 23.5 56.5t57.5 23.5q32 0 57-23.5t25-56.5q0-19-9.5-36.5t-24.5-29.5l81-151 82 151q-10 7-17.5 17.5t-12.5 24.5l-3 13-1 11q0 32 24 56t57 24q32 0 57-23.5t25-56.5q0-24-14.5-45t-38.5-31l28-154 80 85-7 18-3 20q0 31 21 52t50 21q30 0 51-21.5t21-51.5q0-28-18.5-47.5t-47.5-22.5l-93-287q49-37 58-85t9-107h-609zm535 71q0 33-26.5 47.5t-72.5 27.5l-23 5-22 4-41 2h-52l-39-1h-33q-16-3-23-4l-22-3-20-4q-34-7-60.5-23t-26.5-51h461zm-80 252-36 213-117-209-115 209-38-215-103 105l-2-3 81-210 51 8 49 5 33 1 34 1 78-3 85-9 15-3q10 0 16-2l75 213-2 2zm-494 210q6-6 17-7 11 0 17 7t8 18q0 9-6 15.5t-19 8.5q-9 0-16-6.5t-8-17.5q0-10 7-18zm651 0q6-6 17-7 9 0 16 6.5t9 18.5q0 9-8 16-5 7-17 8-9 0-15.5-6.5t-8.5-17.5q0-10 7-18zm-459 101q8-6 20-8 12 0 20.5 8.5t8.5 20.5q0 11-7.5 19t-21.5 9q-11 0-18.5-7t-9.5-21q0-13 8-21zm258 0q8-6 20-8 13 0 21 8 6 8 8 21 0 12-7 19t-22 9q-11 0-18.5-7t-9.5-21q0-13 8-21z"/>
 </g>
 <path id="path2989" fill="#f9f9f9" d="m648.31 622.05c-10.487-1.8302-54.746-5.7362-98.352-8.6798-65.253-4.4049-89.625-4.3443-137.71 0.3425-32.135 3.132-65.833 5.8466-74.884 6.0322l-16.457 0.33762-37.497-97.176c-20.623-53.447-36.816-97.857-35.983-98.69 0.83292-0.83291 22.72 20.818 48.638 48.114 25.918 27.295 48.051 48.7 49.185 47.566s10.325-48.537 20.425-105.34l18.364-103.28 38.322 69.656c21.077 38.311 46.389 84.434 56.248 102.5 9.8596 18.061 18.524 32.839 19.255 32.839 0.73079 0 26.777-45.596 57.88-101.32 31.103-55.728 57.124-100.76 57.825-100.07 1.345 1.3261 34.583 196.29 34.684 203.44 0.0324 2.2941 22.94-18.651 50.906-46.544 27.96-27.89 50.84-48.96 50.84-46.82 0 2.1401-15.701 48.35-34.89 102.69-25.456 72.084-36.627 98.654-41.314 98.267-3.5328-0.2917-15.004-2.0278-25.491-3.8581z"/>
 <path id="path2991" fill="#f9f9f9" d="m271.19 764.24c0-1.1181 2.9698-9.4552 6.5996-18.527 4.9636-12.405 11.755-19.3 27.397-27.813 47.894-26.067 99.288-33.555 214.08-31.189 83.057 1.7116 91.113 2.5923 124.81 13.643 59.615 19.553 76.926 30.904 82.756 54.267l2.9081 11.653h-229.27c-126.1 0-229.27-0.91481-229.27-2.0329z"/>
 <path id="path2993" fill="#f9f9f9" d="m161.96 306.29c-12.747-8.9281-12.181-25.296 1.1758-34.048 9.813-6.4297 11.373-6.4297 21.186 0 13.357 8.752 13.922 25.12 1.1758 34.048-5.1796 3.6279-10.476 6.5962-11.769 6.5962-1.2934 0-6.5895-2.9683-11.769-6.5962z"/>
 <path id="path2995" fill="#f9f9f9" d="m351.69 202.71c-10.181-10.181-10.756-20.281-1.8784-32.955 8.1441-11.627 27.443-12.492 37.239-1.6685 22.298 24.639-11.88 58.104-35.36 34.624z"/>
 <path id="path2997" fill="#f9f9f9" d="m610.17 202.71c-10.181-10.181-10.756-20.281-1.8784-32.955 8.1441-11.627 27.443-12.492 37.239-1.6685 21.97 24.276-12.225 57.759-35.36 34.624z"/>
 <path id="path2999" fill="#f9f9f9" d="m814.5 306.29c-11.422-8.0003-12.204-23.467-1.6685-33.001 10.128-9.1656 15.841-8.8462 26.149 1.4619 10.724 10.724 10.724 18.937 0 29.661-10.201 10.201-12.362 10.367-24.481 1.8784z"/>
</svg>
