<?xml version="1.0" encoding="UTF-8" standalone="no"?>
<svg id="svg2" xmlns:rdf="http://www.w3.org/1999/02/22-rdf-syntax-ns#" xmlns="http://www.w3.org/2000/svg" height="100%" width="100%" version="1.1" xmlns:cc="http://creativecommons.org/ns#" xmlns:dc="http://purl.org/dc/elements/1.1/" viewBox="0 -100 1000 1000">
 <metadata id="metadata12">
  <rdf:RDF>
   <cc:Work rdf:about="">
    <dc:format>image/svg+xml</dc:format>
    <dc:type rdf:resource="http://purl.org/dc/dcmitype/StillImage"/>
    <dc:title/>
   </cc:Work>
  </rdf:RDF>
 </metadata>
 <g id="g4" transform="matrix(1,0,0,-1,0,840)">
  <path id="path6" fill="currentColor" d="m204 0q0 66 8.5 111.5t58.5 88.5l32 248-7 8-7 9-16 21-13 24q-1 5-2 6l-2 7q-6 17-9 35l-2 41 1 35 5 39q29 14 59 20l53 7 21-46h47l12 59 30 3 30 1h10l10-1 20-1 20-2 9-59h45l18 45 10-1h10l49-9q25-5 45-16l4-23 1-28-1-17v-18l-4-31q-1-9-1-18-3-7-4-10l-2-4-8-19-8-15-13-20-16-22 33-248q45-33 55.5-86t10.5-114h-592zm518 71q0 34-26.5 48.5t-72.5 27.5l-28 6-36 3-29 1h-24l-29-1h-21t-26-2l-37-3q-8-1-15-1-4-1-13-4-34-7-60.5-23t-26.5-52h444zm-89 342q-14 5-38 10l-44 6-26 2-23 1q-27 0-49-1t-45.5-5-39.5-13l-24-196 75 8 88 3 85-3q20 0 31-1.5t35-6.5zm-67 161-21 57-23 4-22 1-20-2-20-3-23-57h-61l-23 55-4 1h-4l-10-2-10-3-5-2-5-2v-4q0-34 2-46.5t10-34.5q13-35 37-47l74 10 62 4h26.5t27.5-2q28 0 49-5l19-3 19-4q22 12 31 40 4 13 6.5 27t4.5 34l1 16v15l-10 4-12 3-8 1-8 1-23-56h-57z"/>
 </g>
 <path id="path2989" fill="#f9f9f9" d="m347.39 615.89c-0.0348-1.8885 5.0508-44.807 11.301-95.374 12.962-104.87 8.5416-96.945 58.677-105.13 67.463-11.015 213.52 1.6674 214.16 18.596 0.0993 2.6103 5.4953 45.18 11.991 94.6l11.811 89.854-34.237-2.9898c-46.29-4.0423-181.46-3.7841-232.33 0.44387-22.722 1.8885-41.342 1.8885-41.377 0z"/>
 <path id="path2991" fill="#f9f9f9" d="m351.15 336.38c-20.555-22.256-33.237-57.942-33.311-93.729-0.0413-20.113 1.0425-22.764 10.823-26.483 18.62-7.0791 21.743-4.9144 33.781 23.41l11.706 27.542h32.746 32.746l9.5674-25.583c5.2621-14.071 12.996-27.418 17.187-29.661 12.065-6.457 69.832-5.1219 75.532 1.7457 2.6583 3.203 8.3115 16.074 12.563 28.602l7.74 22.77 31.715 1.2244 31.715 1.2244 10.561-26.648c9.7405-24.578 11.503-26.578 22.696-25.744 23.814 1.7742 24.623 3.0678 21.534 34.419-4.3503 44.148-13.318 72.811-27.087 86.581-11.957 11.957-12.793 12.136-36.38 7.7757-59.98-11.088-130.69-10.474-233.5 2.0268-19.443 2.364-22.103 1.5839-32.321-9.4804z"/>
 <path id="path2993" fill="#f9f9f9" d="m281.61 755.47c4.7429-19.291 14.109-30.129 35.206-40.739 45.802-23.034 62.666-25.46 178.95-25.739l108.05-0.25965 42.326 14.642c45.48 15.733 67.609 31.658 72.391 52.095l2.7269 11.653h-221.26-221.26l2.865-11.653z"/>
</svg>
