<?xml version="1.0" encoding="UTF-8" standalone="no"?>
<!-- Created with Inkscape (http://www.inkscape.org/) -->
<svg id="svg2985" xmlns:rdf="http://www.w3.org/1999/02/22-rdf-syntax-ns#" xmlns="http://www.w3.org/2000/svg" height="480" width="480" version="1.1" xmlns:cc="http://creativecommons.org/ns#" xmlns:dc="http://purl.org/dc/elements/1.1/">
 <title id="title3722">Black King</title>
 <metadata id="metadata2990">
  <rdf:RDF>
   <cc:Work rdf:about="">
    <dc:format>image/svg+xml</dc:format>
    <dc:type rdf:resource="http://purl.org/dc/dcmitype/StillImage"/>
    <dc:title>Black King</dc:title>
    <cc:license rdf:resource="http://creativecommons.org/licenses/publicdomain/"/>
    <dc:source>http://openfontlibrary.org/assets/downloads/chess/dd244e4b50bb954610bc0b2372ce2e18/chess.zip</dc:source>
    <dc:creator>
     <cc:Agent>
      <dc:title>James Kilfinger+alfons z!</dc:title>
     </cc:Agent>
    </dc:creator>
    <dc:date>6.1.2013</dc:date>
   </cc:Work>
   <cc:License rdf:about="http://creativecommons.org/licenses/publicdomain/">
    <cc:permits rdf:resource="http://creativecommons.org/ns#Reproduction"/>
    <cc:permits rdf:resource="http://creativecommons.org/ns#Distribution"/>
    <cc:permits rdf:resource="http://creativecommons.org/ns#DerivativeWorks"/>
   </cc:License>
  </rdf:RDF>
 </metadata>
 <g id="layer1">
  <path id="text3353" d="m238.38 51.969c-17.271 0-31.312 14.042-31.312 31.312 0 14.032 9.7346 26.441 22.688 30.219v36.719c-48.04-4.32-83.14-54.532-128.48-54.532-27.525 0-68 20.533-68 78.281 0 43.176 24.284 104.15 93.906 182.41 35.62-16.74 72.33-25.38 111.19-25.38 41.018 0 83.658 9.7353 121.44 28.625 60.987-103.08 77.156-148.98 77.156-186.22 0-48.573-31.286-77.156-66.906-77.156-43.716 0-77.171 49.643-124.12 54.5v-37.25c13.493-3.2382 23.75-15.647 23.75-30.219 0-17.271-14.042-31.312-31.312-31.312zm-71.79 120.91c22.128 0 43.719 20.508 43.719 65.844 0 45.875-23.75 62.594-43.719 62.594-29.684 0-44.25-33.461-44.25-65.844 0-35.621 17.804-62.594 44.25-62.594zm146.78 0c22.128 0 43.719 20.508 43.719 65.844 0 45.875-23.75 62.594-43.719 62.594-29.684 0-44.25-33.461-44.25-65.844 0-35.621 17.804-62.594 44.25-62.594zm-75 213.72c-77.71-0.01-145.73 29.14-188.37 73.4h379.97c-42.64-44.26-113.88-73.41-191.59-73.41z"/>
 </g>
</svg>
