<?xml version="1.0" encoding="UTF-8" standalone="no"?>
<!-- Created with Inkscape (http://www.inkscape.org/) -->
<svg id="svg2985" xmlns:rdf="http://www.w3.org/1999/02/22-rdf-syntax-ns#" xmlns="http://www.w3.org/2000/svg" height="480" width="480" version="1.1" xmlns:cc="http://creativecommons.org/ns#" xmlns:dc="http://purl.org/dc/elements/1.1/">
 <title id="title4075">White Bishop</title>
 <metadata id="metadata2990">
  <rdf:RDF>
   <cc:Work rdf:about="">
    <dc:format>image/svg+xml</dc:format>
    <dc:type rdf:resource="http://purl.org/dc/dcmitype/StillImage"/>
    <dc:title>White Bishop</dc:title>
    <cc:license rdf:resource="http://creativecommons.org/licenses/publicdomain/"/>
    <dc:date>6.1.2013</dc:date>
    <dc:creator>
     <cc:Agent>
      <dc:title>James Kilfinger+alfons z!</dc:title>
     </cc:Agent>
    </dc:creator>
    <dc:source>http://openfontlibrary.org/assets/downloads/chess/dd244e4b50bb954610bc0b2372ce2e18/chess.zip</dc:source>
   </cc:Work>
   <cc:License rdf:about="http://creativecommons.org/licenses/publicdomain/">
    <cc:permits rdf:resource="http://creativecommons.org/ns#Reproduction"/>
    <cc:permits rdf:resource="http://creativecommons.org/ns#Distribution"/>
    <cc:permits rdf:resource="http://creativecommons.org/ns#DerivativeWorks"/>
   </cc:License>
  </rdf:RDF>
 </metadata>
 <g id="layer1">
  <path id="text3480" d="m238.53 74.156-55.969 57.938 67.75 88.375c7.8553 10.31 9.3125 12.266 9.3125 25.031s-9.324 22.094-20.125 22.094-20.125-9.3289-20.125-22.094c0-9.3282 2.9375-18.667 2.9375-26.031 0-22.584-38.767-65.281-54.969-65.281-13.256 0-70.688 48.593-70.688 101.12 0 43.695 8.8207 52.031 24.531 108l2.4688 8.8438 7.85-4.39c33.876-17.183 70.701-25.031 107.03-25.031 37.313 0 74.137 8.3388 107.03 25.031l7.8438 4.4062 2.4688-8.8438c15.711-55.969 24.531-64.305 24.531-108 0-47.132-31.404-70.204-136.47-176.25l-5.4062-4.9062zm0 20.625c47.132 47.623 87.881 88.359 93.281 94.25 14.729 14.729 33.875 38.297 33.875 66.281 0 38.785-6.3963 45.673-21.125 95.75-33.876-15.22-70.191-23.094-106.03-23.094-35.84 0-71.687 7.8741-105.56 23.094-14.729-50.077-21.594-56.965-21.594-95.75 0-48.114 55.969-86.906 55.969-86.906 10.801 1.4729 40.25 36.334 40.25 51.062 0 5.4005-2.9375 15.721-2.9375 26.031 0 20.129 15.206 36.812 34.844 36.812s34.875-16.683 34.875-36.812c0-17.183-2.9531-22.092-12.281-33.875l-59.92-78.56 36.34-38.279zm0 283.75c-72.661 0-136.49 27.519-176.75 69.25l-11.78 12.25h380l-11.781-12.25c-40.258-42.222-107.03-69.25-179.69-69.25zm0 14.75c61.369 0 117.82 20.61 155.62 52.031h-308.31c37.313-31.421 91.318-52.031 152.69-52.031z"/>
 </g>
 <path id="path3902" stroke-linejoin="round" style="color:#000000" d="m132.43 348.53c-0.39676-1.2212-1.6305-5.2135-2.7417-8.8719s-3.7772-12.072-5.9246-18.696c-9.994-30.832-11.473-38.167-12.068-59.864-0.26098-9.5125 0.14808-14.322 1.8042-21.213 5.3596-22.302 22.779-46.426 48.306-66.897l5.5045-4.4145 1.6084 0.54802c10.615 3.6168 32.633 30.014 37.399 44.838 1.2647 3.9333 1.2168 6.9091-0.25498 15.858-1.0556 6.4182-1.1848 7.9829-1.2027 14.562-0.0162 5.9468 0.10618 7.8916 0.63351 10.067 3.0863 12.733 11.918 22.563 23.701 26.377 13.941 4.5129 29.539-0.72915 38.173-12.828 3.2588-4.5668 5.8571-10.95 6.729-16.531 0.49187-3.1487 0.22292-15.727-0.39752-18.59-1.1432-5.2766-2.8195-9.3128-5.5714-13.415-0.90346-1.3466-15.917-21.155-33.364-44.019s-31.837-41.759-31.978-41.99c-0.15838-0.25908 6.6393-7.6818 17.753-19.385l18.01-18.966 32.585 32.843c48.85 49.236 63.392 64.036 67.618 68.817 15.367 17.384 23.613 33.228 26.11 50.172 0.50424 3.4212 0.57172 5.9161 0.40748 15.066-0.37141 20.692-1.9448 28.752-11.405 58.426-3.5836 11.24-9.3403 29.877-9.3403 30.238 0 0.0841-0.60674-0.11116-1.3483-0.43395-35.703-15.541-73.398-23.202-109.75-22.308-13.583 0.33426-24.431 1.361-36.853 3.4882-18.376 3.1467-39.509 9.2763-56.089 16.269-2.5708 1.0842-5.2717 2.2194-6.002 2.5228l-1.3279 0.55162-0.72137-2.2203v0z" stroke="#fff" stroke-linecap="round" stroke-width="1.7977" fill="#ececec"/>
 <path id="path3904" stroke-linejoin="round" style="color:#000000" d="m87.1 444.63c1.3061-1.1929 6.2747-5.0478 10.011-7.7675 31.159-22.678 71.019-37.41 113.3-41.874 17.779-1.8772 38.694-1.8769 56.449 0.0009 46.891 4.9591 90.677 21.79 123.11 47.321l3.5583 2.8013h-153.48c-128.15 0-153.39-0.0793-152.95-0.48084z" stroke="#fff" stroke-linecap="round" stroke-width="1.7977" fill="#ececec"/>
</svg>
