<?xml version="1.0" encoding="UTF-8" standalone="no"?>
<!-- Created with Inkscape (http://www.inkscape.org/) -->
<svg id="svg2985" xmlns:rdf="http://www.w3.org/1999/02/22-rdf-syntax-ns#" xmlns="http://www.w3.org/2000/svg" height="480" width="480" version="1.1" xmlns:cc="http://creativecommons.org/ns#" xmlns:dc="http://purl.org/dc/elements/1.1/">
 <title id="title4124">White King</title>
 <metadata id="metadata2990">
  <rdf:RDF>
   <cc:Work rdf:about="">
    <dc:format>image/svg+xml</dc:format>
    <dc:type rdf:resource="http://purl.org/dc/dcmitype/StillImage"/>
    <dc:title>White King</dc:title>
    <cc:license rdf:resource="http://creativecommons.org/licenses/publicdomain/"/>
    <dc:date>6.1.2013</dc:date>
    <dc:creator>
     <cc:Agent>
      <dc:title>James Kilfinger+alfons z!</dc:title>
     </cc:Agent>
    </dc:creator>
    <dc:source>http://openfontlibrary.org/assets/downloads/chess/dd244e4b50bb954610bc0b2372ce2e18/chess.zip</dc:source>
   </cc:Work>
   <cc:License rdf:about="http://creativecommons.org/licenses/publicdomain/">
    <cc:permits rdf:resource="http://creativecommons.org/ns#Reproduction"/>
    <cc:permits rdf:resource="http://creativecommons.org/ns#Distribution"/>
    <cc:permits rdf:resource="http://creativecommons.org/ns#DerivativeWorks"/>
   </cc:License>
  </rdf:RDF>
 </metadata>
 <g id="layer1">
  <path id="text3552" d="m238.47 74.094c-19.643 0-35.844 16.2-35.844 35.844 0 14.241 8.3479 26.545 20.625 32.438v19.625c-37.322-8.3484-68.249-48.125-109.5-48.125-29.465 0-69.25 22.119-69.25 78.594 0 42.233 23.566 99.177 87.406 170.88l3.4375 3.9375 4.9062-1.9688c31.429-14.732 63.843-22.594 98.219-22.594 36.34 0 73.669 8.3657 107.06 25.062l6.375 3.4375 3.4375-5.9062c55.492-93.797 71.219-137 71.219-173.34 0-48.126-31.941-77.594-68.281-77.594-39.778 0-69.222 39.286-105.56 48.125v-19.656c12.768-5.4019 21.594-18.174 21.594-32.906 0-19.643-16.2-35.844-35.844-35.844zm0 14.75c11.786 0 21.125 9.3078 21.125 21.094 0 13.75-12.294 21.625-21.625 21.625-8.8395 0-20.625-7.3836-20.625-21.625 0-11.786 9.339-21.094 21.125-21.094zm-124.72 39.776c40.76 0 72.164 50.062 124.22 50.062 50.581 0 80.044-49.594 120.31-49.594 28.483 0 53.531 22.606 53.531 62.875 0 32.411-15.2 73.654-65.781 159.59-33.88-15.7-71.22-23.55-107.56-23.55-34.867 0-67.267 7.3524-99.188 21.594-60.403-68.752-80.062-121.28-80.062-157.12 0-47.635 32.924-63.844 54.531-63.844zm59.406 55.469c-28.483 0-47.625 28.004-47.625 64.344 0 37.322 18.16 67.281 47.625 67.281 22.59 0 47.156-19.164 47.156-64.344 0-44.688-22.111-67.281-47.156-67.281zm133.56 0c-28.483 0-47.625 28.004-47.625 64.344 0 37.322 18.16 67.281 47.625 67.281 22.59 0 47.156-19.164 47.156-64.344 0-44.688-22.111-67.281-47.156-67.281zm-133.56 14.75c15.224 0 32.406 14.227 32.406 52.531 0 38.796-19.638 49.594-32.406 49.594-20.134 0-32.906-24.048-32.906-52.531 0-27.992 13.263-49.594 32.906-49.594zm133.56 0c15.224 0 32.438 14.227 32.438 52.531 0 38.796-19.669 49.594-32.438 49.594-20.134 0-32.906-24.048-32.906-52.531 0-27.992 13.263-49.594 32.906-49.594zm-68.25 179.72c-72.68 0-136.51 27.508-176.78 69.25l-11.781 12.281h380.09l-11.781-12.281c-40.269-42.233-107.07-69.25-179.75-69.25zm0 14.75c61.385 0 117.87 20.633 155.69 52.062h-308.41c37.322-31.429 91.333-52.062 152.72-52.062z"/>
 </g>
 <path id="path3394" stroke-linejoin="round" style="color:#000000" d="m87.689 444.48c0-0.16598 2.9932-2.5377 6.6516-5.2704 32.317-24.14 71.051-38.803 116.67-44.168 10.385-1.2211 45.058-1.2366 55.011-0.0247 49.409 6.0163 91.324 22.017 123.21 47.034l3.4803 2.7306h-152.51c-83.882 0-152.51-0.13581-152.51-0.30179z" stroke="#fff" stroke-linecap="round" stroke-width="3.5955" fill="#ececec"/>
 <path id="path3396" stroke-linejoin="round" style="color:#000000" d="m338.29 347.85c-18.485-8.1742-43.621-14.857-69.033-18.354-13.117-1.805-47.931-1.8227-60.561-0.0309-12.7 1.8018-25.472 4.4511-35.589 7.3823-8.6936 2.5187-26.39 8.8502-30.195 10.803-1.068 0.54819-2.399 0.99671-2.9579 0.99671-1.0978 0-13.812-14.912-23.605-27.685-29.927-39.04-48.081-74.76-54.677-107.6-1.362-6.79-1.633-10.38-1.594-21.12 0.04226-11.608 0.24319-13.686 1.9467-20.135 6.8083-25.773 27.21-42.786 51.309-42.786 14.528 0 25.77 4.2974 48.061 18.371 22.098 13.952 26.337 16.465 34.516 20.463 14.361 7.02 24.904 9.878 38.831 10.527 20.208 0.94189 37.014-4.8807 63.64-22.049 23.246-14.989 26.098-16.714 33.44-20.221 9.9712-4.7631 16.849-6.4922 26.245-6.5976 8.8666-0.0995 13.372 0.85981 21.213 4.5166 11.103 5.1777 18.599 12.502 24.511 23.949 4.6193 8.9438 6.8049 17.944 7.2866 30.007 1.0113 25.322-7.2893 53.035-28.753 95.999-12.285 24.59-35.211 65.794-36.853 66.233-0.38956 0.10434-3.6206-1.0982-7.1801-2.6722zm-154.96-33.16c28.914-7.007 43.664-44.151 34.774-87.573-2.5168-12.294-8.0062-22.86-16.071-30.934-8.522-8.5315-17.374-12.212-29.374-12.212-20.778 0-37.592 15.34-44.374 40.485-5.1695 19.166-3.5046 43.76 4.163 61.495 9.9211 22.947 29.393 33.945 50.881 28.738v0zm135.68-0.65566c17.436-5.3854 29.628-21.572 33.741-44.795 1.5267-8.6192 1.5373-27.194 0.0209-36.4-3.5864-21.773-13.812-38.013-28.293-44.935-9.6864-4.6301-22.38-5.2106-32.251-1.4747-17.216 6.5159-29.458 25.358-32.74 50.395-0.52629 4.0136-0.68142 10.296-0.40841 16.539 0.80772 18.472 5.1011 32.359 13.795 44.62 10.811 15.246 28.647 21.451 46.135 16.05h0.00003z" stroke="#fff" stroke-linecap="round" stroke-width="3.5955" fill="#ececec"/>
 <path id="path3398" stroke-linejoin="round" style="color:#000000" d="m234.49 130.67c-15.573-2.8714-22.102-23.328-11.084-34.726 10.025-10.372 27.305-7.8043 33.654 4.9999 2.1947 4.4264 2.0011 13.928-0.37868 18.588-3.9472 7.7293-13.816 12.682-22.191 11.138z" stroke="#fff" stroke-linecap="round" stroke-width="3.5955" fill="#ececec"/>
</svg>
