<?xml version="1.0" encoding="UTF-8" standalone="no"?>
<!-- Created with Inkscape (http://www.inkscape.org/) -->
<svg id="svg2985" xmlns:rdf="http://www.w3.org/1999/02/22-rdf-syntax-ns#" xmlns="http://www.w3.org/2000/svg" height="480" width="480" version="1.1" xmlns:cc="http://creativecommons.org/ns#" xmlns:dc="http://purl.org/dc/elements/1.1/">
 <title id="title4199">White Knight</title>
 <metadata id="metadata2990">
  <rdf:RDF>
   <cc:Work rdf:about="">
    <dc:format>image/svg+xml</dc:format>
    <dc:type rdf:resource="http://purl.org/dc/dcmitype/StillImage"/>
    <dc:title>White Knight</dc:title>
    <cc:license rdf:resource="http://creativecommons.org/licenses/publicdomain/"/>
    <dc:date>6.1.2013</dc:date>
    <dc:creator>
     <cc:Agent>
      <dc:title>James Kilfinger+alfons z!</dc:title>
     </cc:Agent>
    </dc:creator>
    <dc:source>http://openfontlibrary.org/assets/downloads/chess/dd244e4b50bb954610bc0b2372ce2e18/chess.zip</dc:source>
   </cc:Work>
   <cc:License rdf:about="http://creativecommons.org/licenses/publicdomain/">
    <cc:permits rdf:resource="http://creativecommons.org/ns#Reproduction"/>
    <cc:permits rdf:resource="http://creativecommons.org/ns#Distribution"/>
    <cc:permits rdf:resource="http://creativecommons.org/ns#DerivativeWorks"/>
   </cc:License>
  </rdf:RDF>
 </metadata>
 <g id="layer1">
  <path id="text3504" d="m155.25 69.469-4.4062 6.375c-1.9632 3.4356-2.4375 7.3677-2.4375 10.312 0 7.8529 4.9062 20.614 4.9062 25.031 0 5.8897-1.9651 9.818-3.4375 11.781-8.8345 14.724-29.469 7.353-46.156 24.531-22.086 22.577-27.972 43.669-43.188 67.719-8.3437 13.252-25.5 21.123-25.5 42.719v2.4375c7.8529 10.307 16.669 28.483 32.375 30.938h1c20.123 0 16.673-18.643 39.25-19.625h0.96875c6.3805 0 15.213 1.9375 21.594 1.9375 26.994 0 31.438-22.083 39.781-26.5 0.98161-0.49081 1.9559-0.96875 2.9375-0.96875 3.9265 0 8.8438 3.4283 8.8438 11.281 0 14.724-18.649 20.618-29.938 40.25-12.761 22.086-20.131 32.386-30.438 61.344l-6.375 17.188 16.688-8.3438c33.866-17.178 70.649-25.031 106.97-25.031 37.301 0 74.116 8.3438 107 25.031l11.31 5.89-0.5-12.25c-0.49081-25.031-3.9375-41.724-3.9375-52.031 0-22.086 1.4688-43.671 1.4688-54.469 0-44.173-14.234-67.734-50.062-95.219-28.47-22.09-52.02-25.52-84.91-45.16-23.07-13.74-34.34-24.548-57.4-40.745l-6.41-4.406zm9.34 25.031c15.215 11.779 26.993 21.096 46.625 32.875 33.375 20.123 56.943 23.574 83.938 44.188 30.921 23.559 44.156 42.701 44.156 83.438 0 10.798-1.4688 32.382-1.4688 54.469 0 10.798 2.4559 23.072 3.4375 40.25-32.88-14.23-67.75-21.6-102.59-21.6-32.884 0-65.745 6.364-97.156 19.125 6.8713-15.706 12.756-24.05 23.062-41.719 9.81-16.69 31.9-26.01 31.9-48.09-1.4724-23.068-17.686-26-22.594-26-25.031 0.98161-20.129 27.469-43.688 27.469-6.3805 0-12.741-1.9688-20.594-1.9688h-1.9688c-27.976 0.98161-30.419 19.656-37.781 19.656-3.9265 0-9.3272-5.4192-20.125-21.125 0.98161-12.761 13.256-16.178 23.562-32.375 17.178-26.994 21.096-45.167 41.219-65.781 12.761-13.252 35.333-5.3953 48.094-26.5 4.9081-8.3437 5.4062-15.699 5.4062-19.625 0-4.4173-1.9651-11.289-3.4375-16.688zm-30.938 77.531c-8.3437 0-14.719 6.8842-14.719 15.719 0 8.8345 6.375 15.719 14.719 15.719 8.3437 0 14.75-6.8842 14.75-15.719 0-8.8345-6.4063-15.719-14.75-15.719zm105.03 206.62c-72.639 0-136.44 27.5-176.69 69.219l-11.781 12.281h379.91l-11.78-12.27c-40.24-42.21-107.01-69.22-179.65-69.22zm0 14.75c61.351 0 117.8 20.588 155.59 52h-308.22c37.301-31.412 91.274-52 152.62-52z"/>
 </g>
 <path id="path3485" stroke-linejoin="round" style="color:#000000" d="m334.53 346.68c-17.495-7.2959-43.882-14.177-64.068-16.708-20.247-2.5384-43.703-2.5432-63.814-0.013-20.011 2.5177-39.591 7.4147-59.69 14.929-2.3464 0.87718-4.3661 1.495-4.4882 1.3728-0.93543-0.93542 22.148-41.183 26.7-46.553 1.3164-1.5531 6.1998-6.7586 10.852-11.568 9.3788-9.6955 12.447-13.863 14.8-20.104 1.4164-3.7563 1.5885-4.8055 1.6078-9.7999 0.0337-8.7207-2.1603-14.894-7.154-20.129-6.5895-6.9084-16.582-8.6949-25.453-4.5506-4.0378 1.8863-7.4439 5.077-12.234 11.46-4.7152 6.2835-6.8336 8.5393-9.7715 10.406-4.9236 3.1279-10.765 3.7568-21.14 2.276-11.484-1.639-21.441-0.873-29.084 2.2374-4.8813 1.9865-7.805 4.1244-13.335 9.7514-6.0597 6.1656-7.0424 6.8235-9.5036 6.3618-2.5397-0.47645-7.7365-5.723-13.809-13.941-5.4238-7.3404-5.5309-7.8289-2.8783-13.131 1.4058-2.81 3.4444-5.2916 9.7881-11.915 10.518-10.982 14.141-16.5 27.329-41.621 9.6855-18.45 15.943-27.769 24.585-36.61 5.5053-5.6325 8.5013-7.1334 21.213-10.627 10.362-2.8478 12.528-3.6299 16.497-5.9562 7.3777-4.3245 12.342-10.983 15.324-20.554 1.7187-5.5156 1.6346-14.096-0.20399-20.824-0.72524-2.6535-1.2321-4.9111-1.1264-5.0168 0.10571-0.10571 2.2058 1.3893 4.6669 3.3222 11.22 8.8124 24.398 18.118 35.237 24.884 13.904 8.6789 24.006 13.847 49.068 25.103 21.22 9.5309 31.717 15.653 45 26.245 26.932 21.476 36.995 39.233 39.224 69.217 0.4797 6.4534 0.47866 11.773-0.005 24.407-1.4707 38.433-1.4289 41.416 0.90714 64.714 1.4532 14.493 1.4965 15.261 0.85836 15.208-0.30853-0.0252-2.9635-1.0477-5.8999-2.2722h-0.00022zm-194.31-144.68c5.7812-2.8889 8.5024-8.0612 8.0997-15.396-0.32982-6.0063-2.6975-10.128-7.401-12.885-1.8669-1.0941-3.1342-1.3996-6.549-1.5788-3.8072-0.19983-4.5134-0.0856-7.0036 1.1327-3.0435 1.489-5.2926 3.7565-6.9914 7.0486-1.3191 2.5563-1.8519 9.1714-0.99432 12.346 1.1808 4.372 5.2299 8.7671 9.4688 10.278 0.83899 0.29906 3.0334 0.56181 4.8764 0.58389 2.7767 0.0332 3.8897-0.22907 6.4944-1.5306v0z" stroke="#fff" stroke-linecap="round" stroke-width="2.5424" fill="#ececec"/>
 <path id="path3487" stroke-linejoin="round" style="color:#000000" d="m91.26 441.67c27.926-22.053 64.082-37.568 102.93-44.166 17.354-2.9476 22.781-3.3524 44.746-3.3377 21.468 0.0145 26.568 0.37836 43.22 3.0839 40.352 6.556 77.835 22.091 106.48 44.128l5.035 3.8742h-153.47-153.47l4.5366-3.5826z" stroke="#fff" stroke-linecap="round" stroke-width="2.5424" fill="#ececec"/>
</svg>
