<?xml version="1.0" encoding="UTF-8" standalone="no"?>
<!-- Created with Inkscape (http://www.inkscape.org/) -->
<svg id="svg2985" xmlns:rdf="http://www.w3.org/1999/02/22-rdf-syntax-ns#" xmlns="http://www.w3.org/2000/svg" height="480" width="480" version="1.1" xmlns:cc="http://creativecommons.org/ns#" xmlns:dc="http://purl.org/dc/elements/1.1/">
 <title id="title4323">White Queenie</title>
 <metadata id="metadata2990">
  <rdf:RDF>
   <cc:Work rdf:about="">
    <dc:format>image/svg+xml</dc:format>
    <dc:type rdf:resource="http://purl.org/dc/dcmitype/StillImage"/>
    <dc:title>White Queenie</dc:title>
    <cc:license rdf:resource="http://creativecommons.org/licenses/publicdomain/"/>
    <dc:date>6.1.2013</dc:date>
    <dc:creator>
     <cc:Agent>
      <dc:title>James Kilfinger+alfons z!</dc:title>
     </cc:Agent>
    </dc:creator>
    <dc:source>http://openfontlibrary.org/assets/downloads/chess/dd244e4b50bb954610bc0b2372ce2e18/chess.zip</dc:source>
   </cc:Work>
   <cc:License rdf:about="http://creativecommons.org/licenses/publicdomain/">
    <cc:permits rdf:resource="http://creativecommons.org/ns#Reproduction"/>
    <cc:permits rdf:resource="http://creativecommons.org/ns#Distribution"/>
    <cc:permits rdf:resource="http://creativecommons.org/ns#DerivativeWorks"/>
   </cc:License>
  </rdf:RDF>
 </metadata>
 <g id="layer1">
  <path id="text3528" d="m188.66 95.844c-19.637 0-34.875 16.716-34.875 36.844 0 18.655 13.742 34.849 31.906 36.812 0 1.9637-4.3974 89.349-19.125 106.53-1.9637 2.4546-3.4375 2.4375-3.4375 2.4375-19.637 0-70.706-51.049-71.688-52.031 8.8366-6.8729 14.25-17.665 14.25-29.938 0-20.128-15.238-36.812-34.875-36.812s-34.844 16.685-34.844 36.812c0 20.128 15.207 36.812 34.844 36.812 3.4364 0 6.8982-0.48691 9.8438-1.4688 12.273 33.383 26.5 82.469 26.5 128.12 0 2.4546-0.50908 4.9076-1 23.562 49.092-25.528 81.507-38.281 132.56-38.281 50.565 0 82.98 12.263 132.56 38.281-0.49092-7.8547-1-15.23-1-22.594 0-47.619 12.754-88.838 26.5-129.09 2.9455 0.98184 6.4073 1.4688 9.8438 1.4688 19.637 0 34.844-16.685 34.844-36.812 0-20.128-15.207-36.812-34.844-36.812s-34.875 16.685-34.875 36.812c0 12.273 5.4134 23.065 14.25 29.938-0.49092 0.49092-51.56 52.031-71.688 52.031-16.2 0-21.581-102.59-22.562-108.97 18.164-1.9637 31.906-18.158 31.906-36.812 0-20.128-15.238-36.844-34.875-36.844s-34.844 16.716-34.844 36.844c0 16.691 10.804 30.925 25.531 35.344-19.146 51.056-28.981 76.094-39.781 76.094s-21.591-25.038-41.719-76.094c14.73-4.43 25.53-18.66 25.53-35.35 0-20.128-15.207-36.844-34.844-36.844zm-1.0312 14.75c0.33439-0.018 0.69374 0 1.0312 0 10.8 0 20.125 9.3298 20.125 22.094s-9.3248 22.062-20.125 22.062-20.125-9.2986-20.125-22.062c0-12.365 8.7276-21.535 19.094-22.094zm100.16 0c0.33439-0.018 0.66249 0 1 0 10.8 0 20.125 9.3298 20.125 22.094s-9.3248 22.062-20.125 22.062-20.125-9.2986-20.125-22.062c0-12.365 8.7589-21.535 19.125-22.094zm-216.98 63.82c10.8 0 20.125 9.3298 20.125 22.094s-9.3248 22.094-20.125 22.094-20.125-9.3298-20.125-22.094 9.3248-22.094 20.125-22.094zm335.81 0c10.8 0 20.125 9.3298 20.125 22.094s-9.3248 22.094-20.125 22.094-20.125-9.3298-20.125-22.094 9.3248-22.094 20.125-22.094zm-208.66 29.938c14.237 35.346 19.15 55.469 40.75 55.469 24.546 0 27.995-20.113 41.25-54.969 3.4364 39.764 9.3157 68.236 19.625 81 3.9274 4.4183 8.8277 7.375 14.719 7.375 16.2 0 39.783-17.675 58.438-33.875-9.3275 31.419-16.688 64.288-16.688 100.12-41.22-19.64-70.2-28.97-117.33-28.97-47.128 0-76.106 9.332-117.34 28.969 0-35.837-7.36-68.706-16.688-100.12 18.655 16.2 42.237 33.875 58.438 33.875 2.9455 0 8.8277-0.51121 14.719-7.875 9.3275-11.291 15.707-36.817 20.125-81zm40.75 174.28c-112.91 0-166.41 58.918-188.5 81.5h379.97c-6.382-6.382-65.302-81.5-191.47-81.5zm0 14.719c61.365 0 117.82 20.612 155.62 52.031h-308.31c37.31-31.419 91.323-52.031 152.69-52.031z"/>
 </g>
 <path id="path3651" stroke-linejoin="round" style="color:#000000" d="m88.628 444.21c3.3937-2.9943 14.41-10.805 21.411-15.181 74.574-46.61 184.01-46.363 260.74 0.58824 6.5159 3.9872 17.559 11.736 20.797 14.593 0.53136 0.46882-67.632 0.8524-151.47 0.8524-83.842 0-152.01-0.38358-151.47-0.8524z" stroke="#fff" stroke-linecap="round" stroke-width="5.0847" fill="#ececec"/>
 <path id="path3653" stroke-linejoin="round" style="color:#000000" d="m121.62 351.56c-0.0274-18.577-5.5186-53.049-12.328-77.389-1.6953-6.0601-2.8327-11.268-2.5275-11.573 0.30518-0.30518 3.2028 1.7244 6.4392 4.5102 7.1389 6.145 23.866 17.619 30.832 21.148 7.3061 3.7023 16.684 5.8937 21.885 5.1139 13.724-2.0581 23.616-23.048 28.984-61.505 1.1371-8.1462 2.3912-17.071 2.787-19.834l0.71956-5.0224 4.9875 12.65c9.558 24.241 15.384 33.691 23.247 37.702 5.8378 2.9782 14.298 3.5538 21.493 1.4622 11.157-3.2434 17.144-11.982 27.199-39.703l4.4152-12.172 1.6854 15.263c4.7816 43.303 13.072 64.907 26.941 70.204 10.81 4.1284 28.074-3.3787 53.061-23.073 4.8594-3.83 8.9848-6.5306 9.1677-6.0011 0.18287 0.52941-0.80941 4.9756-2.2051 9.8804-6.2453 21.948-11.158 50.612-12.465 72.731-0.38845 6.572-0.89431 11.949-1.1241 11.949-0.22982 0-5.9974-2.4567-12.817-5.4593-36.57-16.102-57.209-20.794-95.429-21.697-33.349-0.78755-53.206 1.5095-77.648 8.9822-11.179 3.4177-32.29 11.719-41.441 16.296l-5.8475 2.9244-0.0109-7.3875v0z" stroke="#fff" stroke-linecap="round" stroke-width="5.0847" fill="#ececec"/>
 <path id="path3655" stroke-linejoin="round" style="color:#000000" d="m184.44 153.5c-8.9545-2.6962-15.014-11.112-15.014-20.852 0-13.409 11.862-23.952 23.441-20.834 8.6218 2.3216 15.158 11.305 15.158 20.834 0 9.4196-6.4778 18.44-14.928 20.786-4.3694 1.2134-4.8336 1.2169-8.6576 0.0655v0z" stroke="#fff" stroke-linecap="round" stroke-width="5.0847" fill="#ececec"/>
 <path id="path3657" stroke-linejoin="round" style="color:#000000" d="m282.94 153.05c-7.998-2.9182-13.871-11.757-13.846-20.839 0.005-1.9978 1.0841-5.9392 2.397-8.7587 8.5297-18.317 31.634-15.365 36.123 4.6156 3.4693 15.441-10.914 30.003-24.675 24.982z" stroke="#fff" stroke-linecap="round" stroke-width="5.0847" fill="#ececec"/>
 <path id="path3659" stroke-linejoin="round" style="color:#000000" d="m398.75 216.02c-12.81-6.4338-15.512-24.398-5.217-34.692 9.1465-9.1466 21.616-8.069 28.591 2.4708 9.3005 14.054 0.42692 33.779-15.187 33.76-2.8245-0.003-6.5083-0.69579-8.1863-1.5385z" stroke="#fff" stroke-linecap="round" stroke-width="5.0847" fill="#ececec"/>
 <path id="path3661" stroke-linejoin="round" style="color:#000000" d="m63.153 216.13c-10.503-4.688-14.692-18.586-9.0276-29.953 6.7974-13.641 23.486-14.934 32.245-2.4986 3.448 4.8948 4.7047 14.133 2.7346 20.103-1.6049 4.8629-6.6929 10.656-10.904 12.416-4.1496 1.7338-11.083 1.7028-15.049-0.0674z" stroke="#fff" stroke-linecap="round" stroke-width="5.0847" fill="#ececec"/>
</svg>
