<?xml version="1.0" encoding="UTF-8" standalone="no"?>
<!-- Created with Inkscape (http://www.inkscape.org/) -->
<svg id="svg2985" xmlns:rdf="http://www.w3.org/1999/02/22-rdf-syntax-ns#" xmlns="http://www.w3.org/2000/svg" height="480" width="480" version="1.1" xmlns:cc="http://creativecommons.org/ns#" xmlns:dc="http://purl.org/dc/elements/1.1/">
 <title id="title4372">White Rook</title>
 <metadata id="metadata2990">
  <rdf:RDF>
   <cc:Work rdf:about="">
    <dc:format>image/svg+xml</dc:format>
    <dc:type rdf:resource="http://purl.org/dc/dcmitype/StillImage"/>
    <dc:title>White Rook</dc:title>
    <cc:license rdf:resource="http://creativecommons.org/licenses/publicdomain/"/>
    <dc:date>6.1.2013</dc:date>
    <dc:creator>
     <cc:Agent>
      <dc:title>James Kilfinger+alfons z!</dc:title>
     </cc:Agent>
    </dc:creator>
    <dc:source>http://openfontlibrary.org/assets/downloads/chess/dd244e4b50bb954610bc0b2372ce2e18/chess.zip</dc:source>
   </cc:Work>
   <cc:License rdf:about="http://creativecommons.org/licenses/publicdomain/">
    <cc:permits rdf:resource="http://creativecommons.org/ns#Reproduction"/>
    <cc:permits rdf:resource="http://creativecommons.org/ns#Distribution"/>
    <cc:permits rdf:resource="http://creativecommons.org/ns#DerivativeWorks"/>
   </cc:License>
  </rdf:RDF>
 </metadata>
 <g id="layer1">
  <path id="text3408" d="m238.53 89.812c-33.876 0-38.287 44.688-62.344 44.688-13.256 0-21.135-23.094-43.719-23.094-14.729 0-24.531 12.775-24.531 26.031 0 8.8372 2.4423 49.594 41.719 86.906l3.4375 2.9375 3.9375-1.4688c23.075-7.8553 51.552-12.281 81.5-12.281s58.425 4.426 81.5 12.281l4.4062 1.4688 2.9375-3.4375c39.276-42.222 41.75-80.024 41.75-86.406 0-13.256-9.8338-26.031-24.562-26.031-22.584 0-30.432 23.094-43.688 23.094-24.057 0-28.468-44.688-62.344-44.688zm0 14.719c24.057 0 28.468 44.688 62.344 44.688 21.111 0 28.468-23.062 43.688-23.062 5.8915 0 9.8438 6.8626 9.8438 11.281 0 3.4367-0.99002 35.353-34.375 73.156-24.057-7.3643-51.552-11.781-81.5-11.781s-57.443 4.4169-81.5 11.781c-32.403-32.403-34.375-66.774-34.375-73.156 0-4.4186 3.921-11.281 9.8125-11.281 15.22 0 22.608 23.062 43.719 23.062 33.876 0 38.287-44.688 62.344-44.688zm0 136.5c-30.439 0-58.434 1.9474-82 5.875l-6.375 1v6.375c0 20.62-3.9144 51.557-19.625 102.12l-4.9375 15.719 14.75-6.875c31.421-14.729 63.821-22.594 98.188-22.594 36.331 0 73.646 8.3388 107.03 25.031l18.156 9.3438-7.85-18.64c-23.566-56.46-26.509-88.383-27-104.09v-5.9062l-5.9062-0.96875c-24.057-3.9276-53.016-6.375-84.438-6.375zm0 14.719c27.984 0 54.001 1.9696 76.094 5.4062 0.98191 16.692 4.9144 44.175 20.625 85.906-30.93-12.765-64.316-19.125-96.719-19.125-30.93 0-60.377 5.8643-89.344 17.156 10.801-38.785 15.197-64.799 15.688-84.438 21.602-2.9457 46.654-4.9062 73.656-4.9062zm0 122.75c-72.661 0-136.49 27.488-176.75 69.219l-11.78 12.28h380l-11.78-12.28c-40.26-42.22-107.03-69.22-179.69-69.22zm0 14.719c61.369 0 117.82 20.61 155.62 52.031h-308.31c37.313-31.421 91.318-52.031 152.69-52.031z"/>
 </g>
 <path id="path3755" stroke-linejoin="round" style="color:#000000" d="m87.615 444.3c28.685-22.56 58.575-36.62 95.085-44.71 66.289-14.694 141.19-1.6577 194.67 33.882 3.7573 2.4966 8.9122 6.162 11.455 8.1453l4.624 3.606-153.48-0.0229c-120.78-0.018-153.24-0.2095-152.36-0.89886z" stroke="#fff" stroke-linecap="round" stroke-width="3.5955" fill="#ececec"/>
 <path id="path3757" stroke-linejoin="round" style="color:#000000" d="m319.85 341.17c-53.438-18.08-107.79-18.082-160.89-0.006-4.5992 1.5655-8.4852 2.7234-8.6356 2.5731-0.15033-0.15033 1.2031-6.0491 3.0076-13.108 6.3962-25.022 10.277-46.519 11.61-64.314l0.40878-5.4575 11.275-1.2055c6.2013-0.66305 15.482-1.5968 20.623-2.0751 12.992-1.2085 68.687-1.1796 83.055 0.0432 16.504 1.4045 33.306 3.6498 33.846 4.523 0.26062 0.4217 0.69169 3.6523 0.95793 7.1791 1.3004 17.226 7.9547 44.791 16.891 69.969 1.2485 3.5176 2.1817 6.447 2.0738 6.51-0.10785 0.0629-6.5061-2.0206-14.218-4.6299v0z" stroke="#fff" stroke-linecap="round" stroke-width="3.5955" fill="#ececec"/>
 <path id="path3759" stroke-linejoin="round" style="color:#000000" d="m152.22 204.64c-16.204-17.499-28.757-45.809-28.902-65.178-0.0596-7.9953 3.499-12.584 9.7591-12.584 4.5071 0 9.1223 2.6323 17.599 10.038 11.51 10.056 16.297 12.354 25.713 12.343 14.29-0.016 21.966-5.3049 38.223-26.336 11.017-14.253 15.729-17.762 23.85-17.762 8.3806 0 13.487 3.868 25.029 18.96 4.2966 5.6179 9.2697 11.71 11.051 13.538 7.5962 7.7938 16.173 11.583 26.25 11.598 9.3176 0.0134 14.207-2.3897 26.235-12.896 3.7639-3.2875 8.3697-6.7661 10.235-7.7302 9.0379-4.6711 16.628 0.3029 16.471 10.793-0.26313 17.539-13.02 45.685-29.885 65.934l-3.9758 4.7737-5.9446-1.7315c-8.494-2.474-28.695-6.448-40.461-7.9597-14.451-1.8566-55.324-1.8549-69.752 0.003-11.963 1.5404-32.146 5.503-40.462 7.9438l-5.946 1.7452-5.0865-5.4932v0.00008z" stroke="#fff" stroke-linecap="round" stroke-width="3.5955" fill="#ececec"/>
</svg>
