<?xml version="1.0" encoding="UTF-8" standalone="no"?>
<!-- Created with Inkscape (http://www.inkscape.org/) -->
<svg id="svg2295" xmlns:rdf="http://www.w3.org/1999/02/22-rdf-syntax-ns#" xmlns="http://www.w3.org/2000/svg" height="80" width="80" version="1.0" xmlns:cc="http://web.resource.org/cc/" xmlns:xlink="http://www.w3.org/1999/xlink" xmlns:dc="http://purl.org/dc/elements/1.1/">
 <defs id="defs2297">
  <linearGradient id="linearGradient2171">
   <stop id="stop2173" stop-color="#fff" offset="0"/>
   <stop id="stop2175" stop-color="#fff" stop-opacity=".50196" offset="1"/>
  </linearGradient>
  <linearGradient id="linearGradient2177" y2="50.409" xlink:href="#linearGradient2171" gradientUnits="userSpaceOnUse" x2="80.357" y1="49.821" x1="39.821"/>
 </defs>
 <metadata id="metadata2300">
  <rdf:RDF>
   <cc:Work rdf:about="">
    <dc:format>image/svg+xml</dc:format>
    <dc:type rdf:resource="http://purl.org/dc/dcmitype/StillImage"/>
   </cc:Work>
  </rdf:RDF>
 </metadata>
 <g id="layer1">
  <path id="path26" d="m31.075 6.9741c1.694-2.8854 6.467-2.2756 7.533 0.8353 1.188 2.1453-0.939 3.8606-1.921 5.5386 1.183 1.024 2.364 2.052 3.551 3.077 1.182-1.183 2.364-2.368 3.533-3.568-1.691-2.796-1.449-7.1657 2.458-7.7108 4.649-0.8506 6.043 4.9898 3.801 8.1168 4.167 5.24 7.965 11.058 9.255 17.736 1.458 7.649-0.483 15.539-3.786 22.456 0.109 3.43-0.162 6.855-0.708 10.242 5.847-2.3 13.039-3.399 18.599 0.19 3.619 2.437 3.433 7.207 3.011 11.038-8.447-4.53-18.374-3.931-27.525-2.42-4.549-4.916-13.249-4.826-17.824 0.018-9.162-1.618-19.026-1.994-27.551 2.325-0.2678-3.879-0.477-8.716 3.2838-11.083 5.5752-3.422 12.676-2.379 18.461-0.024-0.594-3.433-0.851-6.912-0.733-10.393-3.381-5.98-6.344-12.933-4.758-19.927 1.855-7.577 6.803-13.858 11.616-19.804-0.587-2.125-1.807-4.611-0.296-6.6429z" stroke="#000" stroke-miterlimit="10" stroke-width=".12278" fill="none"/>
  <path id="path28" d="m31.075 6.9741c1.694-2.8854 6.467-2.2756 7.533 0.8353 1.188 2.1453-0.939 3.8606-1.921 5.5386 1.183 1.024 2.364 2.052 3.551 3.077 1.182-1.183 2.364-2.368 3.533-3.568-1.691-2.796-1.449-7.1657 2.458-7.7108 4.649-0.8506 6.043 4.9898 3.801 8.1168 4.167 5.24 7.965 11.058 9.255 17.736 1.458 7.649-0.483 15.539-3.786 22.456 0.109 3.43-0.162 6.855-0.708 10.242 5.847-2.3 13.039-3.399 18.599 0.19 3.619 2.437 3.433 7.207 3.011 11.038-8.447-4.53-18.374-3.931-27.525-2.42-4.549-4.916-13.249-4.826-17.824 0.018-9.162-1.618-19.026-1.994-27.551 2.325-0.2678-3.879-0.477-8.716 3.2838-11.083 5.5752-3.422 12.676-2.379 18.461-0.024-0.594-3.433-0.851-6.912-0.733-10.393-3.381-5.98-6.344-12.933-4.758-19.927 1.855-7.577 6.803-13.858 11.616-19.804-0.587-2.125-1.807-4.611-0.296-6.6429z" fill="#1f1a17"/>
  <path id="path50" d="m40.318 18.906c4.011-2.189 7.413 1.941 9.289 5.004 3.826 6.174 7.128 14.285 4.055 21.39-3.763-2.705-3.728-7.873-5.279-11.867-1.264-5.582-6.209-9.252-8.065-14.527z" stroke="#fff" stroke-miterlimit="10" stroke-width=".12278" fill="none"/>
  <path id="path52" d="m40.318 18.906c4.011-2.189 7.413 1.941 9.289 5.004 3.826 6.174 7.128 14.285 4.055 21.39-3.763-2.705-3.728-7.873-5.279-11.867-1.264-5.582-6.209-9.252-8.065-14.527z" fill="url(#linearGradient2177)"/>
  <path id="path86" d="m26.608 50.381c0.232-3.674 4.457-4.072 7.258-4.644 5.447-0.638 11.172-0.824 16.441 0.929 1.266 0.59 4.595 2.115 2.258 3.743-8.631-1.3-17.321-1.251-25.957-0.028z" stroke="#fff" stroke-miterlimit="10" stroke-width=".12278" fill="none"/>
  <path id="path88" d="m26.608 50.381c0.232-3.674 4.457-4.072 7.258-4.644 5.447-0.638 11.172-0.824 16.441 0.929 1.266 0.59 4.595 2.115 2.258 3.743-8.631-1.3-17.321-1.251-25.957-0.028z" fill="url(#linearGradient2177)"/>
  <path id="path98" d="m36.104 52.338c2.764-0.653 5.674-0.832 8.253 0.61-2.567 1.278-6.345 2.23-8.253-0.61z" stroke="#fff" stroke-miterlimit="10" stroke-width=".12278" fill="none"/>
  <path id="path100" d="m36.104 52.338c2.764-0.653 5.674-0.832 8.253 0.61-2.567 1.278-6.345 2.23-8.253-0.61z" fill="url(#linearGradient2177)"/>
  <path id="path106" d="m28.118 54.245c3.968-1.627-0.17 3.993 0 0z" stroke="#fff" stroke-miterlimit="10" stroke-width=".12278" fill="none"/>
  <path id="path108" d="m28.118 54.245c3.968-1.627-0.17 3.993 0 0z" fill="url(#linearGradient2177)"/>
  <path id="path110" d="m50.16 54.321c3.678-2.007 0.542 3.983 0 0z" stroke="#fff" stroke-miterlimit="10" stroke-width=".12278" fill="none"/>
  <path id="path112" d="m50.16 54.321c3.678-2.007 0.542 3.983 0 0z" fill="url(#linearGradient2177)"/>
  <path id="path130" d="m27.753 62.64c-0.373-4.185 4.335-4.72 7.391-5.519 5.588-0.832 12.199-0.897 16.736 2.961 0.008 0.712 0.022 2.134 0.029 2.845-7.955-2.035-16.13-1.323-24.156-0.287z" stroke="#fff" stroke-miterlimit="10" stroke-width=".12278" fill="none"/>
  <path id="path132" d="m27.753 62.64c-0.373-4.185 4.335-4.72 7.391-5.519 5.588-0.832 12.199-0.897 16.736 2.961 0.008 0.712 0.022 2.134 0.029 2.845-7.955-2.035-16.13-1.323-24.156-0.287z" fill="url(#linearGradient2177)"/>
 </g>
</svg>
