<?xml version="1.0" encoding="UTF-8" standalone="no"?>
<!-- Created with Inkscape (http://www.inkscape.org/) -->
<svg id="svg2295" xmlns:rdf="http://www.w3.org/1999/02/22-rdf-syntax-ns#" xmlns="http://www.w3.org/2000/svg" height="80" width="80" version="1.0" xmlns:cc="http://web.resource.org/cc/" xmlns:xlink="http://www.w3.org/1999/xlink" xmlns:dc="http://purl.org/dc/elements/1.1/">
 <defs id="defs2297">
  <linearGradient id="linearGradient2177">
   <stop id="stop2179" stop-color="#fff" offset="0"/>
   <stop id="stop2181" stop-color="#fff" stop-opacity=".50196" offset="1"/>
  </linearGradient>
  <linearGradient id="linearGradient2183" y2="50.179" xlink:href="#linearGradient2177" gradientUnits="userSpaceOnUse" x2="80.357" y1="50.357" x1="40"/>
 </defs>
 <metadata id="metadata2300">
  <rdf:RDF>
   <cc:Work rdf:about="">
    <dc:format>image/svg+xml</dc:format>
    <dc:type rdf:resource="http://purl.org/dc/dcmitype/StillImage"/>
   </cc:Work>
  </rdf:RDF>
 </metadata>
 <g id="layer1">
  <path id="path30" d="m29.412 5.0662c7.097-0.0046 14.194-0.0047 21.292 0.0001 0.001 5.2957-0.001 10.592 0 15.888 4.139-2.655 8.881-4.922 13.947-4.344 6.368 0.314 12.33 5.762 12.242 12.326-0.071 8.848-5.796 16.547-12.41 21.92-0.399 6.043-0.714 12.091-1.057 18.137-5.647 5.57-14.066 5.593-21.466 5.751-6.903-0.078-14.126 0.257-20.62-2.469-1.991-1.007-4.587-2.356-4.69-4.887-0.503-5.509-0.616-11.046-1.024-16.561-6.7266-5.242-12.182-13.089-12.462-21.835-0.1711-6.644 5.9657-12.051 12.344-12.392 5.044-0.532 9.772 1.715 13.905 4.358-0.002-5.298-0.005-10.595-0.001-15.892z" stroke="#000" stroke-miterlimit="10" stroke-width=".12543" fill="none"/>
  <path id="path32" d="m29.406 5.0625c-0.004 5.2975-0.001 10.608 0 15.906-4.133-2.642-8.862-4.906-13.906-4.374-6.3786 0.341-12.515 5.763-12.344 12.406 0.2795 8.746 5.7428 16.571 12.469 21.812 0.408 5.516 0.529 11.055 1.031 16.563 0.104 2.531 2.697 3.9 4.688 4.906 6.493 2.727 13.722 2.39 20.625 2.469 7.399-0.159 15.821-0.18 21.469-5.75 0.342-6.047 0.632-12.113 1.031-18.156 6.614-5.373 12.366-13.059 12.437-21.906 0.089-6.565-5.882-12-12.25-12.313-5.066-0.578-9.798 1.689-13.937 4.344-0.001-5.296 0.001-10.611 0-15.906-7.099-0.0053-14.216-0.0052-21.313-0.0005zm10.156 19.968c2.328-0.194 4.883 1.379 4.938 3.875 0.517 3.685-4.529 5.879-7.219 3.625-2.327-1.436-2.237-5.32 0.125-6.687 0.628-0.491 1.381-0.748 2.156-0.813z" fill="#1f1a17"/>
  <path id="path34" d="m32.066 9.7775c0.831-1.0558 1.668-2.1097 2.511-3.1615 1.854 1.539 3.672 3.1243 5.476 4.727 1.805-1.6017 3.624-3.1867 5.486-4.7262 0.835 1.051 1.67 2.1041 2.507 3.1592-1.582 1.438-3.169 2.87-4.75 4.302 1.657 1.513 3.313 3.03 4.95 4.573-0.656 0.754-1.969 2.262-2.625 3.016-1.874-1.565-3.724-3.158-5.559-4.762-1.848 1.599-3.699 3.192-5.571 4.756-0.656-0.752-1.968-2.257-2.624-3.01 1.63-1.543 3.286-3.061 4.951-4.571-1.591-1.432-3.174-2.865-4.752-4.3025z" stroke="#fff" stroke-miterlimit="10" stroke-width=".12543" fill="none"/>
  <path id="path36" d="m32.066 9.7775c0.831-1.0558 1.668-2.1097 2.511-3.1615 1.854 1.539 3.672 3.1243 5.476 4.727 1.805-1.6017 3.624-3.1867 5.486-4.7262 0.835 1.051 1.67 2.1041 2.507 3.1592-1.582 1.438-3.169 2.87-4.75 4.302 1.657 1.513 3.313 3.03 4.95 4.573-0.656 0.754-1.969 2.262-2.625 3.016-1.874-1.565-3.724-3.158-5.559-4.762-1.848 1.599-3.699 3.192-5.571 4.756-0.656-0.752-1.968-2.257-2.624-3.01 1.63-1.543 3.286-3.061 4.951-4.571-1.591-1.432-3.174-2.865-4.752-4.3025z" fill="url(#linearGradient2183)"/>
  <path id="path62" d="m12.587 32.755c0.173-5.064 6.499-6.449 10.404-4.799 7.244 2.312 10.828 9.677 13.353 16.265 2.496-0.028 4.998-0.052 7.502-0.098 2.393-6.616 6.25-13.653 13.267-16.162 3.886-1.689 10.243-0.25 10.41 4.801-0.207 5.647-3.709 10.486-7.956 13.933 1.05 1.511 1.792 3.161 1.73 5.05-6.412-1.354-12.782-3.155-19.379-3.281-7.851-0.418-15.5 1.587-23.088 3.28-0.084-1.89 0.636-3.543 1.744-5.029-4.283-3.433-7.821-8.284-7.987-13.96z" stroke="#fff" stroke-miterlimit="10" stroke-width=".12543" fill="none"/>
  <path id="path64" d="m12.587 32.755c0.173-5.064 6.499-6.449 10.404-4.799 7.244 2.312 10.828 9.677 13.353 16.265 2.496-0.028 4.998-0.052 7.502-0.098 2.393-6.616 6.25-13.653 13.267-16.162 3.886-1.689 10.243-0.25 10.41 4.801-0.207 5.647-3.709 10.486-7.956 13.933 1.05 1.511 1.792 3.161 1.73 5.05-6.412-1.354-12.782-3.155-19.379-3.281-7.851-0.418-15.5 1.587-23.088 3.28-0.084-1.89 0.636-3.543 1.744-5.029-4.283-3.433-7.821-8.284-7.987-13.96z" fill="url(#linearGradient2183)"/>
  <path id="path70" d="m18.094 35.187c-0.298-2.161 1.721-3.041 3.525-2.323 5.288 1.321 7.689 6.814 9.71 11.328-2.112 0.349-4.225 0.686-6.338 0.996-2.455-3.201-5.599-6.086-6.897-10.001z" stroke="#000" stroke-miterlimit="10" stroke-width=".12543" fill="none"/>
  <path id="path72" d="m18.094 35.187c-0.298-2.161 1.721-3.041 3.525-2.323 5.288 1.321 7.689 6.814 9.71 11.328-2.112 0.349-4.225 0.686-6.338 0.996-2.455-3.201-5.599-6.086-6.897-10.001z"/>
  <path id="path74" d="m48.779 44.169c2.071-4.776 4.732-10.983 10.7-11.506 2.134-0.645 3.071 1.942 2.212 3.489-1.562 3.439-4.298 6.143-6.632 9.053-2.1-0.329-4.19-0.69-6.28-1.036z" stroke="#000" stroke-miterlimit="10" stroke-width=".12543" fill="none"/>
  <path id="path76" d="m48.779 44.169c2.071-4.776 4.732-10.983 10.7-11.506 2.134-0.645 3.071 1.942 2.212 3.489-1.562 3.439-4.298 6.143-6.632 9.053-2.1-0.329-4.19-0.69-6.28-1.036z"/>
  <path id="path102" d="m36.145 53.31c2.281-1.501 5.439-1.482 7.763-0.072 2.078 4.685-9.573 4.772-7.763 0.072z" stroke="#fff" stroke-miterlimit="10" stroke-width=".12543" fill="none"/>
  <path id="path104" d="m36.145 53.31c2.281-1.501 5.439-1.482 7.763-0.072 2.078 4.685-9.573 4.772-7.763 0.072z" fill="url(#linearGradient2183)"/>
  <path id="path114" d="m19.053 59.049c0.433-3.289 3.809-3.01 6.242-2.701-1.531 1.981-3.842 2.644-6.242 2.701z" stroke="#fff" stroke-miterlimit="10" stroke-width=".12543" fill="none"/>
  <path id="path116" d="m19.053 59.049c0.433-3.289 3.809-3.01 6.242-2.701-1.531 1.981-3.842 2.644-6.242 2.701z" fill="url(#linearGradient2183)"/>
  <path id="path118" d="m54.976 57.625c1.741-2.499 6.089-1.777 5.801 1.687-1.961-0.483-3.898-1.034-5.801-1.687z" stroke="#fff" stroke-miterlimit="10" stroke-width=".12543" fill="none"/>
  <path id="path120" d="m54.976 57.625c1.741-2.499 6.089-1.777 5.801 1.687-1.961-0.483-3.898-1.034-5.801-1.687z" fill="url(#linearGradient2183)"/>
  <path id="path138" d="m20.005 64.093c5.094-2.965 11.25-2.617 16.936-3.044 7.908-0.003 16.255-0.322 23.604 3.073-0.627 0.536-1.881 1.608-2.508 2.145-10.506-2.436-21.608-2.859-32.197-0.722-2.184 0.319-5.525 1.979-5.835-1.452z" stroke="#fff" stroke-miterlimit="10" stroke-width=".12543" fill="none"/>
  <path id="path140" d="m20.005 64.093c5.094-2.965 11.25-2.617 16.936-3.044 7.908-0.003 16.255-0.322 23.604 3.073-0.627 0.536-1.881 1.608-2.508 2.145-10.506-2.436-21.608-2.859-32.197-0.722-2.184 0.319-5.525 1.979-5.835-1.452z" fill="url(#linearGradient2183)"/>
 </g>
</svg>
