<?xml version="1.0" encoding="UTF-8" standalone="no"?>
<!-- Created with Inkscape (http://www.inkscape.org/) -->
<svg id="svg2295" xmlns:rdf="http://www.w3.org/1999/02/22-rdf-syntax-ns#" xmlns="http://www.w3.org/2000/svg" height="80" width="80" version="1.0" xmlns:cc="http://web.resource.org/cc/" xmlns:xlink="http://www.w3.org/1999/xlink" xmlns:dc="http://purl.org/dc/elements/1.1/">
 <defs id="defs2297">
  <linearGradient id="linearGradient2167">
   <stop id="stop2169" stop-color="#fff" offset="0"/>
   <stop id="stop2171" stop-color="#fff" stop-opacity=".50196" offset="1"/>
  </linearGradient>
  <linearGradient id="linearGradient2173" y2="50.179" xlink:href="#linearGradient2167" gradientUnits="userSpaceOnUse" x2="80.357" y1="50.179" x1="39.821"/>
  <linearGradient id="linearGradient2175" y2="50.179" xlink:href="#linearGradient2167" gradientUnits="userSpaceOnUse" x2="80.357" gradientTransform="matrix(.77762 -.051346 .051346 .77762 6.7587 .97565)" y1="50.179" x1="39.821"/>
  <linearGradient id="linearGradient2177" y2="50.179" xlink:href="#linearGradient2167" gradientUnits="userSpaceOnUse" x2="80.357" gradientTransform="matrix(.60318 -.30525 .30525 .60318 -10.027 24.27)" y1="50.179" x1="39.821"/>
 </defs>
 <metadata id="metadata2300">
  <rdf:RDF>
   <cc:Work rdf:about="">
    <dc:format>image/svg+xml</dc:format>
    <dc:type rdf:resource="http://purl.org/dc/dcmitype/StillImage"/>
   </cc:Work>
  </rdf:RDF>
 </metadata>
 <g id="layer2">
  <path id="path2197" d="m12.445 56.72c1.267 1.273 4.431 1.305 6 0.172 1.243-1.531 3.054-2.321 3.54-4.348 0.846-2.674-2.628-4.225-4.414-2.331-2.041 1.932-6.52 5.277-5.126 6.507z" stroke="#201917" stroke-width="1.948" fill="#fff"/>
 </g>
 <g id="layer1">
  <path id="path16" d="m26.893 13.184c0.282-2.711 0.458-5.4312 0.59-8.1533 2.724 4.1119 6.167 8.5023 11.475 9.0173 10.656 1.607 20.719 7.733 26.264 17.089 7.949 13.057 8.585 29.277 4.792 43.792-14.115-0.009-28.229 0.023-42.342-0.003-1.676-0.046-4.73 0.083-4.309-2.494 1.027-5.443 5.213-9.82 9.996-12.362 6.06-3.631 7.727-11.115 7.81-17.688-3.39 3.139-9.05 6.762-14.129 6.656-2.949 4.743-3.799 7.719-10.059 9.331-0.837-0.931 0.098-2.056 1.287-5.363-1.39 1.455-3.42 3.377-6.323 4.568-2.9926-2.632-4.6564-6.341-3.0994-10.746 1.2854-1.933 0.7758-2.35 2.5184-3.983 2.261-2.119 5.485-7.248 6.14-11.096 0.634-4.325 2.992-8.064 5.537-11.511-1.65-3.835-2.358-7.971-2.255-12.136 2.041 1.6849 4.012 3.456 6.107 5.082z" fill="#1f1a17"/>
  <path id="path44" d="m29.784 12.301c1.078 1.469 2.756 2.981 4.301 3.994 0.068 1.354 0.807 3.783-1.401 3.685-4.078 0.402-3.448-5.225-2.9-7.679z" fill="url(#linearGradient2175)"/>
  <path id="path48" d="m40.314 17.64c8.677-0.041 17.968 8.947 20.561 12.595 9.004 10.831 9.304 26.249 7.273 39.857 0.451 2.483-2.256 2.168-3.833 2.701 0.156-11.2 1.165-22.905-3.68-33.393-4.179-8.719-11.875-15.503-20.742-19.214 0.105-0.637 0.316-1.91 0.421-2.546z" fill="url(#linearGradient2173)"/>
  <path id="path84" d="m11.321 49.213c0.866-1.374 2.711-1.356 4.079-1.878-0.888 1.81-1.306 4.377-3.447 5.096-0.62-0.878-1.475-2.196-0.632-3.218z" fill="url(#linearGradient2177)"/>
  <path id="path124" d="m24.413 32.252c2.474-1.866 4.893-0.706 7.536 0.085-2.924 1.637-6.428 4.582-8.772 3.172-0.949-0.572-0.151-2.211 1.236-3.257z" fill="#fff"/>
 </g>
</svg>
