<?xml version="1.0" encoding="UTF-8" standalone="no"?>
<!-- Created with Inkscape (http://www.inkscape.org/) -->
<svg id="svg2295" xmlns:rdf="http://www.w3.org/1999/02/22-rdf-syntax-ns#" xmlns="http://www.w3.org/2000/svg" height="80" width="80" version="1.0" xmlns:cc="http://web.resource.org/cc/" xmlns:dc="http://purl.org/dc/elements/1.1/">
 <metadata id="metadata2300">
  <rdf:RDF>
   <cc:Work rdf:about="">
    <dc:format>image/svg+xml</dc:format>
    <dc:type rdf:resource="http://purl.org/dc/dcmitype/StillImage"/>
   </cc:Work>
  </rdf:RDF>
 </metadata>
 <g id="layer1">
  <path id="flowRoot2160" d="m17.694 16.788h-7.2c-0.02-0.628 0.224-1.084 0.732-1.368 0.396-0.22 0.932-0.328 1.608-0.324l0.036-0.51c-0.248-0.136-0.372-0.406-0.372-0.81 0-0.508 0.216-1.16 0.648-1.956v-0.786h-2.166c-0.032-0.236 0.03-0.504 0.186-0.804 0.394-0.8571 1.425-0.8719 2.058-1.4041-0.084-0.128-0.136-0.214-0.156-0.258-0.052-0.108-0.08-0.202-0.084-0.282-0.008-0.296 0.1-0.546 0.324-0.75 0.224-0.208 0.486-0.312 0.786-0.312 0.296 0 0.556 0.104 0.78 0.312 0.228 0.204 0.338 0.454 0.33 0.75-0.008 0.268-0.088 0.448-0.24 0.54 0.04 0.164 0.286 0.306 0.738 0.426 1.016 0.272 1.524 0.8041 1.524 1.5961 0 0.08-0.006 0.142-0.018 0.186h-2.166v0.786c0.436 0.796 0.654 1.448 0.654 1.956 0 0.404-0.126 0.674-0.378 0.81l0.036 0.51c0.92-0.008 1.578 0.194 1.974 0.606 0.252 0.264 0.378 0.578 0.378 0.942 0 0.06-0.004 0.108-0.012 0.144" transform="matrix(6.5722 0 0 6.5722 -52.808 -37.477)" fill="#1f1a17"/>
 </g>
</svg>
