<?xml version="1.0" encoding="UTF-8" standalone="no"?>
<!-- Created with Inkscape (http://www.inkscape.org/) -->
<svg id="svg2295" xmlns:rdf="http://www.w3.org/1999/02/22-rdf-syntax-ns#" xmlns="http://www.w3.org/2000/svg" height="80" width="80" version="1.0" xmlns:cc="http://web.resource.org/cc/" xmlns:xlink="http://www.w3.org/1999/xlink" xmlns:dc="http://purl.org/dc/elements/1.1/">
 <defs id="defs2297">
  <linearGradient id="linearGradient2163">
   <stop id="stop2165" stop-color="#fff" offset="0"/>
   <stop id="stop2167" stop-color="#fff" stop-opacity=".50196" offset="1"/>
  </linearGradient>
  <linearGradient id="linearGradient2169" y2="50.357" xlink:href="#linearGradient2163" gradientUnits="userSpaceOnUse" x2="80.357" y1="50.357" x1="40.179"/>
 </defs>
 <metadata id="metadata2300">
  <rdf:RDF>
   <cc:Work rdf:about="">
    <dc:format>image/svg+xml</dc:format>
    <dc:type rdf:resource="http://purl.org/dc/dcmitype/StillImage"/>
   </cc:Work>
  </rdf:RDF>
 </metadata>
 <g id="layer1">
  <path id="path22" d="m16.384 10.06c3.147-0.001 6.295-0.001 9.444-0.001-0.002 2.361-0.002 4.722-0.002 7.083h8.265c-0.001-2.361-0.002-4.722-0.001-7.083h11.805c-0.002 2.361-0.002 4.722-0.001 7.083h8.265c-0.002-2.361-0.003-4.722-0.002-7.083 3.147 0 6.295 0 9.444 0.001-0.001 4.346-0.001 8.692 0 13.039-1.967 2.03-3.936 4.057-5.903 6.086 0.008 8.593-0.016 17.185 0.014 25.778 3.584 3.224 4.63 8.213 8.424 11.223 0.054 2.932 0.051 5.864 0.054 8.796-17.391 0-34.781-0.001-52.171 0.001-0.001-2.926 0-5.852 0.037-8.776 3.717-3.301 5.207-8.325 9.403-11.21 0.017-8.603 0.002-17.205 0.008-25.807-2.362-2.03-4.724-4.058-7.084-6.089 0.001-4.347 0-8.694 0.001-13.041z" stroke="#000" stroke-miterlimit="10" stroke-width=".11804" fill="none"/>
  <path id="path24" d="m16.384 10.06c3.147-0.001 6.295-0.001 9.444-0.001-0.002 2.361-0.002 4.722-0.002 7.083h8.265c-0.001-2.361-0.002-4.722-0.001-7.083h11.805c-0.002 2.361-0.002 4.722-0.001 7.083h8.265c-0.002-2.361-0.003-4.722-0.002-7.083 3.147 0 6.295 0 9.444 0.001-0.001 4.346-0.001 8.692 0 13.039-1.967 2.03-3.936 4.057-5.903 6.086 0.008 8.593-0.016 17.185 0.014 25.778 3.584 3.224 4.63 8.213 8.424 11.223 0.054 2.932 0.051 5.864 0.054 8.796-17.391 0-34.781-0.001-52.171 0.001-0.001-2.926 0-5.852 0.037-8.776 3.717-3.301 5.207-8.325 9.403-11.21 0.017-8.603 0.002-17.205 0.008-25.807-2.362-2.03-4.724-4.058-7.084-6.089 0.001-4.347 0-8.694 0.001-13.041z" fill="#1f1a17"/>
  <path id="path54" d="m25.828 26.585h29.51c-0.002 1.967-0.002 3.934 0 5.902h-29.511c-0.001-1.968-0.001-3.935 0.001-5.902z" stroke="#fff" stroke-miterlimit="10" stroke-width=".11804" fill="none"/>
  <path id="path56" d="m25.828 26.585h29.51c-0.002 1.967-0.002 3.934 0 5.902h-29.511c-0.001-1.968-0.001-3.935 0.001-5.902z" fill="url(#linearGradient2169)"/>
  <path id="path90" d="m25.827 53.735h29.511c-0.002 1.573-0.002 3.147 0 4.722-9.837-0.001-19.674 0-29.511 0-0.001-1.575-0.001-3.149 0-4.722z" stroke="#fff" stroke-miterlimit="10" stroke-width=".11804" fill="none"/>
  <path id="path92" d="m25.827 53.735h29.511c-0.002 1.573-0.002 3.147 0 4.722-9.837-0.001-19.674 0-29.511 0-0.001-1.575-0.001-3.149 0-4.722z" fill="url(#linearGradient2169)"/>
 </g>
</svg>
