<?xml version="1.0" encoding="UTF-8" standalone="no"?>
<!-- Created with Inkscape (http://www.inkscape.org/) -->
<svg id="svg2339" xmlns:rdf="http://www.w3.org/1999/02/22-rdf-syntax-ns#" xmlns="http://www.w3.org/2000/svg" height="80" width="80" version="1.0" xmlns:cc="http://web.resource.org/cc/" xmlns:xlink="http://www.w3.org/1999/xlink" xmlns:dc="http://purl.org/dc/elements/1.1/">
 <defs id="defs2341">
  <linearGradient id="linearGradient2178">
   <stop id="stop2180" stop-color="#fff" offset="0"/>
   <stop id="stop2182" stop-color="#fff" stop-opacity=".50196" offset="1"/>
  </linearGradient>
  <linearGradient id="linearGradient2184" y2="49.634" xlink:href="#linearGradient2178" gradientUnits="userSpaceOnUse" x2="80" y1="49.634" x1="39.821"/>
 </defs>
 <metadata id="metadata2344">
  <rdf:RDF>
   <cc:Work rdf:about="">
    <dc:format>image/svg+xml</dc:format>
    <dc:type rdf:resource="http://purl.org/dc/dcmitype/StillImage"/>
   </cc:Work>
  </rdf:RDF>
 </metadata>
 <g id="layer1">
  <path id="path18" d="m31.325 7.0906c1.73-3.0141 6.753-2.5562 7.897 0.7419 0.974 2.1785-0.809 4.1295-1.577 6.0485 1.118 1.06 2.239 2.12 3.365 3.178 1.187-1.225 2.369-2.457 3.546-3.695-0.495-1.922-2.09-4.0456-0.842-5.9986 1.441-2.9009 6.13-3.1436 7.728-0.2573 1.476 1.9747-0.046 4.2509-0.619 6.2409 3.505 4.694 6.805 9.717 8.299 15.451 1.961 7.148 0.734 14.765-1.705 21.637-1.782 4.281-1.075 9.026-1.902 13.506 6.188-0.778 13.279-2.145 18.852 1.484 3.085 2.064 2.759 6.08 2.684 9.317h-1.246c-8.431-2.453-17.262-1.848-25.918-1.632-4.379-5.652-13.73-5.601-18.128 0-8.636-0.207-17.459-0.832-25.864 1.632h-1.5469c0.2264-3.225-0.141-7.253 2.9354-9.311 5.5715-3.629 12.66-2.272 18.85-1.49-0.506-3.47-0.741-6.971-0.748-10.476-3.22-5.842-6.081-12.512-4.785-19.32 1.6-7.751 6.636-14.136 11.408-20.221-0.524-2.183-2.195-4.681-0.684-6.8354z" stroke="#000" stroke-miterlimit="10" stroke-width=".10989" fill="none"/>
  <path id="path20" d="m31.325 7.0906c1.73-3.0141 6.753-2.5562 7.897 0.7419 0.974 2.1785-0.809 4.1295-1.577 6.0485 1.118 1.06 2.239 2.12 3.365 3.178 1.187-1.225 2.369-2.457 3.546-3.695-0.495-1.922-2.09-4.0456-0.842-5.9986 1.441-2.9009 6.13-3.1436 7.728-0.2573 1.476 1.9747-0.046 4.2509-0.619 6.2409 3.505 4.694 6.805 9.717 8.299 15.451 1.961 7.148 0.734 14.765-1.705 21.637-1.782 4.281-1.075 9.026-1.902 13.506 6.188-0.778 13.279-2.145 18.852 1.484 3.085 2.064 2.759 6.08 2.684 9.317h-1.246c-8.431-2.453-17.262-1.848-25.918-1.632-4.379-5.652-13.73-5.601-18.128 0-8.636-0.207-17.459-0.832-25.864 1.632h-1.5469c0.2264-3.225-0.141-7.253 2.9354-9.311 5.5715-3.629 12.66-2.272 18.85-1.49-0.506-3.47-0.741-6.971-0.748-10.476-3.22-5.842-6.081-12.512-4.785-19.32 1.6-7.751 6.636-14.136 11.408-20.221-0.524-2.183-2.195-4.681-0.684-6.8354z"/>
  <path id="path38" d="m33.336 8.1517c1.183-1.0541 3.516-1.0345 3.356 1.015 0.086 3.0823-4.604 1.7743-3.356-1.015z" stroke="#fff" stroke-miterlimit="10" stroke-width=".10989" fill="none"/>
  <path id="path40" fill="#fff" d="m33.336 8.1517c1.183-1.0541 3.516-1.0345 3.356 1.015 0.086 3.0823-4.604 1.7743-3.356-1.015z"/>
  <path id="path42" d="m46.004 8.4314c1.836-2.655 3.961 0.2548 3.336 2.4516-1.74 0.177-3.993-0.181-3.336-2.4516z" stroke="#fff" stroke-miterlimit="10" stroke-width=".10989" fill="none"/>
  <path id="path44" fill="#fff" d="m46.004 8.4314c1.836-2.655 3.961 0.2548 3.336 2.4516-1.74 0.177-3.993-0.181-3.336-2.4516z"/>
  <path id="path82" d="m42.518 19.546c1.751-1.826 3.488-3.667 5.217-5.516 3.84 5.508 7.751 11.283 8.981 18.016 0.91 4.561 0.282 9.245-0.877 13.699-1.102-10.073-6.255-19.106-13.321-26.199z" stroke="#fff" stroke-miterlimit="10" stroke-width=".10989" fill="none"/>
  <path id="path84" d="m42.518 19.546c1.751-1.826 3.488-3.667 5.217-5.516 3.84 5.508 7.751 11.283 8.981 18.016 0.91 4.561 0.282 9.245-0.877 13.699-1.102-10.073-6.255-19.106-13.321-26.199z" fill="url(#linearGradient2184)"/>
  <path id="path86" d="m34.875 14.939c7.077 6.936 13.594 14.845 17.118 24.216 1.354 3.354 1.256 7.039 0.296 10.479-7.902-2.973-16.837-2.866-24.78-0.098-3.262-3.945-5.469-9.145-4.087-14.31 1.943-7.579 5.731-14.867 11.453-20.287z" stroke="#fff" stroke-miterlimit="10" stroke-width=".10989" fill="none"/>
  <path id="path88" d="m34.875 14.939c7.077 6.936 13.594 14.845 17.118 24.216 1.354 3.354 1.256 7.039 0.296 10.479-7.902-2.973-16.837-2.866-24.78-0.098-3.262-3.945-5.469-9.145-4.087-14.31 1.943-7.579 5.731-14.867 11.453-20.287z" fill="url(#linearGradient2184)"/>
  <path id="path142" d="m28.445 52.719c5.507-2.884 12.038-2.322 18.037-1.971 2.364 0.491 5.773 0.34 6.833 3.002-0.467 0.594-1.402 1.782-1.869 2.377 0.997 1.443 1.518 3.109 1.982 4.785-8.321-1.495-16.888-1.493-25.208 0 0.453-1.66 0.973-3.311 1.963-4.739-0.958-0.978-1.538-2.129-1.738-3.454z" stroke="#fff" stroke-miterlimit="10" stroke-width=".10989" fill="none"/>
  <path id="path144" d="m28.445 52.719c5.507-2.884 12.038-2.322 18.037-1.971 2.364 0.491 5.773 0.34 6.833 3.002-0.467 0.594-1.402 1.782-1.869 2.377 0.997 1.443 1.518 3.109 1.982 4.785-8.321-1.495-16.888-1.493-25.208 0 0.453-1.66 0.973-3.311 1.963-4.739-0.958-0.978-1.538-2.129-1.738-3.454z" fill="url(#linearGradient2184)"/>
  <path id="path154" d="m38.958 54.261c1.738-0.661 4.35-0.597 4.837 1.608-1.77 1.13-3.974 1.098-5.82 0.175 0.246-0.446 0.737-1.337 0.983-1.783z" stroke="#000" stroke-miterlimit="10" stroke-width=".10989" fill="none"/>
  <path id="path156" d="m38.958 54.261c1.738-0.661 4.35-0.597 4.837 1.608-1.77 1.13-3.974 1.098-5.82 0.175 0.246-0.446 0.737-1.337 0.983-1.783z"/>
  <path id="path170" d="m29.542 63.835c7.184-2.375 15.377-2.377 22.56 0.005-3.069 2.806-7.443 2.243-11.268 2.413-3.835-0.169-8.223 0.399-11.292-2.418z" stroke="#fff" stroke-miterlimit="10" stroke-width=".10989" fill="none"/>
  <path id="path172" d="m29.542 63.835c7.184-2.375 15.377-2.377 22.56 0.005-3.069 2.806-7.443 2.243-11.268 2.413-3.835-0.169-8.223 0.399-11.292-2.418z" fill="url(#linearGradient2184)"/>
  <path id="path174" d="m6.3096 70.969c0.8733-2.707 3.038-4.685 5.9274-4.852 7.66-0.926 15.435 0.411 22.867 2.263-9.197 3.256-19.211 2.141-28.794 2.589z" stroke="#fff" stroke-miterlimit="10" stroke-width=".10989" fill="none"/>
  <path id="path176" d="m6.3096 70.969c0.8733-2.707 3.038-4.685 5.9274-4.852 7.66-0.926 15.435 0.411 22.867 2.263-9.197 3.256-19.211 2.141-28.794 2.589z" fill="url(#linearGradient2184)"/>
  <path id="path178" d="m46.551 68.361c7.747-1.834 15.887-3.4 23.832-2.045 2.586 0.273 4.049 2.426 4.963 4.651-9.58-0.461-19.614 0.699-28.795-2.606z" stroke="#fff" stroke-miterlimit="10" stroke-width=".10989" fill="none"/>
  <path id="path180" d="m46.551 68.361c7.747-1.834 15.887-3.4 23.832-2.045 2.586 0.273 4.049 2.426 4.963 4.651-9.58-0.461-19.614 0.699-28.795-2.606z" fill="url(#linearGradient2184)"/>
  <path id="path182" d="m31.759 73.112c4.398-5.601 13.749-5.652 18.128 0 8.656-0.216 17.487-0.821 25.918 1.632h-69.91c8.405-2.464 17.228-1.839 25.864-1.632z" stroke="#fff" stroke-miterlimit="10" stroke-width=".10989" fill="none"/>
 </g>
</svg>
