<?xml version="1.0" encoding="UTF-8" standalone="no"?>
<!-- Created with Inkscape (http://www.inkscape.org/) -->
<svg id="svg2339" xmlns:rdf="http://www.w3.org/1999/02/22-rdf-syntax-ns#" xmlns="http://www.w3.org/2000/svg" height="80" width="80" version="1.0" xmlns:cc="http://web.resource.org/cc/" xmlns:xlink="http://www.w3.org/1999/xlink" xmlns:dc="http://purl.org/dc/elements/1.1/">
 <defs id="defs2341">
  <linearGradient id="linearGradient2179">
   <stop id="stop2181" stop-color="#fff" offset="0"/>
   <stop id="stop2183" stop-color="#fff" stop-opacity=".50196" offset="1"/>
  </linearGradient>
  <linearGradient id="linearGradient2185" y2="50.179" xlink:href="#linearGradient2179" gradientUnits="userSpaceOnUse" x2="80.179" y1="50" x1="39.821"/>
 </defs>
 <metadata id="metadata2344">
  <rdf:RDF>
   <cc:Work rdf:about="">
    <dc:format>image/svg+xml</dc:format>
    <dc:type rdf:resource="http://purl.org/dc/dcmitype/StillImage"/>
   </cc:Work>
  </rdf:RDF>
 </metadata>
 <g id="layer1">
  <path id="path22" d="m29.332 5.1449c7.095-0.0012 14.192-0.0013 21.29 0.0001-0.007 5.292 0.033 10.583-0.039 15.875 3.984-2.482 8.438-4.759 13.287-4.363 6.125 0.094 12.459 4.72 12.829 11.143 0.721 9.337-5.384 17.612-12.31 23.209-0.419 5.824-0.467 11.682-1.112 17.486-1.373 2.997-4.925 4.223-7.882 5.101-7.738 1.734-15.759 1.409-23.625 1.081-5.216-0.481-11.284-1.155-14.83-5.492-1.186-5.95-0.82-12.173-1.394-18.229-6.8183-5.244-12.305-13.197-12.5-22.022-0.0845-6.844 6.4472-12.204 13-12.283 4.857-0.373 9.327 1.883 13.329 4.369-0.083-5.291-0.039-10.583-0.043-15.875z" stroke="#000" stroke-miterlimit="10" stroke-width=".11337" fill="none"/>
  <path id="path24" d="m29.344 5.1562c0.004 5.2918-0.052 10.584 0.031 15.875-4.002-2.486-8.487-4.748-13.344-4.375-6.553 0.079-13.084 5.438-13 12.282 0.1956 8.824 5.6817 16.786 12.5 22.031 0.574 6.056 0.221 12.268 1.407 18.219 3.546 4.337 9.627 5.019 14.843 5.5 7.866 0.328 15.888 0.64 23.625-1.094 2.957-0.878 6.503-2.096 7.875-5.094 0.646-5.804 0.675-11.676 1.094-17.5 6.926-5.597 13.034-13.85 12.313-23.188-0.371-6.422-6.688-11.062-12.813-11.156-4.85-0.396-9.297 1.893-13.281 4.375 0.072-5.291 0.023-10.583 0.031-15.875-7.098-0.0012-14.186-0.0009-21.281 0.0002zm4.281 20.844c4.229 0.026 8.453 0.029 12.687 0-2.525 3.369-4.602 7.048-6.343 10.875-1.742-3.83-3.823-7.504-6.344-10.875z"/>
  <path id="path54" d="m33.701 8.3253c4.181-0.0037 8.365-0.0043 12.552 0.0007-2.094 1.992-4.187 3.977-6.279 5.963-2.094-1.987-4.189-3.973-6.273-5.9637z" stroke="#fff" stroke-miterlimit="10" stroke-width=".11337" fill="none"/>
  <path id="path56" d="m33.701 8.3253c4.181-0.0037 8.365-0.0043 12.552 0.0007-2.094 1.992-4.187 3.977-6.279 5.963-2.094-1.987-4.189-3.973-6.273-5.9637z" fill="url(#linearGradient2185)"/>
  <path id="path70" d="m32.219 9.9214c1.987 2.0106 3.973 4.0216 5.964 6.0336-1.99 2.025-3.978 4.049-5.964 6.073-0.001-4.036-0.003-8.071 0-12.107z" stroke="#fff" stroke-miterlimit="10" stroke-width=".11337" fill="none"/>
  <path id="path72" d="m32.219 9.9214c1.987 2.0106 3.973 4.0216 5.964 6.0336-1.99 2.025-3.978 4.049-5.964 6.073-0.001-4.036-0.003-8.071 0-12.107z" fill="url(#linearGradient2185)"/>
  <path id="path74" d="m41.766 15.954c1.986-2.013 3.977-4.026 5.969-6.0381-0.002 4.0391-0.003 8.0781 0 12.117-1.992-2.026-3.983-4.052-5.969-6.079z" stroke="#fff" stroke-miterlimit="10" stroke-width=".11337" fill="none"/>
  <path id="path76" d="m41.766 15.954c1.986-2.013 3.977-4.026 5.969-6.0381-0.002 4.0391-0.003 8.0781 0 12.117-1.992-2.026-3.983-4.052-5.969-6.079z" fill="url(#linearGradient2185)"/>
  <path id="path94" d="m33.865 23.457c2.028-1.986 4.069-3.965 6.11-5.943 2.037 1.98 4.075 3.959 6.116 5.943-4.079 0.005-8.154 0.006-12.226 0z" stroke="#fff" stroke-miterlimit="10" stroke-width=".11337" fill="none"/>
  <path id="path96" d="m33.865 23.457c2.028-1.986 4.069-3.965 6.11-5.943 2.037 1.98 4.075 3.959 6.116 5.943-4.079 0.005-8.154 0.006-12.226 0z" fill="url(#linearGradient2185)"/>
  <path id="path98" d="m6.2738 31.288c-0.7967-4.591 2.2209-9.508 6.6942-10.829 5.424-1.591 11.443 0.289 15.495 4.102 5.39 4.935 8.273 11.867 10.467 18.687-7.58 0.297-15.416 0.981-22.171 4.749-4.965-4.398-9.6675-9.874-10.485-16.709z" stroke="#fff" stroke-miterlimit="10" stroke-width=".11337" fill="none"/>
  <path id="path100" d="m6.2738 31.288c-0.7967-4.591 2.2209-9.508 6.6942-10.829 5.424-1.591 11.443 0.289 15.495 4.102 5.39 4.935 8.273 11.867 10.467 18.687-7.58 0.297-15.416 0.981-22.171 4.749-4.965-4.398-9.6675-9.874-10.485-16.709z" fill="url(#linearGradient2185)"/>
  <path id="path102" d="m51.504 24.545c3.993-3.747 9.879-5.622 15.244-4.148 4.557 1.245 7.67 6.184 6.944 10.837-0.696 6.89-5.485 12.368-10.473 16.754-6.815-3.63-14.618-4.411-22.202-4.743 2.197-6.826 5.08-13.768 10.487-18.7z" stroke="#fff" stroke-miterlimit="10" stroke-width=".11337" fill="none"/>
  <path id="path104" d="m51.504 24.545c3.993-3.747 9.879-5.622 15.244-4.148 4.557 1.245 7.67 6.184 6.944 10.837-0.696 6.89-5.485 12.368-10.473 16.754-6.815-3.63-14.618-4.411-22.202-4.743 2.197-6.826 5.08-13.768 10.487-18.7z" fill="url(#linearGradient2185)"/>
  <path id="path138" d="m18.765 50.676c13.325-5.754 29.091-5.754 42.418-0.003-0.122 1.769-0.239 3.539-0.35 5.309-1.552 0.002-3.097 0.005-4.637 0.01 1.283 1.498 2.579 2.997 3.868 4.499 0.036 0.921 0.109 2.762 0.146 3.683-6.048-3.71-13.333-4.004-20.224-4.052-6.9 0.046-14.185 0.34-20.24 4.045 0.037-0.92 0.109-2.76 0.146-3.68 1.283-1.501 2.569-2.998 3.862-4.496-1.55-0.004-3.095-0.007-4.633-0.009-0.125-1.77-0.244-3.538-0.356-5.306z" stroke="#fff" stroke-miterlimit="10" stroke-width=".11337" fill="none"/>
  <path id="path140" d="m18.765 50.676c13.325-5.754 29.091-5.754 42.418-0.003-0.122 1.769-0.239 3.539-0.35 5.309-1.552 0.002-3.097 0.005-4.637 0.01 1.283 1.498 2.579 2.997 3.868 4.499 0.036 0.921 0.109 2.762 0.146 3.683-6.048-3.71-13.333-4.004-20.224-4.052-6.9 0.046-14.185 0.34-20.24 4.045 0.037-0.92 0.109-2.76 0.146-3.68 1.283-1.501 2.569-2.998 3.862-4.496-1.55-0.004-3.095-0.007-4.633-0.009-0.125-1.77-0.244-3.538-0.356-5.306z" fill="url(#linearGradient2185)"/>
  <path id="path150" d="m36.84 51.907c2.716-0.554 6.873-1.19 8.282 1.919-2.406 2.479-6.412 2.029-9.392 0.997-1.004-1.6-0.634-2.571 1.11-2.916z" stroke="#000" stroke-miterlimit="10" stroke-width=".11337" fill="none"/>
  <path id="path152" d="m36.84 51.907c2.716-0.554 6.873-1.19 8.282 1.919-2.406 2.479-6.412 2.029-9.392 0.997-1.004-1.6-0.634-2.571 1.11-2.916z"/>
  <path id="path166" d="m29.231 63.855c8.668-1.174 17.594-1.081 26.133 0.922 1.766 0.58 4.447 1.265 3.868 3.7-2.56 2.036-5.903 2.489-9.032 2.954-7.615 1.075-15.386 0.928-22.957-0.395-2.309-0.42-4.66-1.058-6.521-2.547-0.128-4.091 5.606-3.844 8.509-4.634z" stroke="#fff" stroke-miterlimit="10" stroke-width=".11337" fill="none"/>
  <path id="path168" d="m29.231 63.855c8.668-1.174 17.594-1.081 26.133 0.922 1.766 0.58 4.447 1.265 3.868 3.7-2.56 2.036-5.903 2.489-9.032 2.954-7.615 1.075-15.386 0.928-22.957-0.395-2.309-0.42-4.66-1.058-6.521-2.547-0.128-4.091 5.606-3.844 8.509-4.634z" fill="url(#linearGradient2185)"/>
 </g>
</svg>
