<?xml version="1.0" encoding="UTF-8" standalone="no"?>
<!-- Created with Inkscape (http://www.inkscape.org/) -->
<svg id="svg2339" xmlns:rdf="http://www.w3.org/1999/02/22-rdf-syntax-ns#" xmlns="http://www.w3.org/2000/svg" height="80" width="80" version="1.0" xmlns:cc="http://web.resource.org/cc/" xmlns:xlink="http://www.w3.org/1999/xlink" xmlns:dc="http://purl.org/dc/elements/1.1/">
 <defs id="defs2341">
  <linearGradient id="linearGradient2175" y2="49.845" gradientUnits="userSpaceOnUse" x2="80.181" y1="49.793" x1="40.261">
   <stop id="stop2171" stop-color="#fff" offset="0"/>
   <stop id="stop2173" stop-color="#fff" stop-opacity=".50373" offset="1"/>
  </linearGradient>
 </defs>
 <metadata id="metadata2344">
  <rdf:RDF>
   <cc:Work rdf:about="">
    <dc:format>image/svg+xml</dc:format>
    <dc:type rdf:resource="http://purl.org/dc/dcmitype/StillImage"/>
   </cc:Work>
  </rdf:RDF>
 </metadata>
 <g id="layer1">
  <path id="path14" d="m25.76 14.549c0.461-3.113 1.31-6.1489 2.561-9.037 2.022 2.4564 4.038 4.922 6.233 7.229 10.966-0.389 21.736 4.908 28.095 13.84 9.828 13.72 13.745 31.963 9.187 48.342-15.188 0.007-30.375-0.02-45.563 0.015-3.127-2.903-4.267-7.933-1.262-11.349 4.649-4.881 10.81-8.433 14.058-14.567-3.534 0.381-7.088 0.642-10.64 0.364-2.181 3.484-4.909 8.109-9.653 7.774-3.177-0.4-6.685 0.608-9.522-1.301-2.7913-1.698-2.9608-5.53-2.2719-8.384 1.6886-6.255 8.6529-9.325 10.119-15.691 0.554-3.03 2.85-5.149 4.942-7.204-0.649-4.633-1.193-9.288-1.225-13.973 1.66 1.298 3.312 2.607 4.942 3.942z" stroke="#000" stroke-miterlimit="10" stroke-width=".11019" fill="none"/>
  <path id="path16" d="m25.76 14.549c0.461-3.113 1.31-6.1489 2.561-9.037 2.022 2.4564 4.038 4.922 6.233 7.229 10.966-0.389 21.736 4.908 28.095 13.84 9.828 13.72 13.745 31.963 9.187 48.342-15.188 0.007-30.375-0.02-45.563 0.015-3.127-2.903-4.267-7.933-1.262-11.349 4.649-4.881 10.81-8.433 14.058-14.567-3.534 0.381-7.088 0.642-10.64 0.364-2.181 3.484-4.909 8.109-9.653 7.774-3.177-0.4-6.685 0.608-9.522-1.301-2.7913-1.698-2.9608-5.53-2.2719-8.384 1.6886-6.255 8.6529-9.325 10.119-15.691 0.554-3.03 2.85-5.149 4.942-7.204-0.649-4.633-1.193-9.288-1.225-13.973 1.66 1.298 3.312 2.607 4.942 3.942z"/>
  <path id="path68" d="m28.77 12.283c2.249 1.726 4.452 3.515 6.809 5.098 1.897-0.392 3.793-0.786 5.692-1.18 0.46 0.895 0.921 1.791 1.384 2.687l4.063-0.979 1.447 3.094c0.303 0.648 1.971-0.381 2.628-0.508 0.361 1.162 0.723 2.325 1.087 3.487 1.544 0.211 3.092 0.421 4.641 0.632 0.272 1.492 0.546 2.984 0.821 4.477 1.601 0.254 3.202 0.507 4.805 0.76-0.387 1.541-0.773 3.083-1.157 4.625 1.76 1.127 3.522 2.254 5.285 3.38-0.687 1.721-1.375 3.442-2.06 5.164 1.845 1.24 3.692 2.478 5.541 3.717-0.963 1.653-1.928 3.304-2.889 4.958 1.242 1.299 2.486 2.596 3.733 3.893-1.138 1.855-2.275 3.71-3.409 5.566 1.053 1.123 2.11 2.246 3.168 3.37-0.689 2.482-1.376 4.966-2.063 7.449-14.065-0.529-28.142-0.315-42.212-0.351-0.293-1.831-1.24-4.094 0.368-5.597 4.584-4.179 9.963-7.726 13.243-13.139 1.732-2.79 2.36-6.051 3.177-9.183-5.536 3.844-11.437 3.261-17.636 2.102 1.918 4.708-2.574 7.563-6.904 8.593 0.018-1.04 0.054-3.119 0.072-4.159-1.735 1.312-3.417 2.691-5.087 4.082-3.4228-1.258-4.2348-5.332-2.542-8.326 2.222-3.216 5.629-5.529 7.415-9.064 1.106-2.866 1.591-6.083 3.711-8.449 2.074-2.357 3.709-5.035 5.207-7.784 1.615 1.012 3.229 2.026 4.903 2.943-0.99-3.917-4.721-6.996-3.241-11.358z" fill="url(#linearGradient2175)"/>
  <path id="path78" d="m23.511 16.652c2.243-1.065 3.239 1.257 3.112 3.116-2.087 2.159-4.407-1.037-3.112-3.116z" stroke="#fff" stroke-miterlimit="10" stroke-width=".11019" fill="none"/>
  <path id="path80" d="m23.511 16.652c2.243-1.065 3.239 1.257 3.112 3.116-2.087 2.159-4.407-1.037-3.112-3.116z" fill="#fff"/>
  <path id="path124" d="m26.503 31.682c2.066-1.863 5.336 0.313 7.802 1.051-2.729 1.528-6.647 4.158-8.833 2.842-0.886-0.533 0.083-3.038 1.031-3.893z"/>
  <path id="path130" d="m13.664 47.413c0.929-0.882 3.708-0.211 2.371 1.323-1.238 2.111-5.352 0.298-2.371-1.323z" stroke="#000" stroke-miterlimit="10" stroke-width=".11019" fill="none"/>
  <path id="path132" d="m13.664 47.413c0.929-0.882 3.708-0.211 2.371 1.323-1.238 2.111-5.352 0.298-2.371-1.323z"/>
 </g>
</svg>
