<?xml version="1.0" encoding="UTF-8" standalone="no"?>
<!-- Created with Inkscape (http://www.inkscape.org/) -->
<svg id="svg2427" xmlns:rdf="http://www.w3.org/1999/02/22-rdf-syntax-ns#" xmlns="http://www.w3.org/2000/svg" height="80" width="80" version="1.0" xmlns:cc="http://web.resource.org/cc/" xmlns:xlink="http://www.w3.org/1999/xlink" xmlns:dc="http://purl.org/dc/elements/1.1/">
 <defs id="defs2429">
  <linearGradient id="linearGradient2165">
   <stop id="stop2167" stop-color="#fff" offset="0"/>
   <stop id="stop2169" stop-color="#fff" stop-opacity=".50196" offset="1"/>
  </linearGradient>
  <linearGradient id="linearGradient2171" y2="49.771" xlink:href="#linearGradient2165" gradientUnits="userSpaceOnUse" x2="80.257" gradientTransform="matrix(1.0471 0 0 1.0471 -1.8881 -.47113)" y1="49.771" x1="40.128"/>
 </defs>
 <metadata id="metadata2432">
  <rdf:RDF>
   <cc:Work rdf:about="">
    <dc:format>image/svg+xml</dc:format>
    <dc:type rdf:resource="http://purl.org/dc/dcmitype/StillImage"/>
   </cc:Work>
  </rdf:RDF>
 </metadata>
 <g id="layer1">
  <path id="path34" d="m34.182 13.341c2.347-4.0633 8.671-4.4423 11.441-0.631 2.41 2.597 1.266 6.231 0.544 9.253 3.848 1.839 8.355 2.591 11.546 5.597 2.352 2.091 2.616 5.38 3.11 8.282-4.963 0.167-9.928 0.079-14.892 0.112 0.032 2.814 0.262 5.67 1.749 8.139 2.381 4.63 4.216 10.576 0.636 15.129-0.029 0.627-0.089 1.879-0.119 2.505 4.383 0.366 9.274 0.609 12.694 3.749 2.106 1.763 2.474 4.614 3.103 7.114-15.332 0.222-30.669 0.037-46.003 0.098v-5.644c3.397-4.262 9.023-5.028 14.104-5.325 0.022-0.599 0.066-1.797 0.088-2.396-1-1.915-2.507-3.799-2.297-6.094-0.008-6.173 5.183-10.996 4.476-17.274-4.89-0.031-9.781 0.037-14.669-0.085 0.667-3.535 1.848-7.325 4.973-9.457 3.01-2.003 6.431-3.274 9.578-5.04-0.653-2.592-1.904-5.608-0.062-8.032z" stroke="#000" stroke-miterlimit="10" stroke-width=".10807" fill="none"/>
  <path id="path36" d="m34.182 13.341c2.347-4.0633 8.671-4.4423 11.441-0.631 2.41 2.597 1.266 6.231 0.544 9.253 3.848 1.839 8.355 2.591 11.546 5.597 2.352 2.091 2.616 5.38 3.11 8.282-4.963 0.167-9.928 0.079-14.892 0.112 0.032 2.814 0.262 5.67 1.749 8.139 2.381 4.63 4.216 10.576 0.636 15.129-0.029 0.627-0.089 1.879-0.119 2.505 4.383 0.366 9.927 0.697 12.694 3.749 2.806 3.094 2.474 4.614 3.103 7.114-15.332 0.222-32.608 0.177-47.942 0.238 0.395-2.387 0.273-2.373 1.953-5.998 1.666-3.593 9.009-4.814 14.09-5.111 0.022-0.599 0.066-1.797 0.088-2.396-1-1.915-2.507-3.799-2.297-6.094-0.008-6.173 5.183-10.996 4.476-17.274-4.89-0.031-9.781 0.037-14.669-0.085 0.667-3.535 1.848-7.325 4.973-9.457 3.01-2.003 6.431-3.274 9.578-5.04-0.653-2.592-1.904-5.608-0.062-8.032z"/>
  <path id="path62" d="m38.145 21.771c-2.693-2.691-2.387-8.945 2.44-8.508 4.237 0.562 3.734 5.793 1.813 8.445 4.082 5.001 12.669 4.05 14.898 10.796-11.312 0.326-22.654 0.318-33.967 0 2.354-6.646 10.704-5.835 14.816-10.733z" stroke="#fff" stroke-miterlimit="10" stroke-width=".10807" fill="none"/>
  <path id="path64" d="m38.145 21.771c-2.693-2.691-2.387-8.945 2.44-8.508 4.237 0.562 3.734 5.793 1.813 8.445 4.082 5.001 12.669 4.05 14.898 10.796-11.312 0.326-22.654 0.318-33.967 0 2.354-6.646 10.704-5.835 14.816-10.733z" fill="url(#linearGradient2171)"/>
  <path id="path126" d="m37.501 35.942h5.29c-1.281 6.652 4.771 11.632 4.322 18.179-0.051 1.639-1.049 2.993-1.811 4.37 0.291 1.851 0.587 3.702 0.879 5.555 4.85 0.333 10.991 0.314 13.608 5.267-13.144 0.195-26.306 0.266-39.448-0.037 2.841-4.875 9.011-4.895 13.956-5.228 0.307-1.882 0.618-3.762 0.935-5.641-1.124-1.544-2.492-3.136-2.347-5.187-0.1-6.258 5.986-10.822 4.616-17.278z" stroke="#fff" stroke-miterlimit="10" stroke-width=".10807" fill="none"/>
  <path id="path128" d="m37.501 35.942h5.29c-1.281 6.652 4.771 11.632 4.322 18.179-0.051 1.639-1.049 2.993-1.811 4.37 0.291 1.851 0.587 3.702 0.879 5.555 4.85 0.333 10.991 0.314 13.608 5.267-13.144 0.195-26.306 0.266-39.448-0.037 2.841-4.875 9.011-4.895 13.956-5.228 0.307-1.882 0.618-3.762 0.935-5.641-1.124-1.544-2.492-3.136-2.347-5.187-0.1-6.258 5.986-10.822 4.616-17.278z" fill="url(#linearGradient2171)"/>
 </g>
</svg>
