<?xml version="1.0" encoding="UTF-8" standalone="no"?>
<!-- Created with Inkscape (http://www.inkscape.org/) -->
<svg id="svg2339" xmlns:rdf="http://www.w3.org/1999/02/22-rdf-syntax-ns#" xmlns="http://www.w3.org/2000/svg" height="80" width="80" version="1.0" xmlns:cc="http://web.resource.org/cc/" xmlns:xlink="http://www.w3.org/1999/xlink" xmlns:dc="http://purl.org/dc/elements/1.1/">
 <defs id="defs2341">
  <linearGradient id="linearGradient2175">
   <stop id="stop2177" stop-color="#fff" offset="0"/>
   <stop id="stop2179" stop-color="#fff" stop-opacity=".50196" offset="1"/>
  </linearGradient>
  <linearGradient id="linearGradient2181" y2="50" xlink:href="#linearGradient2175" gradientUnits="userSpaceOnUse" x2="80" y1="50" x1="40"/>
 </defs>
 <metadata id="metadata2344">
  <rdf:RDF>
   <cc:Work rdf:about="">
    <dc:format>image/svg+xml</dc:format>
    <dc:type rdf:resource="http://purl.org/dc/dcmitype/StillImage"/>
   </cc:Work>
  </rdf:RDF>
 </metadata>
 <g id="layer1">
  <path id="path30" d="m23.413 9.6409c0.341-4.7019 7.2-6.228 9.779-2.4584 1.752 2.0896 0.574 4.7695-0.218 6.9795 2.322 4.813 4.71 9.594 7.076 14.387 2.515-4.82 5.02-9.646 7.542-14.463-0.744-2.052-1.963-4.385-0.585-6.4745 2.322-4.2298 9.877-2.9502 10.18 2.0402 0.511 2.7173-1.802 4.4453-3.614 5.9553 1.731 7.112 3.471 14.222 5.213 21.332 3.334-2.572 6.689-5.119 9.994-7.734-0.019-2.209-0.454-5.037 1.839-6.335 2.871-2.149 7.417 0.446 7.02 4.011 0.115 2.759-2.684 3.797-4.678 4.854-2.67 5.902-5.596 11.705-7.968 17.732-1.034 6.596-1.274 13.299-2.098 19.927-8.823 5.498-19.639 5.902-29.709 5.136-5.504-0.384-11.016-1.816-15.549-5.066-0.96-6.663-1.359-13.41-2.538-20.035-2.266-6.025-5.038-11.855-7.6011-17.76-2.0059-0.982-4.6886-2.035-4.6293-4.727-0.494-3.845 4.6829-6.421 7.4574-3.732 1.982 1.387 1.323 3.932 1.28 5.964 3.24 2.58 6.468 5.177 9.704 7.765 1.874-7.126 3.763-14.247 5.625-21.377-1.812-1.492-4.036-3.241-3.522-5.9211z" stroke="#000" stroke-miterlimit="10" stroke-width=".11541" fill="none"/>
  <path id="path32" d="m23.413 9.6409c0.341-4.7019 7.2-6.228 9.779-2.4584 1.752 2.0896 0.574 4.7695-0.218 6.9795 2.322 4.813 4.71 9.594 7.076 14.387 2.515-4.82 5.02-9.646 7.542-14.463-0.744-2.052-1.963-4.385-0.585-6.4745 2.322-4.2298 9.877-2.9502 10.18 2.0402 0.511 2.7173-1.802 4.4453-3.614 5.9553 1.731 7.112 3.471 14.222 5.213 21.332 3.334-2.572 6.689-5.119 9.994-7.734-0.019-2.209-0.454-5.037 1.839-6.335 2.871-2.149 7.417 0.446 7.02 4.011 0.115 2.759-2.684 3.797-4.678 4.854-2.67 5.902-5.596 11.705-7.968 17.732-1.034 6.596-1.274 13.299-2.098 19.927-8.823 5.498-19.639 5.902-29.709 5.136-5.504-0.384-11.016-1.816-15.549-5.066-0.96-6.663-1.359-13.41-2.538-20.035-2.266-6.025-5.038-11.855-7.6011-17.76-2.0059-0.982-4.6886-2.035-4.6293-4.727-0.494-3.845 4.6829-6.421 7.4574-3.732 1.982 1.387 1.323 3.932 1.28 5.964 3.24 2.58 6.468 5.177 9.704 7.765 1.874-7.126 3.763-14.247 5.625-21.377-1.812-1.492-4.036-3.241-3.522-5.9211z"/>
  <path id="path46" d="m27.856 7.722c3.633-1.7855 5.413 4.726 1.655 5.235-3.361 1.047-4.801-4.1186-1.655-5.235z" stroke="#fff" stroke-miterlimit="10" stroke-width=".11541" fill="none"/>
  <path id="path48" d="m27.856 7.722c3.633-1.7855 5.413 4.726 1.655 5.235-3.361 1.047-4.801-4.1186-1.655-5.235z" fill="url(#linearGradient2181)"/>
  <path id="path50" d="m49.951 8.0023c1.984-1.2737 5.175 0.0044 4.595 2.6447-0.038 2.43-3.025 2.859-4.75 1.847-0.877-1.326-1.117-3.3221 0.155-4.4917z" stroke="#fff" stroke-miterlimit="10" stroke-width=".11541" fill="none"/>
  <path id="path52" d="m49.951 8.0023c1.984-1.2737 5.175 0.0044 4.595 2.6447-0.038 2.43-3.025 2.859-4.75 1.847-0.877-1.326-1.117-3.3221 0.155-4.4917z" fill="url(#linearGradient2181)"/>
  <path id="path90" d="m22.644 41.428c2.786-8.78 4.197-18.048 7.975-26.475 3.356 6.319 6.263 12.862 9.43 19.276 3.198-6.371 6.203-12.841 9.546-19.14 1.429 1.498 2.065 3.46 2.543 5.424 1.749 6.982 3.564 13.947 5.365 20.916 4.256-3.341 8.508-6.689 12.769-10.026-2.501 5.346-5.055 10.666-7.545 16.017-14.389-5.914-30.933-5.672-45.352 0.009-2.57-5.632-5.188-11.24-7.7674-16.866 4.3514 3.613 8.6894 7.243 13.036 10.865z" stroke="#fff" stroke-miterlimit="10" stroke-width=".11541" fill="none"/>
  <path id="path92" d="m22.644 41.428c2.786-8.78 4.197-18.048 7.975-26.475 3.356 6.319 6.263 12.862 9.43 19.276 3.198-6.371 6.203-12.841 9.546-19.14 1.429 1.498 2.065 3.46 2.543 5.424 1.749 6.982 3.564 13.947 5.365 20.916 4.256-3.341 8.508-6.689 12.769-10.026-2.501 5.346-5.055 10.666-7.545 16.017-14.389-5.914-30.933-5.672-45.352 0.009-2.57-5.632-5.188-11.24-7.7674-16.866 4.3514 3.613 8.6894 7.243 13.036 10.865z" fill="url(#linearGradient2181)"/>
  <path id="path106" d="m5.584 24.862c2.6991-1.378 4.593 0.824 3.5593 3.394-2.4958 1.819-5.2242-0.868-3.5593-3.394z" stroke="#fff" stroke-miterlimit="10" stroke-width=".11541" fill="none"/>
  <path id="path108" d="m5.584 24.862c2.6991-1.378 4.593 0.824 3.5593 3.394-2.4958 1.819-5.2242-0.868-3.5593-3.394z" fill="url(#linearGradient2181)"/>
  <path id="path110" d="m71.014 28.951c0.058-1.632-0.332-4.811 2.355-4.139 1.557-0.482 1.989 1.672 1.776 2.741-0.169 1.992-2.902 1.005-4.131 1.398z" stroke="#fff" stroke-miterlimit="10" stroke-width=".11541" fill="none"/>
  <path id="path112" d="m71.014 28.951c0.058-1.632-0.332-4.811 2.355-4.139 1.557-0.482 1.989 1.672 1.776 2.741-0.169 1.992-2.902 1.005-4.131 1.398z" fill="url(#linearGradient2181)"/>
  <path id="path134" d="m18.62 50.232c13.428-5.971 29.47-5.994 42.894 0.002-0.138 1.812-0.272 3.624-0.4 5.437-1.566 0.003-3.126 0.006-4.681 0.011 1.344 1.521 2.698 3.043 4.048 4.567 0.015 0.977 0.047 2.93 0.063 3.907-4.209-2.049-8.795-3.207-13.456-3.536-9.226-0.728-19.022-0.806-27.463 3.53 0.009-0.973 0.028-2.918 0.038-3.891 1.347-1.528 2.697-3.052 4.053-4.577-1.584-0.005-3.162-0.008-4.736-0.011-0.124-1.813-0.245-3.627-0.36-5.439z" stroke="#fff" stroke-miterlimit="10" stroke-width=".11541" fill="none"/>
  <path id="path136" d="m18.62 50.232c13.428-5.971 29.47-5.994 42.894 0.002-0.138 1.812-0.272 3.624-0.4 5.437-1.566 0.003-3.126 0.006-4.681 0.011 1.344 1.521 2.698 3.043 4.048 4.567 0.015 0.977 0.047 2.93 0.063 3.907-4.209-2.049-8.795-3.207-13.456-3.536-9.226-0.728-19.022-0.806-27.463 3.53 0.009-0.973 0.028-2.918 0.038-3.891 1.347-1.528 2.697-3.052 4.053-4.577-1.584-0.005-3.162-0.008-4.736-0.011-0.124-1.813-0.245-3.627-0.36-5.439z" fill="url(#linearGradient2181)"/>
  <path id="path146" d="m37.03 51.851c2.506-0.661 5.221-0.453 7.628 0.509 0.637 2.977-2.628 2.77-4.642 2.879-1.997-0.104-5.18 0.053-4.562-2.866 0.394-0.13 1.182-0.392 1.576-0.522z" stroke="#000" stroke-miterlimit="10" stroke-width=".11541" fill="none"/>
  <path id="path148" d="m37.03 51.851c2.506-0.661 5.221-0.453 7.628 0.509 0.637 2.977-2.628 2.77-4.642 2.879-1.997-0.104-5.18 0.053-4.562-2.866 0.394-0.13 1.182-0.392 1.576-0.522z"/>
  <path id="path162" d="m29.122 63.638c7.866-1.167 15.919-1.085 23.749 0.336 2.257 0.466 4.678 0.966 6.442 2.572 1.063 2.41-2.006 3.173-3.692 3.783-10.172 2.378-20.95 2.358-31.129 0.034-1.756-0.632-4.963-1.373-3.784-3.883 2.351-1.946 5.507-2.334 8.414-2.842z" stroke="#fff" stroke-miterlimit="10" stroke-width=".11541" fill="none"/>
  <path id="path164" d="m29.122 63.638c7.866-1.167 15.919-1.085 23.749 0.336 2.257 0.466 4.678 0.966 6.442 2.572 1.063 2.41-2.006 3.173-3.692 3.783-10.172 2.378-20.95 2.358-31.129 0.034-1.756-0.632-4.963-1.373-3.784-3.883 2.351-1.946 5.507-2.334 8.414-2.842z" fill="url(#linearGradient2181)"/>
 </g>
</svg>
