<?xml version="1.0" encoding="UTF-8" standalone="no"?>
<!-- Created with Inkscape (http://www.inkscape.org/) -->
<svg id="svg2339" xmlns:rdf="http://www.w3.org/1999/02/22-rdf-syntax-ns#" xmlns="http://www.w3.org/2000/svg" height="80" width="80" version="1.0" xmlns:cc="http://web.resource.org/cc/" xmlns:xlink="http://www.w3.org/1999/xlink" xmlns:dc="http://purl.org/dc/elements/1.1/">
 <defs id="defs2341">
  <linearGradient id="linearGradient2165">
   <stop id="stop2167" stop-color="#fff" offset="0"/>
   <stop id="stop2169" stop-color="#fff" stop-opacity=".50196" offset="1"/>
  </linearGradient>
  <linearGradient id="linearGradient2171" y2="50.179" xlink:href="#linearGradient2165" gradientUnits="userSpaceOnUse" x2="80" y1="50.179" x1="40"/>
 </defs>
 <metadata id="metadata2344">
  <rdf:RDF>
   <cc:Work rdf:about="">
    <dc:format>image/svg+xml</dc:format>
    <dc:type rdf:resource="http://purl.org/dc/dcmitype/StillImage"/>
   </cc:Work>
  </rdf:RDF>
 </metadata>
 <g id="layer1">
  <path id="path28" d="m17.362 10.059c2.881 0 5.765-0.001 8.651-0.001-0.003 2.163-0.004 4.326-0.001 6.489h8.653c-0.003-2.163-0.004-4.326-0.001-6.489 4.014 0.001 8.03 0.001 12.048 0.001-0.003 2.163-0.003 4.325-0.001 6.487 2.832 0.001 5.664 0.001 8.5 0.002-0.003-2.164-0.004-4.327-0.001-6.49 2.882 0.001 5.765 0.001 8.652 0-0.003 4.353-0.003 8.706 0 13.059-1.806 2.024-3.609 4.048-5.41 6.073 0.008 8.616-0.006 17.231 0.007 25.847 3.399 3.808 4.876 7.62 8.615 11.058-0.001 2.948 0.001 5.897 0.002 8.846-17.653 0.001-35.306 0-52.959 0.001-0.001-2.941-0.001-5.881 0.001-8.82 4.243-2.656 4.963-7.896 8.643-11.107 0.017-8.546 0.002-17.092 0.009-25.638-1.807-2.013-3.61-4.027-5.411-6.041 0.004-4.426 0.002-8.852 0.003-13.277z"/>
  <path id="path60" d="m20.607 13.301c0.697 0.001 2.09 0.003 2.787 0.004-0.004 2.162-0.005 4.323-0.002 6.485 4.837 0.001 9.676 0.001 14.516 0.001-0.002-2.163-0.003-4.326 0-6.489 1.917 0 3.835 0.001 5.759 0.001-0.002 2.163-0.003 4.325-0.001 6.487 4.928 0.001 9.858 0.001 14.789 0.001-0.003-2.163-0.004-4.326 0-6.488 0.54 0 1.622-0.001 2.162-0.001-0.001 3.09-0.001 6.179-0.003 9.268-1.793 1.596-3.583 3.193-5.372 4.791-10.464 0-20.928-0.001-31.391 0-1.084-1.208-2.166-2.417-3.245-3.625-0.001-3.478-0.003-6.957 0.001-10.435z" fill="url(#linearGradient2171)"/>
  <path id="path120" d="m26.013 30.605h29.197c0 7.57-0.001 15.139 0 22.709h-29.197c-0.001-7.57-0.001-15.14 0-22.709z" fill="url(#linearGradient2171)"/>
  <path id="path160" d="m25.273 56.543c10.244 0.032 20.489 0.01 30.735 0.011 3.178 3.002 4.58 6.582 7.852 9.568-0.004 1.858-0.003 3.716 0.003 5.576-15.501-0.001-31.002-0.001-46.503 0-0.001-1.859-0.001-3.716 0.003-5.573 3.791-2.298 4.583-6.86 7.91-9.582z" fill="url(#linearGradient2171)"/>
 </g>
</svg>
