<?xml version="1.0" encoding="UTF-8" standalone="no"?>
<!-- Created with Inkscape (http://www.inkscape.org/) -->
<svg id="svg2993" xmlns:rdf="http://www.w3.org/1999/02/22-rdf-syntax-ns#" xmlns="http://www.w3.org/2000/svg" height="256" width="256" version="1.1" xmlns:cc="http://creativecommons.org/ns#" xmlns:dc="http://purl.org/dc/elements/1.1/">
 <metadata id="metadata2998">
  <rdf:RDF>
   <cc:Work rdf:about="">
    <dc:format>image/svg+xml</dc:format>
    <dc:type rdf:resource="http://purl.org/dc/dcmitype/StillImage"/>
    <dc:title/>
   </cc:Work>
  </rdf:RDF>
 </metadata>
 <g id="layer1" transform="translate(0 -796.36)">
  <text id="text3001" style="word-spacing:0px;letter-spacing:0px" xml:space="preserve" transform="translate(0 1020.4)" font-size="24px" y="18.813187" x="12.087912" font-family="Stencil" line-height="97.00000286%" fill="#000000"><tspan id="tspan3003" x="12.087912" y="18.813187"/></text>
  <g id="text3005" fill="#3139ae" transform="scale(1.1494 0.87)">
   <path id="path2987" style="" d="m116.9 1130h-13.569c-9.808-64-14.714-108.6-14.714-133.54v-78.359h43.193v78.168c-0.00009 24.336-4.9692 68.93-14.907 133.78zm-5.5424 19.303c7.8995 0 14.652 2.8031 20.259 8.4092 5.6061 5.6062 8.4091 12.359 8.4092 20.259-0.00011 7.8996-2.8032 14.684-8.4092 20.354-5.6062 5.6699-12.359 8.5048-20.259 8.5048-7.8996 0-14.653-2.8349-20.259-8.5048-5.6062-5.6699-8.4093-12.455-8.4092-20.354-0.000045-7.8995 2.803-14.652 8.4092-20.259 5.6061-5.6061 12.359-8.4092 20.259-8.4092z"/>
  </g>
 </g>
</svg>
