<?xml version="1.0" encoding="UTF-8" standalone="no"?>
<!-- Created with Inkscape (http://www.inkscape.org/) -->
<svg id="svg2993" xmlns:rdf="http://www.w3.org/1999/02/22-rdf-syntax-ns#" xmlns="http://www.w3.org/2000/svg" height="256" width="256" version="1.1" xmlns:cc="http://creativecommons.org/ns#" xmlns:dc="http://purl.org/dc/elements/1.1/">
 <metadata id="metadata2998">
  <rdf:RDF>
   <cc:Work rdf:about="">
    <dc:format>image/svg+xml</dc:format>
    <dc:type rdf:resource="http://purl.org/dc/dcmitype/StillImage"/>
    <dc:title/>
   </cc:Work>
  </rdf:RDF>
 </metadata>
 <g id="layer1" transform="translate(0 -796.36)">
  <text id="text3001" style="word-spacing:0px;letter-spacing:0px" xml:space="preserve" transform="translate(0 1020.4)" font-size="24px" y="18.813187" x="12.087912" font-family="Stencil" line-height="97.00000286%" fill="#000000"><tspan id="tspan3003" x="12.087912" y="18.813187"/></text>
  <g id="text3005" fill="#3139ae" transform="scale(1.1494 0.87)">
   <path id="path2987" style="" d="m51.029 1130h-13.569c-9.811-64-14.717-108.6-14.716-133.54v-78.359h43.193v78.168c-0.000094 24.336-4.9692 68.93-14.907 133.78zm-5.5424 19.303c7.8995 0 14.652 2.8031 20.259 8.4092 5.6061 5.6062 8.4091 12.359 8.4092 20.259-0.000102 7.8996-2.8032 14.684-8.4092 20.354-5.6062 5.6699-12.359 8.5048-20.259 8.5048-7.8996 0-14.653-2.8349-20.259-8.5048-5.6062-5.6699-8.4093-12.455-8.4092-20.354-0.000045-7.8995 2.803-14.652 8.4092-20.259 5.6061-5.6061 12.359-8.4092 20.259-8.4092z"/>
   <path id="path2989" style="" d="m143.98 1121.1h-25.228c-4.3321-12.104-6.4981-20.832-6.498-26.183-0.00004-9.1736 1.6882-18.538 5.0646-28.094 3.3764-9.5558 11.021-20.991 22.934-34.306 11.913-13.314 19.908-23.539 23.985-30.675 4.0771-7.1349 6.1157-14.079 6.1158-20.832-0.0001-22.424-13.57-33.637-40.708-33.637-12.996 0.00026-24.336 4.6508-34.019 13.952l-13.952-27.33c12.869-10.575 32.044-15.863 57.527-15.863 19.112 0.00029 35.007 5.4153 47.684 16.245s19.016 25.292 19.016 43.384c-0.00014 9.1739-1.6246 17.997-4.8735 26.47-3.2491 8.4731-8.2501 16.277-15.003 23.412l-27.903 29.815c-11.212 13.761-16.819 29.178-16.818 46.251-0.00006 2.6757 0.89182 8.473 2.6757 17.392zm-8.027 28.286c7.8995 0 14.652 2.8031 20.259 8.4092 5.6061 5.6062 8.4091 12.359 8.4092 20.259-0.00009 7.8996-2.8032 14.684-8.4092 20.354-5.6062 5.6699-12.359 8.5048-20.259 8.5048-7.8996 0-14.652-2.8349-20.259-8.5048-5.6062-5.6699-8.4093-12.455-8.4092-20.354-0.00003-7.8995 2.803-14.652 8.4092-20.259 5.6061-5.6061 12.359-8.4092 20.259-8.4092z"/>
  </g>
 </g>
</svg>
