<?xml version="1.0" encoding="UTF-8" standalone="no"?>
<svg
   xmlns:dc="http://purl.org/dc/elements/1.1/"
   xmlns:cc="http://creativecommons.org/ns#"
   xmlns:rdf="http://www.w3.org/1999/02/22-rdf-syntax-ns#"
   xmlns:svg="http://www.w3.org/2000/svg"
   xmlns="http://www.w3.org/2000/svg"
   xmlns:sodipodi="http://sodipodi.sourceforge.net/DTD/sodipodi-0.dtd"
   xmlns:inkscape="http://www.inkscape.org/namespaces/inkscape"
   version="1.0"
   width="300.000000pt"
   height="300.000000pt"
   viewBox="0 0 300.000000 300.000000"
   preserveAspectRatio="xMidYMid meet"
   id="svg2"
   inkscape:version="0.92.2 (5c3e80d, 2017-08-06)"
   sodipodi:docname="bb.svg">
  <defs
     id="defs12">
    <filter
       style="color-interpolation-filters:sRGB;"
       inkscape:label="Drawing"
       id="filter1326">
      <feGaussianBlur
         in="SourceGraphic"
         stdDeviation="0.6"
         result="blur1"
         id="feGaussianBlur1272" />
      <feConvolveMatrix
         in="blur1"
         targetX="1"
         targetY="1"
         order="3 3"
         kernelMatrix="0 250 0 250 -1010 250 0 250 0 "
         result="convolve1"
         id="feConvolveMatrix1274" />
      <feComposite
         in="convolve1"
         in2="convolve1"
         k1="1"
         k2="1"
         k4="0"
         operator="arithmetic"
         result="composite1"
         id="feComposite1276" />
      <feColorMatrix
         in="composite1"
         values="0 0 0 0 0 0 0 0 0 0 0 0 0 0 0 -0.2125 -0.7154 -0.0721 1 0 "
         result="color1"
         id="feColorMatrix1278" />
      <feGaussianBlur
         stdDeviation="0.6"
         result="blur2"
         id="feGaussianBlur1280" />
      <feColorMatrix
         values="1 0 0 0 0 0 1 0 0 0 0 0 1 0 0 0 0 0 6 -2 "
         result="color2"
         id="feColorMatrix1282" />
      <feFlood
         flood-color="rgb(255,255,255)"
         result="flood1"
         id="feFlood1284" />
      <feBlend
         in2="color2"
         mode="multiply"
         result="blend1"
         id="feBlend1286" />
      <feComponentTransfer
         in="blend1"
         result="component1"
         id="feComponentTransfer1294">
        <feFuncR
           type="discrete"
           tableValues="0 1 1 1"
           id="feFuncR1288" />
        <feFuncG
           type="discrete"
           tableValues="0 1 1 1"
           id="feFuncG1290" />
        <feFuncB
           type="discrete"
           tableValues="0 1 1 1"
           id="feFuncB1292" />
      </feComponentTransfer>
      <feGaussianBlur
         stdDeviation="1"
         result="blur3"
         id="feGaussianBlur1296" />
      <feColorMatrix
         in="blur3"
         values="0 0 0 0 0 0 0 0 0 0 0 0 0 0 0 -0.2125 -0.7154 -0.0721 1 0 "
         result="color3"
         id="feColorMatrix1298" />
      <feColorMatrix
         values="1 0 0 0 0 0 1 0 0 0 0 0 1 0 0 0 0 0 6 -2 "
         result="color4"
         id="feColorMatrix1300" />
      <feFlood
         flood-color="rgb(0,0,0)"
         result="flood2"
         id="feFlood1302" />
      <feComposite
         in="flood2"
         in2="color4"
         operator="in"
         result="composite2"
         id="feComposite1304" />
      <feComposite
         in="composite2"
         in2="composite2"
         operator="arithmetic"
         k2="1"
         result="composite3"
         id="feComposite1306" />
      <feOffset
         dx="0"
         dy="0"
         result="offset1"
         id="feOffset1308" />
      <feFlood
         in="color4"
         flood-color="rgb(165,165,165)"
         result="flood3"
         id="feFlood1310" />
      <feComposite
         in="flood3"
         in2="color4"
         operator="out"
         result="composite4"
         id="feComposite1312" />
      <feComposite
         in="composite4"
         in2="composite4"
         operator="arithmetic"
         k2="1"
         result="composite5"
         id="feComposite1314" />
      <feMerge
         result="merge1"
         id="feMerge1320">
        <feMergeNode
           in="composite5"
           id="feMergeNode1316" />
        <feMergeNode
           in="offset1"
           id="feMergeNode1318" />
      </feMerge>
      <feColorMatrix
         values="1 0 0 0 0 0 1 0 0 0 0 0 1 0 0 0 0 0 1.3 0 "
         result="color5"
         flood-opacity="0.56"
         id="feColorMatrix1322" />
      <feComposite
         in="color5"
         in2="SourceGraphic"
         operator="in"
         result="composite8"
         id="feComposite1324" />
    </filter>
    <filter
       style="color-interpolation-filters:sRGB;"
       inkscape:label="Drawing"
       id="filter1390">
      <feGaussianBlur
         in="SourceGraphic"
         stdDeviation="0.6"
         result="blur1"
         id="feGaussianBlur1336" />
      <feConvolveMatrix
         in="blur1"
         targetX="1"
         targetY="1"
         order="3 3"
         kernelMatrix="0 250 0 250 -1010 250 0 250 0 "
         result="convolve1"
         id="feConvolveMatrix1338" />
      <feComposite
         in="convolve1"
         in2="convolve1"
         k1="1"
         k2="1"
         k4="0"
         operator="arithmetic"
         result="composite1"
         id="feComposite1340" />
      <feColorMatrix
         in="composite1"
         values="0 0 0 0 0 0 0 0 0 0 0 0 0 0 0 -0.2125 -0.7154 -0.0721 1 0 "
         result="color1"
         id="feColorMatrix1342" />
      <feGaussianBlur
         stdDeviation="0.6"
         result="blur2"
         id="feGaussianBlur1344" />
      <feColorMatrix
         values="1 0 0 0 0 0 1 0 0 0 0 0 1 0 0 0 0 0 6 -2 "
         result="color2"
         id="feColorMatrix1346" />
      <feFlood
         flood-color="rgb(255,255,255)"
         result="flood1"
         id="feFlood1348" />
      <feBlend
         in2="color2"
         mode="multiply"
         result="blend1"
         id="feBlend1350" />
      <feComponentTransfer
         in="blend1"
         result="component1"
         id="feComponentTransfer1358">
        <feFuncR
           type="discrete"
           tableValues="0 1 1 1"
           id="feFuncR1352" />
        <feFuncG
           type="discrete"
           tableValues="0 1 1 1"
           id="feFuncG1354" />
        <feFuncB
           type="discrete"
           tableValues="0 1 1 1"
           id="feFuncB1356" />
      </feComponentTransfer>
      <feGaussianBlur
         stdDeviation="1"
         result="blur3"
         id="feGaussianBlur1360" />
      <feColorMatrix
         in="blur3"
         values="0 0 0 0 0 0 0 0 0 0 0 0 0 0 0 -0.2125 -0.7154 -0.0721 1 0 "
         result="color3"
         id="feColorMatrix1362" />
      <feColorMatrix
         values="1 0 0 0 0 0 1 0 0 0 0 0 1 0 0 0 0 0 6 -2 "
         result="color4"
         id="feColorMatrix1364" />
      <feFlood
         flood-color="rgb(0,0,0)"
         result="flood2"
         id="feFlood1366" />
      <feComposite
         in="flood2"
         in2="color4"
         operator="in"
         result="composite2"
         id="feComposite1368" />
      <feComposite
         in="composite2"
         in2="composite2"
         operator="arithmetic"
         k2="1"
         result="composite3"
         id="feComposite1370" />
      <feOffset
         dx="0"
         dy="0"
         result="offset1"
         id="feOffset1372" />
      <feFlood
         in="color4"
         flood-color="rgb(165,165,165)"
         result="flood3"
         id="feFlood1374" />
      <feComposite
         in="flood3"
         in2="color4"
         operator="out"
         result="composite4"
         id="feComposite1376" />
      <feComposite
         in="composite4"
         in2="composite4"
         operator="arithmetic"
         k2="1"
         result="composite5"
         id="feComposite1378" />
      <feMerge
         result="merge1"
         id="feMerge1384">
        <feMergeNode
           in="composite5"
           id="feMergeNode1380" />
        <feMergeNode
           in="offset1"
           id="feMergeNode1382" />
      </feMerge>
      <feColorMatrix
         values="1 0 0 0 0 0 1 0 0 0 0 0 1 0 0 0 0 0 1.3 0 "
         result="color5"
         flood-opacity="0.56"
         id="feColorMatrix1386" />
      <feComposite
         in="color5"
         in2="SourceGraphic"
         operator="in"
         result="composite8"
         id="feComposite1388" />
    </filter>
    <filter
       style="color-interpolation-filters:sRGB;"
       inkscape:label="Drawing"
       id="filter1458">
      <feGaussianBlur
         in="SourceGraphic"
         stdDeviation="0.6"
         result="blur1"
         id="feGaussianBlur1404" />
      <feConvolveMatrix
         in="blur1"
         targetX="1"
         targetY="1"
         order="3 3"
         kernelMatrix="0 250 0 250 -1010 250 0 250 0 "
         result="convolve1"
         id="feConvolveMatrix1406" />
      <feComposite
         in="convolve1"
         in2="convolve1"
         k1="1"
         k2="1"
         k4="0"
         operator="arithmetic"
         result="composite1"
         id="feComposite1408" />
      <feColorMatrix
         in="composite1"
         values="0 0 0 0 0 0 0 0 0 0 0 0 0 0 0 -0.2125 -0.7154 -0.0721 1 0 "
         result="color1"
         id="feColorMatrix1410" />
      <feGaussianBlur
         stdDeviation="0.6"
         result="blur2"
         id="feGaussianBlur1412" />
      <feColorMatrix
         values="1 0 0 0 0 0 1 0 0 0 0 0 1 0 0 0 0 0 6 -2 "
         result="color2"
         id="feColorMatrix1414" />
      <feFlood
         flood-color="rgb(255,255,255)"
         result="flood1"
         id="feFlood1416" />
      <feBlend
         in2="color2"
         mode="multiply"
         result="blend1"
         id="feBlend1418" />
      <feComponentTransfer
         in="blend1"
         result="component1"
         id="feComponentTransfer1426">
        <feFuncR
           type="discrete"
           tableValues="0 1 1 1"
           id="feFuncR1420" />
        <feFuncG
           type="discrete"
           tableValues="0 1 1 1"
           id="feFuncG1422" />
        <feFuncB
           type="discrete"
           tableValues="0 1 1 1"
           id="feFuncB1424" />
      </feComponentTransfer>
      <feGaussianBlur
         stdDeviation="1"
         result="blur3"
         id="feGaussianBlur1428" />
      <feColorMatrix
         in="blur3"
         values="0 0 0 0 0 0 0 0 0 0 0 0 0 0 0 -0.2125 -0.7154 -0.0721 1 0 "
         result="color3"
         id="feColorMatrix1430" />
      <feColorMatrix
         values="1 0 0 0 0 0 1 0 0 0 0 0 1 0 0 0 0 0 6 -2 "
         result="color4"
         id="feColorMatrix1432" />
      <feFlood
         flood-color="rgb(0,0,0)"
         result="flood2"
         id="feFlood1434" />
      <feComposite
         in="flood2"
         in2="color4"
         operator="in"
         result="composite2"
         id="feComposite1436" />
      <feComposite
         in="composite2"
         in2="composite2"
         operator="arithmetic"
         k2="1"
         result="composite3"
         id="feComposite1438" />
      <feOffset
         dx="0"
         dy="0"
         result="offset1"
         id="feOffset1440" />
      <feFlood
         in="color4"
         flood-color="rgb(165,165,165)"
         result="flood3"
         id="feFlood1442" />
      <feComposite
         in="flood3"
         in2="color4"
         operator="out"
         result="composite4"
         id="feComposite1444" />
      <feComposite
         in="composite4"
         in2="composite4"
         operator="arithmetic"
         k2="1"
         result="composite5"
         id="feComposite1446" />
      <feMerge
         result="merge1"
         id="feMerge1452">
        <feMergeNode
           in="composite5"
           id="feMergeNode1448" />
        <feMergeNode
           in="offset1"
           id="feMergeNode1450" />
      </feMerge>
      <feColorMatrix
         values="1 0 0 0 0 0 1 0 0 0 0 0 1 0 0 0 0 0 1.3 0 "
         result="color5"
         flood-opacity="0.56"
         id="feColorMatrix1454" />
      <feComposite
         in="color5"
         in2="SourceGraphic"
         operator="in"
         result="composite8"
         id="feComposite1456" />
    </filter>
    <filter
       style="color-interpolation-filters:sRGB;"
       inkscape:label="Drawing"
       id="filter1535">
      <feGaussianBlur
         in="SourceGraphic"
         stdDeviation="0.6"
         result="blur1"
         id="feGaussianBlur1481" />
      <feConvolveMatrix
         in="blur1"
         targetX="1"
         targetY="1"
         order="3 3"
         kernelMatrix="0 250 0 250 -1010 250 0 250 0 "
         result="convolve1"
         id="feConvolveMatrix1483" />
      <feComposite
         in="convolve1"
         in2="convolve1"
         k1="1"
         k2="1"
         k4="0"
         operator="arithmetic"
         result="composite1"
         id="feComposite1485" />
      <feColorMatrix
         in="composite1"
         values="0 0 0 0 0 0 0 0 0 0 0 0 0 0 0 -0.2125 -0.7154 -0.0721 1 0 "
         result="color1"
         id="feColorMatrix1487" />
      <feGaussianBlur
         stdDeviation="0.6"
         result="blur2"
         id="feGaussianBlur1489" />
      <feColorMatrix
         values="1 0 0 0 0 0 1 0 0 0 0 0 1 0 0 0 0 0 6 -2 "
         result="color2"
         id="feColorMatrix1491" />
      <feFlood
         flood-color="rgb(255,255,255)"
         result="flood1"
         id="feFlood1493" />
      <feBlend
         in2="color2"
         mode="multiply"
         result="blend1"
         id="feBlend1495" />
      <feComponentTransfer
         in="blend1"
         result="component1"
         id="feComponentTransfer1503">
        <feFuncR
           type="discrete"
           tableValues="0 1 1 1"
           id="feFuncR1497" />
        <feFuncG
           type="discrete"
           tableValues="0 1 1 1"
           id="feFuncG1499" />
        <feFuncB
           type="discrete"
           tableValues="0 1 1 1"
           id="feFuncB1501" />
      </feComponentTransfer>
      <feGaussianBlur
         stdDeviation="1"
         result="blur3"
         id="feGaussianBlur1505" />
      <feColorMatrix
         in="blur3"
         values="0 0 0 0 0 0 0 0 0 0 0 0 0 0 0 -0.2125 -0.7154 -0.0721 1 0 "
         result="color3"
         id="feColorMatrix1507" />
      <feColorMatrix
         values="1 0 0 0 0 0 1 0 0 0 0 0 1 0 0 0 0 0 6 -2 "
         result="color4"
         id="feColorMatrix1509" />
      <feFlood
         flood-color="rgb(0,0,0)"
         result="flood2"
         id="feFlood1511" />
      <feComposite
         in="flood2"
         in2="color4"
         operator="in"
         result="composite2"
         id="feComposite1513" />
      <feComposite
         in="composite2"
         in2="composite2"
         operator="arithmetic"
         k2="1"
         result="composite3"
         id="feComposite1515" />
      <feOffset
         dx="0"
         dy="0"
         result="offset1"
         id="feOffset1517" />
      <feFlood
         in="color4"
         flood-color="rgb(165,165,165)"
         result="flood3"
         id="feFlood1519" />
      <feComposite
         in="flood3"
         in2="color4"
         operator="out"
         result="composite4"
         id="feComposite1521" />
      <feComposite
         in="composite4"
         in2="composite4"
         operator="arithmetic"
         k2="1"
         result="composite5"
         id="feComposite1523" />
      <feMerge
         result="merge1"
         id="feMerge1529">
        <feMergeNode
           in="composite5"
           id="feMergeNode1525" />
        <feMergeNode
           in="offset1"
           id="feMergeNode1527" />
      </feMerge>
      <feColorMatrix
         values="1 0 0 0 0 0 1 0 0 0 0 0 1 0 0 0 0 0 1.3 0 "
         result="color5"
         flood-opacity="0.56"
         id="feColorMatrix1531" />
      <feComposite
         in="color5"
         in2="SourceGraphic"
         operator="in"
         result="composite8"
         id="feComposite1533" />
    </filter>
    <filter
       style="color-interpolation-filters:sRGB;"
       inkscape:label="Drawing"
       id="filter5418">
      <feGaussianBlur
         in="SourceGraphic"
         stdDeviation="0.6"
         result="blur1"
         id="feGaussianBlur5364" />
      <feConvolveMatrix
         in="blur1"
         targetX="1"
         targetY="1"
         order="3 3"
         kernelMatrix="0 250 0 250 -1010 250 0 250 0 "
         result="convolve1"
         id="feConvolveMatrix5366" />
      <feComposite
         in="convolve1"
         in2="convolve1"
         k1="1"
         k2="1"
         k4="0"
         operator="arithmetic"
         result="composite1"
         id="feComposite5368" />
      <feColorMatrix
         in="composite1"
         values="0 0 0 0 0 0 0 0 0 0 0 0 0 0 0 -0.2125 -0.7154 -0.0721 1 0 "
         result="color1"
         id="feColorMatrix5370" />
      <feGaussianBlur
         stdDeviation="0.6"
         result="blur2"
         id="feGaussianBlur5372" />
      <feColorMatrix
         values="1 0 0 0 0 0 1 0 0 0 0 0 1 0 0 0 0 0 6 -2 "
         result="color2"
         id="feColorMatrix5374" />
      <feFlood
         flood-color="rgb(255,255,255)"
         result="flood1"
         id="feFlood5376" />
      <feBlend
         in2="color2"
         mode="multiply"
         result="blend1"
         id="feBlend5378" />
      <feComponentTransfer
         in="blend1"
         result="component1"
         id="feComponentTransfer5386">
        <feFuncR
           type="discrete"
           tableValues="0 1 1 1"
           id="feFuncR5380" />
        <feFuncG
           type="discrete"
           tableValues="0 1 1 1"
           id="feFuncG5382" />
        <feFuncB
           type="discrete"
           tableValues="0 1 1 1"
           id="feFuncB5384" />
      </feComponentTransfer>
      <feGaussianBlur
         stdDeviation="1"
         result="blur3"
         id="feGaussianBlur5388" />
      <feColorMatrix
         in="blur3"
         values="0 0 0 0 0 0 0 0 0 0 0 0 0 0 0 -0.2125 -0.7154 -0.0721 1 0 "
         result="color3"
         id="feColorMatrix5390" />
      <feColorMatrix
         values="1 0 0 0 0 0 1 0 0 0 0 0 1 0 0 0 0 0 6 -2 "
         result="color4"
         id="feColorMatrix5392" />
      <feFlood
         flood-color="rgb(0,0,0)"
         result="flood2"
         id="feFlood5394" />
      <feComposite
         in="flood2"
         in2="color4"
         operator="in"
         result="composite2"
         id="feComposite5396" />
      <feComposite
         in="composite2"
         in2="composite2"
         operator="arithmetic"
         k2="1"
         result="composite3"
         id="feComposite5398" />
      <feOffset
         dx="0"
         dy="0"
         result="offset1"
         id="feOffset5400" />
      <feFlood
         in="color4"
         flood-color="rgb(165,165,165)"
         result="flood3"
         id="feFlood5402" />
      <feComposite
         in="flood3"
         in2="color4"
         operator="out"
         result="composite4"
         id="feComposite5404" />
      <feComposite
         in="composite4"
         in2="composite4"
         operator="arithmetic"
         k2="1"
         result="composite5"
         id="feComposite5406" />
      <feMerge
         result="merge1"
         id="feMerge5412">
        <feMergeNode
           in="composite5"
           id="feMergeNode5408" />
        <feMergeNode
           in="offset1"
           id="feMergeNode5410" />
      </feMerge>
      <feColorMatrix
         values="1 0 0 0 0 0 1 0 0 0 0 0 1 0 0 0 0 0 1.3 0 "
         result="color5"
         flood-opacity="0.56"
         id="feColorMatrix5414" />
      <feComposite
         in="color5"
         in2="SourceGraphic"
         operator="in"
         result="composite8"
         id="feComposite5416" />
    </filter>
    <filter
       style="color-interpolation-filters:sRGB;"
       inkscape:label="Drawing"
       id="filter5515">
      <feGaussianBlur
         in="SourceGraphic"
         stdDeviation="0.6"
         result="blur1"
         id="feGaussianBlur5461" />
      <feConvolveMatrix
         in="blur1"
         targetX="1"
         targetY="1"
         order="3 3"
         kernelMatrix="0 250 0 250 -1010 250 0 250 0 "
         result="convolve1"
         id="feConvolveMatrix5463" />
      <feComposite
         in="convolve1"
         in2="convolve1"
         k1="1"
         k2="1"
         k4="0"
         operator="arithmetic"
         result="composite1"
         id="feComposite5465" />
      <feColorMatrix
         in="composite1"
         values="0 0 0 0 0 0 0 0 0 0 0 0 0 0 0 -0.2125 -0.7154 -0.0721 1 0 "
         result="color1"
         id="feColorMatrix5467" />
      <feGaussianBlur
         stdDeviation="0.6"
         result="blur2"
         id="feGaussianBlur5469" />
      <feColorMatrix
         values="1 0 0 0 0 0 1 0 0 0 0 0 1 0 0 0 0 0 6 -2 "
         result="color2"
         id="feColorMatrix5471" />
      <feFlood
         flood-color="rgb(255,255,255)"
         result="flood1"
         id="feFlood5473" />
      <feBlend
         in2="color2"
         mode="multiply"
         result="blend1"
         id="feBlend5475" />
      <feComponentTransfer
         in="blend1"
         result="component1"
         id="feComponentTransfer5483">
        <feFuncR
           type="discrete"
           tableValues="0 1 1 1"
           id="feFuncR5477" />
        <feFuncG
           type="discrete"
           tableValues="0 1 1 1"
           id="feFuncG5479" />
        <feFuncB
           type="discrete"
           tableValues="0 1 1 1"
           id="feFuncB5481" />
      </feComponentTransfer>
      <feGaussianBlur
         stdDeviation="1"
         result="blur3"
         id="feGaussianBlur5485" />
      <feColorMatrix
         in="blur3"
         values="0 0 0 0 0 0 0 0 0 0 0 0 0 0 0 -0.2125 -0.7154 -0.0721 1 0 "
         result="color3"
         id="feColorMatrix5487" />
      <feColorMatrix
         values="1 0 0 0 0 0 1 0 0 0 0 0 1 0 0 0 0 0 6 -2 "
         result="color4"
         id="feColorMatrix5489" />
      <feFlood
         flood-color="rgb(0,0,0)"
         result="flood2"
         id="feFlood5491" />
      <feComposite
         in="flood2"
         in2="color4"
         operator="in"
         result="composite2"
         id="feComposite5493" />
      <feComposite
         in="composite2"
         in2="composite2"
         operator="arithmetic"
         k2="1"
         result="composite3"
         id="feComposite5495" />
      <feOffset
         dx="0"
         dy="0"
         result="offset1"
         id="feOffset5497" />
      <feFlood
         in="color4"
         flood-color="rgb(165,165,165)"
         result="flood3"
         id="feFlood5499" />
      <feComposite
         in="flood3"
         in2="color4"
         operator="out"
         result="composite4"
         id="feComposite5501" />
      <feComposite
         in="composite4"
         in2="composite4"
         operator="arithmetic"
         k2="1"
         result="composite5"
         id="feComposite5503" />
      <feMerge
         result="merge1"
         id="feMerge5509">
        <feMergeNode
           in="composite5"
           id="feMergeNode5505" />
        <feMergeNode
           in="offset1"
           id="feMergeNode5507" />
      </feMerge>
      <feColorMatrix
         values="1 0 0 0 0 0 1 0 0 0 0 0 1 0 0 0 0 0 1.3 0 "
         result="color5"
         flood-opacity="0.56"
         id="feColorMatrix5511" />
      <feComposite
         in="color5"
         in2="SourceGraphic"
         operator="in"
         result="composite8"
         id="feComposite5513" />
    </filter>
  </defs>
  <sodipodi:namedview
     pagecolor="#ffffff"
     bordercolor="#666666"
     borderopacity="1"
     objecttolerance="10"
     gridtolerance="10"
     guidetolerance="10"
     inkscape:pageopacity="0"
     inkscape:pageshadow="2"
     inkscape:window-width="1044"
     inkscape:window-height="949"
     id="namedview10"
     showgrid="false"
     inkscape:zoom="1.0450736"
     inkscape:cx="191.45886"
     inkscape:cy="279.21505"
     inkscape:window-x="28"
     inkscape:window-y="25"
     inkscape:window-maximized="0"
     inkscape:current-layer="svg2"
     inkscape:pagecheckerboard="true"
     showguides="false" />
  <metadata
     id="metadata4">
Created by potrace 1.12, written by Peter Selinger 2001-2015
<rdf:RDF>
  <cc:Work
     rdf:about="">
    <dc:format>image/svg+xml</dc:format>
    <dc:type
       rdf:resource="http://purl.org/dc/dcmitype/StillImage" />
    <dc:title />
  </cc:Work>
</rdf:RDF>
</metadata>
  <path
     style="fill:#fdffff;fill-opacity:1;stroke-width:2.25971103"
     d="m 157.0731,16.244504 c -3.46802,-0.36852 -5.72296,5.028276 -9.0229,2.38281 -18.96126,-6.135871 -43.89205,4.933339 -47.13595,25.778033 -1.133264,6.97518 7.86327,13.360083 3.30217,19.850791 -16.704636,24.907188 -35.728271,50.972292 -38.136877,81.867392 -0.205965,25.15107 17.425277,47.95511 10.925183,73.23765 -0.123488,2.44409 0.738531,5.76063 -2.656832,3.51266 -14.723994,-4.9549 -33.752889,-6.53702 -45.682437,5.28387 -9.64129,11.32637 -8.230552,29.34629 0.06156,40.94462 6.921474,7.21612 17.533591,2.31551 25.839588,5.67904 13.79537,3.90202 24.439064,15.12253 38.504221,18.07162 19.772454,2.66021 40.041354,-3.53068 56.470614,-14.29884 15.70783,8.59639 33.82664,14.28426 51.84574,11.17773 19.77126,-1.52424 40.74205,-5.40974 59.41361,3.31174 8.78684,1.78178 14.41924,-6.83998 18.52635,-13.0995 7.2988,-11.3904 7.7335,-28.14038 -2.8554,-37.7179 -11.78729,-12.05635 -30.07054,-12.59974 -45.78967,-11.04035 -5.54006,0.0718 -11.60707,1.1317 -16.78094,0.79427 1.35175,-11.99926 -6.71046,-25.12963 1.25576,-36.01642 9.71374,-20.33801 21.60565,-42.86341 16.27378,-66.0969 -7.75575,-24.71716 -20.28395,-47.714206 -33.7525,-69.667411 5.04222,-8.73397 4.84916,-20.415396 -2.22197,-28.021844 -9.13128,-11.227516 -24.26693,-16.203829 -38.3831,-15.933061 z m -22.44805,90.963776 c 3.87786,3.21698 -4.00342,2.30337 0,0 z m -22.31303,104.1824 c 2.88358,2.06026 -3.91932,2.25916 -0.87767,0.12113 0.27279,-0.11785 0.58294,-0.17279 0.87767,-0.12113 z m 41.98511,8.04198 c -0.12914,-0.0576 0.11892,-0.0942 0,0 z"
     id="path5431"
     inkscape:connector-curvature="0" />
  <g
     id="g5451"
     style="filter:url(#filter5515)"
     transform="matrix(1.0158732,0,0,1.0148789,8.4238914,4.6553124)">
    <path
       style="fill:#e6e6e6;fill-opacity:1;stroke-width:2.22266912"
       d="m 80.56261,265.31339 c -4.496369,-1.75206 -8.674086,-3.86816 -9.283816,-4.70244 C 68.739025,257.13586 55.16814,251.62127 46.073005,250.36849 33.225629,248.59887 31.9386,247.59315 31.029984,238.61364 l -0.769413,-7.60381 6.391251,-1.75213 c 8.592222,-2.35553 24.233486,0.94233 39.061374,8.23587 13.157558,6.47191 28.078254,9.06247 32.987774,5.7274 4.61994,-3.13835 1.22924,-6.47568 -8.20702,-8.07781 l -8.454028,-1.43535 -3.945991,-6.71302 -3.945989,-6.713 1.413189,-17.1122 1.413189,-17.1122 -3.317457,-6.19634 c -1.824599,-3.40799 -2.688525,-7.8434 -1.919832,-9.85647 l 1.397619,-3.66013 -3.825883,1.47538 c -2.194364,0.84622 -3.270163,0.57177 -2.522729,-0.64358 0.716737,-1.16543 0.177021,-8.61762 -1.199357,-16.56042 L 73.08417,136.17438 77.697188,123.7841 c 2.537159,-6.81466 4.770246,-13.13767 4.962416,-14.05113 0.192165,-0.91347 2.698804,-5.40093 5.570299,-9.972139 2.871497,-4.571209 5.220904,-8.876306 5.220904,-9.566886 0,-0.690579 2.494351,-3.958928 5.543003,-7.262999 3.04865,-3.304069 5.543,-7.115579 5.543,-8.47002 0,-1.354442 1.99548,-4.277426 4.43441,-6.495518 4.98658,-4.53508 5.56988,-10.544653 2.01749,-20.785387 l -2.41691,-6.967393 4.07981,-5.062891 c 4.45847,-5.532785 11.45125,-7.317346 20.11262,-5.132747 l 5.57493,1.406128 -1.27966,7.924533 c -0.70381,4.358492 -2.94809,9.150546 -4.98729,10.649008 l -3.70763,2.724478 2.49557,4.686048 c 1.37257,2.577324 4.24268,5.266662 6.37803,5.976305 5.13345,1.706004 23.23793,30.531427 35.76467,56.94346 l 10.03932,21.16743 0.24125,11.6514 c 0.28227,13.6323 2.28108,16.92877 5.34854,8.82091 l 2.18276,-5.76945 -3.36604,-16.22333 c -3.45731,-16.66325 -10.78865,-31.77911 -14.3426,-29.5718 -1.10134,0.68403 -1.49329,-0.0897 -0.871,-1.71935 1.1736,-3.07346 -9.79852,-27.61492 -16.71499,-37.386599 -2.17298,-3.070019 -4.89484,-11.849512 -6.04859,-19.509987 l -2.09771,-13.928135 3.10282,-4.451767 3.10281,-4.451767 5.96521,1.358334 c 11.80352,2.687771 17.3511,14.751399 10.12363,22.014562 l -3.6018,3.619579 4.7104,5.038746 c 2.59072,2.771309 4.71039,6.104685 4.71039,7.407502 0,1.302815 1.546,3.658158 3.43556,5.234095 1.88956,1.575938 5.47585,7.464048 7.96953,13.084692 2.49369,5.620641 6.81638,15.232685 9.606,21.360105 2.78961,6.12741 6.33304,14.45884 7.87429,18.51428 l 2.80228,7.37354 -2.60123,11.56574 c -1.43068,6.36116 -5.56718,16.98995 -9.19223,23.61953 -3.62504,6.62958 -6.59099,13.5693 -6.59099,15.42161 0,1.8523 -1.39132,4.95078 -3.09183,6.88549 l -3.09183,3.51768 2.29929,12.50876 c 3.19687,17.39184 1.42159,22.52394 -9.46037,27.34877 -4.98091,2.20841 -8.6678,5.17326 -8.19309,6.58853 1.01948,3.03944 20.32094,3.76375 27.86527,1.0457 2.87036,-1.03413 14.54838,-2.04796 25.95116,-2.25295 l 20.73231,-0.37273 7.86118,4.25441 c 9.1185,4.93491 9.39388,6.25772 3.36961,16.18749 -3.05546,5.03629 -5.69027,7.02503 -8.30621,6.26946 -2.10719,-0.6086 -8.07554,-2.33305 -13.26301,-3.83209 l -9.43175,-2.72549 -14.95746,2.63385 c -15.59972,2.74695 -47.10689,2.72534 -47.10689,-0.0323 0,-0.87488 -2.19838,-2.29187 -4.88529,-3.14886 -2.68691,-0.85702 -6.25027,-2.92991 -7.91858,-4.60646 -3.43711,-3.4541 -13.80254,-4.15545 -13.80254,-0.93393 0,1.16287 -6.26245,5.11789 -13.91655,8.78888 -15.19681,7.28859 -25.178478,7.9618 -38.88127,2.62235 z m 94.39849,-42.96371 c -2.28937,-6.90202 -68.11661,-10.77436 -78.184492,-4.59926 l -4.434402,2.71983 23.280614,-0.32249 c 23.54121,-0.3261 52.97237,1.68974 55.04245,3.77005 2.18294,2.19372 5.18065,1.09946 4.29583,-1.56813 z m -67.40529,-16.23894 c 0.85985,-2.2518 -0.10513,-3.34223 -2.95773,-3.34223 -4.56945,0 -7.472196,2.95051 -5.174459,5.2596 2.517929,2.53036 6.821259,1.51574 8.132189,-1.91737 z m 65.83785,0.14967 c -1.45011,-1.75591 -4.5655,-3.04654 -6.92309,-2.86807 -8.18456,0.61957 -3.70056,5.49877 5.40807,5.88471 l 4.15158,0.17592 z m -27.83606,-1.26792 c 1.82086,-2.96076 -9.44245,-7.15202 -14.70722,-5.4728 -2.27786,0.72654 -4.14155,2.75741 -4.14155,4.51305 0,3.74455 16.61581,4.59061 18.84877,0.95975 z m 27.71245,-11.11521 c 0,-0.95151 -2.49435,-2.2092 -5.543,-2.79486 -5.74802,-1.10423 -8.13554,3.72149 -2.7715,5.60182 3.40757,1.1945 8.3145,-0.46207 8.3145,-2.80696 z m -40.54852,-2.93497 c 9.36565,0.62031 19.32725,2.00615 22.13688,3.07964 l 5.10843,1.95181 v -2.91168 c 0,-4.41091 -17.67233,-7.56437 -37.05141,-6.61148 -22.03428,1.08346 -27.247422,2.27487 -27.247422,6.22711 v 3.1932 l 10.012542,-3.02821 c 6.50439,-1.9672 15.97887,-2.63305 27.04098,-1.90039 z m 43.59717,-7.7765 c 0.60124,-0.97762 0.31874,-3.03672 -0.62778,-4.57578 -3.05668,-4.97024 -67.12663,-7.74663 -79.862256,-3.46074 l -3.165148,1.06516 3.460779,3.47787 3.460776,3.47787 5.007349,-2.69308 5.00734,-2.69309 25.66258,1.61138 c 14.11442,0.88626 27.69193,2.43804 30.17225,3.44841 5.92811,2.41484 9.53953,2.52832 10.88411,0.342 z m -47.11399,-49.61985 4.42157,-2.37803 -0.68723,-9.31976 -0.68722,-9.31975 7.74083,-0.7383 c 4.25745,-0.40607 8.43194,-1.86207 9.27663,-3.23555 1.88531,-3.06557 -4.14556,-7.57067 -11.53712,-8.618302 l -5.48034,-0.776753 0.74554,-6.377154 0.74554,-6.377156 -2.96274,1.046591 c -1.62951,0.575627 -2.80643,2.800297 -2.61538,4.943711 l 0.34736,3.89712 -2.4537,-2.465818 -2.45371,-2.465821 2.66065,-2.67378 c 3.93873,-3.958183 3.24165,-6.238822 -1.90689,-6.238822 h -4.56753 l 1.0483,6.684452 1.04831,6.684451 -3.68668,0.07085 c -2.02768,0.03897 -5.66013,1.569949 -8.07212,3.402164 l -4.38544,3.331307 2.37275,3.83932 c 1.30502,2.11163 4.97493,5.12349 8.15535,6.69303 l 5.7826,2.85369 -1.00961,7.92458 c -1.47898,11.60872 0.37963,13.79837 8.16028,9.61373 z"
       id="path5459"
       inkscape:connector-curvature="0" />
    <path
       style="fill:#aaaaaa;fill-opacity:1;stroke-width:2.22266912"
       d="m 79.794106,264.38964 c -3.243071,-1.44829 -7.732904,-4.2481 -9.977406,-6.22177 -4.371307,-3.84385 -14.625032,-7.39619 -27.690045,-9.59304 l -8.088727,-1.3601 -1.429851,-5.7251 c -0.844284,-3.38051 -0.283221,-7.11355 1.370015,-9.11541 l 2.799864,-3.39029 11.153114,1.19402 c 6.134216,0.6567 18.332047,4.28358 27.106295,8.05971 16.92356,7.28334 31.744175,8.85969 35.906905,3.81912 l 2.51603,-3.0466 -2.79884,-2.11966 c -1.53937,-1.16583 -5.53045,-2.28929 -8.86907,-2.49657 -3.338626,-0.20722 -8.125606,-2.44243 -10.637735,-4.96697 l -4.567505,-4.59006 -0.0494,-15.70567 c -0.02716,-8.63813 0.455715,-16.21328 1.07307,-16.83369 0.617358,-0.6204 0.07075,-3.78225 -1.214691,-7.02632 -2.598839,-6.55871 -4.313124,-12.61842 -9.459166,-33.4366 l -3.502528,-14.16938 4.840862,-13.6825 c 2.662473,-7.52537 7.665026,-17.9941 11.116783,-23.26383 3.451763,-5.269742 6.275928,-10.426474 6.275928,-11.459406 0,-1.032935 1.496611,-2.455202 3.325802,-3.160594 1.82919,-0.705395 3.3258,-2.783114 3.3258,-4.617158 0,-1.834044 3.00505,-6.774085 6.67788,-10.977872 l 6.67789,-7.643247 -2.51968,-11.806879 -2.51968,-11.806878 5.95293,-5.145782 5.95293,-5.145782 5.96357,1.410468 c 3.27997,0.775757 6.76712,2.138655 7.74921,3.028658 2.18721,1.9821 -0.41737,13.40352 -3.05658,13.40352 -1.04436,0 -2.88606,1.853763 -4.09268,4.119471 l -2.19384,4.119474 8.34328,8.692392 c 13.14006,13.689897 23.46311,29.340482 33.65732,51.027255 5.18452,11.02934 10.28146,21.79442 11.32655,23.92238 1.04508,2.12797 1.90015,9.47083 1.90015,16.31747 v 12.44844 l 3.8801,-0.76674 3.8801,-0.76674 -0.20117,-9.98035 C 189.33242,137.7994 187.31171,131.76172 169.38682,95.243641 150.92279,57.62719 148.08951,49.103017 150.32202,37.885376 l 1.33032,-6.684452 h 5.14221 c 2.82822,0 7.94164,2.455623 11.36316,5.456941 l 6.22094,5.456941 -3.79095,6.822361 -3.79096,6.822363 4.80055,8.331088 c 2.6403,4.582101 5.44786,8.832425 6.23901,9.445166 0.79116,0.612741 4.70533,7.631416 8.69816,15.597054 3.99283,7.965638 8.22819,16.383092 9.4119,18.705452 1.18371,2.32236 3.9369,9.65898 6.1182,16.3036 l 3.96601,12.08113 -2.23252,7.09198 c -4.74246,15.06526 -11.34732,31.74683 -13.83559,34.94386 -1.4307,1.83822 -3.86923,7.40026 -5.41895,12.36008 l -2.81768,9.01786 2.58935,9.6636 c 3.79995,14.18163 1.69772,19.26087 -10.152,24.52844 -5.97897,2.65785 -9.76744,5.67591 -9.21072,7.33766 l 0.94569,2.8228 16.43486,-0.47417 c 9.03917,-0.26081 27.1325,-0.81604 40.20738,-1.23386 l 23.77254,-0.75965 5.61251,5.22992 5.61249,5.22991 -3.38985,6.58764 -3.38986,6.58764 h -6.46381 c -3.5551,0 -7.16464,-1.13954 -8.02119,-2.53232 l -1.55734,-2.53229 -19.08261,1.8841 c -24.00118,2.36975 -53.54079,2.60607 -54.87354,0.43899 -0.55729,-0.90616 -6.16939,-4.12738 -12.47134,-7.15829 l -11.45809,-5.5107 -3.39784,3.04635 c -1.86881,1.6755 -8.2857,5.64421 -14.25977,8.81935 l -10.86193,5.77296 -11.310079,-0.18093 c -6.220544,-0.0996 -13.963501,-1.36594 -17.206575,-2.81426 z m 96.379374,-42.64452 c -0.8456,-4.38614 -22.36629,-8.17901 -48.56922,-8.55999 l -26.81959,-0.38994 -3.66693,3.05802 c -6.915182,5.76686 -4.143328,7.54412 9.08197,5.82318 14.85627,-1.93318 32.15729,-1.56778 49.33273,1.04191 14.78841,2.24698 21.20355,1.94453 20.64104,-0.97318 z m -0.68623,-13.32783 c 0,-4.41789 -6.78757,-7.67194 -12.0204,-5.76274 l -4.2602,1.55433 5.30784,3.73612 c 6.54148,4.60446 10.97276,4.79519 10.97276,0.47229 z m -67.0693,-2.86359 c 0.61023,-1.8418 -1.48475,-2.78519 -6.18506,-2.78519 h -7.10785 l 2.839088,3.43779 c 3.216032,3.89421 9.068402,3.52887 10.453822,-0.6526 z m 36.57276,1.37839 4.68715,-2.52087 -7.3908,-3.84081 -7.3908,-3.8408 -6.31092,2.39387 c -7.60589,2.88508 -8.00855,5.33105 -1.32221,8.0319 6.92391,2.79682 12.23661,2.7299 17.72758,-0.22329 z m 27.69882,-12.43696 c 0.50835,-1.53436 -1.80874,-3.24264 -5.35927,-3.95113 -3.44015,-0.68646 -10.89261,-2.29397 -16.56102,-3.57223 -13.47783,-3.03934 -52.999392,-0.9898 -55.374161,2.87163 -2.967635,4.82545 1.67069,6.96367 9.304611,4.28933 9.65644,-3.38288 33.7019,-3.00358 48.61555,0.76687 13.91852,3.51886 18.10339,3.43149 19.37429,-0.40447 z m 5.79606,-11.2475 c 1.85359,-3.01399 -3.95093,-8.31733 -9.64994,-8.81674 -3.04865,-0.26716 -12.52719,-1.11214 -21.06341,-1.87775 -8.53623,-0.7656 -16.51815,-1.33604 -17.73761,-1.26764 -1.21946,0.0684 -8.97992,0.34319 -17.24546,0.61063 -9.45193,0.30583 -15.957577,1.61155 -17.532783,3.51892 l -2.504524,3.03267 2.45079,2.4629 2.450792,2.46289 12.864785,-2.66847 c 8.82009,-1.8295 16.23115,-2.01308 23.572,-0.58389 5.88896,1.14651 12.45498,1.62526 14.59117,1.06387 2.13619,-0.56138 7.29535,-0.0359 11.46481,1.16784 9.48781,2.73907 16.98032,3.10463 18.33938,0.89477 z m -45.85829,-49.7063 c 1.33516,-1.34175 1.89187,-6.65409 1.27432,-12.16003 l -1.09663,-9.77737 7.70982,1.25731 7.70981,1.25731 1.47496,-3.86267 c 1.93648,-5.0713 -1.8149,-9.3587 -9.71423,-11.102254 -4.33936,-0.95779 -5.98085,-2.43044 -5.14601,-4.616726 1.9862,-5.201526 -4.88445,-13.652196 -10.71917,-13.184222 l -5.17155,0.414781 0.69614,7.024915 0.69613,7.024915 -4.02194,0.07085 c -6.24092,0.10996 -12.53478,5.885001 -10.94658,10.044221 0.76546,2.00461 4.31748,4.75453 7.89337,6.11095 l 6.50163,2.46621 -0.11359,8.27149 c -0.0625,4.54932 0.56049,9.36757 1.38438,10.70723 1.91492,3.1137 8.51349,3.14392 11.58915,0.0531 z"
       id="path5457"
       inkscape:connector-curvature="0" />
    <path
       style="fill:#6e6e6e;fill-opacity:1;stroke-width:2.22266912"
       d="m 80.147599,263.67147 c -4.268112,-2.14313 -8.336901,-4.72181 -9.041753,-5.73043 -2.031019,-2.90626 -23.695436,-10.60952 -29.837929,-10.60952 h -5.574099 l -2.244715,-5.9332 c -1.560776,-4.12542 -1.509911,-6.67126 0.166933,-8.35557 3.945076,-3.96256 23.406056,-1.8749 35.947125,3.85622 24.852696,11.35737 31.920619,12.40792 41.482679,6.16576 l 3.18323,-2.07802 -2.90042,-3.51203 c -1.59522,-1.93163 -5.1174,-3.51206 -7.82706,-3.51206 -2.70966,0 -7.730631,-2.42128 -11.15771,-5.38063 l -6.231054,-5.38062 1.400952,-18.2569 c 0.883767,-11.51706 0.517962,-19.91492 -0.990901,-22.74818 -1.315518,-2.47021 -2.714754,-6.62267 -3.109414,-9.2277 -0.394659,-2.60502 -2.28867,-9.65844 -4.208915,-15.67425 -1.920243,-6.01581 -3.491352,-13.60787 -3.491352,-16.87124 0,-8.85223 6.414849,-26.1024 14.890059,-40.04086 4.134655,-6.799913 8.711718,-14.340796 10.171255,-16.757517 1.45954,-2.416724 5.81581,-8.721576 9.68062,-14.010787 l 7.02692,-9.616742 -1.8073,-6.04257 c -0.99401,-3.323414 -2.48722,-7.719715 -3.31825,-9.769556 -0.95466,-2.354828 0.18479,-5.431083 3.09489,-8.355564 4.77018,-4.793737 8.78207,-5.532652 17.41692,-3.207869 l 5.05088,1.359863 -1.36187,4.737128 c -0.74902,2.605419 -3.58868,6.742462 -6.31035,9.193427 -6.34218,5.71136 -5.23786,9.552589 5.12456,17.825204 4.60519,3.676449 11.23155,11.447124 14.72523,17.268167 3.4937,5.821043 7.07646,10.583715 7.96171,10.583715 0.88526,0 2.26814,2.256002 3.07309,5.013338 0.80495,2.757333 5.04266,12.533343 9.41714,21.724473 12.20258,25.63857 12.28524,25.90458 11.01268,35.43904 l -1.19449,8.94965 3.27217,2.72907 3.27217,2.72907 2.17327,-3.19895 c 1.19802,-1.76343 1.66267,-10.12651 1.03544,-18.63658 l -1.13782,-15.43763 -12.59038,-25.78315 C 169.46704,92.936732 161.69142,77.830235 159.1126,73.547473 150.26536,58.85446 147.48301,34.683283 154.33478,32.041026 c 4.61728,-1.780566 14.06224,3.173528 15.65301,8.210367 0.86313,2.732905 0.26485,7.228065 -1.37079,10.29937 l -2.90237,5.449927 2.6744,3.754208 c 1.47093,2.064814 3.60822,5.912812 4.74955,8.551107 1.14133,2.638293 3.13249,5.453599 4.4248,6.256235 1.29231,0.802635 4.92365,7.166708 8.06964,14.142381 3.146,6.975675 7.51619,16.192379 9.71154,20.481569 2.19535,4.28919 5.18417,11.54612 6.64182,16.12652 l 2.65027,8.32798 -2.63682,12.76425 c -1.45026,7.02033 -5.41749,18.31275 -8.81607,25.09427 -3.39858,6.78151 -7.44129,15.08488 -8.9838,18.45192 l -2.80455,6.1219 2.30527,12.78112 c 2.9237,16.20982 0.91135,20.68408 -11.65142,25.90575 -11.04096,4.58914 -11.75926,5.85469 -5.53882,9.75858 l 4.32639,2.71523 17.29132,-2.19673 c 9.51023,-1.2082 20.78341,-2.68031 25.05152,-3.27135 11.97948,-1.65893 33.00979,1.30734 37.9876,5.35805 l 4.47842,3.6443 -1.49861,6.00045 c -1.96178,7.85492 -7.03325,9.21648 -18.79539,5.04607 -5.2845,-1.87369 -11.18787,-2.9178 -13.11858,-2.32028 -7.12171,2.20402 -30.4813,4.53939 -42.55436,4.25434 l -12.43752,-0.29365 -14.48589,-6.94762 c -16.40037,-7.86584 -19.01077,-8.31808 -20.81031,-3.60539 -0.70193,1.83823 -2.20763,3.34223 -3.346,3.34223 -1.13837,0 -4.87918,2.08735 -8.31291,4.63854 -4.05806,3.01509 -10.81678,4.99676 -19.31073,5.66197 l -13.067587,1.02339 z m 53.212831,-26.23512 c 0,-0.54041 -0.99774,-1.60226 -2.2172,-2.35965 -1.21946,-0.7574 -2.2172,-0.31524 -2.2172,0.98257 0,1.29781 0.99774,2.35965 2.2172,2.35965 1.21946,0 2.2172,-0.44215 2.2172,-0.98257 z m 43.29545,-12.48392 c 2.72586,-4.43233 -3.57768,-8.32563 -16.00637,-9.88616 -6.86832,-0.86238 -14.57096,-2.37491 -17.11697,-3.36117 l -4.62911,-1.79321 6.09731,-2.40246 c 3.35351,-1.32136 6.0973,-2.81437 6.0973,-3.31781 0,-0.50344 -3.57562,-2.62047 -7.94582,-4.70451 l -7.94582,-3.78916 -6.46599,2.69153 c -8.28834,3.4501 -8.17606,6.09973 0.41229,9.72869 l 6.87827,2.90638 -19.31793,1.21115 c -12.91563,0.80976 -20.424664,2.32336 -22.657348,4.56707 l -3.339426,3.35592 4.409876,2.37175 c 2.802677,1.50735 6.882208,1.65918 11.193548,0.41661 9.20361,-2.6526 61.09697,-0.0657 64.35466,3.20804 1.81278,1.82174 4.4473,1.29202 5.98153,-1.20266 z m -71.1918,-14.62378 c 4.83699,-1.86529 4.5337,-9.79731 -0.37297,-9.75417 -2.13405,0.0187 -5.312553,0.94502 -7.06333,2.05833 l -3.183232,2.02422 2.900416,3.51204 c 3.319746,4.0198 3.073746,3.95098 7.719116,2.15958 z m 70.02317,-1.6184 c 0,-1.63398 -0.7483,-3.72841 -1.6629,-4.6543 -0.91459,-0.92589 -1.6629,-4.32049 -1.6629,-7.54355 v -5.86012 l -11.08601,-1.87402 c -15.44588,-2.61102 -18.93796,-6.92664 -4.4344,-5.48016 6.09731,0.6081 12.58262,1.71784 14.41181,2.46609 5.17027,2.11496 8.85891,-1.49169 7.3715,-7.20765 -0.89805,-3.45111 -2.57041,-4.78742 -5.14472,-4.1109 -2.09778,0.5513 -5.49544,0.0568 -7.55035,-1.09886 -2.0549,-1.15566 -18.1497,-2.15897 -35.76621,-2.22957 l -32.030009,-0.12836 -3.377068,2.81656 -3.377068,2.81656 2.671787,3.2352 2.671785,3.23521 10.104463,-1.6073 c 12.11474,-1.92706 27.30948,-1.46458 34.03579,1.03593 3.20238,1.19049 -2.12542,1.91665 -15.4254,2.10243 -22.0935,0.30861 -31.786543,2.76743 -31.786543,8.06325 0,4.02141 7.387853,4.46111 17.199983,1.02369 l 6.7757,-2.37369 21.05036,2.35885 c 11.57769,1.29736 22.78586,3.02811 24.90705,3.8461 l 3.85669,1.48726 -4.19117,3.12165 -4.19118,3.12164 4.30388,3.20447 c 5.40572,4.02484 12.32513,4.15598 12.32513,0.23359 z M 133.93826,132.8385 c 0.92754,-1.36668 1.08928,-6.24488 0.35942,-10.84044 l -1.32703,-8.35557 h 7.87709 c 5.46645,0 8.56624,-1.29406 10.12901,-4.22854 l 2.25192,-4.22854 -5.42171,-3.56999 c -2.98194,-1.963488 -6.95342,-3.56998 -8.82552,-3.56998 -2.24985,0 -3.40381,-2.11509 -3.40381,-6.238822 0,-7.917585 -3.65077,-11.586382 -11.52945,-11.586382 h -6.20816 v 7.798526 c 0,4.28919 -0.74831,7.585509 -1.6629,7.325152 -0.9146,-0.260357 -3.90782,0.777589 -6.6516,2.306546 -7.5107,4.18528 -6.30454,10.97725 2.71717,15.30065 l 7.70588,3.69283 -1.17724,4.71366 c -0.64748,2.59252 -0.12338,7.49918 1.16465,10.90371 l 2.34188,6.19004 4.98699,-1.56399 c 2.74284,-0.86019 5.74587,-2.68218 6.67341,-4.04886 z"
       id="path5455"
       inkscape:connector-curvature="0" />
    <path
       style="fill:#000005;fill-opacity:1;stroke-width:2.22266912"
       d="m 84.57788,264.24666 c -4.270379,-1.61157 -11.517312,-5.48954 -16.104296,-8.61773 -4.586983,-3.12819 -12.567054,-6.34806 -17.733488,-7.15528 -15.414331,-2.40836 -17.153723,-3.32224 -17.153723,-9.0124 0,-11.5944 15.7722,-11.21885 42.887805,1.02123 15.797505,7.13104 25.356522,8.46125 32.642802,4.54251 7.06126,-3.79775 4.97406,-8.45209 -5.13447,-11.44958 -5.182705,-1.53684 -10.919714,-4.26307 -12.748905,-6.05829 l -3.325802,-3.26402 -0.217019,-21.32601 c -0.119379,-11.7293 -1.309555,-24.83534 -2.644846,-29.12453 -1.335292,-4.28919 -4.080209,-13.96948 -6.099816,-21.51174 L 75.274111,138.5776 80.208563,124.61068 C 85.598098,109.35567 101.67708,81.148804 111.60173,69.538625 l 6.27388,-7.339386 -1.45105,-6.029517 c -0.79808,-3.316235 -2.23273,-8.165845 -3.1881,-10.776909 l -1.73706,-4.747394 5.56273,-4.860612 5.56272,-4.860612 6.47639,1.429478 c 3.61406,0.797701 6.47639,2.893116 6.47639,4.741148 0,5.433858 -4.34983,11.931307 -7.98762,11.931307 -5.31516,0 -1.91412,7.229732 8.62516,18.334887 12.20916,12.864695 25.96888,32.805225 25.96888,37.633985 0,2.10091 0.7483,4.15406 1.6629,4.56255 2.3397,1.04501 11.6403,20.61551 11.6403,24.49376 0,1.76527 1.07356,4.28844 2.38569,5.60704 1.31212,1.31861 2.569,7.49477 2.79307,13.7248 0.22405,6.23003 1.64485,12.57092 3.15731,14.09085 l 2.74994,2.76352 2.60274,-2.6156 c 6.52402,-6.55624 -1.26009,-49.30193 -10.43843,-57.32165 -1.40253,-1.22549 -4.81694,-7.69332 -7.58758,-14.372968 -2.77064,-6.67965 -7.32495,-15.786212 -10.12068,-20.236805 -6.14443,-9.781483 -9.90221,-22.626726 -9.91891,-33.905858 l -0.0124,-8.355564 h 5.29737 c 2.91356,0 7.53014,1.816907 10.25907,4.037573 l 4.96169,4.037574 -1.53968,4.875028 c -0.84681,2.681265 -2.47017,4.875029 -3.60745,4.875029 -3.79994,0 -2.12433,7.887884 2.36661,11.140752 2.43892,1.766556 4.4344,4.995908 4.4344,7.176336 0,2.180431 0.89999,3.964417 1.99998,3.964417 2.57802,0 24.60644,45.458396 24.60644,50.778456 0,2.21873 1.11661,5.15617 2.48135,6.52766 l 2.48136,2.49361 -2.68353,11.24144 c -1.47594,6.18279 -6.08353,17.79455 -10.2391,25.8039 -4.15556,8.00935 -7.0348,14.56246 -6.39831,14.56246 0.63648,0 -0.28919,2.256 -2.05706,5.01334 l -3.21431,5.01334 2.21379,12.02276 c 3.23064,17.54504 1.51938,21.59372 -11.50732,27.22533 l -11.12548,4.80968 3.93763,4.37253 3.93763,4.37252 15.53237,-1.43783 c 8.54281,-0.79079 26.00865,-1.9074 38.81299,-2.48133 l 23.28061,-1.04351 5.31488,4.55438 5.31487,4.55439 -2.49583,5.50484 c -2.70654,5.96955 -10.54189,7.34773 -18.23886,3.20807 -2.95495,-1.58925 -10.59372,-1.51438 -24.79776,0.24303 -21.15437,2.61736 -32.77131,3.06923 -40.48214,1.57468 -6.8869,-1.33487 -18.84621,-7.0937 -18.84621,-9.07515 0,-0.98005 -1.24718,-1.57461 -2.7715,-1.32127 -1.52433,0.25334 -5.64615,-0.34574 -9.15961,-1.3313 l -6.38811,-1.79192 -2.03657,3.65711 c -1.12011,2.01141 -3.02645,3.65713 -4.23631,3.65713 -1.20985,0 -4.34163,2.00533 -6.95951,4.4563 -2.61787,2.45096 -7.81429,4.46998 -11.54759,4.48671 -3.73331,0.0178 -8.78331,0.47126 -11.222232,1.01005 -2.438921,0.53876 -7.928348,-0.33897 -12.198728,-1.95053 z m 47.67395,-26.94181 c 0,-2.24671 -1.14468,-4.46838 -2.54373,-4.93705 -1.51921,-0.50889 -2.41221,1.4348 -2.2172,4.82593 0.36672,6.37683 4.76093,6.47942 4.76093,0.11118 z m 18.80174,-8.96646 c -1.54255,-1.86784 -3.38187,-2.81598 -4.08737,-2.10698 -0.70551,0.70897 0.18498,2.22186 1.97885,3.36194 4.69375,2.98307 5.30704,2.61806 2.10852,-1.25496 z m 26.40674,-4.10681 2.51603,-3.04661 -2.79885,-2.33354 c -1.53936,-1.28345 -7.28867,-2.95177 -12.77624,-3.70739 -5.48758,-0.75562 -12.8915,-1.96115 -16.45317,-2.67896 l -6.47576,-1.30511 5.36716,-4.07315 5.36716,-4.07316 -8.47726,-3.56304 c -8.30747,-3.49168 -15.20454,-2.94524 -20.928,1.65807 l -2.79884,2.25108 2.5605,3.10044 c 1.40827,1.70525 1.86519,3.79918 1.01538,4.65319 -0.84981,0.854 -2.47332,0.0778 -3.6078,-1.72496 -1.13448,-1.80274 -2.07797,-2.13817 -2.09665,-0.7454 -0.0187,1.39276 -3.02717,2.97377 -6.68555,3.51336 -7.52146,1.10937 -8.30405,0.11618 -2.98707,-3.79089 4.70487,-3.45728 2.04058,-7.82515 -4.77314,-7.82515 -7.050412,0 -9.02543,3.81452 -4.54883,8.78554 l 3.64577,4.04843 -5.645772,1.42399 c -6.456413,1.62846 -7.540473,7.12387 -1.765671,8.9507 2.134057,0.67509 8.936593,0.41992 15.116743,-0.56704 11.87338,-1.89617 30.22897,-1.22838 48.62779,1.76913 15.99842,2.60643 15.85061,2.61215 18.60207,-0.71953 z m -0.80419,-12.64845 c 0.78681,-1.27937 -0.12621,-4.71381 -2.02894,-7.63208 l -3.45951,-5.30594 2.55869,-0.85711 c 1.40728,-0.47141 1.9272,-2.51086 1.15538,-4.53211 -0.92509,-2.42268 -5.23354,-4.18562 -12.64326,-5.17341 -6.18198,-0.82412 -11.77533,-2.3689 -12.42966,-3.43286 -1.57693,-2.56413 0.97715,-2.44269 14.47417,0.68818 l 11.30605,2.62263 2.44741,-2.4595 c 1.34608,-1.35272 1.83719,-4.90285 1.09135,-7.88917 l -1.35606,-5.42968 -8.34815,-0.39448 c -4.59148,-0.21696 -23.2055,-0.60436 -41.36449,-0.86087 l -33.016343,-0.4664 -2.458876,4.03886 -2.458876,4.03885 5.234333,4.31671 5.234332,4.31671 h -3.72564 c -2.595739,0 -3.510441,1.52043 -3.016059,5.01334 l 0.709582,5.01334 4.43333,-0.66792 c 17.666197,-2.66158 38.132987,-2.80773 52.265567,-0.37324 l 16.4666,2.83656 -6.40159,2.68108 c -6.61913,2.77218 -6.41226,3.16517 4.74508,9.01417 7.289,3.8211 8.71171,3.94129 10.58558,0.89434 z m -68.49986,-29.34544 c 0.59216,-0.96287 5.56649,-1.75068 11.05407,-1.75068 5.92644,0 9.43415,0.88334 8.63939,2.17563 -0.7359,1.1966 -5.71023,1.98441 -11.05407,1.75068 -5.34383,-0.23372 -9.23156,-1.21275 -8.63939,-2.17563 z m 27.02279,-58.37028 -0.71002,-9.11084 7.1192,0.0163 7.1192,0.0163 2.69238,-5.0556 2.69238,-5.05561 -4.26858,-3.24543 c -2.34771,-1.784853 -5.90646,-3.277183 -7.90831,-3.316158 -2.08914,-0.04067 -4.29037,-2.675956 -5.16696,-6.185812 -2.20228,-8.817943 -5.29662,-11.710254 -12.5282,-11.710254 h -6.38012 v 6.140535 6.140533 l -6.41412,2.853185 c -3.52776,1.569253 -6.93807,4.866681 -7.57845,7.327611 l -1.16434,4.47443 7.35134,4.84272 7.35134,4.84271 1.1364,8.51433 c 0.62502,4.68288 2.31533,9.94187 3.75625,11.68665 l 2.61985,3.17232 5.4954,-3.6185 5.49539,-3.61851 z"
       id="path5453"
       inkscape:connector-curvature="0" />
  </g>
</svg>
