<?xml version="1.0" encoding="UTF-8" standalone="no"?>
<svg
   xmlns:dc="http://purl.org/dc/elements/1.1/"
   xmlns:cc="http://creativecommons.org/ns#"
   xmlns:rdf="http://www.w3.org/1999/02/22-rdf-syntax-ns#"
   xmlns:svg="http://www.w3.org/2000/svg"
   xmlns="http://www.w3.org/2000/svg"
   xmlns:sodipodi="http://sodipodi.sourceforge.net/DTD/sodipodi-0.dtd"
   xmlns:inkscape="http://www.inkscape.org/namespaces/inkscape"
   version="1.0"
   width="300.000000pt"
   height="300.000000pt"
   viewBox="0 0 300.000000 300.000000"
   preserveAspectRatio="xMidYMid meet"
   id="svg2"
   inkscape:version="0.92.2 (5c3e80d, 2017-08-06)"
   sodipodi:docname="bk.svg">
  <defs
     id="defs12">
    <filter
       style="color-interpolation-filters:sRGB;"
       inkscape:label="Drawing"
       id="filter1326">
      <feGaussianBlur
         in="SourceGraphic"
         stdDeviation="0.6"
         result="blur1"
         id="feGaussianBlur1272" />
      <feConvolveMatrix
         in="blur1"
         targetX="1"
         targetY="1"
         order="3 3"
         kernelMatrix="0 250 0 250 -1010 250 0 250 0 "
         result="convolve1"
         id="feConvolveMatrix1274" />
      <feComposite
         in="convolve1"
         in2="convolve1"
         k1="1"
         k2="1"
         k4="0"
         operator="arithmetic"
         result="composite1"
         id="feComposite1276" />
      <feColorMatrix
         in="composite1"
         values="0 0 0 0 0 0 0 0 0 0 0 0 0 0 0 -0.2125 -0.7154 -0.0721 1 0 "
         result="color1"
         id="feColorMatrix1278" />
      <feGaussianBlur
         stdDeviation="0.6"
         result="blur2"
         id="feGaussianBlur1280" />
      <feColorMatrix
         values="1 0 0 0 0 0 1 0 0 0 0 0 1 0 0 0 0 0 6 -2 "
         result="color2"
         id="feColorMatrix1282" />
      <feFlood
         flood-color="rgb(255,255,255)"
         result="flood1"
         id="feFlood1284" />
      <feBlend
         in2="color2"
         mode="multiply"
         result="blend1"
         id="feBlend1286" />
      <feComponentTransfer
         in="blend1"
         result="component1"
         id="feComponentTransfer1294">
        <feFuncR
           type="discrete"
           tableValues="0 1 1 1"
           id="feFuncR1288" />
        <feFuncG
           type="discrete"
           tableValues="0 1 1 1"
           id="feFuncG1290" />
        <feFuncB
           type="discrete"
           tableValues="0 1 1 1"
           id="feFuncB1292" />
      </feComponentTransfer>
      <feGaussianBlur
         stdDeviation="1"
         result="blur3"
         id="feGaussianBlur1296" />
      <feColorMatrix
         in="blur3"
         values="0 0 0 0 0 0 0 0 0 0 0 0 0 0 0 -0.2125 -0.7154 -0.0721 1 0 "
         result="color3"
         id="feColorMatrix1298" />
      <feColorMatrix
         values="1 0 0 0 0 0 1 0 0 0 0 0 1 0 0 0 0 0 6 -2 "
         result="color4"
         id="feColorMatrix1300" />
      <feFlood
         flood-color="rgb(0,0,0)"
         result="flood2"
         id="feFlood1302" />
      <feComposite
         in="flood2"
         in2="color4"
         operator="in"
         result="composite2"
         id="feComposite1304" />
      <feComposite
         in="composite2"
         in2="composite2"
         operator="arithmetic"
         k2="1"
         result="composite3"
         id="feComposite1306" />
      <feOffset
         dx="0"
         dy="0"
         result="offset1"
         id="feOffset1308" />
      <feFlood
         in="color4"
         flood-color="rgb(165,165,165)"
         result="flood3"
         id="feFlood1310" />
      <feComposite
         in="flood3"
         in2="color4"
         operator="out"
         result="composite4"
         id="feComposite1312" />
      <feComposite
         in="composite4"
         in2="composite4"
         operator="arithmetic"
         k2="1"
         result="composite5"
         id="feComposite1314" />
      <feMerge
         result="merge1"
         id="feMerge1320">
        <feMergeNode
           in="composite5"
           id="feMergeNode1316" />
        <feMergeNode
           in="offset1"
           id="feMergeNode1318" />
      </feMerge>
      <feColorMatrix
         values="1 0 0 0 0 0 1 0 0 0 0 0 1 0 0 0 0 0 1.3 0 "
         result="color5"
         flood-opacity="0.56"
         id="feColorMatrix1322" />
      <feComposite
         in="color5"
         in2="SourceGraphic"
         operator="in"
         result="composite8"
         id="feComposite1324" />
    </filter>
    <filter
       style="color-interpolation-filters:sRGB;"
       inkscape:label="Drawing"
       id="filter1390">
      <feGaussianBlur
         in="SourceGraphic"
         stdDeviation="0.6"
         result="blur1"
         id="feGaussianBlur1336" />
      <feConvolveMatrix
         in="blur1"
         targetX="1"
         targetY="1"
         order="3 3"
         kernelMatrix="0 250 0 250 -1010 250 0 250 0 "
         result="convolve1"
         id="feConvolveMatrix1338" />
      <feComposite
         in="convolve1"
         in2="convolve1"
         k1="1"
         k2="1"
         k4="0"
         operator="arithmetic"
         result="composite1"
         id="feComposite1340" />
      <feColorMatrix
         in="composite1"
         values="0 0 0 0 0 0 0 0 0 0 0 0 0 0 0 -0.2125 -0.7154 -0.0721 1 0 "
         result="color1"
         id="feColorMatrix1342" />
      <feGaussianBlur
         stdDeviation="0.6"
         result="blur2"
         id="feGaussianBlur1344" />
      <feColorMatrix
         values="1 0 0 0 0 0 1 0 0 0 0 0 1 0 0 0 0 0 6 -2 "
         result="color2"
         id="feColorMatrix1346" />
      <feFlood
         flood-color="rgb(255,255,255)"
         result="flood1"
         id="feFlood1348" />
      <feBlend
         in2="color2"
         mode="multiply"
         result="blend1"
         id="feBlend1350" />
      <feComponentTransfer
         in="blend1"
         result="component1"
         id="feComponentTransfer1358">
        <feFuncR
           type="discrete"
           tableValues="0 1 1 1"
           id="feFuncR1352" />
        <feFuncG
           type="discrete"
           tableValues="0 1 1 1"
           id="feFuncG1354" />
        <feFuncB
           type="discrete"
           tableValues="0 1 1 1"
           id="feFuncB1356" />
      </feComponentTransfer>
      <feGaussianBlur
         stdDeviation="1"
         result="blur3"
         id="feGaussianBlur1360" />
      <feColorMatrix
         in="blur3"
         values="0 0 0 0 0 0 0 0 0 0 0 0 0 0 0 -0.2125 -0.7154 -0.0721 1 0 "
         result="color3"
         id="feColorMatrix1362" />
      <feColorMatrix
         values="1 0 0 0 0 0 1 0 0 0 0 0 1 0 0 0 0 0 6 -2 "
         result="color4"
         id="feColorMatrix1364" />
      <feFlood
         flood-color="rgb(0,0,0)"
         result="flood2"
         id="feFlood1366" />
      <feComposite
         in="flood2"
         in2="color4"
         operator="in"
         result="composite2"
         id="feComposite1368" />
      <feComposite
         in="composite2"
         in2="composite2"
         operator="arithmetic"
         k2="1"
         result="composite3"
         id="feComposite1370" />
      <feOffset
         dx="0"
         dy="0"
         result="offset1"
         id="feOffset1372" />
      <feFlood
         in="color4"
         flood-color="rgb(165,165,165)"
         result="flood3"
         id="feFlood1374" />
      <feComposite
         in="flood3"
         in2="color4"
         operator="out"
         result="composite4"
         id="feComposite1376" />
      <feComposite
         in="composite4"
         in2="composite4"
         operator="arithmetic"
         k2="1"
         result="composite5"
         id="feComposite1378" />
      <feMerge
         result="merge1"
         id="feMerge1384">
        <feMergeNode
           in="composite5"
           id="feMergeNode1380" />
        <feMergeNode
           in="offset1"
           id="feMergeNode1382" />
      </feMerge>
      <feColorMatrix
         values="1 0 0 0 0 0 1 0 0 0 0 0 1 0 0 0 0 0 1.3 0 "
         result="color5"
         flood-opacity="0.56"
         id="feColorMatrix1386" />
      <feComposite
         in="color5"
         in2="SourceGraphic"
         operator="in"
         result="composite8"
         id="feComposite1388" />
    </filter>
    <filter
       style="color-interpolation-filters:sRGB;"
       inkscape:label="Drawing"
       id="filter1458">
      <feGaussianBlur
         in="SourceGraphic"
         stdDeviation="0.6"
         result="blur1"
         id="feGaussianBlur1404" />
      <feConvolveMatrix
         in="blur1"
         targetX="1"
         targetY="1"
         order="3 3"
         kernelMatrix="0 250 0 250 -1010 250 0 250 0 "
         result="convolve1"
         id="feConvolveMatrix1406" />
      <feComposite
         in="convolve1"
         in2="convolve1"
         k1="1"
         k2="1"
         k4="0"
         operator="arithmetic"
         result="composite1"
         id="feComposite1408" />
      <feColorMatrix
         in="composite1"
         values="0 0 0 0 0 0 0 0 0 0 0 0 0 0 0 -0.2125 -0.7154 -0.0721 1 0 "
         result="color1"
         id="feColorMatrix1410" />
      <feGaussianBlur
         stdDeviation="0.6"
         result="blur2"
         id="feGaussianBlur1412" />
      <feColorMatrix
         values="1 0 0 0 0 0 1 0 0 0 0 0 1 0 0 0 0 0 6 -2 "
         result="color2"
         id="feColorMatrix1414" />
      <feFlood
         flood-color="rgb(255,255,255)"
         result="flood1"
         id="feFlood1416" />
      <feBlend
         in2="color2"
         mode="multiply"
         result="blend1"
         id="feBlend1418" />
      <feComponentTransfer
         in="blend1"
         result="component1"
         id="feComponentTransfer1426">
        <feFuncR
           type="discrete"
           tableValues="0 1 1 1"
           id="feFuncR1420" />
        <feFuncG
           type="discrete"
           tableValues="0 1 1 1"
           id="feFuncG1422" />
        <feFuncB
           type="discrete"
           tableValues="0 1 1 1"
           id="feFuncB1424" />
      </feComponentTransfer>
      <feGaussianBlur
         stdDeviation="1"
         result="blur3"
         id="feGaussianBlur1428" />
      <feColorMatrix
         in="blur3"
         values="0 0 0 0 0 0 0 0 0 0 0 0 0 0 0 -0.2125 -0.7154 -0.0721 1 0 "
         result="color3"
         id="feColorMatrix1430" />
      <feColorMatrix
         values="1 0 0 0 0 0 1 0 0 0 0 0 1 0 0 0 0 0 6 -2 "
         result="color4"
         id="feColorMatrix1432" />
      <feFlood
         flood-color="rgb(0,0,0)"
         result="flood2"
         id="feFlood1434" />
      <feComposite
         in="flood2"
         in2="color4"
         operator="in"
         result="composite2"
         id="feComposite1436" />
      <feComposite
         in="composite2"
         in2="composite2"
         operator="arithmetic"
         k2="1"
         result="composite3"
         id="feComposite1438" />
      <feOffset
         dx="0"
         dy="0"
         result="offset1"
         id="feOffset1440" />
      <feFlood
         in="color4"
         flood-color="rgb(165,165,165)"
         result="flood3"
         id="feFlood1442" />
      <feComposite
         in="flood3"
         in2="color4"
         operator="out"
         result="composite4"
         id="feComposite1444" />
      <feComposite
         in="composite4"
         in2="composite4"
         operator="arithmetic"
         k2="1"
         result="composite5"
         id="feComposite1446" />
      <feMerge
         result="merge1"
         id="feMerge1452">
        <feMergeNode
           in="composite5"
           id="feMergeNode1448" />
        <feMergeNode
           in="offset1"
           id="feMergeNode1450" />
      </feMerge>
      <feColorMatrix
         values="1 0 0 0 0 0 1 0 0 0 0 0 1 0 0 0 0 0 1.3 0 "
         result="color5"
         flood-opacity="0.56"
         id="feColorMatrix1454" />
      <feComposite
         in="color5"
         in2="SourceGraphic"
         operator="in"
         result="composite8"
         id="feComposite1456" />
    </filter>
    <filter
       style="color-interpolation-filters:sRGB;"
       inkscape:label="Drawing"
       id="filter1535">
      <feGaussianBlur
         in="SourceGraphic"
         stdDeviation="0.6"
         result="blur1"
         id="feGaussianBlur1481" />
      <feConvolveMatrix
         in="blur1"
         targetX="1"
         targetY="1"
         order="3 3"
         kernelMatrix="0 250 0 250 -1010 250 0 250 0 "
         result="convolve1"
         id="feConvolveMatrix1483" />
      <feComposite
         in="convolve1"
         in2="convolve1"
         k1="1"
         k2="1"
         k4="0"
         operator="arithmetic"
         result="composite1"
         id="feComposite1485" />
      <feColorMatrix
         in="composite1"
         values="0 0 0 0 0 0 0 0 0 0 0 0 0 0 0 -0.2125 -0.7154 -0.0721 1 0 "
         result="color1"
         id="feColorMatrix1487" />
      <feGaussianBlur
         stdDeviation="0.6"
         result="blur2"
         id="feGaussianBlur1489" />
      <feColorMatrix
         values="1 0 0 0 0 0 1 0 0 0 0 0 1 0 0 0 0 0 6 -2 "
         result="color2"
         id="feColorMatrix1491" />
      <feFlood
         flood-color="rgb(255,255,255)"
         result="flood1"
         id="feFlood1493" />
      <feBlend
         in2="color2"
         mode="multiply"
         result="blend1"
         id="feBlend1495" />
      <feComponentTransfer
         in="blend1"
         result="component1"
         id="feComponentTransfer1503">
        <feFuncR
           type="discrete"
           tableValues="0 1 1 1"
           id="feFuncR1497" />
        <feFuncG
           type="discrete"
           tableValues="0 1 1 1"
           id="feFuncG1499" />
        <feFuncB
           type="discrete"
           tableValues="0 1 1 1"
           id="feFuncB1501" />
      </feComponentTransfer>
      <feGaussianBlur
         stdDeviation="1"
         result="blur3"
         id="feGaussianBlur1505" />
      <feColorMatrix
         in="blur3"
         values="0 0 0 0 0 0 0 0 0 0 0 0 0 0 0 -0.2125 -0.7154 -0.0721 1 0 "
         result="color3"
         id="feColorMatrix1507" />
      <feColorMatrix
         values="1 0 0 0 0 0 1 0 0 0 0 0 1 0 0 0 0 0 6 -2 "
         result="color4"
         id="feColorMatrix1509" />
      <feFlood
         flood-color="rgb(0,0,0)"
         result="flood2"
         id="feFlood1511" />
      <feComposite
         in="flood2"
         in2="color4"
         operator="in"
         result="composite2"
         id="feComposite1513" />
      <feComposite
         in="composite2"
         in2="composite2"
         operator="arithmetic"
         k2="1"
         result="composite3"
         id="feComposite1515" />
      <feOffset
         dx="0"
         dy="0"
         result="offset1"
         id="feOffset1517" />
      <feFlood
         in="color4"
         flood-color="rgb(165,165,165)"
         result="flood3"
         id="feFlood1519" />
      <feComposite
         in="flood3"
         in2="color4"
         operator="out"
         result="composite4"
         id="feComposite1521" />
      <feComposite
         in="composite4"
         in2="composite4"
         operator="arithmetic"
         k2="1"
         result="composite5"
         id="feComposite1523" />
      <feMerge
         result="merge1"
         id="feMerge1529">
        <feMergeNode
           in="composite5"
           id="feMergeNode1525" />
        <feMergeNode
           in="offset1"
           id="feMergeNode1527" />
      </feMerge>
      <feColorMatrix
         values="1 0 0 0 0 0 1 0 0 0 0 0 1 0 0 0 0 0 1.3 0 "
         result="color5"
         flood-opacity="0.56"
         id="feColorMatrix1531" />
      <feComposite
         in="color5"
         in2="SourceGraphic"
         operator="in"
         result="composite8"
         id="feComposite1533" />
    </filter>
    <filter
       style="color-interpolation-filters:sRGB;"
       inkscape:label="Drawing"
       id="filter5418">
      <feGaussianBlur
         in="SourceGraphic"
         stdDeviation="0.6"
         result="blur1"
         id="feGaussianBlur5364" />
      <feConvolveMatrix
         in="blur1"
         targetX="1"
         targetY="1"
         order="3 3"
         kernelMatrix="0 250 0 250 -1010 250 0 250 0 "
         result="convolve1"
         id="feConvolveMatrix5366" />
      <feComposite
         in="convolve1"
         in2="convolve1"
         k1="1"
         k2="1"
         k4="0"
         operator="arithmetic"
         result="composite1"
         id="feComposite5368" />
      <feColorMatrix
         in="composite1"
         values="0 0 0 0 0 0 0 0 0 0 0 0 0 0 0 -0.2125 -0.7154 -0.0721 1 0 "
         result="color1"
         id="feColorMatrix5370" />
      <feGaussianBlur
         stdDeviation="0.6"
         result="blur2"
         id="feGaussianBlur5372" />
      <feColorMatrix
         values="1 0 0 0 0 0 1 0 0 0 0 0 1 0 0 0 0 0 6 -2 "
         result="color2"
         id="feColorMatrix5374" />
      <feFlood
         flood-color="rgb(255,255,255)"
         result="flood1"
         id="feFlood5376" />
      <feBlend
         in2="color2"
         mode="multiply"
         result="blend1"
         id="feBlend5378" />
      <feComponentTransfer
         in="blend1"
         result="component1"
         id="feComponentTransfer5386">
        <feFuncR
           type="discrete"
           tableValues="0 1 1 1"
           id="feFuncR5380" />
        <feFuncG
           type="discrete"
           tableValues="0 1 1 1"
           id="feFuncG5382" />
        <feFuncB
           type="discrete"
           tableValues="0 1 1 1"
           id="feFuncB5384" />
      </feComponentTransfer>
      <feGaussianBlur
         stdDeviation="1"
         result="blur3"
         id="feGaussianBlur5388" />
      <feColorMatrix
         in="blur3"
         values="0 0 0 0 0 0 0 0 0 0 0 0 0 0 0 -0.2125 -0.7154 -0.0721 1 0 "
         result="color3"
         id="feColorMatrix5390" />
      <feColorMatrix
         values="1 0 0 0 0 0 1 0 0 0 0 0 1 0 0 0 0 0 6 -2 "
         result="color4"
         id="feColorMatrix5392" />
      <feFlood
         flood-color="rgb(0,0,0)"
         result="flood2"
         id="feFlood5394" />
      <feComposite
         in="flood2"
         in2="color4"
         operator="in"
         result="composite2"
         id="feComposite5396" />
      <feComposite
         in="composite2"
         in2="composite2"
         operator="arithmetic"
         k2="1"
         result="composite3"
         id="feComposite5398" />
      <feOffset
         dx="0"
         dy="0"
         result="offset1"
         id="feOffset5400" />
      <feFlood
         in="color4"
         flood-color="rgb(165,165,165)"
         result="flood3"
         id="feFlood5402" />
      <feComposite
         in="flood3"
         in2="color4"
         operator="out"
         result="composite4"
         id="feComposite5404" />
      <feComposite
         in="composite4"
         in2="composite4"
         operator="arithmetic"
         k2="1"
         result="composite5"
         id="feComposite5406" />
      <feMerge
         result="merge1"
         id="feMerge5412">
        <feMergeNode
           in="composite5"
           id="feMergeNode5408" />
        <feMergeNode
           in="offset1"
           id="feMergeNode5410" />
      </feMerge>
      <feColorMatrix
         values="1 0 0 0 0 0 1 0 0 0 0 0 1 0 0 0 0 0 1.3 0 "
         result="color5"
         flood-opacity="0.56"
         id="feColorMatrix5414" />
      <feComposite
         in="color5"
         in2="SourceGraphic"
         operator="in"
         result="composite8"
         id="feComposite5416" />
    </filter>
    <filter
       style="color-interpolation-filters:sRGB;"
       inkscape:label="Drawing"
       id="filter5515">
      <feGaussianBlur
         in="SourceGraphic"
         stdDeviation="0.6"
         result="blur1"
         id="feGaussianBlur5461" />
      <feConvolveMatrix
         in="blur1"
         targetX="1"
         targetY="1"
         order="3 3"
         kernelMatrix="0 250 0 250 -1010 250 0 250 0 "
         result="convolve1"
         id="feConvolveMatrix5463" />
      <feComposite
         in="convolve1"
         in2="convolve1"
         k1="1"
         k2="1"
         k4="0"
         operator="arithmetic"
         result="composite1"
         id="feComposite5465" />
      <feColorMatrix
         in="composite1"
         values="0 0 0 0 0 0 0 0 0 0 0 0 0 0 0 -0.2125 -0.7154 -0.0721 1 0 "
         result="color1"
         id="feColorMatrix5467" />
      <feGaussianBlur
         stdDeviation="0.6"
         result="blur2"
         id="feGaussianBlur5469" />
      <feColorMatrix
         values="1 0 0 0 0 0 1 0 0 0 0 0 1 0 0 0 0 0 6 -2 "
         result="color2"
         id="feColorMatrix5471" />
      <feFlood
         flood-color="rgb(255,255,255)"
         result="flood1"
         id="feFlood5473" />
      <feBlend
         in2="color2"
         mode="multiply"
         result="blend1"
         id="feBlend5475" />
      <feComponentTransfer
         in="blend1"
         result="component1"
         id="feComponentTransfer5483">
        <feFuncR
           type="discrete"
           tableValues="0 1 1 1"
           id="feFuncR5477" />
        <feFuncG
           type="discrete"
           tableValues="0 1 1 1"
           id="feFuncG5479" />
        <feFuncB
           type="discrete"
           tableValues="0 1 1 1"
           id="feFuncB5481" />
      </feComponentTransfer>
      <feGaussianBlur
         stdDeviation="1"
         result="blur3"
         id="feGaussianBlur5485" />
      <feColorMatrix
         in="blur3"
         values="0 0 0 0 0 0 0 0 0 0 0 0 0 0 0 -0.2125 -0.7154 -0.0721 1 0 "
         result="color3"
         id="feColorMatrix5487" />
      <feColorMatrix
         values="1 0 0 0 0 0 1 0 0 0 0 0 1 0 0 0 0 0 6 -2 "
         result="color4"
         id="feColorMatrix5489" />
      <feFlood
         flood-color="rgb(0,0,0)"
         result="flood2"
         id="feFlood5491" />
      <feComposite
         in="flood2"
         in2="color4"
         operator="in"
         result="composite2"
         id="feComposite5493" />
      <feComposite
         in="composite2"
         in2="composite2"
         operator="arithmetic"
         k2="1"
         result="composite3"
         id="feComposite5495" />
      <feOffset
         dx="0"
         dy="0"
         result="offset1"
         id="feOffset5497" />
      <feFlood
         in="color4"
         flood-color="rgb(165,165,165)"
         result="flood3"
         id="feFlood5499" />
      <feComposite
         in="flood3"
         in2="color4"
         operator="out"
         result="composite4"
         id="feComposite5501" />
      <feComposite
         in="composite4"
         in2="composite4"
         operator="arithmetic"
         k2="1"
         result="composite5"
         id="feComposite5503" />
      <feMerge
         result="merge1"
         id="feMerge5509">
        <feMergeNode
           in="composite5"
           id="feMergeNode5505" />
        <feMergeNode
           in="offset1"
           id="feMergeNode5507" />
      </feMerge>
      <feColorMatrix
         values="1 0 0 0 0 0 1 0 0 0 0 0 1 0 0 0 0 0 1.3 0 "
         result="color5"
         flood-opacity="0.56"
         id="feColorMatrix5511" />
      <feComposite
         in="color5"
         in2="SourceGraphic"
         operator="in"
         result="composite8"
         id="feComposite5513" />
    </filter>
    <filter
       style="color-interpolation-filters:sRGB;"
       inkscape:label="Drawing"
       id="filter5612">
      <feGaussianBlur
         in="SourceGraphic"
         stdDeviation="0.6"
         result="blur1"
         id="feGaussianBlur5558" />
      <feConvolveMatrix
         in="blur1"
         targetX="1"
         targetY="1"
         order="3 3"
         kernelMatrix="0 250 0 250 -1010 250 0 250 0 "
         result="convolve1"
         id="feConvolveMatrix5560" />
      <feComposite
         in="convolve1"
         in2="convolve1"
         k1="1"
         k2="1"
         k4="0"
         operator="arithmetic"
         result="composite1"
         id="feComposite5562" />
      <feColorMatrix
         in="composite1"
         values="0 0 0 0 0 0 0 0 0 0 0 0 0 0 0 -0.2125 -0.7154 -0.0721 1 0 "
         result="color1"
         id="feColorMatrix5564" />
      <feGaussianBlur
         stdDeviation="0.6"
         result="blur2"
         id="feGaussianBlur5566" />
      <feColorMatrix
         values="1 0 0 0 0 0 1 0 0 0 0 0 1 0 0 0 0 0 6 -2 "
         result="color2"
         id="feColorMatrix5568" />
      <feFlood
         flood-color="rgb(255,255,255)"
         result="flood1"
         id="feFlood5570" />
      <feBlend
         in2="color2"
         mode="multiply"
         result="blend1"
         id="feBlend5572" />
      <feComponentTransfer
         in="blend1"
         result="component1"
         id="feComponentTransfer5580">
        <feFuncR
           type="discrete"
           tableValues="0 1 1 1"
           id="feFuncR5574" />
        <feFuncG
           type="discrete"
           tableValues="0 1 1 1"
           id="feFuncG5576" />
        <feFuncB
           type="discrete"
           tableValues="0 1 1 1"
           id="feFuncB5578" />
      </feComponentTransfer>
      <feGaussianBlur
         stdDeviation="1"
         result="blur3"
         id="feGaussianBlur5582" />
      <feColorMatrix
         in="blur3"
         values="0 0 0 0 0 0 0 0 0 0 0 0 0 0 0 -0.2125 -0.7154 -0.0721 1 0 "
         result="color3"
         id="feColorMatrix5584" />
      <feColorMatrix
         values="1 0 0 0 0 0 1 0 0 0 0 0 1 0 0 0 0 0 6 -2 "
         result="color4"
         id="feColorMatrix5586" />
      <feFlood
         flood-color="rgb(0,0,0)"
         result="flood2"
         id="feFlood5588" />
      <feComposite
         in="flood2"
         in2="color4"
         operator="in"
         result="composite2"
         id="feComposite5590" />
      <feComposite
         in="composite2"
         in2="composite2"
         operator="arithmetic"
         k2="1"
         result="composite3"
         id="feComposite5592" />
      <feOffset
         dx="0"
         dy="0"
         result="offset1"
         id="feOffset5594" />
      <feFlood
         in="color4"
         flood-color="rgb(165,165,165)"
         result="flood3"
         id="feFlood5596" />
      <feComposite
         in="flood3"
         in2="color4"
         operator="out"
         result="composite4"
         id="feComposite5598" />
      <feComposite
         in="composite4"
         in2="composite4"
         operator="arithmetic"
         k2="1"
         result="composite5"
         id="feComposite5600" />
      <feMerge
         result="merge1"
         id="feMerge5606">
        <feMergeNode
           in="composite5"
           id="feMergeNode5602" />
        <feMergeNode
           in="offset1"
           id="feMergeNode5604" />
      </feMerge>
      <feColorMatrix
         values="1 0 0 0 0 0 1 0 0 0 0 0 1 0 0 0 0 0 1.3 0 "
         result="color5"
         flood-opacity="0.56"
         id="feColorMatrix5608" />
      <feComposite
         in="color5"
         in2="SourceGraphic"
         operator="in"
         result="composite8"
         id="feComposite5610" />
    </filter>
    <filter
       style="color-interpolation-filters:sRGB;"
       inkscape:label="Drawing"
       id="filter5720">
      <feGaussianBlur
         in="SourceGraphic"
         stdDeviation="0.6"
         result="blur1"
         id="feGaussianBlur5666" />
      <feConvolveMatrix
         in="blur1"
         targetX="1"
         targetY="1"
         order="3 3"
         kernelMatrix="0 250 0 250 -1010 250 0 250 0 "
         result="convolve1"
         id="feConvolveMatrix5668" />
      <feComposite
         in="convolve1"
         in2="convolve1"
         k1="1"
         k2="1"
         k4="0"
         operator="arithmetic"
         result="composite1"
         id="feComposite5670" />
      <feColorMatrix
         in="composite1"
         values="0 0 0 0 0 0 0 0 0 0 0 0 0 0 0 -0.2125 -0.7154 -0.0721 1 0 "
         result="color1"
         id="feColorMatrix5672" />
      <feGaussianBlur
         stdDeviation="0.6"
         result="blur2"
         id="feGaussianBlur5674" />
      <feColorMatrix
         values="1 0 0 0 0 0 1 0 0 0 0 0 1 0 0 0 0 0 6 -2 "
         result="color2"
         id="feColorMatrix5676" />
      <feFlood
         flood-color="rgb(255,255,255)"
         result="flood1"
         id="feFlood5678" />
      <feBlend
         in2="color2"
         mode="multiply"
         result="blend1"
         id="feBlend5680" />
      <feComponentTransfer
         in="blend1"
         result="component1"
         id="feComponentTransfer5688">
        <feFuncR
           type="discrete"
           tableValues="0 1 1 1"
           id="feFuncR5682" />
        <feFuncG
           type="discrete"
           tableValues="0 1 1 1"
           id="feFuncG5684" />
        <feFuncB
           type="discrete"
           tableValues="0 1 1 1"
           id="feFuncB5686" />
      </feComponentTransfer>
      <feGaussianBlur
         stdDeviation="1"
         result="blur3"
         id="feGaussianBlur5690" />
      <feColorMatrix
         in="blur3"
         values="0 0 0 0 0 0 0 0 0 0 0 0 0 0 0 -0.2125 -0.7154 -0.0721 1 0 "
         result="color3"
         id="feColorMatrix5692" />
      <feColorMatrix
         values="1 0 0 0 0 0 1 0 0 0 0 0 1 0 0 0 0 0 6 -2 "
         result="color4"
         id="feColorMatrix5694" />
      <feFlood
         flood-color="rgb(0,0,0)"
         result="flood2"
         id="feFlood5696" />
      <feComposite
         in="flood2"
         in2="color4"
         operator="in"
         result="composite2"
         id="feComposite5698" />
      <feComposite
         in="composite2"
         in2="composite2"
         operator="arithmetic"
         k2="1"
         result="composite3"
         id="feComposite5700" />
      <feOffset
         dx="0"
         dy="0"
         result="offset1"
         id="feOffset5702" />
      <feFlood
         in="color4"
         flood-color="rgb(165,165,165)"
         result="flood3"
         id="feFlood5704" />
      <feComposite
         in="flood3"
         in2="color4"
         operator="out"
         result="composite4"
         id="feComposite5706" />
      <feComposite
         in="composite4"
         in2="composite4"
         operator="arithmetic"
         k2="1"
         result="composite5"
         id="feComposite5708" />
      <feMerge
         result="merge1"
         id="feMerge5714">
        <feMergeNode
           in="composite5"
           id="feMergeNode5710" />
        <feMergeNode
           in="offset1"
           id="feMergeNode5712" />
      </feMerge>
      <feColorMatrix
         values="1 0 0 0 0 0 1 0 0 0 0 0 1 0 0 0 0 0 1.3 0 "
         result="color5"
         flood-opacity="0.56"
         id="feColorMatrix5716" />
      <feComposite
         in="color5"
         in2="SourceGraphic"
         operator="in"
         result="composite8"
         id="feComposite5718" />
    </filter>
    <filter
       style="color-interpolation-filters:sRGB;"
       inkscape:label="Drawing"
       id="filter5817">
      <feGaussianBlur
         in="SourceGraphic"
         stdDeviation="0.6"
         result="blur1"
         id="feGaussianBlur5763" />
      <feConvolveMatrix
         in="blur1"
         targetX="1"
         targetY="1"
         order="3 3"
         kernelMatrix="0 250 0 250 -1010 250 0 250 0 "
         result="convolve1"
         id="feConvolveMatrix5765" />
      <feComposite
         in="convolve1"
         in2="convolve1"
         k1="1"
         k2="1"
         k4="0"
         operator="arithmetic"
         result="composite1"
         id="feComposite5767" />
      <feColorMatrix
         in="composite1"
         values="0 0 0 0 0 0 0 0 0 0 0 0 0 0 0 -0.2125 -0.7154 -0.0721 1 0 "
         result="color1"
         id="feColorMatrix5769" />
      <feGaussianBlur
         stdDeviation="0.6"
         result="blur2"
         id="feGaussianBlur5771" />
      <feColorMatrix
         values="1 0 0 0 0 0 1 0 0 0 0 0 1 0 0 0 0 0 6 -2 "
         result="color2"
         id="feColorMatrix5773" />
      <feFlood
         flood-color="rgb(255,255,255)"
         result="flood1"
         id="feFlood5775" />
      <feBlend
         in2="color2"
         mode="multiply"
         result="blend1"
         id="feBlend5777" />
      <feComponentTransfer
         in="blend1"
         result="component1"
         id="feComponentTransfer5785">
        <feFuncR
           type="discrete"
           tableValues="0 1 1 1"
           id="feFuncR5779" />
        <feFuncG
           type="discrete"
           tableValues="0 1 1 1"
           id="feFuncG5781" />
        <feFuncB
           type="discrete"
           tableValues="0 1 1 1"
           id="feFuncB5783" />
      </feComponentTransfer>
      <feGaussianBlur
         stdDeviation="1"
         result="blur3"
         id="feGaussianBlur5787" />
      <feColorMatrix
         in="blur3"
         values="0 0 0 0 0 0 0 0 0 0 0 0 0 0 0 -0.2125 -0.7154 -0.0721 1 0 "
         result="color3"
         id="feColorMatrix5789" />
      <feColorMatrix
         values="1 0 0 0 0 0 1 0 0 0 0 0 1 0 0 0 0 0 6 -2 "
         result="color4"
         id="feColorMatrix5791" />
      <feFlood
         flood-color="rgb(0,0,0)"
         result="flood2"
         id="feFlood5793" />
      <feComposite
         in="flood2"
         in2="color4"
         operator="in"
         result="composite2"
         id="feComposite5795" />
      <feComposite
         in="composite2"
         in2="composite2"
         operator="arithmetic"
         k2="1"
         result="composite3"
         id="feComposite5797" />
      <feOffset
         dx="0"
         dy="0"
         result="offset1"
         id="feOffset5799" />
      <feFlood
         in="color4"
         flood-color="rgb(165,165,165)"
         result="flood3"
         id="feFlood5801" />
      <feComposite
         in="flood3"
         in2="color4"
         operator="out"
         result="composite4"
         id="feComposite5803" />
      <feComposite
         in="composite4"
         in2="composite4"
         operator="arithmetic"
         k2="1"
         result="composite5"
         id="feComposite5805" />
      <feMerge
         result="merge1"
         id="feMerge5811">
        <feMergeNode
           in="composite5"
           id="feMergeNode5807" />
        <feMergeNode
           in="offset1"
           id="feMergeNode5809" />
      </feMerge>
      <feColorMatrix
         values="1 0 0 0 0 0 1 0 0 0 0 0 1 0 0 0 0 0 1.3 0 "
         result="color5"
         flood-opacity="0.56"
         id="feColorMatrix5813" />
      <feComposite
         in="color5"
         in2="SourceGraphic"
         operator="in"
         result="composite8"
         id="feComposite5815" />
    </filter>
  </defs>
  <sodipodi:namedview
     pagecolor="#ffffff"
     bordercolor="#666666"
     borderopacity="1"
     objecttolerance="10"
     gridtolerance="10"
     guidetolerance="10"
     inkscape:pageopacity="0"
     inkscape:pageshadow="2"
     inkscape:window-width="1043"
     inkscape:window-height="949"
     id="namedview10"
     showgrid="false"
     inkscape:zoom="1.0450736"
     inkscape:cx="179.39109"
     inkscape:cy="279.21505"
     inkscape:window-x="28"
     inkscape:window-y="25"
     inkscape:window-maximized="0"
     inkscape:current-layer="svg2"
     inkscape:pagecheckerboard="true"
     showguides="true" />
  <metadata
     id="metadata4">
Created by potrace 1.12, written by Peter Selinger 2001-2015
<rdf:RDF>
  <cc:Work
     rdf:about="">
    <dc:format>image/svg+xml</dc:format>
    <dc:type
       rdf:resource="http://purl.org/dc/dcmitype/StillImage" />
    <dc:title />
  </cc:Work>
</rdf:RDF>
</metadata>
  <path
     style="fill:#ffffff;fill-opacity:1;stroke-width:2.28964686"
     d="M 179.17861,20.515674 C 151.90845,20.954212 124.6544,22.03661 97.389976,22.710049 95.205502,36.20538 97.283895,49.862771 98.359982,63.354503 71.111107,54.309181 37.117373,66.025614 24.776934,92.933777 11.881381,117.2818 17.803397,147.33804 31.248368,170.11196 c 8.045492,14.93692 21.644608,26.50921 27.65748,42.535 3.105457,8.34719 1.773683,17.33954 -0.21578,25.68899 -0.477646,20.05198 17.947035,35.95433 36.803411,38.2237 38.975831,8.05321 79.502431,6.07193 118.419291,-1.17369 14.68242,-3.79101 31.44715,-11.28811 36.49709,-26.87847 3.99893,-14.02877 -2.16598,-28.36908 -0.84333,-42.42576 3.90505,-7.27633 3.58354,-17.29194 11.77488,-21.63389 10.45401,-10.41103 17.60012,-23.97477 24.21093,-36.76211 -2.60203,-19.02961 1.96668,-41.62411 -11.38192,-57.790043 -18.29835,-22.792199 -53.30005,-28.65982 -78.62814,-14.719404 0.60982,-15.384912 5.74681,-31.906671 0.74236,-47.128261 -3.81963,-5.382599 -10.71006,-7.782012 -17.10603,-7.532348 z"
     id="path5733"
     inkscape:connector-curvature="0"
     sodipodi:nodetypes="ccccccccccccccccc" />
  <g
     id="g5753"
     style="filter:url(#filter5817)"
     transform="matrix(1.0154186,0,0,1.0189018,-8.1486448,-0.26797292)">
    <path
       style="fill:#e6e6e6;fill-opacity:1;stroke-width:2.25544572"
       d="m 124.11379,258.65796 c -5.56889,-0.77906 -15.54826,-2.81383 -22.17637,-4.52169 l -12.05112,-3.10521 -4.501006,-6.3387 c -3.086764,-4.34702 -4.071596,-8.25406 -3.134355,-12.43466 2.972542,-13.25908 2.994204,-27.53547 0.04552,-29.9944 -1.627247,-1.35697 -5.024879,-6.70876 -7.550295,-11.89287 -2.525416,-5.18411 -8.009816,-13.02899 -12.187554,-17.43305 -4.177735,-4.40407 -8.357059,-10.50836 -9.287386,-13.56509 -0.93033,-3.05673 -3.247461,-7.33811 -5.149184,-9.51418 -1.901722,-2.17606 -2.678035,-3.95648 -1.72514,-3.95648 0.952896,0 0.248633,-2.28911 -1.565027,-5.08691 -4.967874,-7.66357 -3.348608,-32.58105 2.919561,-44.926608 6.148418,-12.109699 9.159182,-14.505845 23.486037,-18.691606 16.5744,-4.842406 27.280461,-2.897157 43.313579,7.869913 l 9.56274,6.421873 -0.0333,-10.662537 c -0.0183,-5.864393 -1.56585,-17.195731 -3.43903,-25.18075 -1.87317,-7.985021 -2.6176,-15.265558 -1.65428,-16.178974 0.96332,-0.913417 15.64058,-2.385848 32.61615,-3.272071 l 30.86466,-1.611316 2.43936,5.379503 c 1.6057,3.541019 1.77933,9.620982 0.50806,17.790289 -1.99998,12.852032 -1.905,42.324494 0.14301,44.382334 0.64122,0.6443 5.00863,-2.47054 9.70535,-6.921867 4.69673,-4.451327 10.42016,-8.093322 12.71876,-8.093322 2.29859,0 5.88461,-0.916584 7.96893,-2.036855 15.81094,-8.497983 42.91724,-0.182744 51.07482,15.667914 2.18649,4.24847 3.34113,13.13733 3.34113,25.7211 v 19.22908 l -5.62514,8.32887 c -3.09383,4.58087 -5.62514,9.71296 -5.62514,11.40464 0,1.69168 -1.21026,3.07578 -2.68945,3.07578 -4.36954,0 -15.07317,11.55718 -13.79741,14.89769 0.64574,1.69087 -0.87694,6.40888 -3.38377,10.48446 -3.16448,5.14477 -3.93157,8.53467 -2.50922,11.08847 1.12676,2.02307 1.70203,7.78639 1.27837,12.80738 -0.42364,5.02099 -0.002,10.37707 0.93557,11.90242 0.93821,1.52535 0.69788,5.67864 -0.53405,9.22955 -2.10569,6.06936 -4.82052,7.89581 -22.2518,14.97041 -9.81542,3.98366 -73.92162,7.3038 -92.05162,4.76747 z m 3.72194,-29.83028 c 0.84051,-0.84454 -1.25625,-1.53553 -4.65946,-1.53553 -3.94807,0 -5.8497,-1.02287 -5.25394,-2.82606 1.91098,-5.7839 53.52642,-8.81982 81.4763,-4.79227 19.414,2.79753 28.87438,2.57335 15.54543,-0.36837 -3.54924,-0.78333 -9.49074,-2.61326 -13.20333,-4.06652 -8.26039,-3.23345 -55.65684,-2.62351 -72.83116,0.93725 l -12.07965,2.50449 -1.12061,4.30574 c -0.61633,2.36815 -2.12336,4.30574 -3.34896,4.30574 -1.2256,0 -1.64555,-1.52607 -0.93322,-3.39127 0.88881,-2.32732 -0.13619,-3.39127 -3.26714,-3.39127 -2.50926,0 -4.15239,0.76304 -3.65141,1.69564 0.50098,0.9326 1.50288,3.37495 2.22643,5.42746 l 1.31555,3.7318 9.12849,-0.50067 c 5.02067,-0.27535 9.81618,-1.19162 10.65668,-2.03616 z m 86.28031,0.72532 c 0,-1.24346 -2.27818,-2.27186 -5.06263,-2.28531 -2.78444,-0.0136 -9.77963,-1.4629 -15.54486,-3.22099 -5.76523,-1.75808 -10.99587,-2.68041 -11.62364,-2.04963 -0.62778,0.63079 -11.09865,1.42492 -23.26861,1.76473 -26.91634,0.75158 -27.75223,0.84089 -27.75277,2.96514 -2.3e-4,0.9326 13.41573,1.55495 29.81325,1.38301 16.39752,-0.17205 33.86377,0.47959 38.81389,1.44791 12.90964,2.5253 14.62537,2.52474 14.62537,-0.005 z m 9.65988,-20.37722 c 0.7884,-3.02931 -0.28091,-5.33931 -3.19765,-6.90779 -5.02282,-2.70103 -13.97005,-0.64517 -11.89245,2.73259 0.76191,1.23871 3.02394,1.62038 5.02672,0.84816 2.00278,-0.77223 2.92863,-0.68784 2.05743,0.18753 -1.17007,1.17569 3.78344,6.96288 6.52136,7.6189 0.16504,0.0395 0.83311,-1.97618 1.48459,-4.47939 z m -119.91264,-1.10083 c 1.54059,-1.8652 4.13613,-3.39128 5.76786,-3.39128 1.63173,0 3.59256,-1.01738 4.3574,-2.26084 1.67755,-2.72735 -12.19556,-3.02348 -16.389119,-0.34984 -2.903331,1.85105 -1.515074,9.39323 1.728974,9.39323 0.953605,0 2.994305,-1.52607 4.534885,-3.39127 z m 64.02144,-4.16485 4.13001,-3.03443 -5.32564,-3.74812 c -7.07698,-4.98068 -19.88654,-4.87096 -23.57824,0.20196 l -2.87458,3.95008 2.33952,2.83247 c 3.10607,3.76054 20.10033,3.62493 25.30893,-0.20196 z m 54.1851,-16.67309 c -0.71085,-2.84586 -0.26058,-5.16181 1.00358,-5.16181 1.26111,0 2.29292,-1.41723 2.29292,-3.14939 0,-3.11749 -4.72593,-6.06347 -11.25028,-7.01303 -11.0822,-1.61292 -20.99774,-3.59985 -22.44278,-4.49721 -0.91693,-0.56942 -4.86842,-0.1128 -8.78108,1.01473 -3.91266,1.12752 -6.64407,1.28615 -6.0698,0.35251 0.57427,-0.93365 -4.46882,-1.75573 -11.20687,-1.82686 -6.73804,-0.0711 -12.26108,0.5038 -12.27341,1.27763 -0.0124,0.77382 -7.61536,1.61585 -16.89561,1.87118 -9.28026,0.25532 -18.63603,1.47228 -20.7906,2.70435 -2.64425,1.51208 7.54623,1.81888 31.3553,0.944 23.92962,-0.87932 40.06522,-0.38751 50.1756,1.52934 l 14.9029,2.82546 -0.76058,3.67928 c -0.4375,2.11643 -2.63546,3.47338 -5.17448,3.19454 -41.51729,-4.55949 -65.62965,-4.4238 -92.16609,0.51866 -15.705186,2.92512 -15.485814,4.88228 0.40964,3.65471 30.57078,-2.36091 95.63533,-0.63139 98.87955,2.62838 0.70164,0.70501 3.25699,1.13187 5.67857,0.94858 l 4.40287,-0.33325 z M 106.84646,175.31929 c 1.02198,-0.9493 -0.7649,-1.22216 -3.97085,-0.60637 -3.205946,0.6158 -6.447092,2.12453 -7.202546,3.35274 -1.530513,2.4883 8.081376,0.12575 11.173396,-2.74637 z m -7.483288,-8.9366 c 0,-1.17008 -1.029041,-2.76645 -2.286759,-3.54749 -1.257716,-0.78105 -1.704224,-2.36716 -0.992237,-3.5247 0.711988,-1.15755 -0.284022,-2.10463 -2.213353,-2.10463 -4.127382,0 -4.307195,1.0574 -1.178654,6.93117 2.415753,4.53553 6.671003,5.96796 6.671003,2.24565 z m 139.194738,-2.52456 c 4.16154,-2.54929 6.97589,-5.22845 6.25412,-5.95368 -0.72175,-0.72523 0.81762,-4.32417 3.42089,-7.99764 5.85937,-8.26821 7.87774,-24.31485 4.18504,-33.27256 -1.81544,-4.40389 -6.2557,-8.42643 -12.83295,-11.6257 l -10.05703,-4.89187 -10.18655,1.40291 c -14.69309,2.02357 -30.82713,13.44631 -41.34417,29.27124 -4.88529,7.35087 -8.88234,15.58925 -8.88234,18.30753 0,2.71828 -1.2572,6.20554 -2.79377,7.74948 l -2.79376,2.80716 3.35628,2.10717 3.35627,2.10717 0.80464,-3.89695 c 0.44255,-2.14332 1.66584,-4.96727 2.71841,-6.27544 1.05257,-1.30817 1.35626,-4.5206 0.67487,-7.13873 -1.34177,-5.15556 0.5281,-7.39741 18.40441,-22.06567 6.01545,-4.93592 12.93031,-9.28004 15.36636,-9.65359 2.43606,-0.37356 5.52119,-1.53604 6.85585,-2.5833 1.33465,-1.04726 5.31061,-2.59757 8.83545,-3.44513 l 6.40882,-1.54101 7.61084,5.83291 c 4.26709,3.27028 8.45881,9.02509 9.54098,13.09873 l 1.93012,7.2658 -5.82452,11.02748 c -3.20349,6.06511 -7.90415,11.98746 -10.44593,13.16077 -2.54175,1.17331 -5.84103,4.09565 -7.33174,6.49409 l -2.71037,4.36081 3.95668,-0.008 c 2.17616,-0.005 7.36155,-2.09423 11.5231,-4.64352 z m -166.337772,-14.51568 -7.129336,-15.16164 1.25156,-7.74946 c 0.688359,-4.26219 3.590147,-10.72515 6.448418,-14.36213 l 5.196858,-6.61267 8.549449,-0.1251 c 4.702196,-0.0688 11.627179,1.4741 15.388843,3.42867 9.14262,4.75051 19.9378,14.58843 19.9378,18.16981 0,1.58915 1.77796,4.21878 3.95102,5.84362 2.17306,1.62484 6.43629,8.54986 9.47386,15.38893 7.00172,15.76433 6.6691,15.40908 10.06196,10.74682 l 2.86839,-3.94157 -8.95379,-18.23451 -8.9538,-18.2345 -11.56789,-8.77573 C 98.798973,94.59252 76.108985,93.68516 65.864238,107.60838 c -5.262377,7.15188 -6.054532,12.49411 -3.750542,25.29337 0.941601,5.23083 0.65232,8.47818 -0.755252,8.47818 -1.254775,0 0.169159,2.65689 3.16429,5.90419 2.995133,3.2473 6.120833,8.07987 6.945996,10.73903 1.435468,4.62592 5.563419,8.80937 7.134663,7.23059 0.410345,-0.41231 -2.46212,-7.57239 -6.383255,-15.91129 z m 38.380762,11.8199 c -0.0328,-7.39844 -5.02114,-19.78242 -7.96841,-19.78242 -4.304746,0 -4.132842,4.80962 0.5225,14.61881 3.78099,7.96684 7.46972,10.52491 7.44591,5.16361 z m 12.27082,-3.72907 3.37361,-6.55513 -3.01729,-2.51614 -3.01729,-2.51614 -2.30147,2.85394 c -1.81773,2.25407 -2.35372,11.72983 -0.83282,14.72339 0.90453,1.78038 2.8097,-0.18878 5.79526,-5.98992 z m 95.04716,-1.19884 c -1.27843,-3.85369 -5.46008,-3.82294 -9.33307,0.0686 l -3.8025,3.82075 2.77749,1.72482 c 3.21611,1.99719 11.40981,-2.44387 10.35808,-5.61418 z m -58.2667,-3.43087 c -0.5353,-3.66472 -0.14396,-6.14814 0.86964,-5.51869 1.01361,0.62945 1.84293,-0.91757 1.84293,-3.43782 v -4.58227 l -5.06263,1.88042 c -7.48313,2.77946 -7.53946,18.32151 -0.0664,18.32151 h 3.38973 z m 34.21335,-3.6816 v -7.60012 l -3.37508,1.30135 c -2.07389,0.79964 -3.37508,4.23142 -3.37508,8.90148 v 7.60012 l 3.37508,-1.30135 c 2.07389,-0.79964 3.37508,-4.23142 3.37508,-8.90148 z m 11.50796,5.25784 c 1.46634,-2.7978 3.65673,-5.7362 4.86755,-6.52978 2.25651,-1.47893 0.34941,-6.49771 -2.44545,-6.43548 -3.85798,0.0859 -7.42544,4.24682 -9.31399,10.86337 l -2.05188,7.1888 h 3.13886 c 1.72637,0 4.33858,-2.28911 5.80491,-5.08691 z M 161.4053,123.22989 c 3.34602,-1.27825 5.4852,-2.92544 4.75373,-3.66042 -0.73146,-0.73497 0.0545,-2.72738 1.74656,-4.42756 3.52647,-3.54339 2.35108,-15.893839 -1.92115,-20.18656 -1.51228,-1.519528 -5.81655,-3.439625 -9.56505,-4.266883 l -6.81546,-1.504106 -4.91766,4.054517 c -2.70472,2.229985 -5.34502,6.347452 -5.86734,9.149922 -0.52232,2.80248 -1.5731,6.10897 -2.33506,7.34776 -0.76196,1.23879 -0.38133,2.25235 0.84584,2.25235 1.22717,0 2.89476,2.10064 3.70575,4.6681 0.81099,2.56745 3.66366,5.55511 6.33928,6.63923 6.48301,2.62684 6.98699,2.62446 14.03056,-0.0663 z m -15.30977,-6.037 c -2.13227,-4.16316 -1.44167,-13.92373 1.12626,-15.91789 5.71334,-4.436776 10.56749,-4.767712 15.15721,-1.03336 l 4.73427,3.85197 -2.93678,6.77371 -2.93677,6.77371 -7.10789,0.68228 c -3.90933,0.37525 -7.52567,-0.13344 -8.0363,-1.13042 z m 11.95338,-41.21527 c 5.05309,3.213725 6.90582,2.439511 4.58579,-1.916297 -1.32263,-2.483209 -1.34197,-5.444902 -0.0507,-7.763354 l 2.08774,-3.748488 -6.77581,1.952597 -6.7758,1.952595 -3.37793,-3.394123 c -1.85785,-1.866769 -3.37791,-2.354626 -3.37791,-1.084129 0,1.270497 1.70605,3.269333 3.79123,4.441854 l 3.79124,2.131858 -4.17925,6.408925 -4.17924,6.408923 5.63491,-3.709843 c 3.68197,-2.424093 6.74078,-3.006524 8.82572,-1.680518 z"
       id="path5761"
       inkscape:connector-curvature="0" />
    <path
       style="fill:#aaaaaa;fill-opacity:1;stroke-width:2.25544572"
       d="m 122.98876,257.42905 c -28.608229,-4.77789 -43.631497,-13.89781 -40.333866,-24.48478 3.277184,-10.5213 3.410241,-27.73435 0.239021,-30.92078 -1.753147,-1.76155 -3.890912,-5.42958 -4.750587,-8.15116 -0.859674,-2.72159 -5.901722,-10.3045 -11.204549,-16.85092 C 49.920175,156.0117 43.19644,140.00448 43.145643,120.37702 43.075306,93.19908 59.021779,76.456169 85.423768,75.987341 96.3866,75.79266 111.93313,82.10192 118.52504,89.420832 l 4.42499,4.91301 1.23369,-5.251047 c 1.15644,-4.922273 0.2425,-15.386543 -3.57769,-40.962842 l -1.60402,-10.739028 22.24388,-0.155772 c 12.23414,-0.08568 25.28146,-0.566501 28.99405,-1.068502 3.7126,-0.502003 8.6639,-0.318122 11.0029,0.408621 l 4.25272,1.321353 -1.68163,24.051265 c -0.92489,13.228196 -1.55982,25.577339 -1.41096,27.442538 0.14887,1.8652 0.24145,6.189072 0.20573,9.608604 -0.0357,3.419528 0.54013,6.217328 1.27967,6.217328 0.73953,0 5.56511,-3.38628 10.72351,-7.525068 13.21563,-10.603435 28.77396,-15.97077 41.29568,-14.246245 25.19343,3.469703 34.32249,14.976235 34.41047,43.371953 l 0.0495,15.94852 -6.99617,11.18166 c -3.84799,6.14991 -10.75121,14.74249 -15.34056,19.09462 -4.88903,4.6363 -7.99051,9.49579 -7.4899,11.7354 0.46991,2.10233 -0.64698,6.17186 -2.48199,9.04339 l -3.33638,5.22097 1.97438,19.19863 1.97438,19.19863 -3.19225,4.89537 c -3.20529,4.91536 -18.50636,11.17684 -32.81618,13.42901 -11.0282,1.7357 -71.67753,3.01138 -79.6741,1.67585 z m 3.37509,-26.69941 c 20.81974,-2.62846 57.10608,-2.54997 73.82876,0.15961 4.56406,0.73955 11.84213,1.85067 16.17349,2.46912 l 7.87519,1.1245 -5.03372,-3.70327 c -2.76855,-2.03679 -11.12189,-4.78081 -18.56297,-6.09781 -7.44108,-1.31692 -13.52923,-3.13476 -13.52923,-4.03956 0,-1.47001 17.21103,0.25383 31.09262,3.1142 3.26682,0.67315 4.89889,0.11619 4.36607,-1.48998 -0.8734,-2.63276 -29.88791,-10.573 -39.95881,-10.93531 -16.80487,-0.60456 -64.98794,4.65986 -66.59729,7.27634 -0.70571,1.14733 -3.21389,1.47032 -5.57373,0.71774 -6.25588,-1.99506 -9.69862,0.80108 -6.20067,5.03607 l 2.84886,3.44912 -5.55217,4.63788 -5.552162,4.63788 4.500112,-1.82896 c 2.47506,-1.00592 14.1191,-3.04335 25.87565,-4.52757 z m -3.37509,-7.95918 c 6.31833,-2.7281 15.17835,-2.7281 13.50034,0 -0.76484,1.24347 -5.12782,2.18934 -9.69553,2.10194 l -8.30492,-0.1589 z m 19.12548,-2.26085 c 0,-1.24347 4.0501,-2.26085 9.00023,-2.26085 4.95012,0 9.00022,1.01738 9.00022,2.26085 0,1.24347 -4.0501,2.26085 -9.00022,2.26085 -4.95013,0 -9.00023,-1.01738 -9.00023,-2.26085 z m 20.25051,0 c 0,-1.24347 4.61612,-2.26085 10.25804,-2.26085 6.26574,0 9.71684,0.8799 8.86743,2.26085 -0.76483,1.24347 -5.38095,2.26085 -10.25804,2.26085 -4.87709,0 -8.86743,-1.01738 -8.86743,-2.26085 z m -47.26974,-18.38843 c 0.0317,-2.44432 -10.26394,-3.54915 -15.373906,-1.64979 -4.452184,1.65487 -6.600126,8.49078 -3.6115,11.49374 1.423163,1.42999 18.957116,-7.66139 18.985406,-9.84395 z m 110.27131,7.13631 c 0,-5.48251 -9.26433,-11.98018 -14.30832,-10.03534 -5.45701,2.1041 -4.49051,6.10293 2.49955,10.34173 8.40433,5.09643 11.80877,5.0081 11.80877,-0.30639 z m -55.88654,-4.77002 4.68352,-2.51856 -4.79803,-4.82105 c -6.00861,-6.03742 -19.9266,-6.15402 -26.81851,-0.22468 l -4.81565,4.14307 3.87307,4.30022 3.87308,4.30023 9.6595,-1.33033 c 5.31273,-0.73168 11.76708,-2.46369 14.34302,-3.8489 z m -48.74107,-14.48016 c 24.09066,-2.19589 54.09492,-1.85402 76.50191,0.87167 11.13778,1.35484 21.92763,2.4717 23.97745,2.4819 l 3.72695,0.0186 -1.17994,-4.53374 c -0.64896,-2.49356 -0.0515,-5.89997 1.32773,-7.56979 l 2.50768,-3.03605 -4.44468,-4.04167 c -2.44457,-2.22292 -8.76928,-4.45398 -14.05491,-4.9579 -14.49904,-1.38232 -29.27571,-2.5679 -34.78992,-2.79132 l -4.92919,-0.19971 3.22778,-6.21733 c 1.77529,-3.41953 3.23403,-10.06445 3.24165,-14.76647 l 0.0139,-8.54914 3.9376,-1.38334 c 2.16568,-0.76084 8.73667,-5.35885 14.6022,-10.21781 5.86552,-4.85895 15.96628,-10.41644 22.44613,-12.34998 l 11.78154,-3.51552 7.20466,3.89858 c 3.96255,2.14422 8.39003,6.77406 9.83882,10.28853 l 2.63418,6.38995 -5.71741,12.54838 c -3.38679,7.43317 -7.88332,13.53996 -11.0307,14.98088 -2.92231,1.33788 -6.5473,4.41796 -8.05555,6.84462 l -2.74225,4.41212 3.42604,1.32099 c 7.33652,2.8288 18.45493,-5.96107 25.8039,-20.39978 l 6.54956,-12.86804 -0.89816,-9.07139 c -1.87441,-18.93177 -15.98296,-28.705457 -37.70544,-26.12041 -21.02524,2.50207 -42.43845,22.83057 -49.85378,47.32837 -1.80029,5.94759 -2.7033,12.30623 -2.00668,14.1303 l 1.26658,3.31649 -8.67844,0.3532 c -4.77314,0.19426 -11.20976,0.5661 -14.30358,0.8263 -3.09383,0.26021 -10.18151,0.77639 -15.7504,1.14707 -5.56889,0.37068 -11.13778,1.41921 -12.37531,2.33007 -1.23753,0.91086 -6.15244,2.17295 -10.92203,2.80465 -8.411471,1.11405 -14.743752,4.80743 -12.355903,7.20673 0.644972,0.64807 4.121309,0.16945 7.725193,-1.0636 21.57042,-7.38018 113.08017,-6.79684 110.54015,0.70466 -0.5756,1.69995 -5.25127,2.41141 -13.06602,1.98816 -40.42934,-2.18969 -54.79653,-2.2111 -72.92116,-0.10864 l -20.25051,2.34906 -4.50011,4.53253 -4.500112,4.53253 4.500112,-1.2045 c 2.47506,-0.66248 11.58779,-1.85056 20.25051,-2.64017 z M 98.026405,163.23293 c -1.89144,-6.09395 -5.912262,-8.87415 -7.977696,-5.51618 -1.798378,2.9238 5.051972,13.1309 7.718447,11.50057 0.978488,-0.59826 1.095149,-3.29123 0.259249,-5.98439 z m -19.637454,-3.201 c -9.06288,-17.45465 -13.01905,-31.29364 -10.688329,-37.38859 2.776522,-7.26074 12.832673,-17.43698 17.231211,-17.43698 2.081192,0 7.773178,1.20093 12.648858,2.66872 l 8.864879,2.66872 11.84778,13.72243 c 6.51628,7.54734 13.78234,18.66164 16.1468,24.69845 4.91497,12.54865 8.75607,15.16684 13.33577,9.08997 2.04851,-2.7182 3.22111,-3.16928 3.26699,-1.25675 0.0429,1.78682 2.10197,2.69356 5.13418,2.26085 l 5.06263,-0.72246 1.40128,-10.17381 c 0.77071,-5.5956 1.27697,-10.27499 1.12503,-10.39864 -0.15195,-0.12364 -3.6632,0.69354 -7.80281,1.81597 l -7.52655,2.04078 1.38177,5.53179 c 2.21926,8.88463 -2.58585,6.36062 -5.60921,-2.94639 -5.01833,-15.44828 -16.64825,-30.97414 -29.31438,-39.13447 l -12.07287,-7.778124 -15.421333,0.01402 -15.42133,0.01402 -3.106754,4.507674 c -1.708715,2.4792 -4.377891,5.97747 -5.931503,7.77392 -2.988311,3.4554 -4.226729,36.2986 -1.36871,36.2986 0.880123,0 4.270432,4.57821 7.534019,10.17381 3.263587,5.5956 7.413613,10.17382 9.222283,10.17382 h 3.288489 z m 34.474559,4.16814 c 0,-1.12705 1.89655,-1.55085 4.21455,-0.94177 l 4.21455,1.10742 2.50867,-7.2309 c 1.37977,-3.977 1.95478,-8.13142 1.2778,-9.23205 -2.24916,-3.65667 -8.11935,-2.06801 -9.31356,2.52055 -1.74864,6.71887 -4.77527,5.48388 -6.91741,-2.8226 -2.17672,-8.44051 -8.40757,-10.93234 -10.530552,-4.21135 -0.934856,2.9596 0.660492,7.70167 4.606872,13.69366 5.6981,8.65171 9.93908,11.68853 9.93908,7.11704 z m 105.46349,-3.6892 c 2.57625,-2.5886 -2.51362,-8.20884 -6.48836,-7.16443 -5.39898,1.41863 -5.93825,-1.87438 -0.78178,-4.77392 4.59823,-2.58564 2.07551,-7.19259 -3.93859,-7.19259 -2.99565,0 -5.57341,2.62432 -7.7726,7.91297 -4.03395,9.70089 -6.3603,10.30378 -4.3547,1.12856 l 1.48299,-6.78441 -3.78135,-1.45801 c -4.92711,-1.89977 -8.01421,3.07168 -7.13423,11.48892 l 0.69375,6.63591 8.16331,0.19084 c 4.48982,0.10497 8.95679,0.98813 9.9266,1.96259 1.58675,1.59436 11.88795,0.16064 13.98496,-1.94643 z m -52.21732,-40.77509 5.79045,-5.81821 -1.29643,-8.02729 c -1.6929,-10.482119 -7.34674,-16.509852 -15.48577,-16.509852 -9.61603,0 -14.57077,3.504851 -17.48115,12.365702 l -2.5878,7.87872 3.97006,6.75302 c 6.26136,10.65047 18.34257,12.14795 27.09064,3.35791 z m -18.59764,-4.13564 c -2.06916,-5.41799 -0.0282,-13.16232 4.16494,-15.803438 l 3.9376,-2.480177 3.9376,2.567466 c 2.41561,1.575079 3.75938,4.953889 3.47654,8.741479 -0.5442,7.28725 -0.14583,6.85281 -8.02606,8.75304 l -6.23707,1.50401 z m 17.06129,-42.123522 c -1.08765,-2.042032 -1.38552,-6.166377 -0.66193,-9.165211 l 1.31562,-5.452426 -3.00618,2.82606 c -3.81269,3.584256 -11.6437,3.642662 -15.15648,0.113042 -1.50003,-1.507232 -2.70006,-1.708197 -2.70006,-0.452169 0,1.243466 1.18756,3.454107 2.63903,4.912537 l 2.63903,2.651693 -2.59079,5.713445 c -2.45366,5.411025 -0.0234,8.267053 2.93787,3.4526 2.24907,-3.656533 9.51786,-2.590582 11.13059,1.632275 l 1.4868,3.893124 1.97202,-3.206093 c 1.13006,-1.837244 1.1277,-4.791275 -0.006,-6.918877 z"
       id="path5759"
       inkscape:connector-curvature="0" />
    <path
       style="fill:#6e6e6e;fill-opacity:1;stroke-width:2.25544572"
       d="M 133.11402,256.70524 C 105.6634,254.23093 93.558061,250.55146 86.964548,242.67795 l -5.585657,-6.67002 2.103067,-3.94846 c 1.156686,-2.17166 2.018546,-6.9354 1.915243,-10.58609 -0.1033,-3.6507 0.479782,-8.75115 1.295742,-11.33434 1.013106,-3.20733 0.04644,-6.00353 -3.048358,-8.81771 -2.492556,-2.26655 -4.531919,-5.39804 -4.531919,-6.95886 0,-2.33114 -15.565023,-24.10411 -20.097529,-28.11321 -1.522168,-1.34639 -10.279281,-19.57346 -12.491462,-25.99975 -3.160989,-9.18254 -3.692286,-28.91089 -0.966084,-35.8731 1.525428,-3.89566 5.170935,-10.358426 8.101123,-14.36171 l 5.327615,-7.278693 11.596585,-3.460335 c 6.37812,-1.903181 14.20531,-3.460331 17.393754,-3.460331 6.616106,0 26.874622,10.000895 31.051252,15.328877 1.53412,1.957035 3.4799,2.864352 4.32394,2.016265 2.76712,-2.7804 2.35765,-20.438855 -0.84065,-36.253073 -1.72597,-8.534161 -2.70487,-15.951991 -2.17533,-16.484068 0.52953,-0.532075 15.01215,-1.179942 32.1836,-1.439702 l 31.2208,-0.472291 -0.29902,10.173816 c -0.16446,5.595599 -0.54876,16.786796 -0.854,24.869328 -1.30946,34.674597 -0.0979,36.856477 13.43346,24.193035 4.38354,-4.102358 13.68263,-9.317126 20.66464,-11.588372 l 12.69459,-4.129536 11.49659,2.771221 c 20.364,4.908679 29.49181,18.593129 29.44519,44.144429 -0.0113,6.21733 -1.27135,13.45539 -2.80002,16.08457 -1.52867,2.62919 -4.96583,8.76656 -7.63811,13.63861 -2.6723,4.87205 -7.4818,10.26883 -10.68777,11.99285 -3.20599,1.72402 -5.82906,4.48873 -5.82906,6.14381 0,1.65508 -0.98075,3.00924 -2.17945,3.00924 -1.19867,0 -1.59362,1.53392 -0.87761,3.40872 0.71599,1.8748 -0.21713,5.7381 -2.0737,8.58511 l -3.37551,5.17637 0.90576,15.71902 c 0.49816,8.64545 1.0528,17.24508 1.23251,19.11028 0.86265,8.95323 -0.965,11.43878 -12.19496,16.58488 -11.16156,5.11474 -20.5613,6.55194 -60.18901,9.20265 -6.80642,0.45529 -20.98177,0.052 -31.50078,-0.89614 z m -29.66533,-22.37979 c 9.9945,-5.30126 79.83829,-6.39255 104.4797,-1.63247 8.35333,1.61364 15.18788,2.13365 15.18788,1.15559 0,-3.41207 -10.05344,-8.81898 -16.81356,-9.04262 -3.74662,-0.12395 -9.34335,-1.12519 -12.43718,-2.22498 l -5.62514,-1.99962 10.12526,1.15516 c 5.56889,0.63534 13.41596,1.74981 17.43793,2.47659 l 7.31269,1.32143 -0.008,-3.07767 c -0.005,-2.04729 -7.34995,-4.72621 -21.93805,-8.0017 l -21.93017,-4.92403 -19.12548,0.85397 -19.12548,0.85397 13.39634,-2.12352 c 7.36798,-1.16793 14.64691,-3.40593 16.17539,-4.97333 l 2.77905,-2.84982 -3.11511,-4.22033 c -1.94532,-2.6355 -7.00505,-4.66089 -13.47381,-5.39351 l -10.35871,-1.17317 -4.38911,4.73376 c -4.79294,5.16929 -5.72539,9.44452 -2.0599,9.44452 1.5928,0 1.60435,1.36094 0.0365,4.3045 -1.56622,2.94055 -5.8691,4.79874 -13.5795,5.86427 -6.20774,0.85788 -11.2868,2.34061 -11.2868,3.29496 0,0.95435 -2.63902,1.22828 -5.86448,0.60874 -6.33813,-1.21743 -11.644002,3.78612 -7.04405,6.64269 l 2.60433,1.61728 -4.19686,4.65972 c -4.458445,4.95015 -3.387431,5.95073 2.83618,2.64962 z m 24.04019,-11.55499 c 6.19324,-2.67409 8.39496,-2.67409 6.75016,0 -0.76483,1.24347 -3.60903,2.18934 -6.32044,2.10194 l -4.92984,-0.1589 z m 24.75061,-2.26085 c 6.19325,-2.67409 8.39496,-2.67409 6.75017,0 -0.76483,1.24347 -3.60903,2.18934 -6.32044,2.10195 l -4.92984,-0.15891 z m 72.70688,-11.82863 -0.70508,-7.30694 -6.22302,-2.18539 -6.22301,-2.18539 -3.61494,3.63228 -3.61494,3.63227 8.71293,5.72704 c 11.40209,7.49463 12.50603,7.37032 11.66806,-1.31387 z m -121.08309,1.65481 c 1.54059,-1.86519 3.94275,-3.40685 5.33814,-3.42589 1.39538,-0.019 4.05585,-1.03642 5.91215,-2.26085 l 3.37508,-2.22622 -3.37508,-2.22623 c -10.12414,-6.67795 -24.866222,0.34287 -19.980558,9.5156 2.61273,4.90534 5.049908,5.07943 8.730268,0.62359 z m 8.19294,-19.23762 c 4.77537,0.0687 19.04484,-0.5249 31.70995,-1.31923 18.23305,-1.14354 57.47304,1.04896 78.22507,4.37075 1.23753,0.19809 2.05943,-2.43763 1.82645,-5.85716 -0.23298,-3.41954 0.52641,-6.21733 1.68755,-6.21733 3.5417,0 2.35556,-5.56737 -1.98105,-9.29829 -2.40317,-2.06753 -9.02736,-3.69616 -16.04924,-3.94588 -13.26647,-0.4718 -15.85947,-1.4311 -15.85947,-5.8673 0,-1.79943 2.27135,-2.88699 5.62355,-2.69263 3.09295,0.17933 5.62427,1.08908 5.62514,2.02168 0.002,2.45871 8.5841,2.07935 13.56606,-0.5997 6.08027,-3.26967 3.12752,-9.7169 -3.83751,-8.37906 l -5.38732,1.03479 3.45532,-3.8364 c 5.24373,-5.82205 4.16006,-9.13248 -2.98952,-9.13248 h -6.44485 l -3.37036,8.47818 -3.37036,8.47818 0.25246,-7.91297 0.25247,-7.91296 -5.35743,-0.76128 -5.35743,-0.76127 1.04244,12.63072 1.04243,12.63073 h -7.39799 -7.39799 l 3.11181,-8.8621 c 1.71149,-4.87416 2.56423,-10.96609 1.89497,-13.53762 -0.81138,-3.11759 0.0677,-5.17079 2.63819,-6.16192 2.12027,-0.81753 6.10815,-3.62769 8.86195,-6.2448 7.04847,-6.69862 13.28535,-11.54007 15.91928,-12.35755 1.23753,-0.38408 3.29403,-1.56891 4.57,-2.63295 1.27597,-1.06404 4.81981,-2.46001 7.8752,-3.10217 3.05539,-0.64215 7.80156,-1.8301 10.54704,-2.63989 l 4.99182,-1.47235 6.82098,6.85371 c 4.5452,4.567 6.821,9.10341 6.821,13.59651 0,9.26078 -7.95289,23.20113 -16.3436,28.64816 -3.83092,2.48693 -7.3739,5.79289 -7.87328,7.34657 -1.53736,4.78308 6.22552,5.92121 14.22928,2.08618 l 7.60382,-3.6434 7.06448,-14.06177 7.06446,-14.06176 -1.33174,-9.76287 c -0.73249,-5.36958 -2.92908,-12.21235 -4.88134,-15.20617 -4.79665,-7.35572 -17.84293,-12.047158 -31.01163,-11.151778 l -10.85419,0.738008 -13.28722,8.51087 c -7.30796,4.68097 -13.30823,9.34178 -13.33391,10.35734 -0.0257,1.01557 -2.45604,5.08509 -5.40077,9.04339 -2.94474,3.9583 -6.69528,11.26644 -8.33453,16.2403 -4.54418,13.78807 -7.31421,15.15823 -5.54988,2.74518 l 1.5379,-10.81992 -6.33759,1.50321 c -7.68606,1.82304 -9.03521,3.002 -10.10742,8.83238 -0.57284,3.11494 -2.50115,0.30143 -6.1981,-9.04339 -6.09823,-15.41453 -10.48909,-20.97596 -25.072,-31.75602 -12.67415,-9.36906 -25.826791,-12.681139 -38.014452,-9.572745 -15.601944,3.979195 -24.481413,21.210865 -19.33141,37.514925 0.792859,2.51005 0.387849,5.21808 -0.900023,6.01785 -3.250343,2.01846 -2.935286,5.70896 0.487374,5.70896 1.555925,0 5.581098,4.57821 8.944831,10.17381 3.363732,5.5956 7.659592,10.17382 9.546354,10.17382 4.314663,0 4.29547,-1.09346 -0.138559,-7.89309 -1.962965,-3.01023 -2.915735,-6.53527 -2.117264,-7.83342 0.798477,-1.29815 0.458014,-2.36027 -0.75658,-2.36027 -3.521745,0 -7.670212,-15.57353 -6.164089,-23.14026 0.756421,-3.80025 4.417387,-9.83065 8.135476,-13.4009 l 6.760166,-6.49137 6.168347,1.46053 c 3.39259,0.80329 7.130246,2.34655 8.3059,3.42947 1.175655,1.08293 3.453839,1.96896 5.062629,1.96896 6.51571,0 25.82872,24.51534 32.29122,40.9895 2.44641,6.23635 3.98658,12.08904 3.42259,13.00597 -0.56399,0.91693 -5.89399,1.9173 -11.84446,2.22306 -5.95046,0.30575 -11.78093,1.51631 -12.95658,2.69014 -1.17565,1.17382 -5.94952,2.13422 -10.6086,2.13422 h -8.471048 l -2.408389,4.5217 -2.408388,4.5217 h 3.602174 c 1.981195,0 5.307525,-0.90514 7.391851,-2.01142 2.08432,-1.10628 12.18039,-2.49069 22.43571,-3.07646 l 18.64603,-1.06505 -0.84327,2.51125 c -0.46379,1.38119 -4.8044,2.63553 -9.6458,2.78742 -20.22464,0.63452 -34.678194,5.37945 -34.678194,11.38444 v 3.58856 l 3.130314,-2.61039 c 1.72167,-1.43571 7.03743,-2.55413 11.81279,-2.48538 z m 78.43423,-9.27938 c -7.42519,-1.05841 -20.84115,-2.07565 -29.81325,-2.26054 -8.97209,-0.18488 -16.3129,-1.32025 -16.3129,-2.52303 0,-1.36549 10.77516,-1.67513 28.68821,-0.82439 36.42875,1.73009 36.56342,1.74931 36.56342,5.21841 0,3.17332 0.35334,3.16612 -19.12548,0.38955 z M 145.9153,162.22776 c 2.76726,-2.91788 4.96715,-3.60597 6.85805,-2.14511 1.53116,1.18293 4.24157,1.58875 6.02315,0.90181 1.78158,-0.68693 4.24807,-0.0276 5.4811,1.46527 l 2.24187,2.71425 -12.33915,0.67983 -12.33916,0.67984 z m -46.031899,5.8446 c 1.269349,-3.8263 -3.376128,-13.08865 -6.575092,-13.1097 -4.770727,-0.0314 -5.471237,4.24017 -1.655067,10.09232 4.055672,6.21942 6.830426,7.23672 8.230159,3.01738 z m 20.235009,-3.89804 c 0.89637,-0.10225 3.0793,-3.00244 4.85095,-6.44487 l 3.22119,-6.25897 -2.84895,-3.91485 c -3.71228,-5.1012 -5.30632,-4.93893 -10.11646,1.02982 l -3.98484,4.94467 -2.77643,-8.45302 c -2.86647,-8.72714 -5.89174,-9.62674 -10.05762,-2.99078 l -2.403449,3.82854 5.385329,10.20013 5.38533,10.20013 5.85759,-0.97744 c 3.22168,-0.5376 6.59099,-1.06111 7.48736,-1.16336 z m 49.044,-45.49204 c 1.21141,-2.27439 2.20256,-8.15466 2.20256,-13.06727 V 96.683013 L 165.819,93.031721 c -5.81162,-3.82618 -18.38634,-4.822715 -23.07599,-1.828751 -1.51048,0.964318 -4.24906,6.032951 -6.08575,11.26363 l -3.33942,9.51033 5.16213,5.59674 c 2.83917,3.07821 7.59756,6.50199 10.5742,7.6084 6.72961,2.50139 17.09927,-0.8505 20.10824,-6.49979 z m -22.54806,-8.87467 c 0,-7.22613 6.12551,-12.350302 12.03834,-10.070452 4.58356,1.767312 5.7335,5.619202 3.4889,11.686542 l -1.88189,5.0869 h -6.82267 -6.82268 z m 4.50012,-31.973307 c 0,-3.531348 6.44174,-2.171237 8.67066,1.830724 l 2.14411,3.849686 3.62059,-3.019229 3.62058,-3.019227 -2.52906,-3.061948 c -1.39098,-1.684069 -1.89044,-5.618612 -1.10991,-8.743425 1.51383,-6.060501 -0.54659,-6.888202 -8.79183,-3.531808 -2.95944,1.204702 -5.77173,0.712859 -8.21434,-1.436606 l -3.71421,-3.268468 -1.56883,2.55059 c -0.86285,1.402822 0.22773,4.545281 2.42352,6.983241 l 3.99235,4.432653 -2.6469,2.659598 c -3.78996,3.808134 -3.29348,8.645195 0.72818,7.094534 1.8563,-0.715744 3.37509,-2.209886 3.37509,-3.320315 z"
       id="path5757"
       inkscape:connector-curvature="0" />
    <path
       style="fill:#000000;fill-opacity:1;stroke-width:2.25544572"
       d="m 115.11357,254.62196 c -16.48404,-3.922 -25.228665,-8.28546 -28.875763,-14.40861 l -3.750057,-6.29601 2.562641,-1.61695 c 3.074529,-1.93995 3.474818,-25.39814 0.496187,-29.07811 -1.153824,-1.4255 -3.832867,-6.15502 -5.95343,-10.51003 -2.120561,-4.35502 -7.905668,-12.7757 -12.855791,-18.71261 -4.950124,-5.93691 -11.924824,-17.45869 -15.499335,-25.60394 l -6.499107,-14.80955 0.184639,-13.08461 0.18464,-13.08461 5.96608,-11.014229 C 57.893207,83.813986 63.862851,80.334733 81.45607,78.695458 l 12.468662,-1.161789 10.226468,4.681038 c 5.62456,2.574572 11.52855,6.257476 13.11998,8.184229 1.59143,1.926753 4.28832,3.503188 5.99309,3.503188 h 3.09958 l -0.0802,-12.999875 c -0.0441,-7.149932 -1.48581,-18.911467 -3.20382,-26.136744 l -3.12368,-13.136867 2.64131,-0.805117 c 1.45272,-0.442815 15.55101,-1.414669 31.32953,-2.159675 L 182.6152,37.309288 V 51.90719 c 0,8.028845 -1.02904,15.236935 -2.28676,16.017974 -1.25771,0.781042 -1.55253,2.613764 -0.65516,4.072719 0.89738,1.458952 1.73647,6.221216 1.86465,10.582806 0.12819,4.361589 0.423,11.869436 0.65516,16.684104 l 0.42211,8.753937 5.06263,-3.69897 c 2.78444,-2.03444 6.58141,-4.380642 8.43771,-5.213785 1.8563,-0.833145 4.69816,-3.362223 6.31524,-5.620177 1.61709,-2.257954 4.95808,-4.10537 7.42442,-4.10537 2.46635,0 7.31503,-1.470864 10.77485,-3.268589 l 6.29058,-3.268589 12.63657,2.95155 c 6.95008,1.623355 15.11272,4.581794 18.13916,6.574311 7.85781,5.173318 13.58832,23.857319 11.85697,38.658989 -1.65155,14.11945 -12.70105,35.51591 -20.50947,39.71489 -3.12242,1.67909 -5.67714,4.40704 -5.67714,6.06212 0,1.65508 -1.42399,3.00924 -3.16443,3.00924 -2.05574,0 -2.7525,1.58283 -1.98867,4.51769 0.64667,2.48474 -0.50273,7.09169 -2.55422,10.23768 -2.05149,3.14599 -3.12767,6.69924 -2.39149,7.89611 2.7529,4.47561 3.0585,35.66592 0.38386,39.17547 -1.46319,1.91994 -8.22925,5.66788 -15.03567,8.32874 l -12.37531,4.83795 -41.62604,0.84383 c -22.89432,0.46413 -45.16988,7.1e-4 -49.50123,-1.02986 z m -12.32563,-18.36717 c 0.79215,-1.28789 5.15514,-2.26763 9.69553,-2.1772 4.54038,0.0904 13.82413,-0.92808 20.63055,-2.26338 12.72539,-2.49652 70.37068,-1.28013 74.97983,1.58214 3.9874,2.47617 17.27247,3.25874 17.27247,1.01745 0,-1.12662 -2.27818,-3.74945 -5.06262,-5.82851 l -5.06263,-3.78007 5.06263,1.03181 c 3.36579,0.68598 5.06262,-0.0502 5.06262,-2.19628 0,-6.77194 -35.27358,-15.49517 -55.07388,-13.61988 l -13.55283,1.28359 7.87519,-2.94532 c 10.41836,-3.89647 11.14846,-9.21179 2.03061,-14.78328 l -7.2764,-4.44626 20.84593,1.24983 c 11.46526,0.68741 23.41567,1.94039 26.55647,2.78439 l 5.71054,1.53456 -3.90161,3.92033 c -2.14588,2.15617 -3.38576,5.27104 -2.75529,6.92191 0.95778,2.50789 19.21966,13.73284 19.6963,12.10664 0.0853,-0.29091 0.52057,-3.30896 0.96734,-6.70679 l 0.81232,-6.17787 -5.7709,-4.56116 -5.77089,-4.56116 h 4.80355 c 3.35447,0 4.80355,-1.40889 4.80355,-4.67032 0,-2.56868 1.11706,-6.7676 2.48238,-9.33092 l 2.48235,-4.66058 -3.04487,-1.93871 c -1.67469,-1.06629 -2.28549,-2.08146 -1.35734,-2.25593 0.92814,-0.17447 2.44693,-0.47661 3.37508,-0.67142 4.35314,-0.91365 18.51038,-11.82591 18.53511,-14.28668 0.0157,-1.52428 2.04912,-6.10249 4.51955,-10.17381 5.16384,-8.51007 5.97266,-24.7824 1.69596,-34.11956 -1.61192,-3.51922 -6.97772,-8.18116 -12.56954,-10.9207 l -9.75696,-4.780142 -12.00082,1.244533 -12.00081,1.244529 -11.40085,7.71461 c -13.10294,8.86636 -22.39819,20.779 -28.26284,36.22122 -4.49902,11.84639 -7.74934,13.07168 -3.69792,1.39402 1.38619,-3.99551 2.11299,-7.67388 1.6151,-8.17416 -0.49789,-0.50028 -4.55256,-0.22208 -9.01037,0.61823 l -8.10512,1.52782 v 4.72225 c 0,6.6652 -3.14589,2.48411 -8.01354,-10.65053 -9.24012,-24.9331 -36.11936,-41.684281 -61.318523,-38.213784 l -9.746259,1.342279 -3.72245,5.887555 c -2.047346,3.23816 -4.659099,6.55184 -5.803894,7.36375 -1.144795,0.8119 -2.071712,7.70869 -2.059814,15.3262 0.01192,7.6175 -0.846759,14.38928 -1.908124,15.04838 -3.058754,1.89948 -2.24264,5.45322 1.252329,5.45322 1.750148,0 6.297152,5.08691 10.104454,11.30424 9.097281,14.85588 18.90927,14.82962 11.464077,-0.0307 -1.237531,-2.47006 -3.342814,-6.64107 -4.678407,-9.2689 -6.509109,-12.80695 -6.510612,-24.21778 -0.0045,-33.39874 l 4.989338,-7.04034 h 6.491081 c 3.570095,0 9.323169,1.24837 12.784608,2.77415 7.132024,3.14375 23.168944,17.41371 23.168944,20.61616 0,1.16103 1.50068,3.2405 3.33484,4.62105 1.83417,1.38055 5.79932,8.61438 8.81144,16.07518 l 5.4766,13.56509 -9.01398,1.86893 c -8.88896,1.84301 -13.93159,0.5089 -9.66517,-2.55708 1.20366,-0.86498 3.60514,-4.33582 5.33662,-7.71296 l 3.14815,-6.14027 -2.86473,-3.46834 c -3.55353,-4.30228 -7.78879,-4.42657 -11.8482,-0.34769 l -3.10575,3.12065 -2.92118,-6.63105 c -3.69049,-8.37738 -10.030719,-7.70436 -11.045224,1.17246 -0.915985,8.01477 9.635544,25.04106 14.383844,23.21023 1.77241,-0.6834 3.22258,-0.2571 3.22258,0.94734 0,1.20444 -1.94224,2.1899 -4.31609,2.1899 -2.37385,0 -5.96912,0.63737 -7.98949,1.41637 l -3.67341,1.41638 1.43431,-5.74215 1.43431,-5.74216 -4.99842,-5.02239 -4.998421,-5.02239 -2.240156,4.02214 -2.240158,4.02213 3.91559,6.66036 3.915589,6.66036 -2.497137,2.50911 c -3.868081,3.88664 -3.081545,9.09643 1.128252,7.47323 l 3.625392,-1.39787 -1.383593,5.53912 c -1.716742,6.87285 1.489359,9.14681 7.541622,5.34899 l 4.59164,-2.88128 4.67643,2.93448 4.67643,2.93449 2.91898,-2.43417 c 1.60545,-1.33879 7.65644,-2.91583 13.44664,-3.50453 l 10.52766,-1.07037 -1.58989,2.80952 c -0.87444,1.54524 -3.20781,4.73859 -5.18525,7.09632 l -3.59536,4.28679 2.81257,0.98852 c 5.09254,1.78985 2.93269,7.28333 -3.37508,8.5844 -3.40321,0.70196 -9.84897,2.24742 -14.3239,3.43435 -4.47494,1.18693 -10.2372,2.15805 -12.80503,2.15805 -5.87784,0 -8.766217,4.37085 -4.66012,7.05195 l 3.10083,2.02472 -5.163989,4.02639 c -2.840196,2.21453 -4.443361,4.7505 -3.56259,5.63548 2.271956,2.28287 4.849439,1.99355 6.526209,-0.73251 z m 45.51396,-46.63352 c 1.54691,-0.62719 4.07822,-0.62719 5.62514,0 1.54691,0.62719 0.28125,1.14034 -2.81257,1.14034 -3.09383,0 -4.35949,-0.51315 -2.81257,-1.14034 z m -47.6639,-7.30252 c -0.847225,-1.37742 -0.215,-2.54448 1.40495,-2.59346 1.61995,-0.049 10.5393,-0.67594 19.82078,-1.39324 9.49403,-0.73373 16.05305,-0.44755 14.99529,0.65427 -1.03407,1.07715 -5.08417,2.05323 -9.00022,2.16907 -3.91605,0.11584 -11.29616,0.98847 -16.40024,1.93918 -6.11382,1.13879 -9.80572,0.87409 -10.82056,-0.77582 z m 83.05447,-2.58214 c -2.10927,-3.42923 2.26366,-4.07779 13.39982,-1.98735 15.2441,2.86156 15.38679,4.1897 0.43084,4.01021 -6.97402,-0.0837 -13.19782,-0.99399 -13.83066,-2.02286 z m -37.07812,-2.68858 c 0,-0.96546 4.0501,-1.75538 9.00023,-1.75538 4.95012,0 9.00022,0.40183 9.00022,0.89296 0,0.49112 -4.0501,1.28104 -9.00022,1.75538 -4.95013,0.47433 -9.00023,0.0725 -9.00023,-0.89296 z m 21.46773,0.65535 c -0.71413,-1.16103 1.25278,-1.83765 4.37092,-1.50361 7.8347,0.83932 9.98058,3.61458 2.79486,3.61458 -3.22705,0 -6.45165,-0.94994 -7.16578,-2.11097 z m 43.72039,-11.71005 c 10.3877,-4.16538 11.04106,-14.64827 0.79025,-12.67931 l -5.38732,1.03479 3.45532,-3.8364 c 4.74188,-5.26485 4.3305,-8.54867 -1.29569,-10.34292 -3.00517,-0.95837 -6.04063,-0.21934 -8.26049,2.01117 l -3.50947,3.52631 -2.60541,-3.58019 -2.60541,-3.5802 -4.61228,2.48026 -4.61228,2.48026 0.80246,11.50738 0.80246,11.50737 -5.01228,-1.54758 c -6.99805,-2.1607 -7.0648,-2.32116 -4.02929,-9.68468 1.49255,-3.62063 2.5214,-7.97712 2.28633,-9.6811 -0.8559,-6.20406 0.17753,-8.75025 3.55147,-8.75025 1.89514,0 4.02852,-1.52608 4.74085,-3.39128 0.71232,-1.8652 2.39706,-3.39127 3.74386,-3.39127 1.34679,0 5.03543,-2.41044 8.19698,-5.35654 3.16154,-2.94609 11.87701,-7.38989 19.36771,-9.87511 l 13.61946,-4.51857 6.11041,5.28116 c 3.36073,2.90463 6.71666,8.32702 7.45765,12.04973 l 1.34725,6.76858 -5.98407,10.26004 c -3.29125,5.64302 -6.77157,10.26004 -7.73405,10.26004 -0.96247,0 -5.15225,3.05214 -9.31062,6.78254 -4.15838,3.7304 -9.6565,6.71806 -12.21805,6.63924 l -4.65738,-0.14331 z m -65.15366,-1.43971 c 0.0641,-3.15417 4.39432,-8.67749 4.4312,-5.65212 0.0189,1.55434 2.31264,2.89757 5.09708,2.98497 l 5.06263,0.1589 -4.50011,1.94304 c -5.75863,2.48644 -10.13482,2.73156 -10.0908,0.56521 z m 45.85538,-0.94941 c -1.12419,-1.82771 -0.3517,-2.15336 2.49988,-1.05385 2.31447,0.8924 4.80942,0.48144 5.68113,-0.93578 1.0413,-1.69295 2.00567,-1.34513 2.92184,1.05384 l 1.36754,3.58084 h -5.42173 c -2.98195,0 -6.15385,-1.19027 -7.04866,-2.64505 z m -85.17906,45.55672 c 11.62371,-5.95453 11.43755,-9.94496 -0.50465,-10.81748 l -9.418119,-0.6881 -2.38661,4.4808 c -2.335707,4.38524 -1.177952,11.59092 1.86234,11.59092 0.843463,0 5.544629,-2.05477 10.447039,-4.56614 z m 58.53319,-84.43625 c 0.0652,-0.16561 1.87795,-3.12578 4.02841,-6.57815 l 3.90992,-6.27704 -1.47366,-7.89294 c -0.85566,-4.582916 -3.96013,-9.858178 -7.40279,-12.579163 l -5.92913,-4.686224 -7.8759,1.265871 c -9.18319,1.475988 -15.04407,7.752077 -16.99446,18.198416 l -1.38703,7.42898 5.25854,5.70127 c 6.14755,6.66513 11.65943,8.46949 20.99744,6.87366 3.7126,-0.63446 6.80349,-1.28907 6.86866,-1.45468 z m -17.52247,-13.74979 c -1.20306,-6.32358 1.80341,-10.29022 7.79936,-10.29022 5.34371,0 7.24059,5.18158 4.07358,11.12757 -3.49463,6.5611 -10.56019,6.06279 -11.87294,-0.83735 z m 1.65359,-30.637853 c 0.76483,-1.243467 3.3559,-2.260848 5.75793,-2.260848 2.40203,0 4.36732,1.017381 4.36732,2.260848 0,1.243466 1.41046,2.260848 3.13435,2.260848 3.85925,0 7.05919,-7.513289 3.68174,-8.644506 -1.50918,-0.505472 -1.89238,-3.759836 -1.00339,-8.521308 1.38018,-7.392252 -1.46012,-10.690004 -4.68767,-5.442666 -0.76484,1.243466 -3.80241,2.260848 -6.75017,2.260848 -2.94776,0 -5.98533,-1.017382 -6.75017,-2.260848 -0.76484,-1.243466 -2.34338,-2.260848 -3.50787,-2.260848 -3.29126,0 -2.49242,5.916047 1.21647,9.008909 l 3.33373,2.780025 -3.33373,4.782401 c -1.83356,2.630323 -3.33374,5.573411 -3.33374,6.540197 0,2.554957 6.23941,2.156394 7.8752,-0.503052 z"
       id="path5755"
       inkscape:connector-curvature="0" />
  </g>
</svg>
