<?xml version="1.0" encoding="UTF-8" standalone="no"?>
<svg
   xmlns:dc="http://purl.org/dc/elements/1.1/"
   xmlns:cc="http://creativecommons.org/ns#"
   xmlns:rdf="http://www.w3.org/1999/02/22-rdf-syntax-ns#"
   xmlns:svg="http://www.w3.org/2000/svg"
   xmlns="http://www.w3.org/2000/svg"
   xmlns:sodipodi="http://sodipodi.sourceforge.net/DTD/sodipodi-0.dtd"
   xmlns:inkscape="http://www.inkscape.org/namespaces/inkscape"
   version="1.0"
   width="300.000000pt"
   height="300.000000pt"
   viewBox="0 0 300.000000 300.000000"
   preserveAspectRatio="xMidYMid meet"
   id="svg2"
   inkscape:version="0.92.2 (5c3e80d, 2017-08-06)"
   sodipodi:docname="bn.svg">
  <defs
     id="defs12">
    <filter
       style="color-interpolation-filters:sRGB;"
       inkscape:label="Drawing"
       id="filter1326">
      <feGaussianBlur
         in="SourceGraphic"
         stdDeviation="0.6"
         result="blur1"
         id="feGaussianBlur1272" />
      <feConvolveMatrix
         in="blur1"
         targetX="1"
         targetY="1"
         order="3 3"
         kernelMatrix="0 250 0 250 -1010 250 0 250 0 "
         result="convolve1"
         id="feConvolveMatrix1274" />
      <feComposite
         in="convolve1"
         in2="convolve1"
         k1="1"
         k2="1"
         k4="0"
         operator="arithmetic"
         result="composite1"
         id="feComposite1276" />
      <feColorMatrix
         in="composite1"
         values="0 0 0 0 0 0 0 0 0 0 0 0 0 0 0 -0.2125 -0.7154 -0.0721 1 0 "
         result="color1"
         id="feColorMatrix1278" />
      <feGaussianBlur
         stdDeviation="0.6"
         result="blur2"
         id="feGaussianBlur1280" />
      <feColorMatrix
         values="1 0 0 0 0 0 1 0 0 0 0 0 1 0 0 0 0 0 6 -2 "
         result="color2"
         id="feColorMatrix1282" />
      <feFlood
         flood-color="rgb(255,255,255)"
         result="flood1"
         id="feFlood1284" />
      <feBlend
         in2="color2"
         mode="multiply"
         result="blend1"
         id="feBlend1286" />
      <feComponentTransfer
         in="blend1"
         result="component1"
         id="feComponentTransfer1294">
        <feFuncR
           type="discrete"
           tableValues="0 1 1 1"
           id="feFuncR1288" />
        <feFuncG
           type="discrete"
           tableValues="0 1 1 1"
           id="feFuncG1290" />
        <feFuncB
           type="discrete"
           tableValues="0 1 1 1"
           id="feFuncB1292" />
      </feComponentTransfer>
      <feGaussianBlur
         stdDeviation="1"
         result="blur3"
         id="feGaussianBlur1296" />
      <feColorMatrix
         in="blur3"
         values="0 0 0 0 0 0 0 0 0 0 0 0 0 0 0 -0.2125 -0.7154 -0.0721 1 0 "
         result="color3"
         id="feColorMatrix1298" />
      <feColorMatrix
         values="1 0 0 0 0 0 1 0 0 0 0 0 1 0 0 0 0 0 6 -2 "
         result="color4"
         id="feColorMatrix1300" />
      <feFlood
         flood-color="rgb(0,0,0)"
         result="flood2"
         id="feFlood1302" />
      <feComposite
         in="flood2"
         in2="color4"
         operator="in"
         result="composite2"
         id="feComposite1304" />
      <feComposite
         in="composite2"
         in2="composite2"
         operator="arithmetic"
         k2="1"
         result="composite3"
         id="feComposite1306" />
      <feOffset
         dx="0"
         dy="0"
         result="offset1"
         id="feOffset1308" />
      <feFlood
         in="color4"
         flood-color="rgb(165,165,165)"
         result="flood3"
         id="feFlood1310" />
      <feComposite
         in="flood3"
         in2="color4"
         operator="out"
         result="composite4"
         id="feComposite1312" />
      <feComposite
         in="composite4"
         in2="composite4"
         operator="arithmetic"
         k2="1"
         result="composite5"
         id="feComposite1314" />
      <feMerge
         result="merge1"
         id="feMerge1320">
        <feMergeNode
           in="composite5"
           id="feMergeNode1316" />
        <feMergeNode
           in="offset1"
           id="feMergeNode1318" />
      </feMerge>
      <feColorMatrix
         values="1 0 0 0 0 0 1 0 0 0 0 0 1 0 0 0 0 0 1.3 0 "
         result="color5"
         flood-opacity="0.56"
         id="feColorMatrix1322" />
      <feComposite
         in="color5"
         in2="SourceGraphic"
         operator="in"
         result="composite8"
         id="feComposite1324" />
    </filter>
    <filter
       style="color-interpolation-filters:sRGB;"
       inkscape:label="Drawing"
       id="filter1390">
      <feGaussianBlur
         in="SourceGraphic"
         stdDeviation="0.6"
         result="blur1"
         id="feGaussianBlur1336" />
      <feConvolveMatrix
         in="blur1"
         targetX="1"
         targetY="1"
         order="3 3"
         kernelMatrix="0 250 0 250 -1010 250 0 250 0 "
         result="convolve1"
         id="feConvolveMatrix1338" />
      <feComposite
         in="convolve1"
         in2="convolve1"
         k1="1"
         k2="1"
         k4="0"
         operator="arithmetic"
         result="composite1"
         id="feComposite1340" />
      <feColorMatrix
         in="composite1"
         values="0 0 0 0 0 0 0 0 0 0 0 0 0 0 0 -0.2125 -0.7154 -0.0721 1 0 "
         result="color1"
         id="feColorMatrix1342" />
      <feGaussianBlur
         stdDeviation="0.6"
         result="blur2"
         id="feGaussianBlur1344" />
      <feColorMatrix
         values="1 0 0 0 0 0 1 0 0 0 0 0 1 0 0 0 0 0 6 -2 "
         result="color2"
         id="feColorMatrix1346" />
      <feFlood
         flood-color="rgb(255,255,255)"
         result="flood1"
         id="feFlood1348" />
      <feBlend
         in2="color2"
         mode="multiply"
         result="blend1"
         id="feBlend1350" />
      <feComponentTransfer
         in="blend1"
         result="component1"
         id="feComponentTransfer1358">
        <feFuncR
           type="discrete"
           tableValues="0 1 1 1"
           id="feFuncR1352" />
        <feFuncG
           type="discrete"
           tableValues="0 1 1 1"
           id="feFuncG1354" />
        <feFuncB
           type="discrete"
           tableValues="0 1 1 1"
           id="feFuncB1356" />
      </feComponentTransfer>
      <feGaussianBlur
         stdDeviation="1"
         result="blur3"
         id="feGaussianBlur1360" />
      <feColorMatrix
         in="blur3"
         values="0 0 0 0 0 0 0 0 0 0 0 0 0 0 0 -0.2125 -0.7154 -0.0721 1 0 "
         result="color3"
         id="feColorMatrix1362" />
      <feColorMatrix
         values="1 0 0 0 0 0 1 0 0 0 0 0 1 0 0 0 0 0 6 -2 "
         result="color4"
         id="feColorMatrix1364" />
      <feFlood
         flood-color="rgb(0,0,0)"
         result="flood2"
         id="feFlood1366" />
      <feComposite
         in="flood2"
         in2="color4"
         operator="in"
         result="composite2"
         id="feComposite1368" />
      <feComposite
         in="composite2"
         in2="composite2"
         operator="arithmetic"
         k2="1"
         result="composite3"
         id="feComposite1370" />
      <feOffset
         dx="0"
         dy="0"
         result="offset1"
         id="feOffset1372" />
      <feFlood
         in="color4"
         flood-color="rgb(165,165,165)"
         result="flood3"
         id="feFlood1374" />
      <feComposite
         in="flood3"
         in2="color4"
         operator="out"
         result="composite4"
         id="feComposite1376" />
      <feComposite
         in="composite4"
         in2="composite4"
         operator="arithmetic"
         k2="1"
         result="composite5"
         id="feComposite1378" />
      <feMerge
         result="merge1"
         id="feMerge1384">
        <feMergeNode
           in="composite5"
           id="feMergeNode1380" />
        <feMergeNode
           in="offset1"
           id="feMergeNode1382" />
      </feMerge>
      <feColorMatrix
         values="1 0 0 0 0 0 1 0 0 0 0 0 1 0 0 0 0 0 1.3 0 "
         result="color5"
         flood-opacity="0.56"
         id="feColorMatrix1386" />
      <feComposite
         in="color5"
         in2="SourceGraphic"
         operator="in"
         result="composite8"
         id="feComposite1388" />
    </filter>
    <filter
       style="color-interpolation-filters:sRGB;"
       inkscape:label="Drawing"
       id="filter1458">
      <feGaussianBlur
         in="SourceGraphic"
         stdDeviation="0.6"
         result="blur1"
         id="feGaussianBlur1404" />
      <feConvolveMatrix
         in="blur1"
         targetX="1"
         targetY="1"
         order="3 3"
         kernelMatrix="0 250 0 250 -1010 250 0 250 0 "
         result="convolve1"
         id="feConvolveMatrix1406" />
      <feComposite
         in="convolve1"
         in2="convolve1"
         k1="1"
         k2="1"
         k4="0"
         operator="arithmetic"
         result="composite1"
         id="feComposite1408" />
      <feColorMatrix
         in="composite1"
         values="0 0 0 0 0 0 0 0 0 0 0 0 0 0 0 -0.2125 -0.7154 -0.0721 1 0 "
         result="color1"
         id="feColorMatrix1410" />
      <feGaussianBlur
         stdDeviation="0.6"
         result="blur2"
         id="feGaussianBlur1412" />
      <feColorMatrix
         values="1 0 0 0 0 0 1 0 0 0 0 0 1 0 0 0 0 0 6 -2 "
         result="color2"
         id="feColorMatrix1414" />
      <feFlood
         flood-color="rgb(255,255,255)"
         result="flood1"
         id="feFlood1416" />
      <feBlend
         in2="color2"
         mode="multiply"
         result="blend1"
         id="feBlend1418" />
      <feComponentTransfer
         in="blend1"
         result="component1"
         id="feComponentTransfer1426">
        <feFuncR
           type="discrete"
           tableValues="0 1 1 1"
           id="feFuncR1420" />
        <feFuncG
           type="discrete"
           tableValues="0 1 1 1"
           id="feFuncG1422" />
        <feFuncB
           type="discrete"
           tableValues="0 1 1 1"
           id="feFuncB1424" />
      </feComponentTransfer>
      <feGaussianBlur
         stdDeviation="1"
         result="blur3"
         id="feGaussianBlur1428" />
      <feColorMatrix
         in="blur3"
         values="0 0 0 0 0 0 0 0 0 0 0 0 0 0 0 -0.2125 -0.7154 -0.0721 1 0 "
         result="color3"
         id="feColorMatrix1430" />
      <feColorMatrix
         values="1 0 0 0 0 0 1 0 0 0 0 0 1 0 0 0 0 0 6 -2 "
         result="color4"
         id="feColorMatrix1432" />
      <feFlood
         flood-color="rgb(0,0,0)"
         result="flood2"
         id="feFlood1434" />
      <feComposite
         in="flood2"
         in2="color4"
         operator="in"
         result="composite2"
         id="feComposite1436" />
      <feComposite
         in="composite2"
         in2="composite2"
         operator="arithmetic"
         k2="1"
         result="composite3"
         id="feComposite1438" />
      <feOffset
         dx="0"
         dy="0"
         result="offset1"
         id="feOffset1440" />
      <feFlood
         in="color4"
         flood-color="rgb(165,165,165)"
         result="flood3"
         id="feFlood1442" />
      <feComposite
         in="flood3"
         in2="color4"
         operator="out"
         result="composite4"
         id="feComposite1444" />
      <feComposite
         in="composite4"
         in2="composite4"
         operator="arithmetic"
         k2="1"
         result="composite5"
         id="feComposite1446" />
      <feMerge
         result="merge1"
         id="feMerge1452">
        <feMergeNode
           in="composite5"
           id="feMergeNode1448" />
        <feMergeNode
           in="offset1"
           id="feMergeNode1450" />
      </feMerge>
      <feColorMatrix
         values="1 0 0 0 0 0 1 0 0 0 0 0 1 0 0 0 0 0 1.3 0 "
         result="color5"
         flood-opacity="0.56"
         id="feColorMatrix1454" />
      <feComposite
         in="color5"
         in2="SourceGraphic"
         operator="in"
         result="composite8"
         id="feComposite1456" />
    </filter>
    <filter
       style="color-interpolation-filters:sRGB;"
       inkscape:label="Drawing"
       id="filter1535">
      <feGaussianBlur
         in="SourceGraphic"
         stdDeviation="0.6"
         result="blur1"
         id="feGaussianBlur1481" />
      <feConvolveMatrix
         in="blur1"
         targetX="1"
         targetY="1"
         order="3 3"
         kernelMatrix="0 250 0 250 -1010 250 0 250 0 "
         result="convolve1"
         id="feConvolveMatrix1483" />
      <feComposite
         in="convolve1"
         in2="convolve1"
         k1="1"
         k2="1"
         k4="0"
         operator="arithmetic"
         result="composite1"
         id="feComposite1485" />
      <feColorMatrix
         in="composite1"
         values="0 0 0 0 0 0 0 0 0 0 0 0 0 0 0 -0.2125 -0.7154 -0.0721 1 0 "
         result="color1"
         id="feColorMatrix1487" />
      <feGaussianBlur
         stdDeviation="0.6"
         result="blur2"
         id="feGaussianBlur1489" />
      <feColorMatrix
         values="1 0 0 0 0 0 1 0 0 0 0 0 1 0 0 0 0 0 6 -2 "
         result="color2"
         id="feColorMatrix1491" />
      <feFlood
         flood-color="rgb(255,255,255)"
         result="flood1"
         id="feFlood1493" />
      <feBlend
         in2="color2"
         mode="multiply"
         result="blend1"
         id="feBlend1495" />
      <feComponentTransfer
         in="blend1"
         result="component1"
         id="feComponentTransfer1503">
        <feFuncR
           type="discrete"
           tableValues="0 1 1 1"
           id="feFuncR1497" />
        <feFuncG
           type="discrete"
           tableValues="0 1 1 1"
           id="feFuncG1499" />
        <feFuncB
           type="discrete"
           tableValues="0 1 1 1"
           id="feFuncB1501" />
      </feComponentTransfer>
      <feGaussianBlur
         stdDeviation="1"
         result="blur3"
         id="feGaussianBlur1505" />
      <feColorMatrix
         in="blur3"
         values="0 0 0 0 0 0 0 0 0 0 0 0 0 0 0 -0.2125 -0.7154 -0.0721 1 0 "
         result="color3"
         id="feColorMatrix1507" />
      <feColorMatrix
         values="1 0 0 0 0 0 1 0 0 0 0 0 1 0 0 0 0 0 6 -2 "
         result="color4"
         id="feColorMatrix1509" />
      <feFlood
         flood-color="rgb(0,0,0)"
         result="flood2"
         id="feFlood1511" />
      <feComposite
         in="flood2"
         in2="color4"
         operator="in"
         result="composite2"
         id="feComposite1513" />
      <feComposite
         in="composite2"
         in2="composite2"
         operator="arithmetic"
         k2="1"
         result="composite3"
         id="feComposite1515" />
      <feOffset
         dx="0"
         dy="0"
         result="offset1"
         id="feOffset1517" />
      <feFlood
         in="color4"
         flood-color="rgb(165,165,165)"
         result="flood3"
         id="feFlood1519" />
      <feComposite
         in="flood3"
         in2="color4"
         operator="out"
         result="composite4"
         id="feComposite1521" />
      <feComposite
         in="composite4"
         in2="composite4"
         operator="arithmetic"
         k2="1"
         result="composite5"
         id="feComposite1523" />
      <feMerge
         result="merge1"
         id="feMerge1529">
        <feMergeNode
           in="composite5"
           id="feMergeNode1525" />
        <feMergeNode
           in="offset1"
           id="feMergeNode1527" />
      </feMerge>
      <feColorMatrix
         values="1 0 0 0 0 0 1 0 0 0 0 0 1 0 0 0 0 0 1.3 0 "
         result="color5"
         flood-opacity="0.56"
         id="feColorMatrix1531" />
      <feComposite
         in="color5"
         in2="SourceGraphic"
         operator="in"
         result="composite8"
         id="feComposite1533" />
    </filter>
    <filter
       style="color-interpolation-filters:sRGB;"
       inkscape:label="Drawing"
       id="filter5418">
      <feGaussianBlur
         in="SourceGraphic"
         stdDeviation="0.6"
         result="blur1"
         id="feGaussianBlur5364" />
      <feConvolveMatrix
         in="blur1"
         targetX="1"
         targetY="1"
         order="3 3"
         kernelMatrix="0 250 0 250 -1010 250 0 250 0 "
         result="convolve1"
         id="feConvolveMatrix5366" />
      <feComposite
         in="convolve1"
         in2="convolve1"
         k1="1"
         k2="1"
         k4="0"
         operator="arithmetic"
         result="composite1"
         id="feComposite5368" />
      <feColorMatrix
         in="composite1"
         values="0 0 0 0 0 0 0 0 0 0 0 0 0 0 0 -0.2125 -0.7154 -0.0721 1 0 "
         result="color1"
         id="feColorMatrix5370" />
      <feGaussianBlur
         stdDeviation="0.6"
         result="blur2"
         id="feGaussianBlur5372" />
      <feColorMatrix
         values="1 0 0 0 0 0 1 0 0 0 0 0 1 0 0 0 0 0 6 -2 "
         result="color2"
         id="feColorMatrix5374" />
      <feFlood
         flood-color="rgb(255,255,255)"
         result="flood1"
         id="feFlood5376" />
      <feBlend
         in2="color2"
         mode="multiply"
         result="blend1"
         id="feBlend5378" />
      <feComponentTransfer
         in="blend1"
         result="component1"
         id="feComponentTransfer5386">
        <feFuncR
           type="discrete"
           tableValues="0 1 1 1"
           id="feFuncR5380" />
        <feFuncG
           type="discrete"
           tableValues="0 1 1 1"
           id="feFuncG5382" />
        <feFuncB
           type="discrete"
           tableValues="0 1 1 1"
           id="feFuncB5384" />
      </feComponentTransfer>
      <feGaussianBlur
         stdDeviation="1"
         result="blur3"
         id="feGaussianBlur5388" />
      <feColorMatrix
         in="blur3"
         values="0 0 0 0 0 0 0 0 0 0 0 0 0 0 0 -0.2125 -0.7154 -0.0721 1 0 "
         result="color3"
         id="feColorMatrix5390" />
      <feColorMatrix
         values="1 0 0 0 0 0 1 0 0 0 0 0 1 0 0 0 0 0 6 -2 "
         result="color4"
         id="feColorMatrix5392" />
      <feFlood
         flood-color="rgb(0,0,0)"
         result="flood2"
         id="feFlood5394" />
      <feComposite
         in="flood2"
         in2="color4"
         operator="in"
         result="composite2"
         id="feComposite5396" />
      <feComposite
         in="composite2"
         in2="composite2"
         operator="arithmetic"
         k2="1"
         result="composite3"
         id="feComposite5398" />
      <feOffset
         dx="0"
         dy="0"
         result="offset1"
         id="feOffset5400" />
      <feFlood
         in="color4"
         flood-color="rgb(165,165,165)"
         result="flood3"
         id="feFlood5402" />
      <feComposite
         in="flood3"
         in2="color4"
         operator="out"
         result="composite4"
         id="feComposite5404" />
      <feComposite
         in="composite4"
         in2="composite4"
         operator="arithmetic"
         k2="1"
         result="composite5"
         id="feComposite5406" />
      <feMerge
         result="merge1"
         id="feMerge5412">
        <feMergeNode
           in="composite5"
           id="feMergeNode5408" />
        <feMergeNode
           in="offset1"
           id="feMergeNode5410" />
      </feMerge>
      <feColorMatrix
         values="1 0 0 0 0 0 1 0 0 0 0 0 1 0 0 0 0 0 1.3 0 "
         result="color5"
         flood-opacity="0.56"
         id="feColorMatrix5414" />
      <feComposite
         in="color5"
         in2="SourceGraphic"
         operator="in"
         result="composite8"
         id="feComposite5416" />
    </filter>
    <filter
       style="color-interpolation-filters:sRGB;"
       inkscape:label="Drawing"
       id="filter5515">
      <feGaussianBlur
         in="SourceGraphic"
         stdDeviation="0.6"
         result="blur1"
         id="feGaussianBlur5461" />
      <feConvolveMatrix
         in="blur1"
         targetX="1"
         targetY="1"
         order="3 3"
         kernelMatrix="0 250 0 250 -1010 250 0 250 0 "
         result="convolve1"
         id="feConvolveMatrix5463" />
      <feComposite
         in="convolve1"
         in2="convolve1"
         k1="1"
         k2="1"
         k4="0"
         operator="arithmetic"
         result="composite1"
         id="feComposite5465" />
      <feColorMatrix
         in="composite1"
         values="0 0 0 0 0 0 0 0 0 0 0 0 0 0 0 -0.2125 -0.7154 -0.0721 1 0 "
         result="color1"
         id="feColorMatrix5467" />
      <feGaussianBlur
         stdDeviation="0.6"
         result="blur2"
         id="feGaussianBlur5469" />
      <feColorMatrix
         values="1 0 0 0 0 0 1 0 0 0 0 0 1 0 0 0 0 0 6 -2 "
         result="color2"
         id="feColorMatrix5471" />
      <feFlood
         flood-color="rgb(255,255,255)"
         result="flood1"
         id="feFlood5473" />
      <feBlend
         in2="color2"
         mode="multiply"
         result="blend1"
         id="feBlend5475" />
      <feComponentTransfer
         in="blend1"
         result="component1"
         id="feComponentTransfer5483">
        <feFuncR
           type="discrete"
           tableValues="0 1 1 1"
           id="feFuncR5477" />
        <feFuncG
           type="discrete"
           tableValues="0 1 1 1"
           id="feFuncG5479" />
        <feFuncB
           type="discrete"
           tableValues="0 1 1 1"
           id="feFuncB5481" />
      </feComponentTransfer>
      <feGaussianBlur
         stdDeviation="1"
         result="blur3"
         id="feGaussianBlur5485" />
      <feColorMatrix
         in="blur3"
         values="0 0 0 0 0 0 0 0 0 0 0 0 0 0 0 -0.2125 -0.7154 -0.0721 1 0 "
         result="color3"
         id="feColorMatrix5487" />
      <feColorMatrix
         values="1 0 0 0 0 0 1 0 0 0 0 0 1 0 0 0 0 0 6 -2 "
         result="color4"
         id="feColorMatrix5489" />
      <feFlood
         flood-color="rgb(0,0,0)"
         result="flood2"
         id="feFlood5491" />
      <feComposite
         in="flood2"
         in2="color4"
         operator="in"
         result="composite2"
         id="feComposite5493" />
      <feComposite
         in="composite2"
         in2="composite2"
         operator="arithmetic"
         k2="1"
         result="composite3"
         id="feComposite5495" />
      <feOffset
         dx="0"
         dy="0"
         result="offset1"
         id="feOffset5497" />
      <feFlood
         in="color4"
         flood-color="rgb(165,165,165)"
         result="flood3"
         id="feFlood5499" />
      <feComposite
         in="flood3"
         in2="color4"
         operator="out"
         result="composite4"
         id="feComposite5501" />
      <feComposite
         in="composite4"
         in2="composite4"
         operator="arithmetic"
         k2="1"
         result="composite5"
         id="feComposite5503" />
      <feMerge
         result="merge1"
         id="feMerge5509">
        <feMergeNode
           in="composite5"
           id="feMergeNode5505" />
        <feMergeNode
           in="offset1"
           id="feMergeNode5507" />
      </feMerge>
      <feColorMatrix
         values="1 0 0 0 0 0 1 0 0 0 0 0 1 0 0 0 0 0 1.3 0 "
         result="color5"
         flood-opacity="0.56"
         id="feColorMatrix5511" />
      <feComposite
         in="color5"
         in2="SourceGraphic"
         operator="in"
         result="composite8"
         id="feComposite5513" />
    </filter>
    <filter
       style="color-interpolation-filters:sRGB;"
       inkscape:label="Drawing"
       id="filter5612">
      <feGaussianBlur
         in="SourceGraphic"
         stdDeviation="0.6"
         result="blur1"
         id="feGaussianBlur5558" />
      <feConvolveMatrix
         in="blur1"
         targetX="1"
         targetY="1"
         order="3 3"
         kernelMatrix="0 250 0 250 -1010 250 0 250 0 "
         result="convolve1"
         id="feConvolveMatrix5560" />
      <feComposite
         in="convolve1"
         in2="convolve1"
         k1="1"
         k2="1"
         k4="0"
         operator="arithmetic"
         result="composite1"
         id="feComposite5562" />
      <feColorMatrix
         in="composite1"
         values="0 0 0 0 0 0 0 0 0 0 0 0 0 0 0 -0.2125 -0.7154 -0.0721 1 0 "
         result="color1"
         id="feColorMatrix5564" />
      <feGaussianBlur
         stdDeviation="0.6"
         result="blur2"
         id="feGaussianBlur5566" />
      <feColorMatrix
         values="1 0 0 0 0 0 1 0 0 0 0 0 1 0 0 0 0 0 6 -2 "
         result="color2"
         id="feColorMatrix5568" />
      <feFlood
         flood-color="rgb(255,255,255)"
         result="flood1"
         id="feFlood5570" />
      <feBlend
         in2="color2"
         mode="multiply"
         result="blend1"
         id="feBlend5572" />
      <feComponentTransfer
         in="blend1"
         result="component1"
         id="feComponentTransfer5580">
        <feFuncR
           type="discrete"
           tableValues="0 1 1 1"
           id="feFuncR5574" />
        <feFuncG
           type="discrete"
           tableValues="0 1 1 1"
           id="feFuncG5576" />
        <feFuncB
           type="discrete"
           tableValues="0 1 1 1"
           id="feFuncB5578" />
      </feComponentTransfer>
      <feGaussianBlur
         stdDeviation="1"
         result="blur3"
         id="feGaussianBlur5582" />
      <feColorMatrix
         in="blur3"
         values="0 0 0 0 0 0 0 0 0 0 0 0 0 0 0 -0.2125 -0.7154 -0.0721 1 0 "
         result="color3"
         id="feColorMatrix5584" />
      <feColorMatrix
         values="1 0 0 0 0 0 1 0 0 0 0 0 1 0 0 0 0 0 6 -2 "
         result="color4"
         id="feColorMatrix5586" />
      <feFlood
         flood-color="rgb(0,0,0)"
         result="flood2"
         id="feFlood5588" />
      <feComposite
         in="flood2"
         in2="color4"
         operator="in"
         result="composite2"
         id="feComposite5590" />
      <feComposite
         in="composite2"
         in2="composite2"
         operator="arithmetic"
         k2="1"
         result="composite3"
         id="feComposite5592" />
      <feOffset
         dx="0"
         dy="0"
         result="offset1"
         id="feOffset5594" />
      <feFlood
         in="color4"
         flood-color="rgb(165,165,165)"
         result="flood3"
         id="feFlood5596" />
      <feComposite
         in="flood3"
         in2="color4"
         operator="out"
         result="composite4"
         id="feComposite5598" />
      <feComposite
         in="composite4"
         in2="composite4"
         operator="arithmetic"
         k2="1"
         result="composite5"
         id="feComposite5600" />
      <feMerge
         result="merge1"
         id="feMerge5606">
        <feMergeNode
           in="composite5"
           id="feMergeNode5602" />
        <feMergeNode
           in="offset1"
           id="feMergeNode5604" />
      </feMerge>
      <feColorMatrix
         values="1 0 0 0 0 0 1 0 0 0 0 0 1 0 0 0 0 0 1.3 0 "
         result="color5"
         flood-opacity="0.56"
         id="feColorMatrix5608" />
      <feComposite
         in="color5"
         in2="SourceGraphic"
         operator="in"
         result="composite8"
         id="feComposite5610" />
    </filter>
    <filter
       style="color-interpolation-filters:sRGB;"
       inkscape:label="Drawing"
       id="filter5720">
      <feGaussianBlur
         in="SourceGraphic"
         stdDeviation="0.6"
         result="blur1"
         id="feGaussianBlur5666" />
      <feConvolveMatrix
         in="blur1"
         targetX="1"
         targetY="1"
         order="3 3"
         kernelMatrix="0 250 0 250 -1010 250 0 250 0 "
         result="convolve1"
         id="feConvolveMatrix5668" />
      <feComposite
         in="convolve1"
         in2="convolve1"
         k1="1"
         k2="1"
         k4="0"
         operator="arithmetic"
         result="composite1"
         id="feComposite5670" />
      <feColorMatrix
         in="composite1"
         values="0 0 0 0 0 0 0 0 0 0 0 0 0 0 0 -0.2125 -0.7154 -0.0721 1 0 "
         result="color1"
         id="feColorMatrix5672" />
      <feGaussianBlur
         stdDeviation="0.6"
         result="blur2"
         id="feGaussianBlur5674" />
      <feColorMatrix
         values="1 0 0 0 0 0 1 0 0 0 0 0 1 0 0 0 0 0 6 -2 "
         result="color2"
         id="feColorMatrix5676" />
      <feFlood
         flood-color="rgb(255,255,255)"
         result="flood1"
         id="feFlood5678" />
      <feBlend
         in2="color2"
         mode="multiply"
         result="blend1"
         id="feBlend5680" />
      <feComponentTransfer
         in="blend1"
         result="component1"
         id="feComponentTransfer5688">
        <feFuncR
           type="discrete"
           tableValues="0 1 1 1"
           id="feFuncR5682" />
        <feFuncG
           type="discrete"
           tableValues="0 1 1 1"
           id="feFuncG5684" />
        <feFuncB
           type="discrete"
           tableValues="0 1 1 1"
           id="feFuncB5686" />
      </feComponentTransfer>
      <feGaussianBlur
         stdDeviation="1"
         result="blur3"
         id="feGaussianBlur5690" />
      <feColorMatrix
         in="blur3"
         values="0 0 0 0 0 0 0 0 0 0 0 0 0 0 0 -0.2125 -0.7154 -0.0721 1 0 "
         result="color3"
         id="feColorMatrix5692" />
      <feColorMatrix
         values="1 0 0 0 0 0 1 0 0 0 0 0 1 0 0 0 0 0 6 -2 "
         result="color4"
         id="feColorMatrix5694" />
      <feFlood
         flood-color="rgb(0,0,0)"
         result="flood2"
         id="feFlood5696" />
      <feComposite
         in="flood2"
         in2="color4"
         operator="in"
         result="composite2"
         id="feComposite5698" />
      <feComposite
         in="composite2"
         in2="composite2"
         operator="arithmetic"
         k2="1"
         result="composite3"
         id="feComposite5700" />
      <feOffset
         dx="0"
         dy="0"
         result="offset1"
         id="feOffset5702" />
      <feFlood
         in="color4"
         flood-color="rgb(165,165,165)"
         result="flood3"
         id="feFlood5704" />
      <feComposite
         in="flood3"
         in2="color4"
         operator="out"
         result="composite4"
         id="feComposite5706" />
      <feComposite
         in="composite4"
         in2="composite4"
         operator="arithmetic"
         k2="1"
         result="composite5"
         id="feComposite5708" />
      <feMerge
         result="merge1"
         id="feMerge5714">
        <feMergeNode
           in="composite5"
           id="feMergeNode5710" />
        <feMergeNode
           in="offset1"
           id="feMergeNode5712" />
      </feMerge>
      <feColorMatrix
         values="1 0 0 0 0 0 1 0 0 0 0 0 1 0 0 0 0 0 1.3 0 "
         result="color5"
         flood-opacity="0.56"
         id="feColorMatrix5716" />
      <feComposite
         in="color5"
         in2="SourceGraphic"
         operator="in"
         result="composite8"
         id="feComposite5718" />
    </filter>
  </defs>
  <sodipodi:namedview
     pagecolor="#ffffff"
     bordercolor="#666666"
     borderopacity="1"
     objecttolerance="10"
     gridtolerance="10"
     guidetolerance="10"
     inkscape:pageopacity="0"
     inkscape:pageshadow="2"
     inkscape:window-width="960"
     inkscape:window-height="949"
     id="namedview10"
     showgrid="false"
     inkscape:zoom="1.0450736"
     inkscape:cx="218.44592"
     inkscape:cy="279.21505"
     inkscape:window-x="28"
     inkscape:window-y="25"
     inkscape:window-maximized="0"
     inkscape:current-layer="svg2"
     inkscape:pagecheckerboard="true"
     showguides="false" />
  <metadata
     id="metadata4">
Created by potrace 1.12, written by Peter Selinger 2001-2015
<rdf:RDF>
  <cc:Work
     rdf:about="">
    <dc:format>image/svg+xml</dc:format>
    <dc:type
       rdf:resource="http://purl.org/dc/dcmitype/StillImage" />
    <dc:title />
  </cc:Work>
</rdf:RDF>
</metadata>
  <path
     style="fill:#ffffff;fill-opacity:1;stroke-width:2.24785423"
     d="M 95.591511,3.9536083 C 87.155943,3.703556 80.992044,11.122806 78.071202,18.185857 64.511079,21.329943 57.143434,37.022467 59.926932,50.067223 59.968862,60.7308 65.75238,70.821647 65.540564,81.226628 57.95326,94.902604 47.002615,106.7341 41.562853,121.54425 29.129602,137.55701 15.23224,155.40002 15.948867,176.84881 c 0.05757,19.57678 13.831364,39.37613 33.632266,42.75644 4.169148,0.85333 8.599057,-0.49904 12.251344,-1.8039 5.254914,2.78836 11.465922,3.39355 17.268749,2.36674 -6.331907,11.21802 -8.124575,24.5789 -7.887607,37.28508 1.532848,11.38263 13.047588,19.22472 24.124216,18.13057 37.635065,1.44017 75.137435,3.80834 112.686815,6.71285 13.52411,0.60276 27.27824,1.93938 40.71162,0.87448 12.32483,-5.26363 14.18452,-20.49185 17.04375,-31.85364 2.64461,-14.0691 6.88752,-28.18963 6.82508,-42.55741 -4.25324,-11.52899 -1.34991,-24.33229 -5.68429,-35.92372 C 262.84186,155.36632 262.0387,136.61245 252.7292,120.75166 239.35814,94.833391 217.47613,74.832474 195.49793,56.35132 184.74161,47.54331 170.961,44.551286 158.48232,39.136935 150.6741,36.083885 141.97681,34.601615 133.96585,33.687004 126.49085,18.828197 112.59192,5.8892226 95.591511,3.9536083 Z"
     id="path5636"
     inkscape:connector-curvature="0"
     sodipodi:nodetypes="ccccccccccccccccccccc" />
  <g
     id="g5656"
     style="filter:url(#filter5720)"
     transform="matrix(1.0125805,0,0,1.0231582,4.3517381,3.6114403)">
    <path
       style="fill:#e6e6e6;fill-opacity:1;stroke-width:2.21194601"
       d="m 207.92134,257.3632 c -5.51467,-0.73831 -19.45957,-1.54048 -30.98866,-1.78257 -11.52909,-0.2421 -29.07578,-1.35977 -38.99264,-2.48369 -9.91686,-1.12393 -26.19538,-2.05103 -36.1745,-2.06018 l -18.143856,-0.0167 -1.251557,-3.21423 c -0.688356,-1.76782 0.318748,-8.93181 2.238006,-15.91998 1.91926,-6.98817 3.544963,-13.88602 3.612678,-15.32858 0.06771,-1.44256 0.740745,-2.4307 1.495626,-2.19586 0.754882,0.23483 8.013475,-5.34819 16.130213,-12.40671 14.00971,-12.18322 29.33797,-33.46421 32.20106,-44.70636 1.62118,-6.36566 -2.38068,-6.60323 -7.57641,-0.44976 -4.49315,5.32138 -13.35212,9.47275 -18.79681,8.80832 -6.5649,-0.80114 -17.214652,6.17758 -22.848121,14.97224 -10.302894,16.08431 -24.475117,21.86396 -27.320302,11.14164 -1.387011,-5.22708 -3.568058,-5.5506 -7.327115,-1.08685 -6.52144,7.74398 -20.317529,1.53888 -24.527183,-11.03164 -3.000048,-8.95849 -1.102359,-23.74634 3.533932,-27.53836 1.742425,-1.42513 3.168047,-4.1358 3.168047,-6.0237 0,-1.88791 4.101784,-8.22655 9.115078,-14.08585 5.013292,-5.85931 10.032627,-13.92821 11.154075,-17.9309 1.121446,-4.00268 4.637403,-10.1418 7.813235,-13.64249 3.175832,-3.500676 7.716484,-10.537101 10.09034,-15.636494 l 4.316099,-9.271621 -3.419208,-13.003932 c -4.466005,-16.985101 -4.486656,-30.768967 -0.04861,-32.447324 4.415658,-1.669892 9.998302,3.019518 9.998302,8.398552 0,2.33884 1.021244,3.630423 2.269432,2.870181 1.327737,-0.808695 1.717881,-5.390275 0.940228,-11.041365 -1.742733,-12.664178 -0.253241,-14.586668 8.114158,-10.472955 7.125653,3.503225 19.870293,18.938182 19.870293,24.064784 0,1.944309 2.87513,2.997673 8.35556,3.061237 10.58244,0.122726 27.81751,4.558013 32.45673,8.352419 1.95553,1.599428 4.46696,2.352909 5.58095,1.674402 2.43478,-1.482972 22.62051,11.324365 24.18629,15.3456 0.6068,1.558384 6.28133,6.707742 12.61007,11.443023 6.48211,4.850032 14.91219,14.101402 19.30532,21.186113 4.28919,6.91709 10.10551,16.06125 12.92517,20.32036 3.5516,5.36469 5.84769,13.56637 7.47353,26.69553 1.29076,10.42343 3.18714,19.46877 4.21416,20.10076 2.17455,1.33812 3.58276,21.20274 1.63885,23.11845 -0.72288,0.71242 -0.0238,3.74675 1.55347,6.74294 l 2.86783,5.44762 -1.95665,8.12127 c -1.07615,4.4667 -3.45945,15.03824 -5.2962,23.4923 -4.60744,21.20679 -6.44257,22.18489 -34.56091,18.42033 z m 4.66225,-16.22448 c -0.0163,-1.20772 -2.06953,-2.51098 -4.56298,-2.89611 l -4.53354,-0.70029 1.38342,3.5529 c 1.46123,3.75273 7.7633,3.78828 7.7131,0.0435 z m -16.46237,-1.33025 c -2.20088,-1.26205 -7.53065,-1.82594 -11.84394,-1.25311 -12.89333,1.71235 -11.43966,3.68595 2.66231,3.61452 l 13.18322,-0.0668 z m -55.92284,-7.06155 c 10.64383,-2.19898 68.47138,-3.23694 71.62222,-1.28559 0.30637,0.18972 1.30904,0.55384 2.22815,0.80913 0.91911,0.25527 3.39271,1.2131 5.49687,2.12851 7.12228,3.09851 9.5714,0.18006 4.24986,-5.06439 l -5.01476,-4.94209 -41.63714,1.12832 c -28.72437,0.77838 -45.26493,2.20976 -53.33492,4.61543 -6.43379,1.91791 -11.69779,3.94291 -11.69779,4.49997 0,1.89942 14.45512,0.9271 28.08751,-1.88929 z m 90.22282,-9.72404 c 0.1201,-0.90579 0.61377,-8.99588 1.09701,-17.97797 l 0.87865,-16.33109 -3.54118,-5.32618 c -2.32679,-3.49967 -3.07872,-7.68861 -2.19266,-12.21509 0.74169,-3.7889 1.59006,-8.37111 1.88529,-10.18269 0.79458,-4.87584 -11.98659,-33.0011 -17.81202,-39.19575 -2.77371,-2.9495 -5.0431,-7.12743 -5.0431,-9.28428 0,-4.48086 -11.84715,-13.685129 -14.53468,-11.29226 -0.97726,0.87011 -1.15376,0.50342 -0.39223,-0.81487 1.98838,-3.442084 -12.18302,-16.227058 -19.42037,-17.520419 -3.88049,-0.69347 -5.59575,-0.262974 -4.69228,1.17767 0.7832,1.24888 3.16962,2.27069 5.30317,2.27069 5.40683,0 9.22673,4.32639 9.22673,10.450132 0,2.849038 0.93339,4.611567 2.07419,3.916727 1.14081,-0.69484 2.70398,-0.25908 3.47373,0.96834 0.76974,1.22742 3.12951,2.23168 5.24393,2.23168 4.75341,0 11.48966,10.79519 11.48966,18.4128 v 5.65798 l 5.49053,1.35806 c 5.68659,1.40656 9.27965,7.88981 6.67468,12.04367 -0.82024,1.30793 0.75386,4.73333 3.49799,7.612 l 4.98935,5.23393 -1.48644,11.04285 -1.48643,11.04284 3.48075,6.63346 c 3.98632,7.59696 3.39581,30.89801 -0.91269,36.01419 l -2.60854,3.09755 2.87819,1.13811 c 4.32764,1.71126 6.19662,1.6642 6.43877,-0.16205 z M 72.004156,171.70997 c 0,-1.20772 -1.002668,-1.58516 -2.228151,-0.83874 -1.225482,0.74641 -2.22815,2.34525 -2.22815,3.55297 0,1.20772 1.002668,1.58516 2.22815,0.83874 1.225483,-0.74641 2.228151,-2.34525 2.228151,-3.55297 z m -26.737806,-3.0346 c 0,-3.11039 1.119966,-3.64747 8.730072,-4.18653 5.768481,-0.40861 5.314003,-5.69484 -0.489607,-5.69484 -3.386787,0 -6.882325,2.07943 -9.098281,5.41239 -4.179003,6.28553 -4.439775,7.76277 -1.370335,7.76277 1.225483,0 2.228151,-1.48221 2.228151,-3.29379 z m 116.80934,-13.7096 c 6.30232,-5.40976 8.06447,-14.48027 2.39671,-12.33687 -1.83822,0.69517 -3.34222,1.96004 -3.34222,2.81082 0,0.85078 -1.75467,3.47526 -3.89927,5.83219 -2.14459,2.35692 -5.29106,6.02036 -6.99215,8.14098 l -3.09289,3.85566 4.59544,-1.68831 c 2.52749,-0.92857 7.17796,-3.90508 10.33438,-6.61447 z m -51.03511,-3.17856 5.82386,-2.61507 -1.52002,-4.52147 c -0.836,-2.48681 -1.65489,-6.74478 -1.81974,-9.46216 -0.34537,-5.69276 -1.06395,-5.89548 -6.49775,-1.83307 l -3.96986,2.96794 2.66069,5.75494 c 3.3482,7.24201 1.94073,8.65988 -5.739682,5.78211 -6.742491,-2.52634 -10.148718,-1.39269 -10.148718,3.37765 0,3.95496 12.88353,4.28849 21.21122,0.54913 z m 43.01582,-17.74883 c 4.62665,-9.10999 5.88211,-15.23472 5.19216,-25.32977 -0.68701,-10.051989 -4.1752,-2.43831 -5.55517,12.12529 -0.77557,8.1851 -2.44868,15.22316 -3.71801,15.64014 -1.26932,0.41698 -3.92794,3.88031 -5.90803,7.6963 l -3.60017,6.93815 4.43806,-3.89495 c 2.44093,-2.14223 6.55895,-8.07105 9.15116,-13.17516 z m -69.97965,-7.31927 c 4.795056,-1.81337 4.42736,-4.62399 -0.977891,-7.47487 -6.18346,-3.26132 -9.444822,-0.82866 -6.056799,4.51781 1.495174,2.35946 2.896636,4.28992 3.114362,4.28992 0.217735,0 1.981873,-0.59979 3.920328,-1.33286 z m 15.823652,-12.56533 c -3.622926,-5.44914 -9.723996,-9.13438 -11.775405,-7.11269 -0.586599,0.57809 2.108572,4.18018 5.989268,8.00463 7.990685,7.87489 11.277945,7.36816 5.786137,-0.89194 z M 79.930351,109.5667 c 2.376896,-1.71284 3.806889,-3.62153 3.177764,-4.24154 -0.629123,-0.62 -3.635551,0.75944 -6.680947,3.06543 -6.342533,4.8026 -3.05901,5.90496 3.503183,1.17611 z M 173.37264,99.492334 c -4.43321,-4.827649 -6.86387,-4.311642 -4.78913,1.016686 0.72567,1.86367 3.01028,3.3885 5.0769,3.3885 h 3.75749 z M 112.71607,84.287021 c 0.69983,-2.637374 -0.79191,-6.014178 -3.94743,-8.935677 -3.0353,-2.81019 -4.63968,-6.326894 -3.99493,-8.756663 0.59259,-2.233257 -0.0898,-5.870261 -1.51638,-8.082233 l -2.59382,-4.021767 1.0582,4.938496 c 0.58201,2.716173 0.10886,5.516708 -1.05141,6.22341 -1.160285,0.706702 -1.525343,3.099091 -0.811241,5.316419 0.714101,2.217329 1.700711,6.090432 2.192461,8.606895 1.87835,9.612122 8.57865,12.572015 10.66455,4.71112 z"
       id="path5664"
       inkscape:connector-curvature="0" />
    <path
       style="fill:#aaaaaa;fill-opacity:1;stroke-width:2.21194601"
       d="m 209.96381,256.75752 c -0.51062,-0.46756 -17.47241,-1.55047 -37.69288,-2.40644 -20.22047,-0.85595 -37.4203,-1.95533 -38.22186,-2.44305 -0.80156,-0.48772 -12.11397,-1.24834 -25.13871,-1.69026 -13.024729,-0.44194 -24.292533,-1.40588 -25.039562,-2.14208 -0.74703,-0.73619 -0.06863,-7.32737 1.507551,-14.64704 l 2.865787,-13.30849 16.009504,-14.7431 c 16.39134,-15.09473 34.59503,-40.38172 34.59503,-48.05642 0,-2.36091 3.13444,-7.19482 6.96542,-10.74201 13.54467,-12.54132 18.9592,-32.83449 11.97386,-44.87697 l -3.18431,-5.489652 -0.0914,12.077222 c -0.14319,18.92544 -3.50418,27.12828 -16.48356,40.2299 -13.96792,14.09948 -18.65244,16.86245 -28.58975,16.86245 -7.69653,0 -8.61055,0.70503 -29.374922,22.6586 l -10.008199,10.58139 -4.440597,-2.3421 c -2.44233,-1.28815 -4.761291,-4.41917 -5.153247,-6.95783 l -0.712647,-4.61574 -6.429281,5.00431 -6.429282,5.00431 -5.793321,-3.20459 c -17.114517,-9.46691 -14.324352,-38.18248 5.73921,-59.06624 4.061014,-4.22703 8.461845,-11.63806 9.779625,-16.46895 1.317779,-4.83089 5.535875,-12.01526 9.373546,-15.96526 3.837671,-3.950009 8.553382,-11.361035 10.479357,-16.468948 l 3.501773,-9.287117 -2.652268,-7.685508 C 73.492788,55.481547 71.513254,35.235166 73.90975,31.7018 c 2.916166,-4.299558 6.766867,-1.181678 11.505526,9.315929 l 4.099304,9.081233 0.15739,-15.91998 c 0.08656,-8.755989 0.544112,-15.91998 1.016772,-15.91998 0.47266,0 3.468907,1.334217 6.658329,2.964928 6.511749,3.329377 12.520199,10.30593 17.303579,20.091595 2.18002,4.459805 4.62888,6.405699 7.58165,6.02448 7.69485,-0.993442 29.6096,4.283463 33.81173,8.141608 2.23751,2.054351 5.3978,3.298407 7.02286,2.764571 3.45873,-1.136201 11.65009,4.501859 31.0411,21.365393 12.5319,10.898452 29.4104,30.705933 29.4104,34.514083 0,0.789 2.34769,4.49222 5.2171,8.22939 5.81599,7.57484 7.8252,14.05338 9.50534,30.6491 0.62805,6.20372 2.7058,15.43729 4.61722,20.51903 1.91142,5.08175 2.97398,12.49277 2.36128,16.46895 -0.61272,3.97617 -0.17803,8.992 0.96599,11.14629 2.16806,4.08264 -5.11389,44.37272 -9.46944,52.39316 l -2.21353,4.07609 h -11.80507 c -6.49279,0 -12.22285,-0.38256 -12.73347,-0.85015 z m 4.10473,-15.03336 c -1.0685,-3.18424 -30.45739,-5.06591 -39.54322,-2.5318 l -5.59662,1.56093 6.68446,1.37067 c 3.67644,0.75386 14.0429,1.59811 23.03656,1.8761 l 16.35211,0.50542 z m -74.79306,-8.41554 c 8.20038,-1.12819 27.25107,-2.04518 42.33486,-2.03774 l 27.42507,0.0132 6.53795,3.35995 c 7.9163,4.06829 13.33486,2.5641 11.78627,-3.27187 -0.61635,-2.32276 0.12322,-4.69361 1.64347,-5.26853 1.73762,-0.65713 3.23155,-7.76677 4.0229,-19.14501 l 1.25881,-18.09971 -4.64502,-6.19169 -4.64503,-6.19169 2.9359,-8.76698 2.93593,-8.76698 -7.17373,-15.99393 c -3.94556,-8.79631 -8.59627,-17.08299 -10.33492,-18.41448 -1.73864,-1.3315 -4.71728,-6.09122 -6.61919,-10.57716 -1.90191,-4.48594 -7.11966,-11.30163 -11.595,-15.145972 -4.47534,-3.844345 -10.59629,-9.213026 -13.60211,-11.930402 -3.00582,-2.717376 -7.28499,-4.940684 -9.50927,-4.940684 -2.22428,0 -6.07795,-2.151397 -8.56372,-4.780884 -2.48576,-2.629484 -5.11248,-4.196561 -5.83715,-3.482393 -2.04552,2.015875 12.59345,14.850855 16.93817,14.850855 4.19652,0 7.02457,6.771414 4.5056,10.788117 -1.06202,1.693493 -2.88354,1.051763 -5.69027,-2.004679 l -4.12821,-4.495513 -1.80103,2.796721 c -2.59963,4.036802 -2.36594,4.728424 2.63834,7.808354 3.09931,1.9075 5.7732,2.10675 8.55841,0.63776 l 4.05079,-2.1365 8.14944,3.64027 c 4.48219,2.00215 8.55905,5.16429 9.05969,7.02699 0.50065,1.8627 1.53279,6.13905 2.29367,9.503 0.84674,3.74359 3.52017,6.91691 6.89154,8.18013 l 5.50815,2.06384 v 6.73084 c 0,3.70197 2.20253,9.66676 4.89452,13.2551 l 4.89452,6.52425 -2.76955,7.54807 -2.76956,7.54807 4.55949,8.80781 c 4.99783,9.65456 5.83574,16.72966 2.24069,18.91933 -1.27533,0.77678 -1.70222,3.3268 -0.94863,5.66671 0.75358,2.33992 0.13591,7.00234 -1.37263,10.36096 l -2.74278,6.10655 -36.97233,0.56128 c -21.84963,0.33169 -43.35196,1.88928 -52.56939,3.80797 -8.57837,1.7857 -18.37525,3.83213 -21.77083,4.54763 -3.39558,0.7155 -6.68659,2.11863 -7.31337,3.11807 -1.17908,1.88014 11.51639,1.01959 37.30954,-2.52901 z M 71.558526,175.9217 c 3.221522,-3.17483 3.474959,-6.1484 0.524025,-6.1484 -1.182366,0 -3.222979,1.97627 -4.534696,4.39171 -2.626542,4.83662 -0.195164,5.90157 4.010671,1.75669 z M 47.4945,168.53734 c 0,-2.29857 1.655496,-3.20496 5.013339,-2.74483 l 5.013339,0.687 v -4.20873 c 0,-6.42226 -4.815987,-6.61572 -11.077454,-0.445 -6.36136,6.26917 -7.236567,10.14338 -2.29145,10.14338 1.838225,0 3.342226,-1.54432 3.342226,-3.43182 z m 111.46879,-9.0671 c 7.47816,-5.04343 8.78324,-7.26496 8.78227,-14.94933 l -8.4e-4,-6.58757 -9.99172,10.96469 c -5.49545,6.03058 -9.99173,11.71237 -9.99173,12.62619 0,2.8322 5.43456,1.83573 11.20202,-2.05398 z m -50.06724,-5.32864 c 9.3157,-2.31173 12.70085,-6.55719 7.67112,-9.62069 -1.22549,-0.74641 -2.22815,-4.82456 -2.22815,-9.06255 v -7.70544 l -6.44054,4.5196 c -3.5423,2.48579 -6.29963,6.25859 -6.12742,8.384 0.21872,2.69932 -1.57389,4.07765 -5.945881,4.57173 -7.041162,0.79572 -10.496511,6.40851 -5.763461,9.36202 4.097141,2.5567 7.002298,2.48749 18.834332,-0.44867 z m -21.29484,-28.2397 3.342225,-2.08283 -3.598795,-3.54763 c -2.037577,-2.0086 -6.174245,-3.2338 -9.535515,-2.82423 l -5.93672,0.72339 3.534446,4.94069 c 3.818295,5.33746 6.955487,6.05539 12.194359,2.79061 z m 17.8252,-6.22254 c 0,-3.7097 -13.488286,-14.3242 -18.928765,-14.89585 -3.480837,-0.36574 -8.024783,1.44301 -11.754981,4.67916 l -6.080734,5.27536 3.626438,0.0694 c 1.994542,0.0382 4.874649,-1.41281 6.40024,-3.2244 3.866683,-4.59154 8.314357,-4.1067 11.208016,1.2218 3.110041,5.72694 15.529786,11.22477 15.529786,6.87454 z m 7.56617,-34.641713 c 0.75384,-1.936008 -0.62764,-5.977217 -3.10384,-9.079569 -2.45428,-3.074893 -4.5328,-8.174831 -4.61893,-11.333197 -0.0861,-3.158364 -0.92035,-7.665839 -1.85381,-10.016608 l -1.69721,-4.274128 -1.45799,5.372058 c -3.607814,13.293234 0.71173,32.820297 7.26011,32.820297 2.26225,0 4.7245,-1.569984 5.47167,-3.488853 z"
       id="path5662"
       inkscape:connector-curvature="0" />
    <path
       style="fill:#6e6e6e;fill-opacity:1;stroke-width:2.21194601"
       d="m 210.95652,256.18877 c -3.41748,-0.86313 -83.73054,-5.66286 -105.09904,-6.28101 -11.404999,-0.32993 -21.270327,-1.12608 -21.922948,-1.76925 -0.652623,-0.64317 0.116331,-6.92785 1.708788,-13.96595 l 2.895375,-12.79657 13.457195,-12.65988 c 7.40146,-6.96293 14.7785,-13.87989 16.39343,-15.37102 4.82776,-4.45766 20.47474,-30.07818 21.18992,-34.69659 0.36517,-2.35809 3.86667,-7.54392 7.78112,-11.52408 3.91445,-3.98016 9.07397,-12.72338 11.4656,-19.42937 l 4.34841,-12.19272 -2.21867,-7.91892 c -1.22027,-4.35541 -3.09537,-8.452898 -4.16688,-9.10553 -2.08456,-1.269659 -4.31863,10.54088 -4.30119,22.73848 0.0122,8.52065 -11.63512,26.99521 -19.7013,31.24954 -2.79313,1.47317 -5.07841,3.47428 -5.07841,4.44691 0,3.12015 -12.53098,8.27356 -17.1951,7.07154 -5.83217,-1.50304 -21.378135,9.24612 -25.005985,17.29024 -3.389984,7.51669 -14.742754,15.69255 -19.363682,13.94503 -1.911071,-0.72272 -4.004568,-3.31097 -4.652211,-5.75167 l -1.177531,-4.43763 -7.146835,4.15562 -7.146835,4.15563 -6.049725,-3.12384 c -16.058952,-8.29219 -11.980485,-36.97066 8.281554,-58.23324 4.268793,-4.47959 8.466858,-11.39655 9.329035,-15.37102 0.862173,-3.97447 4.864217,-11.22814 8.893431,-16.11926 C 75.339824,89.731887 81.587505,75.727704 79.5985,71.075712 76.698085,64.292068 73.088601,43.374081 73.800174,37.472771 c 0.816713,-6.773253 6.535696,-8.249033 8.509445,-2.195859 6.527931,20.020115 8.83296,19.52936 7.839247,-1.669018 l -0.708407,-15.112076 6.460259,2.403137 c 6.465732,2.40517 16.258332,14.352423 18.534342,22.612429 l 1.21012,4.391719 9.93064,0.425388 c 12.76016,0.546593 28.07271,4.765557 31.32854,8.631743 1.39882,1.661051 4.72328,3.020095 7.38768,3.020095 5.62162,0 12.56528,4.686976 22.2618,15.026724 3.78648,4.037668 9.65577,8.763785 13.04286,10.502482 3.38708,1.738694 10.81724,10.292789 16.51146,19.009095 5.69422,8.71631 12.1971,18.52447 14.45085,21.79593 2.25375,3.27145 5.52524,14.63502 7.26997,25.25238 1.74473,10.61736 4.2055,23.25683 5.46835,28.08772 1.26287,4.83089 1.75598,10.91471 1.0958,13.5196 -0.66015,2.60489 -0.21836,6.55743 0.98175,8.78344 2.09704,3.88959 1.3157,9.02601 -6.45335,42.42203 -1.25755,5.40572 -3.48305,10.55966 -4.94554,11.4532 -2.3435,1.43183 -17.81248,1.67096 -23.01947,0.35584 z m 3.17845,-13.6571 c 0.55768,-1.64933 -0.26083,-3.77526 -1.81892,-4.72424 -3.3855,-2.06204 -36.13501,-0.45206 -43.00928,2.11435 l -4.83437,1.80484 10.02668,1.35226 c 10.6716,1.43923 24.39626,2.45156 33.23689,2.45156 2.96176,0 5.84131,-1.34944 6.399,-2.99877 z m -68.64444,-8.93798 c 17.34672,-3.11793 63.23803,-1.77156 71.75836,2.10523 7.35472,3.34643 13.42004,1.50632 11.47763,-3.48213 -0.77066,-1.97919 -0.20878,-4.32485 1.24881,-5.21257 1.59201,-0.96967 3.06702,-9.53164 3.69452,-21.44553 l 1.04453,-19.83146 -3.54051,-2.89578 -3.54053,-2.89578 1.42002,-12.21773 1.42003,-12.21773 -6.65696,-14.42005 c -3.66132,-7.93102 -8.12632,-15.62184 -9.92222,-17.09071 -1.79591,-1.46887 -4.58326,-5.84935 -6.19412,-9.73441 -3.85218,-9.29065 -28.19936,-32.178055 -35.93623,-33.781619 -3.34259,-0.692793 -7.22537,-2.622745 -8.62839,-4.288781 -1.40302,-1.666036 -4.68417,-2.989592 -7.29146,-2.941237 l -4.74051,0.08792 6.12741,3.276002 c 3.37008,1.801801 6.12742,4.583705 6.12742,6.182007 0,1.598303 3.25867,3.8215 7.24149,4.94044 l 7.24149,2.034435 0.75355,6.517693 0.75355,6.51769 -4.53456,-5.142301 c -4.51306,-5.117911 -9.22737,-4.8421 -9.22737,0.539844 0,1.553127 1.75467,4.383157 3.89926,6.288957 l 3.89926,3.46508 5.44236,-2.87932 5.44235,-2.87933 4.58432,2.49939 c 9.04475,4.93123 12.38286,8.75787 12.38286,14.19508 0,6.25401 5.7372,13.5567 10.65053,13.5567 h 3.27541 l -1.31961,6.50244 c -0.72579,3.57633 -0.34266,7.09747 0.8514,7.82475 1.19406,0.72727 3.6284,4.09975 5.40965,7.49439 l 3.23865,6.17208 -2.56052,6.68527 -2.56052,6.68527 3.75924,8.41303 c 3.71097,8.30501 3.98768,26.76743 0.55397,36.95921 l -1.47962,4.39172 -42.77451,0.60349 -42.77451,0.60346 -16.5704,5.01908 c -9.11372,2.76048 -16.88784,5.95756 -17.27583,7.10466 -0.80524,2.38071 21.57637,0.69106 43.83031,-3.30885 z M 70.707847,177.22387 c 4.47844,-1.69363 4.61925,-7.45057 0.182234,-7.45057 -1.838225,0 -3.342226,0.41325 -3.342226,0.91833 0,0.50509 -0.608608,2.48136 -1.352463,4.39172 -1.481869,3.80572 -0.776092,4.14052 4.512455,2.14052 z m -22.348635,-8.69991 c 0.857034,-2.20103 2.859472,-2.97039 5.544897,-2.13042 4.33499,1.35593 8.17719,-3.88102 5.720948,-7.7977 -3.621575,-5.77491 -18.815008,2.36447 -18.815008,10.07953 0,4.35788 5.838942,4.24077 7.549163,-0.15141 z M 162.86176,156.72192 c 4.50609,-4.05603 7.18102,-8.5548 7.18102,-12.07722 0,-8.64928 -5.2722,-6.52077 -14.48298,5.8471 -1.22548,1.64552 -4.13822,5.17483 -6.47275,7.84289 l -4.2446,4.85103 h 5.41915 c 2.98053,0 8.6506,-2.90871 12.60016,-6.4638 z m -49.6688,-2.77507 c 5.53226,-1.45821 10.05866,-3.43449 10.05866,-4.39172 0,-0.95723 -0.84173,-1.74043 -1.8705,-1.74043 -3.42607,0 -7.08342,-11.15044 -5.58595,-17.03035 l 1.47696,-5.79939 -7.59397,4.7456 c -4.17669,2.61009 -7.62047,6.01754 -7.65286,7.57212 -0.0883,4.23678 -3.33565,8.54349 -5.464376,7.24693 -3.519246,-2.14349 -8.496121,1.35746 -9.533673,6.7064 l -1.036228,5.34213 h 8.571644 c 4.714403,0 13.098043,-1.19308 18.630293,-2.65129 z m -23.3636,-28.16609 3.342226,-2.20397 -4.32513,-3.25206 c -2.37882,-1.78863 -5.63749,-3.25206 -7.241489,-3.25206 -4.073795,0 -3.656816,-5.83769 0.530079,-7.42107 2.154769,-0.81488 6.357976,1.56599 11.215024,6.35265 4.272721,4.2108 8.73783,7.656 9.92246,7.656 4.59265,0 1.83449,-8.6579 -4.407019,-13.83367 -3.608497,-2.99235 -5.948055,-6.04459 -5.199017,-6.78278 0.749035,-0.73818 0.192104,-1.34214 -1.237624,-1.34214 -1.429731,0 -2.59951,0.85111 -2.59951,1.89135 0,1.04025 -2.256002,1.51584 -5.013339,1.05688 -2.757336,-0.45897 -7.520008,1.10773 -10.583715,3.48154 l -5.570376,4.31602 4.250133,7.80226 c 4.373942,8.02955 10.22664,9.94306 16.917297,5.53105 z m 23.99463,-40.310981 2.42843,-5.252579 -5.413,-5.011557 -5.41301,-5.011555 V 60.69549 c 0,-10.594161 -3.63801,-12.797069 -5.714024,-3.459985 -0.738444,3.321237 -1.686747,7.165923 -2.10734,8.543748 -1.263395,4.138769 4.500644,20.721251 7.950364,22.872286 4.71909,2.942533 5.59252,2.606437 8.26858,-3.18176 z"
       id="path5660"
       inkscape:connector-curvature="0" />
    <path
       style="fill:#010000;fill-opacity:1;stroke-width:2.21194601"
       d="m 210.14949,255.3106 c -9.19112,-0.94211 -27.74048,-2.27058 -41.22079,-2.9522 -13.48031,-0.68159 -37.795,-1.908 -54.03265,-2.72537 l -29.522991,-1.48609 v -7.41739 c 0,-12.03603 5.212544,-20.96617 19.866181,-34.03477 14.68957,-13.10065 32.57392,-37.31839 34.9561,-47.33512 0.79204,-3.33042 4.74346,-9.51379 8.78094,-13.74082 4.03747,-4.22703 9.09136,-13.02633 11.23085,-19.554 l 3.88998,-11.86849 -3.15458,-8.67385 c -4.11834,-11.323807 -7.47774,-10.932663 -8.1433,0.94815 -0.29283,5.22725 -1.08559,13.56779 -1.76169,18.53453 l -1.22927,9.03044 -11.60721,12.04164 c -13.11892,13.60991 -18.71215,17.10846 -27.35183,17.10846 -8.03487,0 -20.372258,7.76734 -24.336086,15.32145 -3.370479,6.42332 -15.573676,17.61644 -19.206174,17.61644 -1.16992,0 -2.59699,-1.48221 -3.171271,-3.29379 -0.574279,-1.81158 -1.541341,-4.84619 -2.149025,-6.74356 l -1.10488,-3.44976 -6.692118,4.69615 c -10.622307,7.45413 -21.2846,1.24071 -23.76979,-13.85177 l -1.28708,-7.81641 4.724546,-9.61817 c 2.598501,-5.28999 4.724546,-10.2932 4.724546,-11.11823 0,-0.82503 4.032286,-5.59484 8.960639,-10.59957 5.592139,-5.67881 9.859236,-12.61645 11.351025,-18.45503 1.314714,-5.14553 5.276965,-12.08095 8.805005,-15.41204 3.52804,-3.331094 7.973697,-10.682453 9.879238,-16.336361 L 81.042428,73.845242 77.637366,60.96179 c -7.532706,-28.500899 -2.181451,-39.85253 7.44991,-15.803511 1.330117,3.321237 3.587985,6.038613 5.017479,6.038613 h 2.599084 L 91.386851,35.715515 90.06986,20.234139 l 4.89309,1.397535 c 5.98998,1.710823 14.06693,10.663276 18.25417,20.232816 l 3.12266,7.136542 h 8.12633 c 10.01878,0 32.20777,6.158545 32.20777,8.939252 0,1.122024 2.41663,2.040045 5.37029,2.040045 10.40502,0 61.47422,46.681351 61.47422,56.192381 0,0.96901 2.5109,5.33255 5.57976,9.69675 l 5.57976,7.93491 2.33347,18.34003 c 1.28341,10.08702 3.40526,20.31369 4.71523,22.72594 1.31067,2.4135 1.82355,9.03117 1.14044,14.71528 -0.72729,6.05194 -0.25989,11.29662 1.12874,12.66511 l 2.37008,2.33574 -2.62799,14.98234 c -4.28681,24.43918 -7.24446,33.70037 -11.4752,35.93178 -2.19727,1.15889 -4.31161,1.97564 -4.69855,1.81499 -0.38694,-0.16063 -8.22352,-1.06289 -17.41464,-2.00498 z m 4.98746,-15.01087 -0.58291,-5.23073 2.92701,2.39401 c 1.60985,1.31668 5.21166,1.80519 8.00402,1.08557 l 5.07704,-1.30845 -1.16136,-4.37661 c -0.63872,-2.40712 0.15263,-5.67153 1.75859,-7.25422 1.88631,-1.85897 3.00339,-9.23154 3.15571,-20.82733 l 0.23578,-17.94974 -3.28808,-4.62634 c -3.76268,-5.29414 -4.40552,-14.62845 -1.00743,-14.62845 3.45668,0 1.00612,-13.1378 -4.28489,-22.97186 -2.57411,-4.78432 -4.68019,-9.91105 -4.68019,-11.39274 0,-1.48168 -3.008,-5.93958 -6.68445,-9.90644 -3.67645,-3.96686 -6.68445,-8.85127 -6.68445,-10.85425 0,-3.52884 -19.46758,-23.922048 -22.83855,-23.924457 -0.91911,-6.55e-4 -1.67111,-1.438622 -1.67111,-3.195481 0,-1.953407 -3.24587,-3.792712 -8.35556,-4.734762 -4.59556,-0.847261 -9.35823,-2.749793 -10.58372,-4.227848 -2.95938,-3.569317 -14.48298,-6.159963 -14.48298,-3.255952 0,1.230733 1.04825,2.237694 2.32944,2.237694 1.28118,0 4.77297,2.408136 7.75953,5.351413 2.98656,2.943279 8.19273,6.656315 11.56927,8.251192 3.37653,1.594876 6.51046,4.868527 6.96427,7.274778 l 0.82512,4.375003 -5.41947,-4.96077 c -2.98071,-2.728423 -6.09709,-4.292973 -6.92529,-3.476779 -2.72303,2.683567 -1.5725,11.139049 1.9024,13.981159 l 3.40821,2.78757 5.75377,-2.5836 c 3.65882,-1.64291 6.67706,-1.82844 8.28958,-0.50957 1.39469,1.14072 3.53848,2.24721 4.76396,2.45887 5.73237,0.99006 8.09388,4.23873 8.48642,11.67454 l 0.42618,8.0732 7.25598,3.4054 7.25597,3.4054 -1.40107,5.50141 -1.40107,5.50142 4.90001,5.14023 4.9,5.14023 -1.43127,9.56025 c -0.97194,6.49212 -0.32319,12.15342 2.02148,17.64051 3.67261,8.59481 3.32811,26.89316 -0.64401,34.20758 l -2.21621,4.08101 -18.5325,0.42224 c -40.02954,0.912 -68.04765,3.03077 -78.69258,5.9508 -6.12741,1.68082 -12.14342,3.1977 -13.3689,3.37082 -4.02975,0.56932 -10.026678,4.38989 -10.026678,6.38788 0,2.19808 17.764078,1.05951 41.220788,-2.64199 17.26645,-2.72469 19.34157,-2.79489 51.24746,-1.73376 l 22.2815,0.74104 -22.2815,1.92783 c -12.25483,1.06029 -24.53026,2.21865 -27.27873,2.57412 -10.06124,1.30124 -7.25866,3.25154 6.49309,4.51846 7.75565,0.71453 17.61052,1.6537 21.89971,2.08706 4.28919,0.43335 11.30787,0.67683 15.59706,0.54103 l 7.79852,-0.24688 z M 72.840659,177.49447 c 4.715094,-3.51873 3.455407,-9.91703 -1.952448,-9.91703 -3.50595,0 -8.12203,8.46102 -6.289469,11.52826 1.405236,2.352 3.472806,1.9478 8.241917,-1.61123 z m -23.874628,-6.74944 c 0.73242,-1.88099 2.690991,-2.90593 4.352382,-2.27763 2.851102,1.07821 7.54499,-4.70384 7.54499,-9.29411 0,-3.55958 -6.456023,-4.77943 -12.035529,-2.27408 -5.633869,2.52976 -11.15444,11.84484 -9.028708,15.23449 2.020578,3.22199 7.706994,2.36056 9.166865,-1.38867 z M 158.71598,161.0834 c 4.70197,-2.36401 9.17403,-5.9033 9.93791,-7.86511 2.05381,-5.27456 1.68533,-16.38288 -0.54344,-16.38288 -2.93801,0 -22.57733,22.28951 -22.57733,25.62399 0,4.00046 3.14131,3.67257 13.18286,-1.376 z m -40.73017,-7.58642 c 5.64423,-2.57715 7.25312,-10.074 2.16197,-10.074 -3.77501,0 -6.43355,-6.02189 -4.20754,-9.53056 2.32308,-3.66166 2.74338,-8.03631 0.7721,-8.03631 -0.92877,0 -4.85072,1.55458 -8.71545,3.45462 -6.72917,3.3083 -7.99204,5.30405 -7.1931,11.36743 0.2027,1.53828 -2.009914,2.74482 -5.033554,2.74482 -5.576542,0 -8.664665,2.61891 -11.140296,9.44761 l -1.434891,3.95797 14.779861,-0.47155 c 8.12892,-0.25934 17.13383,-1.54636 20.0109,-2.86003 z M 87.74769,127.97471 c 6.085073,-3.20944 5.379745,-5.93364 -2.806565,-10.83988 l -7.116385,-4.26502 3.916251,-1.48103 c 2.653039,-1.00331 5.021004,0.0734 7.341237,3.33796 2.923839,4.11387 12.762042,9.58422 16.344182,9.08788 3.00354,-0.41617 0.46544,-7.04189 -5.02292,-13.11237 -3.375343,-3.73335 -6.057479,-7.50809 -5.960299,-8.38832 0.09718,-0.88023 -0.901175,-1.95449 -2.218569,-2.387259 -1.317394,-0.432769 -2.395262,0.389349 -2.395262,1.826929 0,1.4875 -1.527326,2.03618 -3.544502,1.27334 -4.17474,-1.57878 -16.508853,6.43298 -16.508853,10.72352 0,4.84828 7.564366,16.46849 10.730196,16.48348 1.612419,0.008 4.871089,-1.00902 7.241489,-2.25923 z m 26.8848,-42.499857 2.42608,-5.247506 -4.37105,-4.307701 c -2.60035,-2.562667 -4.99575,-8.948704 -5.91316,-15.764252 -1.8184,-13.509164 -6.11667,-14.06503 -8.448964,-1.092651 -3.853381,21.43272 8.991024,42.236417 16.307094,26.41211 z"
       id="path5658"
       inkscape:connector-curvature="0" />
  </g>
</svg>
