<?xml version="1.0" encoding="UTF-8" standalone="no"?>
<svg
   xmlns:dc="http://purl.org/dc/elements/1.1/"
   xmlns:cc="http://creativecommons.org/ns#"
   xmlns:rdf="http://www.w3.org/1999/02/22-rdf-syntax-ns#"
   xmlns:svg="http://www.w3.org/2000/svg"
   xmlns="http://www.w3.org/2000/svg"
   xmlns:sodipodi="http://sodipodi.sourceforge.net/DTD/sodipodi-0.dtd"
   xmlns:inkscape="http://www.inkscape.org/namespaces/inkscape"
   version="1.0"
   width="300.000000pt"
   height="300.000000pt"
   viewBox="0 0 300.000000 300.000000"
   preserveAspectRatio="xMidYMid meet"
   id="svg2"
   inkscape:version="0.92.2 (5c3e80d, 2017-08-06)"
   sodipodi:docname="br.svg">
  <defs
     id="defs12">
    <filter
       style="color-interpolation-filters:sRGB;"
       inkscape:label="Drawing"
       id="filter1326">
      <feGaussianBlur
         in="SourceGraphic"
         stdDeviation="0.6"
         result="blur1"
         id="feGaussianBlur1272" />
      <feConvolveMatrix
         in="blur1"
         targetX="1"
         targetY="1"
         order="3 3"
         kernelMatrix="0 250 0 250 -1010 250 0 250 0 "
         result="convolve1"
         id="feConvolveMatrix1274" />
      <feComposite
         in="convolve1"
         in2="convolve1"
         k1="1"
         k2="1"
         k4="0"
         operator="arithmetic"
         result="composite1"
         id="feComposite1276" />
      <feColorMatrix
         in="composite1"
         values="0 0 0 0 0 0 0 0 0 0 0 0 0 0 0 -0.2125 -0.7154 -0.0721 1 0 "
         result="color1"
         id="feColorMatrix1278" />
      <feGaussianBlur
         stdDeviation="0.6"
         result="blur2"
         id="feGaussianBlur1280" />
      <feColorMatrix
         values="1 0 0 0 0 0 1 0 0 0 0 0 1 0 0 0 0 0 6 -2 "
         result="color2"
         id="feColorMatrix1282" />
      <feFlood
         flood-color="rgb(255,255,255)"
         result="flood1"
         id="feFlood1284" />
      <feBlend
         in2="color2"
         mode="multiply"
         result="blend1"
         id="feBlend1286" />
      <feComponentTransfer
         in="blend1"
         result="component1"
         id="feComponentTransfer1294">
        <feFuncR
           type="discrete"
           tableValues="0 1 1 1"
           id="feFuncR1288" />
        <feFuncG
           type="discrete"
           tableValues="0 1 1 1"
           id="feFuncG1290" />
        <feFuncB
           type="discrete"
           tableValues="0 1 1 1"
           id="feFuncB1292" />
      </feComponentTransfer>
      <feGaussianBlur
         stdDeviation="1"
         result="blur3"
         id="feGaussianBlur1296" />
      <feColorMatrix
         in="blur3"
         values="0 0 0 0 0 0 0 0 0 0 0 0 0 0 0 -0.2125 -0.7154 -0.0721 1 0 "
         result="color3"
         id="feColorMatrix1298" />
      <feColorMatrix
         values="1 0 0 0 0 0 1 0 0 0 0 0 1 0 0 0 0 0 6 -2 "
         result="color4"
         id="feColorMatrix1300" />
      <feFlood
         flood-color="rgb(0,0,0)"
         result="flood2"
         id="feFlood1302" />
      <feComposite
         in="flood2"
         in2="color4"
         operator="in"
         result="composite2"
         id="feComposite1304" />
      <feComposite
         in="composite2"
         in2="composite2"
         operator="arithmetic"
         k2="1"
         result="composite3"
         id="feComposite1306" />
      <feOffset
         dx="0"
         dy="0"
         result="offset1"
         id="feOffset1308" />
      <feFlood
         in="color4"
         flood-color="rgb(165,165,165)"
         result="flood3"
         id="feFlood1310" />
      <feComposite
         in="flood3"
         in2="color4"
         operator="out"
         result="composite4"
         id="feComposite1312" />
      <feComposite
         in="composite4"
         in2="composite4"
         operator="arithmetic"
         k2="1"
         result="composite5"
         id="feComposite1314" />
      <feMerge
         result="merge1"
         id="feMerge1320">
        <feMergeNode
           in="composite5"
           id="feMergeNode1316" />
        <feMergeNode
           in="offset1"
           id="feMergeNode1318" />
      </feMerge>
      <feColorMatrix
         values="1 0 0 0 0 0 1 0 0 0 0 0 1 0 0 0 0 0 1.3 0 "
         result="color5"
         flood-opacity="0.56"
         id="feColorMatrix1322" />
      <feComposite
         in="color5"
         in2="SourceGraphic"
         operator="in"
         result="composite8"
         id="feComposite1324" />
    </filter>
    <filter
       style="color-interpolation-filters:sRGB;"
       inkscape:label="Drawing"
       id="filter1390">
      <feGaussianBlur
         in="SourceGraphic"
         stdDeviation="0.6"
         result="blur1"
         id="feGaussianBlur1336" />
      <feConvolveMatrix
         in="blur1"
         targetX="1"
         targetY="1"
         order="3 3"
         kernelMatrix="0 250 0 250 -1010 250 0 250 0 "
         result="convolve1"
         id="feConvolveMatrix1338" />
      <feComposite
         in="convolve1"
         in2="convolve1"
         k1="1"
         k2="1"
         k4="0"
         operator="arithmetic"
         result="composite1"
         id="feComposite1340" />
      <feColorMatrix
         in="composite1"
         values="0 0 0 0 0 0 0 0 0 0 0 0 0 0 0 -0.2125 -0.7154 -0.0721 1 0 "
         result="color1"
         id="feColorMatrix1342" />
      <feGaussianBlur
         stdDeviation="0.6"
         result="blur2"
         id="feGaussianBlur1344" />
      <feColorMatrix
         values="1 0 0 0 0 0 1 0 0 0 0 0 1 0 0 0 0 0 6 -2 "
         result="color2"
         id="feColorMatrix1346" />
      <feFlood
         flood-color="rgb(255,255,255)"
         result="flood1"
         id="feFlood1348" />
      <feBlend
         in2="color2"
         mode="multiply"
         result="blend1"
         id="feBlend1350" />
      <feComponentTransfer
         in="blend1"
         result="component1"
         id="feComponentTransfer1358">
        <feFuncR
           type="discrete"
           tableValues="0 1 1 1"
           id="feFuncR1352" />
        <feFuncG
           type="discrete"
           tableValues="0 1 1 1"
           id="feFuncG1354" />
        <feFuncB
           type="discrete"
           tableValues="0 1 1 1"
           id="feFuncB1356" />
      </feComponentTransfer>
      <feGaussianBlur
         stdDeviation="1"
         result="blur3"
         id="feGaussianBlur1360" />
      <feColorMatrix
         in="blur3"
         values="0 0 0 0 0 0 0 0 0 0 0 0 0 0 0 -0.2125 -0.7154 -0.0721 1 0 "
         result="color3"
         id="feColorMatrix1362" />
      <feColorMatrix
         values="1 0 0 0 0 0 1 0 0 0 0 0 1 0 0 0 0 0 6 -2 "
         result="color4"
         id="feColorMatrix1364" />
      <feFlood
         flood-color="rgb(0,0,0)"
         result="flood2"
         id="feFlood1366" />
      <feComposite
         in="flood2"
         in2="color4"
         operator="in"
         result="composite2"
         id="feComposite1368" />
      <feComposite
         in="composite2"
         in2="composite2"
         operator="arithmetic"
         k2="1"
         result="composite3"
         id="feComposite1370" />
      <feOffset
         dx="0"
         dy="0"
         result="offset1"
         id="feOffset1372" />
      <feFlood
         in="color4"
         flood-color="rgb(165,165,165)"
         result="flood3"
         id="feFlood1374" />
      <feComposite
         in="flood3"
         in2="color4"
         operator="out"
         result="composite4"
         id="feComposite1376" />
      <feComposite
         in="composite4"
         in2="composite4"
         operator="arithmetic"
         k2="1"
         result="composite5"
         id="feComposite1378" />
      <feMerge
         result="merge1"
         id="feMerge1384">
        <feMergeNode
           in="composite5"
           id="feMergeNode1380" />
        <feMergeNode
           in="offset1"
           id="feMergeNode1382" />
      </feMerge>
      <feColorMatrix
         values="1 0 0 0 0 0 1 0 0 0 0 0 1 0 0 0 0 0 1.3 0 "
         result="color5"
         flood-opacity="0.56"
         id="feColorMatrix1386" />
      <feComposite
         in="color5"
         in2="SourceGraphic"
         operator="in"
         result="composite8"
         id="feComposite1388" />
    </filter>
    <filter
       style="color-interpolation-filters:sRGB;"
       inkscape:label="Drawing"
       id="filter1458">
      <feGaussianBlur
         in="SourceGraphic"
         stdDeviation="0.6"
         result="blur1"
         id="feGaussianBlur1404" />
      <feConvolveMatrix
         in="blur1"
         targetX="1"
         targetY="1"
         order="3 3"
         kernelMatrix="0 250 0 250 -1010 250 0 250 0 "
         result="convolve1"
         id="feConvolveMatrix1406" />
      <feComposite
         in="convolve1"
         in2="convolve1"
         k1="1"
         k2="1"
         k4="0"
         operator="arithmetic"
         result="composite1"
         id="feComposite1408" />
      <feColorMatrix
         in="composite1"
         values="0 0 0 0 0 0 0 0 0 0 0 0 0 0 0 -0.2125 -0.7154 -0.0721 1 0 "
         result="color1"
         id="feColorMatrix1410" />
      <feGaussianBlur
         stdDeviation="0.6"
         result="blur2"
         id="feGaussianBlur1412" />
      <feColorMatrix
         values="1 0 0 0 0 0 1 0 0 0 0 0 1 0 0 0 0 0 6 -2 "
         result="color2"
         id="feColorMatrix1414" />
      <feFlood
         flood-color="rgb(255,255,255)"
         result="flood1"
         id="feFlood1416" />
      <feBlend
         in2="color2"
         mode="multiply"
         result="blend1"
         id="feBlend1418" />
      <feComponentTransfer
         in="blend1"
         result="component1"
         id="feComponentTransfer1426">
        <feFuncR
           type="discrete"
           tableValues="0 1 1 1"
           id="feFuncR1420" />
        <feFuncG
           type="discrete"
           tableValues="0 1 1 1"
           id="feFuncG1422" />
        <feFuncB
           type="discrete"
           tableValues="0 1 1 1"
           id="feFuncB1424" />
      </feComponentTransfer>
      <feGaussianBlur
         stdDeviation="1"
         result="blur3"
         id="feGaussianBlur1428" />
      <feColorMatrix
         in="blur3"
         values="0 0 0 0 0 0 0 0 0 0 0 0 0 0 0 -0.2125 -0.7154 -0.0721 1 0 "
         result="color3"
         id="feColorMatrix1430" />
      <feColorMatrix
         values="1 0 0 0 0 0 1 0 0 0 0 0 1 0 0 0 0 0 6 -2 "
         result="color4"
         id="feColorMatrix1432" />
      <feFlood
         flood-color="rgb(0,0,0)"
         result="flood2"
         id="feFlood1434" />
      <feComposite
         in="flood2"
         in2="color4"
         operator="in"
         result="composite2"
         id="feComposite1436" />
      <feComposite
         in="composite2"
         in2="composite2"
         operator="arithmetic"
         k2="1"
         result="composite3"
         id="feComposite1438" />
      <feOffset
         dx="0"
         dy="0"
         result="offset1"
         id="feOffset1440" />
      <feFlood
         in="color4"
         flood-color="rgb(165,165,165)"
         result="flood3"
         id="feFlood1442" />
      <feComposite
         in="flood3"
         in2="color4"
         operator="out"
         result="composite4"
         id="feComposite1444" />
      <feComposite
         in="composite4"
         in2="composite4"
         operator="arithmetic"
         k2="1"
         result="composite5"
         id="feComposite1446" />
      <feMerge
         result="merge1"
         id="feMerge1452">
        <feMergeNode
           in="composite5"
           id="feMergeNode1448" />
        <feMergeNode
           in="offset1"
           id="feMergeNode1450" />
      </feMerge>
      <feColorMatrix
         values="1 0 0 0 0 0 1 0 0 0 0 0 1 0 0 0 0 0 1.3 0 "
         result="color5"
         flood-opacity="0.56"
         id="feColorMatrix1454" />
      <feComposite
         in="color5"
         in2="SourceGraphic"
         operator="in"
         result="composite8"
         id="feComposite1456" />
    </filter>
    <filter
       style="color-interpolation-filters:sRGB;"
       inkscape:label="Drawing"
       id="filter1535">
      <feGaussianBlur
         in="SourceGraphic"
         stdDeviation="0.6"
         result="blur1"
         id="feGaussianBlur1481" />
      <feConvolveMatrix
         in="blur1"
         targetX="1"
         targetY="1"
         order="3 3"
         kernelMatrix="0 250 0 250 -1010 250 0 250 0 "
         result="convolve1"
         id="feConvolveMatrix1483" />
      <feComposite
         in="convolve1"
         in2="convolve1"
         k1="1"
         k2="1"
         k4="0"
         operator="arithmetic"
         result="composite1"
         id="feComposite1485" />
      <feColorMatrix
         in="composite1"
         values="0 0 0 0 0 0 0 0 0 0 0 0 0 0 0 -0.2125 -0.7154 -0.0721 1 0 "
         result="color1"
         id="feColorMatrix1487" />
      <feGaussianBlur
         stdDeviation="0.6"
         result="blur2"
         id="feGaussianBlur1489" />
      <feColorMatrix
         values="1 0 0 0 0 0 1 0 0 0 0 0 1 0 0 0 0 0 6 -2 "
         result="color2"
         id="feColorMatrix1491" />
      <feFlood
         flood-color="rgb(255,255,255)"
         result="flood1"
         id="feFlood1493" />
      <feBlend
         in2="color2"
         mode="multiply"
         result="blend1"
         id="feBlend1495" />
      <feComponentTransfer
         in="blend1"
         result="component1"
         id="feComponentTransfer1503">
        <feFuncR
           type="discrete"
           tableValues="0 1 1 1"
           id="feFuncR1497" />
        <feFuncG
           type="discrete"
           tableValues="0 1 1 1"
           id="feFuncG1499" />
        <feFuncB
           type="discrete"
           tableValues="0 1 1 1"
           id="feFuncB1501" />
      </feComponentTransfer>
      <feGaussianBlur
         stdDeviation="1"
         result="blur3"
         id="feGaussianBlur1505" />
      <feColorMatrix
         in="blur3"
         values="0 0 0 0 0 0 0 0 0 0 0 0 0 0 0 -0.2125 -0.7154 -0.0721 1 0 "
         result="color3"
         id="feColorMatrix1507" />
      <feColorMatrix
         values="1 0 0 0 0 0 1 0 0 0 0 0 1 0 0 0 0 0 6 -2 "
         result="color4"
         id="feColorMatrix1509" />
      <feFlood
         flood-color="rgb(0,0,0)"
         result="flood2"
         id="feFlood1511" />
      <feComposite
         in="flood2"
         in2="color4"
         operator="in"
         result="composite2"
         id="feComposite1513" />
      <feComposite
         in="composite2"
         in2="composite2"
         operator="arithmetic"
         k2="1"
         result="composite3"
         id="feComposite1515" />
      <feOffset
         dx="0"
         dy="0"
         result="offset1"
         id="feOffset1517" />
      <feFlood
         in="color4"
         flood-color="rgb(165,165,165)"
         result="flood3"
         id="feFlood1519" />
      <feComposite
         in="flood3"
         in2="color4"
         operator="out"
         result="composite4"
         id="feComposite1521" />
      <feComposite
         in="composite4"
         in2="composite4"
         operator="arithmetic"
         k2="1"
         result="composite5"
         id="feComposite1523" />
      <feMerge
         result="merge1"
         id="feMerge1529">
        <feMergeNode
           in="composite5"
           id="feMergeNode1525" />
        <feMergeNode
           in="offset1"
           id="feMergeNode1527" />
      </feMerge>
      <feColorMatrix
         values="1 0 0 0 0 0 1 0 0 0 0 0 1 0 0 0 0 0 1.3 0 "
         result="color5"
         flood-opacity="0.56"
         id="feColorMatrix1531" />
      <feComposite
         in="color5"
         in2="SourceGraphic"
         operator="in"
         result="composite8"
         id="feComposite1533" />
    </filter>
    <filter
       style="color-interpolation-filters:sRGB;"
       inkscape:label="Drawing"
       id="filter5418">
      <feGaussianBlur
         in="SourceGraphic"
         stdDeviation="0.6"
         result="blur1"
         id="feGaussianBlur5364" />
      <feConvolveMatrix
         in="blur1"
         targetX="1"
         targetY="1"
         order="3 3"
         kernelMatrix="0 250 0 250 -1010 250 0 250 0 "
         result="convolve1"
         id="feConvolveMatrix5366" />
      <feComposite
         in="convolve1"
         in2="convolve1"
         k1="1"
         k2="1"
         k4="0"
         operator="arithmetic"
         result="composite1"
         id="feComposite5368" />
      <feColorMatrix
         in="composite1"
         values="0 0 0 0 0 0 0 0 0 0 0 0 0 0 0 -0.2125 -0.7154 -0.0721 1 0 "
         result="color1"
         id="feColorMatrix5370" />
      <feGaussianBlur
         stdDeviation="0.6"
         result="blur2"
         id="feGaussianBlur5372" />
      <feColorMatrix
         values="1 0 0 0 0 0 1 0 0 0 0 0 1 0 0 0 0 0 6 -2 "
         result="color2"
         id="feColorMatrix5374" />
      <feFlood
         flood-color="rgb(255,255,255)"
         result="flood1"
         id="feFlood5376" />
      <feBlend
         in2="color2"
         mode="multiply"
         result="blend1"
         id="feBlend5378" />
      <feComponentTransfer
         in="blend1"
         result="component1"
         id="feComponentTransfer5386">
        <feFuncR
           type="discrete"
           tableValues="0 1 1 1"
           id="feFuncR5380" />
        <feFuncG
           type="discrete"
           tableValues="0 1 1 1"
           id="feFuncG5382" />
        <feFuncB
           type="discrete"
           tableValues="0 1 1 1"
           id="feFuncB5384" />
      </feComponentTransfer>
      <feGaussianBlur
         stdDeviation="1"
         result="blur3"
         id="feGaussianBlur5388" />
      <feColorMatrix
         in="blur3"
         values="0 0 0 0 0 0 0 0 0 0 0 0 0 0 0 -0.2125 -0.7154 -0.0721 1 0 "
         result="color3"
         id="feColorMatrix5390" />
      <feColorMatrix
         values="1 0 0 0 0 0 1 0 0 0 0 0 1 0 0 0 0 0 6 -2 "
         result="color4"
         id="feColorMatrix5392" />
      <feFlood
         flood-color="rgb(0,0,0)"
         result="flood2"
         id="feFlood5394" />
      <feComposite
         in="flood2"
         in2="color4"
         operator="in"
         result="composite2"
         id="feComposite5396" />
      <feComposite
         in="composite2"
         in2="composite2"
         operator="arithmetic"
         k2="1"
         result="composite3"
         id="feComposite5398" />
      <feOffset
         dx="0"
         dy="0"
         result="offset1"
         id="feOffset5400" />
      <feFlood
         in="color4"
         flood-color="rgb(165,165,165)"
         result="flood3"
         id="feFlood5402" />
      <feComposite
         in="flood3"
         in2="color4"
         operator="out"
         result="composite4"
         id="feComposite5404" />
      <feComposite
         in="composite4"
         in2="composite4"
         operator="arithmetic"
         k2="1"
         result="composite5"
         id="feComposite5406" />
      <feMerge
         result="merge1"
         id="feMerge5412">
        <feMergeNode
           in="composite5"
           id="feMergeNode5408" />
        <feMergeNode
           in="offset1"
           id="feMergeNode5410" />
      </feMerge>
      <feColorMatrix
         values="1 0 0 0 0 0 1 0 0 0 0 0 1 0 0 0 0 0 1.3 0 "
         result="color5"
         flood-opacity="0.56"
         id="feColorMatrix5414" />
      <feComposite
         in="color5"
         in2="SourceGraphic"
         operator="in"
         result="composite8"
         id="feComposite5416" />
    </filter>
    <filter
       style="color-interpolation-filters:sRGB;"
       inkscape:label="Drawing"
       id="filter5515">
      <feGaussianBlur
         in="SourceGraphic"
         stdDeviation="0.6"
         result="blur1"
         id="feGaussianBlur5461" />
      <feConvolveMatrix
         in="blur1"
         targetX="1"
         targetY="1"
         order="3 3"
         kernelMatrix="0 250 0 250 -1010 250 0 250 0 "
         result="convolve1"
         id="feConvolveMatrix5463" />
      <feComposite
         in="convolve1"
         in2="convolve1"
         k1="1"
         k2="1"
         k4="0"
         operator="arithmetic"
         result="composite1"
         id="feComposite5465" />
      <feColorMatrix
         in="composite1"
         values="0 0 0 0 0 0 0 0 0 0 0 0 0 0 0 -0.2125 -0.7154 -0.0721 1 0 "
         result="color1"
         id="feColorMatrix5467" />
      <feGaussianBlur
         stdDeviation="0.6"
         result="blur2"
         id="feGaussianBlur5469" />
      <feColorMatrix
         values="1 0 0 0 0 0 1 0 0 0 0 0 1 0 0 0 0 0 6 -2 "
         result="color2"
         id="feColorMatrix5471" />
      <feFlood
         flood-color="rgb(255,255,255)"
         result="flood1"
         id="feFlood5473" />
      <feBlend
         in2="color2"
         mode="multiply"
         result="blend1"
         id="feBlend5475" />
      <feComponentTransfer
         in="blend1"
         result="component1"
         id="feComponentTransfer5483">
        <feFuncR
           type="discrete"
           tableValues="0 1 1 1"
           id="feFuncR5477" />
        <feFuncG
           type="discrete"
           tableValues="0 1 1 1"
           id="feFuncG5479" />
        <feFuncB
           type="discrete"
           tableValues="0 1 1 1"
           id="feFuncB5481" />
      </feComponentTransfer>
      <feGaussianBlur
         stdDeviation="1"
         result="blur3"
         id="feGaussianBlur5485" />
      <feColorMatrix
         in="blur3"
         values="0 0 0 0 0 0 0 0 0 0 0 0 0 0 0 -0.2125 -0.7154 -0.0721 1 0 "
         result="color3"
         id="feColorMatrix5487" />
      <feColorMatrix
         values="1 0 0 0 0 0 1 0 0 0 0 0 1 0 0 0 0 0 6 -2 "
         result="color4"
         id="feColorMatrix5489" />
      <feFlood
         flood-color="rgb(0,0,0)"
         result="flood2"
         id="feFlood5491" />
      <feComposite
         in="flood2"
         in2="color4"
         operator="in"
         result="composite2"
         id="feComposite5493" />
      <feComposite
         in="composite2"
         in2="composite2"
         operator="arithmetic"
         k2="1"
         result="composite3"
         id="feComposite5495" />
      <feOffset
         dx="0"
         dy="0"
         result="offset1"
         id="feOffset5497" />
      <feFlood
         in="color4"
         flood-color="rgb(165,165,165)"
         result="flood3"
         id="feFlood5499" />
      <feComposite
         in="flood3"
         in2="color4"
         operator="out"
         result="composite4"
         id="feComposite5501" />
      <feComposite
         in="composite4"
         in2="composite4"
         operator="arithmetic"
         k2="1"
         result="composite5"
         id="feComposite5503" />
      <feMerge
         result="merge1"
         id="feMerge5509">
        <feMergeNode
           in="composite5"
           id="feMergeNode5505" />
        <feMergeNode
           in="offset1"
           id="feMergeNode5507" />
      </feMerge>
      <feColorMatrix
         values="1 0 0 0 0 0 1 0 0 0 0 0 1 0 0 0 0 0 1.3 0 "
         result="color5"
         flood-opacity="0.56"
         id="feColorMatrix5511" />
      <feComposite
         in="color5"
         in2="SourceGraphic"
         operator="in"
         result="composite8"
         id="feComposite5513" />
    </filter>
    <filter
       style="color-interpolation-filters:sRGB;"
       inkscape:label="Drawing"
       id="filter5612">
      <feGaussianBlur
         in="SourceGraphic"
         stdDeviation="0.6"
         result="blur1"
         id="feGaussianBlur5558" />
      <feConvolveMatrix
         in="blur1"
         targetX="1"
         targetY="1"
         order="3 3"
         kernelMatrix="0 250 0 250 -1010 250 0 250 0 "
         result="convolve1"
         id="feConvolveMatrix5560" />
      <feComposite
         in="convolve1"
         in2="convolve1"
         k1="1"
         k2="1"
         k4="0"
         operator="arithmetic"
         result="composite1"
         id="feComposite5562" />
      <feColorMatrix
         in="composite1"
         values="0 0 0 0 0 0 0 0 0 0 0 0 0 0 0 -0.2125 -0.7154 -0.0721 1 0 "
         result="color1"
         id="feColorMatrix5564" />
      <feGaussianBlur
         stdDeviation="0.6"
         result="blur2"
         id="feGaussianBlur5566" />
      <feColorMatrix
         values="1 0 0 0 0 0 1 0 0 0 0 0 1 0 0 0 0 0 6 -2 "
         result="color2"
         id="feColorMatrix5568" />
      <feFlood
         flood-color="rgb(255,255,255)"
         result="flood1"
         id="feFlood5570" />
      <feBlend
         in2="color2"
         mode="multiply"
         result="blend1"
         id="feBlend5572" />
      <feComponentTransfer
         in="blend1"
         result="component1"
         id="feComponentTransfer5580">
        <feFuncR
           type="discrete"
           tableValues="0 1 1 1"
           id="feFuncR5574" />
        <feFuncG
           type="discrete"
           tableValues="0 1 1 1"
           id="feFuncG5576" />
        <feFuncB
           type="discrete"
           tableValues="0 1 1 1"
           id="feFuncB5578" />
      </feComponentTransfer>
      <feGaussianBlur
         stdDeviation="1"
         result="blur3"
         id="feGaussianBlur5582" />
      <feColorMatrix
         in="blur3"
         values="0 0 0 0 0 0 0 0 0 0 0 0 0 0 0 -0.2125 -0.7154 -0.0721 1 0 "
         result="color3"
         id="feColorMatrix5584" />
      <feColorMatrix
         values="1 0 0 0 0 0 1 0 0 0 0 0 1 0 0 0 0 0 6 -2 "
         result="color4"
         id="feColorMatrix5586" />
      <feFlood
         flood-color="rgb(0,0,0)"
         result="flood2"
         id="feFlood5588" />
      <feComposite
         in="flood2"
         in2="color4"
         operator="in"
         result="composite2"
         id="feComposite5590" />
      <feComposite
         in="composite2"
         in2="composite2"
         operator="arithmetic"
         k2="1"
         result="composite3"
         id="feComposite5592" />
      <feOffset
         dx="0"
         dy="0"
         result="offset1"
         id="feOffset5594" />
      <feFlood
         in="color4"
         flood-color="rgb(165,165,165)"
         result="flood3"
         id="feFlood5596" />
      <feComposite
         in="flood3"
         in2="color4"
         operator="out"
         result="composite4"
         id="feComposite5598" />
      <feComposite
         in="composite4"
         in2="composite4"
         operator="arithmetic"
         k2="1"
         result="composite5"
         id="feComposite5600" />
      <feMerge
         result="merge1"
         id="feMerge5606">
        <feMergeNode
           in="composite5"
           id="feMergeNode5602" />
        <feMergeNode
           in="offset1"
           id="feMergeNode5604" />
      </feMerge>
      <feColorMatrix
         values="1 0 0 0 0 0 1 0 0 0 0 0 1 0 0 0 0 0 1.3 0 "
         result="color5"
         flood-opacity="0.56"
         id="feColorMatrix5608" />
      <feComposite
         in="color5"
         in2="SourceGraphic"
         operator="in"
         result="composite8"
         id="feComposite5610" />
    </filter>
  </defs>
  <sodipodi:namedview
     pagecolor="#ffffff"
     bordercolor="#666666"
     borderopacity="1"
     objecttolerance="10"
     gridtolerance="10"
     guidetolerance="10"
     inkscape:pageopacity="0"
     inkscape:pageshadow="2"
     inkscape:window-width="1181"
     inkscape:window-height="949"
     id="namedview10"
     showgrid="false"
     inkscape:zoom="1.0450736"
     inkscape:cx="232.49275"
     inkscape:cy="279.21505"
     inkscape:window-x="28"
     inkscape:window-y="25"
     inkscape:window-maximized="0"
     inkscape:current-layer="svg2"
     inkscape:pagecheckerboard="true"
     showguides="false" />
  <metadata
     id="metadata4">
Created by potrace 1.12, written by Peter Selinger 2001-2015
<rdf:RDF>
  <cc:Work
     rdf:about="">
    <dc:format>image/svg+xml</dc:format>
    <dc:type
       rdf:resource="http://purl.org/dc/dcmitype/StillImage" />
    <dc:title />
  </cc:Work>
</rdf:RDF>
</metadata>
  <path
     style="fill:#ffffff;fill-opacity:1;stroke-width:2.2729063"
     d="m 128.00619,24.961837 c -22.93931,2.718522 -46.170814,2.129367 -69.181176,4.185538 -8.930863,3.89365 -6.651551,15.057835 -8.062112,22.724332 -1.066816,11.245581 -7.623068,23.222894 -2.932407,34.366726 4.789284,8.109457 14.202842,12.877933 16.923244,22.269217 2.739333,2.85314 5.189474,6.63993 2.592825,10.31479 -1.883796,11.93029 0.901652,24.04711 -0.438022,35.8174 -0.217221,11.29446 3.168886,25.00334 -6.401592,33.6196 -9.089491,10.11605 -17.636834,21.32767 -20.510853,34.89339 -4.626422,16.11689 -3.290757,34.71029 6.827627,48.55703 66.677226,2.62966 133.476686,2.88749 200.164566,2.53199 13.46439,-4.57439 17.59071,-20.81059 16.02635,-33.51214 0.49293,-15.80401 -2.73676,-33.01832 -14.63605,-44.3993 -5.69158,-8.68119 -15.80656,-15.51605 -17.42688,-26.21994 -0.32728,-21.02678 -1.05906,-42.04824 -1.04647,-63.07949 10.17053,-8.537974 20.54496,-20.176329 19.17046,-34.38166 0.96594,-12.59074 1.93364,-25.181348 2.89847,-37.77217 -20.33038,-12.560188 -45.24576,-7.140017 -67.7649,-8.464486 -17.29306,-0.660407 -34.47789,-0.891505 -51.75854,-1.460764 -1.48062,0.0165 -2.9652,-0.02964 -4.44454,0.01 z"
     id="path5528"
     inkscape:connector-curvature="0"
     sodipodi:nodetypes="ccccccccccccccccccccc" />
  <g
     id="g5548"
     style="filter:url(#filter5612)"
     transform="matrix(1.0125666,0,0,1.0142052,1.0158838,2.5953331)">
    <path
       style="fill:#e6e6e6;fill-opacity:1;stroke-width:2.22800517"
       d="m 72.674847,250.63809 -17.267114,-0.64607 -1.416145,-7.47567 c -0.778882,-4.11162 -0.619193,-9.80732 0.35486,-12.65714 0.974055,-2.84981 1.514807,-6.49125 1.201673,-8.09209 -0.751933,-3.84415 9.841571,-21.60533 15.064003,-25.25647 5.32785,-3.72485 12.141403,-16.85062 10.690639,-20.59468 -0.619939,-1.59991 -0.60133,-3.42966 0.04135,-4.06613 0.642684,-0.63646 1.128783,-12.75817 1.080222,-26.93712 l -0.0883,-25.77991 4.311361,-4.26965 4.31136,-4.26965 -4.190921,-2.22121 c -2.305004,-1.22167 -5.167011,-4.98606 -6.360013,-8.36532 -1.193,-3.379259 -5.888302,-10.964189 -10.434005,-16.855402 -5.487376,-7.111619 -7.575824,-11.582342 -6.214446,-13.303207 1.127755,-1.425552 2.206662,-7.531392 2.39757,-13.568533 0.348112,-11.008403 3.274523,-15.421105 8.874729,-13.382109 1.650339,0.600877 4.086239,0.428044 5.413109,-0.384073 1.326868,-0.812119 7.691684,-1.63264 14.14403,-1.823386 l 11.731541,-0.34681 -0.82834,4.259611 c -0.45559,2.342786 -1.86514,5.49679 -3.13234,7.008899 -3.108364,3.70913 -0.67054,5.667083 7.05602,5.667083 7.48653,0 9.92682,-4.325168 6.26419,-11.102649 -1.42596,-2.638654 -2.12111,-5.264532 -1.54478,-5.835288 0.57633,-0.570756 8.46598,-0.95692 17.53257,-0.858143 9.06658,0.09878 24.29795,0.255987 33.84748,0.349357 9.54954,0.09337 17.87057,0.983422 18.49119,1.97789 1.51002,2.41963 -5.12725,8.817229 -9.14755,8.817229 -1.75911,0 -3.19838,0.99774 -3.19838,2.217201 0,2.719761 11.15718,2.874766 15.39915,0.213938 1.69698,-1.064448 2.36586,-3.088358 1.48641,-4.497575 -3.34159,-5.354497 3.046,-8.293745 17.22541,-7.926273 7.71351,0.199903 16.13905,1.052776 18.72342,1.895272 l 4.69888,1.531814 -0.80803,13.814516 c -1.15501,19.746938 -1.96297,22.061805 -10.87057,31.144942 l -7.99546,8.153013 0.33305,24.950703 c 0.18319,13.72289 0.21782,31.45149 0.077,39.3969 l -0.25611,14.4462 6.74037,7.30836 c 3.70719,4.01959 6.74036,7.82716 6.74036,8.46126 0,0.6341 3.66741,5.5852 8.14979,11.00244 8.67969,10.48993 10.08401,15.06118 10.37106,33.75915 0.12201,7.94918 -0.86488,12.50377 -3.01282,13.90427 -2.85065,1.85866 -118.22335,2.02167 -165.987423,0.23451 z m 95.627273,-38.43527 c 1.23138,-0.0851 14.83246,0.5014 30.22464,1.30341 l 27.98577,1.45819 -2.50168,-2.49865 c -1.73389,-1.73179 -24.40891,-2.62291 -73.88243,-2.90354 l -71.38077,-0.40489 -4.477723,2.82319 -4.477724,2.82319 48.135527,-1.22305 c 26.47454,-0.67268 49.14302,-1.29271 50.37439,-1.37785 z m -6.97192,-15.34298 c 19.56155,0.11758 36.44598,0.7521 37.52097,1.41005 2.69118,1.64715 11.18624,-1.2237 9.86862,-3.33504 -1.4141,-2.26592 -99.24599,-3.14223 -110.216772,-0.98724 l -8.561059,1.68165 6.716586,1.27503 c 3.694125,0.70128 11.754025,0.93006 17.910895,0.50841 6.15687,-0.42165 27.19921,-0.67044 46.76076,-0.55286 z m -8.04358,-15.44434 6.06005,-1.80923 -18.23107,-0.19057 -18.23108,-0.19058 -1.35896,-3.50714 c -2.60914,-6.73351 -1.39184,-13.92175 2.55904,-15.11129 4.89907,-1.47504 42.68259,-2.498 43.96082,-1.19021 1.07116,1.09593 1.9935,10.14266 1.62395,15.92854 -0.1363,2.13406 -2.01092,3.94335 -4.16583,4.02064 l -3.918,0.14055 5.15583,2.04859 c 4.97692,1.97749 35.25924,2.5887 33.32442,0.67261 -0.5239,-0.51883 -4.86258,-1.27067 -9.64152,-1.67076 -4.77894,-0.40009 -9.94834,-0.86336 -11.48755,-1.02948 -1.77908,-0.19202 -2.79858,-3.93676 -2.79858,-10.27945 v -9.97741 l 5.03744,-0.36342 c 2.77059,-0.19988 7.30428,-0.34152 10.07488,-0.31476 2.77059,0.0268 5.03743,-0.80744 5.03743,-1.85379 0,-1.81008 -15.27863,-2.79255 -30.63505,-1.96993 -3.91985,0.20997 -9.20916,-0.72178 -11.75402,-2.07057 l -4.62702,-2.45235 v -10.77078 c 0,-6.63873 1.07363,-11.13028 2.79857,-11.70785 1.53922,-0.51539 12.62159,-0.71653 24.62748,-0.44699 l 21.82891,0.49007 v -2.90504 -2.90505 l -8.55452,1.1363 c -11.10595,1.47521 -15.05157,-2.45951 -15.74366,-15.70016 l -0.53562,-10.247315 h 12.28477 c 6.75662,0 12.83378,-0.879723 13.50479,-1.954942 1.36871,-2.193191 -101.414104,-3.301483 -107.063829,-1.154454 -6.468,2.457991 -1.080029,5.646005 8.385639,4.961708 l 9.28739,-0.67141 2.01358,8.033423 c 2.60599,10.39687 0.77197,14.72209 -6.95516,16.40261 -3.439,0.74792 -7.763965,1.88248 -9.611026,2.52125 l -3.358293,1.1614 4.141975,1.53173 c 2.278087,0.84246 11.345474,0.73064 20.149754,-0.24848 8.80428,-0.97912 18.32397,-1.24535 21.15486,-0.59162 l 5.14707,1.18859 -0.66935,12.67941 -0.66935,12.67942 -7.83602,0.34563 c -4.3098,0.1901 -8.33976,0.50252 -8.95544,0.69426 -0.61569,0.19175 -7.16436,0.53509 -14.5526,0.76297 -15.637366,0.48232 -20.196533,4.52368 -6.23489,5.52675 l 9.43715,0.67801 1.41936,7.49263 c 1.72302,9.09567 0.12849,12.16006 -5.56077,10.68668 -2.36113,-0.61147 -6.13821,-0.0345 -8.3935,1.2821 l -4.100525,2.39386 25.284005,-0.18273 c 13.90621,-0.10051 28.01104,-0.99689 31.34407,-1.99197 z m -20.80629,-59.43148 c -4.92549,-0.38636 -9.86405,-1.5855 -10.97458,-2.66476 -2.76998,-2.692 -3.3125,-13.52819 -0.91372,-18.25048 l 1.97097,-3.880105 h 21.24583 21.24583 l 2.18345,5.687345 c 2.81379,7.32925 2.79596,15.84807 -0.0368,17.58189 -2.67342,1.63627 -22.31214,2.49946 -34.72097,1.52611 z m -5.59715,-44.654825 14.5526,-0.476479 -6.10304,-1.820622 c -7.01545,-2.092803 -45.128747,-0.04046 -38.971335,2.098548 2.235835,0.776701 6.743555,1.246324 10.017165,1.043606 3.2736,-0.202717 12.50068,-0.582991 20.50461,-0.845053 z m 47.0106,-2.866833 c 0.005,-1.596338 -1.87839,-1.902392 -16.78597,-2.727346 -8.11371,-0.448994 -12.68149,0.898619 -11.18325,3.299353 1.39037,2.227915 27.96175,1.684494 27.96922,-0.572007 z m 18.51872,1.317158 c -1.51579,-0.607343 -4.53825,-0.644313 -6.71659,-0.08215 -2.17834,0.562149 -0.93815,1.059066 2.75597,1.104251 3.69412,0.04519 5.4764,-0.414761 3.96062,-1.022103 z m 17.91089,0 c -1.51578,-0.607343 -4.53825,-0.644313 -6.71658,-0.08215 -2.17835,0.562149 -0.93816,1.059066 2.75596,1.104251 3.69412,0.04519 5.4764,-0.414761 3.96062,-1.022103 z"
       id="path5556"
       inkscape:connector-curvature="0" />
    <path
       style="fill:#aaaaaa;fill-opacity:1;stroke-width:2.22800517"
       d="m 171.51938,250.75141 c -1.76949,-0.29302 -28.40445,-0.79189 -59.1888,-1.1086 l -55.971548,-0.57585 0.539866,-17.30548 0.539864,-17.30546 6.163488,-8.19234 c 3.389918,-4.50579 7.435889,-8.99416 8.991047,-9.97415 1.555158,-0.97999 4.72793,-5.4708 7.050606,-9.97957 l 4.223044,-8.19777 0.305989,-29.93005 0.30599,-29.93005 3.850948,-2.90859 3.850947,-2.90859 -3.918008,-2.87885 c -2.154905,-1.58336 -3.918008,-3.80023 -3.918008,-4.92638 0,-3.40915 -15.39608,-25.958001 -19.140871,-28.033417 -2.278748,-1.262913 -2.7804,-2.840252 -1.440735,-4.530079 1.130419,-1.425889 2.666232,-7.965969 3.412917,-14.533512 0.746685,-6.567544 1.740341,-12.320019 2.208126,-12.783281 0.467786,-0.46326 8.630295,-1.336391 18.138909,-1.940291 l 17.288389,-1.098002 -1.61343,5.012476 c -0.8874,2.756861 -1.71433,6.509086 -1.83764,8.338277 l -0.2242,3.325802 6.71658,-0.632969 c 3.69413,-0.348131 7.96468,-1.060842 9.49012,-1.583798 l 2.77353,-0.950826 -2.29701,-5.983156 c -1.30842,-3.40812 -1.45589,-6.816137 -0.34265,-7.91861 2.05165,-2.031803 20.44712,-2.018456 58.10158,0.04215 9.11751,0.49895 9.40172,4.423292 0.55972,7.728485 -6.22613,2.327363 -8.94857,5.676064 -5.03744,6.196238 13.48158,1.79303 16.20446,0.425558 19.39461,-9.740299 l 1.24707,-3.973971 17.38508,0.64817 17.38507,0.648178 0.66487,15.090214 0.66486,15.090212 -4.83613,7.749325 c -2.65988,4.262128 -7.0581,9.191126 -9.77384,10.953329 l -4.9377,3.204004 0.40835,39.881501 c 0.22459,21.93482 1.38414,41.14518 2.57677,42.68969 1.19264,1.54451 7.85792,10.39619 14.81173,19.67039 l 12.6433,16.8622 1.28652,15.28722 c 0.70759,8.40799 0.3406,16.65662 -0.81555,18.33029 l -2.10209,3.04307 -31.18349,0.28274 c -17.15092,0.15542 -32.63126,0.043 -34.40075,-0.25002 z m -37.91962,-36.40118 c 1.84707,0.10104 11.92194,0.1303 22.38862,0.065 10.46668,-0.0653 22.05279,-0.0358 25.74691,0.0656 23.87408,0.65498 42.75714,-0.21888 44.62123,-2.06493 2.49181,-2.4677 4.11606,-2.28154 -27.82976,-3.18951 -49.52272,-1.40753 -113.339895,-1.07741 -119.633225,0.61887 -3.613886,0.97407 -6.956164,2.91623 -7.427286,4.31592 l -0.856581,2.54489 29.815902,-1.26977 c 16.39875,-0.69838 31.32713,-1.18712 33.17419,-1.08608 z m -8.95544,-15.20213 c 0,-1.46028 14.65982,-2.05249 41.80074,-1.68862 l 41.80075,0.56041 0.9242,-2.74578 0.9242,-2.74578 -24.25434,-0.39463 c -24.57543,-0.39986 -80.04377,0.43873 -90.300756,1.36519 -3.078435,0.27807 -5.307838,1.42062 -4.95423,2.53901 0.353611,1.11838 7.154153,1.8149 15.112316,1.54781 8.18271,-0.27463 14.46939,0.44787 14.46939,1.6629 0,1.18169 1.00749,2.14852 2.23887,2.14852 1.23137,0 2.23886,-1.01206 2.23886,-2.24903 z m 44.21752,-15.37404 c 21.19208,-0.0711 34.14264,-0.95554 34.14264,-2.33174 0,-1.21946 -5.48172,-2.2172 -12.18161,-2.2172 -6.69988,0 -12.79368,-0.98077 -13.54176,-2.17948 -0.74809,-1.19872 -0.70535,-5.63613 0.095,-9.86091 l 1.45512,-7.68143 8.76786,-0.6708 c 4.82232,-0.36893 8.74243,-1.66853 8.71136,-2.88799 -0.0336,-1.31859 -8.7048,-2.22025 -21.39506,-2.22472 l -21.33855,-0.008 -2.11822,-3.31829 c -1.16503,-1.82503 -2.13365,-7.55865 -2.15251,-12.74136 l -0.0343,-9.42311 3.918,-0.11106 c 2.15491,-0.0611 13.40314,-0.31052 24.99607,-0.5543 14.00726,-0.29455 21.37887,-1.3324 21.97479,-3.09386 0.60328,-1.78322 -2.98814,-2.87156 -10.9748,-3.3258 l -11.87154,-0.67518 -1.43904,-8.82604 c -1.99937,-12.262654 -0.45056,-15.150177 7.3026,-13.614548 6.92032,1.370674 17.58774,-1.66971 17.58774,-5.012782 0,-1.196683 -7.76834,-1.607466 -18.47061,-0.976708 -10.15884,0.598731 -23.00431,0.849638 -28.54549,0.557573 -23.82631,-1.255838 -61.226119,0.03993 -63.403988,2.196741 -3.500315,3.46645 -0.728235,4.951877 9.996838,5.356844 l 9.64318,0.36411 2.20597,6.2143 c 2.96148,8.3426 -0.53182,13.44431 -10.16768,14.84911 -4.769151,0.69529 -7.604157,2.34853 -7.604157,4.4344 v 3.3258 l 22.948337,-0.55506 22.94833,-0.55506 0.28514,2.77226 c 0.45521,4.42575 -0.31973,20.1746 -1.02719,20.87521 -0.35437,0.35095 -10.56418,1.11648 -22.68847,1.70118 -12.12428,0.5847 -23.002881,2.01255 -24.174661,3.17299 -3.295788,3.2639 6.611928,7.45834 13.882101,5.87699 l 6.31381,-1.37333 1.12431,7.32302 c 1.43844,9.36904 0.56136,10.64883 -7.29797,10.64883 -6.31214,0 -10.105754,2.55616 -7.549974,5.08721 0.706056,0.69923 8.990444,0.88993 18.409744,0.42379 9.4193,-0.46614 32.49019,-0.89907 51.26865,-0.96206 z m -32.22172,-6.13468 -13.75111,-0.83063 -1.02307,-5.30009 c -0.56269,-2.91504 -0.35996,-6.36265 0.45052,-7.66135 1.7608,-2.82146 40.52606,-5.01622 44.59647,-2.5249 1.66063,1.01639 2.53927,4.86599 2.11499,9.26641 l -0.7258,7.5277 -8.95545,0.17673 c -4.92549,0.0972 -15.14344,-0.19704 -22.70655,-0.65388 z M 122.9303,118.99357 c -1.52004,-1.50533 -2.76371,-6.41342 -2.76371,-10.90686 v -8.169886 l 11.75403,-1.174454 c 31.79082,-3.176513 36.07764,-1.545564 34.84682,13.25768 l -0.70418,8.46924 -20.18463,0.63062 c -13.78478,0.43068 -21.0609,-0.23717 -22.94833,-2.10634 z m 53.98158,-41.882539 c 20.5078,0.04648 37.28691,-0.774043 37.28691,-1.823382 0,-3.108598 -60.41551,-3.883071 -106.34594,-1.363262 -4.92549,0.270222 -13.80047,0.626528 -19.722168,0.791792 -7.420933,0.207108 -10.277417,1.084541 -9.192135,2.823572 l 1.574587,2.523089 29.555926,-1.51816 c 16.25576,-0.834987 46.33503,-1.480131 66.84282,-1.433649 z"
       id="path5554"
       inkscape:connector-curvature="0" />
    <path
       style="fill:#6e6e6e;fill-opacity:1;stroke-width:2.22800517"
       d="m 71.589286,248.40989 -13.874952,-0.65706 -1.395576,-4.35454 c -0.76757,-2.395 -0.72185,-9.69472 0.101599,-16.2216 l 1.497178,-11.86706 8.718399,-10.83635 c 4.795118,-5.95999 10.737487,-13.82957 13.205266,-17.48795 l 4.486867,-6.65161 0.0083,-30.40014 0.0085,-30.40015 4.830147,-4.45643 4.830147,-4.45643 -3.664405,-1.39256 C 88.32527,108.4621 84.388601,103.28779 81.592538,97.729541 78.796475,92.171293 73.712764,84.654586 70.295399,81.025748 66.198998,76.675854 64.534326,73.016525 65.409564,70.285572 c 0.730158,-2.278261 1.746796,-8.315647 2.259197,-13.416413 0.512402,-5.100767 1.782172,-10.116425 2.82171,-11.145904 1.039537,-1.02948 9.145365,-2.14099 18.01295,-2.470023 l 16.122879,-0.598238 -1.47321,3.431928 c -0.81026,1.887559 -1.97695,5.73956 -2.59263,8.56 l -1.119429,5.128076 9.284809,-0.9195 c 11.64957,-1.153685 12.49503,-2.042989 9.64356,-10.143583 -1.2732,-3.616962 -1.87905,-7.007925 -1.34635,-7.535477 0.5327,-0.52755 12.79216,-0.49648 27.24324,0.06904 14.45108,0.565526 29.08143,0.949694 32.51189,0.853712 7.28128,-0.203739 6.09232,3.354689 -2.15893,6.461461 -7.20203,2.711714 -5.57637,7.447131 2.81074,8.187421 9.72149,0.85807 12.59823,-1.74241 14.20888,-12.844362 0.25414,-1.751711 22.72209,-2.428942 29.83622,-0.899326 l 6.15687,1.323796 -0.0134,10.355536 c -0.0179,15.579415 -3.56367,25.249281 -12.34667,33.679748 l -7.92522,7.607104 0.59458,39.924322 0.59458,39.92432 7.68779,10.01746 c 4.22828,5.50961 10.66565,13.70644 14.30528,18.21519 3.63963,4.50876 7.00352,11.48112 7.47533,15.49415 0.47182,4.01303 1.40724,9.01066 2.07872,11.10585 0.6715,2.09519 0.5457,7.37366 -0.27952,11.72991 l -1.5004,7.92044 -76.41985,-0.61762 c -42.02998,-0.3397 -82.662641,-0.91331 -90.293864,-1.2747 z M 226.96417,213.88353 c 2.65861,-2.63287 -6.89822,-7.89682 -9.88302,-5.44362 -1.55458,1.2777 -6.54433,1.60311 -11.60314,0.75669 -4.88161,-0.81676 -35.39296,-1.58695 -67.80301,-1.71152 l -58.92735,-0.22649 -5.037439,2.69029 c -2.770591,1.47965 -5.037439,3.54549 -5.037439,4.59074 0,2.1836 156.077208,1.53668 158.291398,-0.65609 z M 124.64432,200.36361 v -3.25073 l 39.27112,0.9584 c 21.59912,0.52712 40.12349,1.48009 41.16527,2.11771 1.04177,0.63763 3.0647,-0.23748 4.49539,-1.94468 l 2.60126,-3.104 -2.58587,-1.58269 c -4.09425,-2.5059 -63.22431,-3.86647 -93.3429,-2.1478 l -27.426062,1.56502 v 3.30445 3.30445 l 14.925522,-0.7562 14.92552,-0.75621 0.93308,2.7715 c 1.29332,3.8415 5.03767,3.48531 5.03767,-0.47922 z m 76.68101,-16.58572 c 0.92353,-0.0651 1.67915,-1.11611 1.67915,-2.33557 0,-1.21946 -4.83594,-2.2172 -10.74654,-2.2172 -12.71839,0 -15.66503,-2.27023 -14.36163,-11.06489 0.87449,-5.90068 5.56068,-9.6484 10.88343,-8.70389 5.49177,0.97449 9.74702,-0.55867 9.74702,-3.51183 v -3.3258 h -22.25649 c -12.24107,0 -22.72459,-0.75008 -23.29672,-1.66685 -0.57213,-0.91677 -1.3652,-6.15491 -1.76239,-11.64031 l -0.72215,-9.97346 h 24.54713 24.54712 l 0.75534,-3.8801 c 0.75221,-3.864 -1.41691,-4.7835 -9.33073,-3.95535 -2.28832,0.23946 -6.62401,-0.17691 -9.63486,-0.92528 l -5.47427,-1.36066 0.67941,-10.45971 0.67942,-10.459714 6.54429,0.698367 c 8.87041,0.946594 16.96376,-1.286231 16.96376,-4.680035 V 91.527025 L 153.1898,90.983598 c -26.16669,-0.298885 -51.40892,0.07414 -56.093824,0.828972 l -8.518019,1.372396 0.702027,3.664757 c 0.48427,2.528024 3.754934,4.008617 10.54443,4.773357 l 9.842406,1.1086 1.58177,4.4344 c 2.8876,8.09524 -1.61062,14.31522 -10.3979,14.37786 -2.619817,0.0186 -6.009152,1.52058 -7.531855,3.33758 l -2.768555,3.30363 4.909038,1.7984 c 2.699969,0.98912 12.617902,0.98044 22.039862,-0.0193 9.42195,-0.99973 18.41025,-1.33148 19.97399,-0.73722 1.76256,0.66982 2.84318,5.20585 2.84318,11.93463 v 10.85415 l -19.59004,0.4134 c -22.835567,0.48189 -29.66492,1.80233 -29.66492,5.73564 0,3.63961 5.054528,5.53985 14.73571,5.53985 h 7.65291 v 7.55263 7.55264 l -4.24884,-1.10035 c -5.14183,-1.33161 -14.309244,3.1191 -12.475833,6.05692 0.974634,1.56174 82.480843,1.57058 104.599993,0.0113 z m -61.5687,-6.20083 -17.35117,-0.75567 v -6.42749 c 0,-3.53511 0.75561,-6.88011 1.67914,-7.43333 0.92353,-0.55321 10.6612,-1.3604 21.63927,-1.79375 l 19.96012,-0.78791 2.08045,6.17185 c 2.37238,7.03791 -1.0247,12.96141 -7.01276,12.22816 -2.00412,-0.24541 -11.4519,-0.78625 -20.99505,-1.20186 z M 123.3728,117.78473 c -3.94707,-3.90889 -4.23092,-15.94212 -0.40763,-17.28047 5.17417,-1.811234 37.13022,-2.695589 39.73763,-1.099707 3.13406,1.918207 5.87226,19.834757 3.09553,20.254577 -1.08566,0.16414 -10.35415,0.52398 -20.59663,0.79962 l -18.6227,0.50117 z m 90.82267,-41.928965 c 0.003,-2.052231 -27.53156,-4.851263 -53.72936,-5.461925 -7.49663,-0.174738 -51.24834,2.212266 -66.512457,3.628794 -34.480877,3.19986 -13.627838,5.091658 51.956537,4.713521 l 68.28196,-0.393691 0.003,-2.486699 z"
       id="path5552"
       inkscape:connector-curvature="0" />
    <path
       style="fill:#000000;fill-opacity:1;stroke-width:2.22800517"
       d="m 170.98255,248.76518 c -0.41176,-0.40777 -26.01599,-0.80624 -56.8983,-0.88551 l -56.149659,-0.14412 -1.451405,-7.6618 c -0.798273,-4.21399 -0.528899,-9.29426 0.598609,-11.28952 1.127507,-1.99526 1.552743,-5.5109 0.944968,-7.81256 -0.743602,-2.81602 2.530017,-8.33344 10.008442,-16.86839 6.112417,-6.97597 12.341387,-14.97165 13.842152,-17.7682 1.614925,-3.00927 3.105906,-17.75373 3.652903,-36.12393 l 0.924235,-31.03928 3.327751,-3.29556 c 3.787919,-3.75127 2.355087,-9.81883 -2.318682,-9.81883 -1.715317,0 -3.118759,-1.518 -3.118759,-3.37334 0,-4.263869 -10.683226,-20.97666 -16.419965,-25.687319 -2.960874,-2.43129 -3.531119,-4.057252 -1.795486,-5.119556 1.398881,-0.85619 2.543418,-6.427646 2.543418,-12.381011 0,-6.262751 1.17937,-11.550104 2.798578,-12.546592 1.539217,-0.94726 9.182317,-1.950082 16.984668,-2.228494 l 14.186092,-0.506202 -1.56664,3.760542 c -0.86166,2.068298 -2.089452,5.566649 -2.728436,7.774112 l -1.16179,4.013574 10.930956,-0.687772 10.93096,-0.687769 -0.49277,-8.314505 -0.49277,-8.314504 7.20936,-0.395285 c 3.96514,-0.217408 9.22433,-0.252076 11.68708,-0.07704 2.46274,0.175026 13.29324,0.584292 24.06776,0.90946 10.77452,0.325171 19.59004,1.259976 19.59004,2.077345 0,0.817371 -3.11333,2.56094 -6.91851,3.874601 -8.68246,2.997437 -7.46351,7.421033 2.60818,9.46513 l 7.66862,1.556385 3.91801,-3.505934 c 2.15491,-1.928262 3.91801,-5.346777 3.91801,-7.596697 0,-4.508218 5.31032,-5.402116 26.30663,-4.428257 l 7.2763,0.337494 v 16.53565 16.535649 l -9.15594,9.516466 -9.15594,9.516465 0.10093,39.609464 0.10093,39.60947 7.8836,10.27756 c 4.33598,5.65266 8.69301,11.2753 9.68225,12.49476 8.8705,10.9347 13.75856,18.32382 12.76952,19.30327 -0.65249,0.6462 -0.24191,5.33773 0.91243,10.42561 1.15433,5.08788 1.36884,11.95431 0.4767,15.25871 l -1.6221,6.00804 -32.82714,0.21973 c -18.05492,0.12083 -33.16403,-0.11375 -33.57578,-0.5216 z m -27.30791,-32.68432 c 23.39611,-0.54009 44.24312,-0.32334 46.32669,0.48165 2.08357,0.805 11.40284,1.13537 20.70947,0.73417 l 16.92116,-0.72947 v -4.25924 c 0,-2.34258 -0.75562,-4.32403 -1.67915,-4.40322 -1.92873,-0.1654 -47.31499,-1.13199 -79.47959,-1.69269 l -21.8289,-0.38052 v -3.3258 c 0,-2.11768 2.23654,-3.37427 6.15687,-3.45922 15.44071,-0.33457 52.90287,0.46935 63.93289,1.37198 l 12.18438,0.99709 2.71348,-3.2379 c 4.36051,-5.20327 0.62503,-7.83445 -10.66068,-7.50909 -5.78566,0.1668 -28.73816,0.11622 -51.00557,-0.11239 -22.2674,-0.22861 -44.73161,0.25666 -49.920468,1.07836 l -9.434291,1.49401 0.704666,3.57997 0.704666,3.57998 13.067847,-0.48139 c 8.45153,-0.31133 14.11737,0.55798 16.03883,2.46086 l 2.97099,2.94224 -22.794571,1.20995 c -24.639021,1.30786 -30.630587,2.72093 -30.630587,7.224 0,4.07163 3.623562,4.84948 19.030325,4.08511 7.388244,-0.36655 32.575443,-1.10835 55.971543,-1.64844 z m 24.36439,-30.40757 c 18.32591,0.0561 34.14984,-0.40597 35.16429,-1.02687 1.01445,-0.6209 1.27693,-2.59357 0.58328,-4.3837 l -1.26119,-3.2548 H 190.45121 178.377 v -7.7602 -7.76021 h 9.02571 c 6.06964,0 9.45992,-1.12057 10.35147,-3.42142 2.09136,-5.39727 -0.1689,-6.08363 -19.88359,-6.03796 -10.18815,0.0236 -20.34178,-0.89574 -22.56362,-2.04297 l -4.03971,-2.08588 0.68142,-9.28059 0.68141,-9.2806 24.23144,0.6145 24.23145,0.6145 -0.7234,-5.0489 -0.72339,-5.0489 -9.76042,-0.42766 c -5.36824,-0.2352 -10.23851,-0.90111 -10.82284,-1.47978 -0.58433,-0.57868 -1.6141,-5.1255 -2.28839,-10.10406 l -1.22598,-9.051914 h 11.21496 c 7.31658,0 12.19939,-1.174691 14.047,-3.379382 4.40254,-5.253415 1.47655,-6.15098 -18.45895,-5.66238 -10.18995,0.249746 -35.31904,0.640266 -55.84244,0.867819 -20.5234,0.227556 -38.046136,1.137932 -38.939408,2.023059 -3.371314,3.340564 4.24595,8.368088 12.678598,8.368088 h 8.63865 l 1.49177,5.88617 c 1.95374,7.70902 -1.33091,12.52084 -8.76706,12.84321 -3.296185,0.1429 -7.27031,1.54199 -8.83139,3.10909 l -2.838331,2.84927 4.328788,3.16413 4.328788,3.16413 12.462675,-1.15908 c 6.85447,-0.6375 14.64947,-1.62877 17.32221,-2.20282 2.67274,-0.57405 6.45482,-0.43748 8.40462,0.30349 l 3.54509,1.34721 -0.36737,9.61848 c -0.20205,5.29016 -0.96166,9.55357 -1.68803,9.47425 -0.72637,-0.0793 -1.82442,0.0951 -2.4401,0.38762 -1.47161,0.69918 -20.72796,1.85796 -34.14265,2.0546 l -10.63459,0.15588 v 4.30355 c 0,5.41219 2.636551,7.03524 11.78389,7.25411 7.66455,0.18339 10.5143,2.59667 10.57044,8.95145 l 0.0343,3.8801 -6.15687,0.0705 c -3.38628,0.0388 -8.077329,1.5099 -10.424557,3.26915 l -4.267684,3.19863 5.019602,1.8389 c 2.760779,1.0114 12.237399,1.46704 21.059149,1.01252 8.82175,-0.45451 31.03347,-0.78047 49.35938,-0.72435 z m -44.98658,-12.41596 c -0.56413,-1.45309 -0.67555,-4.44631 -0.24761,-6.6516 l 0.77808,-4.00962 21.56563,-0.41578 21.56562,-0.41577 1.14778,5.94615 c 0.63128,3.27038 0.65499,6.73579 0.0527,7.7009 -1.79697,2.87943 -43.68895,0.86778 -44.86219,-2.15428 z m 15.60665,-53.44758 -13.97098,-0.65953 -2.26108,-4.184 c -1.43622,-2.65764 -1.50457,-6.15453 -0.18736,-9.58555 l 2.07373,-5.401547 19.21729,-0.374927 19.21729,-0.374924 2.30769,6.010948 c 4.94123,12.87068 -0.3633,15.7985 -26.39658,14.56953 z m 35.75179,-40.782275 c 35.51698,0.138063 45.66037,-1.151421 41.49628,-5.275227 -0.53837,-0.533164 -11.65471,-1.364685 -24.70297,-1.847824 -13.04827,-0.483142 -24.62291,-1.42855 -25.72144,-2.100909 -3.08793,-1.88998 -86.445596,3.385429 -88.955257,5.629662 -5.146122,4.601857 5.29892,6.219664 31.325347,4.851906 14.77649,-0.776541 44.72761,-1.342466 66.55804,-1.257608 z"
       id="path5550"
       inkscape:connector-curvature="0" />
  </g>
</svg>
