<?xml version="1.0" encoding="UTF-8" standalone="no"?>
<svg
   xmlns:dc="http://purl.org/dc/elements/1.1/"
   xmlns:cc="http://creativecommons.org/ns#"
   xmlns:rdf="http://www.w3.org/1999/02/22-rdf-syntax-ns#"
   xmlns:svg="http://www.w3.org/2000/svg"
   xmlns="http://www.w3.org/2000/svg"
   xmlns:sodipodi="http://sodipodi.sourceforge.net/DTD/sodipodi-0.dtd"
   xmlns:inkscape="http://www.inkscape.org/namespaces/inkscape"
   version="1.0"
   width="300.000000pt"
   height="300.000000pt"
   viewBox="0 0 300.000000 300.000000"
   preserveAspectRatio="xMidYMid meet"
   id="svg2"
   inkscape:version="0.92.2 (5c3e80d, 2017-08-06)"
   sodipodi:docname="wb.svg">
  <defs
     id="defs12">
    <filter
       style="color-interpolation-filters:sRGB;"
       inkscape:label="Drawing"
       id="filter1326">
      <feGaussianBlur
         in="SourceGraphic"
         stdDeviation="0.6"
         result="blur1"
         id="feGaussianBlur1272" />
      <feConvolveMatrix
         in="blur1"
         targetX="1"
         targetY="1"
         order="3 3"
         kernelMatrix="0 250 0 250 -1010 250 0 250 0 "
         result="convolve1"
         id="feConvolveMatrix1274" />
      <feComposite
         in="convolve1"
         in2="convolve1"
         k1="1"
         k2="1"
         k4="0"
         operator="arithmetic"
         result="composite1"
         id="feComposite1276" />
      <feColorMatrix
         in="composite1"
         values="0 0 0 0 0 0 0 0 0 0 0 0 0 0 0 -0.2125 -0.7154 -0.0721 1 0 "
         result="color1"
         id="feColorMatrix1278" />
      <feGaussianBlur
         stdDeviation="0.6"
         result="blur2"
         id="feGaussianBlur1280" />
      <feColorMatrix
         values="1 0 0 0 0 0 1 0 0 0 0 0 1 0 0 0 0 0 6 -2 "
         result="color2"
         id="feColorMatrix1282" />
      <feFlood
         flood-color="rgb(255,255,255)"
         result="flood1"
         id="feFlood1284" />
      <feBlend
         in2="color2"
         mode="multiply"
         result="blend1"
         id="feBlend1286" />
      <feComponentTransfer
         in="blend1"
         result="component1"
         id="feComponentTransfer1294">
        <feFuncR
           type="discrete"
           tableValues="0 1 1 1"
           id="feFuncR1288" />
        <feFuncG
           type="discrete"
           tableValues="0 1 1 1"
           id="feFuncG1290" />
        <feFuncB
           type="discrete"
           tableValues="0 1 1 1"
           id="feFuncB1292" />
      </feComponentTransfer>
      <feGaussianBlur
         stdDeviation="1"
         result="blur3"
         id="feGaussianBlur1296" />
      <feColorMatrix
         in="blur3"
         values="0 0 0 0 0 0 0 0 0 0 0 0 0 0 0 -0.2125 -0.7154 -0.0721 1 0 "
         result="color3"
         id="feColorMatrix1298" />
      <feColorMatrix
         values="1 0 0 0 0 0 1 0 0 0 0 0 1 0 0 0 0 0 6 -2 "
         result="color4"
         id="feColorMatrix1300" />
      <feFlood
         flood-color="rgb(0,0,0)"
         result="flood2"
         id="feFlood1302" />
      <feComposite
         in="flood2"
         in2="color4"
         operator="in"
         result="composite2"
         id="feComposite1304" />
      <feComposite
         in="composite2"
         in2="composite2"
         operator="arithmetic"
         k2="1"
         result="composite3"
         id="feComposite1306" />
      <feOffset
         dx="0"
         dy="0"
         result="offset1"
         id="feOffset1308" />
      <feFlood
         in="color4"
         flood-color="rgb(165,165,165)"
         result="flood3"
         id="feFlood1310" />
      <feComposite
         in="flood3"
         in2="color4"
         operator="out"
         result="composite4"
         id="feComposite1312" />
      <feComposite
         in="composite4"
         in2="composite4"
         operator="arithmetic"
         k2="1"
         result="composite5"
         id="feComposite1314" />
      <feMerge
         result="merge1"
         id="feMerge1320">
        <feMergeNode
           in="composite5"
           id="feMergeNode1316" />
        <feMergeNode
           in="offset1"
           id="feMergeNode1318" />
      </feMerge>
      <feColorMatrix
         values="1 0 0 0 0 0 1 0 0 0 0 0 1 0 0 0 0 0 1.3 0 "
         result="color5"
         flood-opacity="0.56"
         id="feColorMatrix1322" />
      <feComposite
         in="color5"
         in2="SourceGraphic"
         operator="in"
         result="composite8"
         id="feComposite1324" />
    </filter>
    <filter
       style="color-interpolation-filters:sRGB;"
       inkscape:label="Drawing"
       id="filter1390">
      <feGaussianBlur
         in="SourceGraphic"
         stdDeviation="0.6"
         result="blur1"
         id="feGaussianBlur1336" />
      <feConvolveMatrix
         in="blur1"
         targetX="1"
         targetY="1"
         order="3 3"
         kernelMatrix="0 250 0 250 -1010 250 0 250 0 "
         result="convolve1"
         id="feConvolveMatrix1338" />
      <feComposite
         in="convolve1"
         in2="convolve1"
         k1="1"
         k2="1"
         k4="0"
         operator="arithmetic"
         result="composite1"
         id="feComposite1340" />
      <feColorMatrix
         in="composite1"
         values="0 0 0 0 0 0 0 0 0 0 0 0 0 0 0 -0.2125 -0.7154 -0.0721 1 0 "
         result="color1"
         id="feColorMatrix1342" />
      <feGaussianBlur
         stdDeviation="0.6"
         result="blur2"
         id="feGaussianBlur1344" />
      <feColorMatrix
         values="1 0 0 0 0 0 1 0 0 0 0 0 1 0 0 0 0 0 6 -2 "
         result="color2"
         id="feColorMatrix1346" />
      <feFlood
         flood-color="rgb(255,255,255)"
         result="flood1"
         id="feFlood1348" />
      <feBlend
         in2="color2"
         mode="multiply"
         result="blend1"
         id="feBlend1350" />
      <feComponentTransfer
         in="blend1"
         result="component1"
         id="feComponentTransfer1358">
        <feFuncR
           type="discrete"
           tableValues="0 1 1 1"
           id="feFuncR1352" />
        <feFuncG
           type="discrete"
           tableValues="0 1 1 1"
           id="feFuncG1354" />
        <feFuncB
           type="discrete"
           tableValues="0 1 1 1"
           id="feFuncB1356" />
      </feComponentTransfer>
      <feGaussianBlur
         stdDeviation="1"
         result="blur3"
         id="feGaussianBlur1360" />
      <feColorMatrix
         in="blur3"
         values="0 0 0 0 0 0 0 0 0 0 0 0 0 0 0 -0.2125 -0.7154 -0.0721 1 0 "
         result="color3"
         id="feColorMatrix1362" />
      <feColorMatrix
         values="1 0 0 0 0 0 1 0 0 0 0 0 1 0 0 0 0 0 6 -2 "
         result="color4"
         id="feColorMatrix1364" />
      <feFlood
         flood-color="rgb(0,0,0)"
         result="flood2"
         id="feFlood1366" />
      <feComposite
         in="flood2"
         in2="color4"
         operator="in"
         result="composite2"
         id="feComposite1368" />
      <feComposite
         in="composite2"
         in2="composite2"
         operator="arithmetic"
         k2="1"
         result="composite3"
         id="feComposite1370" />
      <feOffset
         dx="0"
         dy="0"
         result="offset1"
         id="feOffset1372" />
      <feFlood
         in="color4"
         flood-color="rgb(165,165,165)"
         result="flood3"
         id="feFlood1374" />
      <feComposite
         in="flood3"
         in2="color4"
         operator="out"
         result="composite4"
         id="feComposite1376" />
      <feComposite
         in="composite4"
         in2="composite4"
         operator="arithmetic"
         k2="1"
         result="composite5"
         id="feComposite1378" />
      <feMerge
         result="merge1"
         id="feMerge1384">
        <feMergeNode
           in="composite5"
           id="feMergeNode1380" />
        <feMergeNode
           in="offset1"
           id="feMergeNode1382" />
      </feMerge>
      <feColorMatrix
         values="1 0 0 0 0 0 1 0 0 0 0 0 1 0 0 0 0 0 1.3 0 "
         result="color5"
         flood-opacity="0.56"
         id="feColorMatrix1386" />
      <feComposite
         in="color5"
         in2="SourceGraphic"
         operator="in"
         result="composite8"
         id="feComposite1388" />
    </filter>
    <filter
       style="color-interpolation-filters:sRGB;"
       inkscape:label="Drawing"
       id="filter1458">
      <feGaussianBlur
         in="SourceGraphic"
         stdDeviation="0.6"
         result="blur1"
         id="feGaussianBlur1404" />
      <feConvolveMatrix
         in="blur1"
         targetX="1"
         targetY="1"
         order="3 3"
         kernelMatrix="0 250 0 250 -1010 250 0 250 0 "
         result="convolve1"
         id="feConvolveMatrix1406" />
      <feComposite
         in="convolve1"
         in2="convolve1"
         k1="1"
         k2="1"
         k4="0"
         operator="arithmetic"
         result="composite1"
         id="feComposite1408" />
      <feColorMatrix
         in="composite1"
         values="0 0 0 0 0 0 0 0 0 0 0 0 0 0 0 -0.2125 -0.7154 -0.0721 1 0 "
         result="color1"
         id="feColorMatrix1410" />
      <feGaussianBlur
         stdDeviation="0.6"
         result="blur2"
         id="feGaussianBlur1412" />
      <feColorMatrix
         values="1 0 0 0 0 0 1 0 0 0 0 0 1 0 0 0 0 0 6 -2 "
         result="color2"
         id="feColorMatrix1414" />
      <feFlood
         flood-color="rgb(255,255,255)"
         result="flood1"
         id="feFlood1416" />
      <feBlend
         in2="color2"
         mode="multiply"
         result="blend1"
         id="feBlend1418" />
      <feComponentTransfer
         in="blend1"
         result="component1"
         id="feComponentTransfer1426">
        <feFuncR
           type="discrete"
           tableValues="0 1 1 1"
           id="feFuncR1420" />
        <feFuncG
           type="discrete"
           tableValues="0 1 1 1"
           id="feFuncG1422" />
        <feFuncB
           type="discrete"
           tableValues="0 1 1 1"
           id="feFuncB1424" />
      </feComponentTransfer>
      <feGaussianBlur
         stdDeviation="1"
         result="blur3"
         id="feGaussianBlur1428" />
      <feColorMatrix
         in="blur3"
         values="0 0 0 0 0 0 0 0 0 0 0 0 0 0 0 -0.2125 -0.7154 -0.0721 1 0 "
         result="color3"
         id="feColorMatrix1430" />
      <feColorMatrix
         values="1 0 0 0 0 0 1 0 0 0 0 0 1 0 0 0 0 0 6 -2 "
         result="color4"
         id="feColorMatrix1432" />
      <feFlood
         flood-color="rgb(0,0,0)"
         result="flood2"
         id="feFlood1434" />
      <feComposite
         in="flood2"
         in2="color4"
         operator="in"
         result="composite2"
         id="feComposite1436" />
      <feComposite
         in="composite2"
         in2="composite2"
         operator="arithmetic"
         k2="1"
         result="composite3"
         id="feComposite1438" />
      <feOffset
         dx="0"
         dy="0"
         result="offset1"
         id="feOffset1440" />
      <feFlood
         in="color4"
         flood-color="rgb(165,165,165)"
         result="flood3"
         id="feFlood1442" />
      <feComposite
         in="flood3"
         in2="color4"
         operator="out"
         result="composite4"
         id="feComposite1444" />
      <feComposite
         in="composite4"
         in2="composite4"
         operator="arithmetic"
         k2="1"
         result="composite5"
         id="feComposite1446" />
      <feMerge
         result="merge1"
         id="feMerge1452">
        <feMergeNode
           in="composite5"
           id="feMergeNode1448" />
        <feMergeNode
           in="offset1"
           id="feMergeNode1450" />
      </feMerge>
      <feColorMatrix
         values="1 0 0 0 0 0 1 0 0 0 0 0 1 0 0 0 0 0 1.3 0 "
         result="color5"
         flood-opacity="0.56"
         id="feColorMatrix1454" />
      <feComposite
         in="color5"
         in2="SourceGraphic"
         operator="in"
         result="composite8"
         id="feComposite1456" />
    </filter>
    <filter
       style="color-interpolation-filters:sRGB;"
       inkscape:label="Drawing"
       id="filter1535">
      <feGaussianBlur
         in="SourceGraphic"
         stdDeviation="0.6"
         result="blur1"
         id="feGaussianBlur1481" />
      <feConvolveMatrix
         in="blur1"
         targetX="1"
         targetY="1"
         order="3 3"
         kernelMatrix="0 250 0 250 -1010 250 0 250 0 "
         result="convolve1"
         id="feConvolveMatrix1483" />
      <feComposite
         in="convolve1"
         in2="convolve1"
         k1="1"
         k2="1"
         k4="0"
         operator="arithmetic"
         result="composite1"
         id="feComposite1485" />
      <feColorMatrix
         in="composite1"
         values="0 0 0 0 0 0 0 0 0 0 0 0 0 0 0 -0.2125 -0.7154 -0.0721 1 0 "
         result="color1"
         id="feColorMatrix1487" />
      <feGaussianBlur
         stdDeviation="0.6"
         result="blur2"
         id="feGaussianBlur1489" />
      <feColorMatrix
         values="1 0 0 0 0 0 1 0 0 0 0 0 1 0 0 0 0 0 6 -2 "
         result="color2"
         id="feColorMatrix1491" />
      <feFlood
         flood-color="rgb(255,255,255)"
         result="flood1"
         id="feFlood1493" />
      <feBlend
         in2="color2"
         mode="multiply"
         result="blend1"
         id="feBlend1495" />
      <feComponentTransfer
         in="blend1"
         result="component1"
         id="feComponentTransfer1503">
        <feFuncR
           type="discrete"
           tableValues="0 1 1 1"
           id="feFuncR1497" />
        <feFuncG
           type="discrete"
           tableValues="0 1 1 1"
           id="feFuncG1499" />
        <feFuncB
           type="discrete"
           tableValues="0 1 1 1"
           id="feFuncB1501" />
      </feComponentTransfer>
      <feGaussianBlur
         stdDeviation="1"
         result="blur3"
         id="feGaussianBlur1505" />
      <feColorMatrix
         in="blur3"
         values="0 0 0 0 0 0 0 0 0 0 0 0 0 0 0 -0.2125 -0.7154 -0.0721 1 0 "
         result="color3"
         id="feColorMatrix1507" />
      <feColorMatrix
         values="1 0 0 0 0 0 1 0 0 0 0 0 1 0 0 0 0 0 6 -2 "
         result="color4"
         id="feColorMatrix1509" />
      <feFlood
         flood-color="rgb(0,0,0)"
         result="flood2"
         id="feFlood1511" />
      <feComposite
         in="flood2"
         in2="color4"
         operator="in"
         result="composite2"
         id="feComposite1513" />
      <feComposite
         in="composite2"
         in2="composite2"
         operator="arithmetic"
         k2="1"
         result="composite3"
         id="feComposite1515" />
      <feOffset
         dx="0"
         dy="0"
         result="offset1"
         id="feOffset1517" />
      <feFlood
         in="color4"
         flood-color="rgb(165,165,165)"
         result="flood3"
         id="feFlood1519" />
      <feComposite
         in="flood3"
         in2="color4"
         operator="out"
         result="composite4"
         id="feComposite1521" />
      <feComposite
         in="composite4"
         in2="composite4"
         operator="arithmetic"
         k2="1"
         result="composite5"
         id="feComposite1523" />
      <feMerge
         result="merge1"
         id="feMerge1529">
        <feMergeNode
           in="composite5"
           id="feMergeNode1525" />
        <feMergeNode
           in="offset1"
           id="feMergeNode1527" />
      </feMerge>
      <feColorMatrix
         values="1 0 0 0 0 0 1 0 0 0 0 0 1 0 0 0 0 0 1.3 0 "
         result="color5"
         flood-opacity="0.56"
         id="feColorMatrix1531" />
      <feComposite
         in="color5"
         in2="SourceGraphic"
         operator="in"
         result="composite8"
         id="feComposite1533" />
    </filter>
    <filter
       style="color-interpolation-filters:sRGB;"
       inkscape:label="Drawing"
       id="filter5418">
      <feGaussianBlur
         in="SourceGraphic"
         stdDeviation="0.6"
         result="blur1"
         id="feGaussianBlur5364" />
      <feConvolveMatrix
         in="blur1"
         targetX="1"
         targetY="1"
         order="3 3"
         kernelMatrix="0 250 0 250 -1010 250 0 250 0 "
         result="convolve1"
         id="feConvolveMatrix5366" />
      <feComposite
         in="convolve1"
         in2="convolve1"
         k1="1"
         k2="1"
         k4="0"
         operator="arithmetic"
         result="composite1"
         id="feComposite5368" />
      <feColorMatrix
         in="composite1"
         values="0 0 0 0 0 0 0 0 0 0 0 0 0 0 0 -0.2125 -0.7154 -0.0721 1 0 "
         result="color1"
         id="feColorMatrix5370" />
      <feGaussianBlur
         stdDeviation="0.6"
         result="blur2"
         id="feGaussianBlur5372" />
      <feColorMatrix
         values="1 0 0 0 0 0 1 0 0 0 0 0 1 0 0 0 0 0 6 -2 "
         result="color2"
         id="feColorMatrix5374" />
      <feFlood
         flood-color="rgb(255,255,255)"
         result="flood1"
         id="feFlood5376" />
      <feBlend
         in2="color2"
         mode="multiply"
         result="blend1"
         id="feBlend5378" />
      <feComponentTransfer
         in="blend1"
         result="component1"
         id="feComponentTransfer5386">
        <feFuncR
           type="discrete"
           tableValues="0 1 1 1"
           id="feFuncR5380" />
        <feFuncG
           type="discrete"
           tableValues="0 1 1 1"
           id="feFuncG5382" />
        <feFuncB
           type="discrete"
           tableValues="0 1 1 1"
           id="feFuncB5384" />
      </feComponentTransfer>
      <feGaussianBlur
         stdDeviation="1"
         result="blur3"
         id="feGaussianBlur5388" />
      <feColorMatrix
         in="blur3"
         values="0 0 0 0 0 0 0 0 0 0 0 0 0 0 0 -0.2125 -0.7154 -0.0721 1 0 "
         result="color3"
         id="feColorMatrix5390" />
      <feColorMatrix
         values="1 0 0 0 0 0 1 0 0 0 0 0 1 0 0 0 0 0 6 -2 "
         result="color4"
         id="feColorMatrix5392" />
      <feFlood
         flood-color="rgb(0,0,0)"
         result="flood2"
         id="feFlood5394" />
      <feComposite
         in="flood2"
         in2="color4"
         operator="in"
         result="composite2"
         id="feComposite5396" />
      <feComposite
         in="composite2"
         in2="composite2"
         operator="arithmetic"
         k2="1"
         result="composite3"
         id="feComposite5398" />
      <feOffset
         dx="0"
         dy="0"
         result="offset1"
         id="feOffset5400" />
      <feFlood
         in="color4"
         flood-color="rgb(165,165,165)"
         result="flood3"
         id="feFlood5402" />
      <feComposite
         in="flood3"
         in2="color4"
         operator="out"
         result="composite4"
         id="feComposite5404" />
      <feComposite
         in="composite4"
         in2="composite4"
         operator="arithmetic"
         k2="1"
         result="composite5"
         id="feComposite5406" />
      <feMerge
         result="merge1"
         id="feMerge5412">
        <feMergeNode
           in="composite5"
           id="feMergeNode5408" />
        <feMergeNode
           in="offset1"
           id="feMergeNode5410" />
      </feMerge>
      <feColorMatrix
         values="1 0 0 0 0 0 1 0 0 0 0 0 1 0 0 0 0 0 1.3 0 "
         result="color5"
         flood-opacity="0.56"
         id="feColorMatrix5414" />
      <feComposite
         in="color5"
         in2="SourceGraphic"
         operator="in"
         result="composite8"
         id="feComposite5416" />
    </filter>
  </defs>
  <sodipodi:namedview
     pagecolor="#ffffff"
     bordercolor="#666666"
     borderopacity="1"
     objecttolerance="10"
     gridtolerance="10"
     guidetolerance="10"
     inkscape:pageopacity="0"
     inkscape:pageshadow="2"
     inkscape:window-width="1461"
     inkscape:window-height="949"
     id="namedview10"
     showgrid="false"
     inkscape:zoom="1.4779573"
     inkscape:cx="195.1699"
     inkscape:cy="165.31003"
     inkscape:window-x="29"
     inkscape:window-y="25"
     inkscape:window-maximized="0"
     inkscape:current-layer="svg2"
     inkscape:pagecheckerboard="true"
     showguides="false" />
  <metadata
     id="metadata4">
Created by potrace 1.12, written by Peter Selinger 2001-2015
<rdf:RDF>
  <cc:Work
     rdf:about="">
    <dc:format>image/svg+xml</dc:format>
    <dc:type
       rdf:resource="http://purl.org/dc/dcmitype/StillImage" />
    <dc:title />
  </cc:Work>
</rdf:RDF>
</metadata>
  <path
     style="fill:#fffff9;fill-opacity:1;stroke-width:2.24670529"
     d="m 188.25608,13.302961 c -5.66529,-2.586723 -17.49467,-7.9711912 -32.6789,1.149511 -2.18513,1.010302 -3.98237,4.067031 -5.7821,0.954935 -6.66765,-5.8523906 -16.6081,-7.6403549 -24.51226,-3.158783 -14.63213,6.497083 -23.72195,17.246313 -25.05197,33.121843 1.08078,2.673722 2.95494,8.074605 4.24311,10.538811 -21.021348,24.969479 -32.248438,57.289822 -35.17827,89.487382 0.695323,24.53447 17.788668,47.06534 11.193433,71.93004 -1.090733,2.96847 0.820998,9.60452 -4.165423,7.50647 -15.971027,-1.92627 -34.622831,-4.02426 -48.067288,6.71706 -6.997618,7.69509 -11.146333,17.89576 -13.443537,27.81938 0.145242,10.28013 4.712209,20.92436 12.492023,27.64972 10.797034,7.32365 24.104395,1.90493 35.719153,0.63136 18.398312,0.0829 36.048103,8.65915 54.630899,6.26232 14.41188,-1.21106 26.6437,-9.6044 38.04068,-17.77087 10.93299,8.32076 25.03952,12.13742 38.65046,10.11495 17.39487,-0.58124 34.8618,-4.09881 52.2072,-1.01517 11.05829,0.31419 24.02931,1.1166 32.96107,-6.57433 8.58724,-9.43565 5.58892,-23.25536 2.45775,-34.2652 -0.95538,-8.91407 -8.14969,-17.17649 -17.50622,-17.17107 -15.96859,-4.08 -32.69983,-4.18636 -48.99093,-2.27487 0.29587,-15.73051 -3.32963,-33.12479 5.97393,-47.13867 10.13927,-20.40272 16.35534,-44.97581 7.58115,-66.98106 -6.58315,-19.775491 -20.29104,-36.086031 -29.14643,-54.676871 4.84603,-14.92609 8.43167,-19.674803 3.29862,-32.209417 -6.80642,-7.104545 -6.84684,-6.519178 -14.92615,-10.647471 z"
     id="path5334"
     inkscape:connector-curvature="0"
     sodipodi:nodetypes="cccccccccccccccccccccccccc" />
  <g
     id="g5354"
     style="filter:url(#filter5418)"
     transform="matrix(1.0213637,0,0,1.0113085,1.9224816,12.442265)">
    <path
       style="fill:#e6e6e6;fill-opacity:1;stroke-width:2.22345686"
       d="m 77.845144,257.91385 c -7.194176,-2.06809 -18.71396,-3.15725 -29.619195,-2.80037 l -17.84612,0.58403 0.159703,-9.16415 c 0.08783,-5.04028 0.985055,-11.12417 1.993828,-13.51976 1.008772,-2.39559 1.704102,-5.03379 1.545174,-5.86269 -0.454892,-2.37253 49.962673,-0.24662 52.904756,2.23078 2.542841,2.1412 10.070432,3.432 16.89603,2.89722 1.84803,-0.14489 0.10584,-2.25226 -3.973421,-4.8065 l -7.264445,-4.54868 0.622628,-24.1724 0.622629,-24.17241 -5.11839,-14.64642 c -2.815114,-8.05552 -5.630903,-16.16738 -6.257307,-18.02635 -2.2648,-6.7212 -0.06483,-23.99104 5.165903,-40.55257 C 95.351248,77.055159 100.6702,66.324456 110.43024,55.449983 l 8.60502,-9.587582 -3.18994,-6.314756 c -1.75447,-3.473115 -3.168,-7.466329 -3.14116,-8.873806 0.0952,-4.991671 7.74416,-12.723891 14.57822,-14.73683 l 6.93187,-2.04175 4.57866,4.380924 c 4.81235,4.60452 6.41923,18.544196 2.42958,21.076557 -1.35314,0.858879 -1.15767,2.994493 0.52776,5.766218 2.9472,4.84673 5.46813,5.397338 10.31014,2.251891 l 3.20378,-2.081229 -4.07513,-4.624625 -4.07512,-4.624625 1.96835,-6.933389 c 1.08259,-3.813362 4.53389,-8.526732 7.66955,-10.474152 l 5.70121,-3.540764 8.12669,1.56577 c 9.83157,1.894246 11.59881,5.778381 8.33368,18.31617 l -2.48553,9.544229 3.88429,8.201444 c 2.13636,4.510793 4.65404,7.410905 5.59483,6.44469 0.9408,-0.966215 1.39654,-0.742772 1.01277,0.49654 -0.58093,1.875971 7.83824,19.277275 15.80787,32.672767 1.10599,1.858968 3.59536,6.92888 5.53193,11.266475 l 3.52103,7.88653 -1.26195,14.63534 c -0.69408,8.04944 -2.26382,14.97832 -3.48831,15.39751 -1.2245,0.41919 -2.24424,2.45214 -2.2661,4.51766 -0.0219,2.06552 -2.98378,9.2409 -6.58204,15.94529 -7.14358,13.31011 -7.61513,14.67001 -4.37342,12.61239 1.19289,-0.75717 1.67174,-0.0461 1.06411,1.58013 -0.60763,1.62623 -1.34896,14.42581 -1.64742,28.44351 l -0.54264,25.48672 5.51207,-1.41994 c 10.19611,-2.6266 42.7323,-3.75851 51.54081,-1.79308 l 8.73049,1.94804 1.66839,10.03719 c 0.91763,5.52045 1.11867,11.81607 0.44675,13.99025 l -1.22165,3.95307 -4.14781,-2.27982 c -2.28129,-1.25389 -8.38565,-2.13743 -13.56526,-1.96343 -5.17961,0.17395 -12.49847,-0.36048 -16.26414,-1.18778 -3.87979,-0.85235 -10.53499,-0.23894 -15.3581,1.41557 -5.76156,1.97643 -13.97574,2.45922 -25.42471,1.49436 l -16.91329,-1.42537 -6.8407,-5.91161 c -8.6039,-7.4353 -11.20402,-7.39851 -20.14027,0.28498 -3.96379,3.40811 -9.67516,7.6399 -12.69193,9.40401 -7.90374,4.62184 -36.020624,5.32924 -50.168326,1.26218 z m 29.277486,-12.46448 c 8.42072,-1.24977 16.31917,-3.39175 17.55212,-4.7599 l 2.24171,-2.48759 -7.67905,1.54292 c -4.22347,0.84861 -14.30325,2.14029 -22.399504,2.8704 l -14.720457,1.32746 -5.496984,-3.69907 c -6.893212,-4.63864 -25.245579,-4.86991 -31.011696,-0.39079 l -4.258868,3.30826 16.455108,0.33826 c 9.05031,0.18613 19.417028,1.11232 23.037152,2.05837 9.247768,2.41675 9.267923,2.41665 26.280469,-0.10839 z m 141.56163,-4.26528 c 0,-7.08199 -20.21361,-10.19767 -36.05095,-5.55683 -5.95088,1.7438 -14.83664,3.37755 -19.74613,3.63058 -4.90949,0.25302 3.90864,1.05999 19.59585,1.79326 15.6872,0.73327 30.24997,1.54024 32.36171,1.79326 2.11174,0.25302 3.83952,-0.4941 3.83952,-1.66027 z m -78.43601,-16.03573 c 6.75537,-3.18759 8.08132,-8.73012 2.19401,-9.17107 -2.11174,-0.15816 -6.30779,-0.57936 -9.32456,-0.93599 -23.53214,-2.78183 -47.11825,-0.59797 -49.03819,4.5405 -1.07043,2.86486 4.50775,6.70704 12.83695,8.84195 7.54726,1.93448 37.01044,-0.29259 43.33179,-3.27539 z m 8.22755,-15.26262 c 0,-1.02989 -2.46826,-3.2292 -5.48503,-4.88735 -6.20874,-3.41259 -7.12141,-9.3199 -2.10103,-13.59902 3.77606,-3.21853 6.58064,-1.26845 8.2156,5.71249 0.70848,3.02504 1.13913,2.18978 1.30997,-2.54071 0.13998,-3.87602 -0.97963,-8.08052 -2.48801,-9.34333 -3.61091,-3.02303 -55.11389,-3.31826 -65.7499,-0.3769 l -8.29809,2.29482 v 4.66936 4.66937 l 4.08768,-5.18446 4.08767,-5.18446 2.4865,4.7716 c 2.56793,4.92786 1.32864,11.85795 -2.12053,11.85795 -1.0776,0 -1.95927,0.79077 -1.95927,1.75727 0,1.80249 21.58929,1.60744 23.35994,-0.21104 0.54074,-0.55535 -0.59202,-2.62748 -2.51725,-4.60473 l -3.50041,-3.59499 2.37612,-4.55979 c 2.86696,-5.50169 13.54248,-6.176 17.63322,-1.11379 l 2.78468,3.446 -5.0925,5.56718 -5.0925,5.56718 h 14.2242 c 9.11029,0 15.75536,1.1894 18.48307,3.30828 5.04977,3.92265 5.35587,4.0129 5.35587,1.57907 z m -63.31749,-34.18018 c 1.17923,0 1.59115,-0.91879 0.91538,-2.04175 -1.55757,-2.5883 -10.00036,-0.43915 -10.00036,2.54564 0,1.22736 1.5617,1.61609 3.47046,0.86384 1.90876,-0.75225 4.43529,-1.36773 5.61452,-1.36773 z m 60.02647,0 c 0.82249,-1.36678 -1.93194,-2.1484 -7.00106,-1.98669 l -8.35704,0.2666 6.58204,1.72009 c 3.62013,0.94606 6.7706,1.84007 7.00107,1.9867 0.23046,0.14663 1.0292,-0.74738 1.77499,-1.9867 z m -26.32817,-2.25959 8.77606,-0.31045 -4.38803,-1.81296 c -2.41342,-0.99713 -4.94145,-1.49174 -5.61785,-1.09914 -0.6764,0.39259 -6.30402,0.9516 -12.50583,1.24223 -6.20181,0.29063 -10.78199,1.34937 -10.17817,2.35276 0.60381,1.00339 4.25682,1.39992 8.1178,0.88118 3.86098,-0.51875 10.96919,-1.08287 15.79602,-1.25362 z m 32.37759,-9.5702 3.59708,-2.81662 0.61149,-15.20974 c 0.33631,-8.36535 1.38304,-15.20973 2.32605,-15.20973 0.94301,0 -1.25579,-5.4054 -4.88623,-12.01199 -3.63044,-6.60659 -6.6008,-13.65409 -6.6008,-15.6611 0,-2.007 -1.2691,-4.45997 -2.82023,-5.451036 -1.55112,-0.991064 -6.68839,-6.871849 -11.41615,-13.068409 -4.72776,-6.196559 -14.02075,-16.51817 -20.65108,-22.936915 l -12.05515,-11.670445 -4.07781,2.241343 c -2.24279,1.232737 -4.67645,3.949482 -5.40813,6.037209 -0.73168,2.087726 -4.4832,8.865778 -8.3367,15.062337 -3.85351,6.196559 -8.28883,16.336383 -9.85627,22.532943 -1.56743,6.196563 -3.930815,12.688963 -5.251952,14.427573 -3.676655,4.83845 -3.011625,38.4109 0.919353,46.41137 l 3.321429,6.75989 33.38042,0.13857 c 18.35922,0.0762 34.06017,0.83671 34.89099,1.68997 2.37264,2.43675 8.37335,1.82018 12.31369,-1.26523 z m -53.88384,-23.40174 c -0.84199,-0.86475 -1.5309,-6.52593 -1.5309,-12.58041 v -11.00814 l -6.51875,-2.33385 -6.51876,-2.33384 -1.43521,-7.85708 c -1.58193,-8.660207 1.21327,-13.411441 6.63339,-11.275347 1.9835,0.781704 3.20017,3.516387 2.89,6.495756 l -0.53571,5.145671 4.39066,0.0839 c 7.82213,0.1494 9.87043,3.199 9.87043,14.69555 0,6.44739 0.99408,11.13349 2.36179,11.13349 1.33412,0 2.19629,-3.67673 1.98143,-8.44986 -0.20919,-4.64741 -0.28469,-10.73131 -0.16777,-13.51976 l 0.21258,-5.06991 h 5.48504 c 3.01677,0 5.48503,-1.13225 5.48503,-2.5161 0,-1.407317 -1.93503,-1.996407 -4.39105,-1.336789 -2.41508,0.648619 -3.83777,0.259889 -3.16154,-0.863843 0.67624,-1.123733 0.18394,-2.043154 -1.09398,-2.043154 -1.27792,0 -2.3235,-2.534956 -2.3235,-5.633236 0,-7.542634 -3.91315,-7.224447 -4.7908,0.389552 -0.76693,6.653462 -3.48145,8.46361 -8.14711,5.432803 l -3.06485,-1.990919 3.35402,-8.675599 3.35402,-8.675603 6.71791,-0.69663 6.71791,-0.696633 3.56279,7.075822 c 2.22143,4.411846 4.72338,6.618427 6.64546,5.860926 1.69548,-0.668194 4.42673,0.755834 6.06944,3.164506 2.55094,3.740381 2.87409,6.780037 1.70419,16.030527 -0.10055,0.79514 -2.53313,2.05152 -5.4057,2.79197 -6.16485,1.58909 -8.32992,8.24395 -6.50193,19.98525 l 1.31555,8.44986 h -7.78002 c -4.27901,0 -9.14647,0.53852 -10.81658,1.19672 -1.67011,0.65819 -3.72548,0.4892 -4.56748,-0.37555 z m 67.66786,-37.59334 c -3.17073,-7.119209 -6.69762,-12.352027 -7.83754,-11.628483 -1.13991,0.723542 -1.56611,-0.03995 -0.9471,-1.696659 0.84941,-2.273321 -13.6643,-29.145462 -20.40378,-37.777628 -1.24941,-1.60028 -7.10013,7.049283 -7.10013,10.496652 0,1.583433 2.93588,6.206048 6.52419,10.272478 13.70181,15.527543 19.13937,23.613125 24.86105,36.9681 3.25216,7.59084 6.0138,15.19571 6.13699,16.89971 0.12319,1.70399 1.19312,0.0182 2.37763,-3.74599 l 2.15364,-6.84416 z M 165.97611,30.398941 c 0.23794,-1.22234 -1.29517,-2.564167 -3.40691,-2.981838 -2.40158,-0.474997 -3.83953,0.630181 -3.83953,2.950979 0,3.920257 6.48396,3.947869 7.24644,0.03087 z m -36.86563,-1.157506 c 0.74578,-1.239312 0.3104,-2.253294 -0.96753,-2.253294 -1.27792,0 -2.32349,1.013982 -2.32349,2.253294 0,1.239312 0.43538,2.253295 0.96752,2.253295 0.53214,0 1.57771,-1.013983 2.3235,-2.253295 z"
       id="path5362"
       inkscape:connector-curvature="0" />
    <path
       style="fill:#aaaaaa;fill-opacity:1;stroke-width:2.22345686"
       d="m 83.036175,257.65484 c -12.809468,-2.8125 -20.504194,-3.2676 -40.326443,-2.38516 l -9.610244,0.42783 -2.3168,-3.73353 -2.316803,-3.73355 2.670723,-9.15491 2.670722,-9.15493 9.256323,-2.58752 9.25632,-2.58751 12.942243,2.44519 c 7.118235,1.34483 13.825971,1.88422 14.906082,1.19864 1.080111,-0.68557 4.353949,0.36188 7.275198,2.32765 5.565107,3.74493 11.521167,4.50494 17.338174,2.21244 l 3.45526,-1.36173 -7.11534,-4.96678 -7.115343,-4.96677 0.757488,-22.611 0.757488,-22.611 -4.286681,-11.05647 C 80.265227,137.06302 80.009355,130.12799 88.872894,101.34685 95.662346,79.300556 102.98348,64.337255 111.53904,55.020607 c 8.8433,-9.629974 9.00575,-10.417707 3.95817,-19.193459 l -3.74021,-6.502737 6.3447,-6.801371 c 3.48959,-3.740753 8.62825,-6.80137 11.41926,-6.80137 10.82959,0 18.25898,15.970367 10.50424,22.580122 l -3.34638,2.852281 3.68642,4.183504 c 7.13258,8.094361 16.99751,3.741859 11.10424,-4.899297 -4.40117,-6.45332 -1.74085,-17.416904 5.28924,-21.797761 l 5.69431,-3.548454 8.01138,1.543553 c 5.33172,1.027261 8.0959,2.828357 8.26404,5.384715 0.48012,7.299512 -0.45031,12.87425 -3.0294,18.150747 l -2.58882,5.296411 3.23129,2.598269 c 1.77721,1.429051 3.41022,3.65289 3.62891,4.941869 0.2187,1.288976 4.9084,9.857531 10.42157,19.041233 5.51317,9.1837 10.02395,17.54581 10.02395,18.582468 0,1.036655 2.17684,4.90872 4.83743,8.604587 l 4.83743,6.719763 -0.53625,14.91644 -0.53625,14.91645 -8.80443,18.94551 -8.80444,18.94552 0.45277,22.9826 c 0.24902,12.64043 -0.2993,25.39344 -1.21849,28.34003 l -1.67125,5.35741 17.24031,-1.92782 c 18.69817,-2.09088 33.22205,-2.2423 43.56849,-0.45427 l 6.58204,1.13749 2.61869,7.658 c 1.44026,4.2119 2.6744,9.43247 2.74252,11.60126 l 0.12383,3.94327 -12.61558,0.26683 c -6.93857,0.14669 -13.60289,-0.078 -14.8096,-0.49946 -1.20671,-0.42146 -7.13055,-0.51711 -13.16409,-0.21249 -6.03354,0.30456 -19.59158,0.64652 -30.12899,0.75986 l -19.15892,0.20618 -11.11557,-7.32555 -11.11557,-7.32558 -8.12076,7.13939 c -16.71835,14.69781 -32.58386,18.03654 -58.583095,12.32809 z m 28.080935,-11.89095 c 5.79085,-0.97816 11.71469,-3.07165 13.16409,-4.6522 l 2.63526,-2.87372 -12.06708,1.81014 c -15.573604,2.33615 -35.252987,1.428 -39.04216,-1.80171 -3.02288,-2.57655 -27.358096,-2.99244 -31.231681,-0.53374 -1.170748,0.74312 -2.12863,2.73483 -2.12863,4.42606 v 3.07493 l 12.86728,-0.84129 c 7.077004,-0.46269 15.715936,0.0345 19.197626,1.105 8.006897,2.46172 23.03146,2.57932 36.605295,0.28653 z m 137.3917,-7.30277 c -3.20616,-6.15265 -19.71024,-7.58196 -38.52371,-3.3363 -8.95175,2.02015 -18.96294,3.68851 -22.24709,3.70748 -3.91114,0.0225 -5.00234,0.66592 -3.16292,1.86469 1.54454,1.00659 17.01823,1.7918 34.38598,1.74491 l 31.57771,-0.0852 -2.02997,-3.89551 z m -81.49506,-11.32301 c 10.93651,-2.88917 12.67404,-4.80002 8.37725,-9.21292 -2.07939,-2.13556 -10.61389,-3.67813 -25.50456,-4.60982 l -22.37941,-1.40025 -7.42583,3.18654 c -12.20823,5.23874 -9.7079,9.10626 8.95093,13.84533 11.4797,2.91567 21.99291,2.41497 37.98162,-1.80888 z m 12.50131,-17.53717 c 0.71403,-1.18653 -1.69597,-3.74753 -5.35555,-5.6911 -7.47723,-3.9711 -8.16227,-6.08706 -3.30974,-10.22311 3.86893,-3.29768 4.51906,-2.88082 7.22762,4.6343 l 2.00055,5.55071 1.65252,-7.72182 1.65252,-7.72183 -3.96994,-2.98132 c -4.54642,-3.41425 -14.88055,-4.12189 -45.91453,-3.14404 -26.18663,0.82512 -29.70164,2.2691 -29.3858,12.07179 l 0.2334,7.24393 2.39727,-6.23485 c 2.7045,-7.03395 6.66962,-7.03538 7.68234,-0.003 0.41241,2.86393 -1.2646,6.06991 -4.32771,8.27336 l -5.00105,3.59743 h 12.37582 c 6.8067,0 13.98015,-0.63227 15.941,-1.40505 l 3.56519,-1.40505 -3.84202,-4.36008 -3.84201,-4.36009 2.32585,-3.81136 c 3.1332,-5.13436 10.38084,-5.9684 13.9103,-1.60076 l 2.87256,3.55474 -4.90848,5.36601 -4.90848,5.366 15.00802,1.43265 c 8.25442,0.78795 16.48899,2.33983 18.29905,3.4486 4.37848,2.6821 6.06522,2.70947 7.6213,0.12364 z m -65.94212,-33.00981 c 5.3413,-2.10503 4.11319,-5.39215 -2.01458,-5.39215 -3.41291,0 -5.48503,1.27686 -5.48503,3.37994 0,3.63673 2.00947,4.1759 7.49961,2.01221 z m 62.70885,-1.70234 v -3.07007 l -18.10062,-1.33175 c -9.95534,-0.73246 -20.56889,-1.0013 -23.58566,-0.59744 -3.01677,0.40386 -6.71917,0.86371 -8.22755,1.02187 -1.50839,0.15816 -2.74252,1.26609 -2.74252,2.46204 0,1.20817 9.99361,2.49898 22.48865,2.90473 12.36876,0.40164 24.21643,0.94411 26.32817,1.20548 2.11174,0.26136 3.83953,-0.90632 3.83953,-2.59486 z m 9.79546,-19.82576 c -0.80602,-3.76891 -0.29425,-11.14884 1.13727,-16.39984 l 2.60274,-9.54728 -9.21749,-17.82779 C 170.93386,92.593036 153.15001,69.437637 138.55758,56.547252 l -8.62641,-7.620242 -5.15658,2.412974 c -2.83612,1.327138 -5.87663,4.742941 -6.75669,7.590677 -0.88005,2.847733 -4.0572,8.990939 -7.06031,13.651567 -6.06506,9.412547 -15.091422,33.279432 -18.689037,49.416262 l -2.343548,10.51181 3.000675,12.84617 c 1.650373,7.0654 4.366959,14.24938 6.036861,15.9644 l 3.036189,3.11822 32.205,0.15838 c 17.71274,0.0871 34.17961,0.97151 36.59302,1.96535 2.74049,1.12852 6.708,0.59532 10.567,-1.42013 l 6.17898,-3.2271 z m -58.69397,-16.80849 c -0.8601,-0.88334 -1.56382,-6.4078 -1.56382,-12.27657 v -10.67049 l -6.71846,-2.40535 -6.71845,-2.40535 0.68491,-8.34405 c 0.37862,-4.612566 2.04985,-8.805241 3.73708,-9.375329 l 3.05216,-1.031281 -1.39104,5.692089 -1.39104,5.692091 3.45485,1.36157 c 1.90017,0.74886 5.29713,1.36157 7.54879,1.36157 h 4.09392 l 0.66316,11.8298 0.66317,11.82979 h 3.29102 3.29102 l -0.71089,-9.708 c -0.76444,-10.43934 2.40546,-16.69261 7.45334,-14.70322 1.87607,0.73936 3.13061,-0.15643 3.13061,-2.23539 0,-1.90804 -2.01517,-4.126048 -4.47817,-4.928892 -2.65829,-0.866506 -4.9988,-4.133206 -5.75929,-8.038375 -1.65688,-8.50825 -4.8719,-8.419251 -6.54675,0.181228 -1.60188,8.225856 -7.34994,9.106955 -7.34994,1.126647 0,-13.099195 15.19087,-17.92754 20.28406,-6.447189 1.29823,2.9263 4.05567,5.320542 6.12764,5.320542 5.48267,0 9.11372,5.567823 8.30256,12.731069 l -0.70704,6.24371 -5.48504,1.33465 -5.48503,1.33465 -0.0353,13.40088 -0.0353,13.40087 -9.91941,0.6672 c -5.45567,0.36696 -10.62312,-0.0555 -11.48322,-0.93887 z m 72.87846,-19.47523 c 0.0848,-3.42493 -0.79689,-7.98785 -1.95934,-10.13983 -1.16246,-2.15198 -3.97865,-7.96862 -6.2582,-12.925863 C 183.98884,78.19595 175.63882,63.04085 174.04246,63.04085 c -0.88899,0 -2.84321,-3.041948 -4.34272,-6.759883 -3.16726,-7.853046 -3.97963,-8.142103 -7.9159,-2.816618 -4.52191,6.117818 -3.58222,12.335227 2.98952,19.780111 13.07961,14.817393 19.81927,25.360151 25.413,39.75317 3.21286,8.2669 5.91095,16.37876 5.99576,18.02636 0.26859,5.21746 3.91848,-5.73743 4.07962,-12.24468 z M 167.1181,30.744685 c 0.47831,-2.532892 -0.77238,-3.756544 -3.83952,-3.756544 -2.5019,0 -4.54891,1.351977 -4.54891,3.004392 0,6.901261 7.10691,7.538504 8.38843,0.752152 z m -36.74606,-2.122906 c -0.27139,-2.69427 -3.28069,-2.172479 -4.22348,0.732321 -0.48268,1.487174 0.30716,2.29836 1.75521,1.802635 1.44805,-0.495724 2.55877,-1.636454 2.46827,-2.534956 z"
       id="path5360"
       inkscape:connector-curvature="0" />
    <path
       style="fill:#6e6e6e;fill-opacity:1;stroke-width:2.22345686"
       d="m 101.6853,259.85495 c -34.653295,-5.96271 -46.441912,-7.57001 -48.047367,-6.55098 -3.594436,2.28151 -16.677645,3.50592 -19.244628,1.80104 -4.898543,-3.2534 -5.368179,-12.65829 -0.994992,-19.92559 l 4.211325,-6.99833 8.452175,-1.35986 c 8.630638,-1.38859 38.649488,2.80605 41.573653,5.80922 2.336263,2.39937 17.947804,2.04477 19.444084,-0.44167 0.69585,-1.15632 -1.71415,-3.90989 -5.35556,-6.11905 -6.879438,-4.17359 -7.451139,-6.2545 -6.408083,-23.32463 1.217788,-19.92975 0.566051,-28.27959 -2.814045,-36.05271 -5.427281,-12.48098 -8.36868,-25.55517 -8.36868,-37.19785 0,-21.46589 15.252506,-61.404727 28.336138,-74.198468 7.28882,-7.127323 8.1855,-11.381191 4.26286,-20.223073 l -2.50524,-5.646956 3.63,-5.689764 c 7.06667,-11.076498 18.97494,-9.613615 23.60747,2.900082 l 2.02374,5.466663 -3.5032,5.491033 -3.50321,5.49103 4.87763,4.344645 c 5.82842,5.191549 6.53599,5.260516 11.9853,1.16822 l 4.22974,-3.176428 -3.8104,-4.324205 c -5.73111,-6.50392 -4.54266,-20.869061 1.72654,-20.869061 1.5804,0 3.2431,-1.138902 3.69489,-2.530893 0.54743,-1.686675 3.90174,-1.99642 10.0559,-0.928588 l 9.23446,1.602306 v 9.808783 c 0,5.39483 -0.9873,10.435456 -2.19401,11.201394 -1.20671,0.765937 -2.19402,3.360734 -2.19402,5.766218 0,2.405484 0.98731,4.373606 2.19402,4.373606 1.20671,0 2.19401,1.171767 2.19401,2.603927 0,1.43216 2.46827,5.927426 5.48504,9.98948 3.01677,4.062054 5.48503,7.836802 5.48503,8.388327 0,0.551526 4.44288,9.251923 9.87307,19.334219 l 9.87306,18.331443 v 11.45838 c 0,11.18427 -1.27897,15.34547 -12.23036,39.79224 l -5.32175,11.87971 v 26.53896 c 0,18.14059 -0.86788,27.48141 -2.74252,29.51715 l -2.74252,2.9782 19.74613,-1.65029 c 26.65381,-2.22763 26.93851,-2.22952 39.80109,-0.26534 l 11.27892,1.72232 1.33666,6.86394 c 0.73517,3.7752 1.33669,8.86636 1.33669,11.31373 v 4.44976 l -18.10062,-1.58923 c -9.95534,-0.87407 -19.58158,-1.45727 -21.39164,-1.296 -1.81007,0.16133 -13.30558,0.74543 -25.5456,1.29812 l -22.25457,1.0049 -9.55864,-6.6526 c -5.25725,-3.65895 -10.75841,-6.67106 -12.22481,-6.69362 -1.46639,-0.0225 -5.90927,2.81349 -9.87306,6.30231 -12.27449,10.80371 -27.77512,16.64874 -39.0201,14.71383 z m 17.55211,-15.42319 c 7.35114,-2.5919 9.04131,-7.36737 2.19402,-6.19908 -1.81006,0.30883 -11.22991,1.20497 -20.933,1.99141 l -17.64198,1.4299 -7.291925,-3.87269 -7.291923,-3.87267 -12.75369,1.52021 c -8.267643,0.9855 -13.198041,2.70947 -14.016972,4.90123 -2.077751,5.56083 0.56135,7.22559 8.092756,5.10497 4.578542,-1.28918 13.367849,-0.9807 24.665422,0.86572 18.762827,3.06646 32.611452,2.49099 44.977292,-1.869 z m 130.87489,-2.25401 c 0.38205,-1.23932 -0.15226,-3.62727 -1.18711,-5.30658 -2.53876,-4.11936 -28.27657,-6.08732 -37.77027,-2.888 -4.09637,1.38046 -14.62754,2.70208 -23.4026,2.93694 -28.21196,0.7551 -13.72452,5.04481 22.0419,6.52658 39.39276,1.63199 39.42409,1.631 40.31808,-1.26894 z m -78.6765,-15.28653 7.2211,-2.58576 -0.63905,-4.58362 -0.63906,-4.58363 -15.3581,-1.84739 c -21.32233,-2.56482 -44.46828,-0.76772 -48.91365,3.79776 l -3.55463,3.65068 2.36458,2.42847 c 7.82088,8.03219 41.58697,10.14459 59.51881,3.72349 z m 10.05677,-22.17449 c 0.75419,-3.87285 1.37126,-9.88842 1.37126,-13.36792 v -6.32638 l -4.75238,-1.5491 c -6.72609,-2.19246 -44.62362,-3.37608 -58.23675,-1.81887 -6.28638,0.71911 -12.90108,2.46324 -14.69931,3.87584 l -3.26953,2.56838 1.65056,7.88653 1.65057,7.88653 2.73984,-7.88653 2.73985,-7.88653 2.40495,4.33705 2.40494,4.33705 -5.80863,5.13137 c -3.19474,2.82225 -5.80863,5.55809 -5.80863,6.07963 0,0.52154 6.17067,0.41143 13.71259,-0.24469 18.95172,-1.64873 50.18152,-0.57617 54.2358,1.86269 5.88333,3.53912 8.25811,2.3388 9.66487,-4.88505 z m -9.57562,-3.06959 c -2.82965,-3.50163 -1.61929,-10.16852 1.84607,-10.16852 1.76899,0 4.59989,7.15146 4.68282,11.8298 0.0502,2.8325 -3.6605,1.88831 -6.52889,-1.66128 z m -38.73149,-2.95674 -2.46558,-4.05469 2.7282,-3.83184 c 3.39125,-4.76312 8.50684,-4.92003 12.18076,-0.37362 l 2.79456,3.45822 -4.62819,4.42831 c -5.71706,5.47017 -7.47304,5.532 -10.60975,0.37362 z m -14.4305,-24.83557 0.95248,-2.97739 -7.19659,0.72409 c -3.95813,0.39825 -7.62522,2.06391 -8.14908,3.70148 l -0.95249,2.97738 7.1966,-0.72409 c 3.95813,-0.39825 7.62521,-2.06391 8.14908,-3.70147 z m 58.05718,0.72409 c 0.31166,-1.23932 -3.38257,-2.52357 -8.2094,-2.8539 -12.50748,-0.85596 -18.64913,-2.52748 -18.64913,-5.07556 0,-2.94976 7.4655,-2.79453 17.74663,0.369 l 8.38266,2.57936 5.58448,-3.75796 5.58448,-3.75795 v -11.06784 c 0,-6.08731 0.99688,-13.76068 2.21529,-17.05193 l 2.21529,-5.98408 -6.39011,-9.72418 c -3.51456,-5.34829 -7.12056,-12.1008 -8.01333,-15.00557 -3.68578,-11.992318 -41.34885,-53.727226 -48.48536,-53.727226 -5.11797,0 -11.75024,5.384835 -11.75024,9.54018 0,1.352118 -2.87331,7.110092 -6.38513,12.795494 -8.59282,13.911185 -19.943044,47.881362 -19.943044,59.687702 0,10.68513 5.638316,29.77636 9.522054,32.24149 1.3911,0.88298 12.6527,1.37412 25.02579,1.09143 14.1109,-0.3224 22.49653,0.34005 22.49653,1.77716 0,1.26013 -3.7024,2.30499 -8.22755,2.32191 -14.49033,0.0542 -24.68522,5.14925 -14.2611,7.12722 9.37734,1.77933 51.02009,0.54741 51.54119,-1.52475 z m -49.82578,-39.20649 c -0.79758,-2.58083 -0.86255,-5.66885 -0.14439,-6.86226 2.569,-4.26904 -1.59839,-13.68085 -7.29227,-16.46916 l -5.79732,-2.83897 -0.68752,-7.30754 c -0.47806,-5.081291 0.24342,-7.30753 2.36822,-7.30753 1.74739,0 2.98115,2.144453 2.88153,5.008485 l -0.1742,5.008485 6.58204,1.1997 6.58204,1.1997 0.68939,11.21128 c 0.66048,10.74116 3.53611,15.74379 7.57595,13.17957 1.04104,-0.66078 1.72404,-3.88932 1.51778,-7.17452 -0.20626,-3.28521 -0.2704,-8.76156 -0.14254,-12.16967 l 0.23249,-6.19656 h 4.25854 c 7.74455,0 7.57236,-6.644928 -0.24884,-9.603073 -2.01814,-0.763303 -3.99276,-3.731288 -4.38803,-6.595523 -0.94807,-6.8699 -6.76214,-6.690121 -8.35933,0.25848 -0.69105,3.006399 -2.46334,5.87935 -3.93844,6.384333 -3.31224,1.13391 -3.37497,-1.249936 -0.27336,-10.387621 l 2.40864,-7.096126 h 5.21983 c 3.14676,0 6.64717,2.237255 8.81376,5.633235 1.97667,3.09828 5.25754,5.633236 7.29083,5.633236 5.40781,0 8.96253,4.559825 8.96253,11.496699 v 6.0888 l -6.58205,2.3565 -6.58204,2.35651 v 12.51034 12.51033 l -4.93653,0.0308 c -2.71509,0.0169 -7.06279,0.61661 -9.66156,1.33264 l -4.72502,1.30189 z m 73.11202,-10.92931 2.23182,-10.70315 -11.37869,-22.509911 c -6.25829,-12.38045 -12.74998,-24.001034 -14.426,-25.823521 -1.67601,-1.822487 -4.40435,-6.649266 -6.06298,-10.726181 -1.65863,-4.076912 -3.77687,-7.412567 -4.70721,-7.412567 -2.00319,0 -9.21966,12.064739 -9.21966,15.413743 0,1.278911 5.4896,8.727328 12.19911,16.552041 12.18299,14.207949 23.2254,34.754846 26.11318,48.589486 0.84074,4.02776 1.86387,7.32321 2.27362,7.32321 0.40975,0 1.74932,-4.81642 2.97681,-10.70315 z m -32.73373,-90.557864 3.14994,-2.047054 -2.87008,-3.551679 c -3.68228,-4.556754 -8.07513,-4.542562 -9.78423,0.03161 -2.53096,6.77379 2.82244,9.909513 9.50437,5.567126 z M 132.4015,27.87371 c 0,-3.602798 -5.65167,-4.254566 -7.67905,-0.885569 -0.74579,1.239312 -0.77244,3.222993 -0.0592,4.408178 1.80472,2.999007 7.73827,0.297942 7.73827,-3.522609 z"
       id="path5358"
       inkscape:connector-curvature="0" />
    <path
       style="fill:#000000;fill-opacity:1;stroke-width:2.22345686"
       d="m 86.327197,256.35322 c -4.223478,-1.24461 -18.045769,-2.4083 -30.716202,-2.58597 L 32.573844,253.44422 31.865925,247.102 c -0.949771,-8.50891 4.70988,-16.79384 12.974879,-18.99337 6.825792,-1.81654 36.085085,1.39343 40.68187,4.4631 5.188341,3.46471 17.405546,4.05719 21.424546,1.03904 l 4.06093,-3.04966 -8.22877,-4.98629 -8.228771,-4.98626 1.533153,-22.20952 1.533155,-22.20952 -4.178446,-8.68183 C 87.266762,154.66432 83.3184,134.51257 84.811804,123.45868 88.014997,99.749249 99.300512,72.659561 113.04219,55.694615 l 8.68825,-10.726177 -3.44053,-7.083046 c -4.4443,-9.149531 -4.42862,-9.267928 2.11885,-15.992301 11.83366,-12.1533909 27.03124,1.61737 18.06248,16.366679 l -2.70633,4.450597 4.80733,4.937215 4.80733,4.937216 5.57804,-2.610196 c 6.41225,-3.000554 7.01143,-6.063187 2.16085,-11.044828 -1.87946,-1.930242 -2.86677,-4.982694 -2.19402,-6.783225 0.67275,-1.800533 1.22319,-4.59512 1.22319,-6.210196 0,-5.178004 10.1411,-10.272293 17.4573,-8.769518 8.58753,1.763913 10.5554,8.874382 5.49006,19.837197 l -3.76316,8.144552 3.57198,4.053648 c 1.9646,2.229504 3.57199,4.801945 3.57199,5.716535 0,0.914587 2.43248,4.938203 5.40552,8.941365 9.35707,12.59922 25.31068,46.967528 25.31068,54.525918 0,12.04389 -2.55382,21.26681 -5.88877,21.26681 -1.73471,0 -2.47523,1.11506 -1.65059,2.48542 1.62766,2.70476 -7.50265,24.55411 -10.26056,24.55411 -0.93045,0 -1.50217,12.42128 -1.27047,27.60285 0.2317,15.18157 -0.43369,30.03948 -1.47865,33.01757 l -1.89992,5.41473 11.77299,-1.97832 c 16.1789,-2.71867 53.95528,-2.48313 56.71743,0.35365 1.24315,1.27674 2.49958,6.13191 2.79208,10.78927 l 0.53179,8.46795 -12.61558,0.41726 c -6.93858,0.2295 -12.61559,-0.4859 -12.61559,-1.58979 0,-1.16283 -5.30655,-1.20299 -12.61558,-0.0955 -6.93857,1.05139 -21.00769,1.84865 -31.26471,1.77172 l -18.64912,-0.13993 -8.53372,-5.96307 c -4.69355,-3.27969 -10.12373,-5.95322 -12.06708,-5.94119 -1.94335,0.0113 -7.85274,3.54826 -13.13199,7.85832 -14.5723,11.89719 -31.95123,15.21124 -50.736763,9.67535 z m 21.726023,-8.66378 c 7.72583,-1.28742 16.02899,-3.43017 18.45145,-4.76166 l 4.40448,-2.4209 -3.32142,-1.90899 c -1.82909,-1.05127 -9.13358,-0.99879 -16.25743,0.11672 -15.477355,2.42369 -28.871829,1.73306 -35.340097,-1.82217 -5.774854,-3.17408 -22.442139,-3.39756 -30.109443,-0.4037 -3.303042,1.28974 -5.627866,3.95791 -5.627866,6.45902 v 4.2615 l 14.809597,-0.99961 c 8.145279,-0.54978 18.758824,-0.009 23.585655,1.20117 11.81409,2.96261 13.218702,2.97592 29.405074,0.27862 z m 142.8251,-7.12239 c -9e-5,-8.69605 -20.30782,-12.508 -39.46896,-7.4087 -6.9981,1.86239 -18.75196,3.38616 -26.11971,3.38616 -7.46792,0 -13.39589,0.99713 -13.39589,2.25329 0,1.23932 2.22144,2.26882 4.93653,2.2878 2.71509,0.018 6.07647,0.77946 7.46973,1.68997 1.39325,0.91051 16.94335,1.65547 34.55576,1.65547 h 32.02256 z m -96.95973,-8.65254 c 5.66287,-1.30721 13.94571,-3.47956 18.40633,-4.82748 l 8.11022,-2.45077 -1.2007,-6.16571 c -0.66191,-3.39897 -0.11699,-6.85358 1.21434,-7.69863 3.55485,-2.25637 3.1133,-25.91943 -0.5103,-27.34751 -1.60895,-0.63409 -2.92535,-4.06545 -2.92535,-7.62524 v -6.47234 l 5.11936,-2.39556 5.11937,-2.39556 0.0123,-9.62481 c 0.007,-5.29365 1.0523,-13.47134 2.32349,-18.17267 l 2.31125,-8.54785 -6.71152,-11.20232 c -3.69138,-6.16128 -6.71157,-12.34243 -6.71157,-13.7359 0,-6.47945 -43.66149,-55.918387 -49.42564,-55.965819 -3.48996,-0.02872 -12.00676,6.701761 -12.00676,9.488451 0,1.370366 -2.99656,7.287476 -6.65902,13.149128 -19.352282,30.97276 -25.314656,79.38206 -11.52186,93.54752 l 3.64331,3.74175 21.52988,-1.56764 21.52988,-1.56763 v 2.7287 c 0,1.83786 -2.40413,2.32804 -7.36393,1.50143 -4.05015,-0.67501 -9.72717,0.0176 -12.61558,1.53932 -3.27454,1.72506 -6.49065,2.01106 -8.54268,0.75969 -1.99732,-1.218 -5.75655,-1.03856 -9.56303,0.45649 l -6.27201,2.46341 2.68353,3.32081 c 1.57679,1.95126 4.64678,2.81476 7.44388,2.09377 5.25381,-1.35425 39.08544,-1.91831 52.87894,-0.88163 4.82683,0.36278 -5.53989,1.3506 -23.03715,2.19517 -17.49727,0.84456 -33.58775,2.3213 -35.75662,3.28163 l -3.94341,1.74607 0.65239,11.54777 0.65238,11.54778 14.2611,-0.49557 c 7.8436,-0.27257 16.23571,-0.70684 18.64912,-0.96505 11.27221,-1.20599 31.34937,0.61588 34.71963,3.15059 l 3.7451,2.81662 h -29.2644 -29.26441 l -3.68055,3.78231 c -2.0243,2.08028 -3.68055,4.32606 -3.68055,4.99064 0,2.39468 10.10945,6.73907 21.94015,9.42844 6.63689,1.50872 12.37036,2.84701 12.74103,2.97401 0.37068,0.12709 5.30721,-0.83863 10.97007,-2.14581 z M 107.12534,200.4918 c 2.2103,-7.61449 4.68655,-10.01417 6.18775,-5.9964 0.6822,1.82582 -0.79887,5.18942 -3.29128,7.47466 l -4.53165,4.15498 z m 27.55402,-1.02289 c -3.92504,-4.85717 -1.18921,-10.24358 5.20285,-10.24358 7.65149,0 8.5749,3.04805 2.65403,8.7607 l -5.08811,4.90918 z m 36.11739,1.02289 c -1.53587,-2.55223 0.43393,-6.75988 3.16462,-6.75988 0.99475,0 2.32501,2.02796 2.95613,4.50659 1.20167,4.71935 -3.57788,6.4789 -6.12075,2.25329 z m -13.16408,-31.54612 -4.38803,-1.93655 h 6.58204 c 3.62012,0 8.55666,0.87145 10.97007,1.93655 l 4.38803,1.93655 h -6.58204 c -3.62013,0 -8.55666,-0.87145 -10.97007,-1.93655 z m -29.6192,-42.92981 v -11.38368 l -6.59527,-2.36125 c -7.18326,-2.57175 -11.0785,-11.70046 -6.84698,-16.046312 l 2.47218,-2.538976 v 6.019468 6.01947 l 7.13055,1.90254 7.13054,1.90254 v 9.3075 c 0,5.11912 1.23414,10.57866 2.74252,12.1323 l 2.74252,2.82482 2.54361,-2.61234 c 1.39899,-1.43678 2.63312,-7.46998 2.74252,-13.4071 l 0.1989,-10.79476 4.93654,-0.72004 c 6.61537,-0.96492 6.27827,-6.754119 -0.54851,-9.419786 l -5.48503,-2.141752 v -5.689007 -5.689007 h -4.1533 c -4.31596,0 -7.74548,5.646947 -5.5974,9.216519 0.67848,1.127474 -0.30845,2.049953 -2.19319,2.049953 h -3.4268 l 2.90938,-7.323207 c 3.87233,-9.74707 9.02407,-10.313026 16.03074,-1.761093 3.16395,3.861738 6.27942,6.480321 6.92327,5.819076 2.47641,-2.543321 7.05941,4.11627 7.05941,10.258084 v 6.44105 l -5.35583,1.38054 c -6.16257,1.5885 -8.99596,10.55498 -6.71125,21.23826 l 1.44566,6.75988 h -10.04739 -10.04739 z m 72.47482,0.88599 2.57745,-12.751 -8.91504,-18.231799 c -4.90327,-10.027489 -12.41063,-23.774508 -16.683,-30.548931 -4.27238,-6.774424 -7.76796,-13.618805 -7.76796,-15.209737 0,-1.590932 -0.4129,-2.892603 -0.91756,-2.892603 -0.50466,0 -2.47927,-0.615476 -4.38803,-1.367725 l -3.47046,-1.367725 v 4.614684 c 0,2.538076 -0.98731,5.241358 -2.19402,6.007296 -4.87994,3.097461 -1.79608,12.147829 7.75284,22.752654 5.47078,6.075718 12.56453,15.511789 15.7639,20.969049 7.17852,12.244617 14.0247,32.997497 12.35752,37.459487 -0.68172,1.82454 -0.21656,3.31735 1.0337,3.31735 1.25026,0 3.43306,-5.73795 4.85066,-12.751 z M 169.69974,32.726389 c 0,-4.023858 -3.41861,-7.991542 -6.88563,-7.991542 -5.29936,0 -7.62952,5.752852 -4.09951,10.121171 l 2.66985,3.303895 4.15765,-2.285223 c 2.2867,-1.256874 4.15764,-2.673608 4.15764,-3.148301 z m -37.58592,-2.002306 c 2.89855,-3.586905 1.10719,-5.989236 -4.46602,-5.989236 -2.55968,0 -4.02236,1.63876 -4.02236,4.506588 0,5.138129 4.84986,5.985243 8.48838,1.482648 z"
       id="path5356"
       inkscape:connector-curvature="0" />
  </g>
</svg>
