<?xml version="1.0" encoding="UTF-8" standalone="no"?>
<!-- Creator: CorelDRAW -->
<svg id="svg2" text-rendering="geometricPrecision" xml:space="preserve" height="50mm" xmlns:dc="http://purl.org/dc/elements/1.1/" fill-rule="evenodd" viewBox="0 0 50 50" width="50mm" xmlns:xlink="http://www.w3.org/1999/xlink" clip-rule="evenodd" image-rendering="optimizeQuality" xmlns:cc="http://web.resource.org/cc/" shape-rendering="geometricPrecision" xmlns:rdf="http://www.w3.org/1999/02/22-rdf-syntax-ns#" xmlns="http://www.w3.org/2000/svg"><metadata id="metadata13"><rdf:RDF><cc:Work rdf:about=""><dc:format>image/svg+xml</dc:format><dc:type rdf:resource="http://purl.org/dc/dcmitype/StillImage"/></cc:Work></rdf:RDF></metadata><defs id="defs11">
 <linearGradient id="linearGradient2198" y2="37.469" gradientUnits="userSpaceOnUse" x2="77.669" y1="37.101" x1="21.094"><stop id="stop2194" stop-color="#fff" offset="0"/><stop id="stop2196" stop-color="#fff" stop-opacity="0" offset="1"/></linearGradient></defs>
 <path id="path6" fill="#1f1a17" d="m25 42.162c-0.229 0.94-0.516 1.592-0.847 1.956-0.33 0.364-0.762 0.745-1.312 1.143-0.593 0.415-1.295 0.762-2.108 1.05s-1.711 0.364-2.701 0.211l-6.968-0.965c-0.288-0.034-0.534-0.034-0.762 0-0.22 0.034-0.4319 0.051-0.6351 0.051-0.3472 0-0.7874 0.076-1.3208 0.237-0.5419 0.153-0.9568 0.381-1.2531 0.677l-2.4045-3.945c0.2963-0.33 0.5588-0.559 0.7874-0.694 0.237-0.127 0.508-0.271 0.8212-0.415 0.9568-0.449 1.9812-0.72 3.0734-0.821 0.4657-0.034 0.9225-0.043 1.3635-0.026 0.448 0.017 0.914 0 1.397-0.051 0.889 0.153 1.786 0.288 2.684 0.407 0.905 0.127 1.811 0.254 2.717 0.389 0.991 0 1.66-0.101 2.007-0.296 0.186-0.102 0.474-0.288 0.872-0.55 0.398-0.263 0.796-0.652 1.194-1.169-0.881-0.093-1.77-0.262-2.684-0.508-0.906-0.237-1.71-0.491-2.405-0.753l2.583-6.401c-1.296-0.745-2.193-1.338-2.71-1.795-0.508-0.457-0.914-0.982-1.21-1.575-0.432-0.762-0.711-1.498-0.83-2.21-0.127-0.711-0.178-1.346-0.161-1.913 0.017-0.991 0.246-2.083 0.703-3.285 0.457-1.194 1.312-2.269 2.565-3.209 1.042-0.796 2.066-1.617 3.057-2.455 0.99-0.847 1.972-1.829 2.946-2.955-1.219-0.627-1.829-1.626-1.829-2.9974 0-0.9314 0.322-1.7188 0.974-2.3876 0.652-0.6604 1.456-0.9906 2.396-0.9906 0.923 0 1.719 0.3302 2.379 0.9906 0.661 0.6688 0.991 1.4562 0.991 2.3876 0 1.3544-0.61 2.3534-1.829 2.9974 0.957 1.126 1.93 2.108 2.913 2.955 0.982 0.838 2.014 1.659 3.09 2.455 1.236 0.94 2.083 2.015 2.523 3.209 0.449 1.202 0.694 2.294 0.719 3.285 0 0.567-0.05 1.202-0.169 1.913-0.118 0.712-0.381 1.448-0.796 2.21-0.33 0.593-0.745 1.118-1.253 1.575-0.499 0.457-1.388 1.05-2.667 1.795l2.583 6.401c-0.728 0.262-1.55 0.516-2.456 0.753-0.914 0.246-1.786 0.415-2.633 0.508 0.381 0.517 0.771 0.906 1.169 1.169 0.398 0.262 0.694 0.448 0.897 0.55 0.347 0.195 1.016 0.296 2.007 0.296 0.889-0.135 1.786-0.262 2.692-0.389 0.898-0.119 1.803-0.254 2.718-0.407 0.44 0.051 0.889 0.068 1.346 0.051s0.923-0.008 1.406 0.026c1.058 0.101 2.082 0.372 3.073 0.821 0.296 0.144 0.567 0.288 0.804 0.415 0.246 0.135 0.508 0.364 0.805 0.694l-2.43 3.945c-0.297-0.296-0.712-0.524-1.254-0.677-0.533-0.161-0.965-0.237-1.295-0.237-0.22 0-0.44-0.017-0.66-0.051s-0.474-0.034-0.754 0l-6.951 0.965c-0.99 0.153-1.913 0.085-2.76-0.194-0.855-0.28-1.558-0.652-2.1-1.118-0.542-0.449-0.982-0.83-1.304-1.151-0.321-0.322-0.592-0.957-0.804-1.897z"/><path id="path8" fill="url(#linearGradient2198)" d="m24.086 23.705v2.108c0 0.61 0.304 0.914 0.914 0.914s0.914-0.304 0.914-0.914v-2.134h2.236c0.575 0 0.872-0.296 0.872-0.897 0-0.593-0.297-0.889-0.872-0.889h-2.236v-2.235c0-0.61-0.304-0.915-0.914-0.915s-0.914 0.305-0.914 0.915v2.235h-2.185c-0.584 0-0.872 0.296-0.872 0.889 0 0.601 0.288 0.897 0.872 0.897l2.185 0.026zm7.51 13.741l-1.042-2.531c-1.685-0.364-3.539-0.542-5.554-0.542-1.998 0-3.835 0.178-5.503 0.542l-1.042 2.506c2.049-0.517 4.234-0.771 6.545-0.771 2.286 0 4.479 0.263 6.596 0.796zm-2.083-5.114l-0.72-1.735v-0.669c-1.253-0.178-2.523-0.271-3.793-0.271-1.236 0-2.498 0.093-3.768 0.271l-0.025 0.669-0.669 1.735c1.406-0.245 2.887-0.372 4.462-0.372 1.592 0 3.09 0.127 4.513 0.372zm-0.864 9.381c-0.66-0.499-1.329-1.287-1.989-2.362h-0.788c0 0.813 0.186 1.6 0.567 2.362h2.21zm-5.114 0c0.381-0.812 0.576-1.6 0.576-2.362h-0.796c-0.643 1.059-1.312 1.846-2.015 2.362h2.235z"/>
</svg>
