<?xml version="1.0" encoding="UTF-8" standalone="no"?>
<!-- Creator: CorelDRAW -->
<svg id="svg2" text-rendering="geometricPrecision" xml:space="preserve" height="50mm" xmlns:dc="http://purl.org/dc/elements/1.1/" fill-rule="evenodd" viewBox="0 0 50 50" width="50mm" xmlns:xlink="http://www.w3.org/1999/xlink" clip-rule="evenodd" image-rendering="optimizeQuality" xmlns:cc="http://web.resource.org/cc/" shape-rendering="geometricPrecision" xmlns:rdf="http://www.w3.org/1999/02/22-rdf-syntax-ns#" xmlns="http://www.w3.org/2000/svg"><metadata id="metadata13"><rdf:RDF><cc:Work rdf:about=""><dc:format>image/svg+xml</dc:format><dc:type rdf:resource="http://purl.org/dc/dcmitype/StillImage"/></cc:Work></rdf:RDF></metadata><defs id="defs11"><linearGradient id="linearGradient2171" y2="37.469" gradientUnits="userSpaceOnUse" x2="77.641" y1="37.592" x1="21.253"><stop id="stop2167" stop-color="#fff" offset="0"/><stop id="stop2169" stop-color="#fff" stop-opacity="0" offset="1"/></linearGradient></defs>
 <g id="Layer_x0020_1">
  <path id="path6" d="m26.178 9.3952c2.5993 0.1694 5.0038 0.8382 7.2221 2.0151 2.2098 1.1684 4.0979 2.6755 5.6557 4.5127 1.0922 1.287 2.1167 2.8448 3.0819 4.6652 0.9737 1.8118 1.7441 3.7422 2.3199 5.7742 0.6604 2.3707 1.0837 4.8514 1.253 7.4592 0.1778 2.5992 0.2625 5.0122 0.2625 7.2305v5.4017h-3.8608-10.008-16.637c-0.1524 0-0.2201-0.4064-0.2117-1.2107 0.0085-0.8128 0.0593-1.4647 0.1609-1.9643 0.0593-0.3979 0.2201-0.9567 0.4657-1.6848 0.254-0.7282 0.6604-1.6087 1.2446-2.6501 0.2624-0.5334 0.889-1.3039 1.8796-2.3199 0.999-1.016 2.1336-2.2013 3.429-3.539 0.745-0.762 1.3208-1.7188 1.7441-2.8787 0.4233-1.1515 0.6011-2.2013 0.5334-3.1496-0.6096 0.4995-1.2785 0.9059-2.0066 1.2192-3.5052 1.2531-6.0452 3.0734-7.6115 5.4525-0.1186 0.1524-0.4911 0.8213-1.1176 2.0151-0.3302 0.6265-0.6181 1.0583-0.8467 1.2869-0.3133 0.3133-0.7705 0.4911-1.3631 0.525-0.9229 0.0423-1.6426-0.398-2.159-1.3462-0.6943 0.2032-1.3124 0.2878-1.8627 0.254-0.9229-0.3472-1.5917-0.7197-2.0066-1.1176-0.8467-0.8467-1.3885-1.6849-1.651-2.5316-0.254-0.8466-0.381-1.7526-0.381-2.7262 0-1.3886 0.8551-3.2258 2.5823-5.5118 2.0151-2.6247 3.0904-4.6313 3.2174-6.0029 0-0.5927 0.0592-1.2615 0.1778-2.0066 0.1016-0.5165 0.3048-1.0075 0.618-1.4901 0.2202-0.3302 0.3641-0.5588 0.4318-0.6774 0.0762-0.127 0.2117-0.3132 0.4149-0.5588 0.1439-0.2032 0.2709-0.3556 0.3725-0.4572 0.0932-0.11 0.2202-0.254 0.3726-0.4402 0.1778-0.2117 0.4064-0.4572 0.6942-0.7451-0.8805-2.413-1.2361-4.9022-1.0668-7.4591 3.2851 1.1684 6.0537 3.0141 8.2804 5.5287 0.5504-1.8711 1.6256-3.3867 3.2258-4.5381 1.3208 0.9228 2.3707 2.1505 3.1496 3.666z" fill="#1F1A17"/>
  <path id="path8" d="m15.688 17.786c0.364-0.187 0.542-0.28 0.542-0.28 0.499-0.194 0.652-0.558 0.474-1.092-0.195-0.491-0.576-0.66-1.143-0.491-1.947 0.711-3.294 2.015-4.039 3.92-0.118 0.542 0.076 0.915 0.593 1.118 0.516 0.161 0.863-0.017 1.041-0.551 0.136-0.279 0.229-0.465 0.297-0.542 0.186 0.144 0.423 0.246 0.719 0.297 1.008 0.161 1.6-0.28 1.761-1.338 0.051-0.364-0.033-0.711-0.245-1.041zm-4.115 16.764c0.059-0.153 0.169-0.373 0.322-0.669 0.279-0.694 0.415-1.109 0.415-1.245-0.026-0.457-0.271-0.694-0.72-0.694-0.33 0-0.711 0.474-1.16 1.414-0.068 0.135-0.169 0.254-0.296 0.347-0.449 0.466-0.3813 0.855 0.194 1.168 0.534 0.314 0.94 0.212 1.245-0.321zm14.63-9.204c1.16-1.524 1.728-3.217 1.711-5.08-0.068-0.55-0.381-0.821-0.94-0.821-0.762 0-1.058 0.28-0.898 0.838 0.051 0.915-0.033 1.668-0.27 2.261-0.382 0.94-0.805 1.642-1.262 2.108-0.254 0.5-0.102 0.864 0.449 1.092 0.525 0.246 0.931 0.119 1.21-0.398zm-6.477-12.107c-0.076-0.593-0.059-1.236 0.051-1.93-0.99 0.194-1.922 0.66-2.802 1.388-0.525 0.28-0.652 0.669-0.373 1.169 0.28 0.508 0.669 0.592 1.169 0.245 0.347-0.186 0.669-0.355 0.956-0.508 0.288-0.161 0.618-0.279 0.999-0.364zm23.25 31.454c-0.017 0 0-0.449 0.042-1.346 0.131-3.108 0.096-6.221 0.076-9.331-0.016-2.21-0.313-4.411-0.889-6.612-0.839-3.31-2.124-6.485-4.072-9.297-2.634-3.845-6.814-6.033-11.286-6.976 0.126 0.766 0.033 1.54 0.076 2.311 1.6 0.542 3.116 1.22 4.538 2.032 4.241 2.555 6.414 7.276 7.197 11.93 1.272 6.154 0.453 11.557 0.813 17.289h3.505zm-33.537-14.554c0.4742-0.339 0.525-0.729 0.144-1.194-0.398-0.381-0.8298-0.415-1.3124-0.102-1.0075 0.661-1.5494 1.533-1.6171 2.608 0.0169 0.542 0.3471 0.804 0.9737 0.77 0.5926-0.05 0.8805-0.355 0.8636-0.923 0.1354-0.524 0.4487-0.914 0.9482-1.159z" fill="url(#linearGradient2171)"/>
 </g>
</svg>
