<?xml version="1.0" encoding="UTF-8" standalone="no"?>
<!-- Creator: CorelDRAW -->
<svg id="svg2" xmlns:rdf="http://www.w3.org/1999/02/22-rdf-syntax-ns#" xmlns="http://www.w3.org/2000/svg" text-rendering="geometricPrecision" fill-rule="evenodd" xml:space="preserve" height="50mm" shape-rendering="geometricPrecision" width="50mm" clip-rule="evenodd" image-rendering="optimizeQuality" xmlns:cc="http://creativecommons.org/ns#" xmlns:dc="http://purl.org/dc/elements/1.1/" viewBox="0 0 50 50"><metadata id="metadata11"><rdf:RDF><cc:Work rdf:about=""><dc:format>image/svg+xml</dc:format><dc:type rdf:resource="http://purl.org/dc/dcmitype/StillImage"/></cc:Work></rdf:RDF></metadata>
 <g id="Layer_x0020_1" transform="matrix(1 0 0 .97324 0 1.2431)">
  <path id="path6" fill="#1f1a17" d="m25 46.448h-13.394c-0.661-1.651-0.991-3.378-0.991-5.182 0-3.056 0.864-5.799 2.599-8.238 1.736-2.43 3.971-4.165 6.698-5.207-1.169-0.542-2.126-1.363-2.862-2.463-0.737-1.101-1.101-2.346-1.101-3.734 0-1.736 0.576-3.243 1.736-4.513 1.151-1.279 2.574-2.015 4.267-2.21-1.346-1.007-2.015-2.345-2.015-3.996 0-1.3887 0.491-2.5825 1.482-3.5731 0.982-0.9906 2.175-1.4816 3.581-1.4816 1.388 0 2.582 0.491 3.573 1.4816s1.49 2.1844 1.49 3.5731c0 1.651-0.669 2.989-2.015 3.996 1.693 0.195 3.116 0.931 4.267 2.21 1.16 1.27 1.736 2.777 1.736 4.513 0 1.388-0.373 2.633-1.126 3.734-0.754 1.1-1.711 1.921-2.862 2.463 2.726 1.042 4.961 2.777 6.697 5.207 1.736 2.439 2.6 5.182 2.6 8.238 0 1.787-0.322 3.514-0.966 5.182h-13.394z"/>
 </g>
</svg>
