<?xml version="1.0" encoding="UTF-8" standalone="no"?>
<!-- Creator: CorelDRAW -->
<svg id="svg2" text-rendering="geometricPrecision" xml:space="preserve" height="50mm" xmlns:dc="http://purl.org/dc/elements/1.1/" fill-rule="evenodd" viewBox="0 0 50 50" width="50mm" xmlns:xlink="http://www.w3.org/1999/xlink" clip-rule="evenodd" image-rendering="optimizeQuality" xmlns:cc="http://web.resource.org/cc/" shape-rendering="geometricPrecision" xmlns:rdf="http://www.w3.org/1999/02/22-rdf-syntax-ns#" xmlns="http://www.w3.org/2000/svg"><metadata id="metadata23"><rdf:RDF><cc:Work rdf:about=""><dc:format>image/svg+xml</dc:format><dc:type rdf:resource="http://purl.org/dc/dcmitype/StillImage"/></cc:Work></rdf:RDF></metadata><defs id="defs21"><linearGradient id="linearGradient2181" y2="37.36" gradientUnits="userSpaceOnUse" x2="77.764" y1="37.224" x1="21.253"><stop id="stop2177" stop-color="#fff" offset="0"/><stop id="stop2179" stop-color="#fff" stop-opacity="0" offset="1"/></linearGradient></defs>
 <g id="Layer_x0020_1">
  <path id="path6" d="m24.949 10.752c-0.9398 0-1.7441-0.3302-2.3961-0.9906-0.6519-0.6604-0.9736-1.4647-0.9736-2.4045 0-0.9314 0.3217-1.7272 0.9736-2.3876 0.652-0.6604 1.4563-0.9906 2.3961-0.9906 0.9229 0 1.7272 0.3302 2.3961 0.9906 0.6688 0.6604 0.999 1.4562 0.999 2.3876 0 0.9398-0.3302 1.7441-0.999 2.4045-0.6689 0.6604-1.4732 0.9906-2.3961 0.9906z" fill="#1F1A17"/>
  <path id="path8" d="m40.232 43.942c-0.8128 0.7112-2.6331 1.3039-5.461 1.7865-2.8278 0.4741-6.0875 0.7197-9.7705 0.7197-3.7507 0-7.0527-0.254-9.8975-0.7451-2.8448-0.4995-4.6398-1.1176-5.3848-1.8627l1.5663-5.952-0.6943-3.8947-2.1844-3.7931-2.1082-15.426 1.2108-0.4742 6.7987 11.455 0.1524-13.64 1.6849-0.2963 5.1816 13.716 2.777-14.757h1.7188l2.777 14.707 5.1308-13.665 1.7103 0.2963 0.1524 13.64 6.8241-11.481 1.16 0.5419-2.0574 15.358-2.2098 3.7931-0.6943 3.9455 1.6171 6.0282z" fill="#1F1A17"/>
  <path id="path10" d="m14.535 11.988c-0.9483 0-1.7526-0.3217-2.413-0.9736-0.6604-0.652-0.9906-1.4563-0.9906-2.3961 0-0.9229 0.3302-1.7187 0.9906-2.3791s1.4647-0.9906 2.413-0.9906c0.9229 0 1.7187 0.3302 2.3791 0.9906s0.9906 1.4562 0.9906 2.3791c0 0.9398-0.3302 1.7441-0.9906 2.3961-0.6604 0.6519-1.4562 0.9736-2.3791 0.9736z" fill="#1F1A17"/>
  <path id="path12" d="m35.363 11.988c-0.9398 0-1.7357-0.3217-2.3876-0.9736-0.6519-0.652-0.9821-1.4563-0.9821-2.3961 0-0.9229 0.3302-1.7187 0.9821-2.3791s1.4478-0.9906 2.3876-0.9906c0.9483 0 1.7526 0.3302 2.413 0.9906s0.9906 1.4562 0.9906 2.3791c0 0.9398-0.3302 1.7441-0.9906 2.3961-0.6604 0.6519-1.4647 0.9736-2.413 0.9736z" fill="#1F1A17"/>
  <path id="path14" d="m5.3997 14.723c-0.9398 0-1.7357-0.3302-2.3876-0.9822-0.652-0.6519-0.9822-1.4478-0.9822-2.396 0-0.9229 0.3302-1.7188 0.9822-2.3876 0.6519-0.6774 1.4478-1.0076 2.3876-1.0076 0.9482 0 1.7441 0.3302 2.413 1.0076 0.6604 0.6688 0.9906 1.4647 0.9906 2.3876 0 0.9482-0.3302 1.7441-0.9906 2.396-0.6689 0.652-1.4648 0.9822-2.413 0.9822z" fill="#1F1A17"/>
  <path id="path16" d="m44.541 14.723c-0.9398 0-1.7442-0.3302-2.4046-0.9822-0.6604-0.6519-0.9906-1.4478-0.9906-2.396 0-0.9229 0.3302-1.7188 0.9906-2.3876 0.6604-0.6774 1.4648-1.0076 2.4046-1.0076 0.9313 0 1.7272 0.3302 2.3876 1.0076 0.6604 0.6688 0.9906 1.4647 0.9906 2.3876 0 0.9482-0.3302 1.7441-0.9906 2.396-0.6604 0.652-1.4563 0.9822-2.3876 0.9822z" fill="#1F1A17"/>
  <path id="path18" d="m37.2 35.729c-3.0396-0.8382-7.0951-1.2616-12.15-1.2616-5.0969 0-9.1948 0.4318-12.302 1.287l0.3726 2.5061c3.1242-0.8128 7.095-1.2192 11.93-1.2192 4.8091 0 8.7291 0.3979 11.752 1.1938l0.398-2.5061zm1.7356-4.4366c-1.3716-0.4995-3.302-0.9059-5.7912-1.2276-2.4892-0.3218-5.2324-0.4826-8.2465-0.4826-2.9464 0-5.6388 0.1524-8.0857 0.4572-2.4468 0.3048-4.3772 0.7027-5.7827 1.2022l1.2446 2.2522c1.3885-0.4064 3.1919-0.7028 5.4102-0.889 2.2098-0.1778 4.6313-0.271 7.2644-0.271s5.0631 0.0932 7.2898 0.271c2.2352 0.1862 4.0471 0.491 5.4356 0.9144l1.2615-2.2268zm-1.0922 11.853l-0.7366-2.9295c-3.2258-0.7366-7.2813-1.1091-12.158-1.1091-4.826 0-8.8646 0.3725-12.107 1.1091l-0.7874 2.9549c3.1411-0.9568 7.4422-1.4394 12.92-1.4394 2.6247 0 5.0715 0.1355 7.3152 0.398 2.2521 0.2624 4.1063 0.6011 5.5541 1.016z" fill="url(#linearGradient2181)"/>
 </g>
</svg>
