<?xml version="1.0" encoding="UTF-8" standalone="no"?>
<!-- Creator: CorelDRAW -->
<svg id="svg2" text-rendering="geometricPrecision" xml:space="preserve" height="50mm" xmlns:dc="http://purl.org/dc/elements/1.1/" fill-rule="evenodd" viewBox="0 0 50 50" width="50mm" xmlns:xlink="http://www.w3.org/1999/xlink" clip-rule="evenodd" image-rendering="optimizeQuality" xmlns:cc="http://web.resource.org/cc/" shape-rendering="geometricPrecision" xmlns:rdf="http://www.w3.org/1999/02/22-rdf-syntax-ns#" xmlns="http://www.w3.org/2000/svg"><metadata id="metadata13"><rdf:RDF><cc:Work rdf:about=""><dc:format>image/svg+xml</dc:format><dc:type rdf:resource="http://purl.org/dc/dcmitype/StillImage"/></cc:Work></rdf:RDF></metadata><defs id="defs11"><linearGradient id="linearGradient2171" y2="37.429" gradientUnits="userSpaceOnUse" x2="77.736" y1="37.552" x1="21.192"><stop id="stop2167" stop-color="#fff" offset="0"/><stop id="stop2169" stop-color="#fff" stop-opacity="0" offset="1"/></linearGradient></defs>
 <g id="Layer_x0020_1">
  <polygon id="polygon6" points="28.408 9.22 32.624 9.22 32.624 5.8249 39.423 5.8249 39.423 15.121 33.92 19.363 33.92 31.225 38.136 35.441 38.136 40.521 41.929 40.521 41.929 46.448 8.0709 46.448 8.0709 40.521 11.864 40.521 11.864 35.441 16.106 31.225 16.106 19.363 10.602 15.121 10.602 5.8249 17.376 5.8249 17.376 9.22 21.618 9.22 21.618 5.8249 28.408 5.8249" fill="#1F1A17"/>
  <path id="path8" d="m25.013 35.043h-10.27l-1.143 1.0668v1.4394h22.826v-1.4394l-1.143-1.0668h-10.27zm-11.413 5.08v2.5316h22.826v-2.5316h-22.826zm11.413-27.085h-12.7v1.143l1.8119 1.3631h21.802l1.7611-1.3631v-1.143h-12.675zm0 4.191h-8.6783l1.4816 1.1684v1.4139h14.393v-1.4139l1.4816-1.1684h-8.6783zm0 13.547h-7.1967v1.143l-1.4816 1.4394h17.357l-1.4816-1.4394v-1.143h-7.1967z" fill="url(#linearGradient2171)"/>
 </g>
</svg>
