<?xml version="1.0" encoding="UTF-8" standalone="no"?>
<!-- Creator: CorelDRAW -->
<svg id="svg2" text-rendering="geometricPrecision" xml:space="preserve" height="50mm" xmlns:dc="http://purl.org/dc/elements/1.1/" fill-rule="evenodd" viewBox="0 0 50 50" width="50mm" xmlns:xlink="http://www.w3.org/1999/xlink" clip-rule="evenodd" image-rendering="optimizeQuality" xmlns:cc="http://web.resource.org/cc/" shape-rendering="geometricPrecision" xmlns:rdf="http://www.w3.org/1999/02/22-rdf-syntax-ns#" xmlns="http://www.w3.org/2000/svg"><metadata id="metadata15"><rdf:RDF><cc:Work rdf:about=""><dc:format>image/svg+xml</dc:format><dc:type rdf:resource="http://purl.org/dc/dcmitype/StillImage"/></cc:Work></rdf:RDF></metadata><defs id="defs13"><linearGradient id="linearGradient2173" y2="37.346" gradientUnits="userSpaceOnUse" x2="77.641" y1="37.346" x1="21.376"><stop id="stop2169" stop-color="#fff" offset="0"/><stop id="stop2171" stop-color="#fff" stop-opacity="0" offset="1"/></linearGradient></defs>
 <g id="Layer_x0020_1">
  <path id="path6" d="m25.821 12.022h-1.7611v-3.2512h-2.0659c-0.5588 0-0.8382-0.2709-0.8382-0.8212v-0.0254c0-0.5419 0.2794-0.8128 0.8382-0.8128h2.0659v-2.1082c0-0.5842 0.2963-0.8721 0.889-0.8721 0.5757 0 0.8721 0.2879 0.8721 0.8721v2.1082h2.1336c0.5418 0 0.8128 0.2709 0.8128 0.8128v0.0254c0 0.5503-0.271 0.8212-0.8128 0.8212l-2.1167 0.0254-0.0169 3.2258z" fill="#1F1A17"/>
  <path id="path8" d="m11.03 37.744l-0.8128-4.6398c-0.0169 0-0.0423-0.0338-0.0762-0.1016-0.0847-0.1185-0.3217-0.2709-0.7112-0.4572-0.381-0.1947-0.8382-0.5164-1.3462-0.9821-0.7281-0.6096-1.2954-1.1091-1.7018-1.4901-0.4064-0.3726-0.7705-0.7874-1.1007-1.2362-1.0075-1.3885-1.5748-3.0649-1.6848-5.0376-0.1694-1.8966 0.6011-3.7931 2.3029-5.6812 1.7187-1.8796 4.0471-2.7686 6.9681-2.65 1.0922 0.0677 2.3791 0.3302 3.8438 0.7958 0.4826 0.1948 0.9737 0.3895 1.4817 0.5758 0.4995 0.1947 0.9991 0.3894 1.4986 0.5842 0.2625 0.1354 0.4995 0.2709 0.6943 0.3979-0.0847-0.3471-0.127-0.6943-0.127-1.0414 0-1.2869 0.4572-2.3876 1.38-3.302 0.9144-0.9059 2.0236-1.3716 3.3105-1.3885 1.2869 0 2.3876 0.4656 3.302 1.38 0.9059 0.9144 1.3631 2.0151 1.3631 3.2851 0 0.2625-0.0338 0.6096-0.1016 1.0414 0.2286-0.1439 0.4572-0.2709 0.6689-0.3725 0.762-0.3302 1.7611-0.7197 3.0057-1.16 1.4224-0.4826 2.7008-0.7535 3.8438-0.8212 2.921-0.1355 5.2409 0.7535 6.9427 2.65 1.6679 1.8881 2.4469 3.7846 2.3283 5.6812-0.127 1.9727-0.7027 3.6491-1.7102 5.0376-0.3302 0.4488-0.7028 0.8636-1.1176 1.2531-0.4064 0.3895-0.9652 0.8805-1.6595 1.4732-0.5419 0.4657-1.0075 0.7959-1.3885 0.9821-0.381 0.1863-0.6012 0.3472-0.6689 0.4572-0.0169 0.0339-0.0339 0.0593-0.0508 0.0762-0.0169 0.017-0.0254 0.0339-0.0254 0.0508l-0.7959 4.6652 1.6426 6.1214c-0.8298 0.745-2.684 1.3546-5.5542 1.8372-2.8786 0.4826-6.206 0.7197-9.9737 0.7197-3.8354 0-7.2136-0.254-10.118-0.7535-2.9125-0.508-4.7413-1.143-5.4864-1.8966l1.6341-6.0536z" fill="#1F1A17"/>
  <path id="path10" d="m25.796 29.532c2.8448 0.0339 5.444 0.2032 7.8062 0.508 2.3707 0.3048 4.2249 0.6943 5.5626 1.1515 0.6266-0.4911 1.3124-1.0414 2.0574-1.651 0.7451-0.6012 1.3632-1.2192 1.8627-1.8458 0.7874-1.0075 1.1853-2.3368 1.1853-3.9962 0-1.4817-0.3556-2.7263-1.0668-3.7169-1.27-1.8542-3.2088-2.7771-5.7996-2.7771-1.5579 0-3.1496 0.3218-4.7922 0.9652-1.4393 0.5842-2.5315 1.2277-3.2681 1.9389-1.3885 1.3885-2.4215 3.175-3.0819 5.3509-0.2286 0.779-0.364 1.4902-0.4064 2.1252-0.0423 0.635-0.0592 1.2869-0.0592 1.9473zm-13.25 6.6971c3.1412-0.7958 7.3068-1.1938 12.505-1.1938 5.0885 0 9.2033 0.381 12.328 1.143l0.618-3.6491c-3.3274-0.8721-7.6708-1.3123-13.047-1.3123-5.4102 0-9.7451 0.4487-13.022 1.3377l0.618 3.6745zm25.298 4.4112l-0.7366-2.8448c-3.2766-0.7282-7.3321-1.0922-12.158-1.0922-4.8091 0-8.8561 0.364-12.133 1.0922l-0.7874 2.8702c3.158-0.9229 7.4676-1.3886 12.946-1.3886 5.4441 0 9.7282 0.4572 12.869 1.3632zm0.652 2.3368c-3.192-1.287-7.6793-1.9389-13.445-1.9389-5.9859 0-10.516 0.6604-13.598 1.9897 2.9126 1.1514 7.4168 1.7356 13.521 1.7356 2.9125 0 5.5626-0.1608 7.9587-0.4826 2.4045-0.3217 4.2502-0.762 5.5626-1.3038zm-14.419-13.445c-0.0084-0.6435-0.0338-1.2869-0.0677-1.9219s-0.1609-1.3462-0.3725-2.1252c-0.6774-2.2098-1.7018-3.9962-3.0819-5.3509-0.7112-0.6943-1.7949-1.3462-3.2681-1.9389-1.6849-0.6604-3.2851-0.9906-4.7922-0.9906-2.6077 0-4.5466 0.9314-5.7996 2.8025-0.7112 0.9906-1.0668 2.2352-1.0668 3.7169 0 1.6256 0.3979 2.9548 1.1853 3.9962 0.4826 0.6096 1.0922 1.2277 1.8373 1.8373 0.745 0.6096 1.4393 1.1684 2.0828 1.6595 2.8956-1.0414 7.3406-1.6002 13.343-1.6849zm0.8721-4.6143c0.1185-0.4657 0.2117-0.7874 0.2963-0.9652 0.1694-0.6435 0.3556-1.1938 0.5758-1.6426 0.0931-0.2794 0.237-0.6011 0.4318-0.9736 0.1862-0.3726 0.3894-0.8044 0.6096-1.2785 0.127-0.2794 0.2709-0.6265 0.4148-1.0329 0.1524-0.4064 0.3048-0.8044 0.4488-1.2023 0.1354-0.3302 0.2032-0.6858 0.2032-1.0668 0-0.8128-0.2964-1.4986-0.8721-2.0659-0.5757-0.5757-1.2785-0.8636-2.1082-0.8636-1.9643 0-2.9549 0.9906-2.9549 2.9549 0 0.381 0.0678 0.7366 0.2032 1.0668 0.3641 1.0753 0.6435 1.8203 0.8382 2.2352 0.2202 0.4741 0.4149 0.9059 0.6012 1.2785 0.1778 0.3725 0.3386 0.6942 0.4656 0.9736 0.2202 0.5504 0.398 1.0922 0.5504 1.6426 0.0338 0.0931 0.127 0.4148 0.2963 0.9398z" fill="url(#linearGradient2173)"/>
 </g>
</svg>
