<?xml version="1.0" encoding="UTF-8" standalone="no"?>
<!-- Creator: CorelDRAW -->
<svg id="svg2" text-rendering="geometricPrecision" xml:space="preserve" height="50mm" xmlns:dc="http://purl.org/dc/elements/1.1/" fill-rule="evenodd" viewBox="0 0 50 50" width="50mm" xmlns:xlink="http://www.w3.org/1999/xlink" clip-rule="evenodd" image-rendering="optimizeQuality" xmlns:cc="http://creativecommons.org/ns#" shape-rendering="geometricPrecision" xmlns:rdf="http://www.w3.org/1999/02/22-rdf-syntax-ns#" xmlns="http://www.w3.org/2000/svg"><metadata id="metadata13"><rdf:RDF><cc:Work rdf:about=""><dc:format>image/svg+xml</dc:format><dc:type rdf:resource="http://purl.org/dc/dcmitype/StillImage"/></cc:Work></rdf:RDF></metadata><defs id="defs11">
 <linearGradient id="linearGradient2389" y2="37.469" gradientUnits="userSpaceOnUse" x2="77.764" gradientTransform="matrix(1 0 0 .97324 0 1.2431)" y1="37.346" x1="21.13"><stop id="stop2167" stop-color="#fff" offset="0"/><stop id="stop2169" stop-color="#fff" stop-opacity="0" offset="1"/></linearGradient></defs>
 <path id="path6" fill="#1f1a17" d="m25 46.448h-13.394c-0.661-1.607-0.991-3.288-0.991-5.043 0-2.975 0.864-5.644 2.599-8.018 1.736-2.365 3.971-4.054 6.698-5.067-1.169-0.528-2.126-1.327-2.862-2.398-0.737-1.071-1.101-2.283-1.101-3.634 0-1.689 0.576-3.156 1.736-4.392 1.151-1.244 2.574-1.961 4.267-2.151-1.346-0.98-2.015-2.282-2.015-3.889 0-1.351 0.491-2.5132 1.482-3.4773 0.982-0.9641 2.175-1.4419 3.581-1.4419 1.388 0 2.582 0.4778 3.573 1.4419s1.49 2.1263 1.49 3.4773c0 1.607-0.669 2.909-2.015 3.889 1.693 0.19 3.116 0.907 4.267 2.151 1.16 1.236 1.736 2.703 1.736 4.392 0 1.351-0.373 2.563-1.126 3.634-0.754 1.071-1.711 1.87-2.862 2.398 2.726 1.013 4.961 2.702 6.697 5.067 1.736 2.374 2.6 5.043 2.6 8.018 0 1.739-0.322 3.42-0.966 5.043h-13.394z"/><path id="path8" d="m25 44.808h12.175c0.347-1.153 0.525-2.291 0.525-3.403 0-2.513-0.711-4.787-2.142-6.831s-3.277-3.552-5.52-4.516c-1.584-0.62-1.643-0.659-1.643-1.738 0-0.849 0.559-1.475 1.668-1.879 1.533-1.046 2.303-2.431 2.303-4.153 0-1.244-0.432-2.324-1.287-3.263-0.863-0.931-1.905-1.467-3.124-1.615-0.999-0.083-1.49-0.626-1.49-1.64 0-0.453 0.177-0.873 0.542-1.261 0.897-0.675 1.346-1.557 1.346-2.653 0-0.898-0.339-1.673-0.999-2.3154-0.661-0.6427-1.448-0.9641-2.354-0.9641-0.94 0-1.744 0.3214-2.396 0.9641-0.652 0.6424-0.974 1.4174-0.974 2.3154 0 1.08 0.44 1.961 1.338 2.653 0.364 0.355 0.542 0.775 0.542 1.261 0 1.014-0.483 1.557-1.465 1.64-1.236 0.148-2.286 0.684-3.133 1.615-0.855 0.939-1.278 2.019-1.278 3.263 0 1.722 0.77 3.107 2.303 4.153 1.109 0.412 1.668 1.046 1.668 1.879 0 1.079-0.067 1.118-1.668 1.738-2.244 0.964-4.081 2.472-5.503 4.516-1.423 2.044-2.134 4.318-2.134 6.831 0 1.195 0.178 2.324 0.525 3.403h12.175z" fill="url(#linearGradient2389)"/>
</svg>
