<?xml version="1.0" encoding="UTF-8" standalone="no"?>
<!-- Creator: CorelDRAW -->
<svg id="svg2" text-rendering="geometricPrecision" xml:space="preserve" height="50mm" xmlns:dc="http://purl.org/dc/elements/1.1/" fill-rule="evenodd" viewBox="0 0 50 50" width="50mm" xmlns:xlink="http://www.w3.org/1999/xlink" clip-rule="evenodd" image-rendering="optimizeQuality" xmlns:cc="http://web.resource.org/cc/" shape-rendering="geometricPrecision" xmlns:rdf="http://www.w3.org/1999/02/22-rdf-syntax-ns#" xmlns="http://www.w3.org/2000/svg"><metadata id="metadata13"><rdf:RDF><cc:Work rdf:about=""><dc:format>image/svg+xml</dc:format><dc:type rdf:resource="http://purl.org/dc/dcmitype/StillImage"/></cc:Work></rdf:RDF></metadata><defs id="defs11"><linearGradient id="linearGradient2179" y2="37.346" gradientUnits="userSpaceOnUse" x2="77.641" y1="37.224" x1="21.253"><stop id="stop2175" stop-color="#fff" offset="0"/><stop id="stop2177" stop-color="#fff" stop-opacity="0" offset="1"/></linearGradient></defs>
 <g id="Layer_x0020_1" stroke="#1F1A17" stroke-width=".0762">
  <path id="path6" d="m44.541 14.723c-0.9398 0-1.7442-0.3302-2.4046-0.9822-0.6604-0.6519-0.9906-1.4478-0.9906-2.396 0-0.9229 0.3302-1.7188 0.9906-2.3876 0.6604-0.6774 1.4648-1.0076 2.4046-1.0076 0.9313 0 1.7272 0.3302 2.3876 1.0076 0.6604 0.6688 0.9906 1.4647 0.9906 2.3876 0 0.9482-0.3302 1.7441-0.9906 2.396-0.6604 0.652-1.4563 0.9822-2.3876 0.9822zm-4.3096 29.218c-0.8128 0.7112-2.6331 1.3039-5.461 1.7865-2.8278 0.4741-6.0875 0.7197-9.7705 0.7197-3.7507 0-7.0527-0.254-9.8975-0.7451-2.8448-0.4995-4.6398-1.1176-5.3848-1.8627l1.5663-5.952-0.6943-3.8947-2.1844-3.7931-2.1082-15.426 1.2108-0.4742 6.7987 11.455 0.1524-13.64 1.6849-0.2963 5.1816 13.716 2.777-14.757h1.7188l2.777 14.707 5.1308-13.665 1.7103 0.2963 0.1524 13.64 6.8241-11.481 1.16 0.5419-2.0574 15.358-2.2098 3.7931-0.6943 3.9455 1.6171 6.0282zm-25.696-31.953c-0.9483 0-1.7526-0.3217-2.413-0.9736-0.6604-0.652-0.9906-1.4563-0.9906-2.3961 0-0.9229 0.3302-1.7187 0.9906-2.3791s1.4647-0.9906 2.413-0.9906c0.9229 0 1.7187 0.3302 2.3791 0.9906s0.9906 1.4562 0.9906 2.3791c0 0.9398-0.3302 1.7441-0.9906 2.3961-0.6604 0.6519-1.4562 0.9736-2.3791 0.9736zm-9.1355 2.7348c-0.9398 0-1.7357-0.3302-2.3876-0.9822-0.652-0.6519-0.9822-1.4478-0.9822-2.396 0-0.9229 0.3302-1.7188 0.9822-2.3876 0.6519-0.6774 1.4478-1.0076 2.3876-1.0076 0.9482 0 1.7441 0.3302 2.413 1.0076 0.6604 0.6688 0.9906 1.4647 0.9906 2.3876 0 0.9482-0.3302 1.7441-0.9906 2.396-0.6689 0.652-1.4648 0.9822-2.413 0.9822zm19.55-3.9709c-0.9398 0-1.7441-0.3302-2.3961-0.9906-0.6519-0.6604-0.9736-1.4647-0.9736-2.4045 0-0.9314 0.3217-1.7272 0.9736-2.3876 0.652-0.6604 1.4563-0.9906 2.3961-0.9906 0.9229 0 1.7272 0.3302 2.3961 0.9906 0.6688 0.6604 0.999 1.4562 0.999 2.3876 0 0.9398-0.3302 1.7441-0.999 2.4045-0.6689 0.6604-1.4732 0.9906-2.3961 0.9906zm10.414 1.2361c-0.9398 0-1.7357-0.3217-2.3876-0.9736-0.6519-0.652-0.9821-1.4563-0.9821-2.3961 0-0.9229 0.3302-1.7187 0.9821-2.3791s1.4478-0.9906 2.3876-0.9906c0.9483 0 1.7526 0.3302 2.413 0.9906s0.9906 1.4562 0.9906 2.3791c0 0.9398-0.3302 1.7441-0.9906 2.3961-0.6604 0.6519-1.4647 0.9736-2.413 0.9736z" fill="#1F1A17"/>
  <path id="path8" d="m38.216 43.044c-3.0226-1.2531-7.4168-1.8796-13.166-1.8796-5.8759 0-10.312 0.6434-13.326 1.9304 2.8956 1.143 7.3152 1.7102 13.25 1.7102 2.8448 0 5.4441-0.1524 7.7978-0.4656 2.3622-0.3133 4.1741-0.7451 5.4441-1.2954zm-13.267-34.028c1.1091 0 1.6595-0.5588 1.6595-1.6594 0-1.0922-0.5504-1.6426-1.6595-1.6426-1.0922 0-1.6341 0.5504-1.6341 1.6426 0 1.1006 0.5419 1.6594 1.6341 1.6594zm12.624 24.977c-3.1919-0.8128-7.366-1.2107-12.522-1.2107-5.2917 0-9.5165 0.4064-12.675 1.2361l0.3725 2.3791c3.2174-0.762 7.3237-1.143 12.302-1.143 4.9445 0 8.9747 0.3726 12.099 1.1176l0.4233-2.3791zm0.6181-1.4901l1.6171-2.8533c-0.7959 0.3217-1.6087 0.4741-2.4299 0.4741-2.2183 0-3.9878-0.8974-5.3086-2.7008-0.9906 0.8212-2.0998 1.2361-3.3274 1.2361-1.5833 0-2.8533-0.6181-3.7931-1.8627-1.0583 1.16-2.3199 1.7442-3.7931 1.7442-1.1938 0-2.286-0.4064-3.2766-1.2192-1.3885 1.7695-3.1834 2.65-5.3848 2.65-0.8382 0-1.6764-0.1524-2.5061-0.4656l1.7357 2.9718c3.2088-0.9229 7.62-1.3886 13.225-1.3886 5.7065 0 10.118 0.4742 13.242 1.414zm-11.108-5.9267l-2.1082-12.133-2.1082 11.989c0.0508-0.0339 0.1609-0.1186 0.3471-0.254 0.381-0.7451 0.9568-1.1176 1.7357-1.1176 0.8467 0 1.3885 0.3725 1.6341 1.1176 0.1016 0.1016 0.2709 0.237 0.4995 0.3979zm6.8665 0.4741v-11.489l-4.0894 11.261c0.3132-0.11 0.5757-0.2624 0.7958-0.4402 0.3302-0.4149 0.779-0.6266 1.3378-0.6266 0.6604 0 1.1938 0.2964 1.5917 0.8721 0.0423 0.0677 0.1016 0.1355 0.1693 0.2117 0.0678 0.0762 0.1355 0.1439 0.1948 0.2116zm-13.936-0.3471l-4.064-11.142v11.337c0.0424-0.0677 0.1186-0.1439 0.2202-0.2455 0.3302-0.6943 0.872-1.0414 1.634-1.0414 0.6266 0 1.143 0.2625 1.541 0.7959 0.4487 0.1947 0.6688 0.2963 0.6688 0.2963zm-6.2992 1.3885l-5.334-9.2032 1.3632 8.382c0.9398 0.6604 1.8626 0.9906 2.7516 0.9906 0.3472 0 0.7536-0.0593 1.2192-0.1694zm22.394 0.1186c0.381 0.1185 0.8043 0.1778 1.27 0.1778 1.0075 0 1.9473-0.3133 2.8278-0.9398l1.3632-8.5852-5.461 9.3472zm1.4901 12.556l-0.7451-2.8024c-3.2427-0.7112-7.2051-1.0668-11.904-1.0668-4.6482 0-8.6106 0.3556-11.879 1.0668l-0.7705 2.8278c3.0734-0.9313 7.2983-1.3885 12.675-1.3885 5.2409 0 9.4488 0.4487 12.624 1.3631zm-23.063-30.514c1.0837 0 1.6341-0.5419 1.6341-1.6341s-0.5504-1.6341-1.6341-1.6341c-1.1091 0-1.6679 0.5419-1.6679 1.6341s0.5588 1.6341 1.6679 1.6341zm20.828 0c1.1091 0 1.6679-0.5419 1.6679-1.6341s-0.5588-1.6341-1.6679-1.6341c-1.0837 0-1.6341 0.5419-1.6341 1.6341s0.5504 1.6341 1.6341 1.6341zm-29.964 2.7347c1.1091 0 1.6679-0.5503 1.6679-1.6425 0-1.1092-0.5588-1.6595-1.6679-1.6595-1.0838 0-1.6341 0.5503-1.6341 1.6595 0 1.0922 0.5503 1.6425 1.6341 1.6425zm39.141 0c1.0922 0 1.6425-0.5503 1.6425-1.6425 0-1.1092-0.5503-1.6595-1.6425-1.6595-1.1007 0-1.6595 0.5503-1.6595 1.6595 0 1.0922 0.5588 1.6425 1.6595 1.6425z" fill="url(#linearGradient2179)"/>
 </g>
</svg>
