<?xml version="1.0" encoding="UTF-8" standalone="no"?>
<svg id="svg2" xmlns:rdf="http://www.w3.org/1999/02/22-rdf-syntax-ns#" xmlns="http://www.w3.org/2000/svg" height="100%" width="100%" version="1.1" xmlns:cc="http://creativecommons.org/ns#" xmlns:dc="http://purl.org/dc/elements/1.1/" viewBox="0 -410 2048 2048">
 <metadata id="metadata12">
  <rdf:RDF>
   <cc:Work rdf:about="">
    <dc:format>image/svg+xml</dc:format>
    <dc:type rdf:resource="http://purl.org/dc/dcmitype/StillImage"/>
   </cc:Work>
  </rdf:RDF>
 </metadata>
 <g id="g4" transform="matrix(1 0 0 -1 0 1638)">
  <path id="path6" d="m665 442h718q50 0 50-50t-50-50h-718q-50 0-50 50t50 50zm240-307h-290q-34 0-47.5 52t-34.5 87q111 0 221.5-0.5t221.5-1.5q-18-36-20.5-89.5t-50.5-47.5zm237 0q-45-5-48.5 48t-21.5 89q109 1 220.5 1.5t222.5 0.5q-21-35-35-87t-48-52h-290zm-68 1453l-1-44q207-17 350.5-160t143.5-338q0-87-35-185-48-74-86-157t-45-188h-754q-11 112-46 185.5t-84 156.5q-36 93-36 188 0 195 143.5 338t350.5 160l-1 44q-83 32-83 93 0 38 38.5 65.5t92.5 27.5 93-27.5 39-65.5q0-63-80-93zm-118-900h135l36 310 135 32v136l-135 36-36 171h-135l-35-171-135-36v-136l135-32z" fill="currentColor"/>
 </g>
 <path id="path2989" d="m959.26 1346.4c-1.8974-5.9661-10.209-76.201-18.471-156.08l-15.021-145.23-68.373-14.693-68.373-14.693 2.5066-65.38 2.5066-65.38 66.112-17.203 66.112-17.203 15.674-85.425 15.674-85.425 65.586 2.5073 65.586 2.5073 16.938 83.036 16.938 83.036 65.656 17.084 65.656 17.084 2.5066 65.38 2.5066 65.38-68.213 14.658-68.213 14.658-15.274 140.93c-8.4006 77.509-17.17 147.76-19.489 156.11-3.4986 12.606-14.484 15.186-64.648 15.186-40.721 0-61.559-3.5382-63.883-10.848z" transform="translate(0,-410)" fill="#e6e6e6"/>
</svg>
