<?xml version="1.0" encoding="UTF-8" standalone="no"?>
<svg id="svg2" xmlns:rdf="http://www.w3.org/1999/02/22-rdf-syntax-ns#" xmlns="http://www.w3.org/2000/svg" height="100%" width="100%" version="1.1" xmlns:cc="http://creativecommons.org/ns#" xmlns:dc="http://purl.org/dc/elements/1.1/" viewBox="0 -410 2048 2048">
 <metadata id="metadata12">
  <rdf:RDF>
   <cc:Work rdf:about="">
    <dc:format>image/svg+xml</dc:format>
    <dc:type rdf:resource="http://purl.org/dc/dcmitype/StillImage"/>
   </cc:Work>
  </rdf:RDF>
 </metadata>
 <g id="g4" transform="matrix(1 0 0 -1 0 1638)">
  <path id="path6" d="m461 135q-48 0-66.5 52t-46.5 87h1352q-28-35-47-87t-66-52h-1126zm-51 1141q-89-53-38-141l101-174q50-89 140-38h1q89 52 37 141l-100 174q-53 88-141 38zm1228-1q-91 52-141-37l-101-174q-51-89 38-141t141 38l100 174q52 88-37 140zm-614 192q-103 0-103-103v-201q0-103 103-103t103 103v201q0 103-103 103zm428-785q-76 94-187.5 150t-240.5 56q-130 0-241-56t-186-150h855zm-325-119v-103h135v103h-135zm-341 0v-103h135v103h-135zm-342 0v-103h136v103h-136zm1024 0v-103h135v103h-135zm-408 1075h98q71 0 121.5-50.5t50.5-120.5v-114l43 75q35 61 103.5 79.5t130.5-16.5l233-134q60-36 79-105t-17-129l-203-353q-55-93-163-89h103q55 0 95-40t40-95v-69q0-56-40-95.5t-95-39.5h-1230q-56 0-95.5 39.5t-39.5 95.5v69q0 55 39.5 95t95.5 40h103q-110-4-163 90l-203 352q-36 61-17.5 129.5t79.5 104.5l233 134q60 35 129 16.5t105-78.5l44-77-1 115q0 70 50 120.5t122 50.5h99l-17 86-83 18v67l83 16 16 85h71l16-85 84-16v-67l-84-18z" fill="currentColor"/>
 </g>
 <path id="path2989" d="m1475.3 1538.6v-47.729h60.746 60.746v47.729 47.729h-60.746-60.746v-47.729z" transform="translate(0,-410)" fill="#e6e6e6"/>
 <path id="path2991" d="m1128.1 1538.6v-47.729h65.085 65.085v47.729 47.729h-65.085-65.085v-47.729z" transform="translate(0,-410)" fill="#e6e6e6"/>
 <path id="path2993" d="m789.69 1538.6v-47.729h65.085 65.085v47.729 47.729h-65.085-65.085v-47.729z" transform="translate(0,-410)" fill="#e6e6e6"/>
 <path id="path2995" d="m451.25 1538.6v-47.729h60.746 60.746v47.729 47.729h-60.746-60.746v-47.729z" transform="translate(0,-410)" fill="#e6e6e6"/>
 <path id="path2997" d="m621.87 1347.2c8.4286-21.965 105.75-96.242 163.07-124.46 79.065-38.923 145.74-53.979 239.05-53.979 93.592 0 159.99 15.056 239.91 54.399 55.205 27.177 167.96 113.84 167.96 129.09 0 5.4103-147.76 8.4871-407.59 8.4871-365.67 0-407.06-1.392-402.4-13.535z" transform="translate(0,-410)" fill="#e6e6e6"/>
 <path id="path2999" d="m497.28 1106.4c-26.17-29.8-126.93-204.8-136.48-237.02-13.126-44.286 36.354-96.661 99.294-105.1 30.131-4.0414 37.398-1.1849 62.948 24.745 42.403 43.032 139.95 221.6 139.95 256.19 0 32.634-19.028 56.89-59.809 76.242-46.449 22.042-77.165 17.671-105.91-15.071z" transform="translate(0,-410)" fill="#e6e6e6"/>
 <path id="path3001" d="m962.5 967.75c-29.46-22.62-33.96-47.58-33.96-188.57v-140.09l25.366-25.366c21.47-21.46 32.23-25.35 70.09-25.35 37.862 0 48.617 3.8923 70.091 25.366l25.366 25.366v140.09c0 181.03-8.6821 199.14-95.458 199.14-26.251 0-53.925-4.7572-61.498-10.571z" transform="translate(0,-410)" fill="#e6e6e6"/>
 <path id="path3003" d="m1425.6 1109.8c-60.887-44.107-58.162-65.185 27.722-214.44 77.748-135.11 103.79-153.06 173.84-119.82 77.298 36.68 78.042 72.067 4.2735 203.31-73.216 130.26-96.214 156.21-138.45 156.21-22.132 0-43.646-8.0662-67.392-25.268z" transform="translate(0,-410)" fill="#e6e6e6"/>
</svg>
