<?xml version="1.0" encoding="UTF-8" standalone="no"?>
<svg id="svg2" xmlns:rdf="http://www.w3.org/1999/02/22-rdf-syntax-ns#" xmlns="http://www.w3.org/2000/svg" height="100%" width="100%" version="1.1" xmlns:cc="http://creativecommons.org/ns#" xmlns:dc="http://purl.org/dc/elements/1.1/" viewBox="0 -410 2048 2048">
 <metadata id="metadata12">
  <rdf:RDF>
   <cc:Work rdf:about="">
    <dc:format>image/svg+xml</dc:format>
    <dc:type rdf:resource="http://purl.org/dc/dcmitype/StillImage"/>
   </cc:Work>
  </rdf:RDF>
 </metadata>
 <g id="g4" transform="matrix(1 0 0 -1 0 1638)">
  <path id="path6" d="m392 1194q36 66 78.5 130.5t53.5 142.5q54 18 87.5 59t65.5 87l183-115q-5-4-5-17 0-36 21-60-75-223-304-431-36 30-90 82t-90 122zm1163-477q25 12 29 35 5 36-19 49-160-60-373.5-55t-418.5 109q22 25 47.5 51t46.5 54q32 34 33 42l-12-5t-12-9q-22-10-47.5-21.5t-52.5-17.5q-54 8-111-26-31 21-39 29 216 204 306 431 20-2 24-2 100 0 100 100 0 35-22 56l79 113q45-20 79-37 125-55 237 6-28-48-62-77-16-12-35-24 114-107 261-58-31-40-74-65-15-9-50-24 81-138 239-128-43-32-89-43-29-9-49-7 41-153 196-183-50-19-97-19-23 0-45 3 0-11 4-31-2-69-3-120 61-63 141-79-50-19-97-19-17 0-51 4-8-50-18-105 60-68 146-85-50-19-98-19-39 0-92 16-11-18-28-43h-957q-60 0-62 52t67 115q30 35 65 67t70 62q211-120 439.5-134.5t404.5 42.5zm-939 153q-29-27-62-49.5t-73-25.5q-10 0-30-5t-20 5q-18-4-30 2t-30 9q-22 5-63 51.5t-53 66.5q-15 60 22 109.5t76 98.5q37-68 126-151t137-111zm99 800q4 3 17 18 13 42 11.5 90t-8.5 92q23 17 100 5 14-3 35-9 48-27 90.5-72t60.5-102q22-10 34-15l-72-100q-10 4-27 4-40 0-62-25zm-107-292q-45-76-7-97 38-22 82 55 44 75 8 97-39 20-83-55zm-32-1243q-39 0-54 52t-37 87h1091q-24-35-39-87t-53-52h-908zm951 307q50 0 50-50t-50-50h-995q-50 0-50 50t50 50h995z" fill="currentColor"/>
 </g>
 <path id="path3027" d="m711.87 1244.6l69.114-55.291" transform="translate(0,-410)" stroke="#000" stroke-width="1px" fill="none"/>
 <path id="path3029" d="m1183.8 1374.5c-139.55-6.1849-267.18-37.246-392.71-95.578-20.153-9.3644-69.551-34.705-72.482-37.183-0.22435-0.1897 12.506-10.678 28.289-23.308l28.697-22.963 27.866 13.03c100.94 47.201 203.39 76.812 305.76 88.372 78.189 8.8297 185.65 7.4753 267.24-3.3679 55.975-7.4396 115.06-20.75 161.44-36.37l27.53-9.2717 7.2594 7.2595c18.256 18.256 14.078 52.472-8.396 68.752-8.2281 5.9604-24.196 11.268-64.736 21.517-48.921 12.368-99.035 20.583-158.52 25.983-26.395 2.3964-128.09 4.4189-157.23 3.1271z" transform="translate(0,-410)" fill="#e6e6e6"/>
 <path id="path3033" d="m1047.1 373.72c70.841 34.557 69.114 32.829 69.114 32.829" transform="translate(0,-410)" stroke="#000" stroke-width="1px" fill="none"/>
 <path id="path3035" d="m677.31 437.65l44.924-62.202" transform="translate(0,-410)" stroke="#000" stroke-width="1px" fill="none"/>
 <path id="path3037" d="m609.93 1180.6c58.747-63.93 58.747-63.93 58.747-63.93" transform="translate(0,-410)" stroke="#000" stroke-width="1px" fill="none"/>
 <path id="path3039" d="m350.75 926.63l48.379-70.841" transform="translate(0,-410)" stroke="#000" stroke-width="1px" fill="none"/>
 <path id="path3041" d="m600.83 1166.7c-50.77-32.5-155.79-129.3-202.08-186.21-12.76-15.7-32.42-43.27-38.9-54.57l-3.0576-5.3272 19.561-28.773 19.561-28.773 5.045 9.0466c17.132 30.722 41.638 63.814 66.765 90.159 29.368 30.791 100.58 95.912 104.94 95.965 3.0092 0.037 88.242-85.241 109.63-109.69 66.09-75.54 111.87-141.31 149.15-214.25 14.688-28.743 31.343-66.991 40.362-92.689l5.242-14.936-4.3575-5.798c-5.8475-7.7805-11.936-21.645-14.437-32.879-1.7965-8.0668-1.6757-27.395 0.22821-36.506 0.5149-2.4639-17.972-14.831-88.665-59.316l-89.315-56.203 19.268-26.69c10.598-14.68 20.077-26.375 21.066-25.989 0.98855 0.38553 40.211 25.21 87.161 55.165l85.364 54.464 8.8031-6.9973c12.132-9.6434 24.318-14.684 40.36-16.696 12.292-1.5414 30.903-0.40635 38.599 2.354 1.6135 0.5787 13.289-14.328 35.242-44.994 18.056-25.223 33.606-46.472 34.557-47.22 0.9503-0.74865 14.014 4.5504 29.031 11.776l27.303 13.137-37.146 53.251-37.146 53.251 7.695 10.453c10.847 14.735 13.75 25.434 13.506 49.782-0.3202 31.91-8.0742 54.011-24.686 70.363-17.507 17.233-37.628 23.675-73.894 23.658l-24.496-0.0121-7.3331 17.358c-45.216 107.03-111.96 210.94-199.24 310.18-9.5899 10.905-36.003 38.69-58.697 61.744l-41.26 41.916 4.1118 3.5487c2.2615 1.9517 10.138 7.8599 17.503 13.129 7.3649 5.2693 13.391 9.9682 13.391 10.442 0 1.2906-45.379 50.692-46.526 50.65-0.54418-0.02-6.0397-3.2701-12.212-7.2227v0.0004z" transform="translate(0,-410)" fill="#e6e6e6"/>
</svg>
