<?xml version="1.0" encoding="UTF-8" standalone="no"?>
<!DOCTYPE svg  PUBLIC '-//W3C//DTD SVG 1.1//EN'  'http://www.w3.org/Graphics/SVG/1.1/DTD/svg11.dtd'>
<svg xmlns="http://www.w3.org/2000/svg" viewBox="0 -410 2048 2048">
 <g transform="matrix(1 0 0 -1 0 1638)">
  <path d="m1154 1363h78q33 0 33-34t-33-34h-416q-34 0-34 34t34 34h77q-37 41-37 104 0 69 49 118.5t119 49.5q69 0 118.5-49.5t49.5-118.5q0-60-38-104zm48-886h200q34 0 34-33 0-34-34-34h-757q-33 0-33 34 0 33 33 33h199q-91 79-91 204 0 43 14 87l122 459h270l121-459q15-42 15-87 0-121-93-204zm-448-342q-63 0-85 77.5t-57 129.5h824q-36-52-58-129.5t-84-77.5h-540z" fill="currentColor"/>
 </g>
</svg>
