<?xml version="1.0" encoding="UTF-8" standalone="no"?>
<svg id="svg2" xmlns:rdf="http://www.w3.org/1999/02/22-rdf-syntax-ns#" xmlns="http://www.w3.org/2000/svg" height="100%" width="100%" version="1.1" xmlns:cc="http://creativecommons.org/ns#" xmlns:dc="http://purl.org/dc/elements/1.1/" viewBox="0 -410 2048 2048">
 <metadata id="metadata12">
  <rdf:RDF>
   <cc:Work rdf:about="">
    <dc:format>image/svg+xml</dc:format>
    <dc:type rdf:resource="http://purl.org/dc/dcmitype/StillImage"/>
   </cc:Work>
  </rdf:RDF>
 </metadata>
 <g id="g4" transform="matrix(1 0 0 -1 0 1638)">
  <path id="path6" d="m527 442h994q50 0 50-50t-50-50h-994q-50 0-50 50t50 50zm43-307q-39 0-54 52t-37 87h1090q-23-35-38-87t-53-52h-908zm454 1503q-57 0-96.5 39.5t-39.5 96.5q0 56 39.5 96t96.5 40q56 0 95.5-40t39.5-96q0-57-39.5-96.5t-95.5-39.5zm0-537q-26-44-52-87t-51-85q25-43 51-86t52-85q25 42 51 85l52 86q-26 42-52 85t-51 87zm-444-42q-5 75-9.5 152t-9.5 155q119-80 259-169 102 204 204 405 51-102 102.5-204.5t102.5-203.5q117 79 257 171-5-77-8.5-153.5t-7.5-151.5h371q-68-137-135.5-273.5t-134.5-273.5h-1095q-68 137-135.5 273.5t-134.5 273.5q93-1 186.5-1h187.5zm997 328q-57 0-96.5 39.5t-39.5 96.5q0 55 39.5 95t96.5 40q56 0 95.5-40t39.5-95q0-57-39.5-96.5t-95.5-39.5zm-1106 0q-57 0-96.5 39.5t-39.5 96.5q0 55 39.5 95t96.5 40q56 0 95.5-40t39.5-95q0-57-39.5-96.5t-95.5-39.5zm140-493q23-44 46.5-88t47.5-88h199q-24 43-47 87t-46 89h-200zm826 1h-200q-24-45-47-89t-47-88h200q23 44 46.5 88t47.5 89z" fill="currentColor"/>
 </g>
 <path id="path2989" d="m666.03 1248.2c-22.671-42.613-41.22-79.772-41.22-82.577 0-2.8044 41.98-3.9905 93.288-2.6358l93.288 2.463 41.565 80.271 41.565 80.271-93.633-0.1575-93.633-0.1575-41.22-77.478z" transform="translate(0,-410)" fill="#e6e6e6"/>
 <path id="path2991" d="m973.17 1196.3-45.953-77.621 46.222-78.375c25.422-43.106 48.175-78.354 50.561-78.328 2.3864 0.0259 25.063 35.423 50.392 78.661l46.053 78.614-45.784 77.335c-25.181 42.534-47.978 77.335-50.661 77.335-2.6828 0-25.556-34.929-50.83-77.621z" transform="translate(0,-410)" fill="#e6e6e6"/>
 <path id="path2993" d="m1155.8 1319.5c1.6806-3.5796 20.449-40.678 41.708-82.441l38.652-75.932h94.247c51.836 0 92.945 3.0762 91.354 6.836-1.5909 3.7599-20.466 40.84-41.944 82.402l-39.051 75.565-94.011 0.039c-51.706 0.022-92.636-2.8894-90.956-6.4691z" transform="translate(0,-410)" fill="#e6e6e6"/>
</svg>
