<?xml version="1.0" encoding="UTF-8" standalone="no"?>
<svg id="svg2" xmlns:rdf="http://www.w3.org/1999/02/22-rdf-syntax-ns#" xmlns="http://www.w3.org/2000/svg" height="100%" width="100%" version="1.1" xmlns:cc="http://creativecommons.org/ns#" xmlns:dc="http://purl.org/dc/elements/1.1/" viewBox="0 -410 2048 2048">
 <metadata id="metadata12">
  <rdf:RDF>
   <cc:Work rdf:about="">
    <dc:format>image/svg+xml</dc:format>
    <dc:type rdf:resource="http://purl.org/dc/dcmitype/StillImage"/>
   </cc:Work>
  </rdf:RDF>
 </metadata>
 <g id="g4" transform="matrix(1 0 0 -1 0 1638)">
  <path id="path6" d="m1702 274q-31-35-50.5-87t-66.5-52h-1122q-48 0-67 52t-50 87l166 168 172 954h-119q-53 0-53 53 0 54 53 54h917q54 0 54-54 0-53-54-53h-117l171-954zm-678 954q-74 0-74-68v-172q0-67 74-67 75 0 75 67v172q0 68-75 68zm270-954q-56 0-95.5 39.5t-39.5 95.5v209q0 55-40 95t-95 40q-57 0-96-40t-39-95v-209q0-56-40.5-95.5t-96.5-39.5h542zm222 1293h-985q-58 0-59.5 120.5t-1.5 222.5h183l64-136h153l61 136h186l60-136h154l64 136h182q0-102-2-222.5t-59-120.5z" fill="currentColor"/>
 </g>
 <path id="path2993" d="m830.57 1755c52.563-32.049 63.264-69.097 63.279-219.08 0.0113-109 2.7216-138.07 15.186-162.88 46.671-92.893 183.27-92.893 229.94 0 12.494 24.867 15.175 53.976 15.186 164.84 0.015 151.24 7.7154 178.44 60.755 214.64l28.605 19.525-220.4-0.033-220.4-0.032 27.853-16.983z" transform="translate(0,-410)" fill="#e6e6e6"/>
 <path id="path2995" d="m972.27 1102.2c-15.869-17.034-17.694-30.29-17.694-128.53 0-98.243 1.8249-111.5 17.694-128.53 23.485-25.208 79.345-26.089 103.8-1.6363 15.576 15.576 17.356 28.927 17.356 130.17s-1.7801 114.59-17.356 130.17c-24.453 24.453-80.312 23.572-103.8-1.6363z" transform="translate(0,-410)" fill="#e6e6e6"/>
</svg>
