<?xml version="1.0" encoding="UTF-8" standalone="no"?>
<svg id="svg2" xmlns:rdf="http://www.w3.org/1999/02/22-rdf-syntax-ns#" xmlns="http://www.w3.org/2000/svg" height="100%" width="100%" version="1.1" xmlns:cc="http://creativecommons.org/ns#" xmlns:dc="http://purl.org/dc/elements/1.1/" viewBox="0 -410 2048 2048">
 <metadata id="metadata12">
  <rdf:RDF>
   <cc:Work rdf:about="">
    <dc:format>image/svg+xml</dc:format>
    <dc:type rdf:resource="http://purl.org/dc/dcmitype/StillImage"/>
   </cc:Work>
  </rdf:RDF>
 </metadata>
 <g id="g4" transform="matrix(1 0 0 -1 0 1638)">
  <path id="path6" d="m596 859q38-62 67.5-129.5t29.5-142.5h663q12 136 97 273 47 87 47 186 0 177-140 304t-336 127q-198 0-337-127t-139-304q0-99 48-187zm360-171l-35 310-135 32v136l135 36 35 171h135l36-171 135-36v-136l-135-32-36-310h-135zm70 1020q-57 0-57-33 0-32 57-32 56 0 56 32 0 33-56 33zm48-120l-1-44q207-17 350.5-160t143.5-338q0-87-35-185-48-74-86-157t-45-188h-754q-11 112-46 185.5t-84 156.5q-36 93-36 188 0 195 143.5 338t350.5 160l-1 44q-83 32-83 93 0 38 38.5 65.5t92.5 27.5 93-27.5 39-65.5q0-63-80-93zm68-1453q-45-5-48.5 48t-21.5 89q109 1 220.5 1.5t222.5 0.5q-21-35-35-87t-48-52h-290zm-237 0h-290q-34 0-47.5 52t-34.5 87q111 0 221.5-0.5t221.5-1.5q-18-36-20.5-89.5t-50.5-47.5zm-240 307h718q50 0 50-50t-50-50h-718q-50 0-50 50t50 50z" fill="currentColor"/>
 </g>
 <path id="path3763" d="m689.65 1397.6c-6.845-40.721-25.791-90.319-62.153-162.71-64.144-127.7-72.302-154.1-72.302-233.99 0-81.516 19.182-145.73 63.24-211.71 91.5-137.02 232.36-209.49 407.22-209.49 133.95 0 237 40.553 334.27 131.54 65.014 60.817 94.534 106.31 118.08 181.95 32.978 105.96 19.165 193.45-53.186 336.9-39.616 78.543-69.312 167.58-69.312 207.81 0 18.256-0.2993 18.273-328 18.273h-328l-9.8465-58.576zm409.46-73.763c2.7603-20.285 11.033-87.647 18.384-149.69 7.351-62.047 16.071-115.24 19.377-118.21 3.3066-2.9698 34.324-12.177 68.927-20.46l62.915-15.06v-71.149-71.149l-67.12-17.417-67.12-17.417-10.387-38.5c-5.7128-21.175-14.868-61.107-20.346-88.738l-9.959-50.238-70.907 2.5094-70.907 2.5094-17.759 86.448-17.759 86.448-66.851 16.49-66.851 16.491v72.456 72.456l32.542 8.1957c17.898 4.5076 48.163 11.636 67.254 15.841l34.712 7.6449 16.854 153.71 16.854 153.71h71.563 71.563l5.0187-36.881z" transform="translate(0,-410)" fill="#f9f9f9"/>
 <path id="path3765" d="m982.35 388.89c-22.552-14.376 1.2401-38.799 40.685-41.764 41.12-3.0908 64.152 15.553 46.095 37.311-12.06 14.531-66.582 17.329-86.78 4.4531z" transform="translate(0,-410)" fill="#f9f9f9"/>
</svg>
