<?xml version="1.0" encoding="UTF-8" standalone="no"?>
<svg id="svg2" xmlns:rdf="http://www.w3.org/1999/02/22-rdf-syntax-ns#" xmlns="http://www.w3.org/2000/svg" height="100%" width="100%" version="1.1" xmlns:cc="http://creativecommons.org/ns#" xmlns:dc="http://purl.org/dc/elements/1.1/" viewBox="0 -410 2048 2048">
 <metadata id="metadata12">
  <rdf:RDF>
   <cc:Work rdf:about="">
    <dc:format>image/svg+xml</dc:format>
    <dc:type rdf:resource="http://purl.org/dc/dcmitype/StillImage"/>
   </cc:Work>
  </rdf:RDF>
 </metadata>
 <g id="g4" transform="matrix(1 0 0 -1 0 1638)">
  <path id="path6" d="m1060 1638h98q71 0 121.5-50.5t50.5-120.5v-114l43 75q35 61 103.5 79.5t130.5-16.5l233-134q60-36 79-105t-17-129l-203-353q-55-93-163-89h103q55 0 95-40t40-95v-69q0-56-40-95.5t-95-39.5h-1230q-56 0-95.5 39.5t-39.5 95.5v69q0 55 39.5 95t95.5 40h103q-110-4-163 90l-203 352q-36 61-17.5 129.5t79.5 104.5l233 134q60 35 129 16.5t105-78.5l44-77-1 115q0 70 50 120.5t122 50.5h99l-17 86-83 18v67l83 16 16 85h71l16-85 84-16v-67l-84-18zm408-1075h135v-103h-135v103zm-1024 0h136v-103h-136v103zm342 0h135v-103h-135v103zm341 0h135v-103h-135v103zm-718 50q-68 0-68-67v-68q0-68 68-68h1230q67 0 67 68v68q0 67-67 67h-1230zm1014 197l76-44q89-52 141 38l204 353q50 88-38 141l-233 134q-90 53-141-37l-171-295 1 367q0 103-103 103h-270q-103 0-103-103v-366l-170 294q-52 89-141 38l-233-135q-90-52-38-141l204-353q51-90 141-38l77 45q172 145 398 145 224 0 399-146zm29-128q-76 94-187.5 150t-240.5 56q-130 0-241-56t-186-150h855zm-428 785q103 0 103-103v-201q0-103-103-103t-103 103v201q0 103 103 103zm614-192q89-52 37-140l-100-174q-52-90-141-38t-38 141l101 174q50 89 141 37zm-1228 1q88 50 141-38l100-174q52-89-37-141h-1q-90-51-140 38l-101 174q-51 88 38 141zm51-1141q-48 0-66.5 52t-46.5 87h1352q-28-35-47-87t-66-52h-1126z" fill="currentColor"/>
 </g>
 <path id="path2989" d="m437.1 1268.9c-35.39-36.6-237.42-392.09-243.23-427.9-7.0258-43.295 22.849-71.219 161.92-151.36 131.9-76.003 158.71-89.131 181.98-89.131 32.43 0 68.701 45.518 152.1 190.88 46.73 81.447 88.305 150.15 92.391 152.68 4.0854 2.5249 7.8172-82.528 8.293-189.01 0.47573-106.48 3.4975-203.01 6.715-214.51 3.2175-11.502 16.782-29.075 30.144-39.051 22.735-16.974 35.351-18.138 196.58-18.138s173.85 1.1641 196.58 18.138c13.362 9.976 26.927 27.549 30.144 39.051 3.2174 11.502 6.3634 108.78 6.9909 216.17 1.3304 227.67-9.7142 225.21 106.27 23.705 78.148-135.77 114.21-179.91 146.99-179.91 20.641 0 58.17 18.764 194.24 97.117 126.55 72.867 155.78 101.02 148.91 143.37-5.8105 35.806-207.84 391.27-243.23 427.95-15.881 16.461-33.628 25.804-49.017 25.804-29.437 0-101.76-37.22-177.89-91.543-136.83-97.642-305.04-134.75-472.81-104.31-92.804 16.838-157.25 43.566-237.76 98.605-93.175 63.697-157.8 97.252-187.31 97.252-15.389 0-33.136-9.3427-49.017-25.804zm164.13-133.62c15.359-6.5442 37.599-22.385 49.422-35.201 36.602-39.675 29.888-73.204-39.051-195.01-84.94-150.05-121.01-177.36-188.98-143.02-64.132 32.403-87.354 78.419-65.178 129.15 23.124 52.903 113.94 205.07 137.35 230.12 27.244 29.165 60.533 33.536 106.44 13.977zm953.88-18.024c45.614-47.687 141.04-228 141.04-266.51 0-40.094-26.547-70.665-78.638-90.559-68.37-26.111-90.334-10.577-165.71 117.2-89.054 150.96-95.749 183.09-47.715 229.02 28.333 27.093 57.482 39.483 94.618 40.218 20.771 0.4111 35.012-7.0042 56.407-29.372zm-470.2-139.38c13.94-7.2087 29.366-20.62 34.281-29.802 12.272-22.931 11.679-297.37-0.7012-324.54-13.387-29.381-44.424-43.75-94.499-43.75-50.076 0-81.112 14.369-94.499 43.75-12.349 27.103-12.975 301.61-0.7404 324.47 21.364 39.918 105.58 56.03 156.16 29.875z" transform="translate(0,-410)" fill="#f9f9f9"/>
 <path id="path2991" d="m364.47 1615.8c-24.382-24.382-25.438-137.52-1.4862-159.2 14.467-13.092 72.775-14.362 659.53-14.362 748.21 0 678.37-9.8287 678.37 95.458 0 105.28 69.63 95.458-676.88 95.458-630.6 0-642.48-0.3127-659.53-17.356zm216.95-82.441v-56.407h-69.424-69.424v56.407 56.407h69.424 69.424v-56.407zm347.12 0v-56.407h-73.763-73.763v56.407 56.407h73.763 73.763v-56.407zm338.44 0v-56.407h-73.763-73.763v56.407 56.407h73.763 73.763v-56.407zm338.44 0v-56.407h-69.424-69.424v56.407 56.407h69.424 69.424v-56.407z" transform="translate(0,-410)" fill="#f9f9f9"/>
</svg>
