<?xml version="1.0" encoding="UTF-8" standalone="no"?>
<svg id="svg2" xmlns:rdf="http://www.w3.org/1999/02/22-rdf-syntax-ns#" xmlns="http://www.w3.org/2000/svg" height="100%" width="100%" version="1.1" xmlns:cc="http://creativecommons.org/ns#" xmlns:dc="http://purl.org/dc/elements/1.1/" viewBox="0 -410 2048 2048">
 <metadata id="metadata12">
  <rdf:RDF>
   <cc:Work rdf:about="">
    <dc:format>image/svg+xml</dc:format>
    <dc:type rdf:resource="http://purl.org/dc/dcmitype/StillImage"/>
   </cc:Work>
  </rdf:RDF>
 </metadata>
 <g id="g4" transform="matrix(1 0 0 -1 0 1638)">
  <path id="path6" d="m1521 513h-957q-59 0-61 52t67 115q30 35 65 67t68 64q-25 14-45.5 30.5t-45.5 28.5q-30-27-63.5-49.5t-73.5-25.5q-10 0-30-5t-20 5q-18-4-30 2t-30 9q-23 5-63.5 51.5t-52.5 66.5q-18 75 37 133.5t90 122.5q36 70 83.5 134t58.5 153q69 24 112.5 93.5t95.5 127.5q13 42 11.5 90t-8.5 92q15 11 43 10t56-5q15-3 36-9 48-27 90.5-72t60.5-102q43-21 85-39.5t86-39.5q125-55 237 6-28-48-62-77-16-12-35-24 114-107 261-58-31-40-75-65-12-8-25-13.5t-24-10.5q81-138 238-128-42-32-88-43-29-9-50-7 43-153 197-183-50-19-97-19-23 0-45 3 0-11 4-31-2-69-3-120 61-64 141-79-50-19-97-19-17 0-51 4-8-50-18-105 60-67 145-85-48-19-97-19-41 0-92 16-13-22-29-43zm-787 1065q-33-48-72-97t-87-64q-9-67-58.5-152t-82.5-140q61-74 132-135 102 102 183 206t121 225q-21 24-21 60 0 13 5 17zm30-721l49.5 49.5t46.5 53.5q33 33 34 42l-12.5-5t-11.5-9q-23-10-48.5-21.5t-52.5-17.5q-58 8-107-30 25-17 51-32t51-30zm298 731l-34-51q22-21 22-56 0-100-101-100-3 0-23 2-98-214-272-384 21 12 55 19 33-3 53 0.5t51 27.5q3 0 90.5 17t45.5-55q-9-24-21.5-53.5t-36.5-60.5q-22-40-56-68 186-78 374.5-82t347.5 56q3 83-16 187-35 203-149 345-53 69-116 118-79 64-214 138zm-669-529q-62-69-74-100 18-29 45-63t69-36q21-9 43.5 0t37.5 21q15 6 41 25-42 33-83 73t-79 80zm1154-343q-174-57-377.5-43.5t-398.5 105.5q-14-13-30-28.5t-34-35.5q-38-39-93.5-80.5t-20.5-52.5h891q48 78 63 135zm-774 914l114-74q23 25 62 25 18 0 28-4l29 43q-39 20-49 25-18 53-26.5 71.5t-38.5 51.5q-18 17-36.5 30.5t-48.5 12.5q7-51 5-88.5t-28-73.5q-11-11-11-19zm-127-275q42 69 76 50 33-19-7-88-42-69-75-49-35 17 6 87zm-76-1220q-39 0-54 52t-37 87h1090q-23-35-38-87t-53-52h-908zm950 307q50 0 50-50t-50-50h-994q-50 0-50 50t50 50h994z" fill="currentColor"/>
 </g>
 <path id="path2989" d="m1071.3 1285.5c-67.432-12.25-148.95-34.604-192.88-52.892l-28.437-11.838 30.689-42.717c35.611-49.567 82.592-149.12 82.592-175 0-9.8004-6.2268-20.208-13.837-23.129-21.045-8.0758-133.27 14.53-163.43 32.919-15.207 9.2734-42.835 16.274-64.295 16.293l-37.63 0.033 56.229-67.415c62.54-74.92 108.64-142.29 156.95-229.28 30.737-55.35 34.1-58.392 70.601-63.866 56.776-8.5141 82.183-37.702 82.183-94.413 0-24.645-3.79-48.6-8.4222-53.232-5.4442-5.4442-3.048-16.615 6.777-31.592l15.199-23.17 79.408 49.382c117.38 72.996 177.98 123.58 236.99 197.85 60.3 75.881 102.34 154.46 129.21 241.54 21.279 68.954 44.072 200.16 44.124 253.99l0.035 36.545-45.559 13.61c-128.27 38.321-310.4 49.356-436.51 26.449h0.0002z" transform="translate(0,-410)" fill="#f9f9f9"/>
 <path id="path2991" d="m500.41 986.66c-31.807-32.946-57.83-62.165-57.83-64.932 0-2.7664 15.498-30.35 34.439-61.297 50.892-83.147 84.871-153.55 91.715-190.03 4.2788-22.808 12.913-35.856 29.353-44.357 23.792-12.303 73.968-63.782 114.39-117.35l22.57-29.917 56.678 36.927c31.173 20.31 56.26 41.65 55.75 47.422-0.51043 5.7721 2.1373 26.449 5.8837 45.949 8.1179 42.253-15.943 104.03-73.687 189.19-55.576 81.963-200.31 248.31-216.04 248.31-2.9597 0-31.405-26.956-63.212-59.902zm201.48-230.97c42.672-48.601 49.241-110.12 12.319-115.37-31.041-4.4165-51.948 12.747-76.395 62.715-18.697 38.216-21.216 50.481-13.374 65.134 14.821 27.693 46.686 22.558 77.45-12.48z" transform="translate(0,-410)" fill="#f9f9f9"/>
 <path id="path2993" d="m833.08 450.93c-26.251-17.46-48.646-32.41-49.767-33.222-1.1211-0.81261 5.7128-16.681 15.186-35.263 11.773-23.093 17.225-51.057 17.225-88.357 0-30.015 3.1464-54.572 6.992-54.572 12.964 0 63.711 41.752 83.733 68.89 10.928 14.813 26.328 43.842 34.221 64.51 8.8158 23.084 22.689 41.377 35.969 47.428 18.661 8.5026 20.189 12.138 11.17 26.58-6.7011 10.73-23.093 18.024-45.707 20.338-19.392 1.9842-41.117 6.2641-48.276 9.5108-7.9733 3.6158-31.51-6.3971-60.746-25.842z" transform="translate(0,-410)" fill="#f9f9f9"/>
 <path id="path2995" d="m398.57 1172.6c-21.184-11.52-68.806-71.23-68.806-86.272 0-3.8769 13.572-25.537 30.159-48.134l30.159-41.085 76.138 72.786c61.892 59.168 73.704 74.409 63.129 81.46-54.786 36.53-91.656 42.519-130.78 21.244z" transform="translate(0,-410)" fill="#f9f9f9"/>
 <path id="path2987" d="m603.29 1435.2c14.227-13.415 57.859-54.876 96.96-92.137l71.093-67.746 63.416 26.186c198.9 82.133 477.85 103.03 660.51 49.472 41.442-12.151 41.665-12.108 35.758 6.9735-3.2695 10.56-15.267 37.75-26.662 60.421l-20.717 41.22h-453.11-453.11l25.867-24.39z" transform="translate(0,-410)" fill="#f9f9f9"/>
</svg>
