<?xml version="1.0" encoding="UTF-8" standalone="no"?>
<svg id="svg2" xmlns:rdf="http://www.w3.org/1999/02/22-rdf-syntax-ns#" xmlns="http://www.w3.org/2000/svg" height="100%" width="100%" version="1.1" xmlns:cc="http://creativecommons.org/ns#" xmlns:dc="http://purl.org/dc/elements/1.1/" viewBox="0 -410 2048 2048">
 <metadata id="metadata12">
  <rdf:RDF>
   <cc:Work rdf:about="">
    <dc:format>image/svg+xml</dc:format>
    <dc:type rdf:resource="http://purl.org/dc/dcmitype/StillImage"/>
   </cc:Work>
  </rdf:RDF>
 </metadata>
 <g id="g4" transform="matrix(1 0 0 -1 0 1638)">
  <path id="path6" d="m754 203h540q20 0 25.5 26.5t17.5 44.5h-626q10-18 16-44.5t27-26.5zm0-68q-63 0-85 77.5t-57 129.5h824q-36-52-58-129.5t-84-77.5h-540zm400 1228h78q33 0 33-34t-33-34h-416q-34 0-34 34t34 34h77q-37 41-37 104 0 69 49 118.5t119 49.5q69 0 118.5-49.5t49.5-118.5q0-60-38-104zm-130 207q-104 0-104-103 0-104 104-104 103 0 103 104 0 103-103 103zm178-1093h200q34 0 34-33 0-34-34-34h-757q-33 0-33 34 0 33 33 33h199q-91 79-91 204 0 43 14 87l122 459h270l121-459q15-42 15-87 0-121-93-204zm18 255l-111 427h-170l-111-427q-8-23-8-51 0-84 60-144t144-60 143.5 60 59.5 144q0 27-7 51z" fill="currentColor"/>
 </g>
 <path id="path2989" d="m945.9 1549.9c-16.705-7.2358-41.606-23.68-55.335-36.542-30.721-28.781-65.908-101.16-66.217-136.2-0.12626-14.319 26.195-128.52 58.491-253.78l58.721-227.74 82.441-0.0115 82.441-0.0116 54.189 210.4c29.804 115.72 56.592 228.2 59.529 249.96 9.9826 73.963-46.652 163.65-123.66 195.82-37.359 15.61-112.36 14.661-150.6-1.904z" transform="translate(0,-410)" fill="#f9f9f9"/>
 <path id="path2991" d="m953.91 653.25c-22.021-22.021-25.366-31.801-25.366-74.157 0-73.334 30.702-98.509 112.81-92.505 53.815 3.9352 78.102 35.649 78.102 101.99 0 31.877-4.7962 44.106-25.366 64.676-21.474 21.474-32.229 25.366-70.091 25.366s-48.617-3.8923-70.091-25.366z" transform="translate(0,-410)" fill="#f9f9f9"/>
 <path id="path2993" d="m733.57 1816c-7.316-14.148-13.302-27.869-13.302-30.493 0-2.6235 136.69-4.77 303.75-4.77h303.75l-11.505 28.203-11.505 28.203-278.95 2.2894-278.95 2.2893-13.302-25.723z" transform="translate(0,-410)" fill="#f9f9f9"/>
</svg>
