<?xml version="1.0" encoding="UTF-8" standalone="no"?>
<svg id="svg2" xmlns:rdf="http://www.w3.org/1999/02/22-rdf-syntax-ns#" xmlns="http://www.w3.org/2000/svg" height="100%" width="100%" version="1.1" xmlns:cc="http://creativecommons.org/ns#" xmlns:dc="http://purl.org/dc/elements/1.1/" viewBox="0 -410 2048 2048">
 <metadata id="metadata12">
  <rdf:RDF>
   <cc:Work rdf:about="">
    <dc:format>image/svg+xml</dc:format>
    <dc:type rdf:resource="http://purl.org/dc/dcmitype/StillImage"/>
   </cc:Work>
  </rdf:RDF>
 </metadata>
 <g id="g4" transform="matrix(1 0 0 -1 0 1638)">
  <path id="path6" d="m1437 895q-24-45-47.5-89t-46.5-88h-200q24 44 47 88t47 89h200zm-826-1h200q23-45 46-89t47-87h-199q-24 44-47.5 88t-46.5 88zm-140 493q-57 0-96.5 39.5t-39.5 96.5q0 55 39.5 95t96.5 40q56 0 95.5-40t39.5-95q0-57-39.5-96.5t-95.5-39.5zm0 68q67 0 67 68 0 67-67 67-68 0-68-67 0-68 68-68zm1106-68q-57 0-96.5 39.5t-39.5 96.5q0 55 39.5 95t96.5 40q56 0 95.5-40t39.5-95q0-57-39.5-96.5t-95.5-39.5zm0 68q67 0 67 68 0 67-67 67-68 0-68-67 0-68 68-68zm-997-396q-5 75-9.5 152t-9.5 155q119-80 259-169 102 204 204 405 51-102 102.5-204.5t102.5-203.5q117 79 257 171-5-77-8.5-153.5t-7.5-151.5h371q-68-137-135.5-273.5t-134.5-273.5h-1095q-68 137-135.5 273.5t-134.5 273.5q93-1 186.5-1h187.5zm834 182q-49-32-101-66.5t-106-72.5q-46 90-92 182.5t-91 185.5q-46-91-92-182.5t-92-181.5q-54 35-105.5 69.5t-100.5 67.5q3-64 10-126.5t10-124.5h-348q51-103 102.5-206t103.5-205h1024l102.5 205t103.5 206h-341q5 137 13 249zm-390-140q25-44 51-87t52-85l-52-86t-51-85q-26 42-52 85t-51 86q25 42 51 85t52 87zm0 605q67 0 67 68t-67 68q-68 0-68-68t68-68zm0-68q-57 0-96.5 39.5t-39.5 96.5q0 56 39.5 96t96.5 40q56 0 95.5-40t39.5-96q0-57-39.5-96.5t-95.5-39.5zm-454-1503q-39 0-54 52t-37 87h1090q-23-35-38-87t-53-52h-908zm-43 307h994q50 0 50-50t-50-50h-994q-50 0-50 50t50 50z" fill="currentColor"/>
 </g>
 <path id="path2989" d="m412.2 1260-99.869-199.59h174.58 174.58l-4.9364-36.881c-2.715-20.285-7.5564-75.336-10.759-122.34l-5.8223-85.455 98.048 65.518c53.926 36.035 100.3 64.043 103.06 62.24 2.7574-1.8029 44.064-79.637 91.793-172.97 47.729-93.328 88.81-169.77 91.292-169.87 2.4819-0.10028 43.407 77.919 90.945 173.38 47.538 95.458 89.341 173.56 92.895 173.56s50.133-29.99 103.51-66.645l97.048-66.645-6.0906 123.05-6.0907 123.05h169.64 169.64l-99.869 199.59-99.869 199.59h-511.93-511.93l-99.869-199.59zm497.45 71.593c-1.6393-3.5797-23.478-46.536-48.531-95.458l-45.551-88.949h-104.06c-57.231 0-104.06 2.5183-104.06 5.5962 0 3.0778 21.69 46.034 48.201 95.458l48.201 89.862h104.39c57.413 0 103.05-2.9288 101.41-6.5085zm482.49-83.73c26.622-49.631 48.403-92.587 48.403-95.458 0-2.8708-46.523-5.2196-103.38-5.2196h-103.38l-48.48 91.598c-26.664 50.379-48.48 93.335-48.48 95.458 0 2.1226 46.558 3.8593 103.46 3.8593h103.46l48.403-90.238zm-316.07-33.63c26.251-44.035 48.965-84.81 50.477-90.611 3.1135-11.95-92.47-176.03-102.54-176.03-7.7369 0-104.14 159.54-104.14 172.34 0 10.666 97.915 174.86 104.1 174.57 2.4055-0.1139 25.852-36.236 52.102-80.271z" transform="translate(0,-410)" fill="#f9f9f9"/>
 <path id="path2991" d="m998.21 330.52c-27.524-10.994-34.66-22.798-34.824-57.601-0.26045-55.278 65.484-84.078 104-45.559 29.188 29.188 16.761 104.14-17.266 104.14-4.0416 0-12.549 1.7084-18.906 3.7963-6.3564 2.088-21.21-0.059-33.007-4.7712z" transform="translate(0,-410)" fill="#f9f9f9"/>
 <path id="path2993" d="m453.5 585.15c-44.252-7.2381-60.107-72.154-25.551-104.62 41.157-38.665 101.5-14.711 101.27 40.2-0.0729 17.628-3.0814 36.687-6.6851 42.355-9.0366 14.212-45.6 25.896-69.038 22.062z" transform="translate(0,-410)" fill="#f9f9f9"/>
 <path id="path2995" d="m1550.8 580.87c-38.738-12.913-46.775-75.502-13.358-104.02 54.733-46.709 131.43 26.641 89.885 85.959-15.324 21.878-44.453 28.753-76.527 18.062z" transform="translate(0,-410)" fill="#f9f9f9"/>
</svg>
