<?xml version="1.0" encoding="UTF-8" standalone="no"?>
<svg id="svg2" xmlns:rdf="http://www.w3.org/1999/02/22-rdf-syntax-ns#" xmlns="http://www.w3.org/2000/svg" height="100%" width="100%" version="1.1" xmlns:cc="http://creativecommons.org/ns#" xmlns:dc="http://purl.org/dc/elements/1.1/" viewBox="0 -410 2048 2048">
 <metadata id="metadata12">
  <rdf:RDF>
   <cc:Work rdf:about="">
    <dc:format>image/svg+xml</dc:format>
    <dc:type rdf:resource="http://purl.org/dc/dcmitype/StillImage"/>
   </cc:Work>
  </rdf:RDF>
 </metadata>
 <g id="g4" transform="matrix(1 0 0 -1 0 1638)">
  <path id="path6" d="m1516 1567h-985q-58 0-59.5 120.5t-1.5 222.5h183l64-136h153l61 136h186l60-136h154l64 136h182q0-102-2-222.5t-59-120.5zm0 275h-92l-61-132h-218l-60 132h-122l-61-132h-217l-61 132h-93q0-51 3-131t35-80h913q31 0 32.5 80t1.5 131zm-761-1568q54 0 94 39.5t40 95.5v209q0 55 39 95t96 40q55 0 95-40t40-95v-209q0-56 39-95.5t91-39.5h324l-139 137-177 984-552-1q-45-246-89-491.5t-88-491.5q-36-34-70.5-68.5t-69.5-68.5h327zm269 954q67 0 67-68v-172q0-67-67-67-68 0-68 67v172q0 68 68 68zm678-954q-31-35-50.5-87t-66.5-52h-1122q-48 0-67 52t-50 87l166 168 172 954h-119q-53 0-53 53 0 54 53 54h917q54 0 54-54 0-53-54-53h-117l171-954z" fill="currentColor"/>
 </g>
 <path id="path2989" d="m505.28 1705.3 67.042-67.766 65.531-364.47c36.042-200.46 75.188-416.85 86.991-480.87 11.803-64.018 21.461-119.66 21.461-123.66 0-3.996 122.75-7.2655 272.77-7.2655 252.36 0 273.09 1.1362 277.06 15.186 2.357 8.3525 42.109 228.01 88.338 488.14l84.052 472.95 66.281 67.674 66.281 67.673-175.12-2.5887c-161.08-2.3811-177.04-4.0237-199.06-20.481-56.22-42.023-59.334-52.468-64.06-214.85-3.8935-133.78-6.2824-152.21-23.265-179.46-26.359-42.301-61.55-60.746-115.9-60.746-56.639 0-97.878 23.754-121.45 69.953-14.759 28.93-17.086 51.305-17.086 164.29 0 149.74-6.8553 175.46-56.956 213.7l-32.763 25.008-178.6 2.6814-178.6 2.6814 67.042-67.766zm570.79-592.78c15.703-15.703 17.356-28.927 17.356-138.85s-1.6529-123.14-17.356-138.85c-11.571-11.571-28.927-17.356-52.068-17.356s-40.497 5.7853-52.068 17.356c-15.703 15.703-17.356 28.927-17.356 138.85s1.653 123.14 17.356 138.85c11.571 11.571 28.927 17.356 52.068 17.356s40.497-5.7853 52.068-17.356z" transform="translate(0,-410)" fill="#f9f9f9"/>
 <path id="path2991" d="m504.9 1705.6c65.126-66.539 66.964-69.612 79.643-133.2 7.1381-35.797 15.284-80.306 18.103-98.91 2.8182-18.604 6.9655-42.034 9.2161-52.068 2.2506-10.033 5.6908-28.005 7.6449-39.938 1.9541-11.932 11.643-66.603 21.53-121.49 9.8875-54.888 20.185-113.46 22.883-130.17 2.6981-16.705 6.4904-36.23 8.4274-43.39 1.937-7.1594 5.7938-28.637 8.5706-47.729s6.6819-40.569 8.678-47.729c1.996-7.1593 5.9011-28.637 8.678-47.729 2.7768-19.092 6.6819-40.57 8.678-47.729 1.996-7.1593 5.7439-26.685 8.3286-43.39 7.2216-46.674 20.683-122.82 27.026-152.89 5.4538-25.848 8.0527-27.302 58.194-32.542 67.119-7.0153 429.84-7.1737 464.69-0.20285 27.02 5.404 33.135 16.58 42.221 77.158 2.1476 14.319 11.886 68.99 21.641 121.49 9.7549 52.502 19.385 105.22 21.399 117.15 2.0147 11.932 5.6244 31.458 8.0214 43.39 2.3969 11.932 6.0081 31.458 8.0248 43.39 2.0168 11.932 15.951 90.034 30.965 173.56s29.108 163.58 31.322 177.9c2.213 14.319 11.869 68.99 21.457 121.49l17.434 95.458 66.703 68.265 66.703 68.265-173.48-5.7716c-195.56-6.5061-213.86-11.704-241.9-68.697-12.904-26.226-17.046-59.679-20.388-164.64-5.8789-184.66-30.497-230.28-128.67-238.42-57.296-4.7514-100.97 15.032-127.43 57.722-17.509 28.25-20.191 46.875-25.166 174.8-3.2738 84.177-9.9619 152.13-16.229 164.88-5.863 11.932-24.024 32.938-40.359 46.679l-29.699 24.984-179.76 4.0758-179.76 4.0756 66.664-68.11zm571.17-593.13c15.703-15.703 17.356-28.927 17.356-138.85s-1.6529-123.14-17.356-138.85c-11.571-11.571-28.927-17.356-52.068-17.356s-40.497 5.7853-52.068 17.356c-15.703 15.703-17.356 28.927-17.356 138.85s1.653 123.14 17.356 138.85c11.571 11.571 28.927 17.356 52.068 17.356s40.497-5.7853 52.068-17.356z" transform="translate(0,-410)" fill="#f9f9f9"/>
 <path id="path2993" d="m546.5 387.34c-4.6548-12.243-8.4632-57.151-8.4632-99.797v-77.537h41.822 41.822l28.603 65.085 28.603 65.085h114.58 114.58l28.603-65.085 28.603-65.085h58.574 58.574l28.378 65.085 28.377 65.085h114.98 114.98l28.603-65.085 28.603-65.085h41.822 41.822v77.537c0 42.645-3.8084 87.554-8.4632 99.797l-8.4632 22.26h-469.04-469.04l-8.4632-22.26z" transform="translate(0,-410)" fill="#f9f9f9"/>
</svg>
