<?xml version="1.0" encoding="UTF-8" standalone="no"?>
<svg id="svg2" xmlns:rdf="http://www.w3.org/1999/02/22-rdf-syntax-ns#" xmlns="http://www.w3.org/2000/svg" xmlns:osb="http://www.openswatchbook.org/uri/2009/osb" height="100%" viewBox="0 -200 1000 1000" width="100%" version="1.1" xmlns:cc="http://creativecommons.org/ns#" xmlns:xlink="http://www.w3.org/1999/xlink" xmlns:dc="http://purl.org/dc/elements/1.1/">
 <metadata id="metadata12">
  <rdf:RDF>
   <cc:Work rdf:about="">
    <dc:format>image/svg+xml</dc:format>
    <dc:type rdf:resource="http://purl.org/dc/dcmitype/StillImage"/>
    <dc:title/>
   </cc:Work>
  </rdf:RDF>
 </metadata>
 <defs id="defs10">
  <filter id="filter5243" y="-.050404" width="1.4158" x="-.20792" height="1.1008">
   <feGaussianBlur id="feGaussianBlur5245" stdDeviation="17.620182"/>
  </filter>
  <linearGradient id="linearGradient5247" x1="56.207" gradientUnits="userSpaceOnUse" y1="808.65" gradientTransform="translate(279.66 -225.42)" x2="329.47" y2="538.14">
   <stop id="stop5225" offset="0"/>
   <stop id="stop5227" stop-opacity="0" offset="1"/>
  </linearGradient>
 </defs>
 <rect id="rect3013" opacity=".98" stroke-linejoin="round" ry="165.76" transform="matrix(.94236 .47865 -.53732 .88096 105.23 -250.44)" height="893.09" filter="url(#filter5243)" width="327.52" stroke="url(#linearGradient5247)" stroke-linecap="round" y="-152.56" x="440.72" stroke-width="5" fill="none"/>
 <path id="path2990" opacity=".98" stroke-linejoin="round" d="m321.53 863.11c-13.41-4.2469-27.309-10.649-30.887-14.227-3.5781-3.5781-7.9845-6.5057-9.792-6.5057-9.9258 0-38.481-38.889-38.481-52.407 0-3.8033-2.1292-6.9151-4.7315-6.9151-2.6446 0-3.7545-3.736-2.5164-8.4703 1.2183-4.6587 0.65502-9.4345-1.2517-10.613-3.1403-1.9408-2.6944-9.9932 2.1873-39.501 0.89676-5.4206 5.544-17.94 10.327-27.821 4.7833-9.8809 8.6968-19.441 8.6968-21.245 0-5.1556 275.66-456.09 290.07-474.51 12.226-15.627 41.801-46.184 53.916-55.707 10.95-8.6075 46.26-19.48 64.912-19.987 19.428-0.52822 55.851 6.6123 69.658 13.656 20.912 10.668 49.059 37.805 53.303 51.388 1.7498 5.6011 5.2589 11.514 7.798 13.14 4.5015 2.8824 6.524 66.754 2.5108 79.295-1.0525 3.2891-18.598 33.398-38.99 66.909s-37.076 63.646-37.076 66.966-5.4024 12.3-12.005 19.955c-16.011 18.562-93.927 146.13-93.927 153.78 0 3.3139-5.4619 12.289-12.138 19.944-15.634 17.928-91.701 142.8-95.165 156.23-1.4527 5.6295-9.3658 17.732-17.585 26.895-8.2188 9.1628-14.943 17.942-14.943 19.508 0 4.1708-21.163 26.325-21.315 22.313-0.0708-1.868-2.1816 0.1356-4.6905 4.4526-2.5089 4.3169-14.987 12.46-27.73 18.095-30.594 13.53-68.069 15.544-100.15 5.3824v0z" fill-rule="evenodd" transform="translate(0,-200)" stroke="#008066" stroke-linecap="round" stroke-width="5" fill="#008066"/>
 <path id="path2991" opacity=".98" d="m704.24 495.42c0-2.3305 1.9068-5.4157 4.2373-6.8561 2.3305-1.4403 4.2373-0.71201 4.2373 1.6185s-1.9068 5.4157-4.2373 6.8561c-2.3305 1.4403-4.2373 0.71201-4.2373-1.6185z" transform="translate(0,-200)" stroke="#008066" fill="none"/>
 <path id="path2992" opacity=".98" d="m329.83 864.86c-1.0664-1.0664-4.497-2.4328-7.6237-3.0365-20.002-3.862-44.299-20.805-65.069-45.372-8.365-9.8947-22.109-45.138-20.049-51.411 0.57396-1.7479-0.99171-3.178-3.4793-3.178-2.8154 0-3.3125-3.5992-1.3168-9.5339 1.7633-5.2436 3.6437-14.301 4.1786-20.127 0.5349-5.8263 1.3658-11.07 1.8465-11.653 0.48064-0.58263 1.1798-2.4894 1.5537-4.2373s3.3179-7.9449 6.5423-13.771c3.2244-5.8263 5.3438-10.593 4.7099-10.593-2.3805 0 14.77-34.129 19.848-39.498 2.9131-3.0796 5.2966-8.3232 5.2966-11.653 0-3.3293 1.8705-6.0533 4.1566-6.0533s5.353-4.767 6.8153-10.593c1.4623-5.8263 4.2303-10.593 6.1511-10.593s4.8258-4.2013 6.4556-9.3363 5.5718-11.945 8.7601-15.133c3.1883-3.1883 5.7969-8.5208 5.7969-11.85 0-3.3293 1.7783-6.0533 3.9517-6.0533 2.1735 0 5.2852-4.2013 6.915-9.3363s5.5718-11.945 8.7601-15.133c3.1883-3.1883 5.7969-8.5209 5.7969-11.85 0-3.3293 1.7783-6.0533 3.9518-6.0533s5.2852-4.2013 6.915-9.3363 5.5718-11.945 8.7601-15.133c3.1883-3.1883 5.7969-8.5209 5.7969-11.85 0-3.3293 1.7783-6.0533 3.9518-6.0533s5.2852-4.2013 6.915-9.3363 5.5718-11.945 8.7601-15.133c3.1883-3.1883 5.7969-8.5209 5.7969-11.85 0-3.3293 1.6065-6.0533 3.57-6.0533s7.2072-7.1504 11.653-15.89c4.4454-8.7394 9.1999-16.843 10.566-18.008 6.804-5.8052 32.585-50.384 30.401-52.568-1.3845-1.3845-0.29266-2.5172 2.4263-2.5172 2.7189 0 4.9435-2.7013 4.9435-6.0028 0-3.3016 1.4301-6.6384 3.178-7.4152 5.0432-2.2414 35.4-50.134 31.823-50.206-1.7717-0.0356-1.1193-1.4658 1.4497-3.178s17.238-23.193 32.598-47.736c27.344-43.692 80.075-101.53 92.616-101.59 3.1397-0.0144 10.476-2.4992 16.302-5.5218 13.193-6.8444 78.958-5.7104 87.924 1.516 0.58262 0.46963 2.4894 1.0985 4.2373 1.3976 9.4 1.6082 44.712 31.619 54.917 46.673 6.4883 9.5713 12.756 18.356 13.927 19.521 3.0581 3.041 6.205 28.604 6.2828 51.037 0.058 16.783-14.465 55.714-23.641 63.37-5.0648 4.2258-43.973 74.237-42.976 77.331 0.56326 1.7479-0.99521 3.178-3.4633 3.178-2.468 0-3.3089 1.9068-1.8686 4.2373s0.48695 4.2373-2.1186 4.2373-3.559 1.9068-2.1186 4.2373c1.4403 2.3305 0.48695 4.2373-2.1186 4.2373s-3.559 1.9068-2.1186 4.2373c1.4403 2.3305 0.9217 4.2373-1.1525 4.2373s-6.477 5.1416-9.784 11.426c-3.307 6.2842-10.267 16.058-15.467 21.72-5.2 5.6615-8.4243 11.961-7.1652 13.998 1.2592 2.0373 0.68114 3.7042-1.2844 3.7042-4.2458 0-20.485 26.14-19.084 30.72 0.53445 1.7479-0.93509 3.178-3.2656 3.178s-4.2373 2.7013-4.2373 6.0028c0 3.3016-1.5053 6.6384-3.345 7.4153-5.6267 2.3759-30.136 44.909-27.435 47.61 1.3924 1.3924 0.19449 2.5316-2.662 2.5316s-4.0151 1.9068-2.5748 4.2373 0.48694 4.2373-2.1186 4.2373c-2.6056 0-3.559 1.9068-2.1186 4.2373 1.4403 2.3305 0.28169 4.2373-2.5748 4.2373s-4.0372 1.1564-2.6239 2.5697-0.82406 6.2124-4.972 10.665c-4.1479 4.4523-10.23 13.249-13.516 19.547-3.2859 6.2987-9.3112 14.847-13.39 18.996-4.0784 4.1492-7.4153 10.404-7.4153 13.9 0 3.4958-1.6065 6.3559-3.57 6.3559s-7.2072 7.1214-11.653 15.825c-4.4454 8.7039-10.466 18.374-13.379 21.489-2.9131 3.1152-5.2966 8.3879-5.2966 11.717 0 3.3293-1.6007 6.0533-3.5571 6.0533-3.9034 0-15.317 21.389-14.131 26.483 0.40669 1.7479-1.4851 3.178-4.204 3.178s-3.7631 1.1804-2.3204 2.6231-0.16381 5.41-3.57 8.8162-5.1096 7.9462-3.7854 10.089c1.3242 2.1426 0.71056 3.8957-1.3637 3.8957-2.0742 0-6.477 5.0994-9.784 11.332-10.229 19.279-51.598 64.939-58.836 64.939-2.4091 0-4.3801 2.0193-4.3801 4.4874 0 2.468-1.9068 3.3089-4.2373 1.8686s-4.2373-0.59949-4.2373 1.8686c0 2.468-1.4301 4.2616-3.178 3.9856-1.7479-0.27584-4.608-0.0381-6.3559 0.52967-1.7479 0.56728-5.0848 1.5081-7.4152 2.0908-2.3305 0.58263-4.714 1.5399-5.2966 2.1273-1.9954 2.0118-70.555 3.2358-72.496 1.2943z" fill-rule="evenodd" transform="translate(0,-200)" fill="#f60"/>
 <path id="path2993" opacity=".98" d="m308.05 853.57c-27.746-12.978-53.818-41.91-65.214-72.367-10.488-28.032-9.3635-41.362 6.8144-80.776 8.4952-20.697 103.21-182.6 165.45-282.82 7.6056-12.247 22.555-36.567 33.221-54.046 42.264-69.26 49.008-79.852 76.301-119.85 15.56-22.8 40.563-54.71 55.562-70.911 22.218-23.997 31.277-30.645 48.889-35.875 25.992-7.7188 61.457-8.2754 85.266-1.3381 23.65 6.8911 76.323 58.79 80.314 79.134 7.0426 35.903-0.76729 72.288-22.396 104.34-6.29 9.322-21.374 35.712-33.52 58.644s-29.297 51.534-38.114 63.559c-8.8172 12.026-17.317 24.725-18.888 28.221-1.5713 3.4958-11.471 19.703-22 36.017s-25.097 41.102-32.375 55.085c-7.2775 13.983-28.949 49.258-48.159 78.39-19.21 29.131-41.751 65.723-50.09 81.314-30.142 56.354-41.76 73.266-71.956 104.73-29.875 31.136-47.094 38.329-91.901 38.393-28.965 0.0424-40.165-1.8887-57.203-9.8581z" fill-rule="evenodd" transform="translate(0,-200)" fill="#008066"/>
</svg>
