<?xml version="1.0" encoding="UTF-8" standalone="no"?>
<svg id="svg2" xmlns:rdf="http://www.w3.org/1999/02/22-rdf-syntax-ns#" xmlns="http://www.w3.org/2000/svg" height="100%" width="100%" version="1.1" xmlns:cc="http://creativecommons.org/ns#" xmlns:xlink="http://www.w3.org/1999/xlink" viewBox="0 -200 1000 1000" xmlns:dc="http://purl.org/dc/elements/1.1/">
 <metadata id="metadata12">
  <rdf:RDF>
   <cc:Work rdf:about="">
    <dc:format>image/svg+xml</dc:format>
    <dc:type rdf:resource="http://purl.org/dc/dcmitype/StillImage"/>
    <dc:title/>
   </cc:Work>
  </rdf:RDF>
 </metadata>
 <defs id="defs10">
  <filter id="filter3008" height="1.5" color-interpolation-filters="sRGB" y="-.25">
   <feGaussianBlur id="feGaussianBlur3010" stdDeviation="5" result="result6"/>
   <feComposite id="feComposite3012" operator="atop" in="SourceGraphic" in2="result6" result="result8"/>
   <feComposite id="feComposite3014" operator="over" in="result8" in2="SourceAlpha" result="result9"/>
   <feColorMatrix id="feColorMatrix3016" values="1 0 0 0 0 0 1 0 0 0 0 0 1 0 0 0 0 0 1 0 " result="result10"/>
   <feBlend id="feBlend3018" result="fbSourceGraphic" mode="normal" in2="result6" in="result10"/>
   <feColorMatrix id="feColorMatrix3032" values="0 0 0 -1 0 0 0 0 -1 0 0 0 0 -1 0 0 0 0 1 0" result="fbSourceGraphicAlpha" in="fbSourceGraphic"/>
   <feOffset id="feOffset3034" result="result11" in="fbSourceGraphic" dx="4" dy="4"/>
   <feGaussianBlur id="feGaussianBlur3036" stdDeviation="4" result="result8"/>
   <feComposite id="feComposite3038" operator="in" in="fbSourceGraphic" in2="result8" result="result9"/>
   <feBlend id="feBlend3040" result="fbSourceGraphic" mode="darken" in2="result8" in="result9"/>
   <feColorMatrix id="feColorMatrix3042" values="0 0 0 -1 0 0 0 0 -1 0 0 0 0 -1 0 0 0 0 1 0" result="fbSourceGraphicAlpha" in="fbSourceGraphic"/>
   <feGaussianBlur id="feGaussianBlur3044" in="fbSourceGraphic" stdDeviation="4" result="result8"/>
   <feOffset id="feOffset3046" result="result11" dx="4" dy="4"/>
   <feComposite id="feComposite3048" operator="in" in="fbSourceGraphic" in2="result11" result="result6"/>
   <feFlood id="feFlood3050" flood-color="rgb(0,0,0)" in="result6" result="result10"/>
   <feBlend id="feBlend3052" result="result12" in="result6" in2="result10" mode="normal"/>
   <feComposite id="feComposite3054" operator="in" in2="fbSourceGraphic" result="result2"/>
  </filter>
 </defs>
 <path id="path3006" opacity="0.98" stroke-linejoin="round" d="m974.58 508.47a472.46 466.1 0 1 1 -944.92 0 472.46 466.1 0 1 1 944.92 0z" transform="translate(0,-200)" filter="url(#filter3008)" stroke-linecap="round" stroke-width="5" fill="#008066"/>
 <path id="path3831" opacity="0.98" d="m447.88 952.15c-148.69-17.28-281.17-108.37-348.65-239.73-87.09-169.55-58.613-373.96 70.65-507.06 72.71-74.88 151.75-117.6 252.58-136.5 50.673-9.5011 142.06-6.5686 189.96 6.0958 130.4 34.477 234.28 115.88 292.58 229.28 22.956 44.651 33.892 76.431 43.098 125.24 9.672 51.273 6.5655 142.05-6.5167 190.44-44.818 165.78-179.14 291.62-347.51 325.56-42.831 8.6344-104.95 11.473-146.19 6.6799z" transform="translate(0,-200)" fill="none"/>
 <path id="path4341" opacity="0.98" d="m447.88 952.15c-148.69-17.28-281.17-108.37-348.65-239.73-87.09-169.55-58.613-373.96 70.65-507.06 72.71-74.88 151.75-117.6 252.58-136.5 50.673-9.5011 142.06-6.5686 189.96 6.0958 130.4 34.477 234.28 115.88 292.58 229.28 22.956 44.651 33.892 76.431 43.098 125.24 9.672 51.273 6.5655 142.05-6.5167 190.44-44.818 165.78-179.14 291.62-347.51 325.56-42.831 8.6344-104.95 11.473-146.19 6.6799z" transform="translate(0,-200)" fill="none"/>
 <path id="path5803" opacity="0.98" d="m355.77 487.15c-176.77-117.26-220.93-148.57-196.23-139.09 3.3828 1.2981 96.625 62.042 207.2 134.99 173.24 114.28 210.02 140.53 194.23 138.63-1.6103-0.19386-93.953-60.734-205.21-134.53z" fill-opacity=".40833" transform="translate(0,-200)" fill="#008066"/>
</svg>
