<?xml version="1.0" encoding="UTF-8" standalone="no"?>
<svg id="svg2" xmlns:rdf="http://www.w3.org/1999/02/22-rdf-syntax-ns#" xmlns="http://www.w3.org/2000/svg" height="100%" width="100%" version="1.1" xmlns:cc="http://creativecommons.org/ns#" xmlns:dc="http://purl.org/dc/elements/1.1/" viewBox="0 -200 1000 1000">
 <metadata id="metadata12">
  <rdf:RDF>
   <cc:Work rdf:about="">
    <dc:format>image/svg+xml</dc:format>
    <dc:type rdf:resource="http://purl.org/dc/dcmitype/StillImage"/>
    <dc:title/>
   </cc:Work>
  </rdf:RDF>
 </metadata>
 <defs id="defs10">
  <filter id="filter3048" style="color-interpolation-filters:sRGB" color-interpolation-filters="sRGB">
   <feGaussianBlur id="feGaussianBlur3050" stdDeviation="5" result="result91"/>
   <feComposite id="feComposite3052" operator="over" result="fbSourceGraphic" in2="result91" in="SourceGraphic"/>
   <feColorMatrix id="feColorMatrix3061" values="0 0 0 -1 0 0 0 0 -1 0 0 0 0 -1 0 0 0 0 1 0" result="fbSourceGraphicAlpha" in="fbSourceGraphic"/>
   <feFlood id="feFlood3063" result="flood" flood-color="rgb(255,255,255)" in="fbSourceGraphic"/>
   <feComposite id="feComposite3065" operator="in" result="composite1" in2="fbSourceGraphic" in="flood"/>
   <feGaussianBlur id="feGaussianBlur3067" result="blur" stdDeviation="12" in="composite"/>
   <feOffset id="feOffset3069" result="offset" dx="12" dy="12"/>
   <feComposite id="feComposite3071" operator="over" result="fbSourceGraphic" in2="offset" in="fbSourceGraphic"/>
   <feColorMatrix id="feColorMatrix3105" values="0 0 0 -1 0 0 0 0 -1 0 0 0 0 -1 0 0 0 0 1 0" result="fbSourceGraphicAlpha" in="fbSourceGraphic"/>
   <feGaussianBlur id="feGaussianBlur3107" in="fbSourceGraphic" stdDeviation="1.5" result="result6"/>
   <feComposite id="feComposite3109" operator="atop" result="result8" in2="result6" in="fbSourceGraphic"/>
   <feComposite id="feComposite3111" operator="atop" result="fbSourceGraphic" in2="fbSourceGraphicAlpha" in="result8"/>
   <feColorMatrix id="feColorMatrix3139" values="0 0 0 -1 0 0 0 0 -1 0 0 0 0 -1 0 0 0 0 1 0" result="fbSourceGraphicAlpha" in="fbSourceGraphic"/>
   <feColorMatrix id="feColorMatrix3141" in="fbSourceGraphic" values="1 0 0 0 0 0 1 0 0 0 0 0 1 0 0 0 0 0 1 0 " result="fbSourceGraphic"/>
   <feGaussianBlur id="feGaussianBlur3143" stdDeviation="3" result="result1"/>
   <feOffset id="feOffset3145" result="result6" dx="2" dy="2"/>
   <feComposite id="feComposite3147" in2="result1" k2="2" result="result2" in="result6" operator="in"/>
   <feColorMatrix id="feColorMatrix3149" type="hueRotate" values="110" result="result3"/>
   <feBlend id="feBlend3151" result="result4" in="result2" in2="result3" mode="screen"/>
   <feConvolveMatrix id="feConvolveMatrix3153" divisor="2" kernelMatrix="-2 0 2 0 4 0 2 0 2" order="3 3" bias="0" result="result5" targetX="0" in="result4"/>
   <feComposite id="feComposite3155" operator="atop" in2="result5" in="result2"/>
  </filter>
 </defs>
 <path id="path2995" d="m207.14 310.63-10.161-10.816 10.814-10.159c10.464-9.8304 14.283-10.159 118.07-10.159 106.17 0 107.36 0.10989 117.42 10.816l10.161 10.816-10.814 10.159c-10.464 9.8305-14.283 10.159-118.07 10.159-106.17 0-107.36-0.10989-117.42-10.816z" stroke-miterlimit="3.8" stroke-width="0" fill="none"/>
 <rect id="rect3034" opacity="0.98" ry="46.61" stroke-linejoin="round" rx="0" transform="translate(0,-200)" height="93.22" width="0" stroke-linecap="round" y="169.49" x="432.2" stroke-width="5" fill="#f60"/>
 <rect id="rect3046" opacity="0.98" stroke-linejoin="round" transform="matrix(-.17002 .98544 .71138 .70281 -6.9915 3.6441)" rx="189.38" ry="321.98" height="805.95" filter="url(#filter3048)" width="626" stroke-linecap="round" y="231.54" x="-457.72" stroke-width="5" fill="#f60"/>
 <path id="path3006" opacity="0.98" d="m620.27 962.72c-11.726-5.1751-22.144-8.5857-23.151-7.5791-1.0066 1.0066-14.023-6.8083-28.925-17.366s-31.732-21.172-37.399-23.587c-5.6669-2.4147-57.302-51.499-114.75-109.08-93.705-93.923-148.49-157.08-165.86-191.2-3.0659-6.0213-12.377-22.388-20.691-36.371-8.3144-13.983-17.587-32.097-20.605-40.254-3.0184-8.1568-8.92-21.504-13.115-29.661-11.787-22.921-25.125-75.468-28.017-110.38-2.2206-26.803 1.0543-53.023 21.674-173.52l24.3-141.95 15.19-15.89c8.35-8.74 17.66-15.89 20.68-15.89 3.0228 0 5.496-1.4649 5.496-3.2553 0-5.442 38.877-2.6791 62.214 4.4215 12.078 3.6748 33.052 13.887 46.61 22.693 13.558 8.8065 25.82 15.708 27.249 15.337 1.429-0.37106 12.87 8.0588 25.424 18.733 32.568 27.691 185.96 178.75 185.96 183.13 0 2.0147 3.0152 6.1654 6.7005 9.2239 8.8492 7.3442 54.792 64.103 61.885 76.454 3.0617 5.3312 8.6339 13.197 12.383 17.48 17.63 20.141 61.646 115.9 79.629 173.25 7.8931 25.168 10.319 76.804 5.0349 107.15-2.7032 15.523-5.8694 36.261-7.0358 46.084-1.1665 9.8229-3.1492 23.58-4.4059 30.572-2.7621 15.366-6.0519 35.104-7.7684 46.61-0.69534 4.661-2.6669 11.811-4.3812 15.89-1.7143 4.0784-2.0428 10.214-0.72995 13.635 1.3128 3.4212 0.91084 7.1325-0.89322 8.2475s-6.8534 24.019-11.221 50.898c-7.7564 47.737-8.3522 49.275-25.677 66.278-16.01 15.713-20.01 17.499-41.103 18.351-16.537 0.66844-29.598-1.8057-44.687-8.4648z" transform="translate(0,-200)" fill="#008066"/>
</svg>
