<?xml version="1.0" encoding="UTF-8" standalone="no"?>
<svg id="svg2" xmlns:rdf="http://www.w3.org/1999/02/22-rdf-syntax-ns#" xmlns="http://www.w3.org/2000/svg" height="100%" viewBox="0 -200 1000 1000" width="100%" version="1.1" xmlns:cc="http://creativecommons.org/ns#" xmlns:dc="http://purl.org/dc/elements/1.1/">
 <metadata id="metadata12">
  <rdf:RDF>
   <cc:Work rdf:about="">
    <dc:format>image/svg+xml</dc:format>
    <dc:type rdf:resource="http://purl.org/dc/dcmitype/StillImage"/>
    <dc:title/>
   </cc:Work>
  </rdf:RDF>
 </metadata>
 <defs id="defs10">
  <filter id="filter3010" style="color-interpolation-filters:sRGB">
   <feFlood id="feFlood3012" flood-color="rgb(0,0,0)" flood-opacity=".5" result="flood"/>
   <feComposite id="feComposite3014" operator="in" in="flood" in2="SourceGraphic" result="composite1"/>
   <feGaussianBlur id="feGaussianBlur3016" in="composite" stdDeviation="2" result="blur"/>
   <feOffset id="feOffset3018" dy="4" dx="14" result="offset"/>
   <feComposite id="feComposite3020" operator="over" in="SourceGraphic" in2="offset" result="composite2"/>
  </filter>
 </defs>
 <path id="path2999" opacity=".98" stroke-linejoin="round" d="m494.88 188.78c0-1.3519 2.4407-1.8197 5.4237-1.0396 2.983 0.78009 5.4237 1.8862 5.4237 2.458 0 0.57181-2.4407 1.0396-5.4237 1.0396-2.9831 0-5.4237-1.1061-5.4237-2.458z" stroke-linecap="round" stroke-width="5" fill="#f95"/>
 <path id="path2996" opacity=".98" stroke-linejoin="round" d="m669.49 472.46a148.31 150.42 0 1 1 -296.61 0 148.31 150.42 0 1 1 296.61 0z" transform="translate(-4.2373 -178.81)" filter="url(#filter3010)" stroke-linecap="round" stroke-width="5" fill="#f60"/>
 <path id="path2991" opacity=".98" transform="translate(0,-200)" fill="#008066" d="m493.76 638.84c-65.74-13.167-112.02-73.455-112.02-145.92 0-59.856 32.81-111.86 85.492-135.5 22.414-10.059 30.277-11.463 56.32-10.056 54.763 2.958 101.9 34.578 125.21 83.991 9.2918 19.699 10.993 29.207 10.993 61.441 0 32.929-1.624 41.607-11.896 63.559-27.28 58.303-94.685 94.384-154.09 82.484z"/>
</svg>
