<?xml version="1.0" encoding="UTF-8" standalone="no"?>
<svg id="svg2" xmlns:rdf="http://www.w3.org/1999/02/22-rdf-syntax-ns#" xmlns="http://www.w3.org/2000/svg" height="100%" viewBox="0 -200 1000 1000" width="100%" version="1.1" xmlns:cc="http://creativecommons.org/ns#" xmlns:dc="http://purl.org/dc/elements/1.1/">
 <metadata id="metadata12">
  <rdf:RDF>
   <cc:Work rdf:about="">
    <dc:format>image/svg+xml</dc:format>
    <dc:type rdf:resource="http://purl.org/dc/dcmitype/StillImage"/>
    <dc:title/>
   </cc:Work>
  </rdf:RDF>
 </metadata>
 <defs id="defs10">
  <filter id="filter3039" color-interpolation-filters="sRGB">
   <feGaussianBlur id="feGaussianBlur3041" stdDeviation="1.5" result="result6"/>
   <feComposite id="feComposite3043" operator="atop" in="SourceGraphic" in2="result6" result="result8"/>
   <feComposite id="feComposite3045" operator="atop" in="result8" in2="SourceAlpha" result="fbSourceGraphic"/>
   <feColorMatrix id="feColorMatrix3047" in="fbSourceGraphic" values="0 0 0 -1 0 0 0 0 -1 0 0 0 0 -1 0 0 0 0 1 0" result="fbSourceGraphicAlpha"/>
   <feGaussianBlur id="feGaussianBlur3049" result="result8" stdDeviation="4" in="fbSourceGraphic"/>
   <feOffset id="feOffset3051" dy="4" dx="4" result="result11"/>
   <feComposite id="feComposite3053" operator="in" result="result6" in2="result11" in="fbSourceGraphic"/>
   <feFlood id="feFlood3055" result="result10" in="result6" flood-color="rgb(0,0,0)"/>
   <feBlend id="feBlend3057" mode="normal" in="result6" in2="result10" result="result12"/>
   <feComposite id="feComposite3059" operator="in" in2="fbSourceGraphic" result="result2"/>
  </filter>
 </defs>
 <path id="path3037" opacity=".98" stroke-linejoin="round" d="m444.92 427.97c-9.9509 8.0683-170.2-14.235-182.66-11.284-12.466 2.9518-145.7 94.745-158.21 91.996-12.521-2.75-94.995-141.94-105.08-149.85-10.076-7.91-164.91-54.84-170.56-66.33-5.6517-11.497 51.751-162.76 51.647-175.57-0.10376-12.81-59.949-163.13-54.484-174.71 5.4648-11.587 159.52-61.021 169.47-69.089 9.9509-8.0683 90.16-148.58 102.63-151.53 12.466-2.9518 147.17 86.672 159.68 89.421 12.512 2.7494 172.38-22.147 182.46-14.241s23.994 169.1 29.646 180.6c5.6517 11.497 124.79 120.96 124.89 133.77 0.10377 12.81-117.25 124.19-122.71 135.78-5.4648 11.587-16.766 172.98-26.717 181.05z" transform="matrix(1.1668 -.248 .24037 1.1308 235.37 206.97)" filter="url(#filter3039)" stroke-linecap="round" stroke-width="5" fill="#f60"/>
 <path id="path2994" opacity=".98" transform="translate(0,-200)" fill="#008066" d="m449.55 918.4c-17.231-16.043-50.819-47.697-74.64-70.341-23.821-22.645-46.702-41.873-50.847-42.73-16.345-3.3772-33.729-5.9787-49.91-7.4691-9.322-0.8586-25.53-2.589-36.017-3.8453s-26.695-3.1984-36.017-4.3159-24.576-3.2065-33.898-4.6423c-51.799-7.9784-49.218-5.5582-46.529-43.622 1.2642-17.896 3.1556-39.212 4.2032-47.368 3.6466-28.393 10.068-85.317 12.189-108.05 1.3431-14.397-5.4292-33.121-17.625-48.729-4.5524-5.8263-12.373-18.22-17.378-27.542-10.11-18.84-13.461-24.29-33.427-54.41-7.608-11.48-14.965-25.38-16.35-30.89-1.384-5.52-3.911-10.03-5.615-10.03-1.7038 0-5.4555-5.1746-8.3371-11.499-4.8643-10.676-4.2306-12.326 8.8538-23.048 7.7512-6.3519 22.197-15.612 32.102-20.578 9.9047-4.9659 18.008-10.802 18.008-12.969s2.9406-3.94 6.5348-3.94c6.4196 0 11.385-3.2319 27.667-18.008 4.494-4.0784 11.031-7.4153 14.527-7.4153 3.4958 0 6.3559-1.9068 6.3559-4.2373s2.724-4.2373 6.0533-4.2373 8.5729-2.4548 11.653-5.4552c3.0796-3.0004 12.552-9.7077 21.051-14.905 13.816-8.4498 33.124-30.487 26.712-30.487-1.3881 0 1.4021-4.9911 6.2005-11.091 4.7984-6.1002 7.6328-12.857 6.2987-15.016-1.3341-2.1587-0.12127-6.7015 2.6952-10.095 2.8165-3.3937 3.7006-6.1703 1.9646-6.1703s-0.94404-2.6656 1.7598-5.9236c2.7039-3.258 5.7383-10.193 6.7432-15.411s5.2231-13.24 9.3739-17.826c4.1507-4.5865 7.1534-9.569 6.6726-11.072-1.8846-5.8921 4.4812-24.322 10.977-31.78 3.7654-4.3231 6.4528-9.09 5.972-10.593-2.9538-9.2352 15.484-46.033 20.534-40.983 0.94451 0.94451 6.4413 2.6112 12.215 3.7038 5.7738 1.0926 15.791 4.0404 22.261 6.5508 6.4698 2.5103 16.004 5.4088 21.186 6.441 5.1828 1.0322 23.724 6.9284 41.203 13.103 31.698 11.197 38.365 13.413 42.373 14.082 1.1652 0.19453 10.699 3.4423 21.186 7.2172 10.487 3.775 22.624 7.6049 26.971 8.511 9.8097 2.0449 49.983-6.0835 55.444-11.218 2.214-2.0816 7.6462-3.7848 12.071-3.7848 7.1808 0 27.347-7.4338 45.483-16.767 3.5723-1.8382 13.106-4.6785 21.186-6.3116 8.0803-1.6332 25.663-6.6426 39.073-11.132 34.915-11.689 42.389-10.834 49.014 5.6085 3.0521 7.5741 7.3311 17.082 9.509 21.129 2.1778 4.0468 3.9597 10.432 3.9597 14.19 0 6.3711 8.3592 28.172 17.305 45.132 2.1346 4.0468 3.8811 10.026 3.8811 13.287s2.8484 11.391 6.3298 18.066c3.4814 6.6753 6.3416 16.427 6.3559 21.671 0.0127 5.2436 1.9329 9.5339 4.2634 9.5339s4.2373 2.5672 4.2373 5.7049c0 11.311 12.857 31.136 23.268 35.88 5.8469 2.664 10.631 6.7913 10.631 9.1718s2.5647 4.3281 5.6992 4.3281c3.1346 0 9.1504 3.8136 13.369 8.4746 4.2182 4.661 10.098 8.4746 13.066 8.4746 2.9681 0 8.115 2.7185 11.438 6.041 3.3225 3.3226 12.516 9.1116 20.43 12.865 27.491 13.037 38.032 19.887 43.105 28.01 2.8059 4.493 8.4404 8.1692 12.521 8.1692 4.0807 0 9.801 3.8136 12.712 8.4746 2.9108 4.661 7.694 8.4746 10.629 8.4746 5.7052 0 7.275 9.3611 2.3892 14.247-1.6211 1.6211-3.3491 5.6837-3.8399 9.028-0.83877 5.7149-17.219 31.41-22.979 36.047-1.4475 1.1652-3.9439 4.9788-5.5474 8.4746-1.6036 3.4958-6.6871 12.076-11.297 19.068-4.6097 6.9915-9.7422 15.572-11.406 19.068-5.9054 12.41-27.378 42.373-30.366 42.373-1.6694 0-3.3456 4.1187-3.7248 9.1526-0.37924 5.034-2.5968 10.331-4.9279 11.772-9.4344 5.8308-10.978 23.681-6.16 71.237 2.7742 27.383 6.3995 72.936 8.0563 101.23l3.0123 51.442-17.265 2.917c-9.4959 1.6043-23.566 3.5872-31.268 4.4065-49.701 5.2873-123.37 14.972-142.51 18.735-28.514 5.6055-27.659 4.9284-137.24 108.71-13.323 12.618-26.194 22.942-28.602 22.942-2.4077 0-4.3777 1.7028-4.3777 3.7839 0 12.267-15.023 4.9084-42.823-20.975z"/>
</svg>
