<?xml version="1.0" encoding="UTF-8" standalone="no"?>
<svg id="svg2" xmlns:rdf="http://www.w3.org/1999/02/22-rdf-syntax-ns#" xmlns="http://www.w3.org/2000/svg" height="100%" width="100%" version="1.1" xmlns:cc="http://creativecommons.org/ns#" xmlns:dc="http://purl.org/dc/elements/1.1/" viewBox="0 -200 1000 1000">
 <metadata id="metadata12">
  <rdf:RDF>
   <cc:Work rdf:about="">
    <dc:format>image/svg+xml</dc:format>
    <dc:type rdf:resource="http://purl.org/dc/dcmitype/StillImage"/>
   </cc:Work>
  </rdf:RDF>
 </metadata>
 <defs id="defs10">
  <filter id="filter3039" color-interpolation-filters="sRGB">
   <feGaussianBlur id="feGaussianBlur3041" stdDeviation="1.5" result="result6"/>
   <feComposite id="feComposite3043" operator="atop" result="result8" in2="result6" in="SourceGraphic"/>
   <feComposite id="feComposite3045" operator="atop" result="fbSourceGraphic" in2="SourceAlpha" in="result8"/>
   <feColorMatrix id="feColorMatrix3047" values="0 0 0 -1 0 0 0 0 -1 0 0 0 0 -1 0 0 0 0 1 0" result="fbSourceGraphicAlpha" in="fbSourceGraphic"/>
   <feGaussianBlur id="feGaussianBlur3049" in="fbSourceGraphic" stdDeviation="4" result="result8"/>
   <feOffset id="feOffset3051" result="result11" dx="4" dy="4"/>
   <feComposite id="feComposite3053" operator="in" in="fbSourceGraphic" in2="result11" result="result6"/>
   <feFlood id="feFlood3055" flood-color="rgb(0,0,0)" in="result6" result="result10"/>
   <feBlend id="feBlend3057" result="result12" in="result6" in2="result10" mode="normal"/>
   <feComposite id="feComposite3059" operator="in" in2="fbSourceGraphic" result="result2"/>
  </filter>
 </defs>
 <path id="path3037" opacity="0.98" stroke-linejoin="round" stroke-linecap="round" stroke-width="5" fill="#f60" d="m444.92 427.97c-9.9509 8.0683-170.2-14.235-182.66-11.284-12.466 2.9518-145.7 94.745-158.21 91.996-12.521-2.75-94.995-141.94-105.08-149.85-10.076-7.91-164.91-54.84-170.56-66.33-5.6517-11.497 51.751-162.76 51.647-175.57-0.10376-12.81-59.949-163.13-54.484-174.71 5.4648-11.587 159.52-61.021 169.47-69.089 9.9509-8.0683 90.16-148.58 102.63-151.53 12.466-2.9518 147.17 86.672 159.68 89.421 12.512 2.7494 172.38-22.147 182.46-14.241s23.994 169.1 29.646 180.6c5.6517 11.497 124.79 120.96 124.89 133.77 0.10377 12.81-117.25 124.19-122.71 135.78-5.4648 11.587-16.766 172.98-26.717 181.05z" transform="matrix(1.1668 -0.248 .24037 1.1308 235.37 206.97)" filter="url(#filter3039)"/>
</svg>
