<?xml version="1.0" encoding="UTF-8" standalone="no"?>
<!-- Created with Inkscape (http://www.inkscape.org/) -->
<svg id="svg36220" xmlns:rdf="http://www.w3.org/1999/02/22-rdf-syntax-ns#" xmlns="http://www.w3.org/2000/svg" sodipodi:docname="wp.svg" xmlns:sodipodi="http://inkscape.sourceforge.net/DTD/sodipodi-0.dtd" height="700pt" sodipodi:version="0.32" width="700pt" version="1.0" xmlns:cc="http://web.resource.org/cc/" xmlns:xlink="http://www.w3.org/1999/xlink" sodipodi:docbase="/home/maurizio/out1" xmlns:dc="http://purl.org/dc/elements/1.1/">
 <defs id="defs36222">
  <linearGradient id="linearGradient3070">
   <stop id="stop3072" stop-color="#fff" offset="0"/>
   <stop id="stop3074" stop-color="#d0b090" offset="1"/>
  </linearGradient>
  <linearGradient id="linearGradient3076" y2="534.2" xlink:href="#linearGradient3070" gradientUnits="userSpaceOnUse" x2="1126" y1="328.04" x1="586.53"/>
  <linearGradient id="linearGradient3084" y2="560.75" xlink:href="#linearGradient3070" gradientUnits="userSpaceOnUse" x2="862.65" y1="458.66" x1="275.24"/>
  <linearGradient id="linearGradient3092" y2="764.9" xlink:href="#linearGradient3070" gradientUnits="userSpaceOnUse" x2="774.05" y1="623.78" x1="300.27"/>
 </defs>
 <sodipodi:namedview id="base" bordercolor="#666666" pagecolor="#ffffff" borderopacity="1.0"/>
 <metadata id="metadata36225">
  <rdf:RDF>
   <cc:Work rdf:about="">
    <dc:format>image/svg+xml</dc:format>
    <dc:type rdf:resource="http://purl.org/dc/dcmitype/StillImage"/>
    <dc:rights>
     <cc:Agent>
      <dc:title>Maurizio Monge</dc:title>
     </cc:Agent>
    </dc:rights>
    <dc:creator>
     <cc:Agent>
      <dc:title>Maurizio Monge</dc:title>
     </cc:Agent>
    </dc:creator>
    <cc:license rdf:resource="http://creativecommons.org/licenses/GPL/2.0/"/>
   </cc:Work>
   <cc:License rdf:about="http://creativecommons.org/licenses/GPL/2.0/">
    <cc:permits rdf:resource="http://web.resource.org/cc/Reproduction"/>
    <cc:permits rdf:resource="http://web.resource.org/cc/Distribution"/>
    <cc:requires rdf:resource="http://web.resource.org/cc/Notice"/>
    <cc:permits rdf:resource="http://web.resource.org/cc/DerivativeWorks"/>
    <cc:requires rdf:resource="http://web.resource.org/cc/ShareAlike"/>
    <cc:requires rdf:resource="http://web.resource.org/cc/SourceCode"/>
   </cc:License>
  </rdf:RDF>
 </metadata>
 <g id="layer1" stroke-linejoin="round" stroke="#000" stroke-linecap="round">
  <path id="path35272" sodipodi:rx="166.66667" sodipodi:ry="150" sodipodi:type="arc" d="m926.67 373.33a166.67 150 0 1 1 -333.34 0 166.67 150 0 1 1 333.34 0z" fill-rule="evenodd" transform="matrix(.73447 0 0 .73599 -120.66 30.436)" sodipodi:cy="373.33334" sodipodi:cx="760" stroke-width="21.762" fill="url(#linearGradient3076)"/>
  <path id="path35274" d="m397.42 467.01c1.47 170.17-86.74 221.1-127.97 250.25-34.19 24.17-25.46 82.34 19.91 85.31 28.11 1.84 276.61 2.36 305.65-0.85 51.38-5.67 52.84-66.7 19.68-87.31-52.6-32.7-136.19-69.54-138.49-247.09-0.44-33.31-79.04-30.01-78.78-0.31z" fill-rule="evenodd" sodipodi:nodetypes="cssssss" stroke-width="16" fill="url(#linearGradient3092)"/>
  <path id="path34396" d="m340.35 432.73c-74.19 19.07-100.11 66.02-100.11 66.02h408.85s-43.43-51.83-110.02-66.68c-85.25-19.01-129.18-17.2-198.72 0.66z" fill-rule="evenodd" sodipodi:nodetypes="cccss" stroke-width="16" fill="url(#linearGradient3084)"/>
  <path id="path36149" d="m339.12 713.67h187.9" sodipodi:nodetypes="cc" stroke-width="16" fill="none"/>
 </g>
</svg>
