<?xml version="1.0" encoding="UTF-8" standalone="no"?>
<!-- Created with Inkscape (http://www.inkscape.org/) -->
<svg id="svg36220" xmlns:rdf="http://www.w3.org/1999/02/22-rdf-syntax-ns#" xmlns="http://www.w3.org/2000/svg" sodipodi:docname="wq.svg" xmlns:sodipodi="http://inkscape.sourceforge.net/DTD/sodipodi-0.dtd" height="700pt" sodipodi:version="0.32" width="700pt" version="1.0" xmlns:cc="http://web.resource.org/cc/" xmlns:xlink="http://www.w3.org/1999/xlink" sodipodi:docbase="/home/maurizio/out1" xmlns:dc="http://purl.org/dc/elements/1.1/">
 <defs id="defs36222">
  <linearGradient id="linearGradient2508">
   <stop id="stop2510" stop-color="#fff" offset="0"/>
   <stop id="stop2512" stop-color="#d0b090" offset="1"/>
  </linearGradient>
  <linearGradient id="linearGradient2538" y2="363.09" xlink:href="#linearGradient2508" gradientUnits="userSpaceOnUse" x2="840.91" y1="294.76" x1="785.14"/>
  <linearGradient id="linearGradient2546" y2="227.75" xlink:href="#linearGradient2508" gradientUnits="userSpaceOnUse" x2="711.12" y1="171.18" x1="649.86"/>
  <linearGradient id="linearGradient2554" y2="132.99" xlink:href="#linearGradient2508" gradientUnits="userSpaceOnUse" x2="470.83" y1="103.53" x1="406.01"/>
  <linearGradient id="linearGradient2562" y2="175" xlink:href="#linearGradient2508" gradientUnits="userSpaceOnUse" x2="234.62" y1="175" x1="167.87"/>
  <linearGradient id="linearGradient2570" y2="315.46" xlink:href="#linearGradient2508" gradientUnits="userSpaceOnUse" x2="87.371" y1="337.85" x1="23.458"/>
  <linearGradient id="linearGradient2578" y2="571.59" xlink:href="#linearGradient2508" gradientUnits="userSpaceOnUse" x2="514.54" y1="530.61" x1="339.47"/>
  <linearGradient id="linearGradient2586" y2="584.76" xlink:href="#linearGradient2508" gradientUnits="userSpaceOnUse" x2="495.02" y1="530.61" x1="339.47"/>
  <linearGradient id="linearGradient2594" y2="584.76" xlink:href="#linearGradient2508" gradientUnits="userSpaceOnUse" x2="487.22" y1="530.61" x1="339.47"/>
  <linearGradient id="linearGradient2602" y2="584.76" xlink:href="#linearGradient2508" gradientUnits="userSpaceOnUse" x2="498.93" y1="530.61" x1="339.47"/>
  <linearGradient id="linearGradient2610" y2="584.76" xlink:href="#linearGradient2508" gradientUnits="userSpaceOnUse" x2="510.64" y1="530.61" x1="339.47"/>
  <linearGradient id="linearGradient2279" y2="682.21" xlink:href="#linearGradient2508" gradientUnits="userSpaceOnUse" x2="761.36" y1="380.54" x1="153.6"/>
 </defs>
 <sodipodi:namedview id="base" bordercolor="#666666" pagecolor="#ffffff" borderopacity="1.0"/>
 <metadata id="metadata36225">
  <rdf:RDF>
   <cc:Work rdf:about="">
    <dc:format>image/svg+xml</dc:format>
    <dc:type rdf:resource="http://purl.org/dc/dcmitype/StillImage"/>
    <dc:creator>
     <cc:Agent>
      <dc:title>Maurizio Monge</dc:title>
     </cc:Agent>
    </dc:creator>
    <dc:rights>
     <cc:Agent>
      <dc:title>Maurizio Monge</dc:title>
     </cc:Agent>
    </dc:rights>
    <cc:license rdf:resource="http://creativecommons.org/licenses/GPL/2.0/"/>
   </cc:Work>
   <cc:License rdf:about="http://creativecommons.org/licenses/GPL/2.0/">
    <cc:permits rdf:resource="http://web.resource.org/cc/Reproduction"/>
    <cc:permits rdf:resource="http://web.resource.org/cc/Distribution"/>
    <cc:requires rdf:resource="http://web.resource.org/cc/Notice"/>
    <cc:permits rdf:resource="http://web.resource.org/cc/DerivativeWorks"/>
    <cc:requires rdf:resource="http://web.resource.org/cc/ShareAlike"/>
    <cc:requires rdf:resource="http://web.resource.org/cc/SourceCode"/>
   </cc:License>
  </rdf:RDF>
 </metadata>
 <g id="layer1" fill-rule="evenodd">
  <g id="g2266" fill="url(#linearGradient2279)">
   <path id="path25586" d="m243.94 824.89l-50.38-166.21 433.76 1.32-49.51 169.68-333.87-4.79z" sodipodi:nodetypes="ccccc"/>
   <path id="path9792" stroke-linejoin="round" d="m612.71 716.28c-122.2-43.67-283.4-43.92-402.39-0.1 12.58 30.53 15.92 92.99 15.92 92.99 100.72-28.17 271.95-27.31 371.88 4.19 0 0 2.31-66.7 14.59-97.08z" sodipodi:nodetypes="ccccc" stroke="#000" stroke-linecap="round" stroke-width="16"/>
   <path id="path28221" stroke-linejoin="round" d="m195.1 697.92c121.85-52.69 312.58-53.52 435.58 0.41 12.13-105.04 50.35-234.7 122.68-327.7-54.84 21.46-134.48 158.86-180.77 184.75-36.31-76.26 35.54-274.2 63.48-316.12-46.9 28.21-146.15 203.01-175.47 284.78-42.27-94.44-32.37-271.08-33.39-345.11-31.79 69.56-73.51 229.37-77.78 342.32-81.2-60.87-109.85-225.27-131.51-290.41-11.92 93.8 8.89 257.17 22.63 323.23-52.79-35.6-114.44-113.92-165.61-180.31 65.06 155.58 88.61 202.69 120.16 324.16z" sodipodi:nodetypes="cccccccccccc" stroke="#000" stroke-linecap="round" stroke-width="16"/>
   <path id="path7672" stroke-linejoin="round" d="m407.76 699.78c-18.99-0.1-8.58 14.64-12.32 21.12-8.53 4.95-36.24-3.83-27.32 14.34 6.32 12.87 15.76 6.81 26.38 10.96 5.27 7.26-3.65 29.36 15.03 28.9 15.43-0.38 7.02-22.43 10.32-28.37 9.32-6.1 21.56 2.16 27.73-13.45 4.69-11.86-18.51-7.46-27.67-12.57-3.84-5.73 7.62-20.82-12.15-20.93z" sodipodi:nodetypes="ccscscscs" stroke="#000" stroke-linecap="round" stroke-width="16"/>
   <path id="path8563" stroke-linejoin="round" d="m244.57 825.27c88.83 10.6 232.72 14.36 332.96 4.41-56.57-25.28-259.89-25.07-332.96-4.41z" sodipodi:nodetypes="ccc" stroke="#000" stroke-linecap="round" stroke-width="16"/>
  </g>
  <path id="path1323" stroke-linejoin="round" d="m474.62 82.518c-8.56 0.188-34.94 4.62-50.8 12.528-4.81 12.114-2.31 47.604 0.13 76.644 15.19-24.37 48.74-66.26 50.67-89.172z" sodipodi:nodetypes="cccc" stroke="#000" stroke-linecap="round" stroke-width="16" fill="url(#linearGradient2554)"/>
  <path id="path29102" sodipodi:rx="45.961941" sodipodi:ry="44.783428" sodipodi:type="arc" d="m440.76 530.61a45.962 44.783 0 1 1 -91.92 0 45.962 44.783 0 1 1 91.92 0z" stroke-linejoin="round" stroke-linecap="round" transform="matrix(.85393 0 0 .85393 87.235 -271.51)" stroke="#000" sodipodi:cy="530.60559" sodipodi:cx="394.8013" stroke-width="18.737" fill="url(#linearGradient2586)"/>
  <path id="path2211" stroke-linejoin="round" d="m714.9 206c-4.72-5.65-1.71-16-40-37.05l-48.86 61.03c27.41-8.55 70.77-21.46 88.86-23.98z" sodipodi:nodetypes="cccc" stroke="#000" stroke-linecap="round" stroke-width="16" fill="url(#linearGradient2546)"/>
  <path id="path2203" sodipodi:rx="45.961941" sodipodi:ry="44.783428" sodipodi:type="arc" d="m440.76 530.61a45.962 44.783 0 1 1 -91.92 0 45.962 44.783 0 1 1 91.92 0z" stroke-linejoin="round" stroke-linecap="round" transform="matrix(.85393 0 0 .85393 295.24 -211.51)" stroke="#000" sodipodi:cy="530.60559" sodipodi:cx="394.8013" stroke-width="18.737" fill="url(#linearGradient2594)"/>
  <path id="path2213" stroke-linejoin="round" d="m845.56 351.89c2.67-13.83-12.17-18.27-26.41-37.32-19.84 8.12-42.82 17.81-59.01 40.52 40.87-8.43 59.45 4.06 85.42-3.2z" sodipodi:nodetypes="cccc" stroke="#000" stroke-linecap="round" stroke-width="16" fill="url(#linearGradient2538)"/>
  <path id="path2205" sodipodi:rx="45.961941" sodipodi:ry="44.783428" sodipodi:type="arc" d="m440.76 530.61a45.962 44.783 0 1 1 -91.92 0 45.962 44.783 0 1 1 91.92 0z" stroke-linejoin="round" stroke-linecap="round" transform="matrix(.85393 0 0 .85393 417.85 -85.749)" stroke="#000" sodipodi:cy="530.60559" sodipodi:cx="394.8013" stroke-width="18.737" fill="url(#linearGradient2602)"/>
  <path id="path2215" stroke-linejoin="round" d="m226.62 154.52c-10.56-11.81-22.89-10.12-50.75-14.21 0.97 33.73 21.11 43.14 33.08 69.38 15.19-24.37 12.74-25.26 17.67-55.17z" sodipodi:nodetypes="cccc" stroke="#000" stroke-linecap="round" stroke-width="16" fill="url(#linearGradient2562)"/>
  <path id="path2207" sodipodi:rx="45.961941" sodipodi:ry="44.783428" sodipodi:type="arc" d="m440.76 530.61a45.962 44.783 0 1 1 -91.92 0 45.962 44.783 0 1 1 91.92 0z" stroke-linejoin="round" stroke-linecap="round" transform="matrix(.85393 0 0 .85393 -123.76 -219.51)" stroke="#000" sodipodi:cy="530.60559" sodipodi:cx="394.8013" stroke-width="18.737" fill="url(#linearGradient2578)"/>
  <path id="path2217" stroke-linejoin="round" d="m50.263 289.78c-13.447 2.8-14.585 30.31-18.805 44.43 15.057 16.59 30.367 26.05 43.521 51.72 14.064-25.04-8.76-76.94-24.716-96.15z" sodipodi:nodetypes="cccc" stroke="#000" stroke-linecap="round" stroke-width="16" fill="url(#linearGradient2570)"/>
  <path id="path2209" sodipodi:rx="45.961941" sodipodi:ry="44.783428" sodipodi:type="arc" d="m440.76 530.61a45.962 44.783 0 1 1 -91.92 0 45.962 44.783 0 1 1 91.92 0z" stroke-linejoin="round" stroke-linecap="round" transform="matrix(.85393 0 0 .85393 -249.11 -68.92)" stroke="#000" sodipodi:cy="530.60559" sodipodi:cx="394.8013" stroke-width="18.737" fill="url(#linearGradient2610)"/>
 </g>
</svg>
