<?xml version="1.0" encoding="UTF-8" standalone="no"?>
<!-- Generator: Adobe Illustrator 15.0.0, SVG Export Plug-In . SVG Version: 6.00 Build 0)  -->
<!DOCTYPE svg  PUBLIC '-//W3C//DTD SVG 1.1//EN'  'http://www.w3.org/Graphics/SVG/1.1/DTD/svg11.dtd'>
<svg id="layer" xmlns="http://www.w3.org/2000/svg" xml:space="preserve" height="45px" viewBox="0 0 45 45" width="45px" version="1.1" y="0px" x="0px" xmlns:xlink="http://www.w3.org/1999/xlink" enable-background="new 0 0 45 45">
<g id="piece">
    <polygon points="10.8 20.08 11.68 21.07 9.92 23.04 11.68 24.98 10.78 25.97 8.15 23.04" fill="#fff"/>
    <path d="m18.82 21.39c1.05 0 1.58 0.53 1.58 1.58 0 1.06-0.53 1.58-1.58 1.58s-1.58-0.52-1.58-1.58c0-1.05 0.53-1.58 1.58-1.58z" fill="#fff"/>
    <path d="m11.89 8.68c0.56 0.44 1.34 0.6 2.36 0.49-0.17 0.3-0.41 0.55-0.74 0.74-1.22 0.72-2.18 0.47-2.89-0.78-0.72-1.22-0.46-2.17 0.78-2.85-0.39 0.81-0.22 1.61 0.49 2.4z" fill="#fff"/>
    <path d="m18.22 8.27c-0.91 0.16-1.73 0.07-2.46-0.29-0.35-0.18-0.58-0.41-0.67-0.69-0.21-0.58-0.1-0.94 0.32-1.09 0.32-0.11 0.6 0.02 0.85 0.39 0.35 0.52 1 0.83 1.94 0.92 0.59 0.07 1.06 0.03 1.4-0.12-0.22 0.22-0.4 0.4-0.52 0.54-0.14 0.14-0.42 0.26-0.86 0.34z" fill="#fff"/>
    <path d="m23.78 7.78c0.62 0.18 1.18 0.2 1.7 0.08-0.58 0.44-1.21 0.62-1.88 0.55-1.11-0.11-1.88-0.31-2.3-0.61-0.33-0.21-0.51-0.47-0.53-0.8-0.13-0.59 0.04-0.92 0.49-1.01 0.31-0.05 0.57 0.13 0.76 0.54 0.24 0.6 0.83 1.01 1.76 1.25z" fill="#fff"/>
    <path d="m29.77 9.79c0.83 0.42 1.421 0.62 1.74 0.59-0.47 0.26-1.13 0.31-1.97 0.15-0.98-0.18-1.73-0.58-2.23-1.19-0.26-0.3-0.39-0.63-0.39-0.97 0-0.67 0.22-1 0.68-1 0.341 0 0.561 0.24 0.65 0.71 0.17 0.73 0.67 1.3 1.52 1.71z" fill="#fff"/>
    <path d="m31.98 12.15c-0.051-0.39 0.01-0.7 0.189-0.95 0.38-0.48 0.78-0.59 1.19-0.35 0.3 0.22 0.359 0.53 0.18 0.93-0.24 0.63-0.1 1.34 0.43 2.13 0.44 0.72 0.98 1.26 1.601 1.62-0.73-0.12-1.471-0.52-2.21-1.19-0.79-0.7-1.25-1.43-1.38-2.19z" fill="#fff"/>
    <path d="m35.51 16.99c0.561-0.35 1-0.33 1.311 0.06 0.22 0.27 0.17 0.57-0.16 0.9-0.34 0.34-0.48 1.05-0.41 2.11 0.03 0.41 0.05 0.81 0.06 1.19 0.021 0.38 0.16 0.88 0.431 1.48-0.271 0.01-0.521-0.19-0.76-0.61-0.23-0.41-0.421-0.85-0.57-1.3-0.38-1.04-0.49-2.06-0.33-3.08 0.068-0.38 0.208-0.63 0.428-0.75z" fill="#fff"/>
    <path d="m38.9 30.03c0 0.93-0.471 1.39-1.4 1.39-0.91 0-1.37-0.46-1.37-1.39 0-0.92 0.46-1.38 1.37-1.38 0.93 0 1.4 0.46 1.4 1.38z" fill="#fff"/>
    <path d="m33.3 28.98c0-0.69 0.12-1.341 0.37-1.95 0.04-0.08 0.061-0.15 0.08-0.2 0.01-0.061 0.04-0.12 0.08-0.21 0.34-0.78 0.75-1.09 1.21-0.94 0.49 0.21 0.59 0.721 0.31 1.54-0.17 0.3-0.29 0.63-0.369 1-0.08 0.33-0.141 0.66-0.19 0.99-0.04 0.15-0.06 0.29-0.06 0.41 0 0.78 0.27 1.43 0.81 1.97 0.54 0.53 1.19 0.8 1.94 0.8-0.44 0.301-0.881 0.45-1.33 0.45-0.79 0-1.471-0.38-2.021-1.13-0.56-0.75-0.83-1.66-0.83-2.73z" fill="#fff"/>
    <path d="m31.02 16.39c1.44 2.5 1.721 5.2 0.86 8.08-0.16 0.54-0.35 1.061-0.58 1.561-0.97 2.13-2.54 3.81-4.71 5.04l-0.2 0.13c-0.76 0.6-1.13 1.26-1.13 1.99 0 1.17 0.9 2.14 2.7 2.909 1.51 0.591 2.58 1.41 3.23 2.48-0.391 0.18-0.82 0.34-1.32 0.49-0.15 0.06-0.28 0.09-0.39 0.1-2.771 0.76-5.101 0.57-6.971-0.57-1.15 0.551-2.28 0.96-3.4 1.23-1.71 0.47-3.36 0.689-4.95 0.68-1.58-0.02-2.98-0.02-4.18-0.02 0.77-1.03 1.83-1.94 3.18-2.73 0.67-0.399 1.39-0.72 2.17-0.979 1.59-0.721 2.38-1.63 2.38-2.75 0-1.04-0.68-1.91-2.05-2.61-0.6-0.31-1.18-0.7-1.74-1.17l3.01-3.56c0.56 0.31 1.19 0.47 1.89 0.47 1.15 0 2.13-0.41 2.96-1.22 0.83-0.82 1.24-1.801 1.24-2.97 0-1.14-0.41-2.13-1.24-2.95s-1.81-1.23-2.96-1.23c-0.73 0-1.42 0.18-2.09 0.55l-3.51-4.14c0.79-0.9 1.75-1.67 2.87-2.32 0.23-0.13 0.46-0.26 0.7-0.37 2.45-1.22 5.01-1.52 7.68-0.9 2.921 0.689 5.101 2.279 6.551 4.779z"/>
    <path d="m35.98 22.12c0.239 0.42 0.489 0.62 0.76 0.61-0.271-0.6-0.41-1.1-0.431-1.48-0.01-0.38-0.029-0.78-0.06-1.19-0.07-1.06 0.07-1.77 0.41-2.11 0.33-0.33 0.38-0.63 0.16-0.9-0.311-0.39-0.75-0.41-1.311-0.06-0.22 0.12-0.359 0.37-0.43 0.75-0.16 1.02-0.05 2.04 0.33 3.08 0.152 0.45 0.342 0.89 0.572 1.3zm1.52 9.3c0.93 0 1.4-0.46 1.4-1.39 0-0.92-0.471-1.38-1.4-1.38-0.91 0-1.37 0.46-1.37 1.38 0 0.93 0.46 1.39 1.37 1.39zm-7.96-20.89c0.84 0.16 1.5 0.11 1.97-0.15-0.319 0.03-0.91-0.17-1.74-0.59-0.85-0.41-1.35-0.98-1.52-1.71-0.09-0.47-0.31-0.71-0.65-0.71-0.46 0-0.68 0.33-0.68 1 0 0.34 0.13 0.67 0.39 0.97 0.5 0.61 1.25 1.01 2.23 1.19zm4 1.25c0.18-0.4 0.12-0.71-0.18-0.93-0.41-0.24-0.811-0.13-1.19 0.35-0.18 0.25-0.24 0.56-0.189 0.95 0.13 0.76 0.59 1.49 1.38 2.19 0.739 0.67 1.479 1.07 2.21 1.19-0.62-0.36-1.16-0.9-1.601-1.62-0.53-0.79-0.67-1.5-0.43-2.13zm0.13 15.25c-0.25 0.609-0.37 1.26-0.37 1.95 0 1.069 0.271 1.979 0.83 2.729 0.55 0.75 1.23 1.13 2.021 1.13 0.449 0 0.89-0.149 1.33-0.45-0.75 0-1.4-0.27-1.94-0.8-0.54-0.54-0.81-1.189-0.81-1.97 0-0.12 0.02-0.26 0.06-0.41 0.05-0.33 0.11-0.66 0.19-0.99 0.079-0.37 0.199-0.7 0.369-1 0.28-0.819 0.181-1.33-0.31-1.54-0.46-0.149-0.87 0.16-1.21 0.94-0.04 0.09-0.07 0.149-0.08 0.21-0.02 0.051-0.04 0.121-0.08 0.201zm-10.07-18.62c0.67 0.07 1.3-0.11 1.88-0.55-0.521 0.12-1.08 0.1-1.7-0.08-0.93-0.24-1.521-0.65-1.76-1.25-0.19-0.41-0.45-0.59-0.76-0.54-0.45 0.09-0.62 0.42-0.49 1.01 0.02 0.33 0.2 0.59 0.53 0.8 0.42 0.3 1.19 0.5 2.3 0.61zm-9.35 0.76c-1.02 0.11-1.8-0.05-2.36-0.49-0.71-0.79-0.88-1.59-0.49-2.4-1.24 0.68-1.5 1.63-0.78 2.85 0.71 1.25 1.67 1.5 2.89 0.78 0.33-0.19 0.57-0.44 0.74-0.74zm6.39 0.33c-1.43 0-2.86 0.21-4.28 0.62l0.96 2.11-0.54 0.26-0.71 0.35-1.02-2.25c-0.41 0.16-0.88 0.38-1.4 0.65-0.55 0.3-1.11 0.45-1.7 0.45-0.97 0-1.8-0.33-2.48-1.01-0.69-0.68-1.03-1.5-1.03-2.47 0-0.96 0.34-1.78 1.03-2.47 0.68-0.69 1.51-1.04 2.48-1.04 0.79 0 1.51 0.25 2.15 0.76 0.63-0.41 1.36-0.69 2.18-0.84 1.28-0.21 2.38-0.06 3.3 0.43 0.85-0.45 1.84-0.63 2.97-0.53 1.37 0.13 2.431 0.58 3.181 1.33 0.89-0.19 1.85-0.1 2.89 0.27 1.33 0.5 2.26 1.25 2.79 2.25 1 0.1 1.97 0.6 2.91 1.5 0.88 0.9 1.399 1.87 1.56 2.91 0.99 0.52 1.71 1.43 2.17 2.73 0.48 1.32 0.5 2.52 0.07 3.59 0.41 2.64 0.05 5.23-1.07 7.79 0.22-0.029 0.37-0.04 0.45-0.04 0.77 0 1.42 0.271 1.96 0.811s0.81 1.189 0.81 1.96c0 0.229-0.029 0.46-0.079 0.67-0.261 1.15-0.771 2.1-1.521 2.83-0.75 0.74-1.61 1.11-2.56 1.11-1.16 0-2.16-0.511-2.98-1.54-0.821-1.021-1.231-2.261-1.231-3.711 0-0.65 0.09-1.271 0.27-1.841l-1.11-0.54 0.261-0.56 0.34-0.71 1.08 0.56c0.8-1.54 1.189-3.14 1.189-4.82 0-3.18-1.3-5.9-3.899-8.17-2.611-2.269-5.741-3.399-9.391-3.399zm-4.88-1.52c0.73 0.36 1.55 0.45 2.46 0.29 0.44-0.08 0.72-0.2 0.86-0.34 0.12-0.14 0.3-0.32 0.52-0.54-0.34 0.15-0.81 0.19-1.4 0.12-0.94-0.09-1.59-0.4-1.94-0.92-0.25-0.37-0.53-0.5-0.85-0.39-0.42 0.15-0.53 0.51-0.32 1.09 0.09 0.28 0.32 0.51 0.67 0.69z"/>
    <path d="m10.78 25.97l0.9-0.989-1.76-1.94 1.76-1.97-0.88-0.99-2.65 2.96 2.63 2.929zm8.04-4.58c-1.05 0-1.58 0.53-1.58 1.58 0 1.06 0.53 1.58 1.58 1.58s1.58-0.52 1.58-1.58c0-1.05-0.53-1.58-1.58-1.58zm0 4.58c-0.84 0-1.56-0.319-2.17-0.97l-5.15 5.95-6.77-7.81 6.79-7.899 4.98 5.85c0.59-0.74 1.36-1.11 2.32-1.11 0.82 0 1.52 0.29 2.11 0.88s0.88 1.29 0.88 2.11-0.29 1.53-0.88 2.12c-0.59 0.579-1.29 0.879-2.11 0.879z"/>
</g>
</svg>
