<?xml version="1.0" encoding="UTF-8" standalone="no"?>
<!-- Generator: Adobe Illustrator 15.0.0, SVG Export Plug-In . SVG Version: 6.00 Build 0)  -->
<!DOCTYPE svg  PUBLIC '-//W3C//DTD SVG 1.1//EN'  'http://www.w3.org/Graphics/SVG/1.1/DTD/svg11.dtd'>
<svg id="layer" xmlns="http://www.w3.org/2000/svg" xml:space="preserve" height="45px" viewBox="0 0 45 45" width="45px" version="1.1" y="0px" x="0px" xmlns:xlink="http://www.w3.org/1999/xlink" enable-background="new 0 0 45 45">
<g id="piece">
    <path d="m22.49 12.86c0.76 0 1.149 0.39 1.149 1.17 0 0.77-0.39 1.15-1.149 1.15-0.78 0-1.17-0.38-1.17-1.15 0-0.78 0.39-1.17 1.17-1.17z" fill="#fff"/>
    <path d="m32.86 19.26c-1.141-0.52-2.36-0.24-3.641 0.83-1.27 1.07-2.319 2.27-3.14 3.58-0.17 0.25-0.49 0.89-0.97 1.93-0.57-0.04-1.141-0.06-1.7-0.06 0.05-0.57 0.149-1.07 0.29-1.521 0.33-1.149 0.77-2.069 1.319-2.75 0.551-0.68 1.141-1.36 1.75-2.03 1.11-1 2.29-1.75 3.54-2.26 1.25-0.5 2.4-0.55 3.44-0.14 0.56 0.23 1.08 0.53 1.55 0.89 0.48 0.36 0.91 0.96 1.28 1.78 0.37 0.78 0.439 1.84 0.229 3.18-0.21 1.35-0.79 2.78-1.729 4.28-0.58-0.149-1.05-0.27-1.44-0.35 1.332-4.029 1.072-6.489-0.778-7.359z" fill="#fff"/>
    <path d="m11.29 26.64c-0.26 0.04-0.51 0.101-0.75 0.17-0.24 0.07-0.47 0.12-0.69 0.16-0.94-1.5-1.52-2.93-1.73-4.26-0.21-1.34-0.13-2.4 0.24-3.18 0.35-0.82 0.77-1.42 1.25-1.79s1-0.67 1.58-0.9c1.02-0.41 2.16-0.36 3.41 0.15 1.25 0.52 2.44 1.27 3.56 2.27 0.62 0.66 1.2 1.33 1.75 2.01 0.56 0.68 1 1.6 1.33 2.75 0.12 0.48 0.22 0.98 0.28 1.521-0.28 0.01-0.57 0.02-0.85 0.04-0.28 0.01-0.55 0.02-0.83 0.02-0.01 0-0.14-0.26-0.38-0.77-0.24-0.521-0.44-0.9-0.6-1.16-0.82-1.31-1.87-2.51-3.15-3.58s-2.49-1.34-3.62-0.81c-1.89 0.859-2.15 3.319-0.8 7.359z" fill="#fff"/>
    <path d="m22.59 28.06c-4.16 0-7.87 0.37-11.14 1.11-0.68 0.17-1.08 0.04-1.21-0.42-0.11-0.47 0.19-0.81 0.89-1 0.41-0.1 0.83-0.19 1.27-0.28 0.43-0.09 0.89-0.18 1.35-0.27-0.14-0.37-0.12-0.811 0.04-1.311 0.17-0.5 0.13-0.899-0.12-1.22-0.17-0.2-0.37-0.07-0.63 0.39-0.25 0.471-0.49 0.631-0.72 0.5-0.29-0.17-0.49-0.46-0.6-0.88-0.11-0.41-0.08-0.76 0.08-1.05 0.13-0.229 0.39-0.22 0.79 0.04 0.41 0.26 0.68 0.271 0.81 0.04 0.13-0.22-0.02-0.44-0.44-0.66s-0.56-0.43-0.42-0.65c0.17-0.29 0.46-0.49 0.87-0.61 0.42-0.11 0.78-0.09 1.08 0.07 0.22 0.14 0.19 0.41-0.07 0.8-0.27 0.399-0.29 0.66-0.05 0.78 0.21 0.14 0.43 0 0.65-0.421 0.22-0.41 0.45-0.56 0.68-0.439 0.29 0.17 0.49 0.46 0.6 0.87 0.12 0.42 0.1 0.77-0.07 1.06-0.13 0.23-0.43 0.21-0.87-0.06-0.44-0.28-0.69-0.29-0.73-0.04-0.08 0.479 0.13 0.91 0.63 1.29s0.7 0.8 0.6 1.25c2.05-0.25 4.26-0.37 6.61-0.37 2.29 0 4.459 0.12 6.5 0.37-0.109-0.45 0.08-0.86 0.57-1.24s0.71-0.8 0.64-1.28c-0.04-0.25-0.29-0.229-0.739 0.04-0.45 0.271-0.74 0.29-0.86 0.061-0.17-0.29-0.19-0.641-0.07-1.061 0.11-0.41 0.311-0.71 0.601-0.89 0.22-0.12 0.439 0.03 0.659 0.45 0.221 0.43 0.44 0.58 0.671 0.45 0.22-0.131 0.199-0.4-0.07-0.8-0.26-0.39-0.28-0.66-0.05-0.8 0.81-0.43 1.46-0.26 1.949 0.52 0.12 0.23-0.02 0.46-0.439 0.67-0.42 0.22-0.561 0.439-0.42 0.66 0.12 0.229 0.38 0.22 0.79-0.04 0.399-0.261 0.67-0.28 0.81-0.061 0.16 0.29 0.19 0.64 0.08 1.061-0.109 0.43-0.31 0.72-0.59 0.869-0.25 0.131-0.5-0.029-0.74-0.489-0.25-0.45-0.45-0.58-0.62-0.38-0.242 0.321-0.282 0.731-0.112 1.221 0.17 0.5 0.189 0.939 0.069 1.31 0.881 0.15 1.79 0.32 2.75 0.53 0.67 0.21 0.96 0.54 0.86 1-0.14 0.47-0.53 0.6-1.17 0.39-3.249-0.72-6.899-1.08-10.949-1.08z" fill="#fff"/>
    <path d="m13.26 32.67l-2.22 1.87-1.1-0.21c-0.25-0.26-0.37-0.57-0.37-0.94 0-0.26 0.06-0.489 0.18-0.699l0.66-0.53 2.85 0.509z" fill="#fff"/>
    <path d="m16.19 31.4c0.73 0 1.09 0.369 1.09 1.109 0 0.721-0.36 1.08-1.09 1.08-0.74 0-1.11-0.359-1.11-1.08 0-0.739 0.37-1.109 1.11-1.109z" fill="#fff"/>
    <polygon points="25.11 32.08 22.49 33.31 19.86 32.08 22.49 30.87" fill="#fff"/>
    <path d="m28.78 31.4c0.739 0 1.109 0.369 1.109 1.109 0 0.721-0.37 1.08-1.109 1.08-0.74 0-1.101-0.359-1.101-1.08 0.001-0.739 0.361-1.109 1.101-1.109z" fill="#fff"/>
    <path d="m35.26 32.75c0.101 0.18 0.15 0.39 0.15 0.62 0 0.38-0.13 0.7-0.37 0.96l-1.11 0.21-2.21-1.89 2.851-0.49 0.689 0.59z" fill="#fff"/>
    <path d="m34.48 36.79l-1.66 1.05c-3.061-0.62-6.5-0.92-10.33-0.92-3.89 0-7.34 0.3-10.36 0.92l-1.64-1.05c3.6-0.94 7.59-1.41 12-1.41 4.44 0 8.44 0.47 11.99 1.41z" fill="#fff"/>
    <path d="m21.85 6.52l-0.65-1.86h2.52l-0.62 1.86 1.91-0.61v2.5l-1.91-0.63 0.45 2.48c-0.35-0.11-0.7-0.17-1.04-0.17-0.33 0-0.7 0.06-1.11 0.19l0.45-2.5-1.89 0.63v-2.5l1.89 0.61z"/>
    <path d="m23.64 14.03c0-0.78-0.39-1.17-1.149-1.17-0.78 0-1.17 0.39-1.17 1.17 0 0.77 0.39 1.15 1.17 1.15 0.759 0 1.149-0.38 1.149-1.15zm-3.84-2.72c0.75-0.76 1.66-1.14 2.73-1.14 1.05 0 1.951 0.38 2.71 1.14 0.75 0.76 1.12 1.67 1.12 2.72 0 1.07-0.37 1.97-1.12 2.72-0.76 0.74-1.66 1.12-2.71 1.12-1.07 0-1.98-0.38-2.73-1.12-0.75-0.75-1.13-1.65-1.13-2.72 0-1.05 0.38-1.96 1.13-2.72z"/>
    <path d="m26.08 23.67c0.82-1.31 1.87-2.51 3.14-3.58 1.28-1.07 2.5-1.35 3.641-0.83 1.85 0.87 2.109 3.33 0.779 7.36 0.391 0.08 0.86 0.2 1.44 0.35 0.939-1.5 1.52-2.93 1.729-4.28 0.21-1.34 0.141-2.4-0.229-3.18-0.37-0.82-0.8-1.42-1.28-1.78-0.47-0.36-0.99-0.66-1.55-0.89-1.04-0.41-2.19-0.36-3.44 0.14-1.25 0.51-2.43 1.26-3.54 2.26-0.609 0.67-1.199 1.35-1.75 2.03-0.55 0.68-0.989 1.6-1.319 2.75-0.141 0.45-0.24 0.95-0.29 1.521 0.56 0 1.13 0.02 1.7 0.06 0.479-1.041 0.799-1.681 0.969-1.931zm3.81 8.84c0-0.74-0.37-1.109-1.109-1.109-0.74 0-1.101 0.369-1.101 1.109 0 0.721 0.36 1.08 1.101 1.08 0.739 0 1.109-0.36 1.109-1.08zm4.68-0.35l-2.851 0.49 2.21 1.89 1.11-0.21c0.24-0.26 0.37-0.58 0.37-0.96 0-0.23-0.05-0.44-0.15-0.62l-0.689-0.59zm-17.29 0.35c0-0.74-0.36-1.109-1.09-1.109-0.74 0-1.11 0.369-1.11 1.109 0 0.721 0.37 1.08 1.11 1.08 0.73 0 1.09-0.36 1.09-1.08zm5.21 0.8l2.62-1.229-2.62-1.21-2.63 1.21 2.63 1.229zm0 2.07c-4.41 0-8.4 0.47-12 1.41l1.64 1.05c3.02-0.62 6.47-0.92 10.36-0.92 3.83 0 7.27 0.3 10.33 0.92l1.66-1.05c-3.55-0.94-7.55-1.41-11.99-1.41zm0 4.96c-4.3 0-8.12-0.52-11.47-1.56-1.35-0.35-2.03-1.26-2.03-2.72 0-0.22 0.03-0.439 0.09-0.64-0.55-0.56-0.83-1.24-0.83-2.03 0-0.159 0.03-0.33 0.07-0.489-0.58-0.521-0.86-1.2-0.86-2.03 0-0.82 0.28-1.5 0.86-2.03-0.25-0.26-0.49-0.58-0.72-0.95-1.16-1.649-1.94-3.34-2.32-5.06s-0.35-3.2 0.1-4.43c0.69-1.74 1.75-3.02 3.2-3.84 1.4-0.8 2.96-1.1 4.68-0.89s3.4 0.85 5.04 1.92c0.51 0.35 1.01 0.74 1.48 1.18 0.99 0.92 1.9 2.04 2.73 3.35 0.82-1.33 1.73-2.45 2.74-3.36 0.47-0.44 0.95-0.83 1.46-1.17 1.64-1.07 3.32-1.71 5.04-1.92 1.71-0.21 3.27 0.09 4.68 0.89 1.44 0.82 2.5 2.1 3.2 3.84 0.44 1.23 0.47 2.71 0.08 4.43-0.38 1.72-1.14 3.41-2.29 5.06-0.26 0.37-0.51 0.69-0.74 0.971 0.561 0.56 0.84 1.229 0.84 2.01 0 0.83-0.289 1.51-0.859 2.03 0.04 0.159 0.06 0.319 0.06 0.47 0 0.81-0.27 1.49-0.819 2.05 0.05 0.19 0.08 0.4 0.08 0.64 0 1.46-0.681 2.37-2.03 2.721-3.362 1.037-7.182 1.557-11.462 1.557zm-11.36-12.59c-0.7 0.19-1 0.53-0.89 1 0.13 0.46 0.53 0.59 1.21 0.42 3.27-0.74 6.98-1.11 11.14-1.11 4.05 0 7.7 0.36 10.95 1.08 0.64 0.21 1.03 0.08 1.17-0.39 0.1-0.46-0.19-0.79-0.86-1-0.96-0.21-1.869-0.38-2.75-0.53 0.12-0.37 0.101-0.81-0.069-1.31-0.17-0.49-0.13-0.9 0.109-1.22 0.17-0.2 0.37-0.07 0.62 0.38 0.24 0.46 0.49 0.62 0.74 0.489 0.28-0.149 0.48-0.439 0.59-0.869 0.11-0.421 0.08-0.771-0.08-1.061-0.14-0.22-0.41-0.2-0.81 0.061-0.41 0.26-0.67 0.27-0.79 0.04-0.141-0.221 0-0.44 0.42-0.66 0.42-0.21 0.56-0.44 0.439-0.67-0.489-0.78-1.14-0.95-1.949-0.52-0.23 0.14-0.21 0.41 0.05 0.8 0.27 0.4 0.29 0.669 0.07 0.8-0.23 0.13-0.45-0.021-0.671-0.45-0.22-0.42-0.439-0.57-0.659-0.45-0.29 0.18-0.49 0.479-0.601 0.89-0.12 0.42-0.1 0.771 0.07 1.061 0.12 0.229 0.41 0.21 0.86-0.061 0.449-0.27 0.699-0.29 0.739-0.04 0.07 0.48-0.149 0.9-0.64 1.28s-0.68 0.79-0.57 1.24c-2.04-0.25-4.21-0.37-6.5-0.37-2.35 0-4.56 0.12-6.61 0.37 0.1-0.45-0.1-0.87-0.6-1.25s-0.71-0.811-0.63-1.29c0.04-0.25 0.29-0.24 0.73 0.04 0.44 0.27 0.74 0.29 0.87 0.06 0.17-0.29 0.19-0.64 0.07-1.06-0.11-0.41-0.31-0.7-0.6-0.87-0.23-0.12-0.46 0.03-0.68 0.439-0.22 0.421-0.44 0.561-0.65 0.421-0.24-0.12-0.22-0.381 0.05-0.78 0.26-0.39 0.29-0.66 0.07-0.8-0.3-0.16-0.66-0.18-1.08-0.07-0.41 0.12-0.7 0.32-0.87 0.61-0.14 0.22 0 0.43 0.42 0.65s0.57 0.44 0.44 0.66c-0.13 0.23-0.4 0.22-0.81-0.04-0.4-0.26-0.66-0.27-0.79-0.04-0.16 0.29-0.19 0.64-0.08 1.05 0.11 0.42 0.31 0.71 0.6 0.88 0.23 0.131 0.47-0.029 0.72-0.5 0.26-0.46 0.46-0.59 0.63-0.39 0.25 0.32 0.29 0.72 0.12 1.22-0.16 0.5-0.18 0.94-0.04 1.311-0.46 0.09-0.92 0.18-1.35 0.27-0.438 0.089-0.858 0.179-1.268 0.279zm-1.19 6.58l1.1 0.21 2.22-1.87-2.85-0.51-0.66 0.53c-0.12 0.21-0.18 0.44-0.18 0.7 0 0.37 0.12 0.68 0.37 0.94zm0.6-7.52c0.24-0.069 0.49-0.13 0.75-0.17-1.35-4.04-1.09-6.5 0.8-7.36 1.13-0.53 2.34-0.26 3.62 0.81s2.33 2.27 3.15 3.58c0.16 0.26 0.36 0.64 0.6 1.16 0.24 0.51 0.37 0.77 0.38 0.77 0.28 0 0.55-0.01 0.83-0.02 0.28-0.021 0.57-0.03 0.85-0.04-0.06-0.54-0.16-1.04-0.28-1.521-0.33-1.149-0.77-2.069-1.33-2.75-0.55-0.68-1.13-1.35-1.75-2.01-1.12-1-2.31-1.75-3.56-2.27-1.25-0.51-2.39-0.56-3.41-0.15-0.58 0.23-1.1 0.53-1.58 0.9s-0.9 0.97-1.25 1.79c-0.37 0.78-0.45 1.84-0.24 3.18 0.21 1.33 0.79 2.76 1.73 4.26 0.22-0.039 0.45-0.089 0.69-0.159z"/>
</g>
</svg>
