<?xml version="1.0" encoding="UTF-8" standalone="no"?>
<!-- Generator: Adobe Illustrator 15.0.0, SVG Export Plug-In . SVG Version: 6.00 Build 0)  -->
<!DOCTYPE svg  PUBLIC '-//W3C//DTD SVG 1.1//EN'  'http://www.w3.org/Graphics/SVG/1.1/DTD/svg11.dtd'>
<svg id="layer" xmlns="http://www.w3.org/2000/svg" xml:space="preserve" height="45px" viewBox="0 0 45 45" width="45px" version="1.1" y="0px" x="0px" xmlns:xlink="http://www.w3.org/1999/xlink" enable-background="new 0 0 45 45">
<g id="piece">
    <path d="m7.98 23.23c0 0.479-0.37 0.72-1.11 0.72-0.75 0-1.12-0.24-1.12-0.72s0.37-0.721 1.12-0.721c0.74 0.001 1.11 0.241 1.11 0.721z" fill="#fff"/>
    <path d="m11.9 24.25c0.2 0.4 0.02 0.77-0.54 1.11-1.06 0.73-1.9 1.24-2.52 1.54-0.61 0.38-1.04 0.4-1.29 0.04-0.27-0.36-0.12-0.74 0.47-1.15 0.56-0.22 1.44-0.76 2.65-1.62 0.56-0.34 0.97-0.31 1.23 0.08z" fill="#fff"/>
    <path d="m25.06 19.89c-0.229 1.01-0.71 1.94-1.43 2.81-0.59 0.54-1.05 0.64-1.38 0.3-0.34-0.31-0.24-0.75 0.29-1.31 0.51-0.63 0.87-1.31 1.09-2.05 0.12-0.72 0.42-1.04 0.9-0.94 0.45 0.08 0.63 0.48 0.53 1.19z" fill="#fff"/>
    <path d="m16.2 14.96c-0.28-0.08-0.6-0.07-0.94 0.02 0.1 0.14 0.14 0.29 0.14 0.46 0 0.69-0.34 1.04-1.04 1.04-0.41 0-0.72-0.18-0.92-0.55-0.31 0.26-0.5 0.5-0.58 0.74-0.35-0.11-0.53-0.31-0.53-0.6-0.06-0.76 0.59-1.39 1.93-1.86 1.31-0.5 1.99-0.37 2.05 0.39 0 0.15-0.04 0.27-0.11 0.36z" fill="#fff"/>
    <path d="m19.98 12.48c0.24 0.03 0.48 0.02 0.72-0.04 0.12-0.03 0.25-0.06 0.39-0.09 0.15-0.03 0.38-0.15 0.71-0.36-0.34 0.73-0.86 1.22-1.56 1.5-0.08 0.03-0.26 0.04-0.53 0.04-0.09-0.03-0.17-0.05-0.22-0.07-0.06-0.02-0.1-0.04-0.13-0.05-0.75-0.31-1.06-0.97-0.94-1.99 0.35 0.42 0.72 0.73 1.11 0.94 0.16 0.08 0.31 0.12 0.45 0.12z" fill="#fff"/>
    <path d="m26.11 9.35c0.83 0.23 1.239 0.49 1.229 0.77-0.05 0.48-1.04 0.73-2.95 0.74-0.54-0.23-1.04-0.43-1.52-0.59 0-0.38-0.05-0.76-0.14-1.13 1.421-0.1 2.551-0.03 3.381 0.21z" fill="#fff"/>
    <path d="m28.63 10.62c1.86 1.06 2.7 1.83 2.5 2.29-0.12 0.28-0.63 0.32-1.53 0.13-0.909-0.19-1.93-0.56-3.08-1.11 1.11-0.29 1.81-0.73 2.11-1.31z" fill="#fff"/>
    <path d="m35.46 17.93c0.48 0.77 0.62 1.26 0.41 1.46-0.2 0.21-0.7 0.07-1.48-0.41-0.77-0.47-1.609-1.16-2.5-2.05-0.72-0.89-1.55-1.77-2.479-2.64 1.05 0.13 1.87 0.05 2.439-0.25 0.511 0.38 1.03 0.84 1.561 1.38 0.889 0.9 1.569 1.74 2.049 2.51z" fill="#fff"/>
    <path d="m37.47 26.59c-0.49-0.59-0.98-1.37-1.48-2.36-0.54-1.4-1.17-2.74-1.88-4.021 1.01 0.51 1.81 0.65 2.399 0.41 0.391 0.67 0.76 1.37 1.101 2.1 0.54 1.14 0.899 2.16 1.08 3.049 0.189 0.891 0.149 1.4-0.11 1.521-0.25 0.121-0.62-0.109-1.11-0.699z" fill="#fff"/>
    <path d="m39.62 30.63c-0.05 0.99-0.17 1.8-0.36 2.43-0.18 0.641-0.39 0.96-0.64 0.96-0.45 0-0.78-0.899-0.99-2.689-0.09-1.07-0.27-2.21-0.53-3.43 0.521 0.439 1.011 0.689 1.46 0.76 0.38-0.011 0.74 0.649 1.06 1.969z" fill="#fff"/>
    <path d="m38.62 35.41c0.56 0 1.06-0.42 1.5-1.271 0.01 1.15-0.061 2.061-0.21 2.75-0.74-0.26-1.51-0.489-2.32-0.68 0.04-0.51 0.08-0.91 0.11-1.21 0.31 0.271 0.62 0.411 0.92 0.411z" fill="#fff"/>
    <path d="m39.26 33.06c0.19-0.63 0.311-1.439 0.36-2.43-0.32-1.32-0.68-1.979-1.061-1.97-0.449-0.07-0.939-0.32-1.46-0.76 0.261 1.22 0.44 2.359 0.53 3.43 0.21 1.79 0.54 2.689 0.99 2.689 0.251 0.001 0.461-0.319 0.641-0.959zm0.65 3.83c0.149-0.689 0.22-1.6 0.21-2.75-0.44 0.851-0.94 1.271-1.5 1.271-0.3 0-0.61-0.141-0.92-0.41-0.03 0.3-0.07 0.7-0.11 1.21 0.81 0.189 1.58 0.419 2.32 0.679zm-17.66-13.89c0.33 0.34 0.79 0.24 1.38-0.3 0.72-0.87 1.2-1.8 1.43-2.81 0.101-0.71-0.079-1.11-0.529-1.19-0.48-0.1-0.78 0.22-0.9 0.94-0.22 0.74-0.58 1.42-1.09 2.05-0.531 0.56-0.631 1-0.291 1.31zm2.14-12.14c1.91-0.01 2.9-0.26 2.95-0.74 0.01-0.28-0.399-0.54-1.229-0.77-0.83-0.24-1.96-0.31-3.38-0.21 0.09 0.37 0.14 0.75 0.14 1.13 0.479 0.16 0.979 0.36 1.519 0.59zm5.21 2.18c0.9 0.19 1.41 0.15 1.53-0.13 0.2-0.46-0.64-1.23-2.5-2.29-0.3 0.58-1 1.02-2.11 1.31 1.15 0.55 2.17 0.92 3.08 1.11zm6.91 7.58c-0.59 0.24-1.39 0.1-2.399-0.41 0.71 1.28 1.34 2.62 1.88 4.021 0.5 0.989 0.99 1.77 1.479 2.359 0.49 0.59 0.86 0.82 1.11 0.7 0.26-0.12 0.3-0.63 0.11-1.521-0.181-0.89-0.54-1.909-1.08-3.049-0.34-0.73-0.71-1.43-1.1-2.1zm-0.64-1.23c0.21-0.2 0.07-0.69-0.41-1.46-0.479-0.77-1.16-1.61-2.05-2.51-0.53-0.54-1.05-1-1.561-1.38-0.569 0.3-1.39 0.38-2.439 0.25 0.93 0.87 1.76 1.75 2.479 2.64 0.891 0.89 1.73 1.58 2.5 2.05 0.781 0.48 1.281 0.62 1.481 0.41zm-29 4.56c0.74 0 1.11-0.24 1.11-0.72s-0.37-0.721-1.11-0.721c-0.75 0-1.12 0.24-1.12 0.721 0 0.48 0.37 0.72 1.12 0.72zm5.03 0.3c-0.26-0.39-0.67-0.42-1.23-0.08-1.21 0.86-2.09 1.4-2.65 1.62-0.59 0.41-0.74 0.79-0.47 1.15 0.25 0.36 0.68 0.34 1.29-0.04 0.62-0.301 1.46-0.811 2.52-1.54 0.56-0.34 0.74-0.71 0.54-1.11zm1.54-8.32c0.2 0.37 0.51 0.55 0.92 0.55 0.7 0 1.04-0.35 1.04-1.04 0-0.17-0.04-0.32-0.14-0.46 0.34-0.09 0.66-0.1 0.94-0.02 0.07-0.09 0.11-0.21 0.11-0.36-0.06-0.76-0.74-0.89-2.05-0.39-1.34 0.47-1.99 1.1-1.93 1.86 0 0.29 0.18 0.49 0.53 0.6 0.08-0.24 0.27-0.48 0.58-0.74zm4.98-7.34c0.31-0.54 0.63-0.99 0.94-1.36 0.56-0.67 1.18-1.21 1.85-1.62 0.5 0.67 0.91 1.4 1.21 2.18 0 0.04 0.01 0.09 0.04 0.14 0.07 0 0.14 0 0.2-0.01 0.07-0.01 0.15-0.01 0.23-0.01 0.87-0.04 1.73-0.01 2.56 0.1 0.84 0.11 1.52 0.32 2.05 0.62 0.09 0.04 0.16 0.06 0.24 0.07 0.069 0.01 0.17 0.03 0.3 0.07 1.27 0.52 2.3 1.18 3.1 1.98 0.801 0.8 1.24 1.5 1.33 2.1 0.58 0.38 1.23 0.91 1.92 1.58 1.891 1.93 2.83 3.6 2.811 5.01 0.59 0.69 1.149 1.59 1.689 2.68 1.17 2.59 1.46 4.53 0.86 5.83 0.93 1.12 1.49 2.8 1.68 5.04 0.051 0.819 0.051 1.6 0 2.34-0.029 1.21-0.109 2.4-0.25 3.55-2.439-1.08-5.109-1.75-8-2.01-3-0.26-5.899-0.03-8.689 0.689-3.53 1.4-7.25 1.99-11.18 1.79-0.49-0.029-0.85-0.06-1.06-0.08 2.16-4 4.96-7.02 8.4-9.069 0.78-0.75 1.3-1.84 1.56-3.26 0.18-1.08 0.13-2.091-0.14-3.03-0.45 0.28-0.81 0.479-1.07 0.59-1.41 0.64-2.81 0.88-4.2 0.7-0.89 0.95-1.96 1.68-3.22 2.17-0.06 0.03-0.32 0.12-0.78 0.27-0.9 0.75-1.82 1.24-2.76 1.45-0.94 0.22-1.73 0.101-2.39-0.37-0.42-0.279-0.68-0.71-0.78-1.27-0.69-0.021-1.49-0.46-2.38-1.311-0.91-1.26-1.18-2.319-0.79-3.2 0.39-0.87 1.43-2.05 3.11-3.53 0.33-0.28 0.73-0.58 1.21-0.88 0.37-0.2 0.77-0.52 1.21-0.96 0.59-0.59 1.05-1.25 1.38-1.99 0.71-1.74 2.05-3.17 4.01-4.31 0.09-0.05 0.15-0.09 0.19-0.1-0.06-0.72-0.02-1.41 0.1-2.05 0.14-0.89 0.41-1.67 0.8-2.34 0.77 0.32 1.47 0.74 2.11 1.27 0.209 0.171 0.409 0.351 0.599 0.541zm2.28 3.85c-0.24 0.06-0.48 0.07-0.72 0.04-0.14 0-0.29-0.04-0.45-0.12-0.39-0.21-0.76-0.52-1.11-0.94-0.12 1.02 0.19 1.68 0.94 1.99 0.03 0.01 0.07 0.03 0.13 0.05 0.05 0.02 0.13 0.04 0.22 0.07 0.27 0 0.45-0.01 0.53-0.04 0.7-0.28 1.22-0.77 1.56-1.5-0.33 0.21-0.56 0.33-0.71 0.36-0.14 0.03-0.27 0.06-0.39 0.09z"/>
</g>
</svg>
