<?xml version="1.0" encoding="UTF-8" standalone="no"?>
<!-- Generator: Adobe Illustrator 15.0.0, SVG Export Plug-In . SVG Version: 6.00 Build 0)  -->
<!DOCTYPE svg  PUBLIC '-//W3C//DTD SVG 1.1//EN'  'http://www.w3.org/Graphics/SVG/1.1/DTD/svg11.dtd'>
<svg id="layer" xmlns="http://www.w3.org/2000/svg" xml:space="preserve" height="45px" viewBox="0 0 45 45" width="45px" version="1.1" y="0px" x="0px" xmlns:xlink="http://www.w3.org/1999/xlink" enable-background="new 0 0 45 45">
<g id="piece">
	<path d="m25.781 33.615c1.955 0.738 3.521 1.935 4.696 3.589v1.395h-15.955v-1.395c1.189-1.695 2.762-2.892 4.717-3.589-1.121-0.574-2.027-1.412-2.718-2.512-0.69-1.102-1.035-2.321-1.035-3.661 0-2.242 0.882-4.067 2.646-5.476 1.162-1.094 1.743-2.427 1.743-3.999h-5.065v-1.415c0.889-1.094 1.948-1.962 3.179-2.604 0.93-0.506 1.675-1.251 2.235-2.235-0.574-0.615-0.861-1.347-0.861-2.194 0-0.861 0.304-1.596 0.913-2.205 0.607-0.608 1.35-0.913 2.225-0.913 0.861 0 1.596 0.304 2.205 0.913 0.607 0.608 0.912 1.343 0.912 2.205 0 0.82-0.28 1.552-0.841 2.194 0.52 0.971 1.271 1.716 2.256 2.235 1.258 0.67 2.311 1.524 3.158 2.563v1.456h-5.065c-0.027 1.572 0.561 2.919 1.764 4.04 1.736 1.381 2.604 3.192 2.604 5.435 0 1.326-0.349 2.536-1.046 3.63s-1.587 1.942-2.667 2.543z"/>
</g>
</svg>
