<?xml version="1.0" encoding="UTF-8" standalone="no"?>
<!-- Generator: Adobe Illustrator 15.0.0, SVG Export Plug-In . SVG Version: 6.00 Build 0)  -->
<!DOCTYPE svg  PUBLIC '-//W3C//DTD SVG 1.1//EN'  'http://www.w3.org/Graphics/SVG/1.1/DTD/svg11.dtd'>
<svg id="layer" xmlns="http://www.w3.org/2000/svg" xml:space="preserve" height="45px" viewBox="0 0 45 45" width="45px" version="1.1" y="0px" x="0px" xmlns:xlink="http://www.w3.org/1999/xlink" enable-background="new 0 0 45 45">
<g id="piece">
    <path d="m35.07 22.79l-0.84 3.59c-0.511-0.17-1.101-0.33-1.78-0.5l2.62-3.09z" fill="#fff"/>
    <path d="m29.72 21.31l0.66 4.33c-0.729-0.13-1.6-0.239-2.63-0.35l1.97-3.98z" fill="#fff"/>
    <path d="m22.5 18.85l2.21 6.05c-0.729-0.04-1.47-0.061-2.21-0.061-0.98 0-1.72 0.01-2.21 0.04l2.21-6.029z" fill="#fff"/>
    <path d="m41.44 11.49c0.479 0.48 0.729 1.05 0.729 1.72 0 0.68-0.25 1.26-0.729 1.74-0.49 0.48-1.061 0.72-1.73 0.72s-1.25-0.24-1.729-0.72c-0.48-0.48-0.711-1.06-0.711-1.74 0-0.67 0.23-1.24 0.711-1.72 0.479-0.48 1.06-0.72 1.729-0.72s1.24 0.24 1.73 0.72z"/>
    <path d="m38.7 15.49l-2.97 12.79-1.141 0.05c-0.1-0.22-0.34-0.39-0.729-0.5-3.351-0.93-7.141-1.39-11.36-1.39-4.28 0-8.04 0.46-11.28 1.39-0.54 0.15-0.8 0.39-0.8 0.72l-1.23-0.08-2.89-12.96 6.48 7.521 1.33-9.66 4.17 8.92 4.22-11.64 4.22 11.64 4.15-8.92 1.33 9.66 6.5-7.541zm-4.47 10.89l0.84-3.59-2.62 3.09c0.68 0.17 1.27 0.33 1.78 0.5zm-3.85-0.74l-0.66-4.33-1.97 3.98c1.03 0.11 1.9 0.22 2.63 0.35zm-5.67-0.74l-2.21-6.05-2.21 6.03c0.49-0.03 1.23-0.04 2.21-0.04 0.74 0 1.48 0.02 2.21 0.06zm-7.46 0.39l-1.97-3.98-0.66 4.31c0.77-0.13 1.65-0.24 2.63-0.33zm-4.68 0.59l-2.64-3.09 0.86 3.57c0.41-0.13 1-0.28 1.78-0.48z"/>
    <path d="m35.73 28.28c0.239 0.479 0.369 0.979 0.369 1.5 0 0.81-0.26 1.489-0.779 2.05 0.04 0.15 0.06 0.31 0.06 0.47 0 0.82-0.25 1.51-0.76 2.05 0.05 0.19 0.08 0.41 0.08 0.641 0 0.13-0.01 0.26-0.021 0.39l-1.31-0.08c-1.521-0.41-3.2-0.78-5.05-1.09-1.84-0.31-3.78-0.47-5.82-0.47s-3.98 0.16-5.81 0.47c-1.84 0.31-3.52 0.68-5.04 1.09l-1.33 0.08c-0.01-0.13-0.02-0.26-0.02-0.39 0-0.23 0.03-0.45 0.08-0.641-0.51-0.54-0.76-1.229-0.76-2.05 0-0.16 0.02-0.319 0.06-0.47-0.519-0.53-0.779-1.21-0.779-2.03 0-0.479 0.1-0.92 0.29-1.33l1.23 0.08c0 0.061 0 0.12 0.02 0.181 0.11 0.409 0.48 0.539 1.11 0.39 3.13-0.86 6.81-1.29 11.03-1.29 4.189 0 7.82 0.43 10.91 1.27 0.63 0.181 1.01 0.061 1.13-0.369 0.04-0.15 0.03-0.28-0.03-0.4l1.14-0.052zm-1.54 4.02c0-0.46-0.16-0.83-0.49-1.1l-2.69 0.979 1.91 1.521c0.85 0 1.27-0.47 1.27-1.4zm-4.47-0.69c0.12-0.62-0.33-1.03-1.35-1.23-1.03-0.17-1.601 0.061-1.71 0.69-0.12 0.63 0.34 1.04 1.38 1.23 1.01 0.19 1.57-0.04 1.68-0.69zm-7.22 0.71l2.44-1.391-2.44-1.42-2.44 1.42 2.44 1.391zm-5.48-0.04c1.03-0.16 1.48-0.57 1.36-1.21-0.11-0.63-0.67-0.86-1.68-0.69-1.06 0.17-1.51 0.58-1.38 1.23s0.69 0.88 1.7 0.67zm-4.94 1.42l1.91-1.5-2.69-1c-0.33 0.28-0.49 0.649-0.49 1.1 0 0.93 0.42 1.4 1.27 1.4z"/>
    <path d="m33.37 35.3l1.31 0.08c-0.1 1.23-0.699 2.01-1.8 2.34-3.11 1.04-6.57 1.561-10.38 1.561-3.83 0-7.29-0.521-10.38-1.561-1.1-0.33-1.7-1.109-1.8-2.34l1.33-0.08c0.89 0.3 1.75 0.54 2.59 0.71 1.2-0.229 2.5-0.43 3.89-0.609 1.4-0.181 2.85-0.271 4.37-0.271 1.5 0 2.96 0.09 4.37 0.28 1.41 0.18 2.71 0.39 3.92 0.6 0.84-0.19 1.7-0.43 2.58-0.71z"/>
    <path d="m34.59 28.33c0.061 0.12 0.07 0.25 0.03 0.4-0.12 0.43-0.5 0.55-1.13 0.369-3.09-0.84-6.721-1.27-10.91-1.27-4.22 0-7.9 0.43-11.03 1.29-0.63 0.149-1 0.02-1.11-0.39-0.02-0.061-0.02-0.12-0.02-0.181 0-0.33 0.26-0.569 0.8-0.72 3.24-0.93 7-1.39 11.28-1.39 4.22 0 8.01 0.46 11.36 1.39 0.39 0.112 0.63 0.282 0.73 0.502z" fill="#fff"/>
    <path d="m33.7 31.2c0.33 0.27 0.49 0.64 0.49 1.1 0 0.931-0.421 1.4-1.271 1.4l-1.91-1.521 2.691-0.979z" fill="#fff"/>
    <path d="m33.04 8.98c0.479 0.48 0.72 1.05 0.72 1.71 0 0.68-0.24 1.26-0.72 1.74s-1.05 0.72-1.72 0.72c-0.69 0-1.271-0.24-1.74-0.72-0.48-0.48-0.72-1.06-0.72-1.74 0-0.66 0.239-1.23 0.72-1.71 0.47-0.49 1.05-0.73 1.74-0.73 0.67 0 1.24 0.24 1.72 0.73z"/>
    <path d="m33.37 35.3c-0.88 0.28-1.74 0.521-2.58 0.71-1.21-0.21-2.51-0.42-3.92-0.6-1.41-0.19-2.87-0.28-4.37-0.28-1.52 0-2.97 0.09-4.37 0.271-1.39 0.18-2.69 0.38-3.89 0.609-0.84-0.17-1.7-0.41-2.59-0.71 1.52-0.41 3.2-0.78 5.04-1.09 1.83-0.31 3.77-0.47 5.81-0.47s3.98 0.16 5.82 0.47c1.85 0.31 3.53 0.68 5.05 1.09z" fill="#fff"/>
    <path d="m28.37 30.38c1.02 0.2 1.47 0.61 1.35 1.23-0.109 0.649-0.67 0.88-1.68 0.689-1.04-0.189-1.5-0.6-1.38-1.229 0.11-0.63 0.68-0.86 1.71-0.69z" fill="#fff"/>
    <polygon points="24.94 30.93 22.5 32.32 20.06 30.93 22.5 29.51" fill="#fff"/>
    <path d="m24.22 6.45c0.48 0.49 0.721 1.06 0.721 1.72 0 0.68-0.24 1.26-0.721 1.74-0.479 0.48-1.05 0.72-1.72 0.72-0.68 0-1.26-0.24-1.74-0.72s-0.72-1.06-0.72-1.74c0-0.66 0.24-1.23 0.72-1.72 0.48-0.48 1.06-0.73 1.74-0.73 0.67 0 1.24 0.25 1.72 0.73z"/>
    <path d="m18.38 31.07c0.12 0.64-0.33 1.05-1.36 1.21-1.01 0.21-1.57-0.021-1.7-0.67-0.13-0.65 0.32-1.061 1.38-1.23 1.01-0.17 1.57 0.06 1.68 0.69z" fill="#fff"/>
    <path d="m15.28 21.31l1.97 3.98c-0.98 0.09-1.86 0.2-2.63 0.33l0.66-4.31z" fill="#fff"/>
    <path d="m15.4 8.98c0.48 0.48 0.72 1.05 0.72 1.71 0 0.68-0.24 1.26-0.72 1.74-0.47 0.48-1.05 0.72-1.72 0.72-0.68 0-1.26-0.24-1.74-0.72s-0.72-1.06-0.72-1.74c0-0.66 0.24-1.23 0.72-1.71 0.48-0.49 1.06-0.73 1.74-0.73 0.67 0 1.25 0.24 1.72 0.73z"/>
    <path d="m13.99 32.2l-1.91 1.5c-0.85 0-1.27-0.47-1.27-1.4 0-0.45 0.16-0.819 0.49-1.1l2.69 1z" fill="#fff"/>
    <path d="m9.93 22.79l2.64 3.09c-0.78 0.2-1.37 0.351-1.78 0.48l-0.86-3.57z" fill="#fff"/>
    <path d="m7.01 11.49c0.48 0.48 0.72 1.05 0.72 1.72 0 0.68-0.24 1.26-0.72 1.74-0.49 0.48-1.07 0.72-1.74 0.72-0.68 0-1.26-0.24-1.73-0.72s-0.71-1.06-0.71-1.74c0-1.63 0.82-2.44 2.44-2.44 0.67 0 1.25 0.24 1.74 0.72z"/>
</g>
</svg>
