<?xml version="1.0" encoding="UTF-8" standalone="no"?>
<!-- Generator: Adobe Illustrator 15.0.0, SVG Export Plug-In . SVG Version: 6.00 Build 0)  -->
<!DOCTYPE svg  PUBLIC '-//W3C//DTD SVG 1.1//EN'  'http://www.w3.org/Graphics/SVG/1.1/DTD/svg11.dtd'>
<svg id="layer" xmlns="http://www.w3.org/2000/svg" xml:space="preserve" height="45px" viewBox="0 0 45 45" width="45px" version="1.1" y="0px" x="0px" xmlns:xlink="http://www.w3.org/1999/xlink" enable-background="new 0 0 45 45">
<g id="piece">
	<polygon points="31.525 10.814 29.086 12.294 22.785 12.294 16.465 12.294 14.025 10.814" fill="#fff"/>
	<path d="m30.824 29.895c0.711 0 1.07 0.311 1.07 0.938 0 0.642-0.359 0.961-1.07 0.961h-16.099c-0.7 0-1.05-0.319-1.05-0.961 0-0.629 0.35-0.938 1.05-0.938h16.099z" fill="#fff"/>
	<path d="m32.525 35.266h-19.48c0.22-1.24 1.02-1.871 2.42-1.871h14.641c1.378 0 2.189 0.628 2.419 1.871z" fill="#fff"/>
	<polygon points="30.205 21.705 30.455 24.335 27.666 24.335 27.666 21.705"/>
	<polygon points="29.836 17.685 30.086 20.314 23.484 20.314 23.484 17.685"/>
	<rect y="21.705" x="19.275" height="2.628" width="7"/>
	<polygon points="22.085 17.685 22.085 20.314 15.505 20.314 15.775 17.685"/>
	<polygon points="17.905 21.705 17.905 24.335 15.135 24.314 15.385 21.725"/>
	<path d="m29.086 12.294l2.439-1.48h-17.5l2.44 1.48h12.621zm3.869-6.339v5.64l-3.5 2.07 0.24 2.63-2.029-0.02v-2.61h-1.391v2.61h-7v-2.61h-1.37v2.61h-1.99l0.23-2.61-3.49-2.07v-5.64h4.18v2.1h3.51v-2.1h4.879v2.1h3.51v-2.1h4.221z"/>
	<path d="m32.555 29.114c0.49 0.479 0.729 1.051 0.729 1.721h-1.39c0-0.631-0.36-0.938-1.069-0.938h-16.101c-0.7 0-1.05 0.311-1.05 0.938h-1.39c0-0.67 0.24-1.239 0.72-1.721 0.48-0.479 1.05-0.72 1.72-0.72l0.27-2.67h7.09v2.629h1.4v-2.629h7.108l0.229 2.67c0.675 0.001 1.253 0.24 1.734 0.72z"/>
	<path d="m32.525 35.266c-0.23-1.24-1.041-1.871-2.42-1.871h-14.64c-1.4 0-2.2 0.631-2.42 1.871h19.48zm-0.06-2.612c1.02 0.812 1.541 1.841 1.541 3.101v3.841h-22.461v-3.841c0-1.271 0.52-2.301 1.56-3.069-0.55-0.479-0.82-1.101-0.82-1.851h1.39c0 0.642 0.35 0.959 1.05 0.959h16.099c0.711 0 1.07-0.317 1.07-0.959h1.391c0 0.72-0.269 1.33-0.82 1.819z"/>
	<line y1="28.12" x2="14.449" x1="30.548" y2="28.12" fill="none"/>
	<line y1="17.685" x2="15.775" x1="15.777" y2="17.685" fill="none"/>
	<path d="m29.695 16.294l-2.029-0.02v-2.61h-1.391v2.61h-7v-2.61h-1.37v2.61h-1.99l-0.138 1.41h6.308v2.63h-6.564l-0.136 1.41 2.52-0.02v2.63l-2.77-0.021-0.141 1.41h7.09v2.631h1.4v-2.631h7.09l-0.129-1.39h-2.779v-2.63h2.535l-0.129-1.39h-6.588v-2.63h6.344m-3.553 6.65h-7v-2.628h7v2.628z" fill="#fff"/>
	<line y1="20.314" x2="15.521" x1="15.505" y2="20.314" fill="none"/>
</g>
</svg>
