<?xml version="1.0" encoding="UTF-8" standalone="no"?>
<!-- Generator: Adobe Illustrator 15.0.0, SVG Export Plug-In . SVG Version: 6.00 Build 0)  -->
<!DOCTYPE svg  PUBLIC '-//W3C//DTD SVG 1.1//EN'  'http://www.w3.org/Graphics/SVG/1.1/DTD/svg11.dtd'>
<svg id="layer" xmlns="http://www.w3.org/2000/svg" xml:space="preserve" height="45px" viewBox="0 0 45 45" width="45px" version="1.1" y="0px" x="0px" xmlns:xlink="http://www.w3.org/1999/xlink" enable-background="new 0 0 45 45">
<g id="piece">
    <path d="m40.27 29.62c0 0.229-0.029 0.46-0.079 0.67-0.261 1.15-0.771 2.1-1.521 2.83-0.75 0.74-1.61 1.11-2.56 1.11-1.16 0-2.16-0.511-2.98-1.54-0.82-1.02-1.23-2.26-1.23-3.71 0-0.65 0.09-1.271 0.27-1.841l-1.11-0.54 0.261-0.56 0.34-0.71 1.08 0.56c0.8-1.54 1.189-3.14 1.189-4.82 0-3.18-1.3-5.9-3.899-8.17-2.61-2.27-5.74-3.4-9.39-3.4-1.43 0-2.86 0.21-4.28 0.62l0.96 2.11-0.54 0.26-0.71 0.35-1.02-2.25c-0.41 0.16-0.88 0.38-1.4 0.65-0.55 0.3-1.11 0.45-1.7 0.45-0.97 0-1.8-0.33-2.48-1.01-0.691-0.679-1.031-1.499-1.031-2.469 0-0.96 0.34-1.78 1.03-2.47 0.68-0.69 1.51-1.04 2.48-1.04 0.79 0 1.51 0.25 2.15 0.76 0.63-0.41 1.36-0.69 2.18-0.84 1.28-0.21 2.38-0.06 3.3 0.43 0.85-0.45 1.84-0.63 2.97-0.53 1.37 0.13 2.431 0.58 3.181 1.33 0.89-0.19 1.85-0.1 2.89 0.27 1.33 0.5 2.26 1.25 2.79 2.25 1 0.1 1.97 0.6 2.91 1.5 0.88 0.9 1.399 1.87 1.56 2.91 0.99 0.52 1.71 1.43 2.17 2.73 0.48 1.32 0.5 2.52 0.07 3.59 0.41 2.64 0.05 5.23-1.07 7.79 0.22-0.029 0.37-0.04 0.45-0.04 0.77 0 1.42 0.271 1.96 0.811s0.809 1.189 0.809 1.959zm-1.37 0c0-0.93-0.471-1.4-1.4-1.4-0.91 0-1.37 0.471-1.37 1.4s0.46 1.39 1.37 1.39c0.93 0 1.4-0.46 1.4-1.39zm-2.14-10.71c0.41-0.75 0.41-1.73-0.02-2.93-0.26-0.71-0.61-1.28-1.061-1.7-0.46-0.43-0.89-0.57-1.3-0.43 0.25-0.28 0.271-0.71 0.07-1.29-0.21-0.59-0.58-1.16-1.11-1.71-0.55-0.53-1.12-0.9-1.7-1.1-0.59-0.21-1.029-0.19-1.319 0.06 0.109-0.41-0.04-0.84-0.471-1.29-0.42-0.46-1-0.82-1.72-1.09-1.399-0.52-2.39-0.48-3 0.12 0.021-0.38-0.24-0.73-0.76-1.05-0.53-0.33-1.17-0.53-1.92-0.61-1.68-0.14-2.65 0.21-2.91 1.03-0.09-0.39-0.42-0.67-1.01-0.84-0.59-0.18-1.26-0.21-2.01-0.09-0.76 0.13-1.39 0.37-1.88 0.74-0.5 0.37-0.7 0.73-0.62 1.09-0.25-1.15-0.94-1.72-2.07-1.72-1.41 0-2.11 0.7-2.11 2.11s0.7 2.11 2.11 2.11c0.34 0 0.68-0.1 1-0.29-0.8-0.24-1.38-0.66-1.72-1.25-0.15-0.3-0.15-0.48 0-0.53 0.11-0.07 0.25 0.04 0.41 0.33 0.51 0.64 1.46 0.83 2.87 0.57 0.29-0.04 0.52-0.09 0.7-0.14 1.75-0.6 3.56-0.9 5.43-0.9 4.04 0 7.49 1.26 10.37 3.8s4.32 5.59 4.32 9.16c0 2.1-0.561 4.09-1.66 5.96-0.25 0.609-0.37 1.26-0.37 1.95 0 1.069 0.271 1.979 0.83 2.729 0.55 0.75 1.23 1.13 2.021 1.13 0.449 0 0.89-0.149 1.33-0.45-0.75 0-1.4-0.27-1.94-0.8-0.54-0.54-0.81-1.189-0.81-1.97 0-0.12 0.02-0.26 0.06-0.41 0.05-0.33 0.11-0.66 0.19-0.99 0.079-0.35 0.229-0.739 0.43-1.17 1.38-2.609 1.83-5.319 1.35-8.139z"/>
    <path d="m37.5 28.22c0.93 0 1.4 0.471 1.4 1.4s-0.471 1.39-1.4 1.39c-0.91 0-1.37-0.46-1.37-1.39s0.46-1.4 1.37-1.4z" fill="#fff"/>
    <path d="m36.74 15.98c0.43 1.2 0.43 2.18 0.02 2.93 0.48 2.82 0.03 5.53-1.35 8.14-0.2 0.431-0.351 0.82-0.43 1.17-0.08 0.33-0.141 0.66-0.19 0.99-0.04 0.15-0.06 0.29-0.06 0.41 0 0.78 0.27 1.43 0.81 1.97 0.54 0.53 1.19 0.8 1.94 0.8-0.44 0.301-0.881 0.45-1.33 0.45-0.79 0-1.471-0.38-2.021-1.13-0.56-0.75-0.83-1.66-0.83-2.729 0-0.69 0.12-1.341 0.37-1.95 1.1-1.87 1.66-3.86 1.66-5.96 0-3.57-1.44-6.62-4.32-9.16s-6.33-3.8-10.37-3.8c-1.87 0-3.68 0.3-5.43 0.9-0.18 0.05-0.41 0.1-0.7 0.14-1.41 0.26-2.36 0.07-2.87-0.57-0.16-0.29-0.3-0.4-0.41-0.33-0.15 0.05-0.15 0.23 0 0.53 0.34 0.59 0.92 1.01 1.72 1.25-0.32 0.19-0.66 0.29-1 0.29-1.41 0-2.11-0.7-2.11-2.11s0.7-2.11 2.11-2.11c1.13 0 1.82 0.57 2.07 1.72-0.08-0.36 0.12-0.72 0.62-1.09 0.49-0.37 1.12-0.61 1.88-0.74 0.75-0.12 1.42-0.09 2.01 0.09 0.59 0.17 0.92 0.45 1.01 0.84 0.26-0.82 1.23-1.17 2.91-1.03 0.75 0.08 1.39 0.28 1.92 0.61 0.52 0.32 0.78 0.67 0.76 1.05 0.61-0.6 1.601-0.64 3-0.12 0.72 0.27 1.3 0.63 1.72 1.09 0.431 0.45 0.58 0.88 0.471 1.29 0.29-0.25 0.729-0.27 1.319-0.06 0.58 0.2 1.15 0.57 1.7 1.1 0.53 0.55 0.9 1.12 1.11 1.71 0.2 0.58 0.18 1.01-0.07 1.29 0.41-0.14 0.84 0 1.3 0.43 0.451 0.419 0.801 0.989 1.061 1.699z" fill="#fff"/>
    <path d="m30.03 12.9c2.6 2.27 3.899 4.99 3.899 8.17 0 1.68-0.39 3.28-1.189 4.82l-1.08-0.56-0.34 0.71-0.02-0.01c0.23-0.5 0.42-1.021 0.58-1.561 0.86-2.88 0.58-5.58-0.86-8.08-1.449-2.5-3.63-4.09-6.55-4.78-2.67-0.62-5.229-0.32-7.68 0.9l-0.01-0.02 0.54-0.26-0.96-2.11c1.42-0.41 2.85-0.62 4.28-0.62 3.65 0.001 6.78 1.131 9.39 3.401z" fill="#fff"/>
    <path d="m31.02 16.39c1.44 2.5 1.721 5.2 0.86 8.08-0.16 0.54-0.35 1.061-0.58 1.561-0.97 2.13-2.54 3.81-4.71 5.04l-0.2 0.13c-0.76 0.6-1.13 1.26-1.13 1.99 0 1.17 0.9 2.14 2.7 2.909 1.51 0.591 2.58 1.41 3.23 2.48-0.391 0.18-0.82 0.34-1.32 0.49-0.15 0.06-0.28 0.09-0.39 0.1-2.771 0.76-5.101 0.57-6.971-0.57-1.15 0.551-2.28 0.96-3.4 1.23-1.71 0.47-3.36 0.689-4.95 0.68-1.58-0.02-2.98-0.02-4.18-0.02 0.77-1.03 1.83-1.94 3.18-2.73 0.67-0.399 1.39-0.72 2.17-0.979 1.59-0.721 2.38-1.63 2.38-2.75 0-1.04-0.68-1.91-2.05-2.61-0.6-0.31-1.18-0.7-1.74-1.17l-1.54 1.79-7.65-8.9 7.65-8.919 0.84 0.98c0.79-0.9 1.75-1.67 2.87-2.32 0.23-0.13 0.46-0.26 0.7-0.37 2.45-1.22 5.01-1.52 7.68-0.9 2.921 0.688 5.101 2.278 6.551 4.778zm-0.47 7.67c0.75-2.49 0.51-4.819-0.72-6.99-1.271-2.16-3.18-3.54-5.73-4.12-2.55-0.59-4.99-0.22-7.31 1.12-1.03 0.6-1.91 1.34-2.65 2.2l3.47 4.08c0.38-0.19 0.8-0.29 1.25-0.29 0.82 0 1.52 0.3 2.11 0.88 0.59 0.59 0.88 1.3 0.88 2.12s-0.29 1.521-0.88 2.11c-0.59 0.59-1.29 0.88-2.11 0.88-0.41 0-0.79-0.08-1.13-0.25l-2.93 3.41c0.38 0.31 0.88 0.65 1.5 1 1.87 1.03 2.81 2.3 2.81 3.82 0 1.83-1.26 3.229-3.76 4.2-0.52 0.22-1.02 0.46-1.49 0.72-0.22 0.14-0.38 0.24-0.48 0.31 1.6 0.021 3.39-0.229 5.38-0.76 1.34-0.37 2.64-0.86 3.91-1.46 1.25 1.21 3.23 1.51 5.95 0.9-0.34-0.23-0.76-0.431-1.25-0.61-2.32-1.01-3.49-2.39-3.49-4.14 0-1.271 0.7-2.4 2.101-3.37 2.289-1.35 3.819-3.27 4.569-5.76zm-10.13-1c0-1.06-0.52-1.58-1.56-1.58-1.05 0-1.58 0.52-1.58 1.58 0 1.03 0.53 1.551 1.58 1.551 1.04-0.001 1.56-0.521 1.56-1.551zm-3.82-1.95l-4.16-4.88-5.82 6.85 5.8 6.8 4.18-4.88c-0.49-0.57-0.73-1.22-0.73-1.94 0-0.74 0.24-1.39 0.73-1.95z"/>
    <path d="m29.83 17.07c1.229 2.17 1.47 4.5 0.72 6.99s-2.28 4.41-4.569 5.761c-1.4 0.97-2.101 2.1-2.101 3.37 0 1.75 1.17 3.13 3.49 4.14 0.49 0.18 0.91 0.38 1.25 0.61-2.72 0.609-4.7 0.31-5.95-0.9-1.27 0.6-2.57 1.09-3.91 1.46-1.99 0.53-3.78 0.78-5.38 0.76 0.1-0.069 0.26-0.17 0.48-0.31 0.47-0.26 0.97-0.5 1.49-0.72 2.5-0.971 3.76-2.37 3.76-4.2 0-1.521-0.94-2.79-2.81-3.82-0.62-0.35-1.12-0.69-1.5-1l2.93-3.41c0.34 0.17 0.72 0.25 1.13 0.25 0.82 0 1.52-0.29 2.11-0.88s0.88-1.29 0.88-2.11c0-0.819-0.29-1.53-0.88-2.12-0.59-0.58-1.29-0.88-2.11-0.88-0.45 0-0.87 0.1-1.25 0.29l-3.47-4.08c0.74-0.86 1.62-1.6 2.65-2.2 2.32-1.34 4.76-1.71 7.31-1.12 2.55 0.579 4.46 1.959 5.73 4.119z" fill="#fff"/>
    <path d="m18.86 21.48c1.04 0 1.56 0.52 1.56 1.58 0 1.03-0.52 1.551-1.56 1.551-1.05 0-1.58-0.521-1.58-1.551 0-1.06 0.53-1.58 1.58-1.58z" fill="#fff"/>
    <path d="m12.44 16.23l4.16 4.88c-0.49 0.56-0.73 1.21-0.73 1.95 0 0.721 0.24 1.37 0.73 1.94l-4.18 4.88-5.8-6.8 5.82-6.85zm0.08 4.84l-0.88-0.99-2.64 2.96 2.62 2.93 0.9-0.989-1.76-1.94 1.76-1.971z" fill="#fff"/>
    <polygon points="11.64 20.08 12.52 21.07 10.76 23.04 12.52 24.98 11.62 25.97 9 23.04"/>
</g>
</svg>
