<?xml version="1.0" encoding="UTF-8" standalone="no"?>
<!-- Generator: Adobe Illustrator 15.0.0, SVG Export Plug-In . SVG Version: 6.00 Build 0)  -->
<!DOCTYPE svg  PUBLIC '-//W3C//DTD SVG 1.1//EN'  'http://www.w3.org/Graphics/SVG/1.1/DTD/svg11.dtd'>
<svg id="layer" xmlns="http://www.w3.org/2000/svg" xml:space="preserve" height="45px" viewBox="0 0 45 45" width="45px" version="1.1" y="0px" x="0px" xmlns:xlink="http://www.w3.org/1999/xlink" enable-background="new 0 0 45 45">
<g id="piece">
    <path d="m24.22 12.33c0.471 0.48 0.71 1.04 0.71 1.7s-0.239 1.22-0.71 1.69c-0.47 0.47-1.029 0.71-1.69 0.71-0.67 0-1.24-0.24-1.71-0.71-0.48-0.47-0.71-1.03-0.71-1.69s0.23-1.22 0.71-1.7c0.47-0.48 1.04-0.72 1.71-0.72 0.66 0 1.22 0.24 1.69 0.72z" fill="#fff"/>
    <path d="m11.62 18.3c-2.43 1.14-2.78 4.36-1.03 9.63-0.34 0.07-0.67 0.15-1 0.25-0.29-0.31-0.58-0.68-0.86-1.09-1.07-1.51-1.78-3.04-2.13-4.56-0.34-1.52-0.31-2.78 0.12-3.76 0.57-1.36 1.43-2.36 2.56-3.02 1.15-0.65 2.44-0.89 3.87-0.71 1.43 0.17 2.84 0.7 4.23 1.57 1.52 0.99 2.85 2.45 4 4.39 0.38 0.71 0.76 1.49 1.13 2.32 0.35-0.83 0.73-1.61 1.13-2.32 1.13-1.94 2.46-3.4 3.99-4.39 1.4-0.87 2.811-1.4 4.24-1.57 1.43-0.18 2.72 0.06 3.87 0.71 1.12 0.66 1.97 1.66 2.56 3.02 0.41 0.98 0.44 2.24 0.09 3.76s-1.05 3.05-2.1 4.56c-0.3 0.41-0.59 0.78-0.86 1.09-0.18-0.04-0.35-0.08-0.52-0.13-0.18-0.05-0.34-0.09-0.51-0.14 1.739-5.25 1.38-8.45-1.061-9.61-1.49-0.69-3.07-0.34-4.729 1.03-1.66 1.38-3.03 2.92-4.091 4.65-0.21 0.34-0.479 0.869-0.81 1.59-0.34 0.71-0.5 1.08-0.5 1.09h-0.72c-0.12 0-0.24 0.01-0.36 0.01-0.12 0.01-0.23 0.01-0.34 0.01-0.67-1.42-1.11-2.3-1.31-2.64-1.08-1.71-2.46-3.27-4.13-4.67-1.679-1.4-3.249-1.76-4.729-1.07z" fill="#fff"/>
    <path d="m12.01 27.63c-0.7-1.77-0.98-3.31-0.84-4.64 0.13-1.32 0.67-2.19 1.62-2.6 1.11-0.47 2.39-0.08 3.85 1.15 1.47 1.23 2.68 2.96 3.65 5.18-1.27 0.05-2.52 0.13-3.75 0.25 0.1-0.439-0.11-0.85-0.6-1.229-0.5-0.38-0.71-0.811-0.63-1.29 0.03-0.25 0.27-0.23 0.72 0.04s0.74 0.29 0.86 0.06c0.16-0.29 0.19-0.64 0.08-1.06-0.11-0.41-0.31-0.7-0.59-0.87-0.25-0.12-0.48 0.03-0.69 0.439-0.21 0.421-0.43 0.561-0.65 0.421-0.23-0.12-0.21-0.381 0.05-0.771 0.27-0.4 0.3-0.67 0.08-0.8-0.84-0.46-1.49-0.28-1.97 0.53-0.14 0.22 0 0.44 0.43 0.65 0.42 0.22 0.57 0.44 0.45 0.66-0.14 0.23-0.41 0.22-0.81-0.04s-0.67-0.27-0.79-0.04c-0.18 0.29-0.21 0.64-0.09 1.05 0.11 0.42 0.32 0.71 0.6 0.88 0.22 0.131 0.46-0.029 0.72-0.5 0.26-0.46 0.47-0.59 0.64-0.39 0.24 0.32 0.28 0.73 0.12 1.23-0.16 0.489-0.19 0.92-0.06 1.279-0.69 0.091-1.49 0.231-2.4 0.411z" fill="#fff"/>
    <path d="m27.98 23.49c-0.11 0.42-0.08 0.77 0.09 1.06 0.12 0.25 0.41 0.23 0.859-0.04 0.45-0.27 0.69-0.29 0.74-0.04 0.061 0.46-0.15 0.891-0.64 1.271s-0.681 0.79-0.57 1.229c-1.06-0.09-2.31-0.18-3.76-0.27 0.96-2.25 2.17-4 3.63-5.24 1.46-1.23 2.76-1.62 3.88-1.15 0.94 0.41 1.48 1.28 1.61 2.61s-0.15 2.89-0.83 4.67c-0.4-0.05-0.8-0.1-1.2-0.17-0.41-0.07-0.81-0.13-1.22-0.18 0.12-0.37 0.1-0.8-0.07-1.29-0.17-0.5-0.13-0.9 0.13-1.21 0.16-0.21 0.37-0.09 0.61 0.359 0.25 0.46 0.5 0.62 0.74 0.5 0.279-0.17 0.47-0.46 0.59-0.88 0.109-0.41 0.09-0.76-0.07-1.05-0.16-0.22-0.43-0.2-0.82 0.061-0.399 0.26-0.659 0.27-0.779 0.04-0.141-0.22 0-0.439 0.42-0.649 0.41-0.22 0.56-0.45 0.439-0.68-0.18-0.29-0.479-0.49-0.89-0.6-0.42-0.11-0.771-0.08-1.061 0.09-0.229 0.12-0.22 0.38 0.051 0.79 0.27 0.4 0.29 0.66 0.069 0.78-0.239 0.14-0.47 0-0.68-0.43-0.22-0.42-0.44-0.57-0.67-0.45-0.288 0.169-0.488 0.459-0.598 0.869z" fill="#fff"/>
    <path d="m34.48 36.77c-3.58-0.86-7.58-1.29-11.99-1.29-4.39 0-8.38 0.43-11.98 1.289-0.14-0.22-0.2-0.449-0.2-0.71 0-0.319 0.11-0.63 0.34-0.949 0.09-0.08 0.12-0.15 0.11-0.221-0.03-0.109-0.14-0.18-0.33-0.21-0.58-0.199-0.86-0.63-0.86-1.29 0-0.449 0.17-0.83 0.51-1.13-0.87-0.01-1.31-0.479-1.31-1.39 0-0.67 0.31-1.12 0.94-1.34 3.54-0.98 7.84-1.471 12.88-1.471 4.98 0 9.21 0.48 12.7 1.45 0.61 0.221 0.92 0.67 0.92 1.36 0 0.91-0.44 1.38-1.32 1.39 0.351 0.3 0.521 0.67 0.521 1.11 0 0.68-0.311 1.13-0.93 1.33-0.16 0.03-0.25 0.09-0.261 0.189-0.029 0.051 0 0.12 0.08 0.2 0.25 0.3 0.37 0.62 0.37 0.97 0 0.233-0.06 0.473-0.19 0.713z" fill="#fff"/>
    <path d="m22.49 36.88c3.77 0 7.22 0.28 10.33 0.84-3.11 0.78-6.561 1.17-10.33 1.17-3.78 0-7.23-0.39-10.36-1.17 3.08-0.56 6.53-0.84 10.36-0.84z" fill="#fff"/>
    <path d="m23.1 6.52l1.91-0.61v2.5l-1.91-0.63 0.45 2.48c-0.35-0.11-0.7-0.17-1.04-0.17-0.33 0-0.7 0.06-1.11 0.19l0.45-2.5-1.89 0.63v-2.5l1.89 0.61-0.65-1.86h2.52l-0.62 1.86z"/>
    <path d="m22.53 17.87c-1.07 0-1.98-0.38-2.73-1.12-0.75-0.75-1.13-1.65-1.13-2.72 0-1.05 0.38-1.96 1.13-2.72s1.66-1.14 2.73-1.14c1.05 0 1.951 0.38 2.71 1.14 0.75 0.76 1.12 1.67 1.12 2.72 0 1.07-0.37 1.97-1.12 2.72-0.76 0.74-1.66 1.12-2.71 1.12zm0-6.26c-0.67 0-1.24 0.24-1.71 0.72-0.48 0.48-0.71 1.04-0.71 1.7s0.23 1.22 0.71 1.69c0.47 0.47 1.04 0.71 1.71 0.71 0.661 0 1.22-0.24 1.69-0.71 0.471-0.47 0.71-1.03 0.71-1.69s-0.239-1.22-0.71-1.7c-0.47-0.48-1.03-0.72-1.69-0.72z"/>
    <path d="m28.07 24.55c-0.17-0.29-0.2-0.64-0.09-1.06 0.109-0.41 0.31-0.7 0.6-0.87 0.229-0.12 0.45 0.03 0.67 0.45 0.21 0.43 0.44 0.569 0.68 0.43 0.221-0.12 0.2-0.38-0.069-0.78-0.271-0.41-0.28-0.67-0.051-0.79 0.29-0.17 0.641-0.2 1.061-0.09 0.41 0.11 0.71 0.31 0.89 0.6 0.12 0.23-0.029 0.46-0.439 0.68-0.42 0.21-0.561 0.43-0.42 0.649 0.118 0.231 0.378 0.221 0.778-0.039 0.391-0.261 0.66-0.28 0.82-0.061 0.16 0.29 0.18 0.64 0.07 1.05-0.12 0.42-0.311 0.71-0.59 0.88-0.24 0.12-0.49-0.04-0.74-0.5-0.24-0.449-0.45-0.569-0.61-0.359-0.26 0.31-0.3 0.71-0.13 1.21 0.17 0.49 0.19 0.92 0.07 1.29 0.41 0.05 0.81 0.109 1.22 0.18 0.4 0.07 0.8 0.12 1.2 0.17 0.68-1.78 0.96-3.34 0.83-4.67s-0.67-2.2-1.61-2.61c-1.12-0.47-2.42-0.08-3.88 1.15-1.46 1.24-2.67 2.99-3.63 5.24 1.45 0.09 2.7 0.18 3.76 0.27-0.11-0.439 0.08-0.85 0.57-1.229 0.489-0.38 0.7-0.811 0.64-1.271-0.05-0.25-0.29-0.229-0.74 0.04-0.45 0.27-0.74 0.29-0.86 0.04zm4.75 13.17c-3.11-0.56-6.561-0.84-10.33-0.84-3.83 0-7.28 0.28-10.36 0.84 3.13 0.78 6.58 1.17 10.36 1.17 3.77 0 7.22-0.39 10.33-1.17zm-24.24-23.16c1.4-0.8 2.96-1.1 4.68-0.89s3.4 0.85 5.04 1.92c0.51 0.35 1.01 0.74 1.48 1.18 0.99 0.92 1.9 2.04 2.73 3.35 0.82-1.33 1.73-2.45 2.74-3.36 0.47-0.44 0.95-0.83 1.46-1.17 1.64-1.07 3.32-1.71 5.04-1.92 1.71-0.21 3.27 0.09 4.68 0.89 1.44 0.82 2.511 2.1 3.2 3.84 0.44 1.23 0.47 2.71 0.08 4.43-0.38 1.72-1.14 3.41-2.29 5.06-0.26 0.37-0.51 0.69-0.74 0.971 0.561 0.56 0.84 1.229 0.84 2.01 0 0.83-0.289 1.51-0.859 2.03 0.04 0.159 0.06 0.319 0.06 0.47 0 0.81-0.27 1.49-0.819 2.05 0.05 0.19 0.08 0.4 0.08 0.64 0 1.46-0.681 2.37-2.03 2.721-3.36 1.04-7.181 1.56-11.46 1.56-4.3 0-8.12-0.52-11.47-1.56-1.352-0.352-2.032-1.262-2.032-2.722 0-0.22 0.03-0.439 0.09-0.64-0.55-0.56-0.82-1.24-0.82-2.03 0-0.159 0.02-0.33 0.06-0.489-0.58-0.521-0.86-1.2-0.86-2.03 0-0.82 0.28-1.5 0.86-2.03-0.25-0.26-0.49-0.58-0.72-0.95-1.16-1.649-1.94-3.34-2.32-5.06s-0.35-3.2 0.1-4.43c0.69-1.741 1.75-3.021 3.2-3.841zm2.01 13.37c-1.75-5.27-1.4-8.49 1.03-9.63 1.48-0.69 3.05-0.33 4.73 1.07 1.67 1.4 3.05 2.96 4.13 4.67 0.2 0.34 0.64 1.22 1.31 2.64 0.11 0 0.22 0 0.34-0.01 0.12 0 0.24-0.01 0.36-0.01h0.72c0-0.01 0.16-0.38 0.5-1.09 0.33-0.721 0.6-1.25 0.81-1.59 1.061-1.73 2.431-3.271 4.091-4.65 1.659-1.37 3.239-1.72 4.729-1.03 2.44 1.16 2.8 4.36 1.061 9.61 0.17 0.05 0.33 0.09 0.51 0.14 0.17 0.05 0.34 0.09 0.52 0.13 0.271-0.31 0.561-0.68 0.86-1.09 1.05-1.51 1.75-3.04 2.1-4.56 0.351-1.52 0.32-2.78-0.09-3.76-0.59-1.36-1.439-2.36-2.56-3.02-1.15-0.65-2.44-0.89-3.87-0.71-1.43 0.17-2.84 0.7-4.24 1.57-1.53 0.99-2.86 2.45-3.99 4.39-0.399 0.71-0.78 1.49-1.13 2.32-0.37-0.83-0.75-1.61-1.13-2.32-1.15-1.94-2.48-3.4-4-4.39-1.39-0.87-2.8-1.4-4.23-1.57-1.43-0.18-2.72 0.06-3.87 0.71-1.13 0.66-1.99 1.66-2.56 3.02-0.43 0.98-0.46 2.24-0.12 3.76 0.35 1.52 1.06 3.05 2.13 4.56 0.28 0.41 0.57 0.78 0.86 1.09 0.329-0.1 0.659-0.18 0.999-0.25zm0.17 6.96c0.01 0.07-0.02 0.141-0.11 0.221-0.23 0.319-0.34 0.63-0.34 0.949 0 0.261 0.06 0.49 0.2 0.71 3.6-0.859 7.59-1.289 11.98-1.289 4.41 0 8.41 0.43 11.99 1.289 0.13-0.239 0.189-0.479 0.189-0.71 0-0.35-0.12-0.67-0.37-0.97-0.08-0.08-0.109-0.149-0.08-0.2 0.011-0.1 0.101-0.159 0.261-0.189 0.619-0.2 0.93-0.65 0.93-1.33 0-0.44-0.17-0.811-0.521-1.11 0.88-0.01 1.32-0.479 1.32-1.39 0-0.69-0.31-1.14-0.92-1.36-3.49-0.97-7.72-1.45-12.7-1.45-5.04 0-9.34 0.49-12.88 1.471-0.63 0.22-0.94 0.67-0.94 1.34 0 0.91 0.44 1.38 1.31 1.39-0.34 0.3-0.51 0.681-0.51 1.13 0 0.66 0.28 1.091 0.86 1.29 0.191 0.028 0.301 0.098 0.331 0.208zm0.41-11.9c-0.14 1.33 0.14 2.87 0.84 4.64 0.91-0.18 1.71-0.32 2.4-0.41-0.13-0.359-0.1-0.79 0.06-1.279 0.16-0.5 0.12-0.91-0.12-1.23-0.17-0.2-0.38-0.07-0.64 0.39-0.26 0.471-0.5 0.631-0.72 0.5-0.28-0.17-0.49-0.46-0.6-0.88-0.12-0.41-0.09-0.76 0.09-1.05 0.12-0.229 0.39-0.22 0.79 0.04s0.67 0.271 0.81 0.04c0.12-0.22-0.03-0.44-0.45-0.66-0.43-0.21-0.57-0.43-0.43-0.65 0.48-0.81 1.13-0.99 1.97-0.53 0.22 0.13 0.19 0.4-0.08 0.8-0.26 0.39-0.28 0.65-0.05 0.771 0.22 0.14 0.44 0 0.65-0.421 0.21-0.41 0.44-0.56 0.69-0.439 0.28 0.17 0.48 0.46 0.59 0.87 0.11 0.42 0.08 0.77-0.08 1.06-0.12 0.23-0.41 0.21-0.86-0.06-0.45-0.271-0.69-0.29-0.72-0.04-0.08 0.479 0.13 0.91 0.63 1.29 0.49 0.38 0.7 0.79 0.6 1.229 1.23-0.12 2.48-0.2 3.75-0.25-0.97-2.22-2.18-3.95-3.65-5.18-1.46-1.23-2.74-1.62-3.85-1.15-0.95 0.409-1.49 1.279-1.62 2.599z"/>
</g>
</svg>
