<?xml version="1.0" encoding="UTF-8" standalone="no"?>
<!-- Generator: Adobe Illustrator 15.0.0, SVG Export Plug-In . SVG Version: 6.00 Build 0)  -->
<!DOCTYPE svg  PUBLIC '-//W3C//DTD SVG 1.1//EN'  'http://www.w3.org/Graphics/SVG/1.1/DTD/svg11.dtd'>
<svg id="layer" xmlns="http://www.w3.org/2000/svg" xml:space="preserve" height="45px" viewBox="0 0 45 45" width="45px" version="1.1" y="0px" x="0px" xmlns:xlink="http://www.w3.org/1999/xlink" enable-background="new 0 0 45 45">
<g id="piece">
    <path d="m16.53 15.07c-0.05-0.67-0.67-0.79-1.84-0.35-1.21 0.45-1.79 1.02-1.77 1.7 0.02 0.27 0.18 0.45 0.5 0.53 0.05-0.22 0.22-0.43 0.51-0.65 0.2 0.33 0.48 0.49 0.84 0.49 0.64 0 0.96-0.31 0.96-0.94 0-0.14-0.04-0.28-0.12-0.43 0.31-0.06 0.6-0.06 0.86 0 0.04-0.13 0.06-0.24 0.06-0.35zm-9.25 8.81c0.69 0 1.03-0.21 1.03-0.649 0-0.44-0.34-0.661-1.03-0.661-0.67 0-1 0.22-1 0.661 0 0.439 0.33 0.649 1 0.649zm4.66 2.57c-1.48 1.34-2.65 1.72-3.53 1.149-0.12-0.069-0.18-0.199-0.18-0.389 0.68-0.28 1.73-0.89 3.13-1.85 0.56-0.341 0.74-0.71 0.54-1.11-0.26-0.39-0.67-0.42-1.23-0.08-1.48 1.07-2.52 1.66-3.12 1.771-0.6 0.1-1.27-0.15-2.01-0.761-0.52-0.859-0.64-1.55-0.36-2.06 0.28-0.52 1.13-1.42 2.55-2.7 0.17-0.15 0.54-0.43 1.11-0.84 0.55-0.4 1-0.77 1.35-1.13 0.7-0.7 1.26-1.5 1.67-2.4 0.64-1.43 1.8-2.64 3.48-3.63 0.73-0.4 1.47-0.7 2.24-0.92-0.03 1.32 0.37 2.32 1.19 2.99 0.23 0.22 0.5 0.38 0.8 0.47 0.31 0 0.61-0.05 0.9-0.16 1.22-0.42 1.99-1.48 2.32-3.18 2.49 0.96 4.81 2.6 6.96 4.91 2.15 2.32 3.82 5.11 5.01 8.38 1.36 3.72 1.84 7.38 1.46 10.99-0.939-0.19-1.91-0.33-2.91-0.431-3.229-0.26-6.319 0-9.27 0.78-2.9 1.19-6.05 1.77-9.44 1.74 1.86-2.84 4.13-5.061 6.79-6.66 1.15-0.99 1.879-2.37 2.2-4.14 0.26-1.53 0.11-2.921-0.43-4.171 0.94-0.868 1.55-1.878 1.84-3.028 0.07-0.64-0.1-1.01-0.51-1.09-0.471-0.07-0.75 0.22-0.86 0.86-0.47 1.52-1.55 2.68-3.26 3.49-1.47 0.68-2.85 0.83-4.15 0.45-0.71 1.03-1.77 1.83-3.2 2.399-0.49 0.161-0.85 0.281-1.08 0.351z" fill="#fff"/>
    <path d="m16.92 9.12c0.34 0.29 0.64 0.59 0.88 0.9-0.68 0.19-1.19 0.36-1.53 0.49 0-0.32 0.03-0.71 0.1-1.14 0.01-0.21 0.05-0.39 0.12-0.56 0.17 0.11 0.31 0.21 0.43 0.31z" fill="#fff"/>
    <path d="m19.03 11.18c0.15-1.03 0.64-2.03 1.46-3 0.18-0.22 0.31-0.36 0.39-0.41 0.05 0.11 0.12 0.27 0.21 0.49 0.42 1.19 0.52 2.28 0.31 3.29-0.21 1-0.66 1.65-1.36 1.94-0.08 0.04-0.16 0.06-0.23 0.06-0.04-0.03-0.08-0.06-0.12-0.1-0.59-0.48-0.81-1.24-0.66-2.27z" fill="#fff"/>
    <path d="m26.11 9.35c0.83 0.23 1.239 0.49 1.229 0.77-0.05 0.48-1.04 0.73-2.95 0.74-0.54-0.23-1.04-0.43-1.52-0.59 0-0.38-0.05-0.76-0.14-1.13 1.421-0.1 2.551-0.03 3.381 0.21z" fill="#fff"/>
    <path d="m28.63 10.62c1.86 1.06 2.7 1.83 2.5 2.29-0.12 0.28-0.63 0.32-1.53 0.13-0.909-0.19-1.93-0.56-3.08-1.11 1.11-0.29 1.81-0.73 2.11-1.31z" fill="#fff"/>
    <path d="m31.89 16.93c-0.72-0.89-1.55-1.77-2.479-2.64 1.05 0.13 1.87 0.05 2.439-0.25 0.511 0.38 1.03 0.84 1.561 1.38 0.89 0.9 1.57 1.74 2.05 2.51s0.62 1.26 0.41 1.46c-0.2 0.21-0.7 0.07-1.48-0.41-0.771-0.47-1.611-1.16-2.501-2.05z" fill="#fff"/>
    <path d="m38.69 25.77c0.189 0.891 0.149 1.4-0.11 1.521-0.25 0.12-0.62-0.11-1.11-0.7-0.49-0.591-0.98-1.371-1.48-2.361-0.54-1.4-1.17-2.74-1.88-4.021 1.01 0.51 1.81 0.65 2.399 0.41 0.391 0.67 0.76 1.37 1.11 2.1 0.531 1.141 0.891 2.161 1.071 3.051z" fill="#fff"/>
    <path d="m37.1 27.9c0.521 0.439 1.011 0.689 1.46 0.76 0.381-0.01 0.74 0.649 1.061 1.97-0.05 0.99-0.17 1.8-0.351 2.43-0.189 0.641-0.399 0.96-0.649 0.96-0.45 0-0.78-0.899-0.99-2.689-0.091-1.071-0.271-2.211-0.531-3.431z" fill="#fff"/>
    <path d="m38.62 35.41c0.56 0 1.06-0.42 1.5-1.271 0.01 1.15-0.061 2.061-0.21 2.75-0.74-0.26-1.51-0.489-2.32-0.68 0.04-0.51 0.08-0.91 0.11-1.21 0.31 0.271 0.62 0.411 0.92 0.411z" fill="#fff"/>
    <path d="m16.47 15.42c-0.26-0.06-0.55-0.06-0.86 0 0.08 0.15 0.12 0.29 0.12 0.43 0 0.63-0.32 0.94-0.96 0.94-0.36 0-0.64-0.16-0.84-0.49-0.29 0.22-0.46 0.43-0.51 0.65-0.32-0.08-0.48-0.26-0.5-0.53-0.02-0.68 0.56-1.25 1.77-1.7 1.17-0.44 1.79-0.32 1.84 0.35 0 0.11-0.02 0.22-0.06 0.35z"/>
    <path d="m8.31 23.23c0 0.439-0.34 0.649-1.03 0.649-0.67 0-1-0.21-1-0.649 0-0.44 0.33-0.661 1-0.661 0.69 0.001 1.03 0.221 1.03 0.661z"/>
    <path d="m39.62 30.63c-0.32-1.32-0.68-1.979-1.061-1.97-0.449-0.07-0.939-0.32-1.46-0.76 0.261 1.22 0.44 2.359 0.53 3.43 0.21 1.79 0.54 2.689 0.99 2.689 0.25 0 0.46-0.319 0.649-0.96 0.182-0.629 0.302-1.439 0.352-2.429zm-1.04-3.34c0.26-0.12 0.3-0.63 0.11-1.521-0.181-0.89-0.54-1.909-1.07-3.049-0.351-0.73-0.72-1.43-1.11-2.1-0.59 0.24-1.39 0.1-2.399-0.41 0.71 1.28 1.34 2.62 1.88 4.021 0.5 0.989 0.99 1.77 1.479 2.359 0.49 0.59 0.86 0.82 1.11 0.7zm1.54 6.85c-0.44 0.851-0.94 1.271-1.5 1.271-0.3 0-0.61-0.141-0.92-0.41-0.03 0.3-0.07 0.7-0.11 1.21 0.811 0.19 1.58 0.42 2.32 0.68 0.15-0.691 0.22-1.601 0.21-2.751zm-15.73-23.28c1.91-0.01 2.9-0.26 2.95-0.74 0.01-0.28-0.399-0.54-1.229-0.77-0.83-0.24-1.96-0.31-3.38-0.21 0.09 0.37 0.14 0.75 0.14 1.13 0.479 0.16 0.979 0.36 1.519 0.59zm5.02 3.43c0.93 0.87 1.76 1.75 2.479 2.64 0.891 0.89 1.73 1.58 2.5 2.05 0.78 0.48 1.28 0.62 1.48 0.41 0.21-0.2 0.07-0.69-0.41-1.46-0.479-0.77-1.16-1.61-2.05-2.51-0.53-0.54-1.05-1-1.561-1.38-0.568 0.3-1.388 0.38-2.438 0.25zm0.19-1.25c0.9 0.19 1.41 0.15 1.53-0.13 0.2-0.46-0.64-1.23-2.5-2.29-0.3 0.58-1 1.02-2.11 1.31 1.15 0.55 2.17 0.92 3.08 1.11zm-13.33-2.53c0.34-0.13 0.85-0.3 1.53-0.49-0.24-0.31-0.54-0.61-0.88-0.9-0.12-0.1-0.26-0.2-0.43-0.31-0.07 0.17-0.11 0.35-0.12 0.56-0.07 0.43-0.1 0.82-0.1 1.14zm4.22-2.33c-0.82 0.97-1.31 1.97-1.46 3s0.07 1.79 0.66 2.27c0.04 0.04 0.08 0.07 0.12 0.1 0.07 0 0.15-0.02 0.23-0.06 0.7-0.29 1.15-0.94 1.36-1.94 0.21-1.01 0.11-2.1-0.31-3.29-0.09-0.22-0.16-0.38-0.21-0.49-0.08 0.05-0.21 0.19-0.39 0.41zm-12.08 19.42c0.88 0.57 2.05 0.19 3.53-1.149 0.23-0.07 0.59-0.19 1.08-0.351 1.43-0.569 2.49-1.369 3.2-2.399 1.3 0.38 2.68 0.229 4.15-0.45 1.71-0.81 2.79-1.97 3.26-3.49 0.11-0.64 0.39-0.93 0.86-0.86 0.41 0.08 0.58 0.45 0.51 1.09-0.29 1.15-0.9 2.16-1.84 3.029 0.54 1.25 0.689 2.641 0.43 4.171-0.32 1.77-1.05 3.149-2.2 4.14-2.66 1.6-4.93 3.82-6.79 6.66 3.39 0.029 6.54-0.55 9.44-1.74 2.95-0.78 6.04-1.04 9.27-0.78 1 0.101 1.971 0.24 2.91 0.431 0.38-3.61-0.1-7.271-1.46-10.99-1.189-3.27-2.859-6.06-5.01-8.38-2.15-2.31-4.47-3.95-6.96-4.91-0.33 1.7-1.1 2.76-2.32 3.18-0.29 0.11-0.59 0.16-0.9 0.16-0.3-0.09-0.57-0.25-0.8-0.47-0.82-0.67-1.22-1.67-1.19-2.99-0.77 0.22-1.51 0.52-2.24 0.92-1.68 0.99-2.84 2.2-3.48 3.63-0.41 0.9-0.97 1.7-1.67 2.4-0.35 0.36-0.8 0.73-1.35 1.13-0.57 0.41-0.94 0.69-1.11 0.84-1.42 1.28-2.27 2.18-2.55 2.7-0.28 0.51-0.16 1.2 0.36 2.06 0.74 0.61 1.41 0.86 2.01 0.761 0.6-0.11 1.64-0.7 3.12-1.771 0.56-0.34 0.97-0.31 1.23 0.08 0.2 0.4 0.02 0.77-0.54 1.11-1.4 0.96-2.45 1.569-3.13 1.85 0 0.188 0.06 0.318 0.18 0.388zm2.19-12.02c0.72-1.74 2.06-3.17 4.02-4.31 0.09-0.05 0.15-0.09 0.19-0.1-0.06-0.72-0.02-1.41 0.1-2.05 0.14-0.89 0.4-1.67 0.8-2.34 0.77 0.32 1.47 0.74 2.11 1.27 0.21 0.17 0.41 0.35 0.6 0.54 0.31-0.54 0.63-0.99 0.94-1.36 0.56-0.67 1.18-1.21 1.85-1.62 0.5 0.67 0.91 1.4 1.21 2.18 0 0.04 0.01 0.09 0.04 0.14 0.07 0 0.14 0 0.2-0.01 0.07-0.01 0.15-0.01 0.23-0.01 0.87-0.04 1.73-0.01 2.56 0.1 0.84 0.11 1.52 0.32 2.05 0.62 0.09 0.04 0.17 0.06 0.24 0.07 0.08 0.01 0.17 0.03 0.3 0.07 1.27 0.52 2.3 1.18 3.1 1.98 0.801 0.8 1.24 1.5 1.33 2.1 0.58 0.38 1.23 0.91 1.92 1.58 1.891 1.93 2.83 3.6 2.82 5.01 0.58 0.69 1.14 1.59 1.68 2.68 1.17 2.59 1.46 4.53 0.86 5.83 0.93 1.12 1.49 2.8 1.68 5.04 0.051 0.819 0.051 1.6 0 2.34-0.029 1.21-0.109 2.4-0.25 3.55-2.439-1.08-5.109-1.75-7.989-2.01-3.011-0.26-5.91-0.03-8.7 0.689-3.53 1.4-7.25 1.99-11.18 1.79-0.49-0.029-0.85-0.06-1.06-0.08 2.16-4 4.96-7.02 8.4-9.069 0.78-0.75 1.3-1.84 1.56-3.26 0.18-1.08 0.13-2.091-0.14-3.03-0.45 0.28-0.81 0.479-1.07 0.59-1.41 0.64-2.81 0.88-4.2 0.7-0.89 0.95-1.96 1.68-3.22 2.17-0.06 0.03-0.32 0.12-0.78 0.27-0.9 0.75-1.82 1.24-2.76 1.45-0.94 0.22-1.73 0.101-2.39-0.37-0.42-0.279-0.68-0.71-0.78-1.27-0.69-0.021-1.49-0.46-2.38-1.311-0.91-1.26-1.18-2.319-0.79-3.2 0.39-0.87 1.43-2.05 3.11-3.53 0.33-0.28 0.73-0.58 1.21-0.88 0.37-0.2 0.77-0.52 1.21-0.96 0.589-0.589 1.049-1.249 1.369-1.989z"/>
</g>
</svg>
