<?xml version="1.0" encoding="UTF-8" standalone="no"?>
<!-- Generator: Adobe Illustrator 15.0.0, SVG Export Plug-In . SVG Version: 6.00 Build 0)  -->
<!DOCTYPE svg  PUBLIC '-//W3C//DTD SVG 1.1//EN'  'http://www.w3.org/Graphics/SVG/1.1/DTD/svg11.dtd'>
<svg id="layer" xmlns="http://www.w3.org/2000/svg" xml:space="preserve" height="45px" viewBox="0 0 45 45" width="45px" version="1.1" y="0px" x="0px" xmlns:xlink="http://www.w3.org/1999/xlink" enable-background="new 0 0 45 45">
<g id="piece">
    <path d="m22.5 7.78c1.16 0 1.74 0.58 1.74 1.74 0 1.17-0.58 1.76-1.74 1.76-1.18 0-1.76-0.59-1.76-1.76 0-1.16 0.58-1.74 1.76-1.74z" fill="#fff"/>
    <path d="m23.61 12.47c0.67 1.18 1.59 2.07 2.77 2.69 0.72 0.41 1.36 0.87 1.92 1.39h-11.6c0.54-0.52 1.19-0.98 1.92-1.39 1.19-0.63 2.12-1.53 2.77-2.69 0.34 0.12 0.71 0.19 1.11 0.19 0.31 0 0.68-0.07 1.11-0.19z" fill="#fff"/>
    <path d="m25.95 23.03c1.43 1.14 2.149 2.609 2.149 4.41 0 1.55-0.55 2.869-1.649 3.96-1.101 1.09-2.42 1.64-3.95 1.64-1.56 0-2.88-0.55-3.98-1.64-1.09-1.091-1.64-2.41-1.64-3.96 0-1.801 0.72-3.271 2.15-4.41 1.49-1.36 2.24-3.05 2.24-5.06h2.44c0 2.01 0.75 3.7 2.24 5.06z" fill="#fff"/>
    <path d="m28.71 37.2h-12.44c1.65-1.86 3.73-2.78 6.23-2.78s4.57 0.92 6.21 2.78z" fill="#fff"/>
    <path d="m24.24 9.52c0-1.16-0.58-1.74-1.74-1.74-1.18 0-1.76 0.58-1.76 1.74 0 1.17 0.58 1.76 1.76 1.76 1.16 0 1.74-0.59 1.74-1.76zm4.47 27.68c-1.64-1.86-3.71-2.78-6.21-2.78s-4.58 0.92-6.23 2.78h12.44zm-0.41-20.65c-0.56-0.52-1.2-0.98-1.92-1.39-1.18-0.62-2.1-1.51-2.77-2.69-0.431 0.12-0.8 0.19-1.11 0.19-0.4 0-0.77-0.07-1.11-0.19-0.65 1.16-1.58 2.06-2.77 2.69-0.73 0.41-1.38 0.87-1.92 1.39h11.6zm-0.2 10.89c0-1.801-0.72-3.271-2.149-4.41-1.49-1.36-2.24-3.05-2.24-5.06h-2.44c0 2.01-0.75 3.7-2.24 5.06-1.43 1.14-2.15 2.609-2.15 4.41 0 1.55 0.55 2.869 1.64 3.96 1.1 1.09 2.42 1.64 3.98 1.64 1.53 0 2.85-0.55 3.95-1.64 1.099-1.09 1.649-2.41 1.649-3.96zm2.09-10.93v1.46h-5.06c-0.03 1.57 0.561 2.92 1.76 4.04 1.73 1.38 2.601 3.19 2.601 5.431 0 1.329-0.34 2.54-1.04 3.63-0.7 1.1-1.59 1.939-2.67 2.55 1.96 0.729 3.52 1.93 4.7 3.58v1.399h-15.961v-1.4c1.19-1.69 2.76-2.891 4.72-3.58-1.12-0.58-2.03-1.42-2.72-2.521-0.69-1.1-1.03-2.319-1.03-3.659 0-2.24 0.88-4.061 2.64-5.47 1.16-1.1 1.75-2.43 1.75-4h-5.07v-1.42c0.89-1.09 1.95-1.96 3.18-2.6 0.93-0.51 1.67-1.25 2.23-2.24-0.57-0.61-0.86-1.34-0.86-2.19 0-0.86 0.31-1.6 0.92-2.21 0.6-0.6 1.34-0.91 2.22-0.91 0.86 0 1.6 0.31 2.21 0.91 0.6 0.61 0.91 1.35 0.91 2.21 0 0.82-0.28 1.55-0.84 2.19 0.52 0.97 1.27 1.72 2.25 2.24 1.26 0.67 2.31 1.52 3.16 2.56z"/>
</g>
</svg>
