<?xml version="1.0" encoding="UTF-8" standalone="no"?>
<!-- Generator: Adobe Illustrator 15.0.0, SVG Export Plug-In . SVG Version: 6.00 Build 0)  -->
<!DOCTYPE svg  PUBLIC '-//W3C//DTD SVG 1.1//EN'  'http://www.w3.org/Graphics/SVG/1.1/DTD/svg11.dtd'>
<svg id="layer" xmlns="http://www.w3.org/2000/svg" xml:space="preserve" height="45px" viewBox="0 0 45 45" width="45px" version="1.1" y="0px" x="0px" xmlns:xlink="http://www.w3.org/1999/xlink" enable-background="new 0 0 45 45">
<g id="piece">
    <path d="m39.71 12.14c0.71 0 1.06 0.36 1.06 1.07s-0.35 1.07-1.06 1.07c-0.7 0-1.05-0.36-1.05-1.07s0.35-1.07 1.05-1.07z" fill="#fff"/>
    <path d="m32.38 10.69c0 0.71-0.35 1.06-1.06 1.06s-1.07-0.35-1.07-1.06 0.36-1.07 1.07-1.07 1.06 0.36 1.06 1.07z" fill="#fff"/>
    <path d="m22.5 7.12c0.71 0 1.07 0.35 1.07 1.05 0 0.71-0.36 1.06-1.07 1.06s-1.07-0.35-1.07-1.06c0-0.7 0.36-1.05 1.07-1.05z" fill="#fff"/>
    <path d="m14.75 10.69c0 0.71-0.36 1.06-1.07 1.06s-1.06-0.35-1.06-1.06 0.35-1.07 1.06-1.07 1.07 0.36 1.07 1.07z" fill="#fff"/>
    <path d="m5.27 12.14c0.71 0 1.07 0.36 1.07 1.07s-0.36 1.07-1.07 1.07-1.06-0.36-1.06-1.07 0.35-1.07 1.06-1.07z" fill="#fff"/>
    <path d="m12.74 24.26c0.79 0 1.26-0.39 1.41-1.189l0.7-4.82 2.32 4.93c0.29 0.34 0.65 0.511 1.11 0.511 0.49 0 0.88-0.21 1.18-0.62l3.04-8.32 3.04 8.34c0.3 0.4 0.69 0.601 1.16 0.601s0.84-0.19 1.13-0.551l2.3-4.89 0.72 4.84c0.11 0.8 0.57 1.19 1.391 1.19 0.37 0 0.729-0.15 1.069-0.471l3.011-3.55-1.66 6.98c-3.441-1.101-7.501-1.641-12.161-1.641s-8.72 0.54-12.16 1.641l-1.68-6.98 3.05 3.57c0.3 0.289 0.65 0.429 1.03 0.429z" fill="#fff"/>
    <path d="m34.19 32.3c0 0.931-0.4 1.4-1.19 1.4-0.07 0-0.16-0.021-0.27-0.04 0.52 0.26 0.779 0.7 0.779 1.33 0 0.26-0.05 0.5-0.16 0.72-1.51-0.4-3.18-0.75-5.029-1.07-1.84-0.31-3.78-0.47-5.82-0.47s-3.98 0.15-5.81 0.46c-1.84 0.311-3.52 0.67-5.04 1.08-0.11-0.22-0.16-0.46-0.16-0.72 0-0.641 0.26-1.08 0.78-1.311-0.04 0-0.09 0-0.15 0.011-0.05 0-0.1 0.01-0.14 0.01-0.78 0-1.17-0.47-1.17-1.4 0-0.43 0.16-0.8 0.47-1.1-0.79-0.021-1.19-0.48-1.19-1.4 0-0.7 0.28-1.14 0.84-1.33 3.22-0.989 7.1-1.479 11.65-1.479 4.51 0 8.35 0.49 11.51 1.46 0.54 0.22 0.82 0.66 0.82 1.33 0 0.93-0.4 1.399-1.19 1.42 0.31 0.269 0.47 0.639 0.47 1.099z" fill="#fff"/>
    <path d="m31.85 36.65c-2.77 0.77-5.89 1.149-9.35 1.149-3.47 0-6.6-0.38-9.37-1.149 1.32-0.261 2.78-0.511 4.37-0.75 1.58-0.24 3.25-0.36 5-0.36 1.72 0 3.38 0.12 4.96 0.36 1.59 0.24 3.05 0.49 4.39 0.75z" fill="#fff"/>
    <path d="m40.77 13.21c0-0.71-0.35-1.07-1.06-1.07-0.7 0-1.05 0.36-1.05 1.07s0.35 1.07 1.05 1.07c0.71 0 1.06-0.36 1.06-1.07zm0.67-1.72c0.479 0.48 0.729 1.05 0.729 1.72 0 0.68-0.25 1.26-0.729 1.74-0.49 0.48-1.061 0.72-1.73 0.72s-1.25-0.24-1.729-0.72c-0.48-0.48-0.711-1.06-0.711-1.74 0-0.67 0.23-1.24 0.711-1.72 0.479-0.48 1.06-0.72 1.729-0.72s1.24 0.24 1.73 0.72z"/>
    <path d="m32.38 10.69c0-0.71-0.35-1.07-1.06-1.07s-1.07 0.36-1.07 1.07 0.36 1.06 1.07 1.06 1.06-0.35 1.06-1.06zm0.66-1.71c0.479 0.48 0.72 1.05 0.72 1.71 0 0.68-0.24 1.26-0.72 1.74s-1.05 0.72-1.72 0.72c-0.69 0-1.271-0.24-1.74-0.72-0.48-0.48-0.72-1.06-0.72-1.74 0-0.66 0.239-1.23 0.72-1.71 0.47-0.49 1.05-0.73 1.74-0.73 0.67 0 1.24 0.24 1.72 0.73z"/>
    <path d="m23.57 8.17c0-0.7-0.36-1.05-1.07-1.05s-1.07 0.35-1.07 1.05c0 0.71 0.36 1.06 1.07 1.06s1.07-0.35 1.07-1.06zm0.65-1.72c0.48 0.49 0.721 1.06 0.721 1.72 0 0.68-0.24 1.26-0.721 1.74-0.479 0.48-1.05 0.72-1.72 0.72-0.68 0-1.26-0.24-1.74-0.72s-0.72-1.06-0.72-1.74c0-0.66 0.24-1.23 0.72-1.72 0.48-0.48 1.06-0.73 1.74-0.73 0.67 0 1.24 0.25 1.72 0.73z"/>
    <path d="m14.75 10.69c0-0.71-0.36-1.07-1.07-1.07s-1.06 0.36-1.06 1.07 0.35 1.06 1.06 1.06 1.07-0.35 1.07-1.06zm-1.07-2.44c0.67 0 1.25 0.24 1.72 0.73 0.48 0.48 0.72 1.05 0.72 1.71 0 0.68-0.24 1.26-0.72 1.74-0.47 0.48-1.05 0.72-1.72 0.72-0.68 0-1.26-0.24-1.74-0.72s-0.72-1.06-0.72-1.74c0-0.66 0.24-1.23 0.72-1.71 0.48-0.49 1.06-0.73 1.74-0.73z"/>
    <path d="m17.5 35.9c-1.59 0.239-3.05 0.489-4.37 0.75 2.77 0.77 5.9 1.149 9.37 1.149 3.46 0 6.58-0.38 9.35-1.149-1.34-0.261-2.8-0.511-4.39-0.75-1.58-0.24-3.24-0.36-4.96-0.36-1.75 0-3.42 0.12-5 0.36zm-0.33-12.72l-2.32-4.93-0.7 4.82c-0.15 0.8-0.62 1.189-1.41 1.189-0.38 0-0.73-0.14-1.03-0.43l-3.05-3.57 1.68 6.98c3.44-1.101 7.5-1.641 12.16-1.641s8.72 0.54 12.16 1.641l1.66-6.98-3.011 3.55c-0.34 0.32-0.699 0.471-1.069 0.471-0.82 0-1.28-0.391-1.391-1.19l-0.72-4.84-2.3 4.89c-0.29 0.36-0.66 0.551-1.13 0.551s-0.86-0.2-1.16-0.601l-3.04-8.34-3.04 8.32c-0.3 0.41-0.69 0.62-1.18 0.62-0.459 0-0.819-0.17-1.109-0.51zm-4.39-0.15l1.33-9.66 4.17 8.92 4.22-11.64 4.22 11.64 4.15-8.92 1.33 9.66 6.5-7.54-2.97 12.79c0.239 0.479 0.369 0.979 0.369 1.5 0 0.81-0.26 1.489-0.779 2.05 0.04 0.15 0.06 0.31 0.06 0.47 0 0.82-0.25 1.51-0.76 2.05 0.05 0.19 0.08 0.41 0.08 0.641 0 1.46-0.61 2.37-1.82 2.729-3.11 1.04-6.57 1.561-10.38 1.561-3.83 0-7.29-0.521-10.38-1.561-1.21-0.359-1.82-1.27-1.82-2.729 0-0.23 0.03-0.45 0.08-0.641-0.51-0.54-0.76-1.229-0.76-2.05 0-0.16 0.02-0.319 0.06-0.47-0.52-0.53-0.78-1.21-0.78-2.03 0-0.479 0.1-0.92 0.29-1.33l-2.89-12.96 6.48 7.52zm9.8 3.96c-4.55 0-8.43 0.49-11.65 1.479-0.56 0.19-0.84 0.63-0.84 1.33 0 0.92 0.4 1.38 1.19 1.4-0.31 0.3-0.47 0.67-0.47 1.1 0 0.931 0.39 1.4 1.17 1.4 0.04 0 0.09-0.01 0.14-0.01 0.06-0.011 0.11-0.011 0.15-0.011-0.52 0.23-0.78 0.67-0.78 1.311 0 0.26 0.05 0.5 0.16 0.72 1.52-0.41 3.2-0.77 5.04-1.08 1.83-0.31 3.77-0.46 5.81-0.46s3.98 0.16 5.82 0.47c1.85 0.32 3.52 0.67 5.029 1.07 0.11-0.22 0.16-0.46 0.16-0.72 0-0.63-0.26-1.07-0.779-1.33 0.11 0.021 0.2 0.041 0.27 0.041 0.79 0 1.19-0.47 1.19-1.4 0-0.46-0.16-0.83-0.471-1.1 0.79-0.021 1.19-0.49 1.19-1.42 0-0.67-0.28-1.11-0.82-1.33-3.159-0.97-6.999-1.46-11.509-1.46z"/>
    <path d="m6.34 13.21c0-0.71-0.36-1.07-1.07-1.07s-1.06 0.36-1.06 1.07 0.35 1.07 1.06 1.07 1.07-0.36 1.07-1.07zm0.67-1.72c0.48 0.48 0.72 1.05 0.72 1.72 0 0.68-0.24 1.26-0.72 1.74-0.49 0.48-1.07 0.72-1.74 0.72-0.68 0-1.26-0.24-1.73-0.72s-0.71-1.06-0.71-1.74c0-1.63 0.82-2.44 2.44-2.44 0.67 0 1.25 0.24 1.74 0.72z"/>
</g>
</svg>
