<?xml version="1.0" encoding="UTF-8" standalone="no"?>
<!-- Generator: Adobe Illustrator 15.0.0, SVG Export Plug-In . SVG Version: 6.00 Build 0)  -->
<!DOCTYPE svg  PUBLIC '-//W3C//DTD SVG 1.1//EN'  'http://www.w3.org/Graphics/SVG/1.1/DTD/svg11.dtd'>
<svg id="layer" xmlns="http://www.w3.org/2000/svg" xml:space="preserve" height="45px" viewBox="0 0 45 45" width="45px" version="1.1" y="0px" x="0px" xmlns:xlink="http://www.w3.org/1999/xlink" enable-background="new 0 0 45 45">
<g id="piece">
    <polygon points="31.25 7.08 31.25 10.54 28.81 12.02 22.51 12.02 16.19 12.02 13.75 10.54 13.75 7.08 15.15 7.08 15.15 9.19 21.44 9.19 21.44 7.08 22.51 7.08 23.56 7.08 23.56 9.19 29.87 9.19 29.87 7.08" fill="#fff"/>
    <path d="m29.44 29.51h1.109c0.71 0 1.07 0.351 1.07 1.05 0 0.71-0.36 1.07-1.07 1.07h-16.1c-0.7 0-1.05-0.36-1.05-1.07 0-0.699 0.35-1.05 1.05-1.05l1.13-0.02 1.64-16.07 10.52-0.03 1.701 16.12z" fill="#fff"/>
    <path d="m32.27 35.46v2.46h-19.52v-2.46c0-0.66 0.23-1.229 0.71-1.71 0.47-0.49 1.05-0.73 1.73-0.73h14.64c0.67 0 1.25 0.24 1.72 0.73 0.48 0.48 0.72 1.05 0.72 1.71z" fill="#fff"/>
    <path d="m31.62 30.56c0-0.699-0.36-1.05-1.07-1.05h-1.11l-1.7-16.12-10.52 0.03-1.64 16.07-1.13 0.02c-0.7 0-1.05 0.351-1.05 1.05 0 0.71 0.35 1.07 1.05 1.07h16.1c0.71 0 1.07-0.36 1.07-1.07zm-0.37-20.02v-3.46h-1.38v2.11h-6.31v-2.11h-2.12v2.11h-6.29v-2.11h-1.4v3.46l2.44 1.48h12.62l2.44-1.48zm1.02 27.38v-2.46c0-0.66-0.239-1.229-0.72-1.71-0.47-0.49-1.05-0.73-1.72-0.73h-14.64c-0.68 0-1.26 0.24-1.73 0.73-0.48 0.48-0.71 1.05-0.71 1.71v2.46h19.52zm0.41-32.24v5.64l-3.5 2.07 1.37 14.73c0.67 0 1.25 0.24 1.73 0.72 0.489 0.48 0.729 1.05 0.729 1.72 0 0.721-0.27 1.33-0.819 1.82 1.02 0.811 1.54 1.84 1.54 3.101v3.84h-22.46v-3.84c0-1.271 0.52-2.301 1.56-3.07-0.55-0.48-0.82-1.101-0.82-1.851 0-0.67 0.24-1.239 0.72-1.72 0.48-0.479 1.05-0.72 1.72-0.72l1.42-14.73-3.49-2.07v-5.64h4.18v2.1h3.51v-2.1h4.88v2.1h3.51v-2.1h4.22z"/>
</g>
</svg>
