<?xml version="1.0" encoding="UTF-8" standalone="no"?>
<svg
   xmlns:dc="http://purl.org/dc/elements/1.1/"
   xmlns:cc="http://creativecommons.org/ns#"
   xmlns:rdf="http://www.w3.org/1999/02/22-rdf-syntax-ns#"
   xmlns:svg="http://www.w3.org/2000/svg"
   xmlns="http://www.w3.org/2000/svg"
   xmlns:sodipodi="http://sodipodi.sourceforge.net/DTD/sodipodi-0.dtd"
   xmlns:inkscape="http://www.inkscape.org/namespaces/inkscape"
   version="1.0"
   width="300.000000pt"
   height="300.000000pt"
   viewBox="0 0 300.000000 300.000000"
   preserveAspectRatio="xMidYMid meet"
   id="svg2"
   inkscape:version="0.92.2 (5c3e80d, 2017-08-06)"
   sodipodi:docname="bb.svg">
  <defs
     id="defs12" />
  <sodipodi:namedview
     pagecolor="#ffffff"
     bordercolor="#666666"
     borderopacity="1"
     objecttolerance="10"
     gridtolerance="10"
     guidetolerance="10"
     inkscape:pageopacity="0"
     inkscape:pageshadow="2"
     inkscape:window-width="1920"
     inkscape:window-height="1018"
     id="namedview10"
     showgrid="false"
     inkscape:zoom="1.493377"
     inkscape:cx="66.954841"
     inkscape:cy="185.91102"
     inkscape:window-x="-8"
     inkscape:window-y="-8"
     inkscape:window-maximized="1"
     inkscape:current-layer="svg2"
     inkscape:pagecheckerboard="true" />
  <metadata
     id="metadata4">
Created by potrace 1.12, written by Peter Selinger 2001-2015
<rdf:RDF>
  <cc:Work
     rdf:about="">
    <dc:format>image/svg+xml</dc:format>
    <dc:type
       rdf:resource="http://purl.org/dc/dcmitype/StillImage" />
    <dc:title></dc:title>
  </cc:Work>
</rdf:RDF>
</metadata>
  <path
     transform="scale(0.8,0.8)"
     style="opacity:1;fill:#ffffff;fill-opacity:1;stroke:#000000;stroke-width:0;stroke-opacity:1;stroke-miterlimit:4;stroke-dasharray:none"
     d="m 219.41211,1.7597656 c -6.31282,0.076314 -12.79933,1.5679241 -18.78906,4.5527344 -4.05476,2.0205683 -7.56697,4.715657 -10.5918,7.833984 C 182.82197,7.2472611 169.35881,1.8621644 159.50977,1.9023438 136.24519,1.9972427 117.24414,21.501259 117.24414,44.595703 c 0,5.278107 1.36389,11.441832 3.66602,17.201172 -6.9889,8.843738 -14.70054,19.182226 -20.31836,27.650391 -15.076907,22.726614 -24.466469,42.200754 -29.632816,63.070314 -1.83514,7.41309 -2.525509,14.57209 -2.484375,25.375 0.05924,15.5555 2.292108,28.56015 7.511719,44.26562 4.284051,12.89048 10.482202,27.94143 18.861328,40.125 l -2.171875,-3.15429 c -0.497207,5.83628 -0.48668,12.10942 -0.136719,18.45507 -15.961153,-1.47677 -31.575019,-1.52415 -44.759765,1.25391 -22.508459,4.74261 -42.7310576,17.29734 -50.6269532,37.54297 -3.0645295,7.85768 -3.431008,13.81247 -3.7246094,20.49805 -0.2936015,6.68557 -0.4415773,12.66205 1.90625,20.73828 0.4660833,1.60327 0.9134109,3.02686 1.4414062,4.49414 0.2639977,0.73363 0.4999332,1.40476 1.0605469,2.64062 0.2803069,0.61793 0.5458599,1.29975 1.56640625,2.92774 0.51027317,0.81399 1.10128693,1.86131 2.95312505,3.77539 1.851838,1.91408 5.1511122,6.9043 16.2714842,6.9043 8.221271,-10e-6 6.143836,-0.83636 6.794922,-1.03711 0.651086,-0.20076 0.977153,-0.31919 1.289063,-0.43165 0.623819,-0.2249 1.082198,-0.40438 1.59375,-0.60742 1.023103,-0.40607 2.152235,-0.87491 3.373046,-1.39843 10.081996,-4.32353 51.275661,-9.21851 104.564456,-6.37696 l 9.13672,0.48828 c 8.07553,0.43104 15.76537,-3.488 20.16211,-10.27539 l 2.62695,-4.05664 0.002,-0.002 c 1.34574,-2.07717 1.94546,-2.97836 7.95703,-4.65234 -1.66711,0.46422 5.89038,-0.7187 11.85157,-0.72071 5.96118,-0.002 13.79572,1.4835 10.72851,0.54102 6.35669,1.95325 7.55384,3.6956 8.01953,4.49023 l 0,0.002 2.08008,3.54882 c 4.27332,7.28828 12.2567,11.58252 20.69331,11.13087 l 9.19727,-0.49218 -0.004,0.002 c 53.33296,-2.84713 94.53843,2.04589 104.62891,6.37305 1.22082,0.52353 2.34993,0.99236 3.37304,1.39843 0.51156,0.20304 0.96993,0.38252 1.59375,0.60742 0.31191,0.11246 0.63798,0.23089 1.28906,0.43165 0.65109,0.20075 -1.42639,1.0371 6.79493,1.03711 11.12043,0 14.41965,-4.99023 16.27148,-6.9043 1.85183,-1.91408 2.44286,-2.9614 2.95313,-3.77539 1.02054,-1.62798 1.2861,-2.30981 1.5664,-2.92774 0.56062,-1.23586 0.79655,-1.90698 1.06055,-2.64062 0.528,-1.46728 0.97532,-2.89085 1.44141,-4.49414 2.34783,-8.07625 2.19985,-14.05271 1.90625,-20.73828 -0.29361,-6.68558 -0.6601,-12.64039 -3.72461,-20.49805 -7.86992,-20.17902 -28.08784,-32.7939 -50.62696,-37.54297 -13.18582,-2.77829 -28.80115,-2.73105 -44.76367,-1.25391 0.36426,-6.37409 0.38881,-12.66252 -0.12305,-18.49804 l 0,-0.004 -0.0937,-1.05469 -0.40039,0.75586 -0.002,0 c 8.66921,-16.32617 14.29944,-39.14355 17.48633,-60.7539 2.35042,-15.93846 2.70387,-35.58257 -0.0937,-51.21289 -5.30835,-29.65767 -18.56846,-58.210981 -38.95899,-86.302738 0.10953,-0.283317 0.28818,-0.571955 0.39063,-0.853516 3.01423,-8.28439 3.55591,-17.11214 1.00977,-26.279297 C 256.28845,13.998328 238.35446,1.5307795 219.41211,1.7597656 Z"
     id="path4146"
     inkscape:connector-curvature="0"
     sodipodi:nodetypes="sscsscsssscccsssssssssccssccccccscccccccssccssscsssssccccccssccss" />
  <path
     style="opacity:1;fill:#000000;fill-opacity:1;stroke:#000000;stroke-width:0.66962326;stroke-opacity:1"
     d="m 18.124732,355.14979 c -2.11583,-3.42349 -3.110177,-18.17007 -1.68833,-25.03867 2.948773,-14.24482 14.233908,-24.10555 32.492819,-28.39161 6.059657,-1.42243 9.550894,-1.77258 20.758784,-2.08196 14.731466,-0.40664 24.940348,0.29722 39.990145,2.75713 l 9.26897,1.51503 -0.42489,-2.066 c -2.98804,-14.52923 -3.303,-17.64692 -3.38808,-33.5383 l -0.086,-16.07095 -2.79087,-4.51763 c -9.80311,-15.86853 -18.731716,-40.75037 -20.913054,-58.27956 -1.000069,-8.03655 -0.494939,-23.05365 1.000799,-29.75313 2.085327,-9.34023 5.853632,-19.39559 11.741095,-31.32999 8.87321,-17.98675 18.97312,-33.367209 35.38516,-53.8856 l 9.33391,-11.669298 -3.22401,-2.898657 C 141.3003,56.051705 139.917,52.4093 139.917,44.986058 c 0,-4.595471 0.29827,-6.297339 1.54851,-8.835593 6.12957,-12.444234 22.21237,-15.813774 32.27916,-6.76287 6.16371,5.541709 8.5854,13.638886 6.38247,21.340467 -0.95829,3.350241 -1.80664,4.615547 -5.45259,8.132516 l -4.31774,4.164982 4.75905,5.400731 c 4.61754,5.240125 12.1505,12.0498 13.32968,12.0498 1.18282,0 14.60566,-13.835699 16.35575,-16.858817 l 1.81285,-3.131539 -2.94097,-3.995017 c -3.58238,-4.866316 -4.79944,-8.854 -4.31908,-14.151426 1.60882,-17.742382 25.61483,-24.622612 36.75638,-10.534545 3.05128,3.858239 4.5901,8.619307 4.57012,14.139878 -0.0224,6.199744 -2.40408,10.364952 -7.70428,13.473856 -1.07728,0.631893 -0.5388,1.571001 5.1834,9.039914 29.90048,39.027585 42.86191,75.616005 40.10975,113.224565 -0.43137,5.89474 -1.37803,14.2364 -2.10369,18.53703 -2.80931,16.6494 -8.7762,37.08045 -13.89532,47.5786 l -2.41714,4.95701 -0.0749,16.1452 c -0.0738,15.90734 -0.49581,20.01861 -3.418,33.29748 l -0.38532,1.75095 7.25921,-1.24172 c 15.2602,-2.61033 26.60118,-3.45078 41.41,-3.0688 11.9298,0.30772 15.179,0.62499 21.42794,2.09235 17.77589,4.17411 28.54836,13.21804 32.08554,26.9371 1.38333,5.36528 1.39462,16.75434 0.0218,22.02763 -0.57143,2.19507 -1.24942,4.19989 -1.50665,4.45516 -0.25723,0.25527 -3.93299,-0.71002 -8.16835,-2.1451 -17.72484,-6.00575 -31.9875,-7.6217 -67.63195,-7.66262 -14.91586,-0.0172 -32.85282,0.20037 -39.85992,0.48332 l -12.74018,0.51445 -2.8819,-4.38336 c -4.74433,-7.21615 -11.76338,-11.6211 -22.5291,-14.13859 -7.06011,-1.65097 -23.14231,-1.67291 -30.4443,-0.0416 -10.21674,2.28256 -19.72468,8.51952 -23.932,15.69877 l -1.68211,2.87032 -12.81781,-0.51725 c -7.0498,-0.28446 -25.0217,-0.50183 -39.937557,-0.48302 -28.612122,0.0361 -37.893436,0.68645 -53.184492,3.72683 -5.537645,1.10107 -16.066832,4.20868 -21.243362,6.26981 -0.60726,0.24179 -1.280089,0.15488 -1.495177,-0.19314 z M 146.65835,299.51783 c 14.34655,-6.41453 22.91165,-8.10182 41.13667,-8.10377 17.91677,-0.002 25.4258,1.48867 40.44808,8.02918 8.39559,3.65534 11.65962,4.1403 13.75608,2.04385 2.78953,-2.78953 3.41174,-10.23647 1.14442,-13.69684 -1.35445,-2.06716 -17.47357,-10.01419 -23.82692,-11.74713 -8.64805,-2.35884 -18.28982,-3.43745 -30.78036,-3.44333 -20.18948,-0.01 -34.2023,3.01565 -49.42042,10.66917 -3.01863,1.51813 -6.09541,3.41178 -6.8373,4.2081 -2.739,2.93997 -2.3948,10.59805 0.62188,13.83607 2.18581,2.3462 5.44689,1.92066 13.75787,-1.7953 z m -9.29607,-34.93995 c 2.46519,-0.93403 4.89836,-3.24667 4.89836,-4.6557 0,-0.6153 -0.59804,-1.65996 -1.32898,-2.32144 -1.07338,-0.97139 -2.00526,-1.12261 -4.84527,-0.78626 -4.40837,0.52211 -6.93297,2.31078 -6.74931,4.78186 0.0738,0.99232 0.48731,2.22982 0.91902,2.74999 0.92935,1.1198 4.45835,1.23479 7.10618,0.23155 z m 107.72553,-0.9269 c 0.59142,-0.90263 0.97503,-2.15135 0.85246,-2.77494 -0.39259,-1.99745 -3.65962,-3.82362 -7.39459,-4.13336 -3.00654,-0.24933 -3.74403,-0.0733 -4.86032,1.16021 -1.20433,1.33076 -1.23149,1.60648 -0.32018,3.24984 2.21071,3.98654 9.70147,5.58292 11.72263,2.49825 z m -45.61545,-5.63757 c 2.18621,-0.96707 3.12924,-1.82638 3.46281,-3.1554 0.56562,-2.25364 -0.21853,-3.57033 -3.15762,-5.30205 -1.99112,-1.17316 -3.47707,-1.33924 -11.98253,-1.33924 -8.38567,0 -10.06845,0.1826 -12.34189,1.33924 -3.20472,1.63045 -4.06464,2.92438 -3.48316,5.24116 0.8943,3.56319 6.97464,5.21977 17.65042,4.80885 4.91941,-0.18935 7.69354,-0.63779 9.85197,-1.59256 z m -58.55097,-12.50396 c 8.96158,-3.53718 15.01964,-5.15659 24.77606,-6.623 16.4704,-2.47553 27.31555,-2.40727 42.85589,0.26977 8.98385,1.54758 22.76509,5.21925 28.81134,7.67606 8.27125,3.36091 11.46988,1.68428 11.91804,-6.24709 0.34179,-6.04881 -0.61451,-7.72437 -6.88093,-12.05635 -12.76961,-8.82762 -27.48576,-12.14776 -53.96876,-12.17598 -23.34802,-0.0249 -37.22722,2.5418 -50.70875,9.37758 -9.91474,5.02724 -12.19291,7.57566 -12.19981,13.64702 -0.007,5.87585 2.12002,9.10796 6.0222,9.15241 0.92073,0.0105 5.13935,-1.3487 9.37472,-3.02042 z m 108.74546,-31.50996 c 3.42838,-1.3156 5.23843,-8.97714 5.18763,-21.95804 -0.0969,-24.75146 -7.06089,-48.33034 -21.46228,-72.66727 -8.87163,-14.99218 -17.39155,-24.679228 -24.61392,-27.985741 -7.28795,-3.336535 -16.21873,-2.756921 -18.3309,1.189686 -1.93382,3.613394 -0.41689,7.350602 7.72649,19.035445 20.83503,29.89594 22.59553,33.41035 29.85422,59.59647 6.27086,22.62245 8.49807,29.53207 11.37978,35.30422 3.47174,6.95399 6.2882,9.00896 10.25898,7.48523 z"
     id="path4153"
     inkscape:connector-curvature="0"
     transform="scale(0.8,0.8)" />
</svg>
