<?xml version="1.0" encoding="UTF-8" standalone="no"?>
<svg
   xmlns:dc="http://purl.org/dc/elements/1.1/"
   xmlns:cc="http://creativecommons.org/ns#"
   xmlns:rdf="http://www.w3.org/1999/02/22-rdf-syntax-ns#"
   xmlns:svg="http://www.w3.org/2000/svg"
   xmlns="http://www.w3.org/2000/svg"
   xmlns:sodipodi="http://sodipodi.sourceforge.net/DTD/sodipodi-0.dtd"
   xmlns:inkscape="http://www.inkscape.org/namespaces/inkscape"
   version="1.0"
   width="300.000000pt"
   height="300.000000pt"
   viewBox="0 0 300.000000 300.000000"
   preserveAspectRatio="xMidYMid meet"
   id="svg2"
   inkscape:version="0.92.2 (5c3e80d, 2017-08-06)"
   sodipodi:docname="bk.svg">
  <defs
     id="defs12" />
  <sodipodi:namedview
     pagecolor="#ffffff"
     bordercolor="#666666"
     borderopacity="1"
     objecttolerance="10"
     gridtolerance="10"
     guidetolerance="10"
     inkscape:pageopacity="0"
     inkscape:pageshadow="2"
     inkscape:window-width="1920"
     inkscape:window-height="1018"
     id="namedview10"
     showgrid="false"
     inkscape:zoom="1.493377"
     inkscape:cx="69.255971"
     inkscape:cy="195.77935"
     inkscape:window-x="-8"
     inkscape:window-y="-8"
     inkscape:window-maximized="1"
     inkscape:current-layer="svg2"
     inkscape:pagecheckerboard="true" />
  <metadata
     id="metadata4">
Created by potrace 1.12, written by Peter Selinger 2001-2015
<rdf:RDF>
  <cc:Work
     rdf:about="">
    <dc:format>image/svg+xml</dc:format>
    <dc:type
       rdf:resource="http://purl.org/dc/dcmitype/StillImage" />
    <dc:title></dc:title>
  </cc:Work>
</rdf:RDF>
</metadata>
  <path
     transform="scale(0.8,0.8)"
     style="opacity:1;fill:#ffffff;fill-opacity:1;stroke:#000000;stroke-width:0;stroke-miterlimit:4;stroke-dasharray:none;stroke-opacity:1"
     d="m 139.14062,1.9726562 c -13.49709,0.00108 -24.43837,10.9423628 -24.43945,24.4394528 l 0,34.017579 C 82.037931,49.788188 46.603266,54.221584 21.435547,76.5625 2.9617952,92.961301 -7.3700215,116.92276 -6.2246094,141.39062 c 0.7905098,16.88658 5.26933211,32.44009 13.8925782,50.09571 9.3499712,19.14356 21.8604712,36.88833 36.2265622,50.30469 2.423619,2.26339 5.069433,4.47134 7.66211,6.59765 0.460821,6.14023 1.039407,15.17147 1.884765,29.82813 l 2.371094,41.11523 c 0.28328,4.9093 2.04082,9.61899 5.042969,13.51367 l 2.365234,3.06836 c 14.464296,18.76496 36.6271,26.9127 62.474607,31.2793 8.82713,1.49121 21.09443,2.58619 33.5586,3.25781 5.70996,0.30763 14.24314,0.28425 25.95703,0.34766 41.04567,0.22211 66.23714,-2.08431 88.76172,-9.75781 15.81709,-5.38845 29.59909,-12.77687 39.34179,-27.25 l -0.002,0.006 1.87305,-2.78126 c 2.46542,-3.66217 3.89291,-7.92372 4.13086,-12.33203 l 2.19336,-40.51171 1.58984,-29.35157 -7.10742,5.50391 c 16.48265,-12.76018 28.90429,-26.28207 41.1289,-44.59375 14.15058,-21.19667 22.68547,-44.04595 23.86914,-67.37109 C 382.3324,115.91032 370.93033,90.146777 350.26362,73.804828 335.55188,62.171696 317.1151,55.868683 297.80268,55.103656 285.22769,54.605518 272.75493,56.504895 260.67573,60.40639 l 0,-33.994141 C 260.67473,12.915124 249.73346,1.9737612 236.23633,1.9726562 l -48.54883,0 z"
     id="path3351"
     inkscape:connector-curvature="0"
     sodipodi:nodetypes="cccsssscscscsssscccccccssssccccc" />
  <path
     style="opacity:1;fill:#000000;fill-opacity:1;stroke:#000000;stroke-width:0;stroke-miterlimit:4;stroke-dasharray:none;stroke-opacity:1"
     d="m 155.16864,345.76378 c -37.50194,-2.20846 -60.324732,-9.94923 -72.392902,-24.55338 -1.432697,-1.73377 -2.604903,-3.38583 -2.604903,-3.67125 0,-2.02794 -4.740897,-81.79316 -4.864821,-81.85025 -0.08655,-0.0399 -2.567998,-1.83866 -5.51434,-3.99731 -22.697439,-16.62934 -44.189775,-50.53606 -50.32254,-79.3898 -1.659855,-7.80936 -1.654018,-22.63248 0.01147,-29.12861 2.092533,-8.1618 6.632937,-16.44612 12.336657,-22.50921 14.732204,-15.660428 31.322404,-22.228077 53.375748,-21.130139 16.339031,0.813448 31.522781,6.202494 47.646761,16.910882 3.00327,1.994553 5.63991,3.626467 5.8592,3.626467 0.21929,0 0.39871,-16.573178 0.39871,-36.829282 l 0,-36.82928 48.54769,0 48.54769,0 0,36.82928 c 0,20.256104 0.10454,36.829282 0.23231,36.829282 0.12777,0 2.74973,-1.685008 5.82659,-3.744468 33.18483,-22.211874 71.49459,-22.649421 95.69435,-1.092952 7.87801,7.0175 14.46902,17.59565 17.19984,27.60461 1.69357,6.20729 1.70455,22.97075 0.0202,30.80267 -4.10829,19.10246 -13.00058,36.90915 -27.75488,55.57873 -6.0922,7.70886 -18.54134,20.12041 -23.80003,23.72816 -2.11246,1.44927 -3.97075,3.25725 -4.12952,4.01774 -0.15879,0.76049 -1.2244,18.85988 -2.36803,40.22087 -1.14364,21.36098 -2.22458,39.54819 -2.40209,40.41601 -0.53821,2.63121 -10.09556,11.50716 -15.92623,14.79074 -13.51897,7.61331 -32.44998,11.79757 -60.67231,13.41021 -13.45032,0.76856 -49.60658,0.74574 -62.94459,-0.0397 l 2e-5,-1e-5 z m -42.77845,-38.10934 c 9.07223,-2.39065 22.22911,-5.02447 32.39929,-6.48586 9.27163,-1.33227 63.02821,-1.90851 76.33705,-0.81829 11.67693,0.95654 25.49683,3.33634 39.01282,6.71804 l 11.15353,2.79062 2.35065,-1.26968 c 2.70974,-1.46365 5.40542,-5.12606 5.40542,-7.34395 0,-7.94857 -21.33622,-13.60708 -61.87907,-16.41072 -14.88204,-1.02913 -58.68368,-0.43462 -72.3804,0.9824 -21.79769,2.25513 -33.9891,4.6356 -41.88228,8.17785 -7.522665,3.37597 -8.789894,7.69354 -3.740211,12.74322 1.608861,1.60886 3.527021,2.92519 4.262581,2.92519 0.73557,0 4.76784,-0.90397 8.96062,-2.00882 z m -8.15015,-33.1836 c 8.99845,-2.04665 13.39033,-6.71501 10.26077,-10.90672 -1.82054,-2.43842 -5.29857,-3.02301 -10.62969,-1.78663 -9.627074,2.23266 -13.730104,6.4453 -10.612626,10.89613 0.863071,1.2322 3.586422,2.52249 5.864414,2.77846 0.295592,0.0332 2.598302,-0.40834 5.117132,-0.98124 z m 176.65037,-1.13818 c 1.95219,-1.81626 2.01357,-5.34874 0.12576,-7.23656 -3.24497,-3.24497 -12.99335,-5.82383 -17.46407,-4.61999 -4.53849,1.22208 -5.33904,5.51096 -1.67389,8.96765 1.97897,1.8664 5.82613,3.42876 11.47894,4.66169 2.37257,0.51747 5.98543,-0.33274 7.53326,-1.77279 z m -85.61464,-9.54938 c 7.29424,-0.79939 11.45386,-4.33576 11.45386,-9.73767 0,-3.7662 -2.19241,-6.91238 -5.89488,-8.45938 -3.6485,-1.52444 -12.52902,-2.26707 -18.71061,-1.56467 -9.40427,1.06859 -13.30909,3.63522 -13.99732,9.20043 -0.73181,5.91776 4.40923,10.02009 13.63679,10.88155 5.15832,0.48158 6.48184,0.4502 13.51216,-0.32026 z m -88.12986,-25.41064 c 19.98354,-5.18135 34.38162,-7.96316 52.71009,-10.18398 13.53316,-1.63978 42.14063,-1.63431 55.53719,0.0106 18.25377,2.24134 36.31633,5.77468 54.09661,10.58221 9.80154,2.6502 10.2612,2.71297 11.91778,1.62753 3.56393,-2.33517 5.21048,-7.44415 3.93332,-12.20442 -0.21229,-0.79127 -2.31749,-3.00579 -4.67821,-4.92115 -2.36073,-1.91539 -4.29224,-3.71219 -4.29224,-3.99291 0,-0.28074 2.23065,-2.21896 4.957,-4.30718 15.84831,-12.13883 27.0468,-29.95936 31.53774,-50.1871 4.80258,-21.63135 -7.33896,-35.46253 -31.13775,-35.47096 -5.70204,-0.002 -8.1434,0.33481 -12.91591,1.78196 -26.07793,7.9075 -47.44578,31.5379 -60.94526,67.39851 l -2.89886,7.70067 -17.41222,0.17828 -17.41223,0.17829 -2.54216,-6.87452 c -14.1964,-38.39007 -33.68488,-60.27618 -61.04655,-68.55703 -13.801723,-4.17701 -30.714161,-1.28388 -38.601389,6.60335 -5.316173,5.31617 -8.02827,14.76444 -6.64405,23.14621 1.946574,11.78696 7.510566,25.56617 14.298636,35.41055 4.206643,6.10066 13.284434,15.39974 19.141595,19.6082 2.294183,1.64841 4.171244,3.16587 4.171244,3.37213 0,0.20626 -2.070555,2.06656 -4.601229,4.13399 -4.13043,3.37435 -4.647205,4.06555 -5.05054,6.75519 -0.593098,3.95503 1.076179,8.21208 3.89386,9.93027 1.141239,0.69592 2.160546,1.26643 2.265128,1.26781 0.104575,0.001 5.377855,-1.34257 11.718405,-2.98655 z m 90.9124,-83.14055 c 6.52874,-3.55339 10.01057,-9.47581 10.01057,-17.02748 0,-9.4601 -5.79525,-16.64077 -15.42018,-19.10657 -9.58379,-2.45525 -19.94508,2.25063 -24.2049,10.99335 -1.8711,3.84021 -2.07659,11.76808 -0.40453,15.60762 1.42012,3.26104 5.46004,7.64015 8.91776,9.66651 5.55903,3.25781 14.9799,3.19824 21.10128,-0.13343 z m -21.73637,-63.554363 11.09977,-9.815409 1.45107,1.277651 c 11.35148,9.994783 18.55191,16.238826 20.12344,17.450571 3.36551,2.59501 5.15974,2.03968 9.79111,-3.030449 4.78111,-5.234064 5.67675,-6.819859 5.11526,-9.056984 -0.24254,-0.966364 -4.48222,-5.227038 -10.48412,-10.536034 -5.54229,-4.902454 -9.98895,-9.177389 -9.88146,-9.499855 0.10749,-0.322467 4.38422,-4.417389 9.50384,-9.099826 5.11962,-4.682439 9.60499,-8.994214 9.96749,-9.581723 1.07065,-1.735232 0.0376,-4.021368 -3.90107,-8.632493 -4.09393,-4.792961 -6.37909,-6.329327 -8.44083,-5.674955 -0.75007,0.238061 -6.1684,4.774295 -12.04074,10.080518 -5.87234,5.306224 -10.8959,9.639808 -11.16347,9.630187 -0.26756,-0.0096 -5.1571,-4.256844 -10.86564,-9.438276 -5.70854,-5.18143 -11.09696,-9.701189 -11.97426,-10.043909 -2.49313,-0.973942 -3.76206,-0.197181 -8.43981,5.166299 -6.5893,7.555257 -6.62846,7.42517 5.51495,18.319826 5.43232,4.873693 9.87694,9.090058 9.87694,9.369701 0,0.279642 -4.51996,4.557037 -10.04435,9.505322 -13.03799,11.678337 -13.0068,11.473273 -3.30913,21.755797 3.75351,3.979884 5.04651,3.397994 18.10101,-8.145959 z"
     id="path3356"
     inkscape:connector-curvature="0"
     transform="scale(0.8,0.8)" />
  <path
     style="opacity:1;fill:#000000;fill-opacity:1;stroke:#000000;stroke-width:0;stroke-miterlimit:4;stroke-dasharray:none;stroke-opacity:1"
     d="M 113.83746,205.24715 C 100.25131,190.04534 89.960778,175.6149 87.785654,168.71461 c -1.586212,-5.03204 -0.834202,-9.26527 2.181679,-12.28115 l 2.31048,-2.31048 5.162701,0.38334 c 18.919796,1.40483 34.901516,17.27447 46.591236,46.26448 1.60119,3.97088 2.09972,5.91568 1.55666,6.0726 -0.43941,0.12696 -6.47486,1.26121 -13.41211,2.52056 l -12.61319,2.28972 -5.72565,-6.40653 z"
     id="path3358"
     inkscape:connector-curvature="0"
     transform="scale(0.8,0.8)" />
  <path
     style="opacity:1;fill:#000000;fill-opacity:1;stroke:#000000;stroke-width:0;stroke-miterlimit:4;stroke-dasharray:none;stroke-opacity:1"
     d="m 251.624,210.89211 c -2.00932,-0.48016 -7.7346,-1.55197 -12.72284,-2.38181 -4.98824,-0.82984 -9.30196,-1.70919 -9.58604,-1.9541 -0.68527,-0.59078 3.37029,-10.55473 7.90209,-19.41434 10.80181,-21.1174 25.45226,-32.79465 41.18053,-32.82325 5.04804,-0.009 7.00383,1.015 8.42261,4.41061 1.79606,4.29857 1.22427,8.97265 -1.82521,14.92029 -3.90144,7.60927 -15.00785,22.00505 -27.70895,35.91546 l -2.00887,2.20015 -3.65332,-0.87301 z"
     id="path3360"
     inkscape:connector-curvature="0"
     transform="scale(0.8,0.8)" />
</svg>
