<?xml version="1.0" encoding="UTF-8" standalone="no"?>
<svg
   xmlns:dc="http://purl.org/dc/elements/1.1/"
   xmlns:cc="http://creativecommons.org/ns#"
   xmlns:rdf="http://www.w3.org/1999/02/22-rdf-syntax-ns#"
   xmlns:svg="http://www.w3.org/2000/svg"
   xmlns="http://www.w3.org/2000/svg"
   xmlns:sodipodi="http://sodipodi.sourceforge.net/DTD/sodipodi-0.dtd"
   xmlns:inkscape="http://www.inkscape.org/namespaces/inkscape"
   version="1.0"
   width="300.000000pt"
   height="300.000000pt"
   viewBox="0 0 300.000000 300.000000"
   preserveAspectRatio="xMidYMid meet"
   id="svg2"
   inkscape:version="0.92.2 (5c3e80d, 2017-08-06)"
   sodipodi:docname="bn.svg">
  <defs
     id="defs12" />
  <sodipodi:namedview
     pagecolor="#ffffff"
     bordercolor="#666666"
     borderopacity="1"
     objecttolerance="10"
     gridtolerance="10"
     guidetolerance="10"
     inkscape:pageopacity="0"
     inkscape:pageshadow="2"
     inkscape:window-width="1920"
     inkscape:window-height="1018"
     id="namedview10"
     showgrid="false"
     inkscape:zoom="1.493377"
     inkscape:cx="-25.684172"
     inkscape:cy="211.4237"
     inkscape:window-x="-8"
     inkscape:window-y="-8"
     inkscape:window-maximized="1"
     inkscape:current-layer="svg2"
     inkscape:pagecheckerboard="true" />
  <metadata
     id="metadata4">
Created by potrace 1.12, written by Peter Selinger 2001-2015
<rdf:RDF>
  <cc:Work
     rdf:about="">
    <dc:format>image/svg+xml</dc:format>
    <dc:type
       rdf:resource="http://purl.org/dc/dcmitype/StillImage" />
    <dc:title></dc:title>
  </cc:Work>
</rdf:RDF>
</metadata>
  <path
     transform="scale(0.8,0.8)"
     style="opacity:1;fill:#ffffff;fill-opacity:1;stroke:#000000;stroke-width:0;stroke-miterlimit:4;stroke-dasharray:none;stroke-opacity:1"
     d="M 128.61328,-1.4160156 C 119.31206,-1.1435918 110.99072,4.4373751 107.20898,12.939453 92.483397,8.1780161 77.134003,18.2709 75.669922,33.677734 l -0.494141,5.271485 c -1.547473,16.513839 1.034493,33.25872 6.871094,48.9375 -2.004672,3.817528 -19.009899,24.331091 -23.169922,58.359371 l 0,0.004 -0.126953,1.14444 -4.640625,7.48047 0,0.002 c -10.43641,16.8304 -13.360517,20.68338 -25.421875,33.4961 -4.04648,4.29855 -8.594709,9.35243 -11.519531,16.8789 -2.924822,7.52647 -2.996305,14.21895 -2.958985,20.18946 0.0434,6.94296 1.529149,15.61817 3.644532,20.67968 3.245184,7.76482 8.486039,15.21699 14.757812,21.93946 4.846436,5.1947 9.210843,10.39627 18.935547,13.98437 4.268548,1.57496 9.116284,1.7052 13.753906,1.2207 2.686605,3.03127 5.673853,5.71754 8.957031,7 8.811374,3.44188 14.233011,2.115 18.779297,1.2793 3.296451,-0.60595 6.215564,-1.34392 9.027341,-2.17578 -3.962282,5.81037 -7.346127,11.59558 -10.011716,17.39453 -5.015757,10.91171 -10.920826,22.92634 -2.242187,39.70899 2.976517,5.75592 13.421253,14.1989 18.916013,16.16211 5.50971,1.96848 6.13387,1.43655 7.7168,1.57226 1.58292,0.13571 3.08835,0.20621 4.98047,0.27149 3.78423,0.13055 9.0109,0.20906 16.77539,0.26562 15.52897,0.11312 41.07734,0.11782 82.95508,0.0605 l 101.73437,-0.13867 c 10.86507,-0.0153 20.38828,-7.26954 23.28906,-17.74024 l 0.55665,-2.00976 0,-0.002 c 3.82099,-13.79908 7.69886,-37.5963 9.45117,-54.52148 1.67032,-16.13668 2.23341,-42.25237 -0.0977,-59.33399 -2.60184,-19.0657 -7.41744,-40.15948 -13.13281,-56.81445 -15.37181,-44.79453 -41.49729,-80.288256 -78.0293,-104.291015 -12.00575,-7.888181 -28.75952,-16.25087 -42.24609,-20.886719 -9.52515,-3.27416 -22.31361,-6.243402 -40.44922,-9.919922 -9.10822,-1.84645 -2.3683,0.771176 -9.41406,-3.464843 -8.59803,-5.169266 -9.66422,-6.228546 -19.60938,-20.802735 l -0.002,-0.002 -3.91992,-5.7460936 C 144.63923,2.3252592 136.84998,-1.6488518 128.61319,-1.4161026 Z"
     id="path3342"
     inkscape:connector-curvature="0"
     sodipodi:nodetypes="ccccccccccsssssscsscsscsssscccccssssssccccc" />
  <path
     style="opacity:1;fill:#000000;fill-opacity:1;stroke:#000000;stroke-width:0;stroke-miterlimit:4;stroke-dasharray:none;stroke-opacity:1"
     d="m 116.97272,339.93545 c -4.82522,-1.72183 -6.52954,-4.39964 -6.50836,-10.22584 0.0268,-7.36871 4.73716,-17.39157 14.41301,-30.66852 8.10211,-11.11749 12.35894,-15.17847 20.00326,-19.08294 24.24503,-12.38355 38.51492,-32.07543 43.66679,-60.25841 0.57316,-3.13545 1.20144,-10.97409 1.39617,-17.41921 l 0.35406,-11.71841 -9.28844,9.09762 c -10.60783,10.3899 -18.46514,16.49245 -25.69421,19.95598 -4.41003,2.1129 -5.63432,2.40364 -10.04435,2.38529 -2.7622,-0.0115 -5.62484,-0.23593 -6.36142,-0.49876 -1.16289,-0.41494 -1.99668,0.64504 -6.33178,8.04943 -8.89663,15.19554 -19.24885,27.39589 -27.19951,32.05529 -7.762047,4.54885 -21.364142,7.71653 -23.587576,5.49309 -1.34831,-1.34831 -0.900507,-4.33546 0.986029,-6.57747 0.984268,-1.16974 6.205568,-5.08021 11.602888,-8.68994 13.449339,-8.99492 15.250219,-11.349 15.896629,-20.77986 0.58571,-8.54529 -1.61341,-11.0806 -9.14245,-10.5401 -7.033957,0.50495 -12.296121,3.82981 -17.099604,10.80426 -2.630829,3.81985 -5.725533,11.46637 -5.725533,14.14689 0,2.23549 -5.745399,9.49512 -9.637123,12.17704 -5.831553,4.01872 -9.908871,2.7606 -17.727119,-5.46998 -9.803643,-10.32069 -12.478343,-16.20623 -12.478343,-27.45799 0,-10.42483 0.682294,-11.88648 10.585554,-22.67696 4.43969,-4.83744 10.244515,-11.71056 12.899611,-15.2736 6.385105,-8.56858 20.37516,-31.11583 20.37516,-32.83788 0,-0.74745 0.474047,-4.55155 1.053439,-8.45356 2.384937,-16.06172 9.384747,-31.74154 20.865718,-46.739929 2.12373,-2.774383 4.25601,-5.592908 4.73838,-6.263381 0.75486,-1.049213 0.55631,-1.857522 -1.42505,-5.801751 -2.66146,-5.298087 -5.39007,-13.266995 -6.84269,-19.984036 C 99.447215,60.815431 98.718985,46.708571 99.370663,40.6233 l 0.492677,-4.600552 9.82151,9.805141 9.82152,9.80514 3.81188,0 c 3.78492,0 3.81427,-0.01539 4.14951,-2.176275 0.18568,-1.196952 0.5078,-5.942907 0.71581,-10.546567 0.20801,-4.60366 0.5601,-11.000485 0.78241,-14.215167 l 0.40421,-5.844876 4.69406,6.849311 c 9.96132,14.535025 15.14814,19.849083 25.6033,26.231401 l 8.03548,4.905233 13.39247,2.790935 c 28.85663,6.013608 37.16787,8.678229 54.57429,17.496777 39.70765,20.116939 67.47197,52.875619 83.67293,98.724349 5.33708,15.10394 10.21483,35.71895 12.5411,53.0029 1.59262,11.83302 1.58793,42.55059 -0.009,57.15013 -1.73347,15.85047 -5.44499,36.92444 -8.50354,48.28306 l -0.70237,2.60831 -101.58952,-0.0294 c -83.21376,-0.0241 -102.04488,-0.19189 -104.10696,-0.92771 z m 193.61037,-15.28127 c 3.03782,-9.5955 5.82309,-43.3299 5.15555,-62.44237 C 313.40588,195.42282 303.29746,166.7116 267.99807,126.6131 241.67862,96.715388 215.05314,79.67197 194.34423,79.46602 c -7.75877,-0.07716 -8.99221,0.810189 -9.41921,6.776265 -0.38003,5.310053 0.80732,6.661762 8.68671,9.889152 15.17091,6.213973 26.51289,12.703563 35.74011,20.449533 5.24706,4.40475 25.75396,25.37077 32.08106,32.79932 19.1551,22.48968 31.77625,61.06342 34.61745,105.80048 0.66182,10.42082 0.59985,16.33235 -0.39025,37.22652 -1.05637,22.29271 -1.058,27.83819 -0.01,32.91651 0.29849,1.44598 0.59157,1.50666 7.27737,1.50666 l 6.96636,0 0.68897,-2.17628 z M 62.022943,238.24905 c 0.8028,-0.44732 3.157967,-2.69062 5.233704,-4.98512 2.538994,-2.80658 5.291955,-4.96944 8.412343,-6.60916 4.811308,-2.52827 6.962825,-4.97728 7.726287,-8.79459 0.532051,-2.66025 -1.311931,-4.37243 -6.650778,-6.17538 -11.61799,-3.92346 -22.006678,0.12832 -24.649434,9.61372 -1.094397,3.92803 -1.070915,11.05992 0.04513,13.70664 1.469557,3.48511 6.491479,5.13348 9.882748,3.24389 z m 54.119097,-73.53002 c 6.90734,-2.47431 14.15085,-3.21047 19.75781,-2.00799 4.71516,1.01122 5.07789,0.57778 4.15871,-4.96933 -0.93454,-5.63972 -2.74279,-9.34671 -6.33062,-12.97804 -6.61791,-6.69814 -16.36569,-8.86467 -29.00443,-6.44648 -8.980263,1.71821 -13.692345,5.00682 -13.692345,9.55603 0,2.56373 1.336663,3.68138 7.031045,5.87896 6.05888,2.33825 8.06965,4.47109 9.15102,9.70658 0.65219,3.15759 1.07668,4.00782 1.87277,3.75108 0.56619,-0.18259 3.7414,-1.30346 7.05604,-2.49081 z m 36.93034,-46.93897 c 3.52028,-1.72631 4.58942,-4.10488 4.55568,-10.13528 -0.0169,-3.01011 -0.40871,-7.17587 -0.8708,-9.257235 -0.8359,-3.765044 -0.85782,-3.790075 -4.30829,-4.918664 -6.07357,-1.986565 -6.81992,-2.870515 -9.62826,-11.403292 -1.39079,-4.22571 -2.69399,-7.683108 -2.89601,-7.683108 -0.72636,0 -4.89156,6.94071 -6.4147,10.689183 -2.53003,6.226452 -3.22445,11.786019 -2.32171,18.587746 1.22318,9.21601 3.24097,12.69083 8.51364,14.66128 2.99398,1.11887 10.61475,0.81073 13.37045,-0.54063 z"
     id="path3345"
     inkscape:connector-curvature="0"
     transform="scale(0.8,0.8)" />
</svg>
