<?xml version="1.0" encoding="UTF-8" standalone="no"?>
<svg
   xmlns:dc="http://purl.org/dc/elements/1.1/"
   xmlns:cc="http://creativecommons.org/ns#"
   xmlns:rdf="http://www.w3.org/1999/02/22-rdf-syntax-ns#"
   xmlns:svg="http://www.w3.org/2000/svg"
   xmlns="http://www.w3.org/2000/svg"
   xmlns:sodipodi="http://sodipodi.sourceforge.net/DTD/sodipodi-0.dtd"
   xmlns:inkscape="http://www.inkscape.org/namespaces/inkscape"
   version="1.0"
   width="300.000000pt"
   height="300.000000pt"
   viewBox="0 0 300.000000 300.000000"
   preserveAspectRatio="xMidYMid meet"
   id="svg2"
   inkscape:version="0.92.2 (5c3e80d, 2017-08-06)"
   sodipodi:docname="bp.svg">
  <defs
     id="defs12" />
  <sodipodi:namedview
     pagecolor="#ffffff"
     bordercolor="#666666"
     borderopacity="1"
     objecttolerance="10"
     gridtolerance="10"
     guidetolerance="10"
     inkscape:pageopacity="0"
     inkscape:pageshadow="2"
     inkscape:window-width="1920"
     inkscape:window-height="1018"
     id="namedview10"
     showgrid="false"
     inkscape:zoom="1.493377"
     inkscape:cx="-13.734759"
     inkscape:cy="198.79265"
     inkscape:window-x="-8"
     inkscape:window-y="-8"
     inkscape:window-maximized="1"
     inkscape:current-layer="svg2"
     inkscape:pagecheckerboard="true" />
  <metadata
     id="metadata4">
Created by potrace 1.12, written by Peter Selinger 2001-2015
<rdf:RDF>
  <cc:Work
     rdf:about="">
    <dc:format>image/svg+xml</dc:format>
    <dc:type
       rdf:resource="http://purl.org/dc/dcmitype/StillImage" />
    <dc:title></dc:title>
  </cc:Work>
</rdf:RDF>
</metadata>
  <path
     transform="scale(0.8,0.8)"
     style="opacity:1;fill:#ffffff;fill-opacity:1;stroke:#000000;stroke-width:0;stroke-miterlimit:4;stroke-dasharray:none;stroke-opacity:1"
     d="m 187.66992,15.490234 c -2.85326,0.0025 -5.67202,0.226081 -8.42383,0.623047 -26.98924,3.893381 -48.84718,24.61695 -48.8164,53.072266 0.003,2.788741 0.57927,6.014819 1.38086,9.300781 -1.03376,0.598514 -6.03722,2.810319 -5.75,2.716797 -15.51466,5.051794 -29.284779,12.851878 -39.783206,25.306645 -10.524805,12.48609 -17.427482,26.92896 -18.572266,43.37304 l -0.361328,5.18946 c -0.915741,13.17024 9.520618,24.35833 22.722656,24.35937 l 33.912114,0 9.82226,0 -1.7168,3.55664 -0.002,0 c -14.16926,29.32748 -21.26574,54.13321 -14.40625,77.92969 0.31555,1.09468 0.63733,1.94938 0.94531,2.94726 -9.89859,1.80207 -19.497871,4.70834 -28.341793,9.05274 -6.724221,3.30314 -13.314204,8.02333 -18.519531,13.26758 -11.973348,12.06288 -19.011719,28.69172 -19.011719,45.68164 l 0,4.91601 c 0.0011,12.57913 10.198213,22.77626 22.777344,22.77735 l 112.162109,0 112.16211,0 c 12.59593,-0.001 22.80001,-10.22441 22.77734,-22.82032 l -0.01,-5.18945 c -0.0485,-25.41329 -16.21616,-48.24211 -39.27344,-59.42969 -8.3548,-4.05382 -17.4509,-6.62519 -27.37305,-8.2832 1.82149,-4.71467 3.14566,-9.58581 3.53711,-14.18359 1.75833,-20.65282 -4.25918,-41.29965 -16.55664,-66.68555 l 0,-0.002 -1.71289,-3.53516 9.38086,0 33.80469,0 c 10.44951,-8.5e-4 19.55835,-7.11128 22.0957,-17.24805 l 0.43555,-1.74023 c 1.28274,-5.11084 0.88594,-6.29589 0.88476,-8.29688 -10e-4,-2.00098 -0.0935,-3.90827 -0.24023,-5.875 -0.29343,-3.93346 -0.64104,-7.58115 -1.75195,-12.1621 -6.3118,-26.02693 -29.09564,-44.183969 -57.10938,-52.832036 -2.08763,-0.64447 -3.36332,-1.116467 -5.06836,-1.683594 0.13558,-1.044507 0.33326,-2.114765 0.44141,-3.136719 0.97585,-9.221474 0.17811,-18.608046 -4.42969,-28.421875 -6.46059,-13.759956 -14.3762,-20.69391 -27.2832,-26.792968 -7.54286,-3.564305 -16.17907,-5.759382 -24.72852,-5.751954 z"
     id="path3340"
     inkscape:connector-curvature="0"
     sodipodi:nodetypes="cssccscccccccscsssccccccscsccccccccssscssscc" />
  <path
     style="opacity:1;fill:#000000;fill-opacity:1;stroke:#000000;stroke-width:0;stroke-miterlimit:4;stroke-dasharray:none;stroke-opacity:1"
     d="m 75.526019,331.86795 c 0,-11.28159 4.240807,-21.4177 12.400145,-29.63805 4.556399,-4.59047 6.462248,-5.95405 12.395596,-8.86869 11.4074,-5.60365 25.85947,-8.79728 39.90884,-8.81907 3.63566,-0.005 6.96411,-0.23529 7.39655,-0.51035 0.47036,-0.29918 1.01435,-3.66528 1.35399,-8.37833 l 0.56775,-7.87822 -2.20792,-1.48837 c -2.94843,-1.98754 -6.53837,-7.37743 -7.77794,-11.67767 -4.25955,-14.77695 -0.0774,-34.58756 13.02812,-61.71331 l 5.29853,-10.9669 0,-12.63732 0,-12.63732 -33.91166,0 -33.911658,0 0.361282,-5.18958 c 0.673756,-9.67807 5.83758,-21.46346 13.265226,-30.27524 6.1218,-7.26257 17.82218,-14.55154 29.42075,-18.3282 2.7622,-0.89941 7.43282,-3.065865 10.37916,-4.814345 2.94634,-1.74848 7.4663,-4.148483 10.04435,-5.333338 2.57805,-1.184856 5.21475,-2.749892 5.85934,-3.477857 1.12849,-1.274466 1.05971,-1.52037 -1.85375,-6.627686 -3.51589,-6.163395 -4.33153,-8.692566 -4.33666,-13.447338 -0.0155,-14.330665 13.30089,-28.198626 29.29214,-30.505472 7.10653,-1.025163 13.35383,-0.03991 20.16995,3.18098 6.25203,2.954327 13.72662,10.192682 16.39582,15.877623 4.48941,9.56168 2.91824,24.415385 -3.0498,28.832568 -1.70398,1.261183 -1.75241,1.442457 -0.851,3.185589 2.3624,4.568383 8.66945,7.69369 26.85692,13.308316 23.54568,7.26874 37.59802,19.54918 41.69324,36.43597 1.03864,4.28291 1.70467,13.21349 1.15019,15.42271 l -0.44055,1.7553 -33.80322,0 -33.80322,0 0,12.30524 0,12.30523 5.63566,11.6338 c 11.49999,23.73966 15.65593,39.60616 14.36028,54.8245 -0.64501,7.57599 -2.722,12.32535 -7.39212,16.9032 l -3.92307,3.84556 0.4491,7.39422 c 0.24699,4.06682 0.73415,7.5704 1.08256,7.78573 0.34841,0.21533 5.04842,0.64294 10.44446,0.95024 15.33787,0.87348 26.21235,3.29858 35.9263,8.01187 16.75527,8.12979 26.40853,22.3611 26.44022,38.97949 l 0.01,5.18958 -112.1619,0 -112.161901,0 0,-4.91506 z"
     id="path3343"
     inkscape:connector-curvature="0"
     transform="scale(0.8,0.8)" />
</svg>
