<?xml version="1.0" encoding="UTF-8" standalone="no"?>
<svg
   xmlns:dc="http://purl.org/dc/elements/1.1/"
   xmlns:cc="http://creativecommons.org/ns#"
   xmlns:rdf="http://www.w3.org/1999/02/22-rdf-syntax-ns#"
   xmlns:svg="http://www.w3.org/2000/svg"
   xmlns="http://www.w3.org/2000/svg"
   xmlns:sodipodi="http://sodipodi.sourceforge.net/DTD/sodipodi-0.dtd"
   xmlns:inkscape="http://www.inkscape.org/namespaces/inkscape"
   version="1.0"
   width="300.000000pt"
   height="300.000000pt"
   viewBox="0 0 300.000000 300.000000"
   preserveAspectRatio="xMidYMid meet"
   id="svg2"
   inkscape:version="0.92.2 (5c3e80d, 2017-08-06)"
   sodipodi:docname="bq.svg">
  <defs
     id="defs12" />
  <sodipodi:namedview
     pagecolor="#ffffff"
     bordercolor="#666666"
     borderopacity="1"
     objecttolerance="10"
     gridtolerance="10"
     guidetolerance="10"
     inkscape:pageopacity="0"
     inkscape:pageshadow="2"
     inkscape:window-width="1920"
     inkscape:window-height="1018"
     id="namedview10"
     showgrid="false"
     inkscape:zoom="1.493377"
     inkscape:cx="97.768771"
     inkscape:cy="159.02482"
     inkscape:window-x="-8"
     inkscape:window-y="-8"
     inkscape:window-maximized="1"
     inkscape:current-layer="svg2"
     inkscape:pagecheckerboard="true" />
  <metadata
     id="metadata4">
Created by potrace 1.12, written by Peter Selinger 2001-2015
<rdf:RDF>
  <cc:Work
     rdf:about="">
    <dc:format>image/svg+xml</dc:format>
    <dc:type
       rdf:resource="http://purl.org/dc/dcmitype/StillImage" />
    <dc:title></dc:title>
  </cc:Work>
</rdf:RDF>
</metadata>
  <path
     transform="scale(0.8,0.8)"
     style="opacity:1;fill:#ffffff;fill-opacity:1;stroke:#000000;stroke-width:0;stroke-miterlimit:4;stroke-dasharray:none;stroke-opacity:1"
     d="m 138.23438,9.2597656 c -5.64501,-0.1693123 -11.08866,0.088146 -17.99805,2.6933594 -13.7268,5.17574 -24.427538,15.079599 -28.718752,30.294922 -3.222795,11.426976 -2.950584,17.388306 0.707031,28.400391 l 0,0.002 c 2.415237,7.271574 5.909424,12.61152 10.449221,16.958984 -2.3061,8.909644 -5.306935,20.431608 -8.378908,32.175788 -1.555754,5.94765 -2.849293,10.84273 -4.326172,16.46484 -2.527358,-2.06007 -4.884811,-3.99408 -7.033203,-5.79102 0.102126,-4.41671 -0.543602,-8.56268 -1.611328,-12.50781 C 79.34175,110.62617 75.9669,103.54717 68.84375,97.292969 48.395248,79.338951 13.709293,85.560075 1.5859375,110.24805 -4.5117929,122.66545 -5.1331355,133.71728 0.88476562,146.85938 9.0350179,161.6651 15.789554,163.91929 23.379182,168.72634 L 37.046875,199.9082 53.527344,238 l 4.822265,41.09375 0.002,0.002 5.216797,44.4336 c 0.651599,5.54636 3.305297,10.66416 7.462891,14.39258 l 1.794922,1.60937 0.0059,0.006 c 20.574565,18.43612 50.122531,25.80644 87.236331,28.79492 16.26639,1.30981 48.0532,0.91914 64.21875,-1.05859 29.04179,-3.55303 53.57864,-10.94469 73.54101,-23.74805 1.32242,-0.84816 2.54244,-1.63445 3.48047,-2.24414 0.46902,-0.30484 0.86105,-0.56181 1.20508,-0.78906 0.17202,-0.11363 0.3241,-0.21376 0.53321,-0.35547 0.20897,-0.14162 -1.7109,1.74073 2.34179,-1.79688 3.9e-4,-3.3e-4 5.04706,-6.18095 5.68555,-7.54296 0.63849,-1.36202 0.87162,-2.10449 1.06055,-2.68946 0.37785,-1.16994 0.47092,-1.654 0.56054,-2.05469 0.17924,-0.80137 0.21636,-1.07995 0.25781,-1.33203 0.0829,-0.50416 0.10586,-0.69785 0.13282,-0.90234 0.0539,-0.40898 0.0886,-0.70945 0.13086,-1.07813 0.0845,-0.73735 0.18449,-1.66162 0.30859,-2.83593 0.2482,-2.34863 0.58616,-5.65391 0.99609,-9.72266 0.81987,-8.13749 1.92289,-19.30131 3.11329,-31.56445 l 3.94921,-40.70313 17.1543,-37.65234 0.002,-0.002 14.22822,-31.43774 c 0,0 18.56474,-12.77613 22.16436,-20.3025 2.57572,-4.84932 4.20823,-13.75297 4.20703,-19.32617 -0.001,-5.68705 -2.0826,-15.29507 -4.42968,-19.76758 -7.67539,-14.625843 -24.52154,-24.219827 -41.13282,-23.027342 -22.66331,1.62693 -40.24358,21.619162 -39.73437,43.587892 -2.23042,1.7848 -4.91383,3.90163 -8.24219,6.49023 -1.23149,-5.02516 -2.16945,-8.81857 -3.53906,-14.43164 -3.23353,-13.25195 -6.20605,-25.411222 -8.39258,-34.333982 -0.0645,-0.26309 -0.0912,-0.37346 -0.1543,-0.63086 8.23481,-8.589524 13.56836,-20.487869 13.56836,-31.873047 0,-16.373444 -10.57692,-33.847747 -25.375,-41.132812 -4.75621,-2.341476 -14.71539,-4.558594 -21.64062,-4.558594 -6.77927,0 -16.37242,1.965678 -20.89258,4.185547 -9.52926,4.679852 -15.3166,9.079596 -20.91797,19.980469 -5.14978,10.02199 -6.43045,15.057694 -4.66601,27.103515 3.88404,16.716709 4.13291,12.207798 2.76026,10.819156 l -8.47316,16.155454 c -2.77186,-5.614738 -5.68291,-11.496918 -7.78515,-15.830078 -0.0359,-0.07399 -0.0484,-0.104309 -0.084,-0.177735 4.70659,-11.280206 4.3639,-23.643395 -0.57031,-35.113281 C 173.93205,23.373233 168.31431,18.525803 156.04102,13.03125 149.30026,10.013539 143.88126,9.4291348 138.23438,9.2597656 Z M 116.76172,96.835938 c 0.87634,0.42047 0.37024,0.166311 1.11719,0.537109 -0.12545,-0.04912 -0.19535,0.08595 -1.11719,-0.537109 z"
     id="path3340"
     inkscape:connector-curvature="0"
     sodipodi:nodetypes="ssscccsccsssccccccccccssscsccssssccsscccccccssccsccssssscccccsssccc" />
  <path
     style="opacity:1;fill:#000000;fill-opacity:1;stroke:#000000;stroke-width:0;stroke-miterlimit:4;stroke-dasharray:none;stroke-opacity:1"
     d="m 165.93805,345.73572 c -20.9448,-1.31082 -40.79567,-4.9088 -53.5715,-9.70984 -9.1444,-3.43639 -18.981378,-8.9374 -24.066758,-13.45856 L 86.330604,320.81661 81.100395,276.36626 75.870187,231.9159 58.765106,192.37055 c -9.407795,-21.74994 -17.427808,-40.25366 -17.822252,-41.11937 -0.542858,-1.19144 -1.466203,-1.68634 -3.798908,-2.03615 -6.833868,-1.02481 -13.650071,-6.583 -15.795867,-12.88057 -1.349897,-3.96173 -1.349897,-10.45712 0,-14.41885 1.433615,-4.20743 5.603941,-8.75185 10.009332,-10.9072 2.962955,-1.44965 4.592453,-1.78606 8.65099,-1.78606 8.076112,0 14.119317,3.74092 17.736411,10.97937 1.722772,3.44757 2.05393,4.88517 2.041609,8.86286 -0.01,3.21739 -0.427045,5.6561 -1.293898,7.56555 l -1.279191,2.81774 22.748052,18.19339 c 12.511427,10.00636 22.905616,18.03583 23.098186,17.84325 0.45894,-0.45894 25.69581,-96.276498 25.70256,-97.585654 0.003,-0.570774 -1.367,-1.567939 -3.17303,-2.30961 -4.30099,-1.766264 -9.06023,-6.368474 -10.96675,-10.604903 -1.29058,-2.867776 -1.5725,-4.627303 -1.57867,-9.852679 -0.007,-5.99639 0.12581,-6.607341 2.31565,-10.647094 4.94756,-9.127092 15.01122,-13.931591 25.39422,-12.12347 5.71157,0.994628 10.11245,3.431213 14.12287,7.819258 3.9728,4.346876 5.37027,8.231244 5.36166,14.903187 -0.007,5.413482 -1.86454,10.765103 -4.83824,13.938937 l -1.40802,1.502787 16.65308,33.819551 c 9.15919,18.60076 16.86079,33.59368 17.11466,33.31763 0.61796,-0.67196 34.76002,-66.223624 34.76002,-66.738111 0,-0.221615 -0.887,-1.627404 -1.97111,-3.123977 -4.59602,-6.344613 -5.3888,-16.207094 -1.85849,-23.119909 4.52199,-8.854643 15.34882,-14.071405 25.73295,-12.399089 8.12912,1.309155 14.28424,5.625395 17.58588,12.33197 5.23317,10.630086 2.21012,23.062226 -7.04801,28.984581 -1.97069,1.260639 -3.84129,2.292071 -4.15688,2.292071 -0.3156,0 -1.119,0.398648 -1.78533,0.885885 -1.14662,0.838426 -0.5708,3.511538 10.74829,49.896299 8.98416,36.81639 12.17878,48.92638 12.83988,48.67269 0.90079,-0.34567 47.0082,-35.76679 47.0082,-36.11314 0,-0.10526 -0.52733,-1.21701 -1.17184,-2.47054 -0.84537,-1.6442 -1.17184,-3.86486 -1.17184,-7.97096 0,-5.12578 0.20634,-6.05804 2.07501,-9.37472 6.36206,-11.29195 21.3452,-13.72949 30.96595,-5.03772 10.21252,9.22639 7.80515,26.55006 -4.56027,32.81609 -1.69212,0.85746 -4.44678,1.7645 -6.12147,2.01563 l -3.04488,0.45661 -18.77522,41.29045 -18.77522,41.29046 -4.25544,44.39606 -4.25545,44.39607 -4.70634,3.03419 c -17.20963,11.0951 -39.70596,17.84817 -69.9946,21.01136 -9.11498,0.95193 -38.87226,1.34027 -49.8853,0.65102 z m -44.13518,-36.40339 c 21.4151,-5.37039 33.89118,-6.65956 64.89187,-6.70534 24.11701,-0.0356 34.0073,0.56034 48.94594,2.94932 7.86033,1.25703 23.14868,4.89977 28.86689,6.87811 2.57485,0.89082 2.98751,0.86901 4.83679,-0.25561 2.27223,-1.38182 3.04526,-3.47942 2.99722,-8.13292 -0.062,-6.00665 -6.09447,-10.77022 -18.01489,-14.22556 -28.74672,-8.33271 -90.61932,-9.27193 -125.88918,-1.91098 -12.92525,2.69755 -21.0625,6.48628 -24.4037,11.36245 -1.29523,1.89025 -1.49306,2.87921 -1.24951,6.24618 0.43056,5.9525 3.46175,8.73863 7.61795,7.00206 1.14811,-0.47972 6.2784,-1.92319 11.40062,-3.20771 z m -14.0584,-31.9546 c 7.34684,-2.26919 10.90314,-7.08214 8.08291,-10.93903 -1.87056,-2.55814 -10.18475,-2.36693 -16.572806,0.38114 -4.284778,1.84326 -5.607037,3.43128 -5.607037,6.73398 0,5.27297 5.007617,6.63132 14.096933,3.82391 z m 173.39758,-0.23552 c 3.04887,-3.04886 1.76911,-7.28464 -2.92434,-9.67906 -4.81192,-2.45486 -12.37951,-3.6141 -16.02982,-2.45554 -1.40578,0.44618 -2.83903,3.01786 -2.83903,5.09407 0,3.82774 9.21694,8.64061 16.60361,8.67004 2.88321,0.0115 3.85317,-0.29308 5.18958,-1.62951 z m -81.73957,-11.1033 c 1.46487,-0.43592 3.80018,-1.92938 5.18958,-3.31878 2.25916,-2.25916 2.52619,-2.88595 2.52619,-5.92978 0,-2.82109 -0.34118,-3.79217 -1.99352,-5.67408 -3.50208,-3.98866 -13.68504,-5.93596 -23.70068,-4.53231 -9.80576,1.37424 -13.47876,4.1519 -13.47876,10.19316 0,5.13689 3.51478,8.47916 10.45832,9.94501 3.76897,0.79566 17.53431,0.3478 20.99887,-0.68322 z m -81.52142,-27.34642 c 25.89882,-6.58703 36.77582,-7.79069 70.15293,-7.76323 28.22572,0.0232 37.49618,0.79122 56.0876,4.64649 8.18836,1.69799 32.15697,8.0854 33.95871,9.04966 0.62163,0.33269 1.92457,0.18584 3.23319,-0.36439 5.17225,-2.17477 5.59999,-12.56184 0.68752,-16.69542 -4.29339,-3.61263 -14.99737,-7.89562 -28.54697,-11.42248 -29.09228,-7.57252 -76.67522,-9.08037 -113.59745,-3.59979 -17.59116,2.61116 -37.45016,8.64525 -45.046928,13.68737 -3.065602,2.03469 -3.625267,2.76831 -4.557034,5.97351 -1.225947,4.21708 -0.832041,7.57958 1.188896,10.14878 2.18569,2.77865 3.531426,2.89684 9.976576,0.87618 3.24858,-1.01849 10.65692,-3.06 16.46296,-4.53668 z"
     id="path3343"
     inkscape:connector-curvature="0"
     transform="scale(0.8,0.8)" />
</svg>
