<?xml version="1.0" encoding="UTF-8" standalone="no"?>
<svg
   xmlns:dc="http://purl.org/dc/elements/1.1/"
   xmlns:cc="http://creativecommons.org/ns#"
   xmlns:rdf="http://www.w3.org/1999/02/22-rdf-syntax-ns#"
   xmlns:svg="http://www.w3.org/2000/svg"
   xmlns="http://www.w3.org/2000/svg"
   xmlns:sodipodi="http://sodipodi.sourceforge.net/DTD/sodipodi-0.dtd"
   xmlns:inkscape="http://www.inkscape.org/namespaces/inkscape"
   version="1.0"
   width="300.000000pt"
   height="300.000000pt"
   viewBox="0 0 300.000000 300.000000"
   preserveAspectRatio="xMidYMid meet"
   id="svg2"
   inkscape:version="0.92.2 (5c3e80d, 2017-08-06)"
   sodipodi:docname="br.svg">
  <defs
     id="defs12" />
  <sodipodi:namedview
     pagecolor="#ffffff"
     bordercolor="#666666"
     borderopacity="1"
     objecttolerance="10"
     gridtolerance="10"
     guidetolerance="10"
     inkscape:pageopacity="0"
     inkscape:pageshadow="2"
     inkscape:window-width="1920"
     inkscape:window-height="1018"
     id="namedview10"
     showgrid="false"
     inkscape:zoom="1.493377"
     inkscape:cx="17.079171"
     inkscape:cy="176.69509"
     inkscape:window-x="-8"
     inkscape:window-y="-8"
     inkscape:window-maximized="1"
     inkscape:current-layer="svg2"
     inkscape:pagecheckerboard="true" />
  <metadata
     id="metadata4">
Created by potrace 1.12, written by Peter Selinger 2001-2015
<rdf:RDF>
  <cc:Work
     rdf:about="">
    <dc:format>image/svg+xml</dc:format>
    <dc:type
       rdf:resource="http://purl.org/dc/dcmitype/StillImage" />
    <dc:title></dc:title>
  </cc:Work>
</rdf:RDF>
</metadata>
  <path
     transform="scale(0.8,0.8)"
     style="opacity:1;fill:#ffffff;fill-opacity:1;stroke:#000000;stroke-width:0;stroke-miterlimit:4;stroke-dasharray:none;stroke-opacity:1"
     d="M 158.23633,7.9882812 A 24.787587,24.787587 0 0 0 137.89453,18.662109 24.787587,24.787587 0 0 0 118.03125,8.6582031 l -21.414062,0 -21.414063,0 A 24.787587,24.787587 0 0 0 50.417969,33.443359 l 0,30.994141 0,30.994141 a 24.787587,24.787587 0 0 0 7.546875,17.808589 l 14.730468,14.25782 a 24.787587,24.787587 0 0 0 0.002,0.002 l 7.183593,6.95117 0,51.51172 0,51.78516 -5.171875,5.19726 a 24.787587,24.787587 0 0 0 -0.002,0.002 l -12.386719,12.45117 a 24.787587,24.787587 0 0 0 -7.214843,17.48047 l 0,-0.70703 -1.761719,1.63671 -9.679688,8.99024 a 24.787587,24.787587 0 0 0 -7.917968,18.12695 l -0.0293,21.25781 -0.03125,21.25782 a 24.787587,24.787587 0 0 0 24.785156,24.82226 l 127.228517,0 127.22851,0 a 24.787587,24.787587 0 0 0 24.78516,-24.78515 l 0,-20.97266 0,-20.97461 a 24.787587,24.787587 0 0 0 -7.86719,-18.11328 l -9.98437,-9.32617 -2.31641,-2.16407 0.008,0.42579 a 24.787587,24.787587 0 0 0 -6.98046,-16.76758 l -12.00586,-12.38867 a 24.787587,24.787587 0 0 0 -0.002,-0.002 l -5.01953,-5.17969 -0.0137,-51.91015 -0.0117,-51.66992 7.46485,-7.45703 14.73046,-14.71875 a 24.787587,24.787587 0 0 0 7.26563,-17.533208 l 0,-30.642578 0,-30.640625 A 24.787587,24.787587 0 0 0 300.19531,8.6582031 l -21.76172,0 -21.76367,0 A 24.787587,24.787587 0 0 0 236.83398,18.626953 24.787587,24.787587 0 0 0 216.49219,7.9882812 l -29.12696,0 -29.1289,0 z"
     id="path3351" />
  <path
     style="opacity:1;fill:#000000;fill-opacity:1;stroke:#000000;stroke-width:0;stroke-miterlimit:4;stroke-dasharray:none;stroke-opacity:1"
     d="m 60.501086,322.2187 0.03033,-21.26054 9.679203,-8.99026 9.679203,-8.99024 0,-5.04942 0,-5.04941 12.38803,-12.45054 12.388038,-12.45055 0,-62.01492 0,-62.01491 -14.731719,-14.25807 -14.731712,-14.25807 0,-30.994055 0,-30.994055 21.414627,0 21.414634,0 0.18072,14.229495 0.18072,14.229494 19.9213,0.177371 19.92129,0.17737 0,-14.741676 0,-14.741677 29.12861,0 29.12861,0 0,14.731712 0,14.731712 20.0887,0 20.0887,0 0,-14.3969 0,-14.396901 21.76276,0 21.76275,0 0,30.640973 0,30.640973 -14.73171,14.720294 -14.73171,14.7203 0.0143,61.94586 0.0143,61.94586 12.00607,12.38803 12.00607,12.38803 0.0927,5.02218 0.0927,5.02217 9.98449,9.32659 9.98452,9.3266 0,20.97386 0,20.97386 -127.22843,0 -127.228423,0 0.03034,-21.26054 z m 195.499664,-73.15634 0,-12.72285 -68.9712,0 -68.9712,0 0,12.27643 c 0,6.75204 0.20089,12.47732 0.44642,12.72284 0.24553,0.24553 31.28256,0.44642 68.9712,0.44642 l 68.52478,0 0,-12.72284 z m 0,-126.5588 0,-12.72285 -68.9712,0 -68.9712,0 0,12.72285 0,12.72284 68.9712,0 68.9712,0 0,-12.72284 z"
     id="path3354"
     inkscape:connector-curvature="0"
     transform="scale(0.8,0.8)" />
</svg>
