<?xml version="1.0" encoding="UTF-8" standalone="no"?>
<svg
   xmlns:dc="http://purl.org/dc/elements/1.1/"
   xmlns:cc="http://creativecommons.org/ns#"
   xmlns:rdf="http://www.w3.org/1999/02/22-rdf-syntax-ns#"
   xmlns:svg="http://www.w3.org/2000/svg"
   xmlns="http://www.w3.org/2000/svg"
   xmlns:sodipodi="http://sodipodi.sourceforge.net/DTD/sodipodi-0.dtd"
   xmlns:inkscape="http://www.inkscape.org/namespaces/inkscape"
   version="1.0"
   width="300.000000pt"
   height="300.000000pt"
   viewBox="0 0 300.000000 300.000000"
   preserveAspectRatio="xMidYMid meet"
   id="svg2"
   inkscape:version="0.92.2 (5c3e80d, 2017-08-06)"
   sodipodi:docname="wb.svg">
  <defs
     id="defs12" />
  <sodipodi:namedview
     pagecolor="#ffffff"
     bordercolor="#666666"
     borderopacity="1"
     objecttolerance="10"
     gridtolerance="10"
     guidetolerance="10"
     inkscape:pageopacity="0"
     inkscape:pageshadow="2"
     inkscape:window-width="1920"
     inkscape:window-height="1018"
     id="namedview10"
     showgrid="false"
     inkscape:zoom="1.493377"
     inkscape:cx="-13.734759"
     inkscape:cy="173.34696"
     inkscape:window-x="-8"
     inkscape:window-y="-8"
     inkscape:window-maximized="1"
     inkscape:current-layer="svg2"
     inkscape:pagecheckerboard="true" />
  <metadata
     id="metadata4">
Created by potrace 1.12, written by Peter Selinger 2001-2015
<rdf:RDF>
  <cc:Work
     rdf:about="">
    <dc:format>image/svg+xml</dc:format>
    <dc:type
       rdf:resource="http://purl.org/dc/dcmitype/StillImage" />
    <dc:title></dc:title>
  </cc:Work>
</rdf:RDF>
</metadata>
  <path
     transform="scale(0.8,0.8)"
     style="opacity:1;fill:#ffffff;fill-opacity:1;stroke:#000000;stroke-width:0;stroke-opacity:1;stroke-miterlimit:4;stroke-dasharray:none"
     d="m 219.41211,1.7597656 c -6.31282,0.076314 -12.79933,1.5679241 -18.78906,4.5527344 -4.05476,2.0205683 -7.56697,4.715657 -10.5918,7.833984 C 182.82197,7.2472611 169.35881,1.8621644 159.50977,1.9023438 136.24519,1.9972427 117.24414,21.501259 117.24414,44.595703 c 0,5.278107 1.36389,11.441832 3.66602,17.201172 -6.9889,8.843738 -14.70054,19.182226 -20.31836,27.650391 -15.076907,22.726614 -24.466469,42.200754 -29.632816,63.070314 -1.83514,7.41309 -2.525509,14.57209 -2.484375,25.375 0.05924,15.5555 2.292108,28.56015 7.511719,44.26562 4.284051,12.89048 10.482202,27.94143 18.861328,40.125 l -2.171875,-3.15429 c -0.497207,5.83628 -0.48668,12.10942 -0.136719,18.45507 -15.961153,-1.47677 -31.575019,-1.52415 -44.759765,1.25391 -22.508459,4.74261 -42.7310576,17.29734 -50.6269532,37.54297 -3.0645295,7.85768 -3.431008,13.81247 -3.7246094,20.49805 -0.2936015,6.68557 -0.4415773,12.66205 1.90625,20.73828 0.4660833,1.60327 0.9134109,3.02686 1.4414062,4.49414 0.2639977,0.73363 0.4999332,1.40476 1.0605469,2.64062 0.2803069,0.61793 0.5458599,1.29975 1.56640625,2.92774 0.51027317,0.81399 1.10128693,1.86131 2.95312505,3.77539 1.851838,1.91408 5.1511122,6.9043 16.2714842,6.9043 8.221271,-10e-6 6.143836,-0.83636 6.794922,-1.03711 0.651086,-0.20076 0.977153,-0.31919 1.289063,-0.43165 0.623819,-0.2249 1.082198,-0.40438 1.59375,-0.60742 1.023103,-0.40607 2.152235,-0.87491 3.373046,-1.39843 10.081996,-4.32353 51.275661,-9.21851 104.564456,-6.37696 l 9.13672,0.48828 c 8.07553,0.43104 15.76537,-3.488 20.16211,-10.27539 l 2.62695,-4.05664 0.002,-0.002 c 1.34574,-2.07717 1.94546,-2.97836 7.95703,-4.65234 -1.66711,0.46422 5.89038,-0.7187 11.85157,-0.72071 5.96118,-0.002 13.79572,1.4835 10.72851,0.54102 6.35669,1.95325 7.55384,3.6956 8.01953,4.49023 l 0,0.002 2.08008,3.54882 c 4.27332,7.28828 12.2567,11.58252 20.69331,11.13087 l 9.19727,-0.49218 -0.004,0.002 c 53.33296,-2.84713 94.53843,2.04589 104.62891,6.37305 1.22082,0.52353 2.34993,0.99236 3.37304,1.39843 0.51156,0.20304 0.96993,0.38252 1.59375,0.60742 0.31191,0.11246 0.63798,0.23089 1.28906,0.43165 0.65109,0.20075 -1.42639,1.0371 6.79493,1.03711 11.12043,0 14.41965,-4.99023 16.27148,-6.9043 1.85183,-1.91408 2.44286,-2.9614 2.95313,-3.77539 1.02054,-1.62798 1.2861,-2.30981 1.5664,-2.92774 0.56062,-1.23586 0.79655,-1.90698 1.06055,-2.64062 0.528,-1.46728 0.97532,-2.89085 1.44141,-4.49414 2.34783,-8.07625 2.19985,-14.05271 1.90625,-20.73828 -0.29361,-6.68558 -0.6601,-12.64039 -3.72461,-20.49805 -7.86992,-20.17902 -28.08784,-32.7939 -50.62696,-37.54297 -13.18582,-2.77829 -28.80115,-2.73105 -44.76367,-1.25391 0.36426,-6.37409 0.38881,-12.66252 -0.12305,-18.49804 l 0,-0.004 -0.0937,-1.05469 -0.40039,0.75586 -0.002,0 c 8.66921,-16.32617 14.29944,-39.14355 17.48633,-60.7539 2.35042,-15.93846 2.70387,-35.58257 -0.0937,-51.21289 -5.30835,-29.65767 -18.56846,-58.210981 -38.95899,-86.302738 0.10953,-0.283317 0.28818,-0.571955 0.39063,-0.853516 3.01423,-8.28439 3.55591,-17.11214 1.00977,-26.279297 C 256.28845,13.998328 238.35446,1.5307795 219.41211,1.7597656 Z"
     id="path4146"
     inkscape:connector-curvature="0"
     sodipodi:nodetypes="sscsscsssscccsssssssssccssccccccscccccccssccssscsssssccccccssccss" />
  <path
     style="opacity:1;fill:#000000;fill-opacity:1;stroke:#000000;stroke-width:0;stroke-miterlimit:4;stroke-dasharray:none;stroke-opacity:1"
     d="m 352.71813,354.41595 c -9.41202,-3.77337 -23.25023,-6.69769 -39.47585,-8.34211 -9.17963,-0.93034 -44.44184,-1.13087 -68.37553,-0.38885 l -17.14936,0.53169 -0.89964,-2.17193 c -0.49481,-1.19457 -2.76677,-4.07618 -5.04881,-6.4036 -4.8684,-4.96519 -11.04607,-8.13683 -19.34931,-9.93401 -7.12157,-1.54141 -22.07696,-1.55433 -29.46342,-0.0254 -10.5482,2.18332 -19.89447,8.21515 -24.25282,15.65211 l -1.77036,3.02091 -9.44921,-0.42936 c -36.02045,-1.63671 -66.314042,-1.18246 -85.394615,1.2805 -9.167429,1.18335 -22.582645,4.32632 -28.400252,6.65373 -2.299856,0.92009 -4.494868,1.67289 -4.877806,1.67289 -1.473651,0 -3.093633,-8.22113 -3.100826,-15.73615 -0.0206,-21.5267 12.179972,-34.32549 37.065169,-38.88254 8.016743,-1.46805 25.991674,-1.96788 36.812618,-1.02364 8.644053,0.75428 24.065312,2.87168 27.870652,3.82676 1.65033,0.4142 1.76371,0.31797 1.35877,-1.15341 -2.85057,-10.35775 -4.43302,-28.39642 -3.64571,-41.55835 l 0.47645,-7.96517 -2.71369,-4.16507 c -5.98876,-9.19177 -13.736253,-27.03342 -17.638228,-40.61896 -4.755819,-16.55837 -5.909285,-34.03824 -3.122842,-47.32436 5.437442,-25.92647 22.90642,-57.09423 51.14251,-91.247296 l 5.74599,-6.950087 -2.74805,-2.096008 c -1.51143,-1.152805 -3.51783,-3.591835 -4.45867,-5.420069 -1.49967,-2.914124 -1.71062,-4.15207 -1.71062,-10.038168 0,-7.641636 1.04465,-10.437258 5.60379,-14.996397 4.16048,-4.160475 8.21871,-5.7798 14.4849,-5.7798 6.29276,0 9.97501,1.478106 14.41396,5.785962 4.15571,4.032981 5.99647,8.526332 5.99647,14.637548 0,6.549786 -1.83799,10.639784 -6.68794,14.882407 l -3.53742,3.094447 2.0318,2.562574 c 3.11966,3.934615 14.7277,14.950606 15.75412,14.950606 1.4543,0 13.46769,-12.012898 16.22826,-16.227591 l 2.51488,-3.839561 -2.47819,-2.743058 c -3.47192,-3.843002 -5.06297,-7.912841 -5.06297,-12.950865 0,-5.835552 1.56367,-9.899614 5.263,-13.678755 4.68671,-4.787832 8.57031,-6.399936 15.49532,-6.432181 6.8806,-0.03204 10.48001,1.450089 14.7368,6.068165 3.47684,3.771923 5.23845,7.674931 5.77319,12.791066 0.75585,7.231601 -1.92321,12.944572 -7.57949,16.162894 -0.88704,0.504708 -1.03252,0.947956 -0.54247,1.652812 0.36829,0.529734 3.78265,5.063713 7.58746,10.075509 20.65028,27.201078 33.28277,55.081826 37.24242,82.196446 1.33148,9.11766 1.34366,26.44904 0.0265,37.70907 -2.42339,20.71699 -9.43907,46.29176 -15.99176,58.29593 -2.10432,3.855 -2.17191,4.20759 -1.66859,8.7051 1.20065,10.72873 0.45432,23.73174 -2.16378,37.69912 -0.78002,4.16133 -1.30743,7.67339 -1.17202,7.80457 0.13541,0.13118 2.65685,-0.1833 5.60319,-0.69883 18.54359,-3.24463 39.44516,-4.42799 52.64081,-2.98031 31.38802,3.44355 46.08866,17.5809 44.58863,42.88015 -0.20862,3.51852 -0.92176,7.86959 -1.59495,9.73118 l -1.21761,3.36711 -3.71486,-1.48932 z M 66.151293,335.76 c 45.151207,-1.58725 62.661637,-2.88975 76.002247,-5.65336 9.77972,-2.02594 17.78832,-5.65246 16.07095,-7.27735 -1.51095,-1.42959 -38.16471,-7.86681 -55.91354,-9.81966 -5.340245,-0.58758 -15.434816,-1.24393 -22.432379,-1.45856 -23.112018,-0.70891 -38.36459,2.0931 -46.53072,8.54807 -4.275724,3.37976 -6.143736,7.03697 -6.560607,12.84442 l -0.325233,4.53084 5.615147,-0.35697 c 3.08833,-0.19633 18.421691,-0.80718 34.074135,-1.35743 z m 282.221277,-0.20273 c 0.47028,-2.14116 -0.5432,-7.37178 -1.95874,-10.10914 -2.76255,-5.34218 -10.81238,-9.85202 -21.78795,-12.20648 -6.22456,-1.33528 -8.95124,-1.50916 -23.77163,-1.51591 -17.35225,-0.008 -24.04669,0.50244 -43.86032,3.34362 -10.56146,1.51446 -37.66812,6.50246 -40.1774,7.39319 -1.55287,0.55123 1.90821,3.22207 6.30926,4.86871 12.10531,4.52918 32.48297,6.49989 90.4513,8.74748 16.94147,0.65688 31.60739,1.23472 32.59093,1.28411 1.45014,0.0728 1.86697,-0.26858 2.20455,-1.80558 z M 212.46398,313.30374 c 9.2109,-0.8004 17.11622,-2.28791 20.0639,-3.77534 3.04219,-1.53513 5.04697,-3.60609 5.04697,-5.21356 0,-1.96898 -3.10195,-4.76703 -6.68706,-6.03193 -8.55313,-3.01772 -31.03801,-4.40841 -57.59677,-3.56234 -24.03182,0.76555 -34.82767,3.56374 -35.36972,9.16751 -0.1355,1.40075 0.20635,2.68258 0.92811,3.48011 2.40194,2.65413 11.50446,4.99141 23.14806,5.94381 9.56761,0.7826 41.42548,0.77739 50.46651,-0.008 l 0,-2e-5 z m -79.34594,-24.7494 c 4.32355,-1.26683 18.32914,-3.27403 28.3126,-4.05761 6.25701,-0.49111 18.21269,-0.65084 32.47673,-0.43393 23.28617,0.35411 33.00973,1.18386 45.29524,3.86522 3.30562,0.72145 6.09965,1.31174 6.20896,1.31174 0.34216,0 0.20804,-6.16233 -0.23657,-10.86989 l -0.4258,-4.50846 -4.55024,-3.86183 c -2.50262,-2.124 -4.56515,-4.01249 -4.58339,-4.19663 -0.0182,-0.18415 2.22312,-1.64183 4.9808,-3.23928 l 5.01396,-2.90446 0,-5.20513 0,-5.20513 -3.86834,-2.0618 c -4.8752,-2.59845 -13.45197,-5.09966 -22.36609,-6.52251 -9.17875,-1.4651 -42.69049,-2.11289 -53.82088,-1.04038 -16.19502,1.56054 -27.31755,4.31194 -33.61324,8.31499 l -2.8459,1.80954 0,4.86414 0,4.86413 5.02218,2.97777 c 2.76219,1.63777 5.02217,3.16248 5.02217,3.38825 0,0.22576 -2.10345,2.1924 -4.67432,4.37031 l -4.67432,3.95985 -0.0131,4.42649 c -0.007,2.43457 -0.20467,5.82454 -0.43888,7.53327 -0.47429,3.46034 -0.25256,3.60243 3.77837,2.42134 l 1e-5,0 z M 242.108,232.09438 c 0.86271,-1.72994 1.99842,-5.17378 2.52382,-7.65299 1.26105,-5.95063 1.23505,-18.74347 -0.0519,-25.52767 -3.37284,-17.78026 -17.67504,-46.84093 -35.01731,-71.15183 C 197.8065,111.28184 180.90863,91.411704 166.69996,77.359862 l -6.71447,-6.640364 -4.79001,3.918856 c -13.78112,11.274759 -31.0157,38.461296 -42.76039,67.451986 -7.19569,17.7619 -9.9398,30.9744 -9.25228,44.54842 0.82518,16.29204 7.78626,32.52311 19.70149,45.93773 l 2.15869,2.43036 8.89009,-2.96937 c 16.30126,-5.44477 19.38545,-5.88258 43.89127,-6.23048 17.46316,-0.24791 23.26377,-0.0961 30.2356,0.79127 10.22728,1.30174 19.25291,3.60683 26.16531,6.68246 2.76301,1.22938 5.31402,2.17309 5.66892,2.09712 0.35489,-0.076 1.35112,-1.55353 2.21382,-3.28347 z m 19.22498,-26.24092 c 3.37623,-11.65067 4.73667,-33.05882 2.99994,-47.2078 -2.16576,-17.64431 -8.89796,-36.36515 -20.17633,-56.10622 -5.40763,-9.465215 -23.13168,-36.28423 -23.97939,-36.28423 -0.2989,0 -1.5173,1.129989 -2.70758,2.511087 -1.19027,1.381098 -6.64543,7.230969 -12.12258,12.999713 -5.47715,5.768745 -9.95845,10.674724 -9.95845,10.902182 0,0.227451 3.81765,4.69815 8.48367,9.934888 17.65166,19.81064 27.7171,34.06302 36.0445,51.03797 5.86827,11.96216 9.51208,21.77858 12.30377,33.14635 2.10356,8.56571 4.10377,20.73855 4.10377,24.97464 0,1.30371 0.19855,2.88777 0.44121,3.52015 0.63049,1.64302 2.44369,-2.09999 4.56747,-9.42873 z M 164.59932,51.181755 c 1.07567,-0.556251 2.2834,-1.623553 2.68384,-2.371782 1.02039,-1.906619 1.03834,-7.45727 0.032,-9.886855 -0.91898,-2.218535 -4.18523,-4.140202 -7.03711,-4.140202 -2.57231,0 -6.06908,1.636104 -7.32304,3.426377 -1.30822,1.867751 -1.46214,7.751354 -0.27115,10.365282 1.50415,3.301265 7.87681,4.695643 11.91545,2.60718 z m 61.42314,-1.193952 c 1.40209,-1.402091 1.80121,-2.529992 1.99337,-5.633101 0.29613,-4.782421 -0.67819,-6.825663 -4.0394,-8.470988 -3.32892,-1.629516 -7.69612,-1.051579 -10.08189,1.334196 -3.52575,3.525748 -2.88386,11.18949 1.14956,13.725066 3.06068,1.924069 8.57926,1.443924 10.97836,-0.955173 z"
     id="path3344"
     inkscape:connector-curvature="0"
     transform="scale(0.8,0.8)" />
  <path
     style="opacity:1;fill:#000000;fill-opacity:1;stroke:#000000;stroke-width:0;stroke-miterlimit:4;stroke-dasharray:none;stroke-opacity:1"
     d="m 180.61777,267.88392 c -4.86022,-1.58099 -6.67527,-4.16094 -5.28634,-7.5141 1.27636,-3.08142 4.70465,-4.2641 12.35649,-4.26269 5.52982,0.001 7.10383,0.23938 9.03623,1.36839 4.40564,2.574 4.22775,7.39379 -0.35545,9.63092 -2.26096,1.1036 -13.10315,1.63878 -15.75093,0.77748 z"
     id="path3346"
     inkscape:connector-curvature="0"
     transform="scale(0.8,0.8)" />
</svg>
