<?xml version="1.0" encoding="UTF-8" standalone="no"?>
<svg
   xmlns:dc="http://purl.org/dc/elements/1.1/"
   xmlns:cc="http://creativecommons.org/ns#"
   xmlns:rdf="http://www.w3.org/1999/02/22-rdf-syntax-ns#"
   xmlns:svg="http://www.w3.org/2000/svg"
   xmlns="http://www.w3.org/2000/svg"
   xmlns:sodipodi="http://sodipodi.sourceforge.net/DTD/sodipodi-0.dtd"
   xmlns:inkscape="http://www.inkscape.org/namespaces/inkscape"
   version="1.0"
   width="300.000000pt"
   height="300.000000pt"
   viewBox="0 0 300.000000 300.000000"
   preserveAspectRatio="xMidYMid meet"
   id="svg2"
   inkscape:version="0.92.2 (5c3e80d, 2017-08-06)"
   sodipodi:docname="wk.svg">
  <defs
     id="defs12" />
  <sodipodi:namedview
     pagecolor="#ffffff"
     bordercolor="#666666"
     borderopacity="1"
     objecttolerance="10"
     gridtolerance="10"
     guidetolerance="10"
     inkscape:pageopacity="0"
     inkscape:pageshadow="2"
     inkscape:window-width="1920"
     inkscape:window-height="1018"
     id="namedview10"
     showgrid="false"
     inkscape:zoom="1.493377"
     inkscape:cx="-11.433629"
     inkscape:cy="167.98998"
     inkscape:window-x="-8"
     inkscape:window-y="-8"
     inkscape:window-maximized="1"
     inkscape:current-layer="svg2"
     inkscape:pagecheckerboard="true" />
  <metadata
     id="metadata4">
Created by potrace 1.12, written by Peter Selinger 2001-2015
<rdf:RDF>
  <cc:Work
     rdf:about="">
    <dc:format>image/svg+xml</dc:format>
    <dc:type
       rdf:resource="http://purl.org/dc/dcmitype/StillImage" />
    <dc:title></dc:title>
  </cc:Work>
</rdf:RDF>
</metadata>
  <path
     transform="scale(0.8,0.8)"
     style="opacity:1;fill:#ffffff;fill-opacity:1;stroke:#000000;stroke-width:0;stroke-miterlimit:4;stroke-dasharray:none;stroke-opacity:1"
     d="m 139.14062,1.9726562 c -13.49709,0.00108 -24.43837,10.9423628 -24.43945,24.4394528 l 0,34.017579 C 82.037931,49.788188 46.603266,54.221584 21.435547,76.5625 2.9617952,92.961301 -7.3700215,116.92276 -6.2246094,141.39062 c 0.7905098,16.88658 5.26933211,32.44009 13.8925782,50.09571 9.3499712,19.14356 21.8604712,36.88833 36.2265622,50.30469 2.423619,2.26339 5.069433,4.47134 7.66211,6.59765 0.460821,6.14023 1.039407,15.17147 1.884765,29.82813 l 2.371094,41.11523 c 0.28328,4.9093 2.04082,9.61899 5.042969,13.51367 l 2.365234,3.06836 c 14.464296,18.76496 36.6271,26.9127 62.474607,31.2793 8.82713,1.49121 21.09443,2.58619 33.5586,3.25781 5.70996,0.30763 14.24314,0.28425 25.95703,0.34766 41.04567,0.22211 66.23714,-2.08431 88.76172,-9.75781 15.81709,-5.38845 29.59909,-12.77687 39.34179,-27.25 l -0.002,0.006 1.87305,-2.78126 c 2.46542,-3.66217 3.89291,-7.92372 4.13086,-12.33203 l 2.19336,-40.51171 1.58984,-29.35157 -7.10742,5.50391 c 16.48265,-12.76018 28.90429,-26.28207 41.1289,-44.59375 14.15058,-21.19667 22.68547,-44.04595 23.86914,-67.37109 C 382.3324,115.91032 370.93033,90.146777 350.26362,73.804828 335.55188,62.171696 317.1151,55.868683 297.80268,55.103656 285.22769,54.605518 272.75493,56.504895 260.67573,60.40639 l 0,-33.994141 C 260.67473,12.915124 249.73346,1.9737612 236.23633,1.9726562 l -48.54883,0 z"
     id="path3351"
     inkscape:connector-curvature="0"
     sodipodi:nodetypes="cccsssscscscsssscccccccssssccccc" />
  <path
     style="opacity:1;fill:#000000;fill-opacity:1;stroke:#000000;stroke-width:0;stroke-miterlimit:4;stroke-dasharray:none;stroke-opacity:1"
     d="m 163.53893,346.42507 c -37.44045,-1.74654 -58.48507,-6.87762 -73.451293,-17.90882 -4.405686,-3.24731 -9.394086,-8.99247 -9.884636,-11.38418 -0.162691,-0.79321 -1.278856,-19.30084 -2.480367,-41.12808 l -2.184566,-39.68588 -6.053909,-4.61077 C 54.085511,219.97945 39.42625,201.2857 29.27035,180.42597 21.558657,164.58653 18.222761,151.69243 18.242305,137.79971 18.266462,120.6273 22.554963,110.12206 34.327421,98.397122 47.163708,85.612654 61.947441,79.64767 80.796428,79.64767 c 17.621804,0 35.258762,5.690649 51.605022,16.650605 l 6.02661,4.040765 0.17307,-36.795803 0.17307,-36.795806 48.54203,0 48.54201,0 0,36.829281 c 0,20.256104 0.14221,36.829278 0.31602,36.829278 0.17382,0 3.11179,-1.839527 6.52883,-4.087834 12.36641,-8.13673 25.3618,-13.507387 38.01991,-15.712653 8.43362,-1.469284 23.52298,-1.014085 30.85561,0.93082 21.91489,5.812701 38.13228,21.440047 43.55638,41.971667 2.01115,7.61272 1.99963,20.78396 -0.0267,30.46786 -3.74166,17.88203 -11.2936,33.65068 -24.61435,51.39545 -7.07763,9.42821 -18.50666,21.35336 -25.50838,26.61567 l -5.34576,4.01774 -0.4259,5.69179 c -0.23425,3.13049 -1.165,18.95034 -2.06834,35.15523 -0.90334,16.20488 -1.83549,32.29556 -2.07145,35.75707 l -0.42901,6.29366 -5.45443,5.43338 c -2.99992,2.98836 -7.41306,6.56522 -9.80696,7.94857 -11.82583,6.83371 -28.97286,11.14863 -52.56543,13.2277 -7.97694,0.70296 -53.65414,1.36196 -63.2794,0.91296 z m 44.52995,-12.34355 c 35.76871,-2.62186 60.29099,-8.36783 66.32731,-15.54159 11.01711,-13.09309 -17.76098,-23.29527 -73.18108,-25.94359 -37.43608,-1.78892 -85.06474,4.49944 -97.36748,12.85532 -7.129216,4.84208 -7.120585,10.93998 0.0224,15.81432 8.75152,5.972 33.24189,10.79419 66.36513,13.06739 7.52566,0.51647 29.33226,0.37131 37.83372,-0.25185 l 3e-5,0 z M 98.137962,297.00977 c 9.096358,-7.41195 25.444448,-12.74955 47.308808,-15.44619 21.33029,-2.63077 54.08497,-2.8941 78.02344,-0.62729 24.70111,2.33904 43.4734,7.94482 53.01105,15.83015 l 3.23731,2.67647 0.18601,-9.49076 0.18602,-9.49076 -8.3889,-9.62799 c -4.6139,-5.2954 -8.3889,-9.79887 -8.3889,-10.00772 0,-0.20885 4.5063,-0.37973 10.01401,-0.37973 l 10.014,0 0.3417,-2.17627 c 0.70564,-4.49429 1.62505,-22.28402 1.17535,-22.74195 -2.04893,-2.0864 -26.92748,-10.8472 -38.50641,-13.55974 -19.73435,-4.62307 -33.99398,-6.05946 -59.71052,-6.01466 -23.06529,0.0402 -33.48609,0.9773 -51.55846,4.63654 -14.12879,2.86076 -33.31995,9.08816 -42.785505,13.88361 l -2.605578,1.32005 0.43624,6.467 c 0.239932,3.55686 0.626459,9.09623 0.858946,12.3097 l 0.422699,5.84268 10.268378,0.18393 10.26837,0.18393 -8.67478,10.04435 -8.674782,10.04434 -0.0144,9.20732 c -0.0079,5.06403 0.160924,9.20732 0.375157,9.20732 0.214239,0 1.645559,-1.02345 3.18071,-2.27433 l 3.4e-5,0 z m -10.405919,-76.4183 c 8.927357,-5.23227 22.335327,-9.8475 37.832777,-13.02262 12.81484,-2.6255 39.80893,-5.38012 52.723,-5.38012 l 4.598,0 -1.03594,-3.51552 C 170.83275,161.28582 152.90976,130.35552 132.31955,113.19706 121.33954,104.04708 110.40319,98.484997 97.620812,95.54973 88.678167,93.496189 73.625608,93.533722 65.786938,95.6291 c -15.293927,4.088271 -26.518964,14.8395 -31.904039,30.55739 -1.602973,4.67874 -1.834704,6.37436 -1.830282,13.39246 0.0115,18.25229 8.058193,38.67535 22.557622,57.25279 6.38411,8.17967 25.333117,26.78493 27.279793,26.78493 0.374208,0 3.003109,-1.36134 5.842011,-3.0252 z M 296.725,221.12083 c 5.19179,-4.20402 17.39265,-16.307 21.78535,-21.61059 15.77005,-19.04019 24.47826,-40.25702 24.48548,-59.65677 0.008,-20.63901 -14.178,-39.11284 -33.90891,-44.159155 -14.82206,-3.790845 -32.93118,-1.643149 -48.3392,5.732895 -8.99489,4.30599 -15.48065,9.01347 -23.96385,17.39342 -14.56161,14.38436 -26.31768,33.22211 -35.93868,57.5876 -3.66058,9.27054 -8.88591,25.01572 -8.41903,25.36855 0.13276,0.10033 6.41866,0.52822 13.96866,0.95086 35.08304,1.96389 66.71812,9.12385 81.7756,18.50826 1.98075,1.23448 4.02232,2.27517 4.53684,2.31264 0.5145,0.0375 2.32248,-1.055 4.01774,-2.42771 z M 194.30492,160.94535 c 6.8485,-13.73287 13.53655,-24.68747 19.89246,-32.58259 l 3.63876,-4.51995 -30.2439,0 c -24.0958,0 -30.11161,0.17015 -29.59311,0.83703 8.84882,11.3811 12.92406,17.52488 18.76617,28.29158 2.19823,4.05122 5.45518,10.59505 7.23767,14.54185 1.78249,3.9468 3.33382,7.08307 3.4474,6.96949 0.11357,-0.11358 3.19812,-6.20541 6.85455,-13.53741 z m 21.35302,-50.42423 c -0.12276,-0.32936 -6.49548,-6.70642 -14.1616,-14.171231 l -13.93839,-13.572387 -5.81549,5.630747 c -15.22384,14.740201 -22.22127,21.730761 -22.22127,22.199451 0,0.28175 12.68099,0.51226 28.17998,0.51226 16.28616,0 28.08577,-0.25275 27.95677,-0.59884 z M 166.20565,62.424835 c -7.54353,-7.641879 -13.9415,-13.99934 -14.21772,-14.127694 -0.27622,-0.128353 -0.50222,12.522069 -0.50222,28.112047 l 0,28.345422 14.21772,-14.217728 14.21773,-14.217722 -13.71551,-13.894325 z m 56.92975,13.718236 0,-28.280661 -7.7479,7.689745 c -4.26134,4.229359 -10.46702,10.62258 -13.79041,14.207156 l -6.0425,6.517411 13.623,14.069553 c 7.49265,7.738253 13.69833,14.071325 13.7904,14.073505 0.0921,0.002 0.16741,-12.722346 0.16741,-28.276709 z m -18.83475,-22.94552 c 6.60308,-6.260978 12.03551,-11.609594 12.07206,-11.885813 0.0366,-0.27622 -13.11675,-0.501692 -29.22956,-0.50105 l -29.29602,0.0011 9.37473,8.850509 c 5.1561,4.867779 11.77998,11.176459 14.71974,14.019288 l 5.34503,5.16878 2.5042,-2.134643 c 1.37732,-1.174024 7.90673,-7.257232 14.50982,-13.518209 z"
     id="path3342"
     inkscape:connector-curvature="0"
     transform="scale(0.8,0.8)" />
  <path
     style="opacity:1;fill:#000000;fill-opacity:1;stroke:#000000;stroke-width:0;stroke-miterlimit:4;stroke-dasharray:none;stroke-opacity:1"
     d="m 176.93139,257.13829 c -7.33085,-1.34207 -10.71397,-4.01897 -10.71397,-8.47748 0,-2.31307 0.36172,-3.13188 1.98809,-4.50038 3.79922,-3.19683 8.06914,-4.11479 19.10505,-4.10725 11.52803,0.008 16.65886,1.12378 19.85288,4.31779 4.05687,4.05687 1.26146,10.08709 -5.57046,12.01651 -3.52997,0.99691 -20.49588,1.51343 -24.66159,0.75081 z"
     id="path3344"
     inkscape:connector-curvature="0"
     transform="scale(0.8,0.8)" />
</svg>
