<?xml version="1.0" encoding="UTF-8" standalone="no"?>
<svg
   xmlns:dc="http://purl.org/dc/elements/1.1/"
   xmlns:cc="http://creativecommons.org/ns#"
   xmlns:rdf="http://www.w3.org/1999/02/22-rdf-syntax-ns#"
   xmlns:svg="http://www.w3.org/2000/svg"
   xmlns="http://www.w3.org/2000/svg"
   xmlns:sodipodi="http://sodipodi.sourceforge.net/DTD/sodipodi-0.dtd"
   xmlns:inkscape="http://www.inkscape.org/namespaces/inkscape"
   version="1.0"
   width="300.000000pt"
   height="300.000000pt"
   viewBox="0 0 300.000000 300.000000"
   preserveAspectRatio="xMidYMid meet"
   id="svg2"
   inkscape:version="0.92.2 (5c3e80d, 2017-08-06)"
   sodipodi:docname="wn.svg">
  <defs
     id="defs12" />
  <sodipodi:namedview
     pagecolor="#ffffff"
     bordercolor="#666666"
     borderopacity="1"
     objecttolerance="10"
     gridtolerance="10"
     guidetolerance="10"
     inkscape:pageopacity="0"
     inkscape:pageshadow="2"
     inkscape:window-width="1920"
     inkscape:window-height="1018"
     id="namedview10"
     showgrid="false"
     inkscape:zoom="1.055977"
     inkscape:cx="-90.74689"
     inkscape:cy="246.13879"
     inkscape:window-x="-8"
     inkscape:window-y="-8"
     inkscape:window-maximized="1"
     inkscape:current-layer="svg2"
     inkscape:pagecheckerboard="true" />
  <metadata
     id="metadata4">
Created by potrace 1.12, written by Peter Selinger 2001-2015
<rdf:RDF>
  <cc:Work
     rdf:about="">
    <dc:format>image/svg+xml</dc:format>
    <dc:type
       rdf:resource="http://purl.org/dc/dcmitype/StillImage" />
    <dc:title></dc:title>
  </cc:Work>
</rdf:RDF>
</metadata>
  <path
     transform="scale(0.8,0.8)"
     style="opacity:1;fill:#ffffff;fill-opacity:1;stroke:#000000;stroke-width:0;stroke-miterlimit:4;stroke-dasharray:none;stroke-opacity:1"
     d="m 134.03125,-4.1894531 c -13.34258,-0.3914756 -13.52243,3.81534669 -15.01953,4.99804685 -1.4971,1.18270015 -2.08112,1.83070225 -2.60742,2.38281245 -1.0526,1.1042206 -1.55628,1.7535355 -2.08789,2.4296876 -1.06323,1.352304 -1.96107,2.622797 -2.92188,4.0703124 -2.21712,3.3402358 -4.04837,6.8809968 -5.68359,10.5234378 -1.06686,-0.6087 -2.24805,-1.660156 -8.673831,-1.660156 -11.789124,-10e-7 -17.797559,7.983866 -19.701171,11.140624 -1.903613,3.156759 -2.192056,4.684525 -2.521485,5.871094 -0.658858,2.373139 -0.693136,3.276185 -0.794922,4.169922 -0.203571,1.787475 -0.234382,2.924644 -0.273437,4.248047 -0.07811,2.646806 -0.0629,5.605586 0.0039,8.90625 0.133621,6.601329 0.465511,14.149118 1.068359,20.345703 0.613535,6.306445 1.832337,16.346575 2.845703,23.529297 l 0,0.002 0.175782,1.240234 0.90039,-0.943359 C 70.939992,105.23431 65.7252,110.5324 61.25,119.23438 c -2.591603,5.0393 -2.27762,5.63927 -2.933594,7.92968 -0.655973,2.29042 -1.285072,4.77453 -1.849609,7.3418 -1.899566,8.63841 -0.344181,4.85323 -3.669922,10.02148 -3.164299,4.91737 -6.969731,9.68911 -16.183594,19.72461 -4.879291,5.31441 -9.938794,11.1184 -13.46875,15.83985 -7.087219,9.47944 -12.122352,18.12599 -15.1679685,30.80273 -3.2955061,13.71684 -3.3343906,19.059 0.023437,32.86914 2.4747355,10.17814 5.4589805,17.57043 15.0722655,25.81055 7.760861,6.65229 15.31769,9.57253 23.306641,11.88672 6.577238,1.90525 12.199666,4.51561 21.777344,2.43359 6.096969,-1.52823 11.253022,-3.28597 4.86914,-1.37695 -6.462305,-2.80642 -3.93524,-0.37314 3.388672,0.77734 4.594964,0.82977 8.562613,0.68459 12.148438,0.36328 1.104714,-0.099 2.224425,-0.29842 3.339843,-0.45312 -0.670845,1.13227 -1.474981,2.20492 -2.060547,3.39453 -10.933306,22.21164 -6.950101,49.53854 8.585938,68.96484 l 0.0039,0.004 1.955076,2.44336 c 4.46991,5.58591 11.29117,8.76502 18.44336,8.5957 l 18.46875,-0.43945 c 8.71033,-0.20681 58.56739,-0.43293 108.10742,-0.43359 l 90.18359,0 c 8.86309,-4.7e-4 16.93202,-5.10952 20.72266,-13.1211 l 1.72852,-3.6543 c 4.81913,-10.18682 6.2911,-20.10851 7.80078,-33.07031 1.50968,-12.96179 2.31588,-28.28249 2.39843,-45.28711 0.10191,-20.99198 -1.89846,-36.84693 -7.36914,-58.87109 C 341.46395,133.60016 302.13065,74.796522 244.94141,46.957031 222.39734,35.982675 199.30918,30.487498 172.68945,29.486328 l -0.004,0 -1.67188,-0.0625 -0.23242,-0.242187 0,-0.002 C 163.34978,21.395906 157.39853,13.629644 156,11.259766 155.08161,9.7034905 154.21912,8.32675 153.23828,6.9101562 c -0.49042,-0.7082968 -0.94916,-1.3765566 -1.87695,-2.4941406 -0.4639,-0.558792 -0.9652,-1.2010994 -2.30274,-2.4375 -0.66877,-0.6182003 -1.50379,-1.40289961 -3.30078,-2.55078122 -1.79699,-1.14788158 -4.38586,-3.40050198 -11.72265,-3.61718748 l -0.004,0 z"
     id="path3346"
     inkscape:connector-curvature="0"
     sodipodi:nodetypes="csssscsssssssccccsssssssssscccccscccccccccsssscccccsssssccc" />
  <path
     style="opacity:1;fill:#000000;fill-opacity:1;stroke:#000000;stroke-width:0;stroke-miterlimit:4;stroke-dasharray:none;stroke-opacity:1"
     d="m 115.02101,339.4615 c -5.92918,-8.04223 -8.65914,-15.77883 -8.67187,-24.57569 -0.0102,-7.09088 0.93061,-11.47942 3.70376,-17.27576 3.2315,-6.75434 7.3288,-11.21866 19.05549,-20.76241 33.55431,-27.30812 50.89137,-45.83373 50.89137,-54.38026 0,-2.0245 -0.16339,-2.23721 -1.41365,-1.8404 -7.7667,2.46506 -30.60989,3.67116 -41.10743,2.17044 l -6.02661,-0.86156 -3.38187,6.09246 c -6.84879,12.33816 -14.1242,20.99473 -22.16495,26.3727 -5.986974,4.00434 -11.333697,5.76506 -19.429833,6.39841 -6.762218,0.529 -9.779289,-0.34464 -12.312675,-3.56532 l -1.339356,-1.70271 -2.157953,2.04211 c -1.186874,1.12317 -2.816136,2.37961 -3.620583,2.7921 -3.553417,1.82204 -13.028874,0.22507 -21.407191,-3.60791 -11.49406,-5.25838 -16.27038,-13.91162 -16.293243,-29.51839 -0.02279,-15.55643 6.243195,-28.10957 23.055671,-46.18927 9.824387,-10.56489 14.928627,-16.73603 18.999217,-22.97048 4.340209,-6.6474 5.783829,-10.22142 7.502477,-18.57419 0.704979,-3.42625 1.753733,-7.35909 2.330563,-8.73964 1.623764,-3.88622 5.908607,-9.25054 13.901835,-17.40412 5.431801,-5.54077 7.225621,-7.78716 6.951331,-8.7051 -1.64914,-5.519032 -5.064573,-37.227723 -5.574029,-51.748948 l -0.433046,-12.343208 6.638035,5.089465 c 3.65091,2.799205 8.82021,6.92233 11.48733,9.162498 2.66711,2.240167 5.11165,4.073032 5.4323,4.073032 0.32066,0 0.78743,-2.519356 1.03728,-5.59857 0.90243,-11.122039 4.72722,-23.065885 9.9115,-30.951189 l 2.79126,-4.245503 1.98351,3.489643 c 4.09366,7.20207 15.74236,21.066027 23.54697,28.024956 l 2.6785,2.388259 10.37916,0.415477 c 17.54461,0.702309 29.78305,2.832447 45.01753,7.835437 47.10318,15.468643 84.90547,55.318361 107.96893,113.816691 9.06939,23.00364 16.81174,52.35917 19.42176,73.63857 2.13304,17.39058 0.79486,54.47703 -2.73101,75.68742 -1.19881,7.2116 -3.97532,16.25049 -5.56058,18.10232 -1.02621,1.19877 -4.85993,1.24933 -109.70401,1.44687 l -108.64064,0.2047 -2.71525,-3.68293 z m 206.30657,-12.22062 c 0.41721,-1.56525 2.53813,-9.26344 4.71318,-17.1071 2.17503,-7.84366 3.95461,-14.66659 3.95461,-15.16206 0,-0.49548 -3.16397,-4.28018 -7.03104,-8.41046 -3.86708,-4.13027 -7.03105,-7.80658 -7.03105,-8.16957 0,-0.36298 3.36093,-6.13125 7.46873,-12.81838 4.10781,-6.68711 7.59983,-12.39887 7.76006,-12.69277 0.16023,-0.2939 -3.63874,-4.69228 -8.44214,-9.77418 l -8.73345,-9.23982 6.40757,-10.98413 c 3.52416,-6.04128 6.54618,-11.3359 6.71561,-11.76583 0.17316,-0.43944 -5.40524,-4.61678 -12.74061,-9.5407 l -13.04864,-8.75902 4.9011,-12.22205 c 2.69559,-6.72213 4.8535,-12.25172 4.79534,-12.28797 -8.75247,-5.45573 -23.11802,-14.72515 -23.77916,-15.34358 -0.7583,-0.70932 -0.49787,-2.55779 1.59545,-11.32394 1.37593,-5.76194 2.30352,-10.67443 2.0613,-10.91664 -0.24222,-0.24222 -5.3216,-1.21388 -11.28752,-2.15926 l -10.84712,-1.71885 -1.92127,-10.37339 c -1.0567,-5.70537 -2.02931,-10.48435 -2.16134,-10.61998 -0.13203,-0.13562 -4.91176,-0.88895 -10.62159,-1.67406 -5.70985,-0.7851 -10.66161,-1.7288 -11.00392,-2.09709 -0.34231,-0.36829 -1.62465,-4.059591 -2.84964,-8.202885 -1.6016,-5.417125 -2.51679,-7.525849 -3.258,-7.506865 -0.56691,0.01453 -3.742,0.592777 -7.05576,1.285027 -3.31377,0.69225 -6.06555,1.207706 -6.11508,1.145451 -0.0496,-0.06227 -0.88918,-2.751757 -1.86587,-5.97666 l -1.77583,-5.863468 -2.48826,0.340394 c -3.98456,0.545086 -15.3666,1.677003 -16.86317,1.677003 -1.0624,0 -2.0796,-1.428428 -4.53006,-6.361421 -2.19372,-4.416133 -3.51916,-6.361421 -4.33443,-6.361421 -0.64591,0 -6.17981,1.054657 -12.29756,2.343682 -6.11774,1.289024 -11.65889,2.343681 -12.31367,2.343681 -0.65478,0 -4.54739,-2.033981 -8.65026,-4.519957 -5.2878,-3.203944 -9.69194,-6.622048 -15.12638,-11.739763 l -7.66661,-7.219807 -0.95992,1.862821 c -1.79816,3.489497 -3.1143,9.128344 -3.1143,13.342833 0,5.711958 1.81108,10.166429 6.76709,16.644164 5.45563,7.130745 7.28289,11.081468 7.2782,15.736147 -0.002,2.02561 -0.22509,4.008887 -0.49567,4.407273 -0.31225,0.45975 -3.99892,-1.680574 -10.09234,-5.859204 -5.28021,-3.620948 -9.84648,-6.583548 -10.14728,-6.583548 -0.77667,0 -6.60868,9.246767 -10.78713,17.103193 -2.61127,4.90976 -4.97557,8.16953 -8.96483,12.36023 -12.570022,13.20472 -17.072651,21.32162 -21.806669,39.31094 -3.12669,11.88146 -6.805558,16.94725 -28.116823,38.71675 -10.447271,10.67191 -11.989142,12.5332 -13.312994,16.07096 -2.195808,5.86791 -2.902048,10.61783 -2.586167,17.39363 0.46991,10.07977 4.058714,15.14471 12.618594,17.80885 7.391679,2.30055 7.53641,2.24396 16.120853,-6.3028 7.563951,-7.53074 12.911843,-11.17124 16.410549,-11.17124 l 1.504928,0 -1.355164,3.06357 c -1.742814,3.93992 -2.308628,9.45891 -1.287075,12.55425 0.66258,2.00763 1.196902,2.49291 3.147846,2.85891 9.94424,1.86555 21.480192,-6.04111 31.986842,-21.92355 l 2.50165,-3.78164 -3.05568,-4.15085 c -3.05429,-4.14895 -5.07818,-9.27659 -5.07818,-12.86586 l 0,-1.90453 2.09,1.08078 c 3.50199,1.81095 13.87151,4.13534 22.34254,5.0082 11.24929,1.15915 32.09595,0.48368 40.52092,-1.31294 7.77499,-1.65801 15.06578,-5.14079 18.33356,-8.75783 1.33362,-1.47615 2.42355,-2.45705 2.42207,-2.17976 -0.0114,2.13492 -2.36233,14.41293 -3.75068,19.58841 -6.7822,25.28267 -23.01497,45.70778 -59.86084,75.32074 -12.53897,10.07755 -14.51343,12.07365 -16.07736,16.25366 -1.93161,5.16269 -1.82465,12.80834 0.24119,17.23938 2.40306,5.15436 2.22581,5.09743 12.52091,4.02158 14.79763,-1.54637 34.09209,-2.94555 51.77773,-3.7548 19.17618,-0.87744 79.00226,-0.44328 92.49323,0.67123 14.46002,1.19457 30.15414,2.82404 35.99794,3.73755 8.6756,1.35619 8.37385,1.41595 9.23894,-1.82966 z M 119.90107,85.571493 c 2.43866,-1.277677 3.38274,-3.738181 3.0103,-7.84555 -0.38192,-4.211956 -1.68552,-7.304115 -3.98075,-9.442447 -2.7101,-2.524839 -9.50074,-1.279404 -11.29402,2.071375 -1.84269,3.443103 -0.0266,12.007538 3.12734,14.74806 2.18902,1.902085 6.02551,2.098827 9.13713,0.468562 z"
     id="path3338"
     inkscape:connector-curvature="0"
     transform="scale(0.8,0.8)" />
  <path
     style="opacity:1;fill:#000000;fill-opacity:1;stroke:#000000;stroke-width:0;stroke-miterlimit:4;stroke-dasharray:none;stroke-opacity:1"
     d="m 58.208366,222.35747 c -0.780611,-0.78061 -1.419293,-1.7438 -1.419293,-2.14042 0,-1.49553 3.839804,-4.47306 7.56661,-5.86743 4.932604,-1.84553 7.918529,-1.86488 9.550196,-0.0619 1.136352,1.25565 1.16168,1.55272 0.27119,3.18071 -1.210553,2.21313 -7.253487,5.32146 -11.448746,5.88893 -2.604908,0.35236 -3.327591,0.19249 -4.519957,-0.99988 z"
     id="path3340"
     inkscape:connector-curvature="0"
     transform="scale(0.8,0.8)" />
  <path
     style="opacity:1;fill:#000000;fill-opacity:1;stroke:#000000;stroke-width:0;stroke-miterlimit:4;stroke-dasharray:none;stroke-opacity:1"
     d="m 118.56182,155.99206 c -2.11305,-1.28835 -2.17585,-1.45849 -2.16157,-5.8567 0.0337,-10.38704 5.99207,-15.58984 16.82972,-14.69561 5.05974,0.41748 14.58504,3.41905 20.78967,6.55113 l 4.18974,2.11498 -13.04384,6.57339 -13.04385,6.57339 -5.6918,0.0332 c -4.53588,0.0264 -6.13376,-0.23631 -7.86807,-1.29374 z"
     id="path3343"
     inkscape:connector-curvature="0"
     transform="scale(0.8,0.8)" />
</svg>
