<?xml version="1.0" encoding="UTF-8" standalone="no"?>
<svg
   xmlns:dc="http://purl.org/dc/elements/1.1/"
   xmlns:cc="http://creativecommons.org/ns#"
   xmlns:rdf="http://www.w3.org/1999/02/22-rdf-syntax-ns#"
   xmlns:svg="http://www.w3.org/2000/svg"
   xmlns="http://www.w3.org/2000/svg"
   xmlns:sodipodi="http://sodipodi.sourceforge.net/DTD/sodipodi-0.dtd"
   xmlns:inkscape="http://www.inkscape.org/namespaces/inkscape"
   version="1.0"
   width="300.000000pt"
   height="300.000000pt"
   viewBox="0 0 300.000000 300.000000"
   preserveAspectRatio="xMidYMid meet"
   id="svg2"
   inkscape:version="0.92.2 (5c3e80d, 2017-08-06)"
   sodipodi:docname="wp.svg">
  <defs
     id="defs12" />
  <sodipodi:namedview
     pagecolor="#ffffff"
     bordercolor="#666666"
     borderopacity="1"
     objecttolerance="10"
     gridtolerance="10"
     guidetolerance="10"
     inkscape:pageopacity="0"
     inkscape:pageshadow="2"
     inkscape:window-width="1920"
     inkscape:window-height="1018"
     id="namedview10"
     showgrid="false"
     inkscape:zoom="1.493377"
     inkscape:cx="-1.2477487"
     inkscape:cy="186.73943"
     inkscape:window-x="-8"
     inkscape:window-y="-8"
     inkscape:window-maximized="1"
     inkscape:current-layer="svg2"
     inkscape:pagecheckerboard="true" />
  <metadata
     id="metadata4">
Created by potrace 1.12, written by Peter Selinger 2001-2015
<rdf:RDF>
  <cc:Work
     rdf:about="">
    <dc:format>image/svg+xml</dc:format>
    <dc:type
       rdf:resource="http://purl.org/dc/dcmitype/StillImage" />
    <dc:title></dc:title>
  </cc:Work>
</rdf:RDF>
</metadata>
  <path
     transform="scale(0.8,0.8)"
     style="opacity:1;fill:#ffffff;fill-opacity:1;stroke:#000000;stroke-width:0;stroke-miterlimit:4;stroke-dasharray:none;stroke-opacity:1"
     d="m 187.66992,15.490234 c -2.85326,0.0025 -5.67202,0.226081 -8.42383,0.623047 -26.98924,3.893381 -48.84718,24.61695 -48.8164,53.072266 0.003,2.788741 0.57927,6.014819 1.38086,9.300781 -1.03376,0.598514 -6.03722,2.810319 -5.75,2.716797 -15.51466,5.051794 -29.284779,12.851878 -39.783206,25.306645 -10.524805,12.48609 -17.427482,26.92896 -18.572266,43.37304 l -0.361328,5.18946 c -0.915741,13.17024 9.520618,24.35833 22.722656,24.35937 l 33.912114,0 9.82226,0 -1.7168,3.55664 -0.002,0 c -14.16926,29.32748 -21.26574,54.13321 -14.40625,77.92969 0.31555,1.09468 0.63733,1.94938 0.94531,2.94726 -9.89859,1.80207 -19.497871,4.70834 -28.341793,9.05274 -6.724221,3.30314 -13.314204,8.02333 -18.519531,13.26758 -11.973348,12.06288 -19.011719,28.69172 -19.011719,45.68164 l 0,4.91601 c 0.0011,12.57913 10.198213,22.77626 22.777344,22.77735 l 112.162109,0 112.16211,0 c 12.59593,-0.001 22.80001,-10.22441 22.77734,-22.82032 l -0.01,-5.18945 c -0.0485,-25.41329 -16.21616,-48.24211 -39.27344,-59.42969 -8.3548,-4.05382 -17.4509,-6.62519 -27.37305,-8.2832 1.82149,-4.71467 3.14566,-9.58581 3.53711,-14.18359 1.75833,-20.65282 -4.25918,-41.29965 -16.55664,-66.68555 l 0,-0.002 -1.71289,-3.53516 9.38086,0 33.80469,0 c 10.44951,-8.5e-4 19.55835,-7.11128 22.0957,-17.24805 l 0.43555,-1.74023 c 1.28274,-5.11084 0.88594,-6.29589 0.88476,-8.29688 -10e-4,-2.00098 -0.0935,-3.90827 -0.24023,-5.875 -0.29343,-3.93346 -0.64104,-7.58115 -1.75195,-12.1621 -6.3118,-26.02693 -29.09564,-44.183969 -57.10938,-52.832036 -2.08763,-0.64447 -3.36332,-1.116467 -5.06836,-1.683594 0.13558,-1.044507 0.33326,-2.114765 0.44141,-3.136719 0.97585,-9.221474 0.17811,-18.608046 -4.42969,-28.421875 -6.46059,-13.759956 -14.3762,-20.69391 -27.2832,-26.792968 -7.54286,-3.564305 -16.17907,-5.759382 -24.72852,-5.751954 z"
     id="path3340"
     inkscape:connector-curvature="0"
     sodipodi:nodetypes="cssccscccccccscsssccccccscsccccccccssscssscc" />
  <path
     style="opacity:1;fill:#000000;fill-opacity:1;stroke:#000000;stroke-width:0;stroke-miterlimit:4;stroke-dasharray:none;stroke-opacity:1"
     d="m 75.487611,330.49724 c 1.530021,-21.68058 14.235629,-35.84259 38.185929,-42.56306 6.54166,-1.83559 15.76354,-3.16224 26.04023,-3.74612 l 8.51002,-0.4835 0.33686,-2.75679 c 0.18527,-1.51624 0.49088,-5.16744 0.67913,-8.11378 l 0.34228,-5.35699 -2.80706,-2.02176 c -10.25686,-7.3874 -11.488,-27.38176 -3.17116,-51.50151 2.9568,-8.57504 7.95968,-20.0535 12.08172,-27.71996 l 2.63792,-4.90619 0,-12.33661 0,-12.33662 -33.77085,0 c -38.642799,0 -35.037531,0.68985 -34.156984,-6.53574 1.087165,-8.92107 5.726129,-19.55085 11.924824,-27.32471 7.15904,-8.97824 16.65001,-15.299 29.41152,-19.58735 3.04499,-1.02324 8.23977,-3.407094 11.54396,-5.297465 3.30419,-1.890371 7.96626,-4.32066 10.36017,-5.400642 2.3939,-1.079981 4.9404,-2.622756 5.65889,-3.428389 1.25557,-1.407856 1.26067,-1.535039 0.13135,-3.272308 -2.49468,-3.837663 -5.75429,-11.154894 -6.15271,-13.811729 -0.55742,-3.717165 0.7552,-10.594808 2.87888,-15.084238 2.22298,-4.699353 9.31021,-11.767767 14.61352,-14.574716 14.15735,-7.493236 30.27465,-4.976716 41.84578,6.533709 7.52257,7.483112 10.46895,16.325886 8.7601,26.291128 -0.86931,5.06945 -3.29533,10.023053 -5.48186,11.19325 -1.90448,1.019251 -1.63697,2.310582 1.1081,5.349055 3.04776,3.373498 8.23451,5.851345 19.4146,9.274855 18.35485,5.62053 27.60226,10.36524 35.60145,18.26658 8.58843,8.48338 12.10618,16.67022 12.69309,29.54064 l 0.35881,7.86807 -34.24271,0 -34.2427,0 0,11.99739 0,11.9974 5.59233,11.37113 c 14.59444,29.67548 18.59729,51.98883 11.87294,66.18419 -1.7295,3.65105 -6.53588,8.93773 -8.12573,8.93773 -0.44793,0 -0.57323,1.38982 -0.34713,3.85033 0.1946,2.11769 0.53488,5.88432 0.75618,8.3703 l 0.40235,4.51995 3.79703,0.002 c 6.47151,0.004 18.89935,1.36085 25.5598,2.79078 21.08206,4.5261 34.84355,14.71222 41.20756,30.50141 1.72159,4.27126 3.35472,14.70366 2.70625,17.28738 l -0.41381,1.64904 -112.2486,0 -112.248606,0 0.396337,-5.61615 z m 204.707309,-9.00861 c 0,-2.56128 -4.14411,-9.47119 -7.47773,-12.46839 -8.27929,-7.4438 -24.55042,-12.03833 -45.65168,-12.89081 -9.26193,-0.37417 -9.97835,-0.49702 -10.52098,-1.80413 -0.53476,-1.28817 -4.65999,-26.20358 -4.64438,-28.05103 0.004,-0.44338 1.19667,-1.30579 2.65094,-1.91648 3.28231,-1.37834 4.83496,-3.85614 6.81582,-10.87709 4.01563,-14.23296 0.29443,-30.48942 -13.3239,-58.20689 l -6.19402,-12.6067 0,-13.00639 0,-13.00637 -14.3969,0 -14.3969,0 0,13.27695 0,13.27695 -4.13373,7.59284 c -10.80927,19.85447 -17.29421,38.27872 -17.29421,49.13422 0,4.9011 1.58991,12.92706 3.38948,17.11026 1.35275,3.14457 3.9311,6.00901 7.03187,7.81212 1.21284,0.70527 1.1809,1.1917 -0.98944,15.06652 -1.23351,7.88575 -2.50352,14.66897 -2.82224,15.07381 -0.34915,0.4435 -4.63937,0.89495 -10.79304,1.13573 -25.62455,1.00266 -44.7484,7.84355 -51.444737,18.40258 -1.281386,2.02054 -1.959497,3.97136 -1.959497,5.6372 l 0,2.54739 93.077634,0 c 89.93841,0 93.07764,-0.0416 93.07764,-1.23229 z M 266.9847,140.67598 c -0.29501,-6.94197 -4.82693,-13.5471 -12.8201,-18.68486 -4.90993,-3.15595 -9.44881,-5.11637 -20.80936,-8.98789 -16.35834,-5.5747 -26.28624,-11.69545 -33.14548,-20.434817 l -2.96845,-3.782118 3.00146,-2.641992 c 4.87504,-4.291181 5.95878,-6.995065 5.95878,-14.866921 0,-6.087517 -0.16621,-6.978957 -1.82834,-9.806367 -3.70312,-6.299312 -9.31685,-9.426701 -16.92112,-9.426701 -5.55274,0 -9.36236,1.387519 -13.29853,4.843518 -4.30221,3.77739 -5.4472,6.731631 -5.4473,14.054739 -1.2e-4,8.918841 2.00363,13.587537 7.18362,16.737674 l 1.88733,1.147753 -2.92304,3.970664 c -6.64853,9.031388 -17.42312,15.719328 -31.67515,19.661218 -11.12336,3.07655 -23.1725,9.97102 -29.26123,16.74316 -3.2969,3.66694 -5.81605,9.33337 -5.81605,13.08226 l 0,2.3213 79.51776,-0.17014 79.51776,-0.17014 -0.15256,-3.59034 z"
     id="path3338"
     inkscape:connector-curvature="0"
     transform="scale(0.8,0.8)" />
</svg>
