<?xml version="1.0" encoding="UTF-8" standalone="no"?>
<svg
   xmlns:dc="http://purl.org/dc/elements/1.1/"
   xmlns:cc="http://creativecommons.org/ns#"
   xmlns:rdf="http://www.w3.org/1999/02/22-rdf-syntax-ns#"
   xmlns:svg="http://www.w3.org/2000/svg"
   xmlns="http://www.w3.org/2000/svg"
   xmlns:sodipodi="http://sodipodi.sourceforge.net/DTD/sodipodi-0.dtd"
   xmlns:inkscape="http://www.inkscape.org/namespaces/inkscape"
   version="1.0"
   width="300.000000pt"
   height="300.000000pt"
   viewBox="0 0 300.000000 300.000000"
   preserveAspectRatio="xMidYMid meet"
   id="svg2"
   inkscape:version="0.92.2 (5c3e80d, 2017-08-06)"
   sodipodi:docname="wq.svg">
  <defs
     id="defs12" />
  <sodipodi:namedview
     pagecolor="#ffffff"
     bordercolor="#666666"
     borderopacity="1"
     objecttolerance="10"
     gridtolerance="10"
     guidetolerance="10"
     inkscape:pageopacity="0"
     inkscape:pageshadow="2"
     inkscape:window-width="1920"
     inkscape:window-height="1018"
     id="namedview10"
     showgrid="false"
     inkscape:zoom="1.493377"
     inkscape:cx="17.079171"
     inkscape:cy="169.99886"
     inkscape:window-x="-8"
     inkscape:window-y="-8"
     inkscape:window-maximized="1"
     inkscape:current-layer="svg2"
     inkscape:pagecheckerboard="true" />
  <metadata
     id="metadata4">
Created by potrace 1.12, written by Peter Selinger 2001-2015
<rdf:RDF>
  <cc:Work
     rdf:about="">
    <dc:format>image/svg+xml</dc:format>
    <dc:type
       rdf:resource="http://purl.org/dc/dcmitype/StillImage" />
    <dc:title></dc:title>
  </cc:Work>
</rdf:RDF>
</metadata>
  <path
     transform="scale(0.8,0.8)"
     style="opacity:1;fill:#ffffff;fill-opacity:1;stroke:#000000;stroke-width:0;stroke-miterlimit:4;stroke-dasharray:none;stroke-opacity:1"
     d="m 138.23438,9.2597656 c -5.64501,-0.1693123 -11.08866,0.088146 -17.99805,2.6933594 -13.7268,5.17574 -24.427538,15.079599 -28.718752,30.294922 -3.222795,11.426976 -2.950584,17.388306 0.707031,28.400391 l 0,0.002 c 2.415237,7.271574 5.909424,12.61152 10.449221,16.958984 -2.3061,8.909644 -5.306935,20.431608 -8.378908,32.175788 -1.555754,5.94765 -2.849293,10.84273 -4.326172,16.46484 -2.527358,-2.06007 -4.884811,-3.99408 -7.033203,-5.79102 0.102126,-4.41671 -0.543602,-8.56268 -1.611328,-12.50781 C 79.34175,110.62617 75.9669,103.54717 68.84375,97.292969 48.395248,79.338951 13.709293,85.560075 1.5859375,110.24805 -4.5117929,122.66545 -5.1331355,133.71728 0.88476562,146.85938 9.0350179,161.6651 15.789554,163.91929 23.379182,168.72634 L 37.046875,199.9082 53.527344,238 l 4.822265,41.09375 0.002,0.002 5.216797,44.4336 c 0.651599,5.54636 3.305297,10.66416 7.462891,14.39258 l 1.794922,1.60937 0.0059,0.006 c 20.574565,18.43612 50.122531,25.80644 87.236331,28.79492 16.26639,1.30981 48.0532,0.91914 64.21875,-1.05859 29.04179,-3.55303 53.57864,-10.94469 73.54101,-23.74805 1.32242,-0.84816 2.54244,-1.63445 3.48047,-2.24414 0.46902,-0.30484 0.86105,-0.56181 1.20508,-0.78906 0.17202,-0.11363 0.3241,-0.21376 0.53321,-0.35547 0.20897,-0.14162 -1.7109,1.74073 2.34179,-1.79688 3.9e-4,-3.3e-4 5.04706,-6.18095 5.68555,-7.54296 0.63849,-1.36202 0.87162,-2.10449 1.06055,-2.68946 0.37785,-1.16994 0.47092,-1.654 0.56054,-2.05469 0.17924,-0.80137 0.21636,-1.07995 0.25781,-1.33203 0.0829,-0.50416 0.10586,-0.69785 0.13282,-0.90234 0.0539,-0.40898 0.0886,-0.70945 0.13086,-1.07813 0.0845,-0.73735 0.18449,-1.66162 0.30859,-2.83593 0.2482,-2.34863 0.58616,-5.65391 0.99609,-9.72266 0.81987,-8.13749 1.92289,-19.30131 3.11329,-31.56445 l 3.94921,-40.70313 17.1543,-37.65234 0.002,-0.002 14.22822,-31.43774 c 0,0 18.56474,-12.77613 22.16436,-20.3025 2.57572,-4.84932 4.20823,-13.75297 4.20703,-19.32617 -0.001,-5.68705 -2.0826,-15.29507 -4.42968,-19.76758 -7.67539,-14.625843 -24.52154,-24.219827 -41.13282,-23.027342 -22.66331,1.62693 -40.24358,21.619162 -39.73437,43.587892 -2.23042,1.7848 -4.91383,3.90163 -8.24219,6.49023 -1.23149,-5.02516 -2.16945,-8.81857 -3.53906,-14.43164 -3.23353,-13.25195 -6.20605,-25.411222 -8.39258,-34.333982 -0.0645,-0.26309 -0.0912,-0.37346 -0.1543,-0.63086 8.23481,-8.589524 13.56836,-20.487869 13.56836,-31.873047 0,-16.373444 -10.57692,-33.847747 -25.375,-41.132812 -4.75621,-2.341476 -14.71539,-4.558594 -21.64062,-4.558594 -6.77927,0 -16.37242,1.965678 -20.89258,4.185547 -9.52926,4.679852 -15.3166,9.079596 -20.91797,19.980469 -5.14978,10.02199 -6.43045,15.057694 -4.66601,27.103515 3.88404,16.716709 4.13291,12.207798 2.76026,10.819156 l -8.47316,16.155454 c -2.77186,-5.614738 -5.68291,-11.496918 -7.78515,-15.830078 -0.0359,-0.07399 -0.0484,-0.104309 -0.084,-0.177735 4.70659,-11.280206 4.3639,-23.643395 -0.57031,-35.113281 C 173.93205,23.373233 168.31431,18.525803 156.04102,13.03125 149.30026,10.013539 143.88126,9.4291348 138.23438,9.2597656 Z M 116.76172,96.835938 c 0.87634,0.42047 0.37024,0.166311 1.11719,0.537109 -0.12545,-0.04912 -0.19535,0.08595 -1.11719,-0.537109 z"
     id="path3340"
     inkscape:connector-curvature="0"
     sodipodi:nodetypes="ssscccsccsssccccccccccssscsccssssccsscccccccssccsccssssscccccsssccc" />
  <path
     style="opacity:1;fill:#000000;fill-opacity:1;stroke:#000000;stroke-width:0;stroke-miterlimit:4;stroke-dasharray:none;stroke-opacity:1"
     d="m 166.94086,345.43706 c -26.06194,-1.44577 -49.72544,-6.52921 -64.18881,-13.78915 -5.020081,-2.51985 -13.610759,-8.18268 -15.381263,-10.13906 -0.787718,-0.87042 -2.292188,-11.84857 -6.212832,-45.33522 L 75.984545,231.98696 58.1833,190.73174 40.382057,149.47653 36.467722,148.74162 c -14.452254,-2.71339 -21.286395,-19.84645 -12.618141,-31.63345 2.891168,-3.93138 6.680993,-6.47764 11.465705,-7.70342 7.04106,-1.80384 13.961652,0.27806 19.066691,5.73576 5.445822,5.82202 6.955831,12.60389 4.452324,19.99664 -0.794058,2.34482 -1.353359,4.32719 -1.242891,4.40528 0.110469,0.0781 10.07209,8.03865 22.136936,17.69015 12.064848,9.65149 22.310084,17.68801 22.767184,17.85893 0.5907,0.22087 4.49559,-13.68382 13.49928,-48.06876 6.96748,-26.60874 12.79251,-48.735807 12.9445,-49.171265 0.15201,-0.435504 -1.32984,-1.555071 -3.29343,-2.48825 -5.37503,-2.554439 -8.29542,-5.328038 -10.65355,-10.118071 -1.80584,-3.668179 -2.12994,-5.086482 -2.17511,-9.518295 -0.0344,-3.367739 0.36981,-6.452691 1.14377,-8.73107 1.67368,-4.927017 6.71796,-10.266745 12.29003,-13.009864 3.96555,-1.952236 4.97877,-2.164301 10.15932,-2.126332 7.65153,0.05608 12.27387,1.819756 17.03204,6.498661 5.10272,5.017719 6.71517,8.795012 6.76334,15.843713 0.0397,5.814557 -1.03495,9.184566 -4.73838,14.858507 l -1.17543,1.800852 16.25355,33.019554 c 8.93946,18.16076 16.45609,33.22889 16.70364,33.48472 0.24754,0.25585 8.3334,-14.66001 17.96858,-33.14635 l 17.5185,-33.611513 -1.65753,-2.187435 c -3.27071,-4.316299 -4.52719,-8.147877 -4.55743,-13.897604 -0.025,-4.751966 0.22585,-5.887201 2.17616,-9.848836 4.70032,-9.547721 14.97271,-14.524951 26.01059,-12.602788 5.42375,0.944506 8.79702,2.596441 12.75853,6.248028 4.4832,4.132476 6.4006,8.38025 6.76491,14.986852 0.56799,10.300264 -3.43168,17.363845 -12.30584,21.732576 -3.17552,1.563305 -4.23301,2.412848 -3.98475,3.201184 0.18587,0.590219 5.58512,22.562236 11.99833,48.826706 6.41321,26.26447 11.8277,47.9209 12.03221,48.1254 0.55523,0.55523 47.24107,-35.47139 47.27747,-36.48317 0.0172,-0.47865 -0.4688,-1.83464 -1.08006,-3.0133 -1.69206,-3.26272 -1.51461,-10.67453 0.3575,-14.93204 3.23588,-7.35898 10.36853,-11.9276 18.56479,-11.89113 16.40225,0.073 25.50936,19.31741 15.40857,32.56023 -2.66824,3.49825 -6.68337,5.97647 -11.64107,7.18511 l -4.4262,1.07907 -18.63404,40.91948 -18.63403,40.9195 -3.99643,41.40752 c -2.19802,22.77413 -4.18252,42.86559 -4.40998,44.64767 -0.40083,3.14046 -0.55813,3.33368 -5.11213,6.27966 -25.85718,16.72692 -67.98281,24.38042 -118.70489,21.56663 z m 44.86476,-12.0261 c 4.41951,-0.37385 12.7061,-1.28575 18.41464,-2.02644 32.52803,-4.22058 46.97564,-10.48059 45.26261,-19.61184 -1.56443,-8.33915 -18.04754,-13.95865 -53.63291,-18.2848 -14.29527,-1.73788 -54.57968,-1.75796 -68.63638,-0.0342 -30.78854,3.77557 -47.28345,8.38035 -52.58384,14.6795 -2.181047,2.59204 -2.270053,6.92979 -0.19628,9.56617 5.61905,7.14345 27.3966,12.69223 61.48522,15.66602 9.25953,0.80778 40.53869,0.83636 49.88694,0.0456 z M 99.440432,297.00646 c 20.494908,-12.01169 55.778158,-17.68916 98.411478,-15.83552 37.38879,1.62562 59.13254,5.91024 76.27655,15.03034 l 5.64392,3.00239 0,-9.64609 0,-9.64608 -8.7365,-9.71517 -8.7365,-9.71516 10.24315,-0.18502 10.24315,-0.18502 0.76576,-8.7051 c 0.42117,-4.7878 0.79783,-10.44155 0.83703,-12.56388 l 0.0713,-3.85878 -3.85033,-1.73195 c -18.7148,-8.41826 -36.68633,-13.41426 -59.29362,-16.48336 -9.38072,-1.2735 -13.93146,-1.47418 -33.61661,-1.48242 -19.87284,-0.008 -24.15794,0.18038 -33.7069,1.48442 -21.09535,2.88086 -40.08612,8.00696 -56.564481,15.26822 l -7.238085,3.18949 0.343322,2.39733 c 0.188828,1.31854 0.521657,5.71197 0.739626,9.76319 0.217969,4.05122 0.566368,8.63885 0.774225,10.19472 l 0.377922,2.82885 10.060291,0.18445 10.06028,0.18445 -8.79452,9.84428 -8.794506,9.84429 0,9.40738 c 0,5.17406 0.13452,9.40739 0.298933,9.40739 0.164419,0 2.047735,-1.02494 4.185145,-2.27764 z M 93.86833,219.8901 c 58.56291,-22.04978 129.12818,-22.40981 185.23442,-0.94511 4.97196,1.90213 9.47659,3.5054 10.01031,3.56283 0.65753,0.0708 6.43724,-11.43185 17.92679,-35.67731 9.32603,-19.67995 16.87461,-36.01487 16.77464,-36.29983 -0.1,-0.28496 -12.98225,9.54519 -28.62725,21.84477 -15.645,12.29958 -28.55534,22.25298 -28.68965,22.11868 -0.1343,-0.1343 -6.79439,-25.65304 -14.8002,-56.7083 l -14.55601,-56.46411 -2.28872,-0.755734 c -1.2588,-0.415653 -3.20112,-0.952224 -4.31628,-1.192381 l -2.02755,-0.436647 -20.38898,41.519552 c -11.21394,22.83574 -20.59438,41.30148 -20.84541,41.03496 -0.25104,-0.26652 -9.12088,-18.56441 -19.71077,-40.66198 -10.5899,-22.097565 -19.49682,-40.453594 -19.79316,-40.791173 -0.32446,-0.369596 -1.9463,-0.29663 -4.0767,0.183411 l -3.53789,0.79719 -14.6911,53.386452 c -8.0801,29.36255 -15.16181,54.98481 -15.73711,56.93837 l -1.04601,3.55191 -29.005363,-24.20932 C 63.72339,157.37121 50.525999,146.622 50.3488,146.7992 c -0.177198,0.17719 6.96604,16.10229 15.873863,35.38911 8.907823,19.28681 16.771134,36.34759 17.474026,37.91283 0.702892,1.56525 1.452266,2.8459 1.665277,2.8459 0.21301,0 4.040874,-1.37562 8.506364,-3.05694 z m 247.81363,-80.92484 c 3.35981,-1.40383 4.69391,-3.89158 4.70694,-8.77722 0.0179,-6.74163 -2.32552,-9.51294 -8.59123,-10.15962 -4.41877,-0.45605 -7.96859,0.9668 -9.8334,3.94149 -1.85806,2.96389 -1.63801,10.38148 0.37491,12.63803 2.83234,3.17515 8.8436,4.23718 13.34278,2.35732 z M 45.490236,137.5256 c 2.51585,-1.301 3.931735,-4.54463 3.931735,-9.00718 0,-6.56344 -3.25626,-9.60179 -10.222382,-9.53829 -6.600208,0.0602 -9.531505,3.12746 -9.531505,9.97369 0,4.53313 1.338369,7.19156 4.417102,8.77379 2.283066,1.17331 8.974669,1.05479 11.40505,-0.20201 z M 143.84905,66.08779 c 4.24348,-2.150887 5.64384,-4.919855 5.66479,-11.201106 0.0296,-8.879449 -3.48498,-12.403114 -12.37122,-12.403114 -8.49662,0 -12.16585,3.204189 -12.60686,11.009046 -0.3072,5.436544 0.57654,8.562279 3.08021,10.894529 3.76973,3.511633 11.13738,4.283499 16.23308,1.700645 z m 101.87326,0.820232 c 5.71153,-1.58642 8.81763,-8.241006 7.28731,-15.612509 -1.32322,-6.373958 -7.07847,-9.845805 -14.80446,-8.930775 -6.96854,0.82532 -9.99377,4.596294 -9.99377,12.457305 0,8.803459 3.56157,12.559437 12.05321,12.711109 1.65732,0.0296 4.11329,-0.251706 5.45771,-0.62513 z"
     id="path3341"
     inkscape:connector-curvature="0"
     transform="scale(0.8,0.8)" />
  <path
     style="opacity:1;fill:#000000;fill-opacity:1;stroke:#000000;stroke-width:0;stroke-miterlimit:4;stroke-dasharray:none;stroke-opacity:1"
     d="m 180.46664,257.08212 c -9.23361,-0.8803 -13.45882,-3.33058 -13.45882,-7.80504 0,-4.54234 5.2705,-7.10002 16.33881,-7.92894 6.23017,-0.46659 16.33805,0.55203 19.78996,1.99433 7.13549,2.9814 6.57318,10.23835 -0.96401,12.44101 -2.34044,0.68397 -13.43404,2.02583 -15.47784,1.87217 -0.55244,-0.0415 -3.35508,-0.29962 -6.2281,-0.57353 z"
     id="path3343"
     inkscape:connector-curvature="0"
     transform="scale(0.8,0.8)" />
</svg>
