<?xml version="1.0" encoding="UTF-8" standalone="no"?>
<svg id="svg2" xmlns:rdf="http://www.w3.org/1999/02/22-rdf-syntax-ns#" xmlns="http://www.w3.org/2000/svg" height="100%" width="100%" version="1.1" xmlns:cc="http://creativecommons.org/ns#" xmlns:dc="http://purl.org/dc/elements/1.1/" viewBox="0 -410 2048 2048">
 <metadata id="metadata12">
  <rdf:RDF>
   <cc:Work rdf:about="">
    <dc:format>image/svg+xml</dc:format>
    <dc:type rdf:resource="http://purl.org/dc/dcmitype/StillImage"/>
   </cc:Work>
  </rdf:RDF>
 </metadata>
 <g id="g4" transform="matrix(1 0 0 -1 0 1638)">
  <path id="path6" d="m1041 1196q-42-41-1-81 38-41 86 3l196 221q20-19 28-35t23-40q28-45 54-100 26-56 40-107-9-106-66-208t-147-165l180-2q57 0 97-40.5t40-96.5v-1q0-26-18-66h53q70 0 120.5-50.5t50.5-120.5q0-71-50.5-121t-120.5-50h-1164q-72 0-122 50t-50 121q0 70 50 120.5t122 50.5h56q-21 25-21 66v1q0 56 40 96.5t97 40.5h175q-94 57-151 156t-56 219q59 187 149.5 324.5t125.5 182.5q13 40 47 61-52 44-52 117 0 71 50 121.5t122 50.5q70 0 120.5-50.5t50.5-121.5q0-65-49-128 20-40 24-47 31-44 81-140zm75 362l-35 70q-21-18-57-18-29 0-52 15l-44-67q46-27 96-27 52 0 92 27zm-264-837q-34 0-34-37 0-38 34-38h344q34 0 34 38 0 37-34 37h-344zm-271-228q-33 0-33-37t33-37h885q34 0 34 37t-34 37h-885z" fill="currentColor"/>
 </g>
 <path id="path2989" stroke-linejoin="round" d="m974.53 504.58c-36.951-11.276-39.198-17.126-18.896-49.191 15.8-24.955 19.345-26.47 42.797-18.295 17.866 6.2282 33.838 6.0316 53.011-0.65229 15.093-5.2613 28.264-8.5721 29.269-7.3574 1.0055 1.2148 8.2054 14.75 16 30.079 13.488 26.527 13.349 28.311-2.8855 36.999-25.473 13.633-87.795 18.029-119.3 8.4162z" transform="translate(0,-410)" fill="#ececec"/>
 <path id="path2991" stroke-linejoin="round" d="m834.99 1388.6c-14.061-14.062-13.418-37.342 1.3721-49.616 8.3302-6.9134 66.564-9.208 192.15-7.571 160.63 2.0938 181.23 3.9974 189.77 17.535 6.977 11.07 6.9769 19.303-0.0003 30.373-8.5377 13.546-29.19 15.439-191.14 17.523-133.91 1.7232-184.34-0.4406-192.15-8.2441z" transform="translate(0,-410)" fill="#ececec"/>
 <path id="path2993" stroke-linejoin="round" d="m561.25 1618.8c-12.053-12.053-5.2635-46.067 10.925-54.73 10.933-5.8514 169.19-8.9833 453.93-8.9833 470.47 0 471.34 0.082 465.15 43.876l-2.9936 21.209-460.58 2.2447c-253.32 1.2347-463.22-0.3924-466.44-3.6158z" transform="translate(0,-410)" fill="#ececec"/>
</svg>
