<?xml version="1.0" encoding="UTF-8" standalone="no"?>
<svg id="svg2" xmlns:rdf="http://www.w3.org/1999/02/22-rdf-syntax-ns#" xmlns="http://www.w3.org/2000/svg" height="100%" width="100%" version="1.1" xmlns:cc="http://creativecommons.org/ns#" xmlns:dc="http://purl.org/dc/elements/1.1/" viewBox="0 -410 2048 2048">
 <metadata id="metadata12">
  <rdf:RDF>
   <cc:Work rdf:about="">
    <dc:format>image/svg+xml</dc:format>
    <dc:type rdf:resource="http://purl.org/dc/dcmitype/StillImage"/>
   </cc:Work>
  </rdf:RDF>
 </metadata>
 <g id="g4" transform="matrix(1 0 0 -1 0 1638)">
  <path id="path6" d="m1184 819l-156 79-160-79 160-78zm-530-71l141 71-156 79-31-16zm750-2l43 131-30 21-160-79zm-723-67q-34 0-34-34t34-34h686q34 0 34 34t-34 34h-686zm-135-202q-34 0-34-36 0-37 34-37h956q34 0 34 37 0 36-34 36h-956zm341 955q-34 0-34-34t34-34h274q33 0 33 34t-33 34h-274zm-34 237v137l119-17-16 121h135l-16-121 119 17v-137l-119 18v-123h-103v123zm-359-1191q-18 31-18 65 0 55 40 94.5t97 36.5q-55 183-89 257t-112 158q-64 72-103 109.5t-39 93.5v1q0 55 39.5 95t96.5 40h429q-17 20-17 36 0 100 100 100h212q100 0 100-100 0-17-18-36h430q55 0 95-40t40-95v-1q0-56-41.5-91.5t-107.5-107.5q-72-89-108-167t-84-252q55 3 95-36.5t40-94.5q0-34-15-65h50q70 0 120.5-50.5t50.5-120.5q0-71-50.5-121t-120.5-50h-1164q-72 0-122 50t-50 121q0 70 50 120.5t122 50.5h52zm87 543q-33 0-33-34t33-34h885q34 0 34 34t-34 34h-885z" fill="currentColor"/>
 </g>
 <path id="path2989" stroke-linejoin="round" d="m872.85 672.4c-8.5906-6.2816-14.165-18.973-12.387-28.203 3.0561-15.869 11.958-16.782 163.54-16.782s160.48 0.9135 163.54 16.782c6.4005 33.235-19.968 39.624-163.54 39.624-98.357 0-139.81-3.1326-151.15-11.421z" transform="translate(0,-410)" fill="#ececec"/>
 <path id="path2991" stroke-linejoin="round" d="m558.75 1079.3c-2.6564-6.9225-3.4698-19.648-1.8075-28.28 2.8706-14.906 26.313-15.693 467.17-15.693h464.15v26.034 26.034l-462.34 2.2456c-397.38 1.9301-463.02 0.4771-467.17-10.34z" transform="translate(0,-410)" fill="#ececec"/>
 <path id="path2993" stroke-linejoin="round" d="m950.45 1263.7-69.21-35.367 73.537-36.974 73.537-36.974 69.436 34.733c38.19 19.103 70.816 35.985 72.503 37.515 3.7724 3.4212-134.56 73.473-143.89 72.868-3.6856-0.2385-37.846-16.349-75.911-35.801z" transform="translate(0,-410)" fill="#ececec"/>
 <path id="path2995" stroke-linejoin="round" d="m634.34 1229.4c-26.253-81.514-18.376-85.933 72.313-40.567 38.515 19.267 71.405 36.278 73.087 37.804 2.6886 2.4375-115.31 64.633-122.63 64.633-1.5661 0-11.814-27.842-22.774-61.87z" transform="translate(0,-410)" fill="#ececec"/>
 <path id="path2997" stroke-linejoin="round" d="m1332.3 1259.4-60.502-31.037 64.841-33.192c65.266-33.409 90.38-40.215 98.702-26.749 5.068 8.2002-30.406 123.11-37.8 122.44-2.6065-0.2347-31.965-14.393-65.241-31.463z" transform="translate(0,-410)" fill="#ececec"/>
 <path id="path2999" stroke-linejoin="round" d="m656.73 1424.4c-11.62-11.62-5.5495-37.263 10.907-46.07 10.755-5.7561 139.54-8.9832 358.48-8.9832 361.24 0 377 1.6893 369.7 39.624-3.1242 16.231-15.227 16.857-368.22 19.045-200.74 1.2444-367.63-0.3828-370.87-3.6158z" transform="translate(0,-410)" fill="#ececec"/>
 <path id="path3001" stroke-linejoin="round" d="m524.04 1626c-2.6553-6.9196-3.4678-19.643-1.8056-28.274 2.8737-14.922 27.539-15.693 501.89-15.693h498.86v26.034 26.034l-497.06 2.2407c-427.61 1.9276-497.73 0.4828-501.89-10.341z" transform="translate(0,-410)" fill="#ececec"/>
</svg>
