<?xml version="1.0" encoding="UTF-8" standalone="no"?>
<svg id="svg2" xmlns:rdf="http://www.w3.org/1999/02/22-rdf-syntax-ns#" xmlns="http://www.w3.org/2000/svg" height="100%" width="100%" version="1.1" xmlns:cc="http://creativecommons.org/ns#" xmlns:dc="http://purl.org/dc/elements/1.1/" viewBox="0 -410 2048 2048">
 <metadata id="metadata12">
  <rdf:RDF>
   <cc:Work rdf:about="">
    <dc:format>image/svg+xml</dc:format>
    <dc:type rdf:resource="http://purl.org/dc/dcmitype/StillImage"/>
   </cc:Work>
  </rdf:RDF>
 </metadata>
 <g id="g4" transform="matrix(1 0 0 -1 0 1638)">
  <path id="path6" d="m833 816q26-9 58.5-13t50.5 23q-24 51-25 120.5t44 138.5q10 18 30 47.5t31 41.5q0 48-33 36t-13 2q-46-39-90-108-60-92-76.5-160.5t23.5-127.5zm-5 840q-75-42-53-78 20-36 94 7 73 43 54 79-22 36-95-8zm-147-918q-34 0-34-37t34-37h686q34 0 34 37t-34 37h-686zm-133-244q-36 0-36-40 0-39 36-39h952q36 0 36 39 0 40-36 40h-952zm895 184q47-7 87.5-43.5t40.5-91.5q0-34-15-65h46q71 0 121.5-50.5t50.5-120.5q0-71-50.5-121t-121.5-50h-1157q-71 0-121 50t-50 121q0 70 50 120.5t121 50.5h47q-16 33-16 65 0 55 40.5 96t100.5 47q-5 93-3 186t31 180q57 121 119 176t143 82q-67 3-75.5 4t-56.5 28q-48 13-64 14t-85-20q-75-12-111-8t-38 72q-30 42-62.5 90.5t26.5 116.5q159 50 230.5 55t149.5 80q99 21 140 53.5t41 118.5q54-11 95-47.5t41-95.5q111-27 148.5-65.5t92.5-84.5q69-91 71.5-159t-7.5-137q-31-67-63-124.5t-48-147.5q0-87 27-157t71-128zm-483 611q12 0 22-1.5t31 1.5q72 10 119.5 58t33.5 76q-6 37-51 37-17-98-116-114-16-3-25-5t-28-8q-45-30 14-44z" fill="currentColor"/>
 </g>
 <path id="path2989" stroke-linejoin="round" d="m524.09 1615.7c-2.6291-6.8514-3.4951-21.528-1.9244-32.614l2.8558-20.156h498.98 498.98v30.373 30.373l-497.06 2.2406c-425.35 1.9174-497.75 0.4435-501.84-10.216z" transform="translate(0,-410)" fill="#ececec"/>
 <path id="path2991" stroke-linejoin="round" d="m653.53 1362.1c-2.9962-7.808-1.4718-20.5 3.3876-28.203 7.8985-12.522 46.822-14.007 367.08-14.007s359.18 1.4853 367.08 14.007c4.8594 7.7038 6.3838 20.395 3.3876 28.203-4.9241 12.832-40.532 14.196-370.47 14.196s-365.54-1.3645-370.47-14.196z" transform="translate(0,-410)" fill="#ececec"/>
 <path id="path2993" stroke-linejoin="round" d="m848.78 1231.6c-8.0707-2.1285-21.252-21.095-29.293-42.148-12.417-32.514-13.053-44.498-4.22-79.575 28.488-113.13 154.71-289.9 190.99-267.48 15.829 9.783 10.052 26.527-30.327 87.898-50.422 76.635-68.515 136.85-60.469 201.24 3.3266 26.625 9.297 56.954 13.268 67.398 4.5206 11.89 3.5635 22.644-2.5605 28.768-9.5935 9.5935-48.382 11.547-77.389 3.8966z" transform="translate(0,-410)" fill="#ececec"/>
 <path id="path2995" stroke-linejoin="round" d="m967.59 753.55c-55.012-9.6965-44.392-29.715 24.294-45.795 64.138-15.015 90.654-32.994 111.17-75.381 9.8701-20.389 23.318-37.071 29.883-37.071 13.2 0 29.904 26.173 29.904 46.856 0 18.116-49.033 72.62-79.509 88.38-29.175 15.087-90.984 27.375-115.75 23.01z" transform="translate(0,-410)" fill="#ececec"/>
 <path id="path2997" stroke-linejoin="round" d="m780.99 465.08c-7.6534-14.301-5.371-21.363 12.766-39.499 32.013-32.013 90.993-56.729 110.48-46.299 32.562 17.427 10.41 53.102-53.088 85.496-43.567 22.226-58.393 22.29-70.161 0.30199v0.00001z" transform="translate(0,-410)" fill="#ececec"/>
</svg>
