<?xml version="1.0" encoding="UTF-8" standalone="no"?>
<svg id="svg2" xmlns:rdf="http://www.w3.org/1999/02/22-rdf-syntax-ns#" xmlns="http://www.w3.org/2000/svg" height="100%" width="100%" version="1.1" xmlns:cc="http://creativecommons.org/ns#" xmlns:dc="http://purl.org/dc/elements/1.1/" viewBox="0 -410 2048 2048">
 <metadata id="metadata12">
  <rdf:RDF>
   <cc:Work rdf:about="">
    <dc:format>image/svg+xml</dc:format>
    <dc:type rdf:resource="http://purl.org/dc/dcmitype/StillImage"/>
   </cc:Work>
  </rdf:RDF>
 </metadata>
 <g id="g4" transform="matrix(1 0 0 -1 0 1638)">
  <path id="path6" d="m766 1338l-13-78q41-5 73-5 130 0 198 86 30-39 82-58.5t115-27.5q40-6 76 3l-17 80q-75-19-149 19.5t-107 97.5q-35-56-103-94.5t-155-22.5zm110-250l148-78 152 78-152 78zm0-188l148-78 152 78-152 78zm294 85l148-77 153 77-153 79zm-593 0l149-77 152 77-152 79zm563 583q82-33 134-101t53-153q46 15 78 47t62 74q34-132 150-132 54 0 114 34t96 91l-391-749q53-4 94-42.5t41-93.5q0-31-18-65h53q70 0 120.5-50.5t50.5-120.5q0-71-50.5-121t-120.5-50h-1164q-72 0-122 50t-50 121q0 70 50 120.5t122 50.5h49q-15 20-15 65 0 55 41 93.5t95 41.5l-391 750q85-125 207-125 118 0 153 131 53-84 144-119-2 84 49 152t133 101q-33 44-33 96 0 62 43.5 106t106.5 44q62 0 106-44t44-106q0-53-34-96zm-5-35l-33 54q-34-30-78-30-41 0-71 27l-43-51q47-44 114-44t111 44zm-471-795q-35 0-35-37t35-37h720q35 0 35 37t-35 37h-720zm-115-244q-37 0-37-41 0-42 37-42h949q38 0 38 42 0 41-38 41h-949z" fill="currentColor"/>
 </g>
 <path id="path2989" stroke-linejoin="round" d="m534.61 1625.4c-10.259-7.5014-14.445-19.846-12.506-36.881l2.914-25.606h498.98 498.98l2.9139 25.606c5.5835 49.064 15.043 48.157-501.9 48.157-375.07 0-477.19-2.3527-489.39-11.275z" transform="translate(0,-410)" fill="#ececec"/>
 <path id="path2991" stroke-linejoin="round" d="m636.18 1362.1c-2.9962-7.808-1.4718-20.5 3.3876-28.203 7.9092-12.539 48.205-14.007 384.44-14.007 336.23 0 376.53 1.4682 384.44 14.007 4.8594 7.7038 6.3839 20.395 3.3876 28.203-4.9295 12.846-41.819 14.196-387.82 14.196s-382.89-1.3503-387.82-14.196z" transform="translate(0,-410)" fill="#ececec"/>
 <path id="path2993" stroke-linejoin="round" d="m1251.8 1100.6c-34.603-17.464-62.915-34.094-62.915-36.955 0-2.8609 29.216-20.557 64.924-39.324l64.924-34.123 65.246 33.394c35.885 18.366 65.246 36.059 65.246 39.317 0 4.9255-126.19 71.562-132.48 69.96-1.1143-0.2837-30.338-14.805-64.941-32.269z" transform="translate(0,-410)" fill="#ececec"/>
 <path id="path2995" stroke-linejoin="round" d="m956.5 1184.9c-34.739-19.265-61.434-37.822-59.324-41.237 2.1107-3.4152 31.625-19.652 65.588-36.082l61.751-29.873 71.298 35.344 71.298 35.344-71.362 35.88c-39.249 19.734-72.425 35.829-73.725 35.766-1.2991-0.063-30.785-15.877-65.523-35.142z" transform="translate(0,-410)" fill="#ececec"/>
 <path id="path2997" stroke-linejoin="round" d="m952.43 995.52c-32.204-17.27-58.547-33.352-58.539-35.738 0.007-2.3864 29.599-19.528 65.76-38.092l65.746-33.753 64.292 33.753c35.361 18.564 64.268 35.706 64.239 38.092-0.091 7.3797-119.99 69.493-131.8 68.281-6.1292-0.6286-37.493-15.273-69.697-32.542z" transform="translate(0,-410)" fill="#ececec"/>
 <path id="path2999" stroke-linejoin="round" d="m657.38 1099.7c-32.204-17.27-58.563-34.36-58.576-37.979-0.013-3.6187 29.349-21.113 65.248-38.877l65.272-32.297 64.824 34.538c35.653 18.996 64.857 36.61 64.897 39.144 0.0926 5.7962-128.12 69.564-136.75 68.014-3.5007-0.6286-32.714-15.273-64.918-32.542z" transform="translate(0,-410)" fill="#ececec"/>
 <path id="path3001" stroke-linejoin="round" d="m762.98 753.68 5.2639-32.542 56.285-4.9546c68.242-6.0071 112.79-26.171 162-73.322l37.149-35.595 32.486 33.269c47.762 48.912 108.21 76.264 168.54 76.264 40.01 0 50.61 2.9803 54.014 15.186 2.3294 8.3525 6.9477 24.562 10.263 36.02l6.0277 20.834-69.315-4.751c-76.322-5.2312-139.35-28.179-177.36-64.578l-23.382-22.391-39.605 34.862c-45.347 39.916-90.801 54.242-172.11 54.242h-55.537l5.2639-32.542z" transform="translate(0,-410)" fill="#ececec"/>
 <path id="path3003" stroke-linejoin="round" d="m957.79 539.9c-36.135-16.36-39.413-23.739-21.243-47.827 13.331-17.673 17.869-18.95 34.916-9.8269 17.345 9.2829 64.941 8.8725 116.31-1.0029 9.2902-1.7861 21.429 4.8701 28.848 15.819 11.878 17.529 11.109 20.017-10.59 34.235-30.506 19.988-112.57 24.751-148.24 8.6024z" transform="translate(0,-410)" fill="#ececec"/>
</svg>
