<?xml version="1.0" encoding="UTF-8" standalone="no"?>
<svg id="svg2" xmlns:rdf="http://www.w3.org/1999/02/22-rdf-syntax-ns#" xmlns="http://www.w3.org/2000/svg" height="100%" width="100%" version="1.1" xmlns:cc="http://creativecommons.org/ns#" xmlns:dc="http://purl.org/dc/elements/1.1/" viewBox="0 -410 2048 2048">
 <metadata id="metadata12">
  <rdf:RDF>
   <cc:Work rdf:about="">
    <dc:format>image/svg+xml</dc:format>
    <dc:type rdf:resource="http://purl.org/dc/dcmitype/StillImage"/>
   </cc:Work>
  </rdf:RDF>
 </metadata>
 <g id="g4" transform="matrix(1 0 0 -1 0 1638)">
  <path id="path6" d="m1518 511l88-33q70 0 120.5-50.5t50.5-120.5q0-71-50.5-121t-120.5-50h-1164q-72 0-122 50t-50 121q0 70 50 120.5t122 50.5l92 33q42 232 54.5 435t26.5 418v136h-138v407h273v-200h139v200h270v-200h139v200h273v-407h-138v-136q12-225 26-423t59-430zm-597 169h206v-159h-206v159zm0 443h206v-154h-206v154zm138-221h203v-154h-203v154zm-273 0h202v-154h-202v154zm273 444h203v-153h-203v153zm-273 0h202v-153h-202v153zm583 0v68h-686l-2-68h37v-153h-51l-2-70h188v-154h-199l-5-67h69v-154h-83l-4-68h222v-159h-277v-78h896v78h-278v159h230l-7 68h-87v154h72l-5 67h-203v154h189v70h-53v153h39z" fill="currentColor"/>
 </g>
 <path id="path2989" stroke-linejoin="round" d="m581.42 1569v-34.712h138.85 138.85v-86.78-86.78h-112.81c-118.96 0-118.44 0.1978-107.34-41.22 4.4173-16.483 11.159-19.525 43.271-19.525h38.039v-78.102-78.102h-35.724c-32.812 0-35.297-1.5914-30.491-19.525 2.8779-10.739 5.2859-24.407 5.3511-30.373 0.0879-8.0422 25.926-10.847 99.915-10.847h99.797v-82.441-82.441h-95.458-95.458v-30.373c0-27.962 2.0662-30.373 26.034-30.373h26.034v-78.102c0-72.316-1.2856-78.102-17.356-78.102-14.05 0-17.356-5.7853-17.356-30.373v-30.373h338.44 338.44v30.373c0 24.588-3.3059 30.373-17.356 30.373-16.07 0-17.356 5.7853-17.356 78.102v78.102h26.034c23.968 0 26.034 2.4106 26.034 30.373v30.373h-95.458-95.458v82.441 82.441h104.14 104.14v30.373c0 29.65-0.8264 30.373-34.712 30.373h-34.712v78.102 78.102h43.39 43.39v30.373 30.373h-112.81-112.81v86.78 86.78h138.85 138.85v34.712 34.712h-442.58-442.58v-34.712zm546.71-121.49v-86.78h-104.14-104.14v86.78 86.78h104.14 104.14v-86.78zm-138.85-225.63v-78.102h-104.14-104.14v78.102 78.102h104.14 104.14v-78.102zm277.69 0v-78.102h-104.14-104.14v78.102 78.102h104.14 104.14v-78.102zm-138.85-221.29v-82.441h-104.14-104.14v82.441 82.441h104.14 104.14v-82.441zm-138.85-221.29v-78.102h-104.14-104.14v78.102 78.102h104.14 104.14v-78.102zm277.69 0v-78.102h-104.14-104.14v78.102 78.102h104.14 104.14v-78.102z" transform="translate(0,-410)" fill="#ececec"/>
</svg>
