<?xml version="1.0" encoding="UTF-8" standalone="no"?>
<svg id="svg2" xmlns:rdf="http://www.w3.org/1999/02/22-rdf-syntax-ns#" xmlns="http://www.w3.org/2000/svg" height="100%" width="100%" version="1.1" xmlns:cc="http://creativecommons.org/ns#" xmlns:dc="http://purl.org/dc/elements/1.1/" viewBox="0 -410 2048 2048">
 <metadata id="metadata12">
  <rdf:RDF>
   <cc:Work rdf:about="">
    <dc:format>image/svg+xml</dc:format>
    <dc:type rdf:resource="http://purl.org/dc/dcmitype/StillImage"/>
   </cc:Work>
  </rdf:RDF>
 </metadata>
 <g id="g4" transform="matrix(1 0 0 -1 0 1638)">
  <path id="path6" d="m1024 1642q100 0 100 100 0 101-100 101t-100-101q0-100 100-100zm-409-1028q-67 0-67-68t67-68h817q68 0 68 68t-68 68h-817zm-174-207q-100 0-100-100t100-100h1165q100 0 100 100t-100 100h-1165zm672 724l194 221q32-31 66-88 28-45 54-100 26-56 40-107-9-106-66-208t-147-165l180-2q57 0 97-40.5t40-96.5v-1q0-26-18-66h53q70 0 120.5-50.5t50.5-120.5q0-71-50.5-121t-120.5-50h-1164q-72 0-122 50t-50 121q0 70 50 120.5t122 50.5h56q-21 25-21 66v1q0 56 40 96.5t97 40.5h175q-94 57-151 156t-56 219q59 187 149.5 324.5t125.5 182.5q13 40 47 61-52 44-52 117 0 71 50 121.5t122 50.5q70 0 120.5-50.5t50.5-121.5q0-65-49-128 20-40 24-47 31-44 81-140l-212-235q-34-34 7-66 37-33 67 5zm38-46q-29-30-76.5-29.5t-68.5 20.5-30.5 61.5 17.5 76.5l191 225q3 3-11.5 15.5t-21.5 22.5q-13 21-29.5 50.5t-34.5 53.5q-34-10-63-10-35 0-65 13-48-32-88-113-158-203-216-417-26-138 105.5-256t263.5-118 258.5 125.5 116.5 255.5q-15 45-42 99.5t-49 96.5z" fill="currentColor"/>
 </g>
 <path id="path2989" stroke-linejoin="round" d="m416.54 1832.2c-49.514-12.511-69.424-40.242-69.424-96.697 0-28.164 5.4941-41.444 25.366-61.316l25.366-25.366h625 625l23.293 20.036c17.791 15.303 24.257 30.165 27.371 62.915 5.0063 52.64-16.625 85.426-65.278 98.939-35.085 9.7442-1178.5 11.144-1216.7 1.4901z" transform="translate(0,-410)" fill="#f9f9f9"/>
 <path id="path2991" stroke-linejoin="round" d="m569.75 1546.2c-19.409-21.447-18.556-73.103 1.5078-91.26 14.326-12.965 58.51-14.362 454.25-14.362 413.67 0 439.19 0.8943 452.74 15.87 19.409 21.447 18.556 73.103-1.5078 91.26-14.326 12.965-58.51 14.362-454.25 14.362-413.67 0-439.19-0.8944-452.74-15.87z" transform="translate(0,-410)" fill="#f9f9f9"/>
 <path id="path2993" stroke-linejoin="round" d="m932.77 1346.8c-67.55-23.3-125.3-60.7-182.55-118.2-116.44-116.9-119.87-214.9-14.89-425.89 33.91-68.15 185.27-298.91 208.52-317.9 10.908-8.9122 33.24-11.474 80.89-9.2797l65.823 3.0312 32.175 53.602c17.696 29.481 36.461 59.788 41.7 67.349 7.8021 11.261-8.9189 35.436-92.454 133.67l-101.98 119.92 3.8536 46.469c4.5578 54.961 28.015 85.27 72.445 93.605 60.631 11.374 90.353-5.7481 178.1-102.6l81.635-90.11 19.146 35.84c10.531 19.712 31.255 64.415 46.054 99.339 25.598 60.409 26.419 65.898 16.872 112.81-13.008 63.926-48.003 124.61-105.42 182.8-112.9 114.43-235.84 155.04-349.92 115.59z" transform="translate(0,-410)" fill="#f9f9f9"/>
 <path id="path2995" stroke-linejoin="round" d="m960.53 378.23c-56.339-52.213-33.7-150.09 38.034-164.44 59.351-11.87 107.33 16.053 117.11 68.151 12.974 69.156-24.626 117.24-91.674 117.24-31.167 0-46.218-4.9694-63.467-20.955z" transform="translate(0,-410)" fill="#f9f9f9"/>
</svg>
