<?xml version="1.0" encoding="UTF-8" standalone="no"?>
<svg id="svg2" xmlns:rdf="http://www.w3.org/1999/02/22-rdf-syntax-ns#" xmlns="http://www.w3.org/2000/svg" height="100%" width="100%" version="1.1" xmlns:cc="http://creativecommons.org/ns#" xmlns:dc="http://purl.org/dc/elements/1.1/" viewBox="0 -410 2048 2048">
 <metadata id="metadata12">
  <rdf:RDF>
   <cc:Work rdf:about="">
    <dc:format>image/svg+xml</dc:format>
    <dc:type rdf:resource="http://purl.org/dc/dcmitype/StillImage"/>
   </cc:Work>
  </rdf:RDF>
 </metadata>
 <g id="g4" transform="matrix(1 0 0 -1 0 1638)">
  <path id="path6" d="m1184 819l-156-78-160 78 160 79zm210-69l-137 69 160 79 22-13q7 18 14.5 36t13.5 33l-877-1q13-49 22-71l27 16 156-79-137-68q5-18 10.5-36.5t11.5-37.5l691 1q13 46 23 72zm112 272q31 54 64 91t69 76q24 29 45.5 52.5t21.5 52.5q0 70-69 70h-1226q-70 0-70-70 0-29 20.5-52.5t50.5-52.5q37-39 71.5-75.5t64.5-92.5zm-484 477q-57 0-97-11t-40-26q0-16 40-27t97-11q56 0 96.5 11t40.5 27q0 15-40.5 26t-96.5 11zm-169 170v137l119-17-16 121h135l-16-121 119 17v-137l-119 18v-123h-103v123zm-239-1058q-66 0-66-66v-1q0-66 66-66h820q66 0 66 66v1q0 66-66 66h-820zm-169-204q-104 0-104-103v-1q0-103 104-103h1158q103 0 103 103v1q0 103-103 103h-1158zm49 71q-18 31-18 65 0 55 40 94.5t97 36.5q-55 183-89 257t-112 158q-64 72-103 109.5t-39 93.5v1q0 55 39.5 95t96.5 40h429q-17 20-17 36 0 100 100 100h212q100 0 100-100 0-17-18-36h430q55 0 95-40t40-95v-1q0-56-41.5-91.5t-107.5-107.5q-72-89-108-167t-84-252q55 3 95-36.5t40-94.5q0-34-15-65h50q70 0 120.5-50.5t50.5-120.5q0-71-50.5-121t-120.5-50h-1164q-72 0-122 50t-50 121q0 70 50 120.5t122 50.5h52z" fill="currentColor"/>
 </g>
 <path id="path2989" stroke-linejoin="round" d="m414.68 1840.5c-38.661-5.8847-67.566-48.359-67.566-99.283 0-36.453 4.0828-47.474 25.534-68.925l25.534-25.534 629.41 2.3366 629.41 2.3366 19.764 19.766c16.074 16.077 19.764 29.27 19.764 70.682 0 59.408-15.427 82.478-64.216 96.03-29.948 8.3189-1164.2 10.731-1217.6 2.5895z" transform="translate(0,-410)" fill="#f9f9f9"/>
 <path id="path2991" stroke-linejoin="round" d="m590.35 1559.3c-27.18-10.847-34.691-22.847-34.691-55.424 0-65.732-4.658-65.085 468.34-65.085s468.34-0.6473 468.34 65.085c0 33.373-7.4319 44.486-37.357 55.864-31.808 12.093-834.26 11.685-864.64-0.4394z" transform="translate(0,-410)" fill="#f9f9f9"/>
 <path id="path2993" stroke-linejoin="round" d="m682.52 1362.8c-2.2348-3.616-6.6496-20.36-9.8105-37.21l-5.7472-30.635 65.705-28.875c36.138-15.881 65.705-31.46 65.705-34.619 0-11.262-152.22-82.906-171.39-80.663-12.355 1.4458-19.525-2.3554-19.525-10.351 0-6.9497-2.3704-18.813-5.2674-26.362-4.7596-12.403 36.237-13.727 425.22-13.727 236.77 0 430.49 1.7688 430.49 3.9307 0 18.223-22.564 47.724-33.992 44.442-7.5552-2.1692-50.748 14.857-95.984 37.836l-82.247 41.78 70.559 35.476 70.559 35.476-8.8935 35.037-8.8934 35.038h-341.21c-187.67 0-343.04-2.9586-345.28-6.5746zm429.34-93.764c43.358-21.776 77.45-40.85 75.759-42.388-1.6909-1.5374-38.25-20.383-81.243-41.879l-78.168-39.084-80.205 37.494c-44.113 20.622-80.205 40.796-80.205 44.831 0 8.1869 136.9 79.302 154.21 80.106 6.0615 0.2815 46.496-17.305 89.854-39.08z" transform="translate(0,-410)" fill="#f9f9f9"/>
 <path id="path2995" stroke-linejoin="round" d="m533.93 994.3c-9.08-15.38-54.83-70.19-101.66-121.78-90.18-99.35-99.69-120.69-71.64-160.73l13.509-19.287h649.86 649.86l13.509 19.287c29.028 41.443 15.304 70.875-82.048 175.97-26.528 28.637-60.976 70.617-76.552 93.288l-28.318 41.22h-475-475l-16.521-27.967z" transform="translate(0,-410)" fill="#f9f9f9"/>
 <path id="path2997" stroke-linejoin="round" d="m984.95 617.28c-42.516-4.8999-91.119-20.346-91.119-28.957 0-39.917 249.51-44.129 254.44-4.296 2.5671 20.741-96.633 40.939-163.32 33.253z" transform="translate(0,-410)" fill="#f9f9f9"/>
</svg>
