<?xml version="1.0" encoding="UTF-8" standalone="no"?>
<svg id="svg2" xmlns:rdf="http://www.w3.org/1999/02/22-rdf-syntax-ns#" xmlns="http://www.w3.org/2000/svg" height="100%" width="100%" version="1.1" xmlns:cc="http://creativecommons.org/ns#" xmlns:dc="http://purl.org/dc/elements/1.1/" viewBox="0 -410 2048 2048">
 <metadata id="metadata12">
  <rdf:RDF>
   <cc:Work rdf:about="">
    <dc:format>image/svg+xml</dc:format>
    <dc:type rdf:resource="http://purl.org/dc/dcmitype/StillImage"/>
   </cc:Work>
  </rdf:RDF>
 </metadata>
 <g id="g4" transform="matrix(1 0 0 -1 0 1638)">
  <path id="path6" d="m851 1631q64 37 83 7 18-31-47-69-64-37-82-6-19 31 46 68zm11-870q-59 98 46 279 40 68 79 104-18-13 11-2t29-35q-10-11-27-40t-26-45q-39-67-38.5-135t21.5-116q-16-26-44-22.5t-51 12.5zm299 661q14-28-31-75.5t-117-57.5q-21-3-32.5-9t-24.5-7q-8-6-23.5-12.5t-36.5-17.5q-55-29-99.5-79t-77.5-107q-23-71-32.5-189t-3.5-190h682q-4 22-7.5 44.5t-6.5 45.5q-43 48-70.5 133t-26.5 156q12 74 56.5 170.5t68.5 150.5q3 40 0 86t-42 89q-22 40-89.5 99t-163.5 65q14 67-35 104-7-44-70-84t-129-45q-57-67-155.5-91t-196.5-48q-30-51 1.5-72t37.5-53q26-19 21.5-32.5t81.5 0.5q57 26 87 20t94-16q20-15 33-18 53-45 141-29 108 18 123 104 37 0 43-35zm-546-808q-67 0-67-68t67-68h817q68 0 68 68t-68 68h-817zm684-207h-854q-104 0-104-103 0-104 104-104h1158q103 0 103 104 0 103-103 103h-304zm144 271q47-7 87.5-43.5t40.5-91.5q0-34-15-65h46q71 0 121.5-50.5t50.5-120.5q0-71-50.5-121t-121.5-50h-1157q-71 0-121 50t-50 121q0 70 50 120.5t121 50.5h47q-16 33-16 65 0 55 40.5 96t100.5 47q-5 93-3 186t31 180q57 121 119 176t143 82q-67 3-75.5 4t-56.5 28q-48 13-64 14t-85-20q-75-12-111-8t-38 72q-30 42-62.5 90.5t26.5 116.5q159 50 230.5 55t149.5 80q99 21 140 53.5t41 118.5q54-11 95-47.5t41-95.5q111-27 148.5-65.5t92.5-84.5q69-91 71.5-159t-7.5-137q-31-67-63-124.5t-48-147.5q0-87 27-157t71-128z" fill="currentColor"/>
 </g>
 <path id="path2989" stroke-linejoin="round" d="m414.68 1840.5c-38.661-5.8847-67.566-48.359-67.566-99.283 0-36.453 4.0828-47.474 25.534-68.925l25.534-25.534 629.41 2.3366 629.41 2.3366 19.764 19.766c16.074 16.077 19.764 29.27 19.764 70.682 0 59.408-15.427 82.478-64.216 96.03-29.948 8.3189-1164.2 10.731-1217.6 2.5895z" transform="translate(0,-410)" fill="#f9f9f9"/>
 <path id="path2991" stroke-linejoin="round" d="m590.35 1559.3c-11.797-4.7081-24.429-13.247-28.071-18.975-12.842-20.202-7.0654-66.643 10.47-84.178 16.893-16.893 28.927-17.356 451.25-17.356 422.33 0 434.36 0.4628 451.25 17.356 17.494 17.494 23.32 63.966 10.538 84.067-3.6037 5.6675-17.466 14.454-30.805 19.525-31.808 12.093-834.26 11.685-864.64-0.4394z" transform="translate(0,-410)" fill="#f9f9f9"/>
 <path id="path2993" stroke-linejoin="round" d="m685.73 1293.5c0.26077-116.86 21.804-258.37 47.253-310.39 49.682-101.55 158.6-185.01 288.43-221.01 86.833-24.078 144.33-72.893 144.33-122.54 0-48.146-49.32-72.304-60.081-29.429-7.1047 28.308-47.812 62.073-88.437 73.355-57.181 15.881-100.08 10.933-153.81-17.739-56.752-30.285-152.84-43.031-204.62-27.144-52.059 15.973-94.717 20.745-94.717 10.595 0-11.208-31.01-55.255-59.115-83.968-17.796-18.181-20.228-45.551-5.5298-62.238 1.4425-1.6377 56.206-16.48 121.7-32.984 128.5-32.381 152.63-42.311 211.04-86.837 20.971-15.986 44.402-29.069 52.068-29.073 29.376-0.0147 120.31-51.04 145.57-81.683 23.878-28.968 27.292-30.518 38.217-17.353 6.5986 7.9508 11.997 29.583 11.997 48.072 0 29.01 2.6579 33.616 19.397 33.616 69.925 0 172.75 72.289 235.28 165.41 33.839 50.394 36.432 58.427 36.432 112.87 0 51.518-5.1283 69.996-42.373 152.68-78.499 174.26-87.058 214.51-66.844 314.27 15.285 75.433 38.108 135.72 66.449 175.52 9.7573 13.703 20.836 44.495 24.619 68.427l6.8785 43.513h-337.14-337.14l0.1694-75.932h0.00002zm268.53-6.1283c5.7682-6.9502 7.9867-16.683 4.9299-21.629-3.0567-4.946-9.3071-32.274-13.89-60.729-11.221-69.677 0.71845-119 49.077-202.75 42.303-73.257 44.531-101.44 8.018-101.44-42.679 0-129.01 135.47-154.84 242.98-15.585 64.861-8.4876 126.42 16.699 144.84 20.846 15.243 76.958 14.448 90.007-1.2751zm-69.34-803.05c39.834-20.322 60.734-46.888 54.785-69.637-8.2725-31.634-61.271-25.377-111.86 13.205-27.644 21.085-38.732 52.85-23.696 67.886 10.9 10.9 46.979 5.7826 80.767-11.454z" transform="translate(0,-410)" fill="#f9f9f9"/>
</svg>
