<?xml version="1.0" encoding="UTF-8" standalone="no"?>
<svg id="svg2" xmlns:rdf="http://www.w3.org/1999/02/22-rdf-syntax-ns#" xmlns="http://www.w3.org/2000/svg" height="100%" width="100%" version="1.1" xmlns:cc="http://creativecommons.org/ns#" xmlns:dc="http://purl.org/dc/elements/1.1/" viewBox="0 -410 2048 2048">
 <metadata id="metadata12">
  <rdf:RDF>
   <cc:Work rdf:about="">
    <dc:format>image/svg+xml</dc:format>
    <dc:type rdf:resource="http://purl.org/dc/dcmitype/StillImage"/>
   </cc:Work>
  </rdf:RDF>
 </metadata>
 <g id="g4" transform="matrix(1 0 0 -1 0 1638)">
  <path id="path6" d="m445 407q-104 0-104-103v-1q0-103 104-103h1158q103 0 103 103v1q0 103-103 103h-1158zm778 686h-405q-20-212-74-376.5t-126-238.5h815q-77 75-136.5 239.5t-73.5 375.5zm-608 199q-67 0-67-67 0-68 67-68h817q68 0 68 68 0 67-68 67h-817zm683-199q7-258 90-436.5t192-178.5h26q70 0 120.5-50.5t50.5-120.5q0-71-50.5-121t-120.5-50h-1164q-72 0-122 50t-50 121q0 70 50 120.5t122 50.5h29q106 0 189.5 178.5t93.5 436.5h-142q-57 0-96.5 39t-39.5 96q0 56 39.5 96t96.5 40h215q-114 92-114 239 0 128 91 219.5t220 91.5q128 0 219-91.5t91-219.5q0-146-112-239h214q55 0 95-40t40-96q0-57-40-96t-95-39h-138zm-274 749q-99 0-169-70t-70-169 70-169 169-70q98 0 168.5 70t70.5 169-70.5 169-168.5 70z" fill="currentColor"/>
 </g>
 <path id="path2989" stroke-linejoin="round" d="m372.49 1816.1c-21.301-21.301-25.366-32.35-25.366-68.94 0-54.051 23.814-85.321 73.763-96.856 44.951-10.381 1160.7-10.533 1205.4-0.1642 53.931 12.51 70.283 35.046 70.283 96.862 0 46.85-2.6528 54.86-24.348 73.522l-24.348 20.944h-625-625l-25.366-25.366z" transform="translate(0,-410)" fill="#f9f9f9"/>
 <path id="path2991" stroke-linejoin="round" d="m660.53 1523.3c61.009-88.673 123.09-279.89 146.02-449.8 5.7993-42.956 12.264-86.888 14.366-97.627l3.8217-19.525h195.36c148.87 0 196.09 2.5813 198.42 10.847 1.6827 5.9661 7.5423 50.287 13.021 98.491 20.293 178.54 84.885 359.33 170.99 478.59l14.097 19.525h-391.98-391.98l27.868-40.504z" transform="translate(0,-410)" fill="#f9f9f9"/>
 <path id="path2993" stroke-linejoin="round" d="m572.75 869.53c-17.494-17.494-23.32-63.966-10.538-84.067 16.494-25.939 61.009-28.746 455.91-28.746 391.49 0 451.74 3.6161 467.24 28.045 13.162 20.736 7.6447 67.02-10.104 84.769-16.893 16.893-28.926 17.356-451.25 17.356-422.33 0-434.36-0.46283-451.25-17.356z" transform="translate(0,-410)" fill="#f9f9f9"/>
 <path id="path2995" stroke-linejoin="round" d="m932.7 658.16c-51.49-23.98-93.03-63.29-119.27-112.88-25.17-47.56-26.81-151.29-3.09-196.43 41.55-79.08 133.51-138.84 213.66-138.84 80.149 0 172.11 59.761 213.66 138.85 23.507 44.741 22.088 148.97-2.6583 195.25-61.797 115.59-192.84 165.02-302.31 114.05z" transform="translate(0,-410)" fill="#f9f9f9"/>
</svg>
