<?xml version="1.0" encoding="UTF-8" standalone="no"?>
<svg id="svg2" xmlns:rdf="http://www.w3.org/1999/02/22-rdf-syntax-ns#" xmlns="http://www.w3.org/2000/svg" height="100%" width="100%" version="1.1" xmlns:cc="http://creativecommons.org/ns#" xmlns:dc="http://purl.org/dc/elements/1.1/" viewBox="0 -410 2048 2048">
 <metadata id="metadata12">
  <rdf:RDF>
   <cc:Work rdf:about="">
    <dc:format>image/svg+xml</dc:format>
    <dc:type rdf:resource="http://purl.org/dc/dcmitype/StillImage"/>
   </cc:Work>
  </rdf:RDF>
 </metadata>
 <g id="g4" transform="matrix(1 0 0 -1 0 1638)">
  <path id="path6" d="m1024 1742q-79 0-79-78 0-79 79-79 78 0 78 79 0 78-78 78zm228-433q-6 86-72 145.5t-156 59.5q-91 0-154.5-59.5t-56.5-145.5q85-2 130.5 33.5t80.5 92.5q33-59 93-95.5t135-30.5zm-112 259q82-33 134-101t53-153q46 15 78 47t62 74q34-132 150-132 54 0 114 34t96 91l-391-749q53-4 94-42.5t41-93.5q0-31-18-65h53q70 0 120.5-50.5t50.5-120.5q0-71-50.5-121t-120.5-50h-1164q-72 0-122 50t-50 121q0 70 50 120.5t122 50.5h49q-15 20-15 65 0 55 41 93.5t95 41.5l-391 750q85-125 207-125 118 0 153 131 53-84 144-119-2 84 49 152t133 101q-33 44-33 96 0 62 43.5 106t106.5 44q62 0 106-44t44-106q0-53-34-96zm-522-581l135 68 138-68-138-68zm538 0l135 68 139-68-139-68zm-267-75l135 68 138-68-138-68zm0 164l135 68 138-68-138-68zm-444-669q-104 0-104-103v-1q0-103 104-103h1158q103 0 103 103v1q0 103-103 103h-1158zm920 271l306 575q-35-17-73-18-73-5-130 86-24-39-99-68t-148-18q-63 8-115 27t-82 58q-70-87-198-85-185 0-243 93-50-82-133-93-27-5-73 18l306-575h682zm-750-64q-67 0-67-68t67-68h817q68 0 68 68t-68 68h-817z" fill="currentColor"/>
 </g>
 <path id="path2989" stroke-linejoin="round" d="m401.47 1835.4c-46.467-13.613-68.524-82.186-45.724-142.15 18.271-48.056 15.736-47.874 666.68-47.874 415.11 0 606.19 2.9392 625.36 9.6188 45.813 15.97 65.139 74.745 44.266 134.62-18.524 53.138 9.7252 50.873-655.03 52.517-362.25 0.8958-618.8-1.8201-635.55-6.7283z" transform="translate(0,-410)" fill="#f9f9f9"/>
 <path id="path2991" stroke-linejoin="round" d="m590.1 1561.2c-34.055-12.171-46.602-69.858-22.394-102.96 11.915-16.295 26.821-16.845 456.29-16.845s444.38 0.5503 456.29 16.845c13.07 17.875 16.33 63.526 5.676 79.483-18.595 27.848-45.18 29.501-463.57 28.817-230.61-0.3768-425.14-2.7786-432.3-5.3373z" transform="translate(0,-410)" fill="#f9f9f9"/>
 <path id="path2993" stroke-linejoin="round" d="m540.99 1092.8c-80.38-151.21-147.38-277.93-148.89-281.62-1.5102-3.6942 8.965-3.3582 23.278 0.7468 39.931 11.452 93.73-6.29 133.35-43.976l34.695-33.005 32.478 26.1c41.611 33.439 107.94 51.157 195.49 52.223 84.581 1.0291 129.31-10.199 176.34-44.264l35.824-25.951 31.129 21.125c48.303 32.779 121.06 51.239 203.63 51.664 62.878 0.32412 81.412-3.1735 125.6-23.702 28.508-13.245 58.872-30.452 67.476-38.239 14.643-13.252 17.776-12.074 49.005 18.421 37.522 36.64 80.992 50.254 127.19 39.835 16.954-3.8238 29.646-4.0968 28.203-0.60683-1.4421 3.49-68.388 130.04-148.77 281.22l-146.15 274.88h-336.86-336.86l-146.15-274.88zm552.62 83.864c38.077-19.145 69.231-38.007 69.231-41.917 0-3.9095-31.581-21.311-70.18-38.67l-70.18-31.562-68.667 34.525c-37.767 18.989-68.667 36.387-68.667 38.662 0 3.2706 127.58 71.632 136.87 73.337 1.2992 0.2385 33.516-15.23 71.593-34.375zm-269.02-78.102c38.077-19.145 69.231-36.858 69.231-39.363 0-2.5048-31.662-19.866-70.36-38.58l-70.36-34.026-69.385 34.886c-38.162 19.187-67.038 37.233-64.17 40.101 8.2761 8.276 121.69 71.015 129.11 71.422 3.6856 0.2022 37.855-15.296 75.932-34.441zm538.03 0c38.077-19.145 69.231-36.858 69.231-39.363 0-2.5048-31.662-19.866-70.36-38.58l-70.36-34.026-69.385 34.886c-38.162 19.187-67.038 37.233-64.17 40.101 8.2761 8.276 121.69 71.015 129.11 71.422 3.6856 0.2022 37.855-15.296 75.932-34.441zm-269.02-86.78c38.077-19.145 69.231-36.674 69.231-38.954 0-2.2799-31.241-19.853-69.424-39.051l-69.4-34.96-69.42 34.91c-38.183 19.198-69.424 36.767-69.424 39.043 0 3.2706 127.58 71.631 136.87 73.337 1.2992 0.2386 33.516-15.23 71.593-34.375z" transform="translate(0,-410)" fill="#f9f9f9"/>
 <path id="path2995" stroke-linejoin="round" d="m815.92 714.63c0.2828-28.973 28.598-85.506 57.144-114.09 110.91-111.05 318.09-57.917 363.59 93.249l12.148 40.365-32.127-0.19058c-46.952-0.27857-99.894-27.699-149.76-77.565l-43.91-43.91-49.398 51.407c-34.522 35.925-59.851 54.231-84.11 60.785-55.514 14.998-73.792 12.501-73.572-10.051z" transform="translate(0,-410)" fill="#f9f9f9"/>
 <path id="path2997" stroke-linejoin="round" d="m971.93 439.11c-26.459-26.459-26.094-80.743 0.72862-108.28 22.066-22.652 78.098-23.101 102.71-0.82452 13.005 11.769 18.049 26.872 18.049 54.04 0 49.468-22 72.418-69.424 72.418-23.141 0-40.497-5.7853-52.068-17.356z" transform="translate(0,-410)" fill="#f9f9f9"/>
</svg>
