<?xml version="1.0" encoding="UTF-8" standalone="no"?>
<svg id="svg2" xmlns:rdf="http://www.w3.org/1999/02/22-rdf-syntax-ns#" xmlns="http://www.w3.org/2000/svg" height="100%" width="100%" version="1.1" xmlns:cc="http://creativecommons.org/ns#" xmlns:dc="http://purl.org/dc/elements/1.1/" viewBox="0 -410 2048 2048">
 <metadata id="metadata12">
  <rdf:RDF>
   <cc:Work rdf:about="">
    <dc:format>image/svg+xml</dc:format>
    <dc:type rdf:resource="http://purl.org/dc/dcmitype/StillImage"/>
   </cc:Work>
  </rdf:RDF>
 </metadata>
 <g id="g4" transform="matrix(1 0 0 -1 0 1638)">
  <path id="path6" d="m1156 279q-16 10-45 42-5 5-10 9.5t-10 10.5q-8 5-16 5-52 0-39-39 6-9 5-8 7-7 48-45 19-18 36-26 9-6 18-6 30 0 30 30 0 12-17 27zm76 509l-18 69q-79 22-189 22-101 0-181-20l-20-69q87 23 201 23 122 0 207-25zm-109-109l-97-40-96 40 96 40zm113 52q-85 23-208 23-115 0-203-21l-14-39 85-19-88-56-19 4-24-72q21 22 95 37t171 15q95 0 168.5-15t95.5-36l-25 72-25-5-88 56 90 19zm-33 523v112h-120v156h-111v-156h-122v-112h122v-223h111v223h120zm-311-975q-11-11-11-25 0-30 30-30 9 0 16 5 17 9 33 25 36 34 50 46 2 2 2 7 0 39-39 39-7 0-13-6-9-9-22-19-12-9-21.5-20.5t-24.5-21.5zm509 912q14 54-31 201t-140 246q-12 9-25 8-17-1-32-14t-4-31q117-77 175-213.5t57-196.5zm-376-949q-74-107-200-107-13 0-25.5 1.5t-24.5 2.5q-29 1-85 10.5t-125 44.5q-61 53-155 53-72 0-125-34-15-7-37-29-40-43-65-47-20 10-21 34-5 47 69 121-13-2-49-12-30-9-40-9-33-5-35-1-11 11 8 45 16 29 62 51 6 3 38 17 93 49 195 49 149 0 269-101 48-16 97-16 150 0 155 124-97 9-161.5 33t-64.5 56l80 266q-70 110-116 224t-46 216q0 306 332 470 0 13 3 39-34 28-34 71 0 92 93 92 92 0 92-92 0-40-29-67 0-31 8-42 17-24 45-25 29 1 48 26 4 6 8 37-26 27-26 67 0 94 94 94t94-94q0-53-46-82-4-20-2-32 169-200 147-462-7-75-23-147.5t-56-136.5q-15-34-46.5-76.5t-54.5-79.5l79-266q-1-32-66-56t-164-33q5-124 156-124 49 0 97 16 119 101 269 101 102 0 194-49 12-6 21-10t18-7q45-23 62-51 3-9 9-23t-1-22q-3-4-35 1-10 0-40 9-37 10-50 12 74-75 70-121-2-23-22-34-25 4-65 47-20 20-36 29-56 34-125 34-96 0-156-53-69-35-125-44.5t-84-10.5q-12-1-25-2.5t-25-1.5q-129 0-201 107z" fill="currentColor"/>
 </g>
 <path id="path2989" stroke-linejoin="round" d="m971.93 901.64v-108.47h-60.746-60.746v-52.068-52.068h60.746 60.746v-78.102-78.102h52.068 52.068v78.102 78.102h60.746 60.746v52.068 52.068h-60.746-60.746v108.47 108.47h-52.068-52.068v-108.47z" transform="translate(0,-410)" fill="#ececec"/>
 <path id="path2991" stroke-linejoin="round" d="m1372 722.83c-24.241-81.932-78.624-170.19-141.29-229.31-61.863-58.358-70.791-82.183-30.798-82.183 33.553 0 87.529 67.385 133.96 167.24 23.552 50.649 56.812 160.19 52.536 173.02-1.7181 5.1545-8.2017-7.7906-14.408-28.767z" transform="translate(0,-410)" fill="#ececec"/>
 <path id="path2993" stroke-linejoin="round" d="m836.74 1230.7c8.4885-34.339 11.853-36.761 65.089-46.857 95.983-18.203 312.89-3.731 313.21 20.896 0.065 5.1411 2.6236 18.709 5.6854 30.152 5.1839 19.372 3.8321 20.356-19.644 14.297-76.526-19.753-302.45-19.467-354.1 0.4478-14.605 5.6311-15.772 3.4716-10.233-18.935z" transform="translate(0,-410)" fill="#ececec"/>
 <path id="path2995" stroke-linejoin="round" d="m781.14 1471.8c0.3722-19.14 11.615-44.28 18.029-40.316 4.1229 2.5481 30.038-10.001 57.59-27.887l50.093-32.52-43.39-9.9242c-40.987-9.3747-50.584-21.463-31.923-40.208 10.971-11.02 187.78-25.943 244.53-20.639 112.91 10.552 139.54 15.469 152.17 28.099 18.227 18.227 9.9623 25.968-34.91 32.697-21.537 3.2296-39.158 8.6255-39.158 11.991 0 10.032 94.835 63.651 103.31 58.412 4.2964-2.6553 12.031 7.2752 17.187 22.068 8.3623 23.988 7.7501 26.251-5.6632 20.936-8.2714-3.2775-42.374-11.854-75.785-19.058-77.55-16.723-308.54-11.038-370.98 9.1302-22.671 7.3222-41.167 10.571-41.102 7.2197zm302.86-81.183c24.726-10.276 41.843-21.352 38.039-24.615-3.8045-3.2629-27.238-14.412-52.075-24.775l-45.157-18.843-49.465 21.876c-27.206 12.032-46.588 24.754-43.071 28.272 9.4791 9.4834 76.553 35.724 92.745 36.284 7.716 0.2667 34.259-7.9224 58.985-18.198z" transform="translate(0,-410)" fill="#ececec"/>
 <path id="path2997" stroke-linejoin="round" d="m1085.5 1782.3c-44.524-35.194-56.122-62.778-30.524-72.601 18.449-7.0795 35.856 3.6319 80.655 49.631 62.317 63.986 23.98 81.552-50.132 22.97z" transform="translate(0,-410)" fill="#ececec"/>
 <path id="path2999" stroke-linejoin="round" d="m887.81 1802.9c-3.8135-9.9377 8.1739-27.308 39.407-57.102 46.102-43.979 58.347-47.373 74.473-20.647 7.7843 12.902 2.2729 21.647-33.854 53.721-45.317 40.232-70.864 47.903-80.026 24.028z" transform="translate(0,-410)" fill="#ececec"/>
</svg>
