<?xml version="1.0" encoding="UTF-8" standalone="no"?>
<svg id="svg2" xmlns:rdf="http://www.w3.org/1999/02/22-rdf-syntax-ns#" xmlns="http://www.w3.org/2000/svg" height="100%" width="100%" version="1.1" xmlns:cc="http://creativecommons.org/ns#" xmlns:dc="http://purl.org/dc/elements/1.1/" viewBox="0 -410 2048 2048">
 <metadata id="metadata12">
  <rdf:RDF>
   <cc:Work rdf:about="">
    <dc:format>image/svg+xml</dc:format>
    <dc:type rdf:resource="http://purl.org/dc/dcmitype/StillImage"/>
   </cc:Work>
  </rdf:RDF>
 </metadata>
 <g id="g4" transform="matrix(1 0 0 -1 0 1638)">
  <path id="path6" d="m1333 574l84-65 105 36-83 65zm247 17q7-21 7-40 0-59-43-91-4-17-6-34 37-52 37-84 0-84-162-144t-389-60q-228 0-389.5 60t-161.5 144q0 33 39 86-2 11-6 31-44 32-44 92 0 19 6 39 10 25-4 39t-32 39q-16 50-16 69 1 9 3.5 20t2.5 26q-44 44-91.5 83.5t-74.5 95.5q-32 66-58.5 133.5t-26.5 132.5q0 123 65 208t176 133q148 10 125 10 174 0 316-129v351h341v-352q142 130 318 130-25 0 125-10 109-48 174.5-133t65.5-208q0-65-26.5-132t-57.5-133q-27-57-75-99t-91-84q-1-12 1.5-23t3.5-20q1-14-16-69-18-25-31.5-39t-4.5-38zm-138-287q-4 22-14 48-11 24-22.5 32.5t-20.5 22.5q-101 64-359 57-262 7-362-57-12-12-23.5-21t-19.5-33q-11-25-14-49-2-32 28-32 29 0 28 31 9 100 359 100 353 0 363-100-2-31 28-31 29 0 29 32zm-308 590q13 0 26-1.5t25-1.5q-8 91 8 149 6 22 22 24 23 4 33-25 8-48-16-153 40-7 59-7 6 154 47 245 12 24 40 24 34 0 32-33 2-2 2-31 0-51-57-217 29-10 50-8 11 29 22.5 61.5t29.5 69.5q8 19 23 19 17 0 21-33 1-28-59-128 25-12 50-13l22.5 45t22.5 54q22 64 18 122-8 35-39 35-15 0-37-24 5 32 5 40 0 42-20.5 79.5t-69.5 51.5q-36-2-75-44t-52-99q-11 35-29 40t-24 5q-12 0-23-7-40-46-49-140-3-21-4-41t-4-58zm-223-1q-3 37-4 57t-3 41q-12 96-49 140-10 7-24 7-6 0-24.5-5t-27.5-39q-14 57-52.5 99t-74.5 44q-50-15-70-52.5t-20-79.5q0-19 5-40-24 25-37 25-32 0-39-36-5-62 18-121 11-33 21.5-54.5t23.5-45.5q24 1 50 13-61 99-59 128 1 33 20 33 15 0 24-19 17-36 28.5-69t23.5-62q24 0 50 8-58 169-58 218 0 27 2 30 0 34 32 34 28 0 41-25 40-91 47-245 20 1 58 7-24 107-15 153 9 30 32 26 17-4 22-24 16-63 8-150 16 2 51 4zm113 561q-49 0-84-35t-35-84q0-50 35-84.5t84-34.5q119 0 119 119t-119 119zm12 215q-6 3-12 3-11 0-16-4l-64 65h-23v-28l63-63q-3-6-3-13 0-6 3-12l-63-64v-26h23l63 63q7-3 17-3 8 0 13 2l63-62h27v23l-64 62q3 7 3 17 0 9-4 16l65 64v24h-28zm121-1064l-135 64-130-64 135-65zm-434-31l-106 36-83-65 105-36zm777 93q45 5 45 50 0 29-26 44-84 34-213.5 55.5t-282.5 21.5q-321 0-498-79-22-17-22-42 0-51 51-49 178 67 469 67 295 0 477-68zm-653 684q-116 123-263 123-135 0-205-90-45-57-45-155 0-77 22-147 1-20 25-20t26 24q-8 51-8 91 0 83 39 131 56 76 174 76 116 0 217-92 20 0 20 37 0 8-2 22zm349 0q-2-14-2-22 0-37 20-37 100 92 218 92 116 0 173-76 39-48 39-131 0-40-8-91 1-24 26-24t25 20q22 70 22 147 0 98-45 155-71 90-205 90-148 0-263-123z" fill="currentColor"/>
 </g>
 <path id="path2989" stroke-linejoin="round" d="m928.54 507.63c0-6.223 13.668-24.562 30.373-40.753 38.266-37.089 38.266-58.369 0-95.458-28.371-27.498-39.412-52.068-23.397-52.068 3.8366 0 20.223 13.668 36.414 30.373 38.535 39.758 65.6 39.758 104.14 0 16.191-16.705 32.578-30.373 36.414-30.373 16.014 0 4.9739 24.569-23.397 52.068-38.266 37.089-38.266 58.369 0 95.458 28.371 27.498 39.412 52.068 23.397 52.068-3.8366 0-20.223-13.668-36.414-30.373-38.535-39.758-65.6-39.758-104.14 0-31.196 32.186-43.39 37.542-43.39 19.058z" transform="translate(0,-410)" fill="#ececec"/>
 <path id="path2991" stroke-linejoin="round" d="m993.3 821.31c-68.07-17.71-102.95-106.06-65.68-166.36 34.301-55.501 114.06-72.092 171.54-35.685 43.632 27.634 49.287 134.97 9.2214 175.04-24.846 24.846-76.654 37.005-115.08 27.007z" transform="translate(0,-410)" fill="#ececec"/>
 <path id="path2993" stroke-linejoin="round" d="m354.42 941.99c-5.8987-20.285-10.825-73.98-10.948-119.32-0.26131-96.716 14.946-134.81 73.993-185.35 99.108-84.832 261.2-73.909 383.04 25.814 29.764 24.359 41.196 39.925 41.22 56.126 0.0495 33.309-8.2042 35.902-37.042 11.637-85.762-72.164-233.73-91.35-316.47-41.035-32.208 19.587-68.225 61.848-80.725 94.722-5.2435 13.789-9.3114 63.146-9.0399 109.68 0.45658 78.239-0.77906 84.61-16.41 84.61-12.419 0-19.749-9.7849-27.628-36.881z" transform="translate(0,-410)" fill="#ececec"/>
 <path id="path2995" stroke-linejoin="round" d="m1645 971.05c-2.9855-4.8307-2.8551-33.898 0.2897-64.593 15.544-151.72-65.046-243.87-212.85-243.38-70.38 0.23292-111.99 13.423-176.31 55.896l-49.899 32.948-5.4-21.515c-14.547-57.958 146.51-150.72 261.68-150.72 101 0 179.9 45.594 217.73 125.83 16.723 35.463 20.35 56.866 19.848 117.15-0.7332 88.139-15.003 150.59-35.289 154.44-7.9075 1.4999-16.82-1.2252-19.806-6.0559z" transform="translate(0,-410)" fill="#ececec"/>
 <path id="path2997" stroke-linejoin="round" d="m533.86 1159.9c-42.194-94.021-49.888-182.83-16.935-195.48 7.1949-2.7609 20.078 1.3114 28.628 9.0496 22.159 20.054 29.923 17.433 23.552-7.9506-6.8405-27.255 9.0339-89.643 28.296-111.21 7.8973-8.8412 25.463-21.817 39.035-28.835 23.067-11.929 26.81-11.282 57.414 9.9268 18.242 12.642 43.456 42.701 56.945 67.886 31.023 57.924 28.447 55.941 43.935 33.828 17.398-24.839 51.668-24.576 68.091 0.52354 19.087 29.171 39.692 116.84 39.692 168.87 0 38.896-2.4539 45.906-16.07 45.906-13.821 0-16.8-9.4683-21.286-67.65-2.8692-37.207-7.655-74.004-10.635-81.77-8.4242-21.953-30.911-26.097-49.724-9.1628-14.917 13.428-16.415 22.606-11.715 71.802 2.9636 31.024 7.6469 64.702 10.407 74.841 4.1616 15.284 0.64469 19.076-20.584 22.192l-25.603 3.7578-5.3733-65.581c-6.1819-75.45-24.209-148.39-44.228-178.94-14.439-22.036-59.104-29.887-69.974-12.3-12.762 20.649-3.3138 105.51 20.512 184.23 14.084 46.536 22.408 84.61 18.498 84.61-3.9105 0-12.608 2.1099-19.329 4.6887-8.7059 3.3407-19.251-13.499-36.682-58.576-28.507-73.722-36.008-84.96-56.705-84.96-33.21 0-27.631 55.6 12.44 123.98l22.739 38.801-21.309 4.0735c-18.879 3.609-23.9-1.7005-44.031-46.558z" transform="translate(0,-410)" fill="#ececec"/>
 <path id="path2999" stroke-linejoin="round" d="m1455.5 1199.2c-2.921-2.921 6.1908-25.691 20.249-50.6 27.972-49.563 34.168-103.81 12.794-112.01-19.732-7.572-36.305 15.034-62.749 85.591-23.812 63.534-30.968 71.49-52.181 58.011-7.9586-5.0573-4.2356-27.709 15.186-92.399 42.381-141.16 31.77-210.75-28.634-187.79-30.062 11.43-67.128 124.31-67.128 204.43 0 42.196-7.8395 56.689-30.663 56.689-19.763 0-20.1-1.5128-18.597-83.48 1.2971-70.722-0.7648-84.956-13.492-93.141-28.636-18.416-44.024 11.456-48.349 93.859-3.7554 71.55-4.6077 74.084-24.926 74.084-20.618 0-20.926-1.0831-15.444-54.237 6.7322-65.274 18.29-113.91 36.088-151.86 16.407-34.987 54.174-39.258 76.74-8.678 9.6582 13.088 15.782 15.947 18.574 8.6709 17.044-44.426 48.487-88.4 78.147-109.29 34.189-24.083 35.728-24.339 62.633-10.426 40.369 20.875 61.456 60.904 61.495 116.73 0.031 45.773 0.4361 46.539 16.766 31.76 19.962-18.065 49.387-11.621 57.04 12.491 14.752 46.48-41.992 216.91-72.219 216.91-8.8105 0-18.409-2.3899-21.33-5.311z" transform="translate(0,-410)" fill="#ececec"/>
 <path id="path3001" stroke-linejoin="round" d="m527.19 1368.7c-17.722-10.322-20.453-53.555-4.2336-67.016 41.875-34.754 190.14-67.942 363.25-81.312 197.64-15.265 454.59 9.8508 588.3 57.504 50.773 18.094 61.495 28.131 61.495 57.564 0 23.981-26.402 48.793-41.796 39.279-21.237-13.125-159.76-42.281-253.2-53.293-223.75-26.368-472.62-10.84-640.97 39.993-30.333 9.1593-55.716 16.535-56.407 16.389-0.69047-0.1451-8.0893-4.2442-16.442-9.1091z" transform="translate(0,-410)" fill="#ececec"/>
 <path id="path3003" stroke-linejoin="round" d="m592.27 1519.8c-20.285-7.1803-36.881-16.171-36.881-19.98 0-3.8087 14.145-17.714 31.433-30.9l31.433-23.975 47.141 14.86 47.141 14.86-37.354 29.696c-20.545 16.333-39.307 29.426-41.693 29.095-2.3864-0.3305-20.936-6.4756-41.22-13.656z" transform="translate(0,-410)" fill="#ececec"/>
 <path id="path3005" stroke-linejoin="round" d="m960.12 1470.7-59.542-27.64 59.874-28.965 59.874-28.965 63.511 28.398 63.511 28.398-55.165 28.375c-30.34 15.606-59.07 28.3-63.842 28.207-4.7729-0.092-35.472-12.606-68.22-27.808z" transform="translate(0,-410)" fill="#ececec"/>
 <path id="path3007" stroke-linejoin="round" d="m1385.2 1508.3c-18.533-14.017-35.473-27.261-37.644-29.432-2.1708-2.1709 17.397-10.675 43.484-18.898l47.431-14.951 31.433 23.975c17.288 13.186 31.433 26.799 31.433 30.25 0 3.4509-14.644 11.051-32.542 16.89-17.898 5.8385-36.448 12.199-41.22 14.134-4.7729 1.9349-23.842-7.9502-42.375-21.967z" transform="translate(0,-410)" fill="#ececec"/>
 <path id="path3009" stroke-linejoin="round" d="m613.98 1758.2c-5.2956-15.292 16.519-76.087 34.385-95.829 19.693-21.761 73.777-44.457 141.33-59.308 74.442-16.366 399.25-16.765 471.32-0.5791 63.224 14.2 119.55 38.821 139.67 61.051 19.174 21.187 39.515 78.461 33.465 94.227-8.452 22.026-39.905 8.038-47.41-21.084-16.949-65.764-118.99-91.505-362.74-91.505-244.19 0-339.86 23.6-361.22 89.104-10.052 30.822-41.129 46.059-48.795 23.923z" transform="translate(0,-410)" fill="#ececec"/>
</svg>
