<?xml version="1.0" encoding="UTF-8" standalone="no"?>
<svg id="svg2" xmlns:rdf="http://www.w3.org/1999/02/22-rdf-syntax-ns#" xmlns="http://www.w3.org/2000/svg" height="100%" width="100%" version="1.1" xmlns:cc="http://creativecommons.org/ns#" xmlns:dc="http://purl.org/dc/elements/1.1/" viewBox="0 -410 2048 2048">
 <metadata id="metadata12">
  <rdf:RDF>
   <cc:Work rdf:about="">
    <dc:format>image/svg+xml</dc:format>
    <dc:type rdf:resource="http://purl.org/dc/dcmitype/StillImage"/>
   </cc:Work>
  </rdf:RDF>
 </metadata>
 <g id="g4" transform="matrix(1 0 0 -1 0 1638)">
  <path id="path6" d="m1156 836q25 5 56.5 11.5t67.5 18.5q32 10 21 36-7 11-20 11-71-16-134-19 24 9 50 18.5t51 21.5q78 37 103 162 5 29-19 33-21 2-33-17-24-89-76-120-17-10-35-18t-36-17q20 21 37 51 31 52 42 184-7 35-35 26-9-5-12-9-18-142-49-187-11-11-15-19-9-7-16.5-13.5t-14.5-12.5q-17-22-17-50 0-34 19.5-62t64.5-29zm-71 674q277-136 409-334 81-123 108-292t27-379q-5-81 45.5-142t113.5-48q19 608-216 927-72 96-201 186t-288 161q0-21 1-42.5t1-36.5zm-588-837q11 18 25.5 35.5t26.5 39.5q22 45-22 53-8 2-18-2-29-39-63-79-5-4-23-20-9-30-1-46 13-30 49-4 18 14 26 23zm352 257q3 12 7.5 24t7.5 24q9 39-22 39-11 0-27-18-7-16-14-31.5t-11-28.5q-3-10-9-28-2-15 12-22 21-12 43 19 7 7 13 22zm-467-80q10 14 23 28.5t23 32.5q20 37-19 43-6 1-17-1-24-31-56-65-12-9-20-16-8-25-1-37 12-25 44-4 16 12 23 19zm295 444q7-43 23-49t45-4q39 3 60 16 42 27 74 117-32-10-60-10t-67-3q-55-5-75-67zm-13-580q-14-15-22.5-21.5t-14.5-12.5q-5-5-65-66-23-25-55-32-21-6-59 5-125 33-197 132-28 37-39.5 89.5t10.5 133.5q22 82 159 187 149 114 175 181 22 39 50.5 86t67.5 91q24 17 45.5 39.5t42.5 46.5v123q55-11 81-32 12-13 26.5-24t26.5-24q25 45 32 75 1 7 7 28t12 69q15 4 26-8 46-52 87-116 183-73 334.5-173t232.5-208q229-311 229-916 0-127-13-232h-1365q-13 130 138 276 68 66 141.5 128t143.5 126q130 120 144 192-5 12-19 16-35-21-70-27t-69-8q-22-1-43.5-1.5t-50.5 9.5q-39-44-66.5-75.5t-62.5-56.5z" fill="currentColor"/>
 </g>
 <path id="path2989" stroke-linejoin="round" d="m1712.4 1711.8c-15.135-9.2288-38.372-35.3-51.638-57.936-23.013-39.269-24.408-48.147-30.416-193.63-11.026-266.95-33.709-392.96-93.053-516.95-70.901-148.13-210.93-281.23-408.54-388.34-39.984-21.672-44.025-26.649-44.025-54.237 0-16.706 2.9288-30.292 6.5084-30.189 14.183 0.40588 184.3 94.459 253.83 140.34 200.69 132.42 308.26 285.3 380.42 540.7 35.289 124.89 61.859 346.81 62.083 518.51 0.075 58.142-0.1005 58.576-23.788 58.544-13.125-0.017-36.248-7.5832-51.383-16.812z" transform="translate(0,-410)" fill="#ececec"/>
 <path id="path2991" stroke-linejoin="round" d="m1122.1 1199.2c-22.709-9.1453-46.014-50.847-46.014-82.338 0-14.256 11.599-34.373 31.52-54.668 38.537-39.261 52.892-71.775 69.111-156.54 6.8781-35.948 14.217-67.072 16.309-69.164 2.0917-2.0917 10.326-1.3001 18.298 1.7591 12.322 4.7284 13.609 13.67 8.5831 59.648-8.5075 77.832-18.922 111.49-47.813 154.5-14.047 20.916-24.211 39.358-22.586 40.983 5.795 5.795 87.434-40.069 104.48-58.694 9.5458-10.432 27.119-38.966 39.051-63.41 37.433-76.681 66.11-58.127 39.692 25.681-19.848 62.965-63.731 106.13-135.63 133.4-46.331 17.575-51.916 21.679-32.548 23.915 12.858 1.4844 45.846-1.4543 73.307-6.5306 35.402-6.5444 52.585-6.5285 59.062 0.055 14.296 14.532-15.692 31.497-82.555 46.705-66.894 15.215-66.234 15.181-92.263 4.6987z" transform="translate(0,-410)" fill="#ececec"/>
 <path id="path2993" stroke-linejoin="round" d="m789.69 1136.7c0-29.146 36.572-97.933 52.068-97.933 19.233 0 14.92 61.258-6.3179 89.732-23.141 31.026-45.75 35.078-45.75 8.2012z" transform="translate(0,-410)" fill="#ececec"/>
 <path id="path2995" stroke-linejoin="round" d="m695.97 789.69c-21.689-21.689-7.382-68.035 26.667-86.383 10.63-5.7281 47.624-12.755 82.211-15.614 60.072-4.967 62.637-4.4222 57.368 12.181-9.7044 30.576-41.169 72.437-65.051 86.544-27.365 16.165-86.393 18.073-101.19 3.2716z" transform="translate(0,-410)" fill="#ececec"/>
 <path id="path2997" stroke-linejoin="round" d="m326.56 1219.2c-14.227-14.227-1.9934-42.693 34.882-81.17 33.943-35.418 43.008-40.7 56.998-33.212 15.852 8.4838 15.942 9.9978 1.9044 32.146-31.81 50.19-81.905 94.116-93.784 82.237z" transform="translate(0,-410)" fill="#ececec"/>
 <path id="path2999" stroke-linejoin="round" d="m431.01 1401.8c-13.41-13.41-4.0466-49.671 19.428-75.233 13.867-15.101 34.73-38.849 46.361-52.774 23.737-28.417 49.917-26.342 49.917 3.9563 0 22.18-43.499 87.124-74.897 111.82-24.457 19.238-31.646 21.392-40.809 12.229z" transform="translate(0,-410)" fill="#ececec"/>
</svg>
