<?xml version="1.0" encoding="UTF-8" standalone="no"?>
<!DOCTYPE svg  PUBLIC '-//W3C//DTD SVG 1.1//EN'  'http://www.w3.org/Graphics/SVG/1.1/DTD/svg11.dtd'>
<svg xmlns="http://www.w3.org/2000/svg" viewBox="0 -410 2048 2048">
 <g transform="matrix(1 0 0 -1 0 1638)">
  <path d="m1024 137h-545q19 215 183 363 27 25 30 27 85 70 145 167-154 101-154 285 0 114 69 205 23 29 49.5 66t42.5 72q-24-6-72.5-19t-71.5-22q69 64 131.5 152t73.5 187q-51 52-51 122t49.5 120 120.5 50q69 0 119-50t50-120q0-71-51-122 11-99 74.5-187t132.5-152q-23 9-72.5 22t-73.5 19q16-35 42.5-72t50.5-66q69-91 69-205 0-184-154-285 57-96 144-167 15-12 30-27 165-148 183-363h-544z" fill="currentColor"/>
 </g>
</svg>
