<?xml version="1.0" encoding="UTF-8" standalone="no"?>
<svg id="svg2" xmlns:rdf="http://www.w3.org/1999/02/22-rdf-syntax-ns#" xmlns="http://www.w3.org/2000/svg" height="100%" width="100%" version="1.1" xmlns:cc="http://creativecommons.org/ns#" xmlns:dc="http://purl.org/dc/elements/1.1/" viewBox="0 -410 2048 2048">
 <metadata id="metadata12">
  <rdf:RDF>
   <cc:Work rdf:about="">
    <dc:format>image/svg+xml</dc:format>
    <dc:type rdf:resource="http://purl.org/dc/dcmitype/StillImage"/>
   </cc:Work>
  </rdf:RDF>
 </metadata>
 <g id="g4" transform="matrix(1 0 0 -1 0 1638)">
  <path id="path6" d="m1073 1680q15-162 30.5-323.5t31.5-322.5q1-23 23-23 16 1 22 14 87 210 128.5 325.5t50.5 142.5q-46 44-46 99 0 48 34.5 82.5t83.5 34.5q48 0 82.5-34.5t34.5-82.5q0-87-90-118l-73-436q-5-30 21-30 21 0 32 11 120 120 172.5 186t73.5 92q-22 29-22 70 0 117 117 117 48 0 82.5-34.5t34.5-82.5q0-49-34.5-83t-82.5-34q-15 0-27 3-80-173-128-354-41-147-51-279 6-28 7-29-3 12 4-23 4-16 4-31-6-16-25-36-17-19-25-75 37-52 37-84 0-84-162-144t-389-60q-228 0-389.5 60t-161.5 144q0 33 39 86-12 57-26 73-20 20-26 36 0 13 3 30 2 8 3 14.5t2 9.5q4 11 8 31-10 126-49 277-52 190-129 356-17-5-35-5-117 0-117 117t117 117 117-117q0-36-18-65 59-75 118.5-139.5t131.5-141.5q9-13 26-13 29 0 26 30-2 9-25 143t-50 292q-95 26-95 119 0 48 34.5 82.5t82.5 34.5q117 0 117-117 0-52-40-95 5-21 25-83.5t62-164.5q23-56 46.5-112.5t47.5-111.5q6-13 21-13 21 1 24 22 2 12 61 645-71 38-71 113 0 48 34 83t83 35q48 0 82.5-35t34.5-83q0-68-65-112zm-270-1032q-55 0-55-58 0-59 55-59 56 0 56 59 0 58-56 58zm-305 210q12-41 21.5-73.5t16.5-70.5q6-3 18-3 84 25 206.5 44t263.5 19q144 0 268-19.5t208-44.5q5 0 15 4 6 36 16 67.5t22 73.5q-114 26-249 51t-280 25-277-24.5-249-48.5zm1004-315l-72 69-92-37 73-69zm-351 71l-129 67-124-67 129-68zm-432-40l-101 34-80-63 100-34zm525 74q-56 0-56-58 0-59 56-59t56 59q0 58-56 58zm219-347q-6 30-14 50-12 26-24 34.5t-22 22.5q-53 34-148.5 58.5t-230.5 21.5q-138 3-232-21.5t-146-58.5q-13-12-25-21.5t-21-34.5q-10-30-14-51-2-34 30-34 30 0 30 33 9 104 376 104 371 0 381-104-2-33 30-33 30 0 30 34z" fill="currentColor"/>
 </g>
 <path id="path2989" stroke-linejoin="round" d="m523.38 1263.9-17.728-70.106 18.363-4.1999c41.87-9.5763 248.51-47.163 306.4-55.732 88.024-13.03 303.5-11.193 406.2 3.4636 80.524 11.492 300.55 55.113 306.24 60.712 3.0103 2.966-30.878 127.07-36.133 132.32-2.0203 2.0204-20.664-0.909-41.431-6.5098-161.1-43.45-456.66-63.789-632.26-43.51-81.074 9.363-207.22 31.773-269.59 47.892-21.687 5.6048-22.84 3.7521-40.058-64.335z" transform="translate(0,-410)" fill="#ececec"/>
 <path id="path2991" stroke-linejoin="round" d="m587.67 1516.6-41.482-14.625 36.832-28.308c20.258-15.569 41.447-26.537 47.088-24.372 5.6407 2.1645 26.104 8.6839 45.475 14.488l35.219 10.552-38.134 29.118c-20.974 16.015-39.345 28.815-40.825 28.445-1.4796-0.3699-21.357-7.2537-44.172-15.297z" transform="translate(0,-410)" fill="#ececec"/>
 <path id="path2993" stroke-linejoin="round" d="m773.8 1501.3c-28.404-19.895-23.551-71.66 8.3913-89.505 20.478-11.44 25.233-11.221 45.559 2.0969 30.019 19.669 31.888 67.793 3.4081 87.741-24.226 16.969-32.728 16.919-57.359-0.3325z" transform="translate(0,-410)" fill="#ececec"/>
 <path id="path2995" stroke-linejoin="round" d="m968.44 1465.9-59.9-30.372 54.512-30.72 54.512-30.72 59.665 28.864c32.816 15.875 56.718 31.42 53.116 34.544-3.6016 3.1241-28.026 17.627-54.277 32.228l-47.729 26.548-59.9-30.371z" transform="translate(0,-410)" fill="#ececec"/>
 <path id="path2997" stroke-linejoin="round" d="m1214.8 1499.5c-25.65-20.77-25.65-60.622 0-81.392 23.734-19.219 34.091-19.606 58.938-2.2019 37.511 26.274 15.882 99.305-29.412 99.305-5.5686 0-18.856-7.0699-29.527-15.711z" transform="translate(0,-410)" fill="#ececec"/>
 <path id="path2999" stroke-linejoin="round" d="m1378.6 1502.7-31.544-29.34 36.173-13.815c48.306-18.448 49.631-18.202 82.028 15.223l28.145 29.038-37.58 14.352c-20.669 7.8936-39.402 14.246-41.629 14.117-2.2268-0.1291-18.244-13.438-35.593-29.575z" transform="translate(0,-410)" fill="#ececec"/>
 <path id="path3001" stroke-linejoin="round" d="m594.32 1766.6c-3.3515-5.4229-1.2112-27.298 4.7563-48.612 27.427-97.96 176.22-150.9 423.51-150.68 264.39 0.2369 422.41 62.901 428.92 170.08 1.8665 30.743 0.1249 33.734-19.647 33.734-16.566 0-22.395-5.1285-24.656-21.695-5.6288-41.245-45.331-70.18-119.81-87.321-70.064-16.123-256.92-24.197-381.16-16.469-175.51 10.916-246.75 37.484-262.3 97.828-7.3848 28.654-37.513 42.701-49.609 23.129z" transform="translate(0,-410)" fill="#ececec"/>
</svg>
