<?xml version="1.0" encoding="UTF-8" standalone="no"?>
<svg id="svg2" xmlns:rdf="http://www.w3.org/1999/02/22-rdf-syntax-ns#" xmlns="http://www.w3.org/2000/svg" height="100%" width="100%" version="1.1" xmlns:cc="http://creativecommons.org/ns#" xmlns:dc="http://purl.org/dc/elements/1.1/" viewBox="0 -410 2048 2048">
 <metadata id="metadata12">
  <rdf:RDF>
   <cc:Work rdf:about="">
    <dc:format>image/svg+xml</dc:format>
    <dc:type rdf:resource="http://purl.org/dc/dcmitype/StillImage"/>
   </cc:Work>
  </rdf:RDF>
 </metadata>
 <g id="g4" transform="matrix(1 0 0 -1 0 1638)">
  <path id="path6" d="m1024 1910h138v-136h207v136h238v-357l-161-186q52-66 2-139-8-13-8-24 0-13 8-25 21-31 20.5-87.5t-21.5-88.5q-7-10-7-21 0-14 9-26 47-71-2-140-7-12-7-23t7-23q22-33 22-91.5t-24-86.5l162-81v-86h67v-290h-1301v289h68v86l161 82q-24 28-24 86t22 91q8 11 8 23 0 10-8 23-49 70-1 140 9 16 9 26t-7 22q-22 32-22.5 88.5t20.5 87.5q9 12 9 25 0 11-8 23-51 73 2 140l-161 185v357h238v-135l206-1v136zm-512-254v-87q128 6 255.5 12.5t256.5 6.5q126 0 254.5-8t257.5-11v87h-1024zm43-1178q-43-4-43-43 0-43 43-43l469 16 469-16q43 0 43 43 0 39-43 43-117 7-234.5 12.5t-234.5 5.5-234.5-5.5-234.5-12.5zm520 271q29 23 85.5 23t86.5-23q30-24 30.5-72t-30.5-63q-32-17-87-17t-85 17q-32 15-31 63t31 72zm-274 0q30 23 86 23t86-23q30-24 27.5-72t-27.5-63q-26-17-87.5-15.5t-84.5 15.5q-24 13-27 62t27 73zm223 721q-95 0-220-12.5t-157-22.5q-33-12-30-38t30-34q27-9 107 2t99-2q18-14 18-65.5t-18-70.5q-19-19-102.5-5t-103.5 5-16-32.5 16-34.5q12-12 35.5 5t35.5-5q12-24 12-69t-12-67q-12-23-35.5-5.5t-35.5 5.5q-13-13-13.5-38.5t13.5-32.5q13-9 100 4.5t106-4.5q18-19 18-67t-18-69q-19-22-106.5-6.5t-99.5 6.5q-39-32 0-68 12-12 35.5 5t35.5-5q12-23 12-68t-12-67q-12-24-35.5-6.5t-35.5 6.5q-12-12-19-35.5t19-32.5q20-8 132 3t245 11q132 0 247-8.5t130-5.5q21 3 16.5 29.5t-16.5 38.5q-13 11-36.5-6.5t-34.5 6.5q-12 22-12 67t12 68q11 22 35 5t36-5q37 37 0 68-12 9-103-5t-104 5q-13 18-14.5 63.5t14.5 72.5 104.5 10 102.5-10q12 6 12 32t-12 39q-13 12-36.5-5.5t-34.5 5.5q-12 22-12 67t12 69q11 22 34.5 5t36.5-5q12 11 13.5 34.5t-13.5 32.5q-17 9-104-5t-103 5-16 68 16 68q16 18 98 2t109-2q26 13 28.5 36.5t-28.5 35.5q-33 10-158.5 22.5t-218.5 12.5zm-83-107q28 23 82.5 23t83.5-23q29-24 29-68t-29-68-83.5-24-82.5 24q-29 24-29 68t29 68zm134-203q29 23 85.5 23t86.5-23q30-24 30-68.5t-30-67.5q-30-24-86.5-24t-85.5 24q-30 23-30 67.5t30 68.5zm-274 0q30 23 86 23t86-23q30-24 30-68.5t-30-67.5q-30-24-86-24t-86 24q-30 23-30 67.5t30 68.5zm140-207q28 23 82.5 23t83.5-23q29-24 29-68.5t-29-67.5q-29-24-83.5-24t-82.5 24q-29 23-29 67.5t29 68.5zm-497-629v-68h1161v68h-1161z" fill="currentColor"/>
 </g>
 <path id="path2989" stroke-linejoin="round" d="m451.25 1757.3v-30.373h572.75 572.75v30.373 30.373h-572.75-572.75v-30.373z" transform="translate(0,-410)" fill="#ececec"/>
 <path id="path2991" stroke-linejoin="round" d="m524.29 1640.9c-1.9887-1.9887-3.6158-14.777-3.6158-28.418 0-18.1 5.5513-26.913 20.543-32.613 11.299-4.2957 124.55-11.633 251.66-16.306 241.17-8.8645 674.01 1.1409 714.45 16.515 17.302 6.5783 20.604 13.069 18.374 36.114l-2.7197 28.094-497.54 0.1148c-273.65 0.063-499.16-1.5123-501.15-3.501z" transform="translate(0,-410)" fill="#ececec"/>
 <path id="path2993" stroke-linejoin="round" d="m643.16 1493.8c-8.0236-5.3256-10.092-15.667-6.2205-31.094 5.4783-21.827 7.913-22.798 43.708-17.431 34.49 5.1722 38.486 3.8573 44.342-14.592 8.2354-25.948 8.317-101.55 0.13746-127.32-5.6848-17.911-9.947-19.296-43.773-14.224-33.519 5.0265-38.117 3.5952-43.562-13.561-3.8883-12.251-1.5122-23.756 6.577-31.845 10.709-10.71 25.777-11.202 97.601-3.1936 71.742 7.9997 87.985 7.4736 104.56-3.3866 33.611-22.023 38.791-118.35 7.7503-144.11-8.482-7.0394-43.246-9.2841-110.09-7.1081l-97.69 3.1802-2.8479-24.922c-3.8537-33.723 7.8503-43.443 36.56-30.362 36.475 16.619 50.898-3.9697 50.898-72.655 0-64.239-13.379-97.784-35.377-88.699-35.071 14.483-43.722 13.754-53.497-4.5108-5.5491-10.369-7.8273-24.746-5.0626-31.951 4.2834-11.162 20.417-12.18 109.12-6.8862l104.09 6.2128 13.039-31.208c15.629-37.405 16.405-62.912 3.0771-101.14l-9.9624-28.578-98.963 5.6522c-104.75 5.9828-132.77-0.0174-132.77-28.43 0-26.691 19.544-34.939 118.09-49.834 129.63-19.593 432.57-19.593 562.2 0 118.7 17.942 141.38 33.988 100.42 71.053-16.171 14.635-24.755 15.22-101.39 6.9119-46.045-4.9921-90.784-7.229-99.419-4.9708-31.271 8.1775-40.521 113.67-12.999 148.24 7.0272 8.8275 33.336 10.912 109.51 8.678l100.26-2.9408 2.7507 23.914c3.2745 28.468-11.929 36.822-44.486 24.444-19.629-7.4629-24.5-6.0175-32.954 9.7801-5.4564 10.196-9.9208 43.614-9.9208 74.263 0 67.812 12.488 85.755 49.808 71.566 30.222-11.49 41.482-2.0848 37.65 31.451-3.1977 27.983 0.8168 27.441-124.34 16.786-39.742-3.3833-74.477-2.4318-81.243 2.2255-16.33 11.24-26.208 72.528-18.49 114.73 3.5257 19.281 7.9119 36.557 9.747 38.392 7.6712 7.6712 51.232 8.3262 123.2 1.8523 55.12-4.9585 80.064-4.0172 88.949 3.3566 15.893 13.19 15.688 29.576-0.5721 45.836-10.52 10.52-17.847 11.06-39.441 2.9089-21.759-8.2131-27.986-7.6948-34.676 2.8866-12.676 20.049-14.586 90.794-3.7105 137.48 4.3717 18.77 7.8566 19.987 42.381 14.81 35.463-5.318 37.95-4.3181 43.414 17.454 3.1881 12.702 3.6592 25.233 1.0469 27.845-2.6123 2.6124-50.64 3.1278-106.73 1.1455-162.39-5.7394-431.37-4.1898-544.55 3.1373-61.296 3.968-109.08 3.4587-116.16-1.2381zm343.83-67.574c32.205-44.043 18.662-115.6-26.278-138.84-40.869-21.134-137.55-13.031-166.26 13.934-28.035 26.338-31.198 91.396-5.9589 122.56 28.383 35.051 173.32 36.758 198.49 2.3377zm255 13.37c29.842-11.652 43.719-43.791 37.014-85.722-8.2611-51.662-36.209-72.355-103.51-76.64-67.073-4.2709-103.97 8.6731-121.53 42.635-17.075 33.019-15.887 80.131 2.5788 102.29 27.505 33.004 122.67 41.953 185.45 17.44zm-153.3-193.6c16.168-6.7553 33.615-20.166 38.772-29.802 13.459-25.148 11.554-89.792-3.27-110.96-17.451-24.915-81.262-41.378-131.3-33.875-56.497 8.4723-81.682 35.388-81.682 87.296 0 22.009 4.2126 47.887 9.3612 57.508 20.475 38.258 109.95 54.135 168.12 29.831zm-129.92-210.7c56.549-26.966 62.904-114.35 11.128-153-30.942-23.101-119.86-24.954-160.28-3.3397-53.847 28.797-55.649 116-3.1291 151.39 35.976 24.244 106.98 26.552 152.28 4.95zm282.73-4.95c52.52-35.393 50.718-122.6-3.1291-151.39-40.415-21.614-129.34-19.761-160.28 3.3397-50.423 37.646-45.421 125.57 8.6757 152.49 43.472 21.63 119.28 19.458 154.73-4.4339zm-171.9-189.11c46.947-13.038 67.198-38.405 67.198-84.176 0-20.892-4.0209-45.498-8.9353-54.681-30.52-57.028-177.24-57.028-207.76 0-12.782 23.883-10.529 88.768 3.7365 107.59 12.835 16.939 66.714 39.425 95.803 39.982 9.5458 0.18284 32.025-3.7414 49.955-8.7206z" transform="translate(0,-410)" fill="#ececec"/>
 <path id="path2995" stroke-linejoin="round" d="m512 438.54v-39.35h512 512v39.293 39.293l-58.576-6.7339c-76.655-8.8122-860.85-8.7773-919.86 0.041l-45.54 6.81v-39.35z" transform="translate(0,-410)" fill="#ececec"/>
</svg>
