<?xml version="1.0" encoding="UTF-8" standalone="no"?>
<svg id="svg2" xmlns:rdf="http://www.w3.org/1999/02/22-rdf-syntax-ns#" xmlns="http://www.w3.org/2000/svg" height="100%" width="100%" version="1.1" xmlns:cc="http://creativecommons.org/ns#" xmlns:dc="http://purl.org/dc/elements/1.1/" viewBox="0 -410 2048 2048">
 <metadata id="metadata12">
  <rdf:RDF>
   <cc:Work rdf:about="">
    <dc:format>image/svg+xml</dc:format>
    <dc:type rdf:resource="http://purl.org/dc/dcmitype/StillImage"/>
   </cc:Work>
  </rdf:RDF>
 </metadata>
 <g id="g4" transform="matrix(1 0 0 -1 0 1638)">
  <path id="path6" d="m1031 620q-113 0-193-20t-80-48 80-47.5 193-19.5 193.5 19.5 80.5 47.5-80.5 48-193.5 20zm226 1232q-43 0-43-42 0-43 43-43t43 43q0 42-43 42zm-240 3q-41 0-41-41t41-41 41 41-41 41zm163-569v51h-128v171h-51v-171h-128v-51h128v-239h51v239h128zm43-43h-128v-239h-137v239h-128v136h128v171h137v-171h128v-136zm-100-544l-97 40-96-40 96-40zm292 537q11 54-33.5 199.5t-131.5 241.5q-13 8-23 7-15-2-27.5-15t-3.5-31q106-72 162-207t57-195zm-612-383q96 32 223 32 132 0 225-32 122 246 122 386 0 237-343 461-342-224-342-461 0-151 115-386zm429-102l-18 63q-84 20-189 20-103 0-181-18l-20-64q83 22 201 22 124 0 207-23zm36-107l-22 71-89-19 88-57zm-478-1l18-4 88 57-85 19zm235-401q-74-107-200-107-13 0-25.5 1.5t-24.5 2.5q-29 1-85 10.5t-125 44.5q-61 53-155 53-72 0-125-34-15-7-37-29-40-43-65-47-20 10-21 34-5 47 69 121-13-2-49-12-30-9-40-9-33-5-35-1-11 11 8 45 16 29 62 51 6 3 38 17 93 49 195 49 149 0 269-101 48-16 97-16 150 0 155 124-97 9-161.5 33t-64.5 56l80 266q-70 110-116 224t-46 216q0 306 332 470 0 13 3 39-34 28-34 71 0 92 93 92 92 0 92-92 0-40-29-67 0-31 8-42 17-24 45-25 29 1 48 26 4 6 8 37-26 27-26 67 0 94 94 94t94-94q0-53-46-82-4-20-2-32 169-200 147-462-7-75-23-147.5t-56-136.5q-15-34-46.5-76.5t-54.5-79.5l79-266q-1-32-66-56t-164-33q5-124 156-124 49 0 97 16 119 101 269 101 102 0 194-49 12-6 21-10t18-7q45-23 62-51 3-9 9-23t-1-22q-3-4-35 1-10 0-40 9-37 10-50 12 74-75 70-121-2-23-22-34-25 4-65 47-20 20-36 29-56 34-125 34-96 0-156-53-69-35-125-44.5t-84-10.5q-12-1-25-2.5t-25-1.5q-129 0-201 107zm0 73q3 0 66-61 58-55 142-55h41q43 3 82 10.5t93 29.5q104 72 192 72 38 0 70-9 13-3 15.5-6.5t22.5-12.5q62-32 31.5-6.5t-23.5 37.5q6 13 46.5 28t-58.5 24q-50 17-104 17-120 0-245-97-44-24-74.5-27t-57.5-1q-78 3-104.5 21.5t-47.5 41.5q-20 21-39 81-10 32-48 36-39-4-48-36-18-60-39-81-21-23-47.5-41.5t-103.5-21.5q-28-2-58.5 1t-73.5 27q-127 97-245 97-55 0-104-17-100-9-59.5-24t47.5-28q6-12-24.5-37.5t32.5 6.5q18 9 21 12.5t16 6.5q31 9 71 9 87 0 191-72 54-22 92.5-29.5t83.5-10.5h41q83 0 142 55 62 61 65 61z" fill="currentColor"/>
 </g>
 <path id="path2989" stroke-linejoin="round" d="m794.84 1164.4c-27.65-53.5-67.51-163.4-83.65-230.74-29.83-124.41-18.67-213.93 39.12-314.02 29.89-51.77 164.18-186.28 232.19-232.57l49.621-33.776 50.175 37.458c90.257 67.381 148.77 121.61 190.02 176.12 104.27 137.77 118.29 247.96 54.977 432.34-41.19 119.97-77.032 191-93.811 185.94-101.45-30.642-309.26-30.562-410.8 0.1584-10.03 3.0347-18.923-3.6406-27.852-20.907zm307.27-235.86v-121.49h60.746 60.746v-69.424-69.424h-60.746-60.746v-86.78-86.78h-73.763-73.763v86.78 86.78h-65.085-65.085v69.424 69.424h65.085 65.085v121.49 121.49h73.763 73.763v-121.49z" transform="translate(0,-410)" fill="#f9f9f9"/>
 <path id="path2991" stroke-linejoin="round" d="m1006.6 876.47v-121.49h-65.085c-63.638 0-65.085-0.48211-65.085-21.695s1.4463-21.695 65.085-21.695h65.085v-82.441c0-82.151 0.076-82.441 21.695-82.441s21.695 0.28927 21.695 82.441v82.441h60.746c59.01 0 60.746 0.61987 60.746 21.695s-1.7356 21.695-60.746 21.695h-60.746v121.49 121.49h-21.695-21.695v-121.49z" transform="translate(0,-410)" fill="#f9f9f9"/>
 <path id="path2993" stroke-linejoin="round" d="m991.4 258.98c-25.155-25.155-2.6602-63.119 34.295-57.88 16.535 2.344 20.003 8.1013 20.003 33.209 0 25.959-3.1616 30.742-21.756 32.915-11.966 1.3983-26.61-2.3115-32.542-8.2441z" transform="translate(0,-410)" fill="#f9f9f9"/>
 <path id="path2995" stroke-linejoin="round" d="m1235.3 271.05c-23.584-15.066-16.73-61.193 10.093-67.925 26.433-6.6342 47.616 8.8666 47.616 34.843 0 32.398-30.98 50.158-57.709 33.083z" transform="translate(0,-410)" fill="#f9f9f9"/>
 <path id="path2997" stroke-linejoin="round" d="m1380.8 667.04c-0.5537-7.7999-17.28-46.851-37.168-86.78-25.915-52.026-51.932-88.14-91.814-127.44-56.789-55.967-64.621-79.663-26.331-79.662 22.644 0.00029 51.842 33.216 92.454 105.18 33.121 58.688 72.788 169.41 67.628 188.77-3.4599 12.981-3.8438 12.976-4.7694-0.0642v0.00007z" transform="translate(0,-410)" fill="#f9f9f9"/>
 <path id="path2999" stroke-linejoin="round" d="m837.29 1268.4c3.1376-12.711 8.6934-26.181 12.346-29.933 20.23-20.779 337.58-20.414 357.83 0.4122 3.4262 3.5253 8.7697 16.703 11.874 29.283l5.645 22.873-41.912-8.3979c-55.569-11.134-266.33-11.105-313.85 0.044l-37.633 8.8288 5.7047-23.111z" transform="translate(0,-410)" fill="#f9f9f9"/>
 <path id="path3001" stroke-linejoin="round" d="m802.65 1378.9c8.206-38.871 12.133-41.564 46.804-32.094 31.929 8.7212 30.59 11.573-19.515 41.553l-33.52 20.057 6.2309-29.515z" transform="translate(0,-410)" fill="#f9f9f9"/>
 <path id="path3003" stroke-linejoin="round" d="m976.77 1363.4-34.212-15.102 36.557-14.627c45.113-18.051 48.348-18.053 95.414-0.079l38.094 14.548-37.804 15.34c-46.541 18.885-55.104 18.878-98.05-0.08z" transform="translate(0,-410)" fill="#f9f9f9"/>
 <path id="path3005" stroke-linejoin="round" d="m1207.3 1379.6-37.942-24.928 24.925-5.4954c13.709-3.0224 29.932-7.0472 36.05-8.9438 10.964-3.3985 27.926 28.909 27.926 53.192 0 16.979-6.9361 15.097-50.959-13.825z" transform="translate(0,-410)" fill="#f9f9f9"/>
 <path id="path3007" stroke-linejoin="round" d="m971.93 1556.3c-116.99-9.0604-208.27-35.71-208.27-60.801 0-19.388 65.874-43.353 151.77-55.217 135.96-18.778 332.62 3.5396 371.21 42.126l17.606 17.606-28.705 17.457c-42.674 25.952-203.81 46.558-303.61 38.828z" transform="translate(0,-410)" fill="#f9f9f9"/>
 <path id="path3009" stroke-linejoin="round" d="m750.64 1843c-63.697-8.7087-109.64-24.048-185.91-62.07-69.865-34.828-90.779-41.221-143.58-43.887-42.34-2.1381-71.926 1.1093-93.952 10.312-30.726 12.838-32.15 12.679-32.15-3.6078 0-9.6033-11.281-23.901-25.849-32.76l-25.849-15.72 82.237-13.215c126.02-20.251 194.4-3.8092 320.22 77 50.241 32.268 53.106 32.975 130.19 32.16 109.7-1.1598 156.4-29.21 195.37-117.34 34.429-77.862 72.956-79.927 104.48-5.6007 34.986 82.482 75.396 112.54 166.46 123.83 71.96 8.9191 109.33-0.5674 190.52-48.36 122.74-72.247 193.26-84.98 319.96-57.771l56.253 12.08-25.88 12.584c-17.65 8.5822-25.661 18.699-25.191 31.813 0.3792 10.576-0.1207 19.229-1.1098 19.229-0.9893 0-16.9-6.3098-35.357-14.022-58.189-24.313-143.81-13.161-227.55 29.64-93.65 47.863-156.56 64.977-239.99 65.292-81.757 0.3095-121.07-16.142-187.85-78.6l-42.195-39.469-47.599 45.017c-26.18 24.759-60.332 50.312-75.894 56.783-31.928 13.277-110.61 22.04-149.79 16.684z" transform="translate(0,-410)" fill="#f9f9f9"/>
</svg>
