<?xml version="1.0" encoding="UTF-8" standalone="no"?>
<svg id="svg2" xmlns:rdf="http://www.w3.org/1999/02/22-rdf-syntax-ns#" xmlns="http://www.w3.org/2000/svg" height="100%" width="100%" version="1.1" xmlns:cc="http://creativecommons.org/ns#" xmlns:dc="http://purl.org/dc/elements/1.1/" viewBox="0 -410 2048 2048">
 <metadata id="metadata12">
  <rdf:RDF>
   <cc:Work rdf:about="">
    <dc:format>image/svg+xml</dc:format>
    <dc:type rdf:resource="http://purl.org/dc/dcmitype/StillImage"/>
   </cc:Work>
  </rdf:RDF>
 </metadata>
 <g id="g4" transform="matrix(1 0 0 -1 0 1638)">
  <path id="path6" d="m715 594l-97 32-75-60 95-32zm865-3q7-21 7-40 0-59-43-91-4-17-6-34 37-52 37-84 0-84-162-144t-389-60q-228 0-389.5 60t-161.5 144q0 33 39 86-2 11-6 31-44 32-44 92 0 19 6 39 10 25-4 39t-32 39q-16 50-16 69 1 9 3.5 20t2.5 26q-44 44-91.5 83.5t-74.5 95.5q-32 66-58.5 133.5t-26.5 132.5q0 123 65 208t176 133q148 10 125 10 174 0 316-129v351h341v-352q142 130 318 130-25 0 125-10 109-48 174.5-133t65.5-208q0-65-26.5-132t-57.5-133q-27-57-75-99t-91-84q-1-12 1.5-23t3.5-20q1-14-16-69-18-25-31.5-39t-4.5-38zm-556 867q-103 0-103-103t103-103 103 103-103 103zm-40 181l-71 69v-153l71 57q-3 4-3 13 0 6 3 14zm23-53l-60-65h154l-64 64q-10-2-13-2-10 0-17 3zm57 23l71-54v153l-72-66q3-8 3-17 0-6-2-16zm-28 57l65 77h-154l61-78q6 3 16 3 4 0 12-2zm109-1041l-123 59-118-59 122-59zm-200 272q-1 123-21 247.5t-40 151.5q-124 137-280 137-134 0-204-90-46-59-46-155 0-200 149-374 17 8 33.5 14t33.5 12q-9 20-18 38t-19 47q-19 56-15 106 7 31 34 31 12 0 32-21-5 27-5 34 0 93 79 115 83-4 110-124 9 30 25 34t21 4q12 0 21-6 34-42 42-122 2-18 2.5-35t3.5-48q31 6 62 4zm-299-34q-9 23-18.5 51t-24.5 60q-8 16-20 16-17 0-18-28-2-24 49-110 8 3 16.5 5.5t15.5 5.5zm100 15q-4 131-39 212-12 21-35 21-29 0-29-29-1-1-1-26 0-43 49-188 42 8 55 10zm94 10q5 77-8 130-4 17-19 21-21 3-28-23-8-43 14-133 20 5 41 5zm630-496q-8 72-200 110-60 12-121 14t-125 5q-63-6-118.5-9t-100.5-12q-221-45-226-108-8-12-8-25 0-45 72-90 0 46 16 69 9 11 18.5 22.5t19.5 23.5q90 54 329 48 234 6 326-48 22-28 38-46 16-25 16-69 72 45 72 90 0 13-8 25zm-116-93q0 90-332 90-327 0-327-90 21-89 331-89 305 0 328 89zm-12 295l76-60 96 32-76 60zm202 221q143 177 143 373 0 96-46 155-71 90-204 90-157 0-280-137-21-27-41-151.5t-21-247.5q36 3 64-4 1 31 1.5 48t3.5 35q7 80 42 122 8 6 21 6 5 0 21-4t25-34q26 120 110 124 79-22 79-115 0-7-5-34 19 21 32 21 26 0 34-31 3-50-15-106-11-29-19.5-47t-17.5-36q18-7 36.5-13.5t36.5-13.5zm-149 48q6-3 14.5-5.5t17.5-5.5q50 86 49 110-2 28-18 28-13 0-20-16-16-32-25.5-60t-17.5-51zm-100 15q12-2 55-10 49 145 49 188 0 25-1 26 0 29-29 29-24 0-35-21-36-81-39-212zm-94 10q21 0 41-5 21 90 14 133-8 26-28 23-16-4-19-21-14-53-8-130zm299-221q45 5 45 50 0 29-26 44-84 34-213.5 55.5t-282.5 21.5q-321 0-498-79-22-17-22-42 0-51 51-49 178 67 469 67 295 0 477-68z" fill="currentColor"/>
 </g>
 <path id="path2989" stroke-linejoin="round" d="m986.27 347.39c-13.592-17.034-22.84-32.843-20.552-35.132 2.2881-2.2881 30.766-2.995 63.283-1.5708l59.123 2.5894-28.623 32.542c-15.742 17.898-33.1 32.542-38.571 32.542-5.4716-0.00014-21.069-13.937-34.661-30.972z" transform="translate(0,-410)" fill="#f9f9f9"/>
 <path id="path2991" stroke-linejoin="round" d="m919.86 415.71v-58.109l30.373 29.439c16.705 16.191 30.373 32.765 30.373 36.83 0 8.5131-44.494 49.264-54.237 49.675-3.5797 0.15082-6.5085-25.875-6.5085-57.835z" transform="translate(0,-410)" fill="#f9f9f9"/>
 <path id="path2993" stroke-linejoin="round" d="m1091.3 453.65c-28.972-23.721-30.12-40.603-4.3389-63.812 39.034-35.14 41.22-33.705 41.22 27.057 0 31.305-2.9288 56.778-6.5085 56.607-3.5796-0.17165-17.247-9.1048-30.373-19.851z" transform="translate(0,-410)" fill="#f9f9f9"/>
 <path id="path2995" stroke-linejoin="round" d="m963.25 518.83c0-9.8675 46.809-53.691 57.349-53.691 4.7687 0 21.918 13.668 38.109 30.373l29.438 30.373h-62.448c-34.346 0-62.448-3.1745-62.448-7.0544z" transform="translate(0,-410)" fill="#f9f9f9"/>
 <path id="path2997" stroke-linejoin="round" d="m997.97 787.15c-50.105-12.156-69.424-39.89-69.424-99.667 0-28.861 5.4992-45.531 20.944-63.486 18.741-21.788 26.577-24.348 74.514-24.348s55.773 2.5605 74.514 24.348c35.558 41.339 25.536 131.45-16.896 151.92-26.899 12.976-58.804 17.259-83.652 11.231z" transform="translate(0,-410)" fill="#f9f9f9"/>
 <path id="path2999" stroke-linejoin="round" d="m475.29 1187.2c-80.96-113.7-113.18-203.98-113.66-318.54-0.3845-93.193 19.288-143.56 74.552-190.86 74.34-63.632 202.59-74.996 303.59-26.902 76.671 36.508 142.59 101.33 158.35 155.73 17.842 61.562 38.74 214.8 38.932 285.49l0.15898 58.576h-26.034c-24.699 0-26.034-1.8266-26.034-35.629 0-40.275-21.704-131.23-37.258-156.14-12.398-19.852-51.624-21.841-69.92-3.5446-11.494 11.494-13.599 10.049-18.614-12.782-7.2866-33.176-47.017-75.582-78.127-83.39-16.398-4.1157-33.463-1.1838-52.369 8.9977-30.216 16.272-43.019 37.474-52.208 86.459-4.7859 25.511-9.6269 31.146-26.758 31.146-33.29 0-43.502 33.076-30.159 97.678 6.0493 29.288 18.469 67.893 27.599 85.789 17.271 33.855 16.335 36.141-20.554 50.166-20.557 7.8157-24.851 5.1237-51.496-32.282z" transform="translate(0,-410)" fill="#f9f9f9"/>
 <path id="path3001" stroke-linejoin="round" d="m1514.3 1218.2c-14.319-5.0495-27.352-10.29-28.964-11.646-1.6114-1.3558 7.175-31.742 19.525-67.524 34.255-99.245 30.01-153.26-12.042-153.26-21.552 0-24.45-3.6348-28.809-36.13-16.041-119.59-154.85-122.2-184.65-3.4707-5.0828 20.252-7.4794 22.015-14.025 10.318-4.8216-8.6157-19.134-14.107-36.768-14.107-26.174 0-30.528 3.8525-46.58 41.22-9.7389 22.671-20.46 69.257-23.825 103.53l-6.1176 62.305-26.221-0.7456-26.221-0.7455 5.308-91.932c5.168-89.507 24.161-212.42 41.098-265.97 9.598-30.343 65.7-87.389 116.63-118.6 81.444-49.901 186.49-63.912 268.82-35.857 61.095 20.817 120.67 81.734 138.19 141.32 33.344 113.35 0.4718 255.81-91.748 397.61-19.4 29.83-35.79 53.929-36.423 53.552-0.6326-0.3768-12.866-4.8165-27.184-9.866z" transform="translate(0,-410)" fill="#f9f9f9"/>
 <path id="path3003" stroke-linejoin="round" d="m965.55 771.98c-15.445-7.6144-25.954-17.288-23.352-21.497 2.6014-4.2091 1.5704-7.6607-2.2909-7.6702-11.145-0.0276-12.538-61.237-2.112-92.827 11.968-36.263 30.221-46.003 86.21-46.003s74.242 9.7399 86.21 46.003c10.426 31.59 9.033 92.8-2.112 92.827-3.8613 0.01-4.872 3.4939-2.246 7.7429 7.0864 11.466-49.724 35.694-83.164 35.467-15.984-0.10865-41.698-6.4276-57.143-14.042z" transform="translate(0,-410)" fill="#f9f9f9"/>
 <path id="path3005" stroke-linejoin="round" d="m608.71 1173.9c-26.466-31.89-46.054-109.98-27.587-109.98 10.014 0 19.704 17.236 43.196 76.835 13.746 34.875 15.011 44.657 5.7744 44.657-6.5053 0-16.127-5.1809-21.383-11.513z" transform="translate(0,-410)" fill="#f9f9f9"/>
 <path id="path3007" stroke-linejoin="round" d="m681.72 1134.3c-37.321-114.05-41.579-184.35-11.514-190.14 29.918-5.7616 66.992 94.359 67.286 181.71 0.12106 35.906-2.1561 40.647-21.279 44.302-18.967 3.6257-22.91-0.4746-34.493-35.87z" transform="translate(0,-410)" fill="#f9f9f9"/>
 <path id="path3009" stroke-linejoin="round" d="m795.26 1126.8c-8.9256-54-6.2799-94.913 6.8418-105.8 19.22-15.951 30.978 14.932 30.978 81.368 0 49.862-2.0255 56.977-16.22 56.977-12.002 0-17.619-8.4632-21.599-32.542z" transform="translate(0,-410)" fill="#f9f9f9"/>
 <path id="path3011" stroke-linejoin="round" d="m1206.2 1107.9c0-58.366 12.271-99.139 28.257-93.888 13.063 4.291 18.476 58.083 10.919 108.51-4.3172 28.807-9.2107 36.881-22.352 36.881-14.757 0-16.824-6.3279-16.824-51.503z" transform="translate(0,-410)" fill="#f9f9f9"/>
 <path id="path3013" stroke-linejoin="round" d="m1321.2 1170.1c-16.164-2.6625-19.499-8.7142-19.375-35.155 0.2181-46.232 23.268-148.15 38.903-172.01 28.666-43.749 63.606-15.181 52.146 42.637-8.9353 45.081-41.45 157.75-47.029 162.96-2.8158 2.6301-13.906 3.3347-24.645 1.5659z" transform="translate(0,-410)" fill="#f9f9f9"/>
 <path id="path3015" stroke-linejoin="round" d="m1409.2 1164.5c9.828-39.158 39.388-100.6 48.398-100.6 15.063 0 10.062 40.711-10.099 82.209-20.532 42.262-47.546 55.235-38.299 18.393z" transform="translate(0,-410)" fill="#f9f9f9"/>
 <path id="path3017" stroke-linejoin="round" d="m522.41 1365.9c-14.044-14.044-13.206-54.568 1.3785-66.672 6.4856-5.3825 33.487-17.251 60.003-26.374 218.66-75.231 626.23-75.199 873.43 0.07 67.576 20.575 78.774 29.104 78.774 59.999 0 39.943-19.472 48.62-72.049 32.104-145.85-45.816-371.71-65.456-576.63-50.145-128.45 9.5978-253.09 30.603-308.63 52.014-31.352 12.086-43.407 11.873-56.276-0.9959z" transform="translate(0,-410)" fill="#f9f9f9"/>
 <path id="path3019" stroke-linejoin="round" d="m607.46 1500.2c-7.1593-2.6949-22.249-8.3169-33.532-12.493-20.412-7.5551-20.351-7.7245 12.041-33.466 17.906-14.23 33.276-25.872 34.156-25.872 0.87992 0 19.921 6.2426 42.313 13.872l40.713 13.872-31.683 25.178c-31.949 25.39-40.264 27.846-64.008 18.908z" transform="translate(0,-410)" fill="#f9f9f9"/>
 <path id="path3021" stroke-linejoin="round" d="m963.55 1446.4-47.436-24.552 51.775-25.909 51.775-25.909 56.407 25.578 56.407 25.578-47.729 24.883c-26.251 13.686-53.586 24.883-60.746 24.883-7.1593 0-34.363-11.048-60.453-24.552z" transform="translate(0,-410)" fill="#f9f9f9"/>
 <path id="path3023" stroke-linejoin="round" d="m1385.8 1481.8-32.296-25.666 40.713-13.872c22.392-7.6299 41.433-13.872 42.313-13.872 0.8799 0 16.25 11.643 34.156 25.872l32.556 25.872-23.068 8.7703c-52.028 19.781-61.435 19.073-94.375-7.1042z" transform="translate(0,-410)" fill="#f9f9f9"/>
 <path id="path3025" stroke-linejoin="round" d="m610.05 1738.6c-31.554-34.644-36.777-51.986-24.47-81.256 14.92-35.485 54.088-58.423 144.5-84.622 198.46-57.512 514.05-49.662 664.18 16.519 76.239 33.608 97.506 93.912 50.443 143.04-29.758 31.061-38.874 32.436-38.874 5.8636 0-10.992-11.586-35.74-25.747-54.996-19.484-26.495-36.898-38.65-71.593-49.975-73.792-24.086-190.66-33.624-345.24-28.177-138.51 4.8804-204.9 15.679-253.76 41.279-30.344 15.899-67.328 66.35-67.328 91.845 0 25.216-9.4582 25.358-32.115 0.4835z" transform="translate(0,-410)" fill="#f9f9f9"/>
 <path id="path3027" stroke-linejoin="round" d="m906.85 1827.7c-91.39-8.0335-136.59-19.215-176.28-43.608-22.96-14.109-28.21-22.443-26.034-41.327 6.5041-56.446 167.25-87.557 393.94-76.248 172.09 8.5855 250.4 34.521 244.97 81.123-3.6119 30.982-54.709 59.046-128.3 70.466-84.509 13.115-220.19 17.337-308.29 9.5925z" transform="translate(0,-410)" fill="#f9f9f9"/>
</svg>
