<?xml version="1.0" encoding="UTF-8" standalone="no"?>
<svg id="svg2" xmlns:rdf="http://www.w3.org/1999/02/22-rdf-syntax-ns#" xmlns="http://www.w3.org/2000/svg" height="100%" width="100%" version="1.1" xmlns:cc="http://creativecommons.org/ns#" xmlns:dc="http://purl.org/dc/elements/1.1/" viewBox="0 -410 2048 2048">
 <metadata id="metadata12">
  <rdf:RDF>
   <cc:Work rdf:about="">
    <dc:format>image/svg+xml</dc:format>
    <dc:type rdf:resource="http://purl.org/dc/dcmitype/StillImage"/>
   </cc:Work>
  </rdf:RDF>
 </metadata>
 <g id="g4" transform="matrix(1 0 0 -1 0 1638)">
  <path id="path6" d="m401 850q-8-10-21-19-28-21-40 4-7 12 1 37 14 12 19 16 31 37 51 65 10 2 15 1 35-6 18-43-9-18-21.5-32.5t-21.5-28.5zm296 444q20 62 76 67 38 3 66 3t60 10q-32-90-73-117-22-13-61-16-29-2-45 4t-23 49zm-66-532q48 34 68.5 71.5t56.5 71.5q1 12 3 27t4 32q7 7 11 8 29 9 34-26 0-10-1.5-19.5t0.5-16.5q6-7 45-15 144-5 265 108 0 1 6.5 9t7.5 10q30 45 48 187 2 4 11 9 26 9 33-26-9-129-39-184-16-29-36-51 17 9 34 17t33 18q51 31 73 120 11 19 32 17 22-4 17-33-23-125-98-162-24-12-48.5-21.5t-47.5-18.5q59 3 128 19 13 0 18-11 9-20-19-36-141-39-179-35-27-85-132-187-58-56-120-108.5t-122-104.5q-133-117-162-228 229-1 380.5-1h278.5t256 0.5 314 0.5q14 0 11.5 50t-7.5 93q-54-6-102 56.5t-44 143.5q1 210-26.5 378.5t-108.5 292.5q-132 200-419 340-4-25-9-46-8-32-30-21-21 7-22 27 4 18 5 27-1 3-2 7.5t-1 8.5q-10 52-57 118-8-42-16-57t-14-26q-11-16-19.5-31t-19.5-33q-11 12-23.5 28.5t-22.5 28.5l-17.5 17.5t-32.5 14.5q21-78-11-107-16-16-35-42.5t-43-48.5q-14-15-34.5-34.5t-34.5-50.5q-19-58-74.5-116.5t-121.5-117.5q-144-128-163-186-26-70 3-136 27-59 74-77 28-11 69 42 44 53 58 49 26-7 17-37-5-17-32-49-28-31-29-41-5-12 20-19 31-8 116 75 10 10 21.5 18.5t23.5 19.5zm33-48q-14-15-22.5-21.5t-15.5-12.5q-9-8-64-66-23-24-55-32-23-6-59 5-125 33-197 132-29 37-40.5 89.5t11.5 133.5q22 83 158 187 149 113 176 181 22 39 50 86t67 91q24 17 45.5 39.5t43.5 46.5v123q56-11 80-32 12-13 27-24t27-24q25 45 32 75 1 7 6.5 28t11.5 69q15 3 26-8 47-51 88-116 183-73 334.5-173t231.5-208q230-312 230-916 0-127-13-232h-1365q-13 130 138 276 68 66 141.5 128t143.5 126q130 120 144 192-5 12-19 16-35-21-70-27t-69-8q-22-1-43.5-1.5t-50.5 9.5q-39-44-66.5-75.5t-62.5-56.5z" fill="currentColor"/>
 </g>
 <path id="path2989" stroke-linejoin="round" d="m568.62 1825.5c21.376-72.655 84.822-142.72 315.41-348.3 111.12-99.07 177.39-174.76 199.39-227.75 9.5411-22.973 16.708-26.186 90.392-40.522 89.153-17.345 119.2-32.366 119.2-59.587 0-17.167-3.2195-18.01-49.898-13.072l-49.898 5.2787 37.338-18.279c45.88-22.46 77.499-62.583 97.789-124.09 19.496-59.096 14.22-84.671-16.719-81.047-18.291 2.1424-25.443 10.767-38.165 46.026-8.6106 23.864-29.154 56.081-45.653 71.593-33.063 31.086-53.279 37.201-43.029 13.017 21.824-51.495 30.269-86.782 35.351-147.72 5.0598-60.67 3.9498-69.356-9.5236-74.526-24.664-9.4646-35.581 7.7129-47.418 74.612-16.512 93.32-32.133 125.39-79.19 162.59-57.407 45.378-109.75 69.091-174.88 79.231-63.612 9.9035-102.76 0.3634-100.64-24.526 3.3522-39.326-1.0376-46.996-25.3-44.204-20.226 2.3273-24.299 7.3203-26.718 32.752-1.6006 16.83-13.033 41.718-26.034 56.676-12.749 14.668-32.556 40.216-44.017 56.773-25.254 36.486-165.53 157.05-196.01 168.47-37.826 14.173-41.441-4.7445-8.7911-46.005 37.537-47.435 44.554-68.899 27.952-85.501-16.683-16.683-33.597-7.6114-82.958 44.496-20.715 21.868-42.87 39.759-49.232 39.759-18.664 0-61.742-40.758-76.949-72.804-19.609-41.322-17.999-111.07 3.5378-153.28 9.6753-18.965 81.623-97.376 159.88-174.25 106.79-104.89 149.36-153.04 170.64-192.97 15.59-29.263 62.747-91.984 104.79-139.38 73.654-83.022 76.45-87.703 76.45-128 0-23.004 3.4987-41.826 7.7749-41.826s23.512 18.549 42.747 41.22c40.531 47.773 41.232 47.478 82.56-34.662l29.075-57.788 20.001 35.586c11 19.572 22.352 57.459 25.227 84.191 4.8269 44.89 7.0274 48.813 28.788 51.322 19.631 2.2635 24.536-1.3558 29.403-21.695 9.3534-39.088 10.473-39.177 71.272-5.6547 151.81 83.7 284.28 200.22 353.01 310.49 86.657 139.04 117 275.47 130.38 586.28 2.9795 69.207 9.7292 140.71 14.999 158.89 13.916 48.008 69.908 108.21 107.14 115.19l30.251 5.6751-2.516 66.223-2.516 66.224-610.23 2.2283-610.23 2.2283 5.7619-19.584zm-159.15-633.1c34.751-37.642 47.337-66.738 38.655-89.362-9.2978-24.23-37.371-13.241-72.001 28.184-45.488 54.414-48.437 60.056-41.996 80.349 8.8733 27.957 38.883 20.322 75.342-19.171zm422.09-403.5c20.343-14.989 70.187-91.58 70.744-108.71 0.33644-10.351-141.22 3.4257-166.59 16.213-41.455 20.895-52.729 61.217-27.275 97.558 12.45 17.775 19.49 19.769 57.053 16.16 23.568-2.2646 53.299-11.816 66.069-21.225z" transform="translate(0,-410)" fill="#f9f9f9"/>
</svg>
