<?xml version="1.0" encoding="UTF-8" standalone="no"?>
<svg id="svg2" xmlns:rdf="http://www.w3.org/1999/02/22-rdf-syntax-ns#" xmlns="http://www.w3.org/2000/svg" height="100%" width="100%" version="1.1" xmlns:cc="http://creativecommons.org/ns#" xmlns:dc="http://purl.org/dc/elements/1.1/" viewBox="0 -410 2048 2048">
 <metadata id="metadata12">
  <rdf:RDF>
   <cc:Work rdf:about="">
    <dc:format>image/svg+xml</dc:format>
    <dc:type rdf:resource="http://purl.org/dc/dcmitype/StillImage"/>
   </cc:Work>
  </rdf:RDF>
 </metadata>
 <g id="g4" transform="matrix(1 0 0 -1 0 1638)">
  <path id="path6" d="m1024 204h462q-30 119-115 211-33 38-62 63-96 78-157 184-64-24-128-24-66 0-128 24-65-108-157-184-30-25-62-63-86-92-115-211h462zm0 501q113 0 193 80t80 194q0 93-58 167-67 86-103 182-60 8-112 8-55 0-112-8-41-102-104-182-58-74-58-167 0-114 80-194t194-80zm0 935q102 0 102 102t-102 102-102-102 102-102zm0-236q76 0 135-19-23 42-47.5 93.5t-31.5 102.5q-28-8-56-8-30 0-57 8-8-51-32-102.5t-46-93.5q79 19 135 19zm0-1267h-545q19 215 183 363 27 25 30 27 85 70 145 167-154 101-154 285 0 114 69 205 23 29 49.5 66t42.5 72q-24-6-72.5-19t-71.5-22q69 64 131.5 152t73.5 187q-51 52-51 122t49.5 120 120.5 50q69 0 119-50t50-120q0-71-51-122 11-99 74.5-187t132.5-152q-23 9-72.5 22t-73.5 19q16-35 42.5-72t50.5-66q69-91 69-205 0-184-154-285 57-96 144-167 15-12 30-27 165-148 183-363h-544z" fill="currentColor"/>
 </g>
 <path id="path3005" stroke-linejoin="round" d="m572.75 1824.4c0-6.518 14.131-40.098 31.403-74.621 24.393-48.758 55.905-88.246 141.17-176.89 60.371-62.768 118.93-128.98 130.14-147.14 18.823-30.502 22.441-32.482 47.578-26.034 35.349 9.0679 166.83 8.9997 202.41-0.105 25.332-6.482 28.891-4.7482 41.901 20.411 7.8199 15.122 66.133 81.313 129.58 147.09 90.913 94.246 122.04 132.93 146.84 182.52 17.313 34.607 31.479 68.255 31.479 74.773 0 9.8641-75.656 11.851-451.25 11.851-375.6 0-451.25-1.9869-451.25-11.851z" transform="translate(0,-410)" fill="#f9f9f9"/>
 <path id="path3007" stroke-linejoin="round" d="m973.86 1332.5c-156.04-31.2-255-196.3-205.32-342.62 7.4571-21.964 35.769-73.843 62.915-115.29 27.146-41.443 56.582-91.5 65.413-111.24 17.861-39.922 35.523-46.363 127.13-46.363 95.565 0 108.45 5.4017 131.22 55.015 11.255 24.525 42.507 78.499 69.449 119.94 55.76 85.775 73.267 142.56 64.593 209.53-19.474 150.35-169.39 260.15-315.4 231.01z" transform="translate(0,-410)" fill="#f9f9f9"/>
 <path id="path3009" stroke-linejoin="round" d="m902.51 653.87c0-2.2249 13.299-32.907 29.553-68.183s30.898-73.9 32.542-85.832c2.7954-20.284 6.5034-21.803 57.03-23.355l54.04-1.66 9.735 36.153c5.3542 19.884 21.319 59.101 35.477 87.148s24.507 52.23 22.998 53.74c-1.5095 1.5095-22.267-1.098-46.128-5.7945-40.903-8.0508-154.74-3.7162-182.54 6.9507-6.9914 2.6828-12.712 3.0575-12.712 0.83257z" transform="translate(0,-410)" fill="#f9f9f9"/>
 <path id="path3011" stroke-linejoin="round" d="m974.78 391.74c-34.11-14.838-46.243-36.564-46.243-82.807 0-68.33 26.73-94.906 95.458-94.906s95.458 26.576 95.458 94.906c0 46.982-12.274 68.186-48.149 83.175-36.348 15.187-60.98 15.093-96.524-0.36812v0.00001z" transform="translate(0,-410)" fill="#f9f9f9"/>
</svg>
