<?xml version="1.0" encoding="UTF-8" standalone="no"?>
<svg id="svg2" xmlns:rdf="http://www.w3.org/1999/02/22-rdf-syntax-ns#" xmlns="http://www.w3.org/2000/svg" height="100%" width="100%" version="1.1" xmlns:cc="http://creativecommons.org/ns#" xmlns:dc="http://purl.org/dc/elements/1.1/" viewBox="0 -410 2048 2048">
 <metadata id="metadata12">
  <rdf:RDF>
   <cc:Work rdf:about="">
    <dc:format>image/svg+xml</dc:format>
    <dc:type rdf:resource="http://purl.org/dc/dcmitype/StillImage"/>
   </cc:Work>
  </rdf:RDF>
 </metadata>
 <g id="g4" transform="matrix(1 0 0 -1 0 1638)">
  <path id="path6" d="m613 944q-28 24-86 95-101 114-113 114-10 0-10-14 0-18 32-73 28-79 46-145 45 9 131 23zm236 20q-26 22-50 73-29 59-70 183-16 49-30 83t-20 33q-3-1-2.5-16t0.5-24q0-27 25-137 24-114 24-163 1-30-6-43 52 7 129 11zm257 3q-29 33-38 111-4 31-10.5 89.5t-9.5 145.5q-3 63-10 109t-14 48q-8-2-13.5-48t-8.5-109q-5-87-12-145.5t-10-89.5q-9-84-38-111 20 0 40.5 3.5t41.5 3.5 41.5-3.5 40.5-3.5zm223-13q-7 15-7 42 0 51 25 163 24 112 24 137 0 32-1 33-14 3-51-109-38-116-70-183-23-48-49-74 47-2 129-9zm240-33q9 37 20.5 73.5t23.5 72.5q32 59 32 72 0 14-10 14-16 0-113-113l-51-59.5t-35-38.5q68-9 133-21zm-1306 513q-67 0-67-67 0-68 67-68 68 0 68 68 0 67-68 67zm810 246q15-162 30.5-323.5t31.5-322.5q1-23 23-23 16 1 22 14 87 210 128.5 325.5t50.5 142.5q-46 44-46 99 0 48 34.5 82.5t83.5 34.5q48 0 82.5-34.5t34.5-82.5q0-87-90-118l-73-436q-5-30 21-30 21 0 32 11 120 120 172.5 186t73.5 92q-22 29-22 70 0 117 117 117 48 0 82.5-34.5t34.5-82.5q0-49-34.5-83t-82.5-34q-15 0-27 3-80-173-128-354-41-147-51-279 6-28 7-29-3 12 4-23 4-16 4-31-6-16-25-36-17-19-25-75 37-52 37-84 0-84-162-144t-389-60q-228 0-389.5 60t-161.5 144q0 33 39 86-12 57-26 73-20 20-26 36 0 13 3 30 2 8 3 14.5t2 9.5q4 11 8 31-10 126-49 277-52 190-129 356-17-5-35-5-117 0-117 117t117 117 117-117q0-36-18-65 59-75 118.5-139.5t131.5-141.5q9-13 26-13 29 0 26 30-2 9-25 143t-50 292q-95 26-95 119 0 48 34.5 82.5t82.5 34.5q117 0 117-117 0-52-40-95 5-21 25-83.5t62-164.5q23-56 46.5-112.5t47.5-111.5q6-13 21-13 21 1 24 22 2 12 61 645-71 38-71 113 0 48 34 83t83 35q48 0 82.5-35t34.5-83q0-68-65-112zm-270-1034q-53 0-53-56t53-56q54 0 54 56t-54 56zm-305 200q12-49 21.5-88.5t16.5-85.5q8-4 18-4 178 67 469 67 295 0 477-68 10 2 15 5 6 45 16 82.5t22 87.5q-114 32-249 53.5t-280 21.5-277-21-249-50zm1004-303l-72 69-92-37 73-69zm-351 71l-129 67-124-67 129-68zm-432-40l-101 34-80-63 100-34zm1060 860q-68 0-68-67 0-68 68-68 67 0 67 68 0 67-67 67zm-1168 226q-67 0-67-68 0-67 67-67 68 0 68 67 0 68-68 68zm410 200q-67 0-67-68 0-67 67-67t67 67q0 68-67 68zm410-200q-68 0-68-68 0-67 68-67 67 0 67 67 0 68-67 68zm-187-1014q-53 0-53-56t53-56q54 0 54 56t-54 56zm-220-179q-190 0-322.5-29t-132.5-83q0-56 132.5-90t322.5-34q189 0 325.5 34t136.5 90q0 54-136.5 83t-325.5 29z" fill="currentColor"/>
 </g>
 <path id="path2989" stroke-linejoin="round" d="m788.35 1796c-111.49-19.593-189.93-51.232-207.25-83.598-11.934-22.3 6.3662-53.914 41.629-71.914 105.49-53.848 513.68-70.055 710.88-28.224 196.94 41.776 194.17 120-6.0503 170.79-62.328 15.81-104.14 19.123-273.18 21.643-140.63 2.0965-219.22-0.4734-266.02-8.6984z" transform="translate(0,-410)" fill="#f9f9f9"/>
 <path id="path2991" stroke-linejoin="round" d="m1376.4 1503.3-33.369-27.505 40.807-16.029 40.807-16.029 35.409 28.044 35.409 28.044-33.977 15.263c-45.051 20.237-46.474 20.04-85.087-11.788z" transform="translate(0,-410)" fill="#f9f9f9"/>
 <path id="path2993" stroke-linejoin="round" d="m1222.7 1501.6c-23.66-11.729-33.14-59.188-15.959-79.891 13.731-16.545 55.625-15.861 72.672 1.1867 25.036 25.036 12.7 72.246-22.001 84.198-7.6687 2.6412-23.289 0.1691-34.712-5.4937z" transform="translate(0,-410)" fill="#f9f9f9"/>
 <path id="path2995" stroke-linejoin="round" d="m964.66 1463.9-55.004-30.969 55.004-29.598 55.004-29.598 59.078 28.378c53.757 25.822 57.665 29.44 43.39 40.168-15.93 11.972-95.51 54.297-100.01 53.191-1.3519-0.3323-27.21-14.54-57.462-31.573z" transform="translate(0,-410)" fill="#f9f9f9"/>
 <path id="path2997" stroke-linejoin="round" d="m789.69 1506.8c-54.228-16.909-40.803-97.52 16.24-97.52 31.092 0 44.506 14.588 44.506 48.402 0 35.402-29.148 58.971-60.746 49.118z" transform="translate(0,-410)" fill="#f9f9f9"/>
 <path id="path2999" stroke-linejoin="round" d="m588.44 1515.6-40.715-13.554 35.232-27.88 35.232-27.88 42.364 13.547c23.3 7.451 42.28 15.731 42.178 18.399-0.19786 5.1807-65.658 53.147-70.625 51.751-1.6238-0.4564-21.274-6.9289-43.667-14.384z" transform="translate(0,-410)" fill="#f9f9f9"/>
 <path id="path3001" stroke-linejoin="round" d="m525.73 1300.7c-8.2412-41.497-16.812-80.211-19.045-86.032-4.2982-11.201 169.8-48.986 304.71-66.131 93.063-11.827 328.55-11.668 425.22 0.2869 106.23 13.138 308.07 55.035 308.07 63.949 0 9.771-34.192 155.56-37.186 158.55-2.1246 2.1246-41.986-6.0422-88.58-18.148-114.76-29.816-215.4-40.296-390.57-40.673-164.8-0.3542-287.83 11.703-385.67 37.799-36.072 9.621-73.77 19.372-83.773 21.669-16.591 3.8096-19.503-2.4478-33.172-71.273z" transform="translate(0,-410)" fill="#f9f9f9"/>
 <path id="path3003" stroke-linejoin="round" d="m482.26 1112.7c-1.9894-6.2952-12.271-38.781-22.848-72.192-10.577-33.41-26.731-75.682-35.898-93.936-9.167-18.255-15.314-37.252-13.659-42.216 3.0254-9.0763 111.53 101.69 161.84 165.2l26.993 34.082-41.175 5.8118c-22.646 3.1965-48.028 7.8111-56.404 10.255-8.376 2.4437-16.857-0.7076-18.846-7.0028z" transform="translate(0,-410)" fill="#f9f9f9"/>
 <path id="path3005" stroke-linejoin="round" d="m726.56 1025.3c-2.6926-34.603-12.725-101.97-22.295-149.69-38.219-190.62-33.277-191.99 32.886-9.1369 23.398 64.664 53.978 138.69 67.955 164.49l25.413 46.921-25.835 5.1671c-14.209 2.8419-36.499 5.167-49.532 5.167-23.181 0-23.803-1.369-28.592-62.915z" transform="translate(0,-410)" fill="#f9f9f9"/>
 <path id="path3007" stroke-linejoin="round" d="m963.25 1067.1c0-2.0902 5.6407-28.45 12.535-58.576 6.8942-30.127 18.944-132.88 26.777-228.34 19.79-241.18 24.293-241.57 43.098-3.7929 13.309 168.29 25.2 250.58 40.36 279.32 7.2953 13.828 2.1646 15.186-57.378 15.186-35.965 0-65.39-1.7102-65.39-3.8005z" transform="translate(0,-410)" fill="#f9f9f9"/>
 <path id="path3009" stroke-linejoin="round" d="m1235.7 1082.3c-17.821-3.5067-17.566-4.9774 9.9619-57.394 15.538-29.588 47.175-106.51 70.303-170.95 23.725-66.095 43.212-109.19 44.714-98.885 1.4644 10.047-7.2976 72.188-19.471 138.09-12.174 65.903-22.134 136.76-22.134 157.46v37.638l-32.542-1.1817c-17.898-0.65-40.773-2.8013-50.832-4.7806z" transform="translate(0,-410)" fill="#f9f9f9"/>
 <path id="path3011" stroke-linejoin="round" d="m1498.7 1111.1-50.301-9.9016 68.678-78.102c80.274-91.288 123.04-132.87 123.04-119.64 0 5.1919-9.6871 30.329-21.527 55.861s-28.325 72.78-36.634 105c-8.3088 32.217-19.123 58.151-24.032 57.63-4.9089-0.5202-31.561-5.4015-59.227-10.847z" transform="translate(0,-410)" fill="#f9f9f9"/>
 <path id="path3013" stroke-linejoin="round" d="m1732.6 725.23c-21.49-23.746-18.72-75.551 4.9249-92.113 26.578-18.616 64.087-16.915 84.849 3.8469 22.16 22.16 22.957 70.343 1.4862 89.774-21.447 19.409-73.103 18.556-91.26-1.5078z" transform="translate(0,-410)" fill="#f9f9f9"/>
 <path id="path3015" stroke-linejoin="round" d="m1384.8 501.83c-19.003-19.003-17.654-75.496 2.233-93.493 8.7284-7.8991 28.254-14.362 43.39-14.362 52.762 0 80.118 57.382 48.723 102.2-16.421 23.444-73.154 26.841-94.346 5.65z" transform="translate(0,-410)" fill="#f9f9f9"/>
 <path id="path3017" stroke-linejoin="round" d="m976.89 302.24c-19.003-19.003-17.654-75.496 2.233-93.493 18.783-16.999 61.516-18.805 82.466-3.486 8.1805 5.9818 17.177 25.068 19.991 42.413 4.0442 24.921 1.2719 35.383-13.215 49.87-22.002 22.002-71.623 24.549-91.476 4.696z" transform="translate(0,-410)" fill="#f9f9f9"/>
 <path id="path3019" stroke-linejoin="round" d="m571.25 506.48c-29.999-17.505-26.855-84.613 4.96-105.86 17.729-11.838 63.152-6.7707 76.601 8.5451 28.172 32.082 25.617 78.929-5.4362 99.664-13.57 9.0611-58.969 7.6583-76.124-2.3522z" transform="translate(0,-410)" fill="#f9f9f9"/>
 <path id="path3021" stroke-linejoin="round" d="m216.95 723.74c-38.825-38.825-9.7341-104.14 46.384-104.14 29.049 0 49.921 15.736 60.528 45.635 6.2209 17.534-7.6181 59.357-22.845 69.039-20.102 12.782-66.573 6.9564-84.067-10.538z" transform="translate(0,-410)" fill="#f9f9f9"/>
</svg>
