<?xml version="1.0" encoding="UTF-8" standalone="no"?>
<svg id="svg2" xmlns:rdf="http://www.w3.org/1999/02/22-rdf-syntax-ns#" xmlns="http://www.w3.org/2000/svg" height="100%" width="100%" version="1.1" xmlns:cc="http://creativecommons.org/ns#" xmlns:dc="http://purl.org/dc/elements/1.1/" viewBox="0 -410 2048 2048">
 <metadata id="metadata12">
  <rdf:RDF>
   <cc:Work rdf:about="">
    <dc:format>image/svg+xml</dc:format>
    <dc:type rdf:resource="http://purl.org/dc/dcmitype/StillImage"/>
   </cc:Work>
  </rdf:RDF>
 </metadata>
 <g id="g4" transform="matrix(1 0 0 -1 0 1638)">
  <path id="path6" d="m1024 1910h138v-136h207v136h238v-357l-161-186q52-66 2-139-8-13-8-24 0-13 8-25 21-31 20.5-87.5t-21.5-88.5q-7-10-7-21 0-14 9-26 47-71-2-140-7-12-7-23t7-23q22-33 22-91.5t-24-86.5l162-81v-86h67v-290h-1301v289h68v86l161 82q-24 28-24 86t22 91q8 11 8 23 0 10-8 23-49 70-1 140 9 16 9 26t-7 22q-22 32-22.5 88.5t20.5 87.5q9 12 9 25 0 11-8 23-51 73 2 140l-161 185v357h238v-135l206-1v136zm-369-494q171 27 369 27 201 0 372-27l58 73q-204 36-430 36-228 0-431-36zm-211-1060v-153h1159v153h-1159zm580 204q-208 0-377-14l-135-72v-50h1024v50l-68 36t-67 36q-180 14-377 14zm512 1282h-103v-140h-342v139h-135v-139h-341v140h-103v-254q128 8 255.5 15t256.5 7q243 0 512-22v254zm-331-479q-33-24-33-68t33-68q31-24 92-24t93 24 32 68-32 68q-32 23-93 23t-92-23zm-269 0q-31-24-31-68t31-68q30-24 87.5-24t88.5 24q30 24 30 68t-30 68q-31 23-88.5 23t-87.5-23zm-278 0q-33-24-33-68t33-68q31-24 91.5-24t93.5 24q32 24 32 68t-32 68q-33 23-93.5 23t-91.5-23zm672-203q-12-24-12-68.5t12-67.5q11-24 35-24t36 24q12 23 12 67.5t-12 68.5q-12 22-36 22t-35-22zm-256 0q-30-24-30-68.5t30-67.5q30-24 86.5-24t86.5 24q30 23 30 67.5t-30 68.5q-30 23-86.5 23t-86.5-23zm-273 0q-30-24-30-68.5t30-67.5q29-24 86-24t87 24q29 23 29 67.5t-29 68.5q-30 23-87 23t-86-23zm-154 0q-12-24-12-68.5t12-67.5q12-24 35.5-24t35.5 24q12 23 12 67.5t-12 68.5q-12 22-35.5 22t-35.5-22zm683-411q-12-23-12-68t12-68q11-23 35-23t36 23 12 68-12 68q-12 22-36 22t-35-22zm-683 0q-12-23-12-68t12-68 35.5-23 35.5 23 12 68-12 68q-12 22-35.5 22t-35.5-22zm154 0q-30-24-30-72t30-64q28-16 88.5-16t84.5 16q23 16 26 64t-26 72q-30 23-87 23t-86-23zm273 0q-30-24-30-72t30-64q29-16 86.5-16t86.5 16q28 16 29 64t-29 72q-30 23-86.5 23t-86.5-23zm131 204q-33-24-33-68.5t33-67.5q31-24 92-24t93 24q32 23 32 67.5t-32 68.5q-32 23-93 23t-92-23zm-269 0q-31-24-31-68.5t31-67.5q30-24 87.5-24t88.5 24q30 23 30 67.5t-30 68.5q-31 23-88.5 23t-87.5-23zm-278 0q-33-24-33-68.5t33-67.5q31-24 91.5-24t93.5 24q32 23 32 67.5t-32 68.5q-33 23-93.5 23t-91.5-23z" fill="currentColor"/>
 </g>
 <path id="path2989" stroke-linejoin="round" d="m451.25 1766v-73.763h572.75 572.75v73.763 73.763h-572.75-572.75v-73.763z" transform="translate(0,-410)" fill="#f9f9f9"/>
 <path id="path2991" stroke-linejoin="round" d="m513.59 1600.1c2.277-18.819 15.898-29.564 79.759-62.915l77.013-40.22h353.64 353.64l77.011 40.22c63.859 33.351 77.48 44.097 79.757 62.915l2.7459 22.695h-513.15-513.15l2.7459-22.695z" transform="translate(0,-410)" fill="#f9f9f9"/>
 <path id="path2993" stroke-linejoin="round" d="m650.63 1427c-11.512-30.278-10.667-93.578 1.6077-120.52 12.78-28.049 45.997-29.703 60.287-3.0014 13.189 24.644 13.189 102.03 0 126.68-14.682 27.434-50.968 25.583-61.895-3.158z" transform="translate(0,-410)" fill="#f9f9f9"/>
 <path id="path2995" stroke-linejoin="round" d="m841.47 1441.5c-16.867-3.4807-35.657-9.4123-41.756-13.181-37.441-23.14-27.045-108.73 15.904-130.94 35.917-18.573 111.06-16.792 144.2 3.4172 42.265 25.773 47.563 101.7 8.8292 126.55-23.61 15.146-87.777 22.288-127.18 14.156z" transform="translate(0,-410)" fill="#f9f9f9"/>
 <path id="path2997" stroke-linejoin="round" d="m1112.6 1441.1c-41.733-10.447-62.56-32.925-62.56-67.518 0-38.693 12.105-60.008 43.216-76.096 51.339-26.549 154.23-10.455 168.34 26.333 2.9648 7.7262 5.3906 29.349 5.3906 48.05 0 36.802-23.088 68.641-49.898 68.81-8.3525 0.053-28.854 1.7776-45.559 3.8335s-43.224 0.5209-58.932-3.4111z" transform="translate(0,-410)" fill="#f9f9f9"/>
 <path id="path2999" stroke-linejoin="round" d="m1335.5 1430.1c-13.189-24.644-13.189-102.03 0-126.68 14.29-26.701 47.507-25.048 60.287 3.0014 12.275 26.941 13.119 90.24 1.6077 120.52-10.927 28.741-47.213 30.592-61.895 3.158z" transform="translate(0,-410)" fill="#f9f9f9"/>
 <path id="path3001" stroke-linejoin="round" d="m1226.1 1236c-15.306-6.6998-31.903-19.792-36.881-29.094-11.373-21.25-11.697-66.319-0.6267-87.005 10.733-20.055 69.748-43.863 108.73-43.863 38.98 0 97.994 23.808 108.73 43.863 11.048 20.643 10.754 65.74-0.5662 86.891-20.627 38.541-120.8 54.851-179.38 29.208z" transform="translate(0,-410)" fill="#f9f9f9"/>
 <path id="path3003" stroke-linejoin="round" d="m952.8 1231.9c-60.359-31.876-53.586-116.16 11.425-142.17 83.423-33.379 172.59 4.4073 172.59 73.138 0 72.35-103.92 111.33-184.01 69.034z" transform="translate(0,-410)" fill="#f9f9f9"/>
 <path id="path3005" stroke-linejoin="round" d="m679.42 1236c-15.306-6.6998-31.903-19.792-36.881-29.094-11.373-21.25-11.697-66.319-0.62676-87.005 10.733-20.055 69.748-43.863 108.73-43.863 38.98 0 97.995 23.808 108.73 43.863 9.5377 17.821 11.115 60.52 3.0155 81.628-15.529 40.467-123 60.716-182.96 34.472z" transform="translate(0,-410)" fill="#f9f9f9"/>
 <path id="path3007" stroke-linejoin="round" d="m655.68 1022.1c-20.987-29.963-18.221-114.85 4.483-137.55 16.195-16.195 19.878-16.74 36.881-5.4555 29.827 19.796 36.952 100.28 13.023 147.11-10.762 21.058-38.215 18.989-54.387-4.1004z" transform="translate(0,-410)" fill="#f9f9f9"/>
 <path id="path3009" stroke-linejoin="round" d="m815.44 1021.8c-33.158-22.409-43.353-50.796-32.711-91.073 9.9632-37.709 40.714-56.128 95.986-57.496 86.004-2.1278 128.14 35.569 115.43 103.28-11.598 61.821-115.35 88.114-178.71 45.29z" transform="translate(0,-410)" fill="#f9f9f9"/>
 <path id="path3011" stroke-linejoin="round" d="m1091.5 1027.8c-27.74-15.054-41.438-37.512-41.438-67.935 0-58.838 40.928-88.571 119.25-86.633 55.273 1.3675 86.023 19.787 95.986 57.496 10.642 40.278 0.4465 68.664-32.711 91.073-34.231 23.135-104.04 26.103-141.09 5.9982z" transform="translate(0,-410)" fill="#f9f9f9"/>
 <path id="path3013" stroke-linejoin="round" d="m1337.9 1026.2c-23.93-46.825-16.804-127.31 13.023-147.11 17.003-11.285 20.686-10.74 36.881 5.4555 22.704 22.704 25.47 107.59 4.483 137.55-16.172 23.089-43.625 25.159-54.387 4.1004z" transform="translate(0,-410)" fill="#f9f9f9"/>
 <path id="path3015" stroke-linejoin="round" d="m1246.3 832.79c-56.482-16.911-83.026-73.39-57.185-121.67 30.148-56.332 185.97-56.927 215.99-0.82448 43.57 81.411-51.392 154.66-158.81 122.5z" transform="translate(0,-410)" fill="#f9f9f9"/>
 <path id="path3017" stroke-linejoin="round" d="m974.65 832.64c-51.622-15.764-78.759-76.247-54.526-121.53 23.083-43.131 126.59-58.099 179.34-25.935 48.31 29.457 48.476 102.81 0.3024 134.38-26.364 17.274-89.704 23.898-125.12 13.085h-0.00003z" transform="translate(0,-410)" fill="#f9f9f9"/>
 <path id="path3019" stroke-linejoin="round" d="m698.3 832.55c-56.638-16.475-82.255-72.146-55.878-121.43 30.148-56.332 185.97-56.927 215.99-0.82448 43.868 81.969-50.611 154.11-160.12 122.26z" transform="translate(0,-410)" fill="#f9f9f9"/>
 <path id="path3023" stroke-linejoin="round" d="m512 330.44v-122.17h47.729 47.729v69.424 69.424h177.9 177.9v-69.424-69.424h60.746 60.746v69.424 69.424h177.9 177.9v-69.424-69.424h47.729 47.729v122.35 122.35l-149.69-7.3661c-189.8-9.34-482.43-9.42-702.81-0.17l-171.39 7.18v-122.17z" transform="translate(0,-410)" fill="#f9f9f9"/>
</svg>
