<?xml version="1.0" standalone="no"?>
<!DOCTYPE svg PUBLIC "-//W3C//DTD SVG 1.1//EN" "http://www.w3.org/Graphics/SVG/1.1/DTD/svg11.dtd" >
<svg viewBox="0 -820 4096 4096">
  <g transform="matrix(1 0 0 -1 0 3276)">
   <path fill="currentColor"
d="M732 720q-10 127 -21.5 242t-23.5 216t-30 244t-42 327q-24 185 -42 332t-29 257q0 28 -2 50.5t-7 39.5q5 79 19 143.5t35 113.5q45 97 177 97q218 0 218 -347q0 -59 -3 -117.5t-9 -113.5q-6 -56 -16 -132.5t-23 -171.5q-13 -97 -22.5 -172.5t-14.5 -130.5
q-22 -160 -50 -380t-60 -497h-54zM766 392q45 0 85 -16t73 -48q68 -63 68 -149q0 -91 -62 -152q-31 -28 -72.5 -43.5t-91.5 -15.5q-52 3 -93 18.5t-70 44.5q-59 56 -59 148q0 87 63 149q63 64 159 64z" />
  </g>

</svg>
