<?xml version="1.0" standalone="no"?>
<!DOCTYPE svg PUBLIC "-//W3C//DTD SVG 1.1//EN" "http://www.w3.org/Graphics/SVG/1.1/DTD/svg11.dtd" >
<svg viewBox="0 -820 4096 4096">
  <g transform="matrix(1 0 0 -1 0 3276)">
   <path fill="currentColor"
d="M1880 421q-67 0 -125.5 12.5t-108.5 35.5q-49 24 -94.5 56t-85.5 72q-41 40 -90 95t-106 125q-14 -12 -41.5 -38.5t-67.5 -67.5q-41 -40 -78.5 -73t-70.5 -59t-75 -47.5t-89 -38.5q-48 -17 -102.5 -25.5t-113.5 -7.5q-113 2 -210 50q-48 22 -89 54t-75 71q-32 40 -58 85
t-44 93q-34 99 -32 205q1 74 15.5 140t40.5 123q55 117 165 184q110 68 266 67q53 -1 104 -13.5t101 -36.5q49 -23 96 -59t89 -82q42 -47 78.5 -101.5t66.5 -117.5q33 36 67.5 74.5t70.5 78.5t75.5 77t81.5 72q41 35 91.5 63t107.5 50q58 23 121.5 33.5t132.5 9.5
q172 -5 295 -86q61 -40 107 -93t77 -119q60 -133 57 -289q-9 -243 -146 -403q-137 -161 -404 -169zM1335 893q177 -227 502 -250q210 11 349 101q138 92 141 273q3 144 -102 234q-106 92 -286 95q-49 -1 -91.5 -8.5t-78.5 -22.5q-35 -15 -78.5 -46.5t-92.5 -79.5
q-51 -47 -116.5 -121t-146.5 -175zM1086 1041q-184 276 -492 282q-111 2 -195 -40q-84 -43 -126 -116q-22 -36 -33.5 -78t-12.5 -87q-3 -134 88 -220q45 -43 105.5 -68t134.5 -32q86 7 157 32.5t128 69.5q113 88 246 257z" />
  </g>

</svg>
