<?xml version="1.0" standalone="no"?>
<!DOCTYPE svg PUBLIC "-//W3C//DTD SVG 1.1//EN" "http://www.w3.org/Graphics/SVG/1.1/DTD/svg11.dtd" >
<svg viewBox="0 -820 4096 4096">
  <g transform="matrix(1 0 0 -1 0 3276)">
   <path fill="currentColor"
d="M1536 2591q-123 0 -239.5 -24.5t-224 -70t-202.5 -110t-176.5 -145.5t-146 -176.5t-110 -202.5t-69.5 -223.5t-24 -240.5q0 -123 24 -239.5t69.5 -223.5t110 -202.5t146 -176.5t176.5 -146t202.5 -110t224 -69.5t239.5 -24.5t239.5 24.5t224 69.5t202.5 110t176.5 146
t146 176.5t110 202.5t69.5 223.5t24 239.5q0 124 -24 240.5t-69.5 223.5t-110 202.5t-146 176.5t-176.5 145.5t-202.5 110t-224 70t-239.5 24.5zM1536 2798q145 0 282 -28.5t262.5 -81.5t237.5 -129t207 -171t171 -207.5t129.5 -238t82 -262.5t28.5 -282q0 -144 -28.5 -281
t-82 -262.5t-129.5 -238t-171 -207.5t-207 -171t-237.5 -129t-262.5 -81t-282 -28t-282 28t-262.5 81t-237.5 129t-207 171t-171 207.5t-129.5 238t-82 262.5t-28.5 281q0 145 28.5 282t82 262.5t129.5 238t171 207.5t207 171t237.5 129t262.5 81.5t282 28.5zM1433 1498v893
h206v-893h885v-200h-885v-892h-206v892h-885v200h885z" />
  </g>

</svg>
