<?xml version="1.0" standalone="no"?>
<!DOCTYPE svg PUBLIC "-//W3C//DTD SVG 1.1//EN" "http://www.w3.org/Graphics/SVG/1.1/DTD/svg11.dtd" >
<svg viewBox="0 -820 4096 4096">
  <g transform="matrix(1 0 0 -1 0 3276)">
   <path fill="currentColor"
d="M2242 736q0 61 32 92.5t94 31.5q61 0 92.5 -31.5t31.5 -92.5q0 -62 -31.5 -94t-92.5 -32q-126 0 -126 126zM1710 736q0 61 31.5 92.5t94.5 31.5q61 0 92.5 -31.5t31.5 -92.5q0 -62 -31.5 -94t-92.5 -32q-126 0 -126 126zM385 1298q0 -98 37.5 -185.5t102.5 -152.5
t152.5 -102.5t185.5 -37.5q100 0 187 37.5t151.5 102.5t102.5 152.5t38 185.5q0 100 -38 187t-102.5 151.5t-151.5 102.5t-187 38q-98 0 -185.5 -38t-152.5 -102.5t-102.5 -151.5t-37.5 -187zM178 1298q0 142 54 267t147 218t218 147t266 54q142 0 267 -54t218 -147
t147 -218t54 -267q0 -141 -54 -266t-147 -218t-218 -147t-267 -54q-141 0 -266 54t-218 147t-147 218t-54 266zM2884 1298q0 -98 37.5 -185.5t102.5 -152.5t152 -102.5t186 -37.5t186 37.5t152 102.5t102.5 152.5t37.5 185.5q0 100 -37.5 187t-102.5 151.5t-152 102.5
t-186 38t-186 -38t-152 -102.5t-102.5 -151.5t-37.5 -187zM2676 1298q0 142 54 267t147 218t218 147t267 54t267 -54t218 -147t147 -218t54 -267q0 -141 -54 -266t-147 -218t-218 -147t-267 -54t-267 54t-218 147t-147 218t-54 266z" />
  </g>

</svg>
