<?xml version="1.0" encoding="UTF-8" standalone="no"?>
<!-- Created with Inkscape (http://www.inkscape.org/) -->

<svg
   xmlns:dc="http://purl.org/dc/elements/1.1/"
   xmlns:cc="http://creativecommons.org/ns#"
   xmlns:rdf="http://www.w3.org/1999/02/22-rdf-syntax-ns#"
   xmlns:svg="http://www.w3.org/2000/svg"
   xmlns="http://www.w3.org/2000/svg"
   version="1.1"
   width="100%"
   height="100%"
   viewBox="0 -820 4096 4096"
   id="svg2">
  <metadata
     id="metadata12">
    <rdf:RDF>
      <cc:Work
         rdf:about="">
        <dc:format>image/svg+xml</dc:format>
        <dc:type
           rdf:resource="http://purl.org/dc/dcmitype/StillImage" />
        <dc:title></dc:title>
      </cc:Work>
    </rdf:RDF>
  </metadata>
  <defs
     id="defs10" />
  <g
     transform="matrix(1,0,0,-1,-34.711864,2980.9492)"
     id="g4">
    <path
       d="m 1024,0 q 99,0 186,37 87,37 152,102 65,65 102.5,152 37.5,87 37.5,186 0,99 -37.5,186 -37.5,87 -102.5,152 -65,65 -152,103 -87,38 -186,38 -99,0 -186,-38 Q 751,880 686,815 621,750 583.5,663 546,576 546,477 546,378 583.5,291 621,204 686,139 751,74 838,37 925,0 1024,0 z m 0,-207 q -142,0 -267,54 Q 632,-99 539,-6.5 446,86 392,210.5 338,335 338,477 q 0,142 54,266.5 54,124.5 147,218 93,93.5 218,147.5 125,54 267,54 142,0 267,-54 125,-54 218,-147.5 93,-93.5 147,-218 Q 1710,619 1710,477 1710,335 1656,210.5 1602,86 1509,-6.5 1416,-99 1291,-153 q -125,-54 -267,-54 z m 0,2805 q -99,0 -186,-37.5 Q 751,2523 686,2458 621,2393 583.5,2306 546,2219 546,2120 q 0,-99 37.5,-186.5 37.5,-87.5 102.5,-152 65,-64.5 152,-102.5 87,-38 186,-38 99,0 186,38 87,38 152,102.5 65,64.5 102.5,152 37.5,87.5 37.5,186.5 0,99 -37.5,186 -37.5,87 -102.5,152 -65,65 -152,102.5 -87,37.5 -186,37.5 z m 0,207 q 142,0 267,-54 125,-54 218,-147 93,-93 147,-218 54,-125 54,-266 0,-142 -54,-267 -54,-125 -147,-218 -93,-93 -218,-147 -125,-54 -267,-54 -142,0 -267,54 -125,54 -218,147 -93,93 -147,218 -54,125 -54,267 0,141 54,266 54,125 147,218 93,93 218,147 125,54 267,54 z"
       id="path6"
       style="fill:currentColor" />
  </g>
</svg>
