<?xml version="1.0" standalone="no"?>
<!DOCTYPE svg PUBLIC "-//W3C//DTD SVG 1.1//EN" "http://www.w3.org/Graphics/SVG/1.1/DTD/svg11.dtd" >
<svg viewBox="0 -820 4096 4096">
  <g transform="matrix(1 0 0 -1 0 3276)">
   <path fill="currentColor"
d="M945 686q8 198 56 356q24 78 63.5 189.5t91.5 254.5q53 144 88 257.5t51 195.5q8 58 12.5 106.5t4.5 86.5q0 172 -66 289q-33 58 -75 102.5t-92 72.5q-50 29 -103.5 44t-107.5 15q-69 0 -135 -18.5t-128 -54.5q-125 -73 -125 -181q0 -38 19 -70q21 -31 61 -75
q21 -22 36.5 -42t25.5 -37q11 -16 16.5 -36t5.5 -43q0 -82 -42 -111q-41 -30 -139 -57q-207 16 -207 254q0 93 25 174t74 147q50 66 115 116.5t144 83.5q159 70 343 77q112 0 260 -50q148 -49 237 -106q242 -172 242 -544q-4 -65 -21.5 -131t-47.5 -132t-65 -124.5
t-74 -110.5q-38 -53 -89.5 -118t-115.5 -143q-111 -136 -178.5 -295.5t-90.5 -341.5h-69zM990 415q92 0 159 -66t67 -159q0 -90 -67 -157q-66 -65 -159 -65q-45 0 -84 16.5t-72 49.5q-33 32 -49.5 72t-16.5 84q0 93 65 159t157 66z" />
  </g>

</svg>
