<?xml version="1.0" standalone="no"?>
<!DOCTYPE svg PUBLIC "-//W3C//DTD SVG 1.1//EN" "http://www.w3.org/Graphics/SVG/1.1/DTD/svg11.dtd" >
<svg viewBox="0 -820 4096 4096">
  <g transform="matrix(1 0 0 -1 0 3276)">
   <path fill="currentColor"
d="M2938 1398q-1 -144 -30 -281t-82 -262.5t-129 -238t-171.5 -207.5t-207.5 -171t-237.5 -129t-262.5 -81t-282 -28t-282 28t-262.5 81t-237.5 129t-207 171t-171 207.5t-129.5 238t-82 262.5t-28.5 281q0 145 28.5 282t82 262.5t129.5 238t171 207.5t207 171t237.5 129
t262.5 81.5t282 28.5t283 -29t265 -82.5t240.5 -130t210.5 -171.5l256 198l-75 -606l-605 74l254 199q-79 79 -173 142.5t-199.5 107.5t-220.5 67.5t-236 23.5q-123 0 -239.5 -24.5t-224 -70t-202.5 -110t-176.5 -145.5t-146 -176.5t-110 -202.5t-69.5 -223.5t-24 -240.5
q0 -123 24 -239.5t69.5 -223.5t110 -202.5t146 -176.5t176.5 -146t202.5 -110t224 -69.5t239.5 -24.5t239.5 24.5t224 69.5t202.5 110t176.5 146t146 176.5t110 202.5t70 223.5t24.5 239.5h209z" />
  </g>

</svg>
