<?xml version="1.0" standalone="no"?>
<!DOCTYPE svg PUBLIC "-//W3C//DTD SVG 1.1//EN" "http://www.w3.org/Graphics/SVG/1.1/DTD/svg11.dtd" >
<svg viewBox="0 -820 4096 4096">
  <g transform="matrix(1 0 0 -1 0 3276)">
   <path fill="currentColor"
d="M1757 1248q-67 1 -125.5 13.5t-108.5 35.5q-49 23 -94.5 55t-85.5 72q-41 40 -90 95t-105 125q-14 -11 -42 -38t-68 -68q-40 -40 -77.5 -73t-70.5 -58q-34 -26 -75.5 -47.5t-89.5 -39.5q-48 -17 -102 -25t-113 -7q-113 1 -210 49q-49 23 -89.5 54.5t-74.5 71.5
q-33 40 -58.5 84.5t-43.5 93.5q-34 98 -32 205q1 73 15.5 139t40.5 124q54 116 164 184q111 68 267 67q52 -1 103 -14t101 -36q50 -24 96.5 -59.5t89.5 -81.5q42 -47 78.5 -102t66.5 -118q32 36 67 74.5t71 78.5t75 77.5t81 71.5q42 35 92.5 63.5t107.5 50.5t120.5 33
t133.5 10q171 -5 294 -86q62 -40 108 -93.5t76 -119.5q61 -133 58 -288q-10 -243 -146 -404q-137 -160 -405 -169zM1212 1721q178 -228 503 -251q209 12 348 102q139 91 142 272q2 144 -103 235q-106 91 -286 95q-49 -1 -91.5 -9t-77.5 -23q-36 -15 -79 -46.5t-93 -78.5
q-50 -48 -116 -122t-147 -174zM963 1868q-183 276 -492 282q-110 2 -194 -40q-84 -43 -126 -115q-22 -37 -34 -78.5t-13 -86.5q-2 -134 89 -221q45 -43 105 -68t135 -31q85 6 156.5 32t127.5 69q114 88 246 257zM79 206h2153v-206h-2153v206zM79 820h2153v-207h-2153v207z
" />
  </g>

</svg>
