<?xml version="1.0" standalone="no"?>
<!DOCTYPE svg PUBLIC "-//W3C//DTD SVG 1.1//EN" "http://www.w3.org/Graphics/SVG/1.1/DTD/svg11.dtd" >
<svg viewBox="0 -820 4096 4096">
  <g transform="matrix(1 0 0 -1 0 3276)">
   <path fill="currentColor"
d="M79 1588v208h2153v-208h-2153zM79 2202v208h2153v-208h-2153zM963 620q-183 276 -492 282q-110 2 -194 -40q-84 -43 -126 -116q-22 -36 -34 -78t-13 -87q-2 -134 89 -221q45 -42 105 -67.5t135 -31.5q85 6 156.5 32t127.5 70q114 88 246 257zM1212 472q178 -227 503 -250
q209 11 348 101q139 92 142 273q2 144 -103 234q-106 92 -286 95q-49 -1 -91.5 -9t-77.5 -22q-36 -15 -79 -46.5t-93 -79.5t-116 -121.5t-147 -174.5zM1757 0q-67 0 -125.5 12.5t-108.5 35.5q-49 24 -94.5 56t-85.5 72q-41 40 -90 95t-105 125q-14 -12 -42 -38.5t-68 -67.5
t-77.5 -73.5t-70.5 -58.5q-34 -26 -75.5 -47.5t-89.5 -38.5t-102 -25.5t-113 -7.5q-113 2 -210 49q-49 23 -89.5 55t-74.5 71q-33 40 -58.5 85t-43.5 93q-34 99 -32 205q1 74 15.5 140t40.5 123q54 117 164 184q111 68 267 67q52 -1 103 -13.5t101 -36.5q50 -23 96.5 -59
t89.5 -82q42 -47 78.5 -101.5t66.5 -117.5q32 36 67 74.5t71 78.5t75 77t81 72t92.5 63t107.5 50q57 23 120.5 33.5t133.5 9.5q171 -5 294 -86q62 -40 108 -93t76 -119q61 -133 58 -289q-10 -243 -146 -403q-137 -161 -405 -169z" />
  </g>

</svg>
