<?xml version="1.0" encoding="UTF-8" standalone="no"?>
<svg
   xmlns:dc="http://purl.org/dc/elements/1.1/"
   xmlns:cc="http://creativecommons.org/ns#"
   xmlns:rdf="http://www.w3.org/1999/02/22-rdf-syntax-ns#"
   xmlns:svg="http://www.w3.org/2000/svg"
   xmlns="http://www.w3.org/2000/svg"
   xmlns:sodipodi="http://sodipodi.sourceforge.net/DTD/sodipodi-0.dtd"
   xmlns:inkscape="http://www.inkscape.org/namespaces/inkscape"
   version="1.0"
   width="300.000000pt"
   height="300.000000pt"
   viewBox="0 0 300.000000 300.000000"
   preserveAspectRatio="xMidYMid meet"
   id="svg2"
   inkscape:version="0.92.2 (5c3e80d, 2017-08-06)"
   sodipodi:docname="bb.svg">
  <defs
     id="defs12" />
  <sodipodi:namedview
     pagecolor="#ffffff"
     bordercolor="#666666"
     borderopacity="1"
     objecttolerance="10"
     gridtolerance="10"
     guidetolerance="10"
     inkscape:pageopacity="0"
     inkscape:pageshadow="2"
     inkscape:window-width="1511"
     inkscape:window-height="947"
     id="namedview10"
     showgrid="false"
     inkscape:zoom="1.4779572"
     inkscape:cx="170.00564"
     inkscape:cy="232.53913"
     inkscape:window-x="7"
     inkscape:window-y="45"
     inkscape:window-maximized="0"
     inkscape:current-layer="svg2"
     inkscape:pagecheckerboard="true"
     showguides="false" />
  <metadata
     id="metadata4">
Created by potrace 1.12, written by Peter Selinger 2001-2015
<rdf:RDF>
  <cc:Work
     rdf:about="">
    <dc:format>image/svg+xml</dc:format>
    <dc:type
       rdf:resource="http://purl.org/dc/dcmitype/StillImage" />
    <dc:title />
  </cc:Work>
</rdf:RDF>
</metadata>
  <path
     style="font-style:normal;font-variant:normal;font-weight:normal;font-stretch:normal;font-size:300px;line-height:1.25;font-family:'Chess Leipzig';-inkscape-font-specification:'Chess Leipzig, Normal';font-variant-ligatures:normal;font-variant-caps:normal;font-variant-numeric:normal;text-align:start;letter-spacing:0px;word-spacing:0px;writing-mode:lr-tb;text-anchor:start;fill:#ffffff;fill-opacity:1;stroke:none;stroke-width:0.75"
     d="M 144.64844,1.2441406 C 125.54978,1.4038952 111.63284,22.778105 116.39648,40.447266 84.079461,59.579103 64.445751,100.06288 73.901828,137.11327 c 3.546553,17.5932 13.037947,33.10487 19.848172,49.50196 -3.462084,11.55425 -8.962938,22.86743 -8.972656,35.17774 -28.256535,-9.99417 -62.393263,-2.71707 -83.3496096,18.87305 -7.3942756,9.44063 -7.9090063,25.5237 2.46875,32.97656 0.221723,13.90455 15.0810566,26.7699 28.8183596,21.4668 9.58682,-3.08841 15.040616,-14.61601 25.603515,-14.83399 14.677824,1.85965 25.900829,14.18648 40.982422,14.69336 16.485649,3.2846 34.815579,2.58869 49.296879,-6.78906 21.17696,13.17401 48.58451,9.9919 70.46484,0.36523 8.39193,-4.5585 19.19162,-12.01664 28.56641,-5.65234 7.65459,5.35703 14.86049,15.11154 25.4414,13.22265 11.42962,-0.73959 20.63803,-11.62803 20.61914,-22.77148 11.70314,-8.30149 9.94736,-27.24112 -0.74609,-35.66797 -12.81324,-12.41289 -30.85373,-17.61878 -48.03711,-20.27539 -10.44541,-1.04663 -21.89604,1.67511 -31.18164,3.64844 0.20811,-12.59337 -8.07043,-23.31867 -8.94531,-35.7168 7.18805,-10.63664 14.07445,-21.61435 18.02929,-33.94726 C 234.52608,117.66655 230.88805,78.410779 211.16016,48.386719 221.57398,29.921753 208.19419,1.9502661 186.11719,1.625 178.9416,0.80893479 171.55799,2.8485141 165.33398,5.9902344 159.1828,2.2137796 151.77639,0.98060223 144.64844,1.2441406 Z"
     id="text6349"
     inkscape:connector-curvature="0" />
  <g
     aria-label="v"
     style="font-style:normal;font-variant:normal;font-weight:normal;font-stretch:normal;font-size:300px;line-height:1.25;font-family:'Chess Leipzig';-inkscape-font-specification:'Chess Leipzig, Normal';font-variant-ligatures:normal;font-variant-caps:normal;font-variant-numeric:normal;text-align:start;letter-spacing:0px;word-spacing:0px;writing-mode:lr-tb;text-anchor:start;fill:#000000;fill-opacity:1;stroke:none;stroke-width:0.75"
     id="text817">
    <path
       d="m 167.91543,257.71036 q -2.34375,-1.46485 -6.5918,-6.15235 -0.73242,-0.73242 -1.46484,-1.31836 -0.73243,-0.73242 -1.46485,-1.61132 -1.17187,-0.73243 -2.34375,-0.73243 -7.61719,0 -5.71289,5.7129 0.87891,1.31835 0.73242,1.17187 1.02539,1.02539 7.03125,6.5918 2.78321,2.63672 5.27344,3.80859 1.31836,0.87891 2.63672,0.87891 4.39453,0 4.39453,-4.39453 0,-1.75782 -2.49023,-3.95508 z m 11.13281,-74.56055 -2.63672,-10.10742 q -11.57227,-3.22266 -27.68555,-3.22266 -14.79492,0 -26.51367,2.92969 l -2.92969,10.10742 q 12.74414,-3.36914 29.44336,-3.36914 17.8711,0 30.32227,3.66211 z m -15.9668,15.9668 -14.20898,5.85937 -14.0625,-5.85937 14.0625,-5.85938 z m 16.55274,-7.61719 q -12.45118,-3.36914 -30.46875,-3.36914 -16.84571,0 -29.73633,3.07617 l -2.05078,5.71289 12.45117,2.78321 -12.89063,8.20312 -2.7832,-0.58594 -3.51562,10.54688 q 3.07617,-3.22266 13.91601,-5.41992 10.83985,-2.19727 25.04883,-2.19727 13.91602,0 24.60937,2.19727 10.83985,2.19726 14.0625,5.27343 l -3.6621,-10.54687 -3.66211,0.73242 -12.89063,-8.20312 13.18359,-2.78321 z m -4.83399,-76.61133 V 98.481842 H 157.22207 V 75.63028 H 140.9623 v 22.851562 h -17.87109 v 16.406248 h 17.87109 v 32.66602 h 16.25977 v -32.66602 z m -45.55664,142.82227 q -1.61133,1.61133 -1.61133,3.66211 0,4.39453 4.39453,4.39453 1.31836,0 2.34375,-0.73242 2.49024,-1.31836 4.83399,-3.66211 5.27344,-4.98047 7.32422,-6.73828 0.29297,-0.29297 0.29297,-1.02539 0,-5.7129 -5.71289,-5.7129 -1.02539,0 -1.9043,0.87891 -1.31836,1.31836 -3.22266,2.7832 -1.75781,1.31836 -3.22265,3.07618 -1.31836,1.61132 -3.51563,3.07617 z M 203.8041,124.11661 q 2.05078,-7.91016 -4.54102,-29.443362 -6.59179,-21.533203 -20.50781,-36.035156 -1.75781,-1.318359 -3.66211,-1.171875 -2.49023,0.146484 -4.6875,2.050781 -2.19726,1.904297 -0.58594,4.541016 17.13868,11.279297 25.63477,31.347656 8.49609,19.92188 8.34961,28.71094 z m -55.07813,139.01367 q -10.83984,15.67383 -29.29687,15.67383 -1.9043,0 -3.8086,-0.14649 -1.75781,-0.29297 -3.51562,-0.43945 -4.24805,-0.14648 -12.451172,-1.46484 -8.203125,-1.46485 -18.310547,-6.5918 -8.935547,-7.76367 -22.705078,-7.76367 -10.546875,0 -18.310547,4.98047 -2.197266,1.02539 -5.419922,4.24804 -5.859375,6.29883 -9.521484,6.88477 -2.929688,-1.46484 -3.076172,-4.98047 -0.732422,-6.88477 10.107422,-17.72461 -1.904297,0.29297 -7.177735,1.75781 -4.394531,1.31836 -5.859375,1.31836 -4.833984,0.73242 -5.126953,0.14649 -1.611328,-1.61133 1.171875,-6.5918 2.34375,-4.24805 9.082031,-7.4707 0.878907,-0.43946 5.566407,-2.49024 13.623047,-7.17773 28.564453,-7.17773 21.826172,0 39.404297,14.79492 7.03125,2.34375 14.20898,2.34375 21.97266,0 22.70508,-18.16406 -14.20898,-1.31836 -23.73047,-4.83399 -9.375,-3.51562 -9.375,-8.20312 l 11.71875,-38.96485 q -10.2539,-16.11328 -16.992184,-32.8125 -6.738281,-16.69921 -6.738281,-31.64062 0,-44.824219 48.632815,-68.847657 0,-1.904297 0.43945,-5.71289 -4.98047,-4.101563 -4.98047,-10.400391 0,-13.476562 13.62305,-13.476562 13.47656,0 13.47656,13.476562 0,5.859375 -4.24805,9.814453 0,4.541016 1.17188,6.152344 2.49023,3.515625 6.5918,3.662109 4.24804,-0.146484 7.03125,-3.808593 0.58593,-0.878907 1.17187,-5.419922 -3.80859,-3.955078 -3.80859,-9.814453 0,-13.769532 13.76953,-13.769532 13.76953,0 13.76953,13.769532 0,7.763671 -6.73828,12.011718 -0.58594,2.929688 -0.29297,4.6875 24.75586,29.296875 21.5332,67.675782 -1.02539,10.98633 -3.36914,21.67969 -2.34375,10.54687 -8.20312,19.92187 -2.19727,4.98047 -6.88477,11.2793 -4.54101,6.15234 -7.91015,11.57226 l 11.57226,38.96485 q -0.14648,4.6875 -9.66797,8.20312 -9.52148,3.51563 -24.02344,4.83399 0.73243,18.16406 22.85157,18.16406 7.17773,0 14.20898,-2.34375 17.43164,-14.79492 39.4043,-14.79492 14.9414,0 28.41797,7.17773 1.75781,0.87891 3.07617,1.46485 1.31836,0.58593 2.63672,1.02539 6.59179,3.36914 9.08203,7.4707 0.43945,1.31836 1.31836,3.36914 0.8789,2.05078 -0.14649,3.22266 -0.43945,0.58593 -5.12695,-0.14649 -1.46484,0 -5.85937,-1.31836 -5.41993,-1.46484 -7.32422,-1.75781 10.83984,10.98633 10.2539,17.72461 -0.29297,3.36914 -3.22265,4.98047 -3.66211,-0.58594 -9.52149,-6.88477 -2.92968,-2.92968 -5.27343,-4.24804 -8.20313,-4.98047 -18.31055,-4.98047 -14.0625,0 -22.85156,7.76367 -10.10743,5.12695 -18.31055,6.5918 -8.20313,1.31836 -12.30469,1.46484 -1.75781,0.14648 -3.66211,0.43945 -1.90429,0.14649 -3.66211,0.14649 -18.89648,0 -29.44336,-15.67383 z"
       style="font-size:300px;stroke-width:0.75"
       id="path814" />
  </g>
</svg>
