<?xml version="1.0" encoding="UTF-8" standalone="no"?>
<svg
   xmlns:dc="http://purl.org/dc/elements/1.1/"
   xmlns:cc="http://creativecommons.org/ns#"
   xmlns:rdf="http://www.w3.org/1999/02/22-rdf-syntax-ns#"
   xmlns:svg="http://www.w3.org/2000/svg"
   xmlns="http://www.w3.org/2000/svg"
   xmlns:sodipodi="http://sodipodi.sourceforge.net/DTD/sodipodi-0.dtd"
   xmlns:inkscape="http://www.inkscape.org/namespaces/inkscape"
   version="1.0"
   width="300.000000pt"
   height="300.000000pt"
   viewBox="0 0 300.000000 300.000000"
   preserveAspectRatio="xMidYMid meet"
   id="svg2"
   inkscape:version="0.92.2 (5c3e80d, 2017-08-06)"
   sodipodi:docname="bk.svg">
  <defs
     id="defs12" />
  <sodipodi:namedview
     pagecolor="#ffffff"
     bordercolor="#666666"
     borderopacity="1"
     objecttolerance="10"
     gridtolerance="10"
     guidetolerance="10"
     inkscape:pageopacity="0"
     inkscape:pageshadow="2"
     inkscape:window-width="1511"
     inkscape:window-height="947"
     id="namedview10"
     showgrid="false"
     inkscape:zoom="1.4779572"
     inkscape:cx="59.778597"
     inkscape:cy="232.53913"
     inkscape:window-x="7"
     inkscape:window-y="45"
     inkscape:window-maximized="0"
     inkscape:current-layer="svg2"
     inkscape:pagecheckerboard="true"
     showguides="false" />
  <metadata
     id="metadata4">
Created by potrace 1.12, written by Peter Selinger 2001-2015
<rdf:RDF>
  <cc:Work
     rdf:about="">
    <dc:format>image/svg+xml</dc:format>
    <dc:type
       rdf:resource="http://purl.org/dc/dcmitype/StillImage" />
    <dc:title />
  </cc:Work>
</rdf:RDF>
</metadata>
  <path
     style="font-style:normal;font-variant:normal;font-weight:normal;font-stretch:normal;font-size:300px;line-height:1.25;font-family:'Chess Leipzig';-inkscape-font-specification:'Chess Leipzig, Normal';font-variant-ligatures:normal;font-variant-caps:normal;font-variant-numeric:normal;text-align:start;letter-spacing:0px;word-spacing:0px;writing-mode:lr-tb;text-anchor:start;fill:#feffff;fill-opacity:1;stroke:none;stroke-width:0.75"
     d="m 105.53125,18.761719 c -0.18805,11.846588 0.25237,23.695966 -0.0703,35.541015 C 78.030922,44.122221 43.592327,48.658973 23.644531,71.392578 5.831288,90.548069 0.72798386,119.91035 10.306641,144.1582 c 5.894071,18.14764 16.423259,35.01786 31.189453,47.2461 -0.601886,9.11521 5.989437,16.80954 6.720703,25.38672 -0.303301,6.56853 1.869085,13.17769 3.990234,19.03515 -5.883646,14.86506 0.383328,33.36475 14.50586,41.09571 25.282662,17.0681 57.112709,18.68545 86.642519,19.39967 28.63865,-0.36228 58.76331,-5.83417 82.32868,-23.01198 10.18809,-9.1675 14.66982,-25.00567 8.94482,-37.75684 5.28078,-7.12738 3.23003,-16.63967 5.36132,-24.48046 3.94683,-6.08018 4.108,-13.96966 6.72071,-20.23243 23.63039,-20.83868 37.81012,-53.32546 33.90234,-84.9082 -5.15399,-29.797536 -31.91331,-55.902381 -62.89964,-55.986053 -12.20514,-1.223663 -24.72475,-0.293943 -36.17067,4.374725 0.0207,-12.517364 -0.36448,-25.102236 0.19336,-37.558593 h -86.20508 v 1 z"
     id="text6371"
     inkscape:connector-curvature="0"
     sodipodi:nodetypes="cccccccccccccccccccc" />
  <g
     aria-label="l"
     style="font-style:normal;font-variant:normal;font-weight:normal;font-stretch:normal;font-size:300px;line-height:1.25;font-family:'Chess Leipzig';-inkscape-font-specification:'Chess Leipzig, Normal';font-variant-ligatures:normal;font-variant-caps:normal;font-variant-numeric:normal;text-align:start;letter-spacing:0px;word-spacing:0px;writing-mode:lr-tb;text-anchor:start;fill:#000000;fill-opacity:1;stroke:none;stroke-width:0.75"
     id="text817">
    <path
       d="m 193.84316,214.49747 12.30469,9.52148 15.38086,-5.27344 -12.15821,-9.52148 z m 36.18164,-2.49024 q 1.02539,3.07617 1.02539,5.85938 0,8.64258 -6.29883,13.33008 -0.58593,2.49023 -0.8789,4.98046 5.41992,7.61719 5.41992,12.30469 0,12.30469 -23.73047,21.09375 -23.73047,8.78906 -56.98242,8.78906 -33.39844,0 -57.128907,-8.78906 -23.583985,-8.78906 -23.583985,-21.09375 0,-4.83398 5.712891,-12.59765 -0.292969,-1.61133 -0.878906,-4.54102 -6.445313,-4.6875 -6.445313,-13.47656 0,-2.78321 0.878907,-5.71289 1.464843,-3.66211 -0.585938,-5.71289 -2.050781,-2.05078 -4.6875,-5.71289 -2.34375,-7.32422 -2.34375,-10.10743 0.146484,-1.31836 0.439453,-2.92968 0.439453,-1.61133 0.439453,-3.8086 -6.445312,-6.44531 -13.476562,-12.1582 -6.884766,-5.85938 -10.839844,-14.0625 -4.6875,-9.66797 -8.642578,-19.48242 -3.808594,-9.96094 -3.808594,-19.48242 0,-18.01758 9.521485,-30.468754 9.521484,-12.451172 25.78125,-19.482422 21.679687,-1.464844 18.310546,-1.464844 25.488282,0 46.289062,18.896485 V 34.761139 h 49.95117 v 51.5625 q 20.80078,-19.042969 46.58203,-19.042969 -3.66211,0 18.31055,1.464844 15.9668,7.03125 25.48828,19.482422 9.66797,12.451174 9.66797,30.468754 0,9.52148 -3.95508,19.33593 -3.80859,9.81446 -8.34961,19.48243 -3.95507,8.3496 -10.98632,14.50195 -7.03125,6.15234 -13.33008,12.30469 -0.14649,1.75781 0.14648,3.36914 0.43945,1.61132 0.58594,2.92968 0.14648,2.05079 -2.34375,10.10743 -2.63672,3.66211 -4.6875,5.71289 -1.9043,2.05078 -0.58594,5.5664 z m -20.21484,42.04102 q -0.58594,-3.22266 -2.05078,-7.03125 -1.61133,-3.51563 -3.36914,-4.6875 -1.61133,-1.31836 -2.92969,-3.36914 -14.79492,-9.375 -52.58789,-8.34961 -38.37891,-1.02539 -53.027346,8.34961 -1.757812,1.75781 -3.515625,3.07617 -1.611328,1.31836 -2.783203,4.83398 -1.611328,3.66211 -2.050781,7.17774 -0.292969,4.6875 4.101562,4.6875 4.248047,0 4.101563,-4.54102 1.318359,-14.64843 52.58789,-14.64843 51.70898,0 53.17383,14.64843 -0.29297,4.54102 4.10156,4.54102 4.24805,0 4.24805,-4.6875 z m -45.11719,-86.42578 q 1.9043,0 3.80859,0.29297 1.9043,0.14648 3.66211,0.14648 -1.17187,-13.33008 1.17188,-21.82617 0.8789,-3.22266 3.22265,-3.51563 3.36915,-0.58593 4.83399,3.66211 1.17187,7.03125 -2.34375,22.41211 5.85937,1.02539 8.64258,1.02539 0.8789,-22.55859 6.88476,-35.88867 1.75782,-3.51562 5.85938,-3.51562 4.98047,0 4.6875,4.83398 0.29297,0.29297 0.29297,4.54102 0,7.4707 -8.34961,31.78711 4.24804,1.46484 7.32422,1.17187 1.61132,-4.24805 3.22265,-8.93555 1.75781,-4.83398 4.39453,-10.2539 1.17188,-2.78321 3.36914,-2.78321 2.49024,0 3.07618,4.83399 0.14648,4.10156 -8.64258,18.75 3.66211,1.75781 7.32422,1.9043 1.75781,-3.51563 3.22265,-6.5918 1.61133,-3.07617 3.36914,-7.91016 3.22266,-9.375 2.63672,-17.87109 -1.17187,-5.12695 -5.71289,-5.12695 -2.19726,0 -5.41992,3.51562 0.73242,-4.6875 0.73242,-5.85937 0,-6.15235 -3.07617,-11.57227 -2.92969,-5.56641 -10.10742,-7.61719 -5.27344,0.29297 -10.98633,6.44531 -5.71289,6.15235 -7.61719,14.50196 -1.61133,-5.12696 -4.24804,-5.85938 -2.63672,-0.73242 -3.51563,-0.73242 -1.75781,0 -3.36914,1.02539 -5.85938,6.73828 -7.17773,20.50781 -0.43946,3.07618 -0.58594,6.00586 -0.14649,2.92969 -0.58594,8.4961 z m -32.66602,0.14648 q -0.43945,-5.41992 -0.58593,-8.34961 -0.14649,-2.92969 -0.43946,-6.00586 -1.75781,-14.0625 -7.17773,-20.50781 -1.46484,-1.02539 -3.51563,-1.02539 -0.8789,0 -3.6621,0.73242 -2.63672,0.73242 -3.95508,5.71289 -2.05078,-8.34961 -7.76367,-14.50195 -5.566411,-6.15234 -10.839848,-6.44531 -7.324219,2.19726 -10.253907,7.76367 -2.929687,5.41992 -2.929687,11.57226 0,2.78321 0.732422,5.85938 -3.515625,-3.66211 -5.419922,-3.66211 -4.6875,0 -5.712891,5.27344 -0.732422,9.08203 2.636719,17.72461 1.611328,4.83398 3.076172,8.05664 1.611328,3.07617 3.515625,6.59179 3.515625,-0.14648 7.324219,-1.90429 -8.935547,-14.50196 -8.642579,-18.75 0.146485,-4.83399 2.929688,-4.83399 2.197266,0 3.515625,2.78321 2.490234,5.27343 4.101562,10.10742 1.757813,4.83398 3.515625,9.08203 3.515625,0 7.324219,-1.17188 -8.496094,-24.75586 -8.496094,-31.93359 0,-3.95508 0.292969,-4.39453 0,-4.98047 4.6875,-4.98047 4.101563,0 6.005863,3.66211 5.85937,13.33008 6.88476,35.88867 2.92969,-0.14648 8.4961,-1.02539 -3.51563,-15.67383 -2.19727,-22.41211 1.31836,-4.39453 4.6875,-3.80859 2.49023,0.58594 3.22266,3.51562 2.34375,9.22852 1.17187,21.97266 2.34375,-0.29297 7.4707,-0.58594 z m 16.55274,-82.177733 q -7.17774,0 -12.30469,5.126953 -5.12695,5.126953 -5.12695,12.30469 0,7.32422 5.12695,12.45117 5.12695,4.98047 12.30469,4.98047 17.43164,0 17.43164,-17.43164 0,-17.431643 -17.43164,-17.431643 z m 1.75781,-31.494141 q -0.8789,-0.439453 -1.75781,-0.439453 -1.61133,0 -2.34375,0.585938 l -9.375,-9.521485 h -3.36914 v 4.101563 l 9.22851,9.228516 q -0.43945,0.878906 -0.43945,1.904296 0,0.878907 0.43945,1.757813 l -9.22851,9.375 v 3.808594 h 3.36914 l 9.22851,-9.228516 q 1.0254,0.439453 2.49024,0.439453 1.17187,0 1.9043,-0.292969 l 9.22851,9.082032 h 3.95508 v -3.369141 l -9.375,-9.082031 q 0.43945,-1.025391 0.43945,-2.490235 0,-1.318359 -0.58593,-2.34375 l 9.52148,-9.375 v -3.515625 h -4.10156 z m 17.72461,155.859374 -19.77539,-9.375 -19.04297,9.375 19.77539,9.52149 z m -63.57422,4.54102 -15.527342,-5.27344 -12.158203,9.52148 15.38086,5.27344 z m 113.81836,-13.62305 q 6.5918,-0.73242 6.5918,-7.32422 0,-4.24805 -3.8086,-6.44531 -12.30468,-4.98047 -31.34765,-8.05664 -18.89649,-3.22266 -41.3086,-3.22266 -47.02148,0 -72.949214,11.57227 -3.222656,2.49023 -3.222656,6.15234 0,7.4707 7.470703,7.17774 26.074217,-9.81446 68.701167,-9.81446 43.2129,0 69.87305,9.96094 z M 122.65175,100.67911 Q 105.65957,82.66153 84.126364,82.66153 q -19.775391,0 -30.029297,13.183593 -6.591797,8.349607 -6.591797,22.705077 0,11.2793 3.222657,21.5332 0.146484,2.92969 3.662109,2.92969 3.515625,0 3.808594,-3.51562 -1.171875,-7.47071 -1.171875,-13.33008 0,-12.1582 5.71289,-19.18945 8.203125,-11.132817 25.488282,-11.132817 16.992183,0 31.787113,13.476567 2.92968,0 2.92968,-5.41993 0,-1.17187 -0.29297,-3.22265 z m 51.12305,0 q -0.29297,2.05078 -0.29297,3.22265 0,5.41993 2.92969,5.41993 14.64844,-13.476567 31.93359,-13.476567 16.99219,0 25.3418,11.132817 5.71289,7.03125 5.71289,19.18945 0,5.85937 -1.17187,13.33008 0.14648,3.51562 3.80859,3.51562 3.66211,0 3.66211,-2.92969 3.22266,-10.2539 3.22266,-21.5332 0,-14.35547 -6.5918,-22.705077 -10.40039,-13.183593 -30.0293,-13.183593 -21.67969,0 -38.52539,18.01758 z"
       style="font-size:300px;stroke-width:0.75"
       id="path814" />
  </g>
</svg>
