<?xml version="1.0" encoding="UTF-8" standalone="no"?>
<svg
   xmlns:dc="http://purl.org/dc/elements/1.1/"
   xmlns:cc="http://creativecommons.org/ns#"
   xmlns:rdf="http://www.w3.org/1999/02/22-rdf-syntax-ns#"
   xmlns:svg="http://www.w3.org/2000/svg"
   xmlns="http://www.w3.org/2000/svg"
   xmlns:sodipodi="http://sodipodi.sourceforge.net/DTD/sodipodi-0.dtd"
   xmlns:inkscape="http://www.inkscape.org/namespaces/inkscape"
   version="1.0"
   width="300.000000pt"
   height="300.000000pt"
   viewBox="0 0 300.000000 300.000000"
   preserveAspectRatio="xMidYMid meet"
   id="svg2"
   inkscape:version="0.92.2 (5c3e80d, 2017-08-06)"
   sodipodi:docname="bn.svg">
  <defs
     id="defs12" />
  <sodipodi:namedview
     pagecolor="#ffffff"
     bordercolor="#666666"
     borderopacity="1"
     objecttolerance="10"
     gridtolerance="10"
     guidetolerance="10"
     inkscape:pageopacity="0"
     inkscape:pageshadow="2"
     inkscape:window-width="1511"
     inkscape:window-height="947"
     id="namedview10"
     showgrid="false"
     inkscape:zoom="1.4779572"
     inkscape:cx="77.681607"
     inkscape:cy="232.53913"
     inkscape:window-x="7"
     inkscape:window-y="45"
     inkscape:window-maximized="0"
     inkscape:current-layer="svg2"
     inkscape:pagecheckerboard="true" />
  <metadata
     id="metadata4">
Created by potrace 1.12, written by Peter Selinger 2001-2015
<rdf:RDF>
  <cc:Work
     rdf:about="">
    <dc:format>image/svg+xml</dc:format>
    <dc:type
       rdf:resource="http://purl.org/dc/dcmitype/StillImage" />
    <dc:title />
  </cc:Work>
</rdf:RDF>
</metadata>
  <path
     style="font-style:normal;font-variant:normal;font-weight:normal;font-stretch:normal;font-size:300px;line-height:1.25;font-family:'Chess Leipzig';-inkscape-font-specification:'Chess Leipzig, Normal';font-variant-ligatures:normal;font-variant-caps:normal;font-variant-numeric:normal;text-align:start;letter-spacing:0px;word-spacing:0px;writing-mode:lr-tb;text-anchor:start;fill:#ffffff;fill-opacity:1;stroke:none;stroke-width:0.75"
     d="m 136.96289,20.544922 c -8.57239,0.02076 -14.22826,8.649728 -16.43164,15.291016 -9.97055,-4.254195 -24.384726,0.100535 -26.447266,11.763671 -1.421161,5.827719 3.423634,13.931595 -3.222656,17.509766 -18.785692,14.742417 -23.335002,41.921185 -44.634766,53.972655 -17.139486,12.41355 -33.464145,30.51958 -33.396484,52.92578 -0.537147,22.48677 14.981409,42.92022 35.09961,51.79883 8.562417,4.11369 18.333124,6.58356 27.824218,4.82813 -14.459486,14.7948 -26.780248,35.3832 -22.546875,56.83984 1.160781,6.50239 7.711152,10.42716 14.074219,9.47266 30.305861,-0.60252 60.65939,0.13296 90.99219,-0.14258 41.54036,0 83.08073,0 124.62109,0 7.25093,-59.48966 5.03714,-122.7558 -22.46205,-177.21448 -19.55551,-35.90523 -55.95455,-58.549721 -92.51646,-74.234741 -8.4684,-4.799497 -11.10732,-15.651275 -20.0918,-19.960938 -3.28171,-1.884767 -7.05989,-2.986317 -10.86133,-2.849609 z"
     id="text6318"
     inkscape:connector-curvature="0" />
  <g
     aria-label="m"
     style="font-style:normal;font-variant:normal;font-weight:normal;font-stretch:normal;font-size:300px;line-height:1.25;font-family:'Chess Leipzig';-inkscape-font-specification:'Chess Leipzig, Normal';font-variant-ligatures:normal;font-variant-caps:normal;font-variant-numeric:normal;text-align:start;letter-spacing:0px;word-spacing:0px;writing-mode:lr-tb;text-anchor:start;fill:#000000;fill-opacity:1;stroke:none;stroke-width:0.75"
     id="text817">
    <path
       d="m 167.91543,176.11856 q 3.66211,-0.73242 8.20312,-1.61133 4.6875,-1.02539 9.96094,-2.7832 4.6875,-1.46484 3.07617,-5.27344 -1.02539,-1.61133 -2.92969,-1.61133 -10.40039,2.34375 -19.6289,2.78321 3.51562,-1.31836 7.32422,-2.63672 3.80859,-1.46485 7.4707,-3.22266 11.42578,-5.41992 15.08789,-23.73047 0.73242,-4.24804 -2.7832,-4.83398 -3.07618,-0.29297 -4.83399,2.49023 -3.51562,13.03711 -11.13281,17.57813 -2.49023,1.46484 -5.12695,2.63672 -2.63672,1.17187 -5.27344,2.49023 2.92969,-3.07617 5.41992,-7.4707 4.54102,-7.61719 6.15234,-26.95313 -1.02539,-5.12695 -5.12695,-3.80859 -1.31836,0.73242 -1.75781,1.31836 -2.63672,20.80078 -7.17774,27.39258 -1.61132,1.61133 -2.19726,2.7832 -1.31836,1.02539 -2.49024,2.05078 -1.02539,0.87891 -2.05078,1.75781 -2.49023,3.22266 -2.49023,7.32422 0,4.98047 2.7832,9.08203 2.92969,4.10157 9.52149,4.24805 z M 157.51504,77.388092 q 40.57617,19.921875 59.91211,48.925778 11.86523,18.01758 15.82031,42.77344 3.95508,24.75586 3.95508,55.51758 -0.73243,11.86523 6.59179,20.80078 7.47071,8.93555 16.69922,7.03125 2.7832,-89.0625 -31.64062,-135.79102 -10.54688,-14.0625 -29.44336,-27.246089 -18.89649,-13.183594 -42.1875,-23.583985 0,3.076172 0.14648,6.298829 0.14649,3.076171 0.14649,5.273437 z M 71.382223,199.99551 q 1.611329,-2.63671 3.66211,-5.12695 2.197265,-2.63672 3.955078,-5.85937 3.222656,-6.5918 -3.222656,-7.76368 -1.171875,-0.29296 -2.636719,0.29297 -4.248047,5.71289 -9.228516,11.57227 -0.732422,0.58594 -3.36914,2.92969 -1.31836,4.39453 -0.146485,6.73828 1.904297,4.39453 7.177735,0.58593 2.636718,-2.05078 3.808593,-3.36914 z m 51.562497,-37.64648 q 0.43946,-1.75781 1.02539,-3.51563 0.73243,-1.75781 1.17188,-3.51562 1.31836,-5.71289 -3.22266,-5.71289 -1.61133,0 -3.95508,2.63672 -1.02539,2.34375 -2.05078,4.6875 -1.02539,2.19726 -1.61132,4.10156 -0.43946,1.46484 -1.31836,4.10156 -0.29297,2.19727 1.75781,3.22266 3.07617,1.75781 6.29883,-2.7832 1.02539,-1.02539 1.90429,-3.22266 z m -68.4082,11.71875 q 1.464844,-2.05078 3.369141,-4.10156 1.904297,-2.19727 3.369141,-4.83399 2.929687,-5.41992 -2.783204,-6.29883 -0.878906,-0.14648 -2.490234,0.14649 -3.515625,4.54101 -8.203125,9.52148 -1.757812,1.31836 -2.929687,2.34375 -1.171875,3.66211 -0.146485,5.41993 1.757813,3.6621 6.445313,0.58593 2.34375,-1.75781 3.36914,-2.7832 z m 43.212891,-65.03906 q 1.025391,6.29883 3.369139,7.17773 2.34375,0.87891 6.5918,0.58594 5.71289,-0.43945 8.78906,-2.34375 6.15234,-3.95508 10.83984,-17.138673 -4.6875,1.464844 -8.78906,1.464844 -4.10156,0 -9.81445,0.439453 -8.05664,0.732422 -10.986329,9.814456 z m -1.904297,84.96093 q -2.050781,2.19727 -3.369141,3.22266 -1.171875,0.87891 -2.050781,1.75781 -0.732422,0.73243 -9.521484,9.66797 -3.369141,3.66211 -8.056641,4.6875 -3.076172,0.87891 -8.642578,-0.73242 -18.310547,-4.83398 -28.857422,-19.33594 -4.101562,-5.41992 -5.859375,-13.03711 -1.611328,-7.76367 1.611328,-19.6289 3.222657,-12.01172 23.291016,-27.39258 21.826172,-16.69922 25.634766,-26.51367 3.222656,-5.71289 7.324218,-12.597659 4.248047,-6.884766 9.960938,-13.330078 3.515622,-2.490235 6.591792,-5.712891 3.22266,-3.369141 6.29883,-6.884766 V 50.141998 q 8.05664,1.611328 11.86524,4.6875 1.75781,1.904297 3.80859,3.515625 2.19727,1.611328 3.95508,3.515625 3.66211,-6.591797 4.6875,-10.986328 0.14648,-1.02539 1.02539,-4.101562 0.87891,-3.076172 1.75781,-10.107422 2.19727,-0.585938 3.8086,1.171875 6.73828,7.617187 12.74414,16.992187 26.80664,10.69336 48.92578,25.341797 22.26562,14.648438 34.13086,30.468755 33.54492,45.55664 33.54492,134.17968 0,18.60352 -1.9043,33.98438 H 68.59902 q -1.904297,-19.04297 20.214844,-40.42969 9.960938,-9.66797 20.654296,-18.75 10.83984,-9.08203 21.09375,-18.45703 19.04297,-17.57813 21.09375,-28.125 -0.73242,-1.75781 -2.7832,-2.34375 -5.12696,3.07617 -10.25391,3.95508 -5.12695,0.8789 -10.10742,1.17187 -3.22266,0.14649 -6.44531,0.29297 -3.07617,0 -7.32422,-1.46484 -5.71289,6.44531 -9.81445,11.13281 -3.95508,4.54102 -9.082036,8.20312 z"
       style="font-size:300px;stroke-width:0.75"
       id="path814" />
  </g>
</svg>
