<?xml version="1.0" encoding="UTF-8" standalone="no"?>
<svg
   xmlns:dc="http://purl.org/dc/elements/1.1/"
   xmlns:cc="http://creativecommons.org/ns#"
   xmlns:rdf="http://www.w3.org/1999/02/22-rdf-syntax-ns#"
   xmlns:svg="http://www.w3.org/2000/svg"
   xmlns="http://www.w3.org/2000/svg"
   xmlns:sodipodi="http://sodipodi.sourceforge.net/DTD/sodipodi-0.dtd"
   xmlns:inkscape="http://www.inkscape.org/namespaces/inkscape"
   version="1.0"
   width="300.000000pt"
   height="300.000000pt"
   viewBox="0 0 300.000000 300.000000"
   preserveAspectRatio="xMidYMid meet"
   id="svg2"
   inkscape:version="0.92.2 (5c3e80d, 2017-08-06)"
   sodipodi:docname="bq.svg">
  <defs
     id="defs12" />
  <sodipodi:namedview
     pagecolor="#ffffff"
     bordercolor="#666666"
     borderopacity="1"
     objecttolerance="10"
     gridtolerance="10"
     guidetolerance="10"
     inkscape:pageopacity="0"
     inkscape:pageshadow="2"
     inkscape:window-width="1511"
     inkscape:window-height="947"
     id="namedview10"
     showgrid="false"
     inkscape:zoom="1.4779572"
     inkscape:cx="150.7498"
     inkscape:cy="232.53913"
     inkscape:window-x="7"
     inkscape:window-y="45"
     inkscape:window-maximized="0"
     inkscape:current-layer="svg2"
     inkscape:pagecheckerboard="true"
     showguides="false" />
  <metadata
     id="metadata4">
Created by potrace 1.12, written by Peter Selinger 2001-2015
<rdf:RDF>
  <cc:Work
     rdf:about="">
    <dc:format>image/svg+xml</dc:format>
    <dc:type
       rdf:resource="http://purl.org/dc/dcmitype/StillImage" />
    <dc:title />
  </cc:Work>
</rdf:RDF>
</metadata>
  <path
     style="font-style:normal;font-variant:normal;font-weight:normal;font-stretch:normal;font-size:300px;line-height:1.25;font-family:'Chess Leipzig';-inkscape-font-specification:'Chess Leipzig, Normal';font-variant-ligatures:normal;font-variant-caps:normal;font-variant-numeric:normal;text-align:start;letter-spacing:0px;word-spacing:0px;writing-mode:lr-tb;text-anchor:start;fill:#fffff5;fill-opacity:1;stroke:none;stroke-width:0.75"
     d="M 146.54883,0.76171875 C 126.90413,0.63086334 111.84106,20.421186 112.87109,39.185547 99.757205,26.220337 76.759824,27.203493 63.978516,40.183594 57.00573,46.752099 52.366485,56.115832 52.505859,65.800781 32.596198,56.339542 4.5869706,69.211691 1.9101562,91.904297 -1.1000058,109.58379 10.42421,130.44299 29.123047,132.87695 c 3.885813,0.10357 2.672918,7.1443 5.030551,9.76172 9.034107,23.53986 17.338307,48.72018 13.983121,74.13477 -0.161198,6.27721 2.456166,12.44771 4.798828,17.85547 -7.502336,14.91481 -0.463958,34.22182 13.746094,42.35547 22.593742,15.08029 50.698489,18.00337 77.156249,19.1914 29.76023,0.64579 61.09472,-3.24514 86.81641,-19.25781 11.69493,-7.48942 19.1832,-21.91927 15.70312,-35.79102 -0.087,-3.57073 -4.44309,-7.01228 -1.0039,-9.95703 4.6021,-6.40163 8.97375,-16.35675 2.42382,-22.92969 0.22398,-26.14878 10.49389,-50.85324 19.15625,-75.12304 4.25294,-1.81356 9.08281,-2.57071 12.60743,-5.97071 16.45494,-11.91502 20.63416,-39.249901 4.89257,-53.496089 C 274.08089,62.685231 256.2732,60.970137 243.25,66.011719 243.9283,48.650671 230.24714,31.625343 212.53906,30.402344 201.80022,29.273315 190.72592,33.259404 182.96094,40.716797 185.00566,22.811099 172.56161,3.0974173 153.78125,1.2421875 151.39292,0.85312415 148.96758,0.69309555 146.54883,0.76171875 Z"
     id="text6393"
     inkscape:connector-curvature="0"
     sodipodi:nodetypes="ccccccccccccccccccccccc" />
  <g
     aria-label="w"
     style="font-style:normal;font-variant:normal;font-weight:normal;font-stretch:normal;font-size:300px;line-height:1.25;font-family:'Chess Leipzig';-inkscape-font-specification:'Chess Leipzig, Normal';font-variant-ligatures:normal;font-variant-caps:normal;font-variant-numeric:normal;text-align:start;letter-spacing:0px;word-spacing:0px;writing-mode:lr-tb;text-anchor:start;fill:#000000;fill-opacity:1;stroke:none;stroke-width:0.75"
     id="text817">
    <path
       d="m 155.75722,52.485748 q 2.19727,23.730469 4.39453,47.460938 2.34375,23.583984 4.6875,47.167964 0.14649,3.36915 3.36915,3.36915 2.34375,-0.14649 3.22265,-2.05079 12.74414,-30.76171 18.75,-47.60742 6.15235,-16.992185 7.4707,-20.947264 -6.73828,-6.445312 -6.73828,-14.501953 0,-7.03125 4.98047,-12.011718 5.12696,-5.126954 12.30469,-5.126954 7.03125,0 12.01172,5.126954 5.12695,4.980468 5.12695,12.011718 0,12.744141 -13.18359,17.285157 l -10.69336,63.86719 q -0.73242,4.39453 3.07617,4.39453 3.07617,0 4.6875,-1.61133 17.57813,-17.57812 25.19531,-27.24609 7.76367,-9.66797 10.83985,-13.47657 -3.22266,-4.24804 -3.22266,-10.253902 0,-17.138672 17.13867,-17.138672 7.03125,0 12.01172,5.126953 5.12695,4.980469 5.12695,12.011719 0,7.177732 -5.12695,12.158202 -4.98047,4.98047 -12.01172,4.98047 -2.19726,0 -3.95508,-0.43945 -11.71875,25.34179 -18.75,51.85547 -6.00586,21.5332 -7.4707,40.86914 0.87891,4.10156 1.02539,4.24804 -0.43945,-1.75781 0.58594,3.36914 0.58594,2.34375 0.58594,4.54102 -0.87891,2.34375 -3.66211,5.27344 -2.49024,2.7832 -3.66211,10.98632 5.41992,7.61719 5.41992,12.30469 0,12.30469 -23.73047,21.09375 -23.73047,8.78906 -56.98242,8.78906 -33.39844,0 -57.128907,-8.78906 -23.583985,-8.78906 -23.583985,-21.09375 0,-4.83398 5.712891,-12.59765 -1.757812,-8.34961 -3.808594,-10.69336 -2.929687,-2.92969 -3.808593,-5.27344 0,-1.9043 0.439453,-4.39453 0.292968,-1.17188 0.439453,-2.05078 0.146484,-1.02539 0.292969,-1.46485 0.585937,-1.61133 1.171875,-4.54101 -1.464844,-18.45703 -7.177735,-40.57617 -7.617187,-27.83204 -18.896484,-52.14844 -2.490235,0.73242 -5.126953,0.73242 -17.138672,0 -17.138672,-17.138672 0,-17.138672 17.138672,-17.138672 17.138672,0 17.138672,17.138672 0,5.273442 -2.636719,9.521482 8.642578,10.98633 17.285156,20.50781 8.789063,9.375 19.335938,20.6543 1.318359,1.9043 3.808593,1.9043 4.248047,0 3.808594,-4.39453 -0.292969,-1.31836 -3.662109,-20.94727 Q 88.813864,105.95255 84.858786,82.808014 70.94277,78.99942 70.94277,65.376373 q 0,-7.03125 4.980469,-12.011718 5.126953,-5.126954 12.158203,-5.126954 17.138668,0 17.138668,17.138672 0,7.617188 -5.859371,13.916016 0.732421,3.076172 3.662111,12.304687 2.92969,9.082034 9.08203,24.023434 3.36914,8.20313 6.73828,16.55274 3.51563,8.20312 7.03125,16.25976 0.87891,1.9043 3.07617,1.9043 3.07617,-0.14648 3.51563,-3.22266 0.29297,-1.75781 8.93554,-94.482417 -10.40039,-5.566407 -10.40039,-16.552735 0,-7.03125 4.98047,-12.158203 4.98047,-5.126953 12.15821,-5.126953 7.03125,0 12.01171,5.126953 5.12696,5.126953 5.12696,12.158203 0,9.960938 -9.52149,16.40625 z M 116.20644,203.65762 q -8.05664,0 -8.05664,8.4961 0,8.64258 8.05664,8.64258 8.20313,0 8.20313,-8.64258 0,-8.4961 -8.20313,-8.4961 z M 71.528708,172.8959 q 1.757812,6.00586 3.076172,10.83985 1.464843,4.6875 2.490234,10.2539 0.878906,0.43946 2.636719,0.43946 12.304687,-3.66211 30.175777,-6.44531 18.01758,-2.78321 38.67188,-2.78321 21.09375,0 39.25781,2.92969 18.16406,2.7832 30.46875,6.44531 0.73242,0 2.19727,-0.58594 0.8789,-5.27343 2.34375,-9.81445 1.46484,-4.6875 3.22265,-10.83984 -16.69922,-3.8086 -36.47461,-7.47071 -19.77539,-3.6621 -41.01562,-3.6621 -21.24024,0 -40.57617,3.6621 -19.33594,3.51563 -36.474612,7.03125 z m 147.070312,46.14258 -10.54687,-10.10742 -13.47657,5.41992 10.69336,10.10742 z m -51.41602,-10.40039 -18.89648,-9.81445 -18.16406,9.81445 18.89648,9.96094 z m -63.28125,5.85938 -14.794917,-4.98047 -11.71875,9.22851 14.648437,4.98047 z m 76.9043,-10.83985 q -8.20312,0 -8.20312,8.4961 0,8.64258 8.20312,8.64258 8.20313,0 8.20313,-8.64258 0,-8.4961 -8.20313,-8.4961 z m 32.08008,50.83008 q -0.87891,-4.39453 -2.05078,-7.32422 -1.75781,-3.80859 -3.51563,-4.98047 -1.75781,-1.31836 -3.22265,-3.36914 -7.76367,-4.98047 -21.82617,-8.49609 -13.91602,-3.66211 -33.69141,-3.22266 -20.21484,-0.43945 -33.98438,3.22266 -13.76953,3.51562 -21.386715,8.49609 -1.904297,1.75782 -3.662109,3.22266 -1.757813,1.31836 -3.076172,4.98047 -1.464844,4.39453 -2.050781,7.4707 -0.292969,4.98047 4.394531,4.98047 4.394531,0 4.394531,-4.83398 1.31836,-15.23438 55.078125,-15.23438 54.3457,0 55.81055,15.23438 -0.29297,4.83398 4.39453,4.83398 4.39453,0 4.39453,-4.98047 z"
       style="font-size:300px;stroke-width:0.75"
       id="path814" />
  </g>
</svg>
