<?xml version="1.0" encoding="UTF-8" standalone="no"?>
<svg
   xmlns:dc="http://purl.org/dc/elements/1.1/"
   xmlns:cc="http://creativecommons.org/ns#"
   xmlns:rdf="http://www.w3.org/1999/02/22-rdf-syntax-ns#"
   xmlns:svg="http://www.w3.org/2000/svg"
   xmlns="http://www.w3.org/2000/svg"
   xmlns:sodipodi="http://sodipodi.sourceforge.net/DTD/sodipodi-0.dtd"
   xmlns:inkscape="http://www.inkscape.org/namespaces/inkscape"
   version="1.0"
   width="300.000000pt"
   height="300.000000pt"
   viewBox="0 0 300.000000 300.000000"
   preserveAspectRatio="xMidYMid meet"
   id="svg2"
   inkscape:version="0.92.2 (5c3e80d, 2017-08-06)"
   sodipodi:docname="br.svg">
  <defs
     id="defs12" />
  <sodipodi:namedview
     pagecolor="#ffffff"
     bordercolor="#666666"
     borderopacity="1"
     objecttolerance="10"
     gridtolerance="10"
     guidetolerance="10"
     inkscape:pageopacity="0"
     inkscape:pageshadow="2"
     inkscape:window-width="1511"
     inkscape:window-height="947"
     id="namedview10"
     showgrid="false"
     inkscape:zoom="1.4779572"
     inkscape:cx="164.28989"
     inkscape:cy="180.40182"
     inkscape:window-x="7"
     inkscape:window-y="45"
     inkscape:window-maximized="0"
     inkscape:current-layer="svg2"
     inkscape:pagecheckerboard="true"
     showguides="false" />
  <metadata
     id="metadata4">
Created by potrace 1.12, written by Peter Selinger 2001-2015
<rdf:RDF>
  <cc:Work
     rdf:about="">
    <dc:format>image/svg+xml</dc:format>
    <dc:type
       rdf:resource="http://purl.org/dc/dcmitype/StillImage" />
    <dc:title />
  </cc:Work>
</rdf:RDF>
</metadata>
  <path
     style="font-style:normal;font-variant:normal;font-weight:normal;font-stretch:normal;font-size:300px;line-height:1.25;font-family:'Chess Leipzig';-inkscape-font-specification:'Chess Leipzig, Normal';font-variant-ligatures:normal;font-variant-caps:normal;font-variant-numeric:normal;text-align:start;letter-spacing:0px;word-spacing:0px;writing-mode:lr-tb;text-anchor:start;fill:#ffffff;fill-opacity:1;stroke:none;stroke-width:0.75"
     d="M 96.755859,0.34179688 C 79.396256,1.0199362 62.28371,-0.0438664 45.105469,1.6035156 45.83938,27.32426 43.995897,53.103713 46.085938,78.785156 c 5.71153,8.291762 14.459077,14.778362 19.255859,23.294924 -1.59762,7.30235 1.173431,14.64552 2.101562,21.70898 -3.475523,10.00751 -2.46993,21.03901 0.34375,30.99414 -3.965802,9.10048 -3.532292,19.78679 -0.113281,28.75586 -2.412985,6.11211 -2.219126,13.24641 -2.880859,19.32422 -8.119686,3.34532 -17.524578,8.22206 -19.519531,17.63086 -10.668206,5.23722 -11.624069,18.85488 -10.106111,29.1009 0.59964,15.732 -0.534444,31.4831 0.352204,47.20965 H 261.79492 l 0.7304,-49.73346 c 0.61673,-27.10178 -8.18274,-26.94221 -12.46673,-30.53412 -6.79105,-9.67769 -11.44175,-11.10007 -18.19336,-14.67383 0.90334,-6.63694 -1.96708,-13.11008 -2.41796,-19.54101 3.836,-9.00637 3.21521,-19.45223 -0.0547,-28.41211 4.02018,-10.27918 1.81877,-21.65434 0.25195,-31.97071 2.50636,-6.64577 3.25563,-13.96645 2.04297,-20.9707 10.16123,-10.346369 22.46054,-22.848789 20.36142,-38.683321 -0.68284,-17.91569 -0.75681,-44.190877 -0.83435,-61.57050942 -7.35435,0.0368599 -16.5631,-0.13942622 -25.37277,0.0800023 L 192.17853,0.61550867 C 186.24482,7.4626608 185.64693,10.39576 179.55858,2.1386719 171.93337,-1.0462189 163.88695,1.0564327 155.59185,0.94191674 142.36911,1.0225963 129.55152,-2.0270988 118.40017,4.2711439 115.81732,8.8654619 111.44224,9.9638321 107.28419,2.4990118 102.38486,1.739619 102.72497,0.13260091 96.755859,0.34179688 Z"
     id="text6437"
     inkscape:connector-curvature="0"
     sodipodi:nodetypes="cccccccccccccccccccccccccccc" />
  <g
     aria-label="t"
     style="font-style:normal;font-variant:normal;font-weight:normal;font-stretch:normal;font-size:300px;line-height:1.25;font-family:'Chess Leipzig';-inkscape-font-specification:'Chess Leipzig, Normal';font-variant-ligatures:normal;font-variant-caps:normal;font-variant-numeric:normal;text-align:start;letter-spacing:0px;word-spacing:0px;writing-mode:lr-tb;text-anchor:start;fill:#000000;fill-opacity:1;stroke:none;stroke-width:0.75"
     id="text817">
    <path
       d="m 148.57949,18.794342 h 20.21484 V 38.716217 H 199.1166 V 18.794342 h 34.86328 V 71.089264 L 210.3959,98.335358 q 7.61718,9.667972 0.29296,20.361332 -1.17187,1.90429 -1.17187,3.51562 0,1.9043 1.17187,3.66211 3.07618,4.54102 2.92969,12.89063 0,8.20312 -3.07617,12.89062 -1.02539,1.46484 -1.02539,3.07617 0,2.05078 1.31836,3.8086 6.88476,10.40039 -0.29297,20.50781 -1.02539,1.75781 -1.02539,3.36914 0,1.61133 1.02539,3.36914 3.22266,4.83398 3.22266,13.47656 0,8.4961 -3.51563,12.59766 l 23.73047,11.86523 v 12.59766 h 9.81445 v 42.48047 H 148.57949 53.218161 v -42.33399 h 9.960937 v -12.59765 l 23.583985,-12.01172 q -3.515625,-4.10156 -3.515625,-12.59766 0,-8.49609 3.222656,-13.33008 1.171875,-1.61132 1.171875,-3.36914 0,-1.46484 -1.171875,-3.36914 -7.177734,-10.2539 -0.146484,-20.50781 1.318359,-2.34375 1.318359,-3.80859 0,-1.46485 -1.025391,-3.22266 -3.222656,-4.6875 -3.36914,-12.89062 0,-8.34961 3.076172,-12.89063 1.318359,-1.75781 1.318359,-3.66211 0,-1.61133 -1.171875,-3.36914 -7.470703,-10.69336 0.292969,-20.507812 L 63.179098,71.235748 V 18.940826 H 98.04238 v 19.775391 l 30.17578,0.146484 V 18.940826 Z M 73.579489,56.001373 v 12.744141 q 18.75,-0.878906 37.353511,-1.757813 18.75,-1.02539 37.64649,-1.02539 18.45703,0 37.20703,1.171875 18.89648,1.171875 37.79297,1.611328 0,-4.833984 0,-6.298828 0,-1.611328 0,-6.445313 z m 6.298828,172.558597 q -6.298828,0.58593 -6.298828,6.29883 v 0 q 0,6.29882 6.298828,6.29882 l 68.701173,-2.34375 68.70117,2.34375 q 6.29883,0 6.29883,-6.29882 v 0 q 0,-5.7129 -6.29883,-6.29883 -17.13867,-1.02539 -34.42383,-1.75782 -17.13867,-0.8789 -34.27734,-0.8789 -17.13867,0 -34.42383,0.8789 -17.138671,0.73243 -34.277343,1.75782 z M 156.05019,188.8627 q 4.24805,-3.36914 12.45117,-3.36914 8.34961,0 12.74414,3.36914 4.39454,3.51563 4.39454,10.54688 0.14648,7.03125 -4.39454,9.22851 -4.6875,2.49024 -12.74414,2.49024 -8.05664,0 -12.45117,-2.49024 -4.6875,-2.19726 -4.54101,-9.22851 0.14648,-7.03125 4.54101,-10.54688 z m -40.13672,0 q 4.39453,-3.36914 12.59766,-3.36914 8.20312,0 12.59766,3.36914 4.39453,3.51563 3.95507,10.54688 -0.29296,7.03125 -3.95507,9.22851 -3.8086,2.49024 -12.89063,2.34375 -8.93555,-0.29297 -12.30469,-2.34375 -3.51562,-1.90429 -3.95507,-9.08203 -0.43946,-7.17773 3.95507,-10.69336 z M 148.57949,83.247467 q -13.91602,0 -32.22656,1.904297 -18.31055,1.757812 -22.99805,3.222656 -4.833985,1.757813 -4.394532,5.566406 0.439454,3.808594 4.394532,4.980469 3.955078,1.318355 15.67383,-0.292969 11.71875,-1.611328 14.50195,0.292969 2.63672,2.050785 2.63672,9.667965 0,7.47071 -2.63672,10.25391 -2.7832,2.7832 -15.08789,0.73242 -12.158203,-2.05078 -15.08789,-0.73242 -2.929688,1.31836 -2.34375,4.83398 0.585937,3.36915 2.34375,4.98047 1.757812,1.75782 5.126953,-0.73242 3.515627,-2.49023 5.273437,0.73242 1.75781,3.51563 1.75781,10.10743 0,6.59179 -1.75781,9.81445 -1.75781,3.36914 -5.273437,0.8789 -3.369141,-2.63671 -5.126953,-0.8789 -1.904297,1.9043 -2.050782,5.71289 0,3.66211 2.050782,4.6875 1.904297,1.31836 14.64844,-0.58594 12.74414,-2.05078 15.52734,0.58594 2.63672,2.7832 2.63672,9.81445 0,7.03125 -2.63672,10.10742 -2.7832,3.22266 -15.67383,1.02539 -12.744138,-2.34375 -14.50195,-1.02539 -5.712891,4.6875 0,9.96094 1.757812,1.75781 5.126953,-0.73242 3.515627,-2.49023 5.273437,0.73242 1.75781,3.36914 1.75781,9.96094 0,6.5918 -1.75781,9.81445 -1.75781,3.51563 -5.273437,1.02539 -3.369141,-2.63672 -5.126953,-1.02539 -1.757813,1.75781 -2.783203,5.27344 -1.025391,3.36914 2.783203,4.6875 2.929687,1.17187 19.33594,-0.43945 16.40625,-1.61133 35.88867,-1.61133 19.33594,0 36.18164,1.31836 16.8457,1.17187 19.04297,0.73242 3.07617,-0.43945 2.34375,-4.24805 -0.58594,-3.95508 -2.34375,-5.71289 -1.9043,-1.61133 -5.41992,1.02539 -3.36914,2.49024 -4.98047,-1.02539 -1.75781,-3.22265 -1.75781,-9.81445 0,-6.5918 1.75781,-9.96094 1.61133,-3.22265 5.12695,-0.73242 3.51563,2.49023 5.27344,0.73242 5.41992,-5.41992 0,-9.96094 -1.75781,-1.31836 -15.08789,0.73243 -13.33008,2.05078 -15.23438,-0.73243 -1.90429,-2.63671 -2.19726,-9.22851 -0.14649,-6.73828 2.19726,-10.69336 2.34375,-3.95508 15.23438,-1.46484 13.03711,2.49023 15.08789,1.46484 1.75781,-0.87891 1.75781,-4.6875 0,-3.80859 -1.75781,-5.71289 -1.9043,-1.75781 -5.41992,0.8789 -3.36914,2.49024 -4.98047,-0.8789 -1.75781,-3.22266 -1.75781,-9.81445 0,-6.5918 1.75781,-10.10743 1.61133,-3.22265 4.98047,-0.73242 3.51562,2.49024 5.41992,0.73242 1.75781,-1.61132 1.9043,-4.98047 0.29296,-3.51562 -1.9043,-4.83398 -2.49024,-1.31836 -15.23438,0.73242 -12.74414,2.05078 -15.08789,-0.73242 -2.34375,-2.7832 -2.34375,-9.96094 0,-7.17773 2.34375,-9.960935 2.34375,-2.636719 14.35547,-0.292969 12.01172,2.343754 15.9668,0.292969 3.80859,-1.904297 4.10156,-5.273437 0.43945,-3.515625 -4.10156,-5.273438 -4.83399,-1.464844 -23.29102,-3.222656 -18.31054,-1.904297 -31.93359,-1.904297 z m -12.1582,15.673828 q 4.10156,-3.36914 12.01171,-3.36914 8.05665,0 12.30469,3.36914 4.24805,3.515625 4.24805,9.960935 0,6.44532 -4.24805,9.96094 -4.24804,3.51563 -12.30469,3.51563 -7.91015,0 -12.01171,-3.51563 -4.24805,-3.51562 -4.24805,-9.96094 0,-6.44531 4.24805,-9.960935 z m 19.6289,29.736325 q 4.24805,-3.36914 12.45117,-3.36914 8.34961,0 12.74414,3.36914 4.39454,3.51563 4.39454,10.10743 0,6.44531 -4.39454,9.81445 -4.39453,3.51562 -12.74414,3.51562 -8.20312,0 -12.45117,-3.51562 -4.39453,-3.36914 -4.39453,-9.81445 0,-6.5918 4.39453,-10.10743 z m -40.13672,0 q 4.39453,-3.36914 12.59766,-3.36914 8.20312,0 12.59766,3.36914 4.39453,3.51563 4.39453,10.10743 0,6.44531 -4.39453,9.81445 -4.39454,3.51562 -12.59766,3.51562 -8.20313,0 -12.59766,-3.51562 -4.39453,-3.36914 -4.39453,-9.81445 0,-6.5918 4.39453,-10.10743 z m 20.50782,30.32227 q 4.10156,-3.36914 12.01171,-3.36914 8.05665,0 12.30469,3.36914 4.24805,3.51562 4.24805,10.10742 0,6.44531 -4.24805,9.81445 -4.24804,3.51563 -12.30469,3.51563 -7.91015,0 -12.01171,-3.51563 -4.24805,-3.36914 -4.24805,-9.81445 0,-6.5918 4.24805,-10.10742 z m -72.802738,92.13867 v 9.96094 H 233.68691 v -9.96094 z"
       style="font-size:300px;stroke-width:0.75"
       id="path814" />
  </g>
</svg>
