<?xml version="1.0" encoding="UTF-8" standalone="no"?>
<svg
   xmlns:dc="http://purl.org/dc/elements/1.1/"
   xmlns:cc="http://creativecommons.org/ns#"
   xmlns:rdf="http://www.w3.org/1999/02/22-rdf-syntax-ns#"
   xmlns:svg="http://www.w3.org/2000/svg"
   xmlns="http://www.w3.org/2000/svg"
   xmlns:sodipodi="http://sodipodi.sourceforge.net/DTD/sodipodi-0.dtd"
   xmlns:inkscape="http://www.inkscape.org/namespaces/inkscape"
   version="1.0"
   width="300.000000pt"
   height="300.000000pt"
   viewBox="0 0 300.000000 300.000000"
   preserveAspectRatio="xMidYMid meet"
   id="svg2"
   inkscape:version="0.92.2 (5c3e80d, 2017-08-06)"
   sodipodi:docname="wk.svg">
  <defs
     id="defs12" />
  <sodipodi:namedview
     pagecolor="#ffffff"
     bordercolor="#666666"
     borderopacity="1"
     objecttolerance="10"
     gridtolerance="10"
     guidetolerance="10"
     inkscape:pageopacity="0"
     inkscape:pageshadow="2"
     inkscape:window-width="1511"
     inkscape:window-height="947"
     id="namedview10"
     showgrid="false"
     inkscape:zoom="1.4779572"
     inkscape:cx="27.685527"
     inkscape:cy="232.53913"
     inkscape:window-x="7"
     inkscape:window-y="45"
     inkscape:window-maximized="0"
     inkscape:current-layer="svg2"
     inkscape:pagecheckerboard="true"
     showguides="false" />
  <metadata
     id="metadata4">
Created by potrace 1.12, written by Peter Selinger 2001-2015
<rdf:RDF>
  <cc:Work
     rdf:about="">
    <dc:format>image/svg+xml</dc:format>
    <dc:type
       rdf:resource="http://purl.org/dc/dcmitype/StillImage" />
    <dc:title />
  </cc:Work>
</rdf:RDF>
</metadata>
  <path
     style="font-style:normal;font-variant:normal;font-weight:normal;font-stretch:normal;font-size:300px;line-height:1.25;font-family:'Chess Leipzig';-inkscape-font-specification:'Chess Leipzig, Normal';font-variant-ligatures:normal;font-variant-caps:normal;font-variant-numeric:normal;text-align:start;letter-spacing:0px;word-spacing:0px;writing-mode:lr-tb;text-anchor:start;fill:#ffffff;fill-opacity:1;stroke:none;stroke-width:0.75"
     d="m 105.53125,18.761719 c -0.18805,11.846588 0.25237,23.695966 -0.0703,35.541015 C 78.030922,44.122221 43.592327,48.658973 23.644531,71.392578 5.831288,90.548069 0.72798386,119.91035 10.306641,144.1582 c 5.894071,18.14764 16.423259,35.01786 31.189453,47.2461 -0.601886,9.11521 5.989437,16.80954 6.720703,25.38672 -0.303301,6.56853 1.869085,13.17769 3.990234,19.03515 -5.883646,14.86506 0.383328,33.36475 14.50586,41.09571 25.282662,17.0681 57.112709,18.68545 86.642519,19.39967 28.63865,-0.36228 58.76331,-5.83417 82.32868,-23.01198 10.18809,-9.1675 14.66982,-25.00567 8.94482,-37.75684 5.28078,-7.12738 3.23003,-16.63967 5.36132,-24.48046 3.94683,-6.08018 4.108,-13.96966 6.72071,-20.23243 23.63039,-20.83868 37.81012,-53.32546 33.90234,-84.9082 -5.15399,-29.797536 -31.91331,-55.902381 -62.89964,-55.986053 -12.20514,-1.223663 -24.72475,-0.293943 -36.17067,4.374725 0.0207,-12.517364 -0.36448,-25.102236 0.19336,-37.558593 h -86.20508 v 1 z"
     id="text6371"
     inkscape:connector-curvature="0"
     sodipodi:nodetypes="cccccccccccccccccccc" />
  <g
     aria-label="k"
     style="font-style:normal;font-variant:normal;font-weight:normal;font-stretch:normal;font-size:300px;line-height:1.25;font-family:'Chess Leipzig';-inkscape-font-specification:'Chess Leipzig, Normal';font-variant-ligatures:normal;font-variant-caps:normal;font-variant-numeric:normal;text-align:start;letter-spacing:0px;word-spacing:0px;writing-mode:lr-tb;text-anchor:start;fill:#000000;fill-opacity:1;stroke:none;stroke-width:0.75"
     id="text817">
    <path
       d="m 103.31582,211.56778 -14.208987,-4.6875 -10.986328,8.78906 13.916015,4.6875 z m 126.70898,0.43945 q 1.02539,3.07617 1.02539,5.85938 0,8.64258 -6.29883,13.33008 -0.58593,2.49023 -0.8789,4.98046 5.41992,7.61719 5.41992,12.30469 0,12.30469 -23.73047,21.09375 -23.73047,8.78906 -56.98242,8.78906 -33.39844,0 -57.128907,-8.78906 -23.583985,-8.78906 -23.583985,-21.09375 0,-4.83398 5.712891,-12.59765 -0.292969,-1.61133 -0.878906,-4.54102 -6.445313,-4.6875 -6.445313,-13.47656 0,-2.78321 0.878907,-5.71289 1.464843,-3.66211 -0.585938,-5.71289 -2.050781,-2.05078 -4.6875,-5.71289 -2.34375,-7.32422 -2.34375,-10.10743 0.146484,-1.31836 0.439453,-2.92968 0.439453,-1.61133 0.439453,-3.8086 -6.445312,-6.44531 -13.476562,-12.1582 -6.884766,-5.85938 -10.839844,-14.0625 -4.6875,-9.66797 -8.642578,-19.48242 -3.808594,-9.96094 -3.808594,-19.48242 0,-18.01758 9.521485,-30.468754 9.521484,-12.451172 25.78125,-19.482422 21.679687,-1.464844 18.310546,-1.464844 25.488282,0 46.289062,18.896485 V 34.761139 h 49.95117 v 51.5625 q 20.80078,-19.042969 46.58203,-19.042969 -3.66211,0 18.31055,1.464844 15.9668,7.03125 25.48828,19.482422 9.66797,12.451174 9.66797,30.468754 0,9.52148 -3.95508,19.33593 -3.80859,9.81446 -8.34961,19.48243 -3.95507,8.3496 -10.98632,14.50195 -7.03125,6.15234 -13.33008,12.30469 -0.14649,1.75781 0.14648,3.36914 0.43945,1.61132 0.58594,2.92968 0.14648,2.05079 -2.34375,10.10743 -2.63672,3.66211 -4.6875,5.71289 -1.9043,2.05078 -0.58594,5.5664 z M 148.57949,85.00528 q -15.08789,0 -15.08789,15.08789 0,15.08789 15.08789,15.08789 15.08789,0 15.08789,-15.08789 0,-15.08789 -15.08789,-15.08789 z M 142.72011,58.491608 132.31972,48.384186 v 22.412109 l 10.40039,-8.349609 q -0.43945,-0.585938 -0.43945,-1.904297 0,-0.878906 0.43945,-2.050781 z m 3.36914,7.763672 -8.78906,9.521484 h 22.5586 l -9.375,-9.375 q -1.46485,0.292969 -1.9043,0.292969 -1.46484,0 -2.49024,-0.439453 z m 8.34961,-3.369141 10.40039,7.910156 V 48.384186 l -10.54687,9.667969 q 0.43945,1.171875 0.43945,2.490234 0,0.878906 -0.29297,2.34375 z m -4.10156,-8.349609 9.52149,-11.279297 h -22.5586 l 8.93555,11.425781 q 0.87891,-0.439453 2.34375,-0.439453 0.58594,0 1.75781,0.292969 z m 15.9668,152.49023 -18.01758,-8.64257 -17.28516,8.64257 17.8711,8.64258 z m -29.29688,-39.84375 q -0.14648,-18.01757 -3.07617,-36.18164 -2.92969,-18.31054 -5.85937,-22.26562 -18.16407,-20.068361 -41.015628,-20.068361 -19.628907,0 -29.882813,13.183591 -6.738281,8.64258 -6.738281,22.70508 0,29.29688 21.826172,54.78516 2.490234,-1.17188 4.833984,-2.05078 2.490234,-0.87891 4.980469,-1.75782 -1.31836,-2.92968 -2.636719,-5.5664 -1.318359,-2.63672 -2.783203,-6.88477 -2.783203,-8.20312 -2.197266,-15.52734 1.025391,-4.54102 4.980469,-4.54102 1.757813,0 4.6875,3.07617 -0.732422,-3.95507 -0.732422,-4.98046 0,-13.62305 11.572266,-16.84571 12.158202,0.58594 16.113282,18.16406 1.31836,-4.39453 3.66211,-4.98046 2.34375,-0.58594 3.07617,-0.58594 1.75781,0 3.07617,0.8789 4.98047,6.15235 6.15235,17.8711 0.29296,2.63672 0.29296,5.12695 0.14649,2.49024 0.58594,7.03125 4.54102,-0.8789 9.08203,-0.58594 z m -43.798825,4.98047 q -1.318359,-3.36914 -2.783203,-7.4707 -1.318359,-4.10156 -3.515625,-8.78906 -1.171875,-2.34375 -2.929687,-2.34375 -2.490235,0 -2.636719,4.10156 -0.292969,3.51562 7.177734,16.11328 1.171875,-0.43945 2.34375,-0.73242 1.31836,-0.43945 2.34375,-0.87891 z m 14.648435,-2.19726 q -0.58593,-19.18946 -5.71289,-31.05469 -1.75781,-3.07617 -5.126951,-3.07617 -4.248047,0 -4.248047,4.24804 -0.146484,0.14649 -0.146484,3.8086 0,6.29883 7.177734,27.53906 6.152348,-1.17187 8.056638,-1.46484 z m 13.76953,-1.46485 q 0.73243,-11.27929 -1.17187,-19.04297 -0.58594,-2.49023 -2.7832,-3.07617 -3.07618,-0.43945 -4.10157,3.36914 -1.17187,6.29883 2.05078,19.48243 2.92969,-0.73243 6.00586,-0.73243 z m 92.28516,72.65625 q -1.17187,-10.54687 -29.29687,-16.11328 -8.78907,-1.75781 -17.72461,-2.05078 -8.93555,-0.29297 -18.31055,-0.73242 -9.22852,0.87891 -17.43164,1.31836 -8.05664,0.43945 -14.64844,1.75781 -32.373046,6.5918 -33.105468,15.82031 -1.171875,1.75782 -1.171875,3.66211 0,6.5918 10.546875,13.1836 0,-6.73828 2.34375,-10.10743 1.31836,-1.61132 2.636719,-3.22265 1.464844,-1.75781 2.929689,-3.51563 13.18359,-7.91015 48.19336,-7.03125 34.27734,-0.8789 47.7539,7.03125 3.22266,4.10157 5.56641,6.73828 2.34375,3.66211 2.34375,10.10743 10.54688,-6.5918 10.54688,-13.1836 0,-1.90429 -1.17188,-3.66211 z m -16.99219,13.62305 q 0,-13.18359 -48.63281,-13.18359 -47.90039,0 -47.90039,13.18359 3.07617,13.03711 48.48633,13.03711 44.67773,0 48.04687,-13.03711 z m -1.75781,-43.21289 11.13281,8.78906 14.0625,-4.6875 -11.13281,-8.78906 z m 29.58984,-32.37305 q 20.94727,-25.92773 20.94727,-54.63867 0,-14.0625 -6.73828,-22.70508 -10.40039,-13.183591 -29.88281,-13.183591 -22.99805,0 -41.01563,20.068361 -3.07617,3.95508 -6.00586,22.26562 -2.92969,18.16407 -3.07617,36.18164 5.27344,-0.43945 9.375,0.58594 0.14648,-4.54101 0.14648,-7.03125 0.14649,-2.49023 0.58594,-5.12695 1.02539,-11.71875 6.15235,-17.8711 1.17187,-0.8789 3.07617,-0.8789 0.73242,0 3.07617,0.58594 2.34375,0.58593 3.66211,4.98046 3.80859,-17.57812 16.11328,-18.16406 11.57227,3.22266 11.57227,16.84571 0,1.02539 -0.73243,4.98046 2.78321,-3.07617 4.6875,-3.07617 3.8086,0 4.98047,4.54102 0.43946,7.32422 -2.19726,15.52734 -1.61133,4.24805 -2.92969,6.88477 -1.17188,2.63672 -2.49024,5.27343 2.63672,1.0254 5.27344,2.05079 2.78321,0.8789 5.41992,1.90429 z m -21.82617,-7.03125 q 0.87891,0.43946 2.05078,0.87891 1.31836,0.29297 2.63672,0.73242 7.32422,-12.59766 7.17774,-16.11328 -0.29297,-4.10156 -2.63672,-4.10156 -1.9043,0 -2.92969,2.34375 -2.34375,4.6875 -3.80859,8.78906 -1.31836,4.10156 -2.49024,7.4707 z m -14.64844,-2.19726 q 1.75782,0.29297 8.05665,1.46484 7.17773,-21.24023 7.17773,-27.53906 0,-3.66211 -0.14648,-3.8086 0,-4.24804 -4.24805,-4.24804 -3.51563,0 -5.12695,3.07617 -5.27344,11.86523 -5.7129,31.05469 z m -13.76953,-1.46485 q 3.07618,0 6.00586,0.73243 3.07617,-13.1836 2.05078,-19.48243 -1.17187,-3.80859 -4.10156,-3.36914 -2.34375,0.58594 -2.7832,3.07617 -2.05078,7.76368 -1.17188,19.04297 z m 43.79883,32.37305 q 6.5918,-0.73242 6.5918,-7.32422 0,-4.24805 -3.8086,-6.44531 -12.30468,-4.98047 -31.34765,-8.05664 -18.89649,-3.22266 -41.3086,-3.22266 -47.02148,0 -72.949214,11.57227 -3.222656,2.49023 -3.222656,6.15234 0,7.4707 7.470703,7.17774 26.074217,-9.81446 68.701167,-9.81446 43.2129,0 69.87305,9.96094 z"
       style="font-size:300px;stroke-width:0.75"
       id="path814" />
  </g>
</svg>
