<?xml version="1.0" encoding="UTF-8" standalone="no"?>
<svg
   xmlns:dc="http://purl.org/dc/elements/1.1/"
   xmlns:cc="http://creativecommons.org/ns#"
   xmlns:rdf="http://www.w3.org/1999/02/22-rdf-syntax-ns#"
   xmlns:svg="http://www.w3.org/2000/svg"
   xmlns="http://www.w3.org/2000/svg"
   xmlns:sodipodi="http://sodipodi.sourceforge.net/DTD/sodipodi-0.dtd"
   xmlns:inkscape="http://www.inkscape.org/namespaces/inkscape"
   version="1.0"
   width="300.000000pt"
   height="300.000000pt"
   viewBox="0 0 300.000000 300.000000"
   preserveAspectRatio="xMidYMid meet"
   id="svg2"
   inkscape:version="0.92.2 (5c3e80d, 2017-08-06)"
   sodipodi:docname="wn.svg">
  <defs
     id="defs12" />
  <sodipodi:namedview
     pagecolor="#ffffff"
     bordercolor="#666666"
     borderopacity="1"
     objecttolerance="10"
     gridtolerance="10"
     guidetolerance="10"
     inkscape:pageopacity="0"
     inkscape:pageshadow="2"
     inkscape:window-width="1511"
     inkscape:window-height="1002"
     id="namedview10"
     showgrid="false"
     inkscape:zoom="2.0901471"
     inkscape:cx="247.44259"
     inkscape:cy="200.28846"
     inkscape:window-x="-4"
     inkscape:window-y="0"
     inkscape:window-maximized="0"
     inkscape:current-layer="svg2"
     inkscape:pagecheckerboard="true" />
  <metadata
     id="metadata4">
Created by potrace 1.12, written by Peter Selinger 2001-2015
<rdf:RDF>
  <cc:Work
     rdf:about="">
    <dc:format>image/svg+xml</dc:format>
    <dc:type
       rdf:resource="http://purl.org/dc/dcmitype/StillImage" />
    <dc:title />
  </cc:Work>
</rdf:RDF>
</metadata>
  <path
     style="font-style:normal;font-variant:normal;font-weight:normal;font-stretch:normal;font-size:300px;line-height:1.25;font-family:'Chess Leipzig';-inkscape-font-specification:'Chess Leipzig, Normal';font-variant-ligatures:normal;font-variant-caps:normal;font-variant-numeric:normal;text-align:start;letter-spacing:0px;word-spacing:0px;writing-mode:lr-tb;text-anchor:start;fill:#ffffff;fill-opacity:1;stroke:none;stroke-width:0.75"
     d="m 136.60547,20.595703 c -8.59074,-0.188188 -14.00145,8.598934 -16.1543,15.193359 -9.84862,-4.369601 -24.33912,0.02292 -26.234373,11.646485 -1.192469,5.867912 3.161237,14.199354 -3.66656,17.63249 -14.550068,11.771142 -20.129404,30.675219 -32.547995,44.066983 -14.513697,13.52945 -33.562,24.07904 -41.158492,43.46459 -9.4274032,21.33798 -1.948292,48.22338 16.734375,62.06445 11.598173,9.61396 26.830047,16.18885 42.117187,14.03321 -14.421653,14.77695 -26.700005,35.32037 -22.496093,56.73632 1.130789,6.48849 7.637472,10.44682 13.99414,9.51563 31.333828,-0.58771 62.718371,0.11964 94.080081,-0.14453 40.54036,0 81.08073,0 121.62109,0 7.2486,-59.24243 5.01428,-122.20561 -22.20828,-176.49881 -19.37114,-36.180098 -55.78119,-59.198282 -92.55734,-74.807833 -7.82547,-3.672153 -9.87947,-13.099128 -17.01172,-17.726563 -4.09039,-3.253399 -9.22581,-5.373926 -14.51172,-5.175781 z"
     id="text5723"
     inkscape:connector-curvature="0" />
  <g
     aria-label="n"
     style="font-style:normal;font-variant:normal;font-weight:normal;font-stretch:normal;font-size:300px;line-height:1.25;font-family:'Chess Leipzig';-inkscape-font-specification:'Chess Leipzig, Normal';font-variant-ligatures:normal;font-variant-caps:normal;font-variant-numeric:normal;text-align:start;letter-spacing:0px;word-spacing:0px;writing-mode:lr-tb;text-anchor:start;fill:#000000;fill-opacity:1;stroke:none;stroke-width:0.75"
     id="text817">
    <path
       d="m 57.319723,174.06778 q -1.171875,1.46484 -3.076171,2.7832 -4.101563,3.07617 -5.859375,-0.58593 -1.025391,-1.75782 0.146484,-5.41993 2.050781,-1.75781 2.783203,-2.34375 4.541016,-5.41992 7.470703,-9.52148 1.464844,-0.29297 2.197266,-0.14649 5.126953,0.87891 2.636719,6.29883 -1.31836,2.63672 -3.222657,4.83399 -1.757812,2.05078 -3.076172,4.10156 z M 100.6791,109.02872 q 2.92969,-9.082034 11.13281,-9.814456 5.56641,-0.439453 9.66797,-0.439453 4.10156,0 8.78906,-1.464844 -4.6875,13.183593 -10.69336,17.138673 -3.22265,1.9043 -8.93554,2.34375 -4.24805,0.29297 -6.5918,-0.58594 -2.34375,-0.8789 -3.36914,-7.17773 z m -9.66797,77.92968 q 7.03125,-4.98046 9.96094,-10.40039 3.07617,-5.5664 8.34961,-10.54687 0.14648,-1.75781 0.43945,-3.95508 0.29297,-2.19726 0.58594,-4.6875 1.02539,-1.02539 1.61133,-1.17187 4.24804,-1.31836 4.98046,3.80859 0,1.46484 -0.29296,2.92969 -0.14649,1.31836 0.14648,2.34375 0.87891,1.02539 6.5918,2.19726 21.09375,0.73242 38.81836,-15.82031 0,-0.14648 0.8789,-1.31836 1.02539,-1.17187 1.17188,-1.46484 4.39453,-6.5918 7.03125,-27.39258 0.29297,-0.58594 1.61133,-1.31836 3.80859,-1.31836 4.83398,3.80859 -1.31836,18.89649 -5.71289,26.95313 -2.34375,4.24805 -5.27344,7.4707 2.49024,-1.31836 4.98047,-2.49023 2.49023,-1.17188 4.83398,-2.63672 7.47071,-4.54102 10.69336,-17.57813 1.61133,-2.7832 4.6875,-2.49023 3.22266,0.58594 2.49024,4.83398 -3.36914,18.31055 -14.35547,23.73047 -3.51563,1.75781 -7.17773,3.22266 -3.51563,1.31836 -6.88477,2.63672 8.64258,-0.43946 18.75,-2.78321 1.9043,0 2.63672,1.61133 1.31836,2.92969 -2.7832,5.27344 -20.6543,5.71289 -26.22071,5.12695 -3.95508,12.45117 -19.33594,27.39258 -8.49609,8.20313 -17.57812,15.9668 -9.08203,7.61719 -17.87109,15.23437 -19.482426,17.13867 -23.730473,33.39844 33.544923,0.14648 55.664063,0.14648 22.26562,0 40.86914,0 18.60352,0 37.5,0 18.89648,-0.14648 45.99609,-0.14648 2.05079,0 1.61133,-7.32422 -0.29297,-7.32422 -1.02539,-13.62305 -7.91015,0.87891 -14.9414,-8.20312 -7.03125,-9.22852 -6.44532,-21.09375 0.14649,-30.76172 -3.95508,-55.37109 -3.95507,-24.75586 -15.82031,-42.91993 -19.33594,-29.296871 -61.37695,-49.804684 -0.58594,3.66211 -1.31836,6.738282 -1.17188,4.6875 -4.39453,3.076172 -3.07617,-1.025391 -3.22266,-3.955079 0.58594,-2.636718 0.73242,-3.955078 -0.14648,-0.439453 -0.29296,-1.02539 -0.14649,-0.732422 -0.14649,-1.31836 -1.46484,-7.617187 -8.34961,-17.285156 -1.17187,6.152344 -2.34375,8.349609 -1.17187,2.197266 -2.05078,3.808594 -1.61133,2.34375 -2.92969,4.541016 -1.17187,2.197265 -2.7832,4.833984 -1.61133,-1.757812 -3.51563,-4.101562 -1.75781,-2.490235 -3.22265,-4.248047 -1.31836,-1.31836 -2.63672,-2.490235 -1.17188,-1.318359 -4.6875,-2.197265 3.07617,11.425781 -1.61133,15.673828 -2.34375,2.34375 -5.12695,6.298828 -2.7832,3.808594 -6.29883,7.03125 -2.05078,2.197266 -5.126953,5.126953 -2.929687,2.783203 -4.980469,7.32422 -2.783203,8.49609 -10.986328,17.13867 -8.05664,8.49609 -17.724609,17.13867 -21.09375,18.75 -23.876953,27.2461 -3.808594,10.2539 0.439453,19.92187 3.955078,8.64258 10.839844,11.2793 4.101562,1.61133 10.107422,-6.15235 6.445312,-7.76367 8.496093,-7.17773 3.808594,1.02539 2.490235,5.41992 -0.732422,2.49024 -4.6875,7.17774 -4.101563,4.54101 -4.248047,6.00586 -0.732422,1.75781 2.929687,2.7832 4.541016,1.17187 16.992188,-10.98633 1.464844,-1.46484 3.076172,-2.63672 1.757812,-1.31836 3.515625,-2.92969 z m 4.833984,7.03125 q -2.050781,2.19727 -3.369141,3.22266 -1.171875,0.87891 -2.197265,1.75781 -1.31836,1.17188 -9.375,9.66797 -3.369141,3.51563 -8.056641,4.6875 -3.36914,0.87891 -8.642578,-0.73242 -18.310547,-4.83398 -28.857422,-19.33594 -4.248047,-5.41992 -6.005859,-13.03711 -1.611328,-7.76367 1.757812,-19.6289 3.222657,-12.15821 23.144532,-27.39258 21.826171,-16.55274 25.78125,-26.51367 3.222656,-5.71289 7.324218,-12.597659 4.101563,-6.884766 9.814453,-13.330078 3.515627,-2.490235 6.591797,-5.712891 3.22266,-3.369141 6.44531,-6.884766 V 50.141998 q 8.20313,1.611328 11.71875,4.6875 1.75782,1.904297 3.95508,3.515625 2.19727,1.611328 3.95508,3.515625 3.66211,-6.591797 4.6875,-10.986328 0.14648,-1.02539 0.87891,-4.101562 0.8789,-3.076172 1.75781,-10.107422 2.19726,-0.439453 3.80859,1.171875 6.88477,7.470703 12.89063,16.992187 26.80664,10.69336 48.92578,25.341797 22.26562,14.648438 33.98437,30.468755 33.69141,45.70312 33.69141,134.17968 0,18.60352 -1.9043,33.98438 H 68.59902 q -1.904297,-19.04297 20.214844,-40.42969 9.960938,-9.66797 20.654296,-18.75 10.83984,-9.08203 21.09375,-18.45703 19.04297,-17.57813 21.09375,-28.125 -0.73242,-1.75781 -2.7832,-2.34375 -5.12696,3.07617 -10.25391,3.95508 -5.12695,0.8789 -10.10742,1.17187 -3.22266,0.14649 -6.44531,0.29297 -3.07617,0 -7.32422,-1.46484 -5.71289,6.44531 -9.81445,11.13281 -3.95508,4.54102 -9.082036,8.20312 z"
       style="font-size:300px;stroke-width:0.75"
       id="path814" />
  </g>
</svg>
