<?xml version="1.0" encoding="UTF-8" standalone="no"?>
<svg id="svg2" xmlns:rdf="http://www.w3.org/1999/02/22-rdf-syntax-ns#" xmlns="http://www.w3.org/2000/svg" height="100%" width="100%" version="1.1" xmlns:cc="http://creativecommons.org/ns#" xmlns:dc="http://purl.org/dc/elements/1.1/" viewBox="0 0 2048 2048">
 <metadata id="metadata12">
  <rdf:RDF>
   <cc:Work rdf:about="">
    <dc:format>image/svg+xml</dc:format>
    <dc:type rdf:resource="http://purl.org/dc/dcmitype/StillImage"/>
   </cc:Work>
  </rdf:RDF>
 </metadata>
 <g id="g4" transform="matrix(1 0 0 -1 0 2048)">
  <path id="path6" d="m1024 279h489l-12 73h-954l-12-73h489zm0 921q-25 60-62 111 31 48 62 65 30-17 62-65-38-51-62-111zm-97-454q-154-11-303-58-123 108-200 213.5t-77 201.5q0 89 73.5 159t148.5 70q67 0 134.5-62.5t102.5-130.5q30-54 75-175t46-218zm-350-217l-26-156 145 84zm447 907q-47 0-136-121-31 36-50 55 93 140 186 140 92 0 186-140-20-19-50-55-90 121-136 121zm0-775q-1 126-42 267.5t-84 226.5q-8 14-14 27t-12 23q-28 43-48 69-51 63-120 105t-134 42q-103 0-208-93t-105-229q0-120 99-254.5t249-259.5q201 74 419 76zm0-456h-576l61 365q-325 280-326 535-1 159 125 274.5t267 115.5q78 0 158.5-47t142.5-119q61-74 98.5-164.5t49.5-150.5q12 60 49 150.5t99 164.5q61 72 142 119t159 47q140 0 266-115.5t126-274.5q-2-255-326-535l61-365h-576zm97 541q0 97 45 218t76 175q34 68 101.5 130.5t135.5 62.5q74 0 147.5-70t74.5-159q0-96-77-201.5t-200-213.5q-150 47-303 58zm350-217l-119-72 145-84zm-447 132q217-2 419-76 150 125 249 259.5t99 254.5q0 136-105.5 229t-207.5 93q-66 0-135-42t-119-105q-21-26-48-69-6-10-12.5-23l-13.5-27q-44-85-85-226.5t-41-267.5zm-139-159l139-86 139 84-139 86zm92 1248v95h94v-95h107v-95h-107v-153q-48 16-94 0v153h-107v95h107z" fill="currentColor"/>
 </g>
 <path id="path2989" d="m1401.5 1445c-78.866-27.972-280.85-63.49-361.06-63.49-13.573 0-8.3701-92.938 9.9317-177.41 46.541-214.81 134.47-397.66 231.48-481.34 104.29-89.958 202.43-110.29 301.88-62.55 101.71 48.823 168.86 126.48 192.61 222.74 11.952 48.433 12.507 65.835 3.6329 113.99-20.047 108.8-81.379 205.36-221.24 348.3-110 112.43-114.13 115.05-157.24 99.752zm122.82-179.66c134.76-141.46 175.48-214.46 176.19-315.84 0.4683-67.037-13.433-101.84-61.524-154.01-143.41-155.58-315.1-83.452-434.4 182.49-42.621 95.015-76.487 206.1-82.516 270.65-5.7063 61.108-10.231 57.492 84.805 67.765 26.597 2.875 83.221 14.376 125.83 25.557 42.61 11.181 81.974 20.749 87.476 21.263 5.5022 0.5134 52.363-43.533 104.14-97.88z" stroke-miterlimit="3.8" stroke-width="0" fill="#ececec"/>
 <path id="path2991" d="m522.69 1378.8c-239.84-231-308.11-402.69-225.69-567.72 10.71-21.44 41.01-58.68 67.33-82.75 103.39-94.56 209.18-117.58 309-67.24 104.94 52.92 177.34 137.23 237.92 277.02 58.53 135.09 104.05 310.19 104.05 400.09v41.936l-58.576 5.339c-104.01 9.4797-214.78 29.587-283.86 51.525l-67.445 21.418-82.743-79.67zm186.38-35.874c46.727-11.709 106.44-23.66 132.69-26.558 95.023-10.492 89.914-6.2064 83.92-70.397-6.617-70.859-56.457-218.83-106.45-316.05-88.352-171.8-210.07-249.01-320.08-203.05-44.16 18.451-116.44 87.495-135.75 129.68-19.051 41.607-20.987 132.18-3.8518 180.21 22.655 63.493 71.076 130.94 164.15 228.64 51.772 54.348 95.548 98.814 97.279 98.814 1.7314 0 41.379-9.5798 88.106-21.288z" stroke-miterlimit="3.8" stroke-width="0" fill="#ececec"/>
 <path id="path2993" d="m1003.4 949.74c-16.55-50.56-72.08-164.2-97.34-199.14-13.352-18.472-11.901-21.121 41.579-75.932 38.004-38.95 61.994-56.792 76.361-56.792s38.357 17.842 76.361 56.792c53.717 55.054 54.98 57.378 41.28 75.932-24.022 32.532-99.744 191.13-105.47 220.9-2.9834 15.512-7.9186 28.175-10.967 28.141-3.0485-0.0347-12.872-22.489-21.829-49.898zm56.667-157.68 31.702-59.818-28.534-31.151c-15.694-17.133-33.338-31.151-39.21-31.151-5.8719 0-23.516 14.018-39.21 31.151l-28.534 31.151 31.702 59.818c17.436 32.9 33.655 59.818 36.041 59.818 2.3864 0 18.605-26.918 36.041-59.818z" stroke-miterlimit="3.8" stroke-width="0" fill="#ececec"/>
 <path id="path2995" d="m961.08 1587.6c-32.217-20.136-58.543-38.607-58.502-41.046 0.0409-2.4394 27.067-21.086 60.057-41.438l59.983-37.003 61.434 36.958c33.789 20.327 61.434 39.462 61.434 42.522 0 4.9152-115.84 77.234-123.01 76.792-1.552-0.096-29.181-16.649-61.398-36.785z" stroke-miterlimit="3.8" stroke-width="0" fill="#ececec"/>
 <path id="path2997" d="m558.78 1652.3c2.3664-8.1326 6.9634-34.312 10.215-58.176 8.9942-66.001 11.04-67.192 62.33-36.286 25.058 15.099 45.559 29.911 45.559 32.917 0 3.0053-27.542 21.41-61.204 40.898-45.117 26.121-60.073 31.548-56.901 20.648z" stroke-miterlimit="3.8" stroke-width="0" fill="#ececec"/>
 <path id="path2999" d="m1431.9 1631.7c-31.024-18.304-57.393-36.23-58.598-39.834-2.4479-7.3215 86.946-63.409 92.388-57.966 3.4172 3.4172 26.464 128.97 23.928 130.36-0.7217 0.3952-26.695-14.258-57.719-32.562z" stroke-miterlimit="3.8" stroke-width="0" fill="#ececec"/>
 <path id="path3001" d="m545.06 1733 3.5459-30.373h475.39 475.39l3.5458 30.373 3.5459 30.373h-482.48-482.48l3.5459-30.373z" stroke-miterlimit="3.8" stroke-width="0" fill="#ececec"/>
</svg>
