<?xml version="1.0" encoding="UTF-8" standalone="no"?>
<svg id="svg2" xmlns:rdf="http://www.w3.org/1999/02/22-rdf-syntax-ns#" xmlns="http://www.w3.org/2000/svg" height="100%" width="100%" version="1.1" xmlns:cc="http://creativecommons.org/ns#" xmlns:dc="http://purl.org/dc/elements/1.1/" viewBox="0 0 2048 2048">
 <metadata id="metadata12">
  <rdf:RDF>
   <cc:Work rdf:about="">
    <dc:format>image/svg+xml</dc:format>
    <dc:type rdf:resource="http://purl.org/dc/dcmitype/StillImage"/>
   </cc:Work>
  </rdf:RDF>
 </metadata>
 <g id="g4" transform="matrix(1 0 0 -1 0 2048)">
  <path id="path6" d="m502 1180l-52-1-26-64 69-21 46 55zm536 187q34-1-16 68t-80 42l-116-109zm-338 98q6 39 115.5 107.5t220.5 143.5l115 154 96-217q342-172 432.5-417.5t47.5-603.5q-18-128 4.5-236t57.5-190l-1242-1q-9 178 39 301.5t183 237.5q50 11 82.5 39.5t53.5 58.5l62.5 1t138 29 139 97 66.5 207q0 17-8.5 34t-11.5 37q-62-228-161-288.5t-191-58.5q-236 42-292-60l-56-102-217 121 115 82-51 50-122-86-12 297zm981-1192q-102 130-85 308.5t27 362.5-50 351.5-316 275.5q220-164 252.5-342t16.5-350.5-12-329 167-276.5z" fill="currentColor"/>
 </g>
 <path id="path2989" d="m1601.3 1693c-81.081-89.747-91.584-156.54-74.228-472.05 20.379-370.45-8.7512-495.12-150.56-644.34-28.348-29.831-47.814-54.237-43.256-54.237 17.017 0 100.11 58.435 144.65 101.73 57.052 55.451 86.14 107.89 109.64 197.66 34.994 133.69 37.544 201.94 17.328 463.82-19.991 258.96-17.542 312.62 18.058 395.67 9.6985 22.626 16.13 42.64 14.294 44.477-1.8371 1.8371-18.004-12.891-35.926-32.729z" stroke-miterlimit="3.8" stroke-width="0" fill="#ececec"/>
 <path id="path2991" d="m896.7 621.33c55.683-53.268 60.422-55.961 78.102-44.378 26.068 17.078 76.403 84.066 70.43 93.731-2.6971 4.3639-50.558 7.8045-106.36 7.6458l-101.45-0.2886 59.28-56.71z" stroke-miterlimit="3.8" stroke-width="0" fill="#ececec"/>
 <path id="path2993" d="m464.27 941.45c-27.441-6.6005-31.269-14.684-20.96-44.258 7.6825-22.038 14.483-27.656 33.481-27.656 13.112 0 30.363 7.2075 38.335 16.017 13.592 15.019 13.367 17.451-3.6239 39.051-9.9653 12.669-20.764 22.581-23.997 22.028-3.2332-0.55366-13.689-2.8852-23.235-5.1813z" stroke-miterlimit="3.8" stroke-width="0" fill="#ececec"/>
</svg>
