<?xml version="1.0" encoding="UTF-8" standalone="no"?>
<svg id="svg2" xmlns:rdf="http://www.w3.org/1999/02/22-rdf-syntax-ns#" xmlns="http://www.w3.org/2000/svg" height="100%" width="100%" version="1.1" xmlns:cc="http://creativecommons.org/ns#" xmlns:dc="http://purl.org/dc/elements/1.1/" viewBox="0 0 2048 2048">
 <metadata id="metadata12">
  <rdf:RDF>
   <cc:Work rdf:about="">
    <dc:format>image/svg+xml</dc:format>
    <dc:type rdf:resource="http://purl.org/dc/dcmitype/StillImage"/>
   </cc:Work>
  </rdf:RDF>
 </metadata>
 <g id="g4" transform="matrix(1 0 0 -1 0 2048)">
  <path id="path6" d="m590 529q4-72-15-158l134 86zm434-324h-583q114 231 57.5 456.5t-202.5 449.5q-12-2-19-2-54 0-92.5 38.5t-38.5 92.5 38.5 92.5 92.5 38.5 92.5-38.5 38.5-92.5q0-20-6-38-4-14-15-33l196-139 100 486q-64 31-72 103-5 44 29 91t88 53q54 5 96-29t48-88q7-68-46-114l198-412 198 412q-54 46-46 114 6 54 48 88t96 29q54-6 87.5-53t29.5-91q-9-72-72-103l100-486 196 139q-12 19-15 33-6 18-6 38 0 54 38.5 92.5t92.5 38.5 92.5-38.5 38.5-92.5-38.5-92.5-92.5-38.5q-7 0-19 2-147-224-203-449.5t58-456.5h-583zm0 450q109 0 222-28.5t213-67.5q2 41 11 89-108 42-221.5 68t-224.5 26-225-26-221-68q8-48 11-89 99 39 212 67.5t223 28.5zm0-376h478q-15 34-24 73h-908q-10-39-24-73h478zm434 250l-119-72 134-86q-20 86-15 158zm-573-47l139-87 139 84-139 86z" fill="currentColor"/>
 </g>
 <path id="path2989" d="m555.39 1758.6c0-1.6742 4.2871-15.342 9.5269-30.373l9.5269-27.329h449.56 449.56l9.5268 27.329c5.2399 15.031 9.527 28.699 9.527 30.373 0 1.6742-210.87 3.044-468.61 3.044s-468.61-1.3698-468.61-3.044z" stroke-miterlimit="3.8" stroke-width="0" fill="#ececec"/>
 <path id="path2991" d="m952.36 1602.4-58.62-37.252 65.137-37.269 65.137-37.269 60.737 36.083c33.406 19.846 60.662 38.838 60.571 42.204-0.2311 8.5096-108.89 71.257-122.91 70.98-6.2872-0.1242-37.81-16.989-70.052-37.478z" stroke-miterlimit="3.8" stroke-width="0" fill="#ececec"/>
 <path id="path2993" d="m1412.9 1632.7c-27.123-17.371-49.385-35.488-49.472-40.261-0.086-4.7729 20.152-21.507 44.975-37.186l45.133-28.508 5.2025 67.559c2.8614 37.158 4.8139 68.104 4.339 68.769-0.475 0.6655-23.055-13.002-50.178-30.373z" stroke-miterlimit="3.8" stroke-width="0" fill="#ececec"/>
 <path id="path2995" d="m588.8 1452.5c-0.71593-16.14-1.6922-33.641-2.1695-38.893-2.0952-23.054 203.92-80.786 343.77-96.337 72.024-8.0087 114.69-8.0855 184.08-0.3314 140.57 15.709 348.97 73.783 346.89 96.669-0.4773 5.2515-1.4536 22.753-2.1695 38.893l-1.3017 29.344-101.97-32.592c-133.92-42.805-210.81-55.709-331.93-55.709-121.13 0-198.02 12.904-331.93 55.709l-101.94 32.6-1.3-29.4z" stroke-miterlimit="3.8" stroke-width="0" fill="#ececec"/>
 <path id="path2997" d="m587.65 1602.8c2.1112-34.33 4.5236-65.41 5.3611-69.067 0.83744-3.657 24.251 7.5677 52.03 24.944s47.284 34.594 43.343 38.261c-3.9406 3.6676-29.082 20.531-55.869 37.474l-48.704 30.806 3.8384-62.418z" stroke-miterlimit="3.8" stroke-width="0" fill="#ececec"/>
</svg>
