<?xml version="1.0" encoding="UTF-8" standalone="no"?>
<svg id="svg2" xmlns:rdf="http://www.w3.org/1999/02/22-rdf-syntax-ns#" xmlns="http://www.w3.org/2000/svg" height="100%" width="100%" version="1.1" xmlns:cc="http://creativecommons.org/ns#" xmlns:dc="http://purl.org/dc/elements/1.1/" viewBox="0 0 2048 2048">
 <metadata id="metadata12">
  <rdf:RDF>
   <cc:Work rdf:about="">
    <dc:format>image/svg+xml</dc:format>
    <dc:type rdf:resource="http://purl.org/dc/dcmitype/StillImage"/>
   </cc:Work>
  </rdf:RDF>
 </metadata>
 <g id="g4" transform="matrix(1 0 0 -1 0 2048)">
  <path id="path6" d="m1024 205h-641l29 264 159 118 50 659-149 107-17 341h289v-147h137v147h286v-147h137v147h289l-17-341-149-107 50-659 159-118 29-264h-641zm0 989h333l-6 88h-654l-6-88h333zm0-647h381l-6 87h-750l-6-87h381z" fill="currentColor"/>
 </g>
 <path id="path2989" d="m650.85 1457v-39.051h373.15 373.15v39.051 39.051h-373.15-373.15v-39.051z" stroke-miterlimit="3.8" stroke-width="0" fill="#ececec"/>
 <path id="path2991" d="m694.24 837.64c0-8.9492 2.4407-28.475 5.4237-43.39l5.4237-27.119h318.92 318.92l5.4237 27.119c13.066 65.329 43.88 59.661-324.34 59.661-316.65 0-329.76-0.64703-329.76-16.271z" stroke-miterlimit="3.8" stroke-width="0" fill="#ececec"/>
</svg>
