<?xml version="1.0" encoding="UTF-8" standalone="no"?>
<svg id="svg2" xmlns:rdf="http://www.w3.org/1999/02/22-rdf-syntax-ns#" xmlns="http://www.w3.org/2000/svg" height="100%" width="100%" version="1.1" xmlns:cc="http://creativecommons.org/ns#" xmlns:dc="http://purl.org/dc/elements/1.1/" viewBox="0 0 2048 2048">
 <metadata id="metadata12">
  <rdf:RDF>
   <cc:Work rdf:about="">
    <dc:format>image/svg+xml</dc:format>
    <dc:type rdf:resource="http://purl.org/dc/dcmitype/StillImage"/>
   </cc:Work>
  </rdf:RDF>
 </metadata>
 <g id="g4" transform="matrix(1 0 0 -1 0 2048)">
  <path id="path6" d="m1024 1692q66 0 64 66 1 55-64 55-66 0-64-55-3-66 64-66zm0-1204q0-114-101-198.5t-223-84.5h-495q0 117 65 179t142 62h250q51 0 88 7t71 60q12 20 10 16h76q-7-21-3-13-45-105-109-124.5t-146-19.5h-240q-52 0-86-40t-34-53h424q66 0 158.5 65t93.5 185h-341q67 116 72 229-114 119-162 223.5t-6 223.5q33 96 118 189.5t312 246.5q-17 11-46 36t-29 79q0 58 41 96t100 38q58 0 99.5-38t41.5-96q0-54-29.5-79t-45.5-36q226-153 311-246.5t119-189.5q42-119-6-223.5t-162-223.5q4-113 72-229h-341q0-120 93-185t159-65h424q0 13-34.5 53t-85.5 40h-240q-83 0-146.5 19.5t-108.5 124.5q4-8-3 13h76q-2 4 10-16 33-53 70-60t89-7h250q76 0 141.5-62t65.5-179h-495q-123 0-223.5 84.5t-100.5 198.5zm0 114h283q-28 84-29 154-120 41-254 38-135 3-254-38-2-70-29-154h283zm0 267q159 1 285-42 189 180 142 346-60 193-427 431-368-238-427-431-48-166 142-346 125 43 285 42zm-47 361v104h94v-104h95v-89h-95v-165h-94v165h-95v89h95z" fill="currentColor"/>
 </g>
 <path id="path3009" d="m980.18 333.34c-22.189-22.189-22.189-55.912 0-78.102 35.838-35.838 104.14-10.227 104.14 39.051 0 29.457-29.023 56.407-60.746 56.407-14.463 0-33.748-7.7138-43.39-17.356z" stroke-miterlimit="3.8" stroke-width="0" fill="#f9f9f9"/>
 <path id="path3011" d="m691.56 1162.9c-86.02-103.3-118.43-217.49-85.21-300.2 23.46-58.4 87.63-145.48 152.86-207.44 66.65-63.32 193.83-161.72 243.79-188.62l27.338-14.722 90.794 66.167c230.31 167.84 347.23 323.44 333.17 443.41-6.8093 58.115-46.04 138.16-98.716 201.43l-44.049 52.902-63.71-17.462c-53.166-14.572-90.28-17.462-224.25-17.462s-171.09 2.8898-224.25 17.462l-63.71 17.462-44.049-52.902zm384.08-165.72v-82.441h47.729 47.729v-52.068-52.068h-47.729-47.729v-52.068-52.068h-52.068-52.068v52.068 52.068h-47.729-47.729v52.068 52.068h47.729 47.729v82.441 82.441h52.068 52.068v-82.441z" stroke-miterlimit="3.8" stroke-width="0" fill="#f9f9f9"/>
 <path id="path3013" d="m745.98 1442c0.0566-1.1933 5.8679-23.648 12.914-49.898 7.046-26.251 12.857-58.359 12.914-71.351 0.0923-21.157 5.3096-25.232 50.001-39.051 70.888-21.919 331.58-22.261 401.71-0.5277l48.083 14.901 10.223 59.618c5.6228 32.79 12.715 66.111 15.761 74.048 5.0923 13.27-16.858 14.43-273.09 14.43-153.24 0-278.58-0.9762-278.52-2.1694z" stroke-miterlimit="3.8" stroke-width="0" fill="#f9f9f9"/>
 <path id="path3015" d="m312.23 1738.8c38.203-53.651 46.225-55.575 255.33-61.237 105.27-2.8505 205.33-9.687 222.44-15.198 38.632-12.44 87.307-60.141 107.85-105.69 12.794-28.372 19.886-34.478 40.046-34.478 22.92 0 24.164 1.8183 19.307 28.203-15.617 84.836-58.861 136.72-153.91 184.65l-59.742 30.128h-225.05-225.05l18.788-26.385z" stroke-miterlimit="3.8" stroke-width="0" fill="#f9f9f9"/>
 <path id="path3017" d="m1243.9 1735.1c-95.591-48.207-135.09-94.003-150.02-173.92-7.1192-38.108-6.7916-38.926 15.471-38.674 18.44 0.2092 28.17 9.6524 51.416 49.898 53.855 93.238 92.612 105.79 327.12 105.96 183.71 0.1298 205 5.2158 245.52 58.666l21.383 28.203h-225.57-225.57l-59.742-30.128z" stroke-miterlimit="3.8" stroke-width="0" fill="#f9f9f9"/>
</svg>
