<?xml version="1.0" encoding="UTF-8" standalone="no"?>
<svg id="svg2" xmlns:rdf="http://www.w3.org/1999/02/22-rdf-syntax-ns#" xmlns="http://www.w3.org/2000/svg" height="100%" width="100%" version="1.1" xmlns:cc="http://creativecommons.org/ns#" xmlns:dc="http://purl.org/dc/elements/1.1/" viewBox="0 0 2048 2048">
 <metadata id="metadata12">
  <rdf:RDF>
   <cc:Work rdf:about="">
    <dc:format>image/svg+xml</dc:format>
    <dc:type rdf:resource="http://purl.org/dc/dcmitype/StillImage"/>
   </cc:Work>
  </rdf:RDF>
 </metadata>
 <g id="g4" transform="matrix(1 0 0 -1 0 2048)">
  <path id="path6" d="m977 1750v95h94v-95h107v-95h-107v-153q-48 16-94 0v153h-107v95h107zm47-314q-47 0-136-121-31 36-50 55 93 140 186 140 92 0 186-140-20-19-50-55-90 121-136 121zm-447-907l-26-156 145 84zm410 206q-1 147-36.5 274.5t-80.5 193.5q-45 88-131.5 153t-168.5 65q-103 0-208-93t-105-229q0-109 86.5-236t202.5-223q212 88 441 95zm37-530h-576l61 365q-325 280-326 535-1 159 125 274.5t267 115.5q78 0 158.5-47t142.5-119q61-74 98.5-164.5t49.5-150.5q12 60 49 150.5t99 164.5q61 72 142 119t159 47q140 0 266-115.5t126-274.5q-2-255-326-535l61-365h-576zm0 74h489l-50 298q-216 84-439 84t-439-84l-50-298h489zm447 250l26-156-145 84zm-410 206q229-7 441-95 115 96 202 223t87 236q0 136-105.5 229t-207.5 93q-83 0-169.5-65t-130.5-153q-46-66-81.5-193.5t-35.5-274.5zm-176-233l141 84 137-86-141-84z" fill="currentColor"/>
 </g>
 <path id="path2989" d="m467.47 1324.7c-134.73-139.3-200.42-259.6-201.72-369.26-1.0482-88.456 19.993-141.28 83.192-208.83 138.72-148.29 296.8-148.96 437.61-1.8588 62.504 65.296 107.3 142.85 142.49 246.69 27.829 82.114 51.475 207.49 51.532 273.23 0.0382 44.376-8.3591 50.526-69.389 50.82-55.252 0.266-185.22 26.978-277.69 57.074l-91.119 29.655-74.9-77.48z" stroke-miterlimit="3.8" stroke-width="0" fill="#f9f9f9"/>
 <path id="path2991" d="m1012.3 976.98c-8.8869-44.435-58.19-154.84-89.417-200.24l-29.692-43.164 32.064-39.129c78.297-95.551 119.29-95.551 197.59 0l32.064 39.129-29.692 43.164c-31.227 45.396-80.53 155.81-89.417 200.24-6.6965 33.483-16.797 33.483-23.494 0z" stroke-miterlimit="3.8" stroke-width="0" fill="#f9f9f9"/>
 <path id="path2993" d="m470.38 1325.7c-144.2-160.9-192.66-246.9-199.54-354.06-5.0514-78.712 8.7378-131.79 47.396-182.43 15.887-20.813 28.886-41.714 28.886-46.445 0-4.7316 4.3658-8.6029 9.7018-8.6029s23.707-12.297 40.824-27.326c77.146-67.735 174.23-86.488 259.19-50.068 155.95 66.848 266.03 245.2 309.82 501.97 23.774 139.4 17.619 156.84-55.329 156.84-58.32 0-162.09 20.978-264.79 53.531-47.743 15.132-91.748 28.467-97.788 29.633-6.0399 1.1657-41.307-31.713-78.371-73.065z" stroke-miterlimit="3.8" stroke-width="0" fill="#f9f9f9"/>
 <path id="path2995" d="m1410.1 1371.3c-88.696-28.986-218.81-55.564-273.29-55.826-62.597-0.3014-69.424-5.8269-69.424-56.191 0-67.358 23.449-189.88 52.021-271.8 35.034-100.46 80.949-178.92 142.04-242.74 140.81-147.1 298.9-146.43 437.61 1.8588 63.306 67.675 84.296 120.44 83.067 208.83-1.0173 73.188-26.162 140.49-85.562 229.03-41.974 62.562-160.48 195.59-185.36 208.07-9.1713 4.6015-45.226-2.9688-101.1-21.227z" stroke-miterlimit="3.8" stroke-width="0" fill="#f9f9f9"/>
 <path id="path2997" d="m544.13 1734.3c7.759-50.494 14.791-58.425 90.536-102.11l70.887-40.887-46.876-28.476c-72.085-43.79-77.932-49.597-71.928-71.442 5.9995-21.83 81.418-49.372 212.72-77.681 102.1-22.015 346.98-22.015 449.08 0 131.3 28.31 206.72 55.852 212.72 77.681 6.0036 21.844 0.1562 27.652-71.928 71.442l-46.876 28.476 70.887 40.887c75.745 43.69 82.777 51.621 90.536 102.11l5.0006 32.542h-484.87-484.87l5.0005-32.542zm550.12-138.77c37.76-22.629 67.423-44.841 65.916-49.361-1.5065-4.5195-32.234-26.708-68.283-49.308l-65.544-41.091-67.726 40.639c-37.249 22.352-68.872 44.506-70.273 49.231-2.0265 6.836 121.99 91.033 134.09 91.033 1.741 0 34.06-18.515 71.82-41.144z" stroke-miterlimit="3.8" stroke-width="0" fill="#f9f9f9"/>
</svg>
