<?xml version="1.0" encoding="UTF-8" standalone="no"?>
<svg id="svg2" xmlns:rdf="http://www.w3.org/1999/02/22-rdf-syntax-ns#" xmlns="http://www.w3.org/2000/svg" height="100%" width="100%" version="1.1" xmlns:cc="http://creativecommons.org/ns#" xmlns:dc="http://purl.org/dc/elements/1.1/" viewBox="0 0 2048 2048">
 <metadata id="metadata12">
  <rdf:RDF>
   <cc:Work rdf:about="">
    <dc:format>image/svg+xml</dc:format>
    <dc:type rdf:resource="http://purl.org/dc/dcmitype/StillImage"/>
   </cc:Work>
  </rdf:RDF>
 </metadata>
 <g id="g4" transform="matrix(1 0 0 -1 0 2048)">
  <path id="path6" d="m520 279h1008q8 97-132 182-132 101-196.5 239.5t-79.5 308.5h-192q-15-170-79.5-308.5t-196.5-239.5q-141-85-132-182zm504-74h-578v74q-4 80 41.5 137t125.5 108q117 91 171.5 217.5t78.5 267.5h-287l284 239q-86 74-86 188 0 103 73 177t177 74q103 0 176.5-74t73.5-177q0-114-86-188l284-239h-287q23-141 78-267.5t172-217.5q79-51 124.5-108t42.5-137v-74h-578zm-268 869h536l-225 191q134 31 134 171 0 76-52.5 126.5t-124.5 50.5q-73 0-125-50.5t-52-126.5q0-140 134-171z" fill="currentColor"/>
 </g>
 <path id="path2989" d="m873.46 881.35c56.548-47.912 103.9-90.225 105.23-94.028 1.3289-3.8032-13.56-14.119-33.086-22.924-152.25-68.656-108.09-302.54 60.901-322.55 35.536-4.2087 51.159-1.0432 90.959 18.429 129.28 63.25 132.26 246.71 4.938 304.12-19.526 8.8052-34.415 19.121-33.086 22.924 1.3289 3.8032 48.683 46.116 105.23 94.028l102.81 87.114h-253.36-253.36l102.81-87.114z" stroke-miterlimit="3.8" stroke-width="0" fill="#f9f9f9"/>
 <path id="path2991" d="m781.02 961.87c0-3.6248 7.0289-10.98 15.62-16.345 21.196-13.237 178.93-152.07 182.42-160.56 1.5323-3.7286-7.2542-9.2992-19.525-12.379-12.271-3.0799-22.311-8.4217-22.311-11.871 0-3.4489-9.7237-11.475-21.608-17.835-49.579-26.534-72.352-127.53-44.037-195.3 5.9835-14.32 11.486-28.966 12.228-32.546 2.2115-10.668 35.372-41.22 44.739-41.22 4.7729 0 8.678-3.2344 8.678-7.1875 0-13.201 81.947-26.787 115.68-19.178 50.734 11.442 116.79 62.13 126.21 96.842 19.736 72.752 19.432 102.64-1.4539 142.97-15.955 30.812-66.016 77.403-92.046 85.665-10.546 3.3474-17.984 8.9494-16.528 12.449 3.4189 8.2177 161.76 147.33 182.28 160.14 8.5909 5.3651 15.62 12.72 15.62 16.345 0 3.6248-109.34 6.5905-242.98 6.5905s-242.98-2.9657-242.98-6.5905z" stroke-miterlimit="3.8" stroke-width="0" fill="#f9f9f9"/>
 <path id="path2993" d="m520.68 1757.9c0-15.851 26.236-72.335 41.551-89.456 8.1705-9.1339 50.107-45.024 93.192-79.756 152.94-123.29 233.59-266.51 265.98-472.36l10.973-69.738h91.626 91.626l10.973 69.738c31.04 197.27 113.68 349.53 248.11 457.12 115.04 92.077 133.84 113.73 147.22 169.55l5.7222 23.864h-503.49c-340.32 0-503.49-2.9027-503.49-8.9567z" stroke-miterlimit="3.8" stroke-width="0" fill="#f9f9f9"/>
</svg>
