<?xml version="1.0" encoding="UTF-8" standalone="no"?>
<svg id="svg2" xmlns:rdf="http://www.w3.org/1999/02/22-rdf-syntax-ns#" xmlns="http://www.w3.org/2000/svg" height="100%" width="100%" version="1.1" xmlns:cc="http://creativecommons.org/ns#" xmlns:dc="http://purl.org/dc/elements/1.1/" viewBox="0 0 2048 2048">
 <metadata id="metadata12">
  <rdf:RDF>
   <cc:Work rdf:about="">
    <dc:format>image/svg+xml</dc:format>
    <dc:type rdf:resource="http://purl.org/dc/dcmitype/StillImage"/>
   </cc:Work>
  </rdf:RDF>
 </metadata>
 <g id="g4" transform="matrix(1 0 0 -1 0 2048)">
  <path id="path6" d="m1024 279h478q-53 130-43 280-100 39-213 67.5t-222 28.5q-110 0-223-28.5t-212-67.5q9-150-43-280h478zm0 450q111 0 223.5-26.5t220.5-67.5q17 105 60.5 212.5t105.5 212.5l-220-155-123 601-267-555-267 555-123-601-220 155q61-105 104.5-212.5t61.5-212.5q108 41 220.5 67.5t223.5 26.5zm0-524h-583q114 231 57.5 456.5t-202.5 449.5q-12-2-19-2-54 0-92.5 38.5t-38.5 92.5 38.5 92.5 92.5 38.5 92.5-38.5 38.5-92.5q0-20-6-38-4-14-15-33l196-139 100 486q-64 31-72 103-5 44 29 91t88 53q54 5 96-29t48-88q7-68-46-114l198-412 198 412q-54 46-46 114 6 54 48 88t96 29q54-6 87.5-53t29.5-91q-9-72-72-103l100-486 196 139q-12 19-15 33-6 18-6 38 0 54 38.5 92.5t92.5 38.5 92.5-38.5 38.5-92.5-38.5-92.5-92.5-38.5q-7 0-19 2-147-224-203-449.5t58-456.5h-583zm-748 1097q-62 0-62-62t62-62q63 0 63 62t-63 62zm466 394q-62 0-62-62t62-62 62 62-62 62zm-152-1167l119-72-134-86q19 86 15 158zm1182 773q-63 0-63-62t63-62q62 0 62 62t-62 62zm-466 394q-62 0-62-62t62-62 62 62-62 62zm152-1167l-119-72 134-86q-20 86-15 158zm-573-47l139 83 139-86-139-84z" fill="currentColor"/>
 </g>
 <path id="path2989" d="m576.77 1374.2c-14.267-66.74-52.328-173.44-91.813-257.39-23.37-49.688-40.834-91.999-38.81-94.024 2.0248-2.0248 45.83 26.176 97.344 62.668l93.663 66.349 58.447-284.73c32.146-156.6 59.632-290.3 61.082-297.11 1.4494-6.8093 60.945 109.37 132.21 258.17 71.267 148.8 132.06 270.55 135.1 270.55 3.0387 0 63.834-121.75 135.1-270.55 71.267-148.8 130.76-264.98 132.21-258.17 1.4494 6.8093 28.936 140.51 61.082 297.11l58.447 284.73 93.663-66.349c51.515-36.492 95.542-64.47 97.839-62.173 2.2971 2.297-11.956 36.263-31.675 75.48-38.474 76.521-78.317 184.4-95.314 258.09-5.7805 25.058-13.049 45.49-16.153 45.406-3.1036-0.084-41.66-11.521-85.681-25.415-142.54-44.987-212.99-56.344-349.52-56.344s-206.99 11.357-349.52 56.344c-44.021 13.894-82.657 25.331-85.857 25.415-3.2004 0.084-8.532-12.538-11.848-28.05z" stroke-miterlimit="3.8" stroke-width="0" fill="#f9f9f9"/>
 <path id="path2991" d="m558.93 1747.3c3.058-10.739 7.7714-29.588 10.474-41.887 3.5737-16.262 23.603-34.016 73.424-65.085 37.681-23.498 68.568-45.204 68.64-48.236 0.0712-3.032-27.206-22.029-60.616-42.216s-60.746-41.339-60.746-47.005c0-12.768 141.32-59.812 251.36-83.673 110.96-24.062 254.12-24.062 365.08 0 110.04 23.861 251.36 70.905 251.36 83.673 0 5.6661-27.336 26.818-60.746 47.005s-60.66 39.184-60.554 42.216c0.1054 3.0321 29.429 23.901 65.164 46.376 62.842 39.523 73.804 52.953 87.38 107.05l5.349 21.312h-470.56-470.56l5.56-19.525zm538.53-132.99c35.966-21.835 65.373-42.337 65.348-45.559-0.054-7.1432-127.71-88.299-138.9-88.299-14.728 0-139.63 79.827-137.01 87.566 3.4017 10.048 121 84.655 134.62 85.41 5.7968 0.3212 39.966-17.281 75.932-39.117z" stroke-miterlimit="3.8" stroke-width="0" fill="#f9f9f9"/>
 <path id="path2993" d="m1738.2 857.44c-27.924-17.75-27.853-81.328 0.1106-99.109 35.336-22.468 92.745 8.2273 92.745 49.589 0 41.431-57.414 72.05-92.856 49.52z" stroke-miterlimit="3.8" stroke-width="0" fill="#f9f9f9"/>
 <path id="path2995" d="m1284.3 467.98c-34.276-12.725-46.693-67.717-21.075-93.335 17.576-17.576 67.964-17.576 85.54 0 16.362 16.362 17.817 55.675 2.7893 75.348-12.148 15.903-47.442 25.342-67.254 17.987z" stroke-miterlimit="3.8" stroke-width="0" fill="#f9f9f9"/>
 <path id="path2997" d="m720.27 467.98c-34.276-12.725-46.693-67.717-21.075-93.335 17.576-17.576 67.964-17.576 85.54 0 16.362 16.362 17.817 55.675 2.7894 75.348-12.148 15.903-47.442 25.342-67.254 17.987z" stroke-miterlimit="3.8" stroke-width="0" fill="#f9f9f9"/>
 <path id="path2999" d="m234.31 846.97c-22.189-22.189-22.189-55.912 0-78.102 17.441-17.441 56.099-22.802 75.5-10.47 27.924 17.75 27.853 81.328-0.11061 99.109-19.299 12.271-57.988 6.8631-75.389-10.538z" stroke-miterlimit="3.8" stroke-width="0" fill="#f9f9f9"/>
</svg>
