<?xml version="1.0" encoding="UTF-8" standalone="no"?>
<svg id="svg2" xmlns:rdf="http://www.w3.org/1999/02/22-rdf-syntax-ns#" xmlns="http://www.w3.org/2000/svg" height="100%" width="100%" version="1.1" xmlns:cc="http://creativecommons.org/ns#" xmlns:dc="http://purl.org/dc/elements/1.1/" viewBox="0 0 2048 2048">
 <metadata id="metadata12">
  <rdf:RDF>
   <cc:Work rdf:about="">
    <dc:format>image/svg+xml</dc:format>
    <dc:type rdf:resource="http://purl.org/dc/dcmitype/StillImage"/>
   </cc:Work>
  </rdf:RDF>
 </metadata>
 <g id="g4" transform="matrix(1 0 0 -1 0 2048)">
  <path id="path6" d="m1024 547h-381l5 74h752l5-74h-381zm0 661h-332l5 74h654l5-74h-332zm0-1003h-641l29 264 159 118 50 659-149 107-17 341h289v-147h137v147h286v-147h137v147h289l-17-341-149-107 50-659 159-118 29-264h-641zm0 74h557l-15 149-161 119-54 735 152 109 13 230h-138v-148h-285v148h-138v-148h-285v148h-138l13-230 152-109-54-735-161-119-15-149h557z" fill="currentColor"/>
 </g>
 <path id="path2989" d="m655.83 1378.5c5.0226-49.684 38.405-500.57 38.405-518.72 0-11.062 44.868-12.804 329.76-12.804s329.76 1.7421 329.76 12.804c0 18.154 33.382 469.04 38.405 518.72l4.167 41.22h-372.33-372.33l4.167-41.22z" stroke-miterlimit="3.8" stroke-width="0" fill="#f9f9f9"/>
 <path id="path2991" d="m624.78 707.65-73.733-52.543-5.6472-71.118c-3.106-39.115-6.0348-89.667-6.5085-112.34l-0.86129-41.22h65.085 65.085v73.763 73.763h147.53 147.53v-73.763-73.763h60.746 60.746v73.763 73.763h147.53 147.53v-73.763-73.763h65.085 65.085l-0.8609 41.22c-0.4738 22.671-3.4025 73.224-6.5084 112.34l-5.6476 71.118-73.734 52.543-73.734 52.543h-325.48-325.48l-73.733-52.543z" stroke-miterlimit="3.8" stroke-width="0" fill="#f9f9f9"/>
 <path id="path2993" d="m471.67 1751.6c2.3244-8.3526 6.7514-41.06 9.8379-72.684l5.6117-57.497 79.335-57.486 79.335-57.486h378.21 378.21l79.335 57.486 79.335 57.486 5.6117 57.497c3.0865 31.623 7.5136 64.331 9.838 72.684 3.9931 14.349-26.452 15.186-552.33 15.186s-556.33-0.8371-552.33-15.186z" stroke-miterlimit="3.8" stroke-width="0" fill="#f9f9f9"/>
</svg>
