<?xml version="1.0" encoding="UTF-8" standalone="no"?>
<svg id="svg2" xmlns:rdf="http://www.w3.org/1999/02/22-rdf-syntax-ns#" xmlns="http://www.w3.org/2000/svg" height="256pt" width="256pt" version="1.1" xmlns:cc="http://creativecommons.org/ns#" xmlns:dc="http://purl.org/dc/elements/1.1/" viewBox="0 0 256 256">
 <metadata id="metadata45">
  <rdf:RDF>
   <cc:Work rdf:about="">
    <dc:format>image/svg+xml</dc:format>
    <dc:type rdf:resource="http://purl.org/dc/dcmitype/StillImage"/>
   </cc:Work>
  </rdf:RDF>
 </metadata>
 <g id="g3000" transform="matrix(.85 0 0 .85 19.201 30.392)">
  <g id="#2f2f2fff" fill="#2f2f2f">
   <path id="path5" d="m136.36 28.26c7.95-3.15 16.04-6.28 24.56-7.41 2.71-0.32 6.27-0.21 7.79 2.47 1.07 1.66 0.03 3.52-0.38 5.22-5.07 14-5.32 29.24-3.75 43.9 10.88 5.82 20.76 13.63 28.2 23.54 13.91-10.56 27.73-21.27 42.28-30.93 3.78-2.33 7.49-4.99 11.83-6.15 2.65-0.91 5.99 1.18 5.73 4.14-0.2 4.14-2.43 7.79-4.21 11.42-7.25 13.68-16.18 26.46-22.54 40.61-3.23 6.62-1.33 14.24 1.23 20.75 5.69 14.14 14.29 26.83 22.51 39.59 2.16 3.46 4.68 6.78 6.02 10.68 0.69 1.79-0.55 4.32-2.59 4.32-3.13-0.08-6.03-1.47-8.93-2.5-16.76-6.69-33-14.76-48.29-24.35-10.41 17.48-26.09 31.95-44.76 40.18 0.4 7.8 1.81 15.52 4.03 23.01 0.76 2.43 1.36 5.77-1.27 7.33-4.33 2.38-9.37 0.32-13.75-0.88-16.04-5.68-30.66-14.86-43.98-25.34-2.28-1.85-5.3-2.12-8.03-2.89-21.84-5.37-42.75-16.26-57.92-33.1-10.98-12.11-18.79-26.91-23.41-42.55-6.65-22.2-7.52-45.72-5.74-68.7 27.11-4.19 54.57-6.47 82.02-5.76 1.96-0.03 4.14 0.25 5.81-1.04 14.95-10.06 30.88-18.68 47.54-25.56m0.57 5.65c-14.06 6.02-27.74 13.08-40.43 21.65 21.17 1.77 42.53 5.27 62.08 13.95-1.23-14.63-0.05-29.53 4.66-43.49-9.17 1.03-17.83 4.44-26.31 7.89m-130.84 31.43c-1.93 31.89 1.85 66.04 20.59 92.89 23.24 6.96 47.73 9.26 71.91 8.21 6.49-0.63 13.45-1.06 18.94-4.98 3.42-1.93 5.8-5.1 8.53-7.83 0.48 0.06 1.44 0.17 1.92 0.22-0.61 5.35-5.6 8.61-9.41 11.79 0.27 4.33-0.56 8.62-3.13 12.19-3.08-1.49-6.03-3.26-8.71-5.39-0.78 3.18-2.33 6.07-4.43 8.57-3.06-2.04-5.92-4.38-8.4-7.1-1.27 2.54-2.46 5.34-4.94 6.96-3.4-1.06-5.37-4.35-7.72-6.79-1.37 2.63-3.12 5.05-5.25 7.13-2.96-2.13-5.31-4.92-7.14-8.05-1.89 2.38-3.16 7.1-6.94 6.37-2.35-2.15-3.96-4.92-5.71-7.54-1.35 1.89-2.67 3.79-3.94 5.74-5.3 0.7-7.01-5.52-9.28-9.08-3.42-0.8-6.8-1.77-10.23-2.52 18.5 21.07 45.83 32.49 73.2 36.14 11.18 1.46 22.86 2.64 33.8-0.86 17.67-5.26 32.92-16.9 44.44-31.1 8.9-11.54 15.7-25.51 15.84-40.32-1.29-13.52-7.36-26.55-16.57-36.51-15.19-16.39-37.1-24.34-58.51-28.69-39.22-7.44-79.56-5-118.86 0.55m217.49 14.33c-9.39 6.89-18.74 13.84-27.86 21.09 4.9 8.07 8.23 17.09 9.75 26.4 1.18 10.9-2.56 21.5-6.49 31.49 15.43 9.4 31.77 17.19 48.41 24.18-8.5-12.22-16.29-25.01-22.8-38.4-3.03-6.76-5.98-13.85-6.12-21.37-0.19-5.38 2.28-10.32 4.57-15.03 6.49-12.63 14.37-24.46 21.05-36.99 1.04-2.06 1.8-4.24 2.61-6.4-8.26 4.1-15.62 9.73-23.12 15.03m-115.03 90.3c1.85 1.46 3.8 2.78 5.82 4 0.5-1.98 0.95-3.97 1.35-5.97-2.4 0.59-4.79 1.28-7.17 1.97m-62.15-0.91c1.32 1.92 2.67 3.83 4.08 5.69 1.13-1.58 2.23-3.18 3.32-4.79-2.47-0.31-4.93-0.62-7.4-0.9m12.6 1.62c1.29 1.95 2.65 3.85 4.08 5.71 1.03-1.65 2.09-3.28 3.2-4.88-2.43-0.28-4.85-0.61-7.28-0.83m12.35 1.07c1.43 1.84 2.93 3.62 4.49 5.35 1.01-1.59 2.01-3.19 3-4.8-2.49-0.24-4.99-0.45-7.49-0.55m12.35 0.59c1.55 1.79 3.22 3.46 4.99 5.02 0.87-1.72 1.71-3.45 2.53-5.18-2.51 0.02-5.01 0.06-7.52 0.16m12.6-0.29c1.7 1.79 3.6 3.36 5.57 4.85 0.71-1.88 1.41-3.76 2.07-5.65-2.55 0.24-5.09 0.51-7.64 0.8m23.68 37.92c-4.32-0.34-8.65-0.66-12.99-0.77 13.45 8.51 27.11 18.18 43.21 20.63-2.37-7.76-3.85-15.74-4.65-23.8-8.25 2.55-16.87 4.55-25.57 3.94z"/>
   <path id="path7" d="m11.41 71.08c0.47-1.67 2.13-2.15 3.44-0.96 0.34 7.52-0.52 15.05 0 22.58-3.11-2.15-3.45-6.17-3.76-9.61-0.13-4-0.37-8.05 0.32-12.01z"/>
   <path id="path9" d="m33.84 99.08c0.66-14.89 13.98-28.46 29.13-28.07 8.81-0.02 16.88 5.52 20.86 13.24 3.99-7.36 11.54-12.95 20.08-13.22 13.23-0.71 25.45 9.41 28.81 21.94 2.75 9.26 0.36 20.27-7.15 26.65-6.5 5.83-16.24 7.02-24.3 4.04-7.87-2.78-13.93-9.21-17.46-16.64-2.99 5.93-7.24 11.41-13.16 14.62-8.08 4.75-19.02 5.01-26.77-0.55-7.03-4.83-10.71-13.61-10.04-22.01m23.42-21.94c-10.82 2.78-18.66 13.83-17.94 24.94 0.34 6.45 3.95 12.88 9.9 15.7 7.41 3.83 16.7 1.5 22.72-3.86 8.04-6.86 11.35-19.48 5.91-28.89-3.98-7-12.99-10.12-20.59-7.89m41.21 0.61c-6.28 2.36-10.66 8.55-11.27 15.17-1.52 12.44 8.24 25.14 20.73 26.62 6.51 0.92 13.39-2.06 17.05-7.56 4.78-7.01 4.14-16.71-0.23-23.76-5.05-8.78-16.45-14.46-26.28-10.47z"/>
   <path id="path11" d="m62.3 97.19c3.28-2.06 8.35-0.16 9.04 3.77 1.04 4.36-3.96 9.01-8.15 6.88-4.28-1.63-5.18-8.5-0.89-10.65z"/>
   <path id="path13" d="m99.17 97.15c3.63-2.27 9.22 0.46 9.19 4.86 0.17 4.3-5.15 8.08-8.98 5.56-3.72-2.08-4.18-8.36-0.21-10.42z"/>
  </g>
  <g id="#fefefeff" fill="#fefefe">
   <path id="path25" d="m57.26 77.14c7.6-2.23 16.61 0.89 20.59 7.89 5.44 9.41 2.13 22.03-5.91 28.89-6.02 5.36-15.31 7.69-22.72 3.86-5.95-2.82-9.56-9.25-9.9-15.7-0.72-11.11 7.12-22.16 17.94-24.94m5.04 20.05c-4.29 2.15-3.39 9.02 0.89 10.65 4.19 2.13 9.19-2.52 8.15-6.88-0.69-3.93-5.76-5.83-9.04-3.77z"/>
   <path id="path27" d="m98.47 77.75c9.83-3.99 21.23 1.69 26.28 10.47 4.37 7.05 5.01 16.75 0.23 23.76-3.66 5.5-10.54 8.48-17.05 7.56-12.49-1.48-22.25-14.18-20.73-26.62 0.61-6.62 4.99-12.81 11.27-15.17m0.7 19.4c-3.97 2.06-3.51 8.34 0.21 10.42 3.83 2.52 9.15-1.26 8.98-5.56 0.03-4.4-5.56-7.13-9.19-4.86z"/>
   <path id="path29" d="m108.55 169.97c2.38-0.69 4.77-1.38 7.17-1.97-0.4 2-0.85 3.99-1.35 5.97-2.02-1.22-3.97-2.54-5.82-4z"/>
   <path id="path31" d="m46.4 169.06c2.47 0.28 4.93 0.59 7.4 0.9-1.09 1.61-2.19 3.21-3.32 4.79-1.41-1.86-2.76-3.77-4.08-5.69z"/>
   <path id="path33" d="m59 170.68c2.43 0.22 4.85 0.55 7.28 0.83-1.11 1.6-2.17 3.23-3.2 4.88-1.43-1.86-2.79-3.76-4.08-5.71z"/>
   <path id="path35" d="m71.35 171.75c2.5 0.1 5 0.31 7.49 0.55-0.99 1.61-1.99 3.21-3 4.8-1.56-1.73-3.06-3.51-4.49-5.35z"/>
   <path id="path37" d="m83.7 172.34c2.51-0.1 5.01-0.14 7.52-0.16-0.82 1.73-1.66 3.46-2.53 5.18-1.77-1.56-3.44-3.23-4.99-5.02z"/>
   <path id="path39" d="m96.3 172.05c2.55-0.29 5.09-0.56 7.64-0.8-0.66 1.89-1.36 3.77-2.07 5.65-1.97-1.49-3.87-3.06-5.57-4.85z"/>
  </g>
  <path id="path2996" d="m140.34 253.17c-38.926-5.0508-72.961-19.566-91.525-39.033l-4.7458-4.9765 4.0678 0.93062c2.2373 0.51184 4.678 1.8584 5.4237 2.9923 6.5955 10.029 11.043 12.105 14.566 6.7992l2.0151-3.0348 3.5853 4.2609c4.0667 4.833 7.667 4.774 10.312-0.16891l1.6619-3.1052 4.6175 4.9143 4.6175 4.9143 3.4025-3.8305 3.4025-3.8305 4.1494 3.4915c5.2652 4.4304 6.2696 4.3797 9.0452-0.45655l2.2659-3.9481 5.2834 4.1846 5.2834 4.1846 2.527-3.2874c1.3898-1.808 2.5405-4.0501 2.5571-4.9823 0.0415-2.3342 1.0095-2.1488 6.5011 1.2452 4.4179 2.7304 4.8766 2.7768 6.432 0.64962 0.92115-1.2598 2.0779-4.8112 2.5706-7.8921 0.65033-4.0669 2.3683-7.0306 6.2705-10.818 5.2612-5.1058 7.1312-10.643 3.5945-10.643-0.97912 0-3.5723 1.8864-5.7627 4.192-9.2804 9.7686-23.992 12.92-53.474 11.454-27.835-1.3843-61.646-7.4587-65.851-11.831-3.826-3.9779-11.577-20.245-16.031-33.645-6.0337-18.152-8.9657-38.213-8.9657-61.343v-18.284l20.678-2.5594c29.071-3.5982 94.106-3.6676 115.13-0.1229 59.964 10.112 93.209 33.71 103.47 73.442 2.5976 10.063 2.6026 13.039 0.0388 23.159-3.2455 12.811-11.851 28.841-21.243 39.572-24.696 28.215-54.989 41.412-85.862 37.406h0.00001zm-53.56-99.73c5.3215-2.3649 11.966-8.1921 15.512-13.603l2.3575-3.598 4.3326 5.6804c2.3829 3.1242 7.3145 7.524 10.959 9.7772 5.9703 3.6912 7.7332 4.0969 17.802 4.0969 10.216 0 11.681-0.35032 17.055-4.0768 12.059-8.3614 16.365-27.367 9.442-41.668-3.8423-7.9371-14.401-17.62-21.548-19.762-12.845-3.8486-25.908-0.70048-33.642 8.108l-4.1459 4.722-4.9294-5.1415c-12.115-12.635-31.649-12.59-46.111 0.107-10.809 9.487-15.115 28.677-9.3 41.447 3.3974 7.4597 12.331 15.231 18.745 16.306 2.8411 0.4761 5.7383 1.0066 6.4383 1.1788 2.4335 0.59883 12.316-1.4706 17.032-3.5666zm-67.797-52.661c0-13.568-0.22856-14.971-2.3729-14.561-4.5788 0.8749-3.6245 29.576 0.98339 29.576 0.86505 0 1.3895-5.6671 1.3895-15.015z" transform="scale(.8)" fill="#3e8213"/>
  <path id="path3774" d="m189.42 82.817c-15.449-5.8492-42.082-11.584-62.373-13.43-3.9543-0.35981-3.8408-0.5144 4.0678-5.5409 21.18-13.462 71.186-34.076 71.186-29.345 0 0.62021-0.96582 5.2842-2.1463 10.364-1.1804 5.0802-2.5533 16.275-3.0508 24.878l-0.90459 15.641-6.7797-2.5668z" transform="scale(.8)" stroke="#00697c" stroke-width="2.7119" fill="#00697c"/>
  <path id="path3776" d="m278.92 213.4c-13.424-6.7037-25.449-12.998-26.723-13.988-2.1689-1.6849-2.1092-2.4116 0.93787-11.418 6.5336-19.312 5.5228-35.684-3.3252-53.864-2.1696-4.4578-3.8294-8.2053-3.6884-8.3277 0.14103-0.12242 10.488-7.8965 22.993-17.276 23.671-17.754 34.451-24.81 35.816-23.445 0.44164 0.44164-5.0615 11.099-12.229 23.682-7.1677 12.584-14.568 26.178-16.444 30.209-4.2603 9.152-4.4578 18.593-0.62938 30.084 3.2026 9.6126 14.662 31.711 23.647 45.601 6.2174 9.6112 6.8515 10.981 5.0689 10.948-0.55932-0.009-12-5.5033-25.424-12.207z" transform="scale(.8)" stroke="#00697c" stroke-width="2.7119" fill="#00697c"/>
  <path id="path3778" d="m177.69 283.98c-7.9246-2.4665-22.53-9.9073-34.363-17.507l-6.7797-4.354 10.169 0.84251c9.1606 0.75893 25.605-1.3789 33.29-4.3276 1.4107-0.54132 1.9644 0.2588 1.9644 2.8382 0 1.9756 0.95313 8.2064 2.1181 13.846 1.1649 5.6398 1.9276 10.433 1.6949 10.652-0.23273 0.21858-3.875-0.67694-8.0939-1.99z" transform="scale(.8)" stroke="#00697c" stroke-width="2.7119" fill="#00697c"/>
 </g>
</svg>
