<?xml version="1.0" encoding="UTF-8" standalone="no"?>
<svg id="svg2" xmlns:rdf="http://www.w3.org/1999/02/22-rdf-syntax-ns#" xmlns="http://www.w3.org/2000/svg" height="256pt" width="256pt" version="1.1" xmlns:cc="http://creativecommons.org/ns#" xmlns:dc="http://purl.org/dc/elements/1.1/" viewBox="0 0 256 256">
 <metadata id="metadata43">
  <rdf:RDF>
   <cc:Work rdf:about="">
    <dc:format>image/svg+xml</dc:format>
    <dc:type rdf:resource="http://purl.org/dc/dcmitype/StillImage"/>
   </cc:Work>
  </rdf:RDF>
 </metadata>
 <g id="g2995" transform="matrix(.85 0 0 .85 19.163 30.4)">
  <g id="#413020ff">
   <path id="path5" fill="#413020" d="m85.62 0h2.63c14.06 0.45 27.97 5.16 39.21 13.65 16.57 12.24 27.18 31.95 28.8 52.44 0.41 6.64 0.65 13.36-0.09 19.98-1.19 9.4-6.83 17.48-13.44 23.98-0.02 8.93-0.04 17.86-0.1 26.8 8.8-0.17 17.58 0.4 26.38 0.37 8.14 0.01 16.29 0.57 24.32 1.93 5.35-8.03 12.85-15.23 14.44-25.16 4.16-21.68-1.12-43.62-5.01-64.93-0.82-4.03-0.54-8.16-0.04-12.21 4.78 3.67 9.61 7.37 13.44 12.06 6.69 8.06 11.56 17.45 15.73 27 6.17 14.4 8.2 30.58 5.31 46.01-3.49 19.67-12.54 37.68-19.86 56.1 2.54 8.47 2.92 17.61 0.1 26.07 3.9 0.75 7.93 1.26 11.57 2.93 2.97 1.35 4.41 4.51 5.68 7.31 3.31 8.18 4.04 17.53 1.48 26.02-1.67 5.55-5.4 10.67-10.74 13.15-3.65 1.79-7.79 1.99-11.75 2.5h-91.29c-17.12-0.51-34.26-0.31-51.38-0.78-3.02-0.1-6.29-0.47-8.57-2.69-6-5.32-7.78-13.81-7.85-21.5 0.11-7.58 1.58-15.75 6.79-21.58 3.24-3.7 8.33-4.51 12.87-5.57-2.27-9.72-2.23-20.74 3.2-29.44 3.06-4.9 9.2-5.67 14.34-6.83-0.83-12.44-0.21-24.91 0.1-37.36-4.93 0.12-9.86-0.02-14.77-0.53-2 3.35-4.37 6.58-7.69 8.73-6.75 4.52-14.63 6.86-21.91 10.34 5.73 6.33 9.92 14.7 8.79 23.44-3.94-7.29-8.02-14.74-14.2-20.41-2.48 2.35-5.11 4.68-6.63 7.8-3.24 6.71-3.15 14.55-0.7 21.51-7.31-9.44-7.28-24.3 1.49-32.8 8.83-9.48 22.81-11.09 32.04-19.99-12.55-3.29-24.95-8.19-34.99-16.59-8.3-6.8-14.97-16.39-16.04-27.29-0.42-5.39-0.27-10.81-0.09-16.21 0.92-18.79 9.41-37.12 23.29-49.85 12.13-11.4 28.52-17.97 45.14-18.4m-42.14 23.46c-8.95 8.76-15.77 20.08-18.26 32.41-2.38 4.28-2.24 9.35-2.52 14.1 0.07 7.12-0.8 14.59 2.01 21.34 3.6 8.99 11.03 15.84 19.13 20.83 13.24 8.03 28.73 12.25 44.2 12.29 16.16-0.6 32.37-5.4 45.68-14.73 8.06-5.78 15.21-13.94 16.84-24.02 1.95-17.02-0.59-34.91-9.7-49.66l-0.34 0.22c-10.08-16.16-27.32-28.03-46.44-30.02-18.35-2.36-37.42 4.32-50.6 17.24m165.1 25.55c2.8 16.9 6.74 33.79 6.4 51.03-0.17 6.77-0.71 13.61-2.8 20.09-2.24 7.87-8.18 13.81-12.66 20.43 1.87 1.81 3.94 3.58 4.88 6.08 2.77 7.04 3.12 14.73 2.86 22.21 2.15 0.87 4.31 1.74 6.45 2.62 8.13-20.48 18.61-40.94 18.96-63.45 0.48-16.55-5.9-32.38-14.27-46.35-2.76-4.59-5.87-9.01-9.82-12.66m-110.35 80.6c-0.27 1.61-0.54 3.23-0.81 4.84-0.92 10.73-0.19 21.49 0.15 32.22 34.36-3.18 69.05-2.69 103.34 1.15 0.36-5.58 0.16-11.26-1.16-16.71-0.58-2.05-1.36-4.5-3.64-5.18-4.18-1.6-8.68-2.04-13.1-2.53-15.27-1.39-30.62-0.4-45.92-1.03 0.12-4.06 0.25-8.14-0.49-12.16 0.28-5.24 0.37-10.5 0.68-15.75-11.61 7.99-25.07 13.29-39.05 15.15m-5.24 43.58c-4.11 0.79-9.38 1.11-11.46 5.39-3.6 7.5-3.37 16.25-1.5 24.19 30.44-3.12 61.08-2.67 91.63-2.21 13.34 0.26 26.63 1.53 39.94 2.21 2.83-7.96 2.7-16.97-0.58-24.77-1.26-3.18-5.24-3.15-8.06-3.93-15.53-2.41-31.28-3.16-46.97-3.42-21.02-0.16-42.15-0.44-63 2.54m22.19 33.01c-13.43 0.71-26.94 1.01-40.21 3.32-3.55 0.79-7.73 1.29-10.04 4.46-3.24 4.27-4.06 9.81-4.45 15.02-0.22 6.19 0.7 12.9 4.61 17.92 1.74 2.56 5.14 2.37 7.87 2.5 46.33 0.5 92.68 0.39 139.01 0.27 4-0.05 8.32 0.2 11.87-1.99 4.84-2.8 7.09-8.49 7.73-13.82 0.58-6.76-0.04-13.93-3.39-19.96-1.09-2.31-3.88-2.63-6.06-3.22-9.23-1.94-18.67-2.58-28.05-3.28-26.26-1.66-52.6-2.07-78.89-1.22z"/>
  </g>
  <g id="#000000ff">
   <path id="path17" d="m35.52 64.23c-2.07-16.12 11.17-32.6 27.53-33.36 9.51-0.76 18.79 4.84 23.12 13.23 2.47-4.04 5.57-7.84 9.81-10.11 8.64-5.09 20.05-3.74 27.99 2.11 11.55 8.04 16.89 24.56 10.29 37.39-4.61 7.19-12.45 12.7-21.26 12.44-11.74 0.09-21.99-8.18-26.78-18.52-3.44 6.77-8.55 12.99-15.67 16.04-8.77 4.22-20.1 3.07-27.22-3.79-4.46-3.96-6.63-9.73-7.81-15.43m21.96-26.49c-11.73 4.07-19.11 17.96-15.31 29.9 2.28 7.57 9.91 13.06 17.84 12.59 12.8-0.36 23.34-12.63 22.89-25.2-0.06-5.91-2.88-11.88-7.85-15.19-5.02-3.62-11.82-4.24-17.57-2.1m46.54-0.82c-6.89 1.43-12.66 7.13-14 14.06-2.77 12.46 6.1 26.02 18.49 28.75 5.69 1.33 12.05 0.06 16.44-3.89 6.35-5.57 7.86-15.24 4.89-22.92-3.56-10.34-14.7-18.39-25.82-16z"/>
   <path id="path19" d="m65.4 56.6c4.04-1.81 8.76 2.1 8.15 6.38-0.2 4.87-6.86 7.15-10.18 3.71-3.42-2.76-1.95-8.68 2.03-10.09z"/>
   <path id="path21" d="m102.46 56.69c4.08-2.04 9.15 1.94 8.44 6.35-0.23 4.95-7.28 7.15-10.46 3.45-2.96-2.89-1.61-8.17 2.02-9.8z"/>
  </g>
  <g id="#ffffffff" fill="#fff">
   <path id="path35" d="m57.48 37.74c5.75-2.14 12.55-1.52 17.57 2.1 4.97 3.31 7.79 9.28 7.85 15.19 0.45 12.57-10.09 24.84-22.89 25.2-7.93 0.47-15.56-5.02-17.84-12.59-3.8-11.94 3.58-25.83 15.31-29.9m7.92 18.86c-3.98 1.41-5.45 7.33-2.03 10.09 3.32 3.44 9.98 1.16 10.18-3.71 0.61-4.28-4.11-8.19-8.15-6.38z"/>
   <path id="path37" d="m104.02 36.92c11.12-2.39 22.26 5.66 25.82 16 2.97 7.68 1.46 17.35-4.89 22.92-4.39 3.95-10.75 5.22-16.44 3.89-12.39-2.73-21.26-16.29-18.49-28.75 1.34-6.93 7.11-12.63 14-14.06m-1.56 19.77c-3.63 1.63-4.98 6.91-2.02 9.8 3.18 3.7 10.23 1.5 10.46-3.45 0.71-4.41-4.36-8.39-8.44-6.35z"/>
  </g>
  <path id="path3769" d="m237.56 207.9c-17.08-1.8609-80.932-2.8649-97.627-1.5351-8.9492 0.71284-16.463 1.131-16.697 0.92914-1.1309-0.97436-1.6947-30.681-0.70315-37.052l1.129-7.2541 11.956-3.0936c6.576-1.7015 16.644-5.4541 22.373-8.3391 5.7291-2.885 10.874-5.4489 11.433-5.6974 0.55932-0.24859 1.017 6.9209 1.017 15.932v16.384l7.1186 0.0672c19.859 0.18737 59.259 2.64 63.713 3.9661 6.4365 1.9163 7.8606 4.6848 8.8002 17.107 0.61317 8.1074 0.39497 10.005-1.1309 9.8324-1.0398-0.11733-6.1618-0.67869-11.382-1.2474z" transform="scale(.8)" stroke="#3e8213" stroke-width="2.7119" fill="#3e8213"/>
  <path id="path3771" d="m82.632 308c-4.2866-4.576-5.7504-9.6826-5.7504-20.061 0-11.346 2.9947-19.654 8.0223-22.253 18.802-9.7229 163.93-10.151 194.91-0.57494 5.7207 1.7682 8.5957 8.9978 8.5957 21.615 0 11.169-3.0079 18.321-9.2327 21.952-3.7682 2.1985-11.035 2.3729-98.876 2.3729h-94.809l-2.869-3.05z" transform="scale(.8)" stroke="#3e8213" stroke-width="2.7119" fill="#3e8213"/>
  <path id="path3765" d="m262.31 211.77c-2.6679-1.2867-3.0518-2.509-3.0584-9.7387-0.009-9.724-1.976-17.657-5.6654-22.848l-2.6533-3.733 6.8387-10.225c9.563-14.298 10.311-17.608 10.245-45.36-0.0442-18.68-0.69123-27.025-3.0408-39.219-1.6416-8.5196-2.778-15.697-2.5253-15.95 0.25262-0.25262 3.0347 3.2121 6.1824 7.6995 7.0753 10.086 15.375 27.64 18.597 39.334 3.3646 12.209 3.0458 33.697-0.71415 48.136-2.9252 11.233-19.115 53.629-20.417 53.468-0.40596-0.0505-2.111-0.75389-3.789-1.5631z" transform="scale(.8)" stroke="#3a7c0e" stroke-width="2.7119" fill="#3a7c0e"/>
  <path id="path3772" d="m84.339 151.39c-23.268-6-43.817-20.04-51.126-34.93-3.492-7.11-3.786-8.94-3.749-23.307 0.031-12.106 0.68-17.565 2.904-24.407 10.578-32.541 31.597-52.751 61.463-59.097 25.029-5.3178 48.689 2.056 67.799 21.131 11.744 11.718 13.84 14.282 17.422 21.315 9.726 19.095 11.715 50.936 4.1313 66.122-6.7282 13.472-28.219 27.535-50.713 33.186-14.301 3.5927-34.203 3.5892-48.136-0.008zm-0.70408-44.84c7.4103-2.0572 15.7-8.0257 20.234-14.568l3.7909-5.4703 4.317 5.6913c12.02 15.846 30.769 20.123 45.966 10.486 21.645-13.727 17.187-48.318-7.8407-60.834-13.272-6.6373-27.629-4.4838-36.756 5.5133l-5.2778 5.781-5.5461-5.5818c-16-16.091-42.334-11.089-53.948 10.249-7.5588 13.888-6.1059 29.46 3.7553 40.247 8.2758 9.0529 18.895 11.934 31.297 8.491z" transform="scale(.8)" stroke="#3e8213" stroke-width="2.7119" fill="#3e8213"/>
  <path id="path2995" d="m99.605 246.07c-1.1915-7.9456 1.2759-20.908 4.6155-24.248 1.3686-1.3686 4.8685-3.0278 7.7777-3.6871 25.651-5.8137 130.2-4.7304 146.64 1.5194 4.9353 1.8764 7.4739 9.6348 6.8962 21.076-0.27221 5.3904-0.90638 10.212-1.4093 10.715-0.5029 0.5029-17.273 0.15111-37.266-0.78175-34.41-1.6055-81.019-1.2249-113.19 0.92434l-13.108 0.8757-0.95877-6.3935z" transform="scale(.8)" stroke="#3e8213" stroke-width="2.7119" fill="#3e8213"/>
 </g>
</svg>
