<?xml version="1.0" encoding="UTF-8" standalone="no"?>
<svg id="svg2" xmlns:rdf="http://www.w3.org/1999/02/22-rdf-syntax-ns#" xmlns="http://www.w3.org/2000/svg" height="256pt" width="256pt" version="1.1" xmlns:cc="http://creativecommons.org/ns#" xmlns:dc="http://purl.org/dc/elements/1.1/" viewBox="0 0 256 256">
 <metadata id="metadata76">
  <rdf:RDF>
   <cc:Work rdf:about="">
    <dc:format>image/svg+xml</dc:format>
    <dc:type rdf:resource="http://purl.org/dc/dcmitype/StillImage"/>
   </cc:Work>
  </rdf:RDF>
 </metadata>
 <g id="g3002" transform="matrix(.85 0 0 .85 19.14 30.435)">
  <g id="#2e2e2dfe" fill="#2e2e2d">
   <path id="path5" d="m97.55 0.47c8.87 2.59 14.93 9.85 21.39 15.97 5.34-6.94 11.88-13.41 20.52-15.9-0.73 5.24-2.08 10.49-1.64 15.84 4.43-3.11 8.66-6.61 13.57-8.97 3.11-1.43 7.4-2.68 10.37-0.92-2.7 5.63-5.08 11.45-6.6 17.52 2.37-0.22 4.54-1.28 6.84-1.8 7.87-2.38 16.08-3.32 24.25-3.81-5.21 4.47-10.65 8.92-14.32 14.82 8.5-2.32 18.19-2.68 26.03 1.86 4.17 2.42 7.97 6.89 7.38 11.99-0.99 5.86-5.73 9.96-10.12 13.48 6.08-0.14 11.75-2.5 17.09-5.22 0.13 7.96-4.01 15.02-7.88 21.58 7.28 2.89 9.9 10.86 13.22 17.24l-0.16 0.69c-5.13 0.79-10.86 1.49-14.72 5.33 1.4 3.08 4.05 5.39 5.73 8.32 3.72 5.45 4.15 12.3 4.22 18.69-3.14-2.26-6.22-4.66-9.75-6.31 3.36 7.72 4.92 16.09 4.6 24.51 1.46-3.14 3.69-5.96 4.45-9.39 2.01-8.76 5.34-17.22 9.92-24.94 2.85-4.65 6.17-9.22 10.77-12.28 2.59-1.65 6.65-1.71 8.38 1.2 2.74 4.83 2.24 10.66 2.16 16.02-0.68 8.82-2.06 17.7-5.37 25.95-1.34 3.07-3.07 6.15-5.89 8.09-1.16 0.78-3.04 0.79-3.5 2.35-2.25 4.75-5.08 9.19-7.78 13.69 2.6 3.04 4.7 6.79 4.64 10.9 0.04 16.69 0.01 33.39 0.02 50.09 0.31 5.98-3.45 12.04-9.12 14.14-5.73 2.08-11.93 0.39-17.83 1.26-6.93 1.91-13.93 3.51-20.97 4.95-0.63 4.2-3.6 7.89-7.93 8.59h-25.56c-2.31-0.38-4.09-1.83-5.91-3.16-12.7 0.72-25.52 1.15-38.2-0.03-1.98 1.32-3.9 2.82-6.32 3.19h-25c-4.44-0.42-8.04-4.12-8.61-8.49-7.08-1.48-14.09-3.21-21.05-5.19-6.62-0.65-13.89 1.38-19.91-2.28-4.58-2.59-7.13-7.81-7.08-12.98-0.01-16.37 0.01-32.74-0.01-49.11-0.04-5.44 2.7-10.95 7.55-13.61 5.08-3.03 11.2-1.57 16.78-1.99 0.04-4.02 0.08-8.04-0.03-12.06-2.23 0.8-3.95 3.17-6.29 3.35-0.21-6.91-0.67-13.89 0.53-20.74 0.45-4.18 2.54-7.92 3.57-11.92-3.46 1.62-6.49 3.98-9.57 6.19-0.17-7.62 1.14-15.63 6.24-21.6 1.06-1.96 4.9-4.39 2.41-6.6-4.03-2.82-9.02-3.4-13.73-4.26 3.17-6.71 6.04-14.82 13.45-17.9-4.17-6.47-7.94-13.55-8.03-21.46 5.54 2.65 11.32 5.33 17.63 5.14-4.19-3.19-8.58-7.05-9.87-12.37-1.39-5.87 3.19-11.11 8.1-13.56 7.55-4.04 16.47-3.28 24.58-1.73-4.01-5.52-9.11-10.05-14.28-14.44 10.57 0.55 21.14 2.27 31.07 6.03-1.4-6.29-3.87-12.31-6.74-18.06 1.77-0.96 3.84-0.57 5.76-0.59 7.03 1.64 12.53 6.59 18.29 10.62 0.51-5.39-0.91-10.65-1.74-15.92m6.11 8.18c0.26 5.34 0.27 10.72-0.88 15.97-6.75-4.45-12.67-10.53-20.28-13.44 2.82 7.19 4.53 14.8 8.17 21.66-8.53-3.65-17.27-7.07-26.51-8.51 3.86 4.58 7.24 9.52 10.39 14.6-0.64 9.27-8.04 16.19-15.7 20.46-4.75 2.22-9.29 5.52-14.75 5.54-4.63 0.46-9.08-0.89-13.53-1.9 2.25 6.08 5.94 11.53 10.38 16.21-1.79 0.64-3.68 0.93-5.51 1.45-4.77 1.45-7.84 6.19-9.22 10.68 5.49 1.18 11.5 3.8 13.62 9.44-3.41 5.55-9.2 10.18-9.88 17.01 3.65-2.04 7.86-2.62 11.82-1.14-2.77 5.85-6.73 11.6-6.75 18.34-1.57 3.18-0.62 7.4-0.84 10.97 4.3-1.61 9.9-2.34 13.16 1.66 5.46 6.81 4.43 16.13 4.52 24.3 2.67-0.81 6.01-1.37 8.08 1.03 3.14 3.88 3.15 9.18 3.54 13.92 2.83-0.18 5.78-1.54 8.52-0.11 4.98 2.69 6.02 8.96 6.61 14.07 5.09-2.05 9.72-5.74 15.39-6.12 3.78-0.07 6.52 2.96 8.4 5.91 1.9 0.29 3.67-0.98 5.59-0.9 3.9-0.08 7.75 1.29 10.88 3.6 3.95-4.53 10.53-5.21 15.72-2.55 1.98-2.86 4.57-6.02 8.36-6.05 5.71 0.4 10.57 3.79 15.58 6.25 0.64-5.06 1.57-11.25 6.39-14.06 2.71-1.7 5.83-0.18 8.7-0.08 0.23-4.68 0.52-9.87 3.43-13.75 2.01-2.54 5.42-2.01 8.14-1.22 0.02-4.08 0.13-8.22-0.05-12.29 0.91-4.94 1.95-10.87 6.59-13.84 3.39-2.2 7.59-1.23 11.08 0.19 0.21-7.01-0.25-14.23-3.18-20.7-1.23-2.97-3.04-5.63-4.36-8.55 4.01-1.5 8.29-0.93 11.97 1.14-0.88-6.8-6.43-11.44-9.92-16.94 1.96-5.67 8.04-8.37 13.51-9.48-0.26-2.58-2.2-4.71-3.54-6.85-2.58-3.69-7.26-4.21-11.25-5.3 4.43-4.65 8.54-10.04 10.26-16.3-5.62 1.76-11.72 2.82-17.52 1.3-3.28-0.79-6.07-2.92-9.14-4.07-8.12-4.39-16.35-11.35-17.08-21.2 3.13-5.12 6.49-10.12 10.43-14.66-8.82 1.47-17.36 4.34-25.42 8.2l-1.17 0.14c3.86-6.69 5.31-14.35 8.24-21.43-5.9 1.8-10.47 6.49-15.55 9.88-1.56 0.88-2.93 2.98-4.83 2.71-1.3-5.1-1.22-10.46-0.73-15.67-5.41 3.73-9.39 9.01-13.36 14.14-1.56 0.41-2.7-0.84-3.69-1.8-4.16-4.06-8.02-8.53-12.83-11.86m-60.6 31.41c-2.71 1.47-5.96 4.54-4.27 7.89 2.18 4.11 6.19 6.77 9.91 9.35 1.26 0.83 2.81 0.39 4.19 0.26-1.32-2-4.38-2.93-4.56-5.67-0.64-2.92 2.17-5.08 4.48-6.19 4.67-1.74 9.92-1.65 14.65-0.23 1.24-1.11 2.41-4.16 0.18-4.84-7.59-3.54-16.95-4.49-24.58-0.57m125.28 1.34c-0.67 1.42 0.43 3.06 1.33 4.14 5.02-1.35 10.6-1.75 15.48 0.35 2.54 1.12 5.41 4.03 3.85 6.95-0.79 2.19-3.26 2.93-4.37 4.87 3.45 0.93 6.06-1.65 8.6-3.5 2.84-2.31 6.33-5.25 6.03-9.26-1.64-3.72-5.52-5.69-9.26-6.65-7.28-1.76-15.1-0.37-21.66 3.1m-114.67 7.29c-0.85 0.75-2.7 1.38-2.19 2.83 1.57 2.16 4.85 4.67 7.35 2.32 2.07-1.79 5.53-2.85 6.09-5.76-3.67-0.93-7.7-0.79-11.25 0.61m118.43-0.56c0.53 1.88 2.45 2.78 3.79 4.03 1.95 1.34 4.12 3.51 6.7 2.37 1.47-1.08 3.93-1.96 3.24-4.28-3.51-3.52-9.23-3-13.73-2.12m60.56 58.49c-4.36 4.86-7.48 10.68-10.07 16.63-1.81 3.87-3.25 8.04-4 12.25l-0.39-0.17c-1.25 2.75 1.59 4.58 3.26 6.28 2.09 1.63 4.55 3.85 7.4 3.24 2.39-2.15 3.7-5.34 4.52-8.39 1.18-3.75 2.26-7.55 2.69-11.47 0.85-6.89 2.03-13.97 0.42-20.86-1.68 0-2.73 1.46-3.83 2.49m-17.64 37.48c-3.2 6.04-6.57 12.02-9.41 18.23 3.33-0.11 6.7 0.39 9.98 0.46 2.69-4.16 5.28-8.39 7.48-12.82-2.96-1.57-5.26-4.16-8.05-5.87m-172.57 5.4c-0.22 28.92 0.19 57.85 0.02 86.77 5.5 2.42 11.62 3.17 17.42 4.69 0-8.25-0.18-16.51 0.11-24.75 2.03-0.1 4.06-0.09 6.08-0.01 0.37 7.32-0.66 14.67 0.16 21.98-0.03 3.22-0.23 6.45 0 9.67 1.06 2.7 4.33 1.94 6.59 1.98 0.4-3.76 0.06-7.57 0.85-11.3 0.21-0.13 0.62-0.41 0.83-0.54 1.4 3.77 1.01 7.83 1.47 11.75 2.03 0.08 4.12 0.35 6.1-0.16-0.11-4.09 0.08-8.3 1.04-12.3 1.98 3.84 1.54 8.33 1.92 12.51 2.66 0.08 5.33 0.11 7.99 0 1.36-0.1 2.64-1.37 2.53-2.77 0.07-4.48-0.06-8.96-0.05-13.44 0.41-5.74-0.08-11.55 0.01-17.31 2.06-0.17 4.14-0.17 6.21-0.06 0.01 8.61 0.03 17.21 0 25.82 0.23 1.46-0.51 3.33 0.51 4.55 2.61 0.12 5.25-0.01 7.84 0.38 8.59 0.98 17.16-0.44 25.75-0.39 0.79-10.03 0.06-20.27 0.37-30.38 2.06-0.08 4.13-0.13 6.19 0.12 0.12 6.05-0.5 12.19 0 18.2 0.07 4.48-0.24 8.97 0.03 13.45 1.93 3.53 6.93 1.28 10.2 1.83 0.3-4.12 0.06-8.53 1.76-12.37 1.44 3.95 1.17 8.2 1.19 12.33 2.03 0.14 4.08 0.15 6.12 0.02-0.05-4.09 0.52-8.13 1.35-12.12 2.42 3.34 1.16 8.08 1.73 12 2.07 0.33 5.34 0.83 6.27-1.65 0.23-4.79 0.05-9.6 0.06-14.4 0.21-5.8-0.04-11.61 0.06-17.42 1.99-0.07 3.98-0.06 5.97 0.01 0.48 8.18 0.17 16.46 0.16 24.69 4.84-0.92 9.6-2.21 14.41-3.3 1.22-0.39 2.85-0.34 3.59-1.58 0.02-28.85 0.08-57.69 0.12-86.53-2.2-0.27-3.17 2.28-4.03 3.87-3.21 9.4-1.27 19.47-0.38 29.1-3.1-2.1-5.41-5.38-9-6.72-1.93-0.46-2.4 1.97-2.89 3.29-1.14 5.56-0.9 11.29-1.45 16.93-3.35-1.88-6.46-6.19-10.69-4.93-4.71 4.54-3.44 11.91-4.05 17.84-5.4-2.86-10.55-6.22-16.21-8.53-1.92-0.79-4.6-1.58-6.13 0.33-2.34 2.08-3.07 5.67-5.56 7.41-1.94-2.01-3.91-4.57-7.05-4.33-4.26-0.07-6.43 3.97-8.25 7.17-1.43 0.5-1.83-1.36-2.56-2.14-3.14-5.1-11.94-6.1-15.33-0.69-2.85-2.78-3.86-9.01-8.74-8.54-6.81 1.82-12.55 6.22-18.8 9.32-0.22-5.84 0.36-12.71-3.62-17.47-4.27-2.32-7.76 2.78-11.28 4.52-0.15-5.04-0.36-10.1-1.05-15.09-0.45-1.81-0.56-4.16-2.38-5.18-4.1 0.7-6.39 4.71-9.85 6.63 0.96-8.5 2.35-17.18 0.6-25.68-0.74-2.6-1.45-5.94-4.26-7.08m159.12 1.68c0.07 1.58 0.06 3.17 0.09 4.76 1.56-1.11 3.43-5.28-0.09-4.76m-180.79 19.59c-1.96 1.84-2.99 4.52-2.85 7.21 0.21 6.92 0.18 13.84 0.3 20.77-0.8 9.41 0.14 18.87-0.05 28.31-0.33 3.22 1.44 6.6 4.42 7.95-0.01-3.9 0.09-7.82 1.04-11.62 0.2-0.06 0.61-0.18 0.81-0.24 1.28 4.12 1.25 8.45 1.35 12.72 1.23 0.09 2.46 0.05 3.68-0.13-0.1-4.27-0.11-8.59 0.92-12.76 2.68 3.46 1.86 8.6 2.07 12.82 1.21 0.11 2.44 0.14 3.66 0.1 0.03-10.66 0.04-21.33 0.11-31.99l-0.35-1.1c0.52-11.4 0.31-22.85 0.25-34.27-5.1 0.36-11.16-1.55-15.36 2.23m181.06-2.22c-0.28 9.62 0 19.26-0.03 28.89-0.18 12.81 0.1 25.64 0.08 38.46 0.82-0.02 2.45-0.07 3.26-0.09 0.12-4.2 0.11-8.44 1.17-12.54l1.1 0.48c0.82 3.99 0.97 8.05 0.85 12.11 1.14 0.05 2.28 0.06 3.43 0.03-0.24-4.01 0.47-7.95 1.21-11.88 0.26-0.24 0.78-0.73 1.05-0.97 1.1 3.92 0.45 8.07 1.34 12.01 2.15-1.75 3.78-4.14 3.87-6.99 0-10.21 0.23-20.42 0.01-30.62 0.05-6.81 0.04-13.62 0.06-20.43 0.16-4.43-3.7-8.79-8.26-8.53-3.05 0.02-6.1-0.1-9.14 0.07z"/>
   <path id="path7" d="m89.96 50.05c11.32-3.51 23.25-5.82 35.14-4.57 10.32 1.02 20.51 3.52 30.15 7.38 4.76 1.91 9.31 4.54 12.83 8.31 9.55 9.39 15.41 22.41 15.71 35.83 0.12 6.72 0.26 13.6-1.42 20.16-1.85 7.46-7.8 13.25-8.79 21-1.03 9.15 0.08 18.37-0.48 27.54-2.52 8.29-10.62 13.05-18.07 16.35-10.21 4.29-21.19 6.09-31.96 8.35-2.71 0.59-5.5 0.57-8.21-0.02-13.19-2.72-26.96-4.59-38.84-11.36-4.65-2.83-9.4-6.47-11.4-11.71-1.39-10.06 0.88-20.39-1.28-30.36-1.34-7.2-6.84-12.66-8.55-19.72-3.95-18.05-1.42-38.63 11.22-52.85 5.87-7.66 14.97-11.61 23.95-14.33m1.35 4.35c-5.08 1.59-10.1 3.5-14.67 6.25-6.61 5.06-11.96 11.79-15.18 19.49-4.36 10.27-4.47 21.85-2.94 32.76 0.66 4.77 2.92 9.09 5.44 13.12 4.02 6.62 5.02 14.51 4.81 22.12-0.26 5.65-0.16 11.31 0.03 16.97 1.44 4.71 5.93 7.63 9.91 10.11 12.44 6.74 26.72 8.2 40.28 11.13 14.58-3.25 30.33-4.75 43-13.46 2.47-2.21 5.63-4.41 6.27-7.87 0.33-5.9 0.37-11.83 0.06-17.73 0.08-4.83 0.18-9.73 1.79-14.34 1.78-6.35 6.73-11.31 8.1-17.82 1.13-6.09 1.56-12.36 1.05-18.54-0.56-14.27-7.74-28.24-19.53-36.42-9.14-5.25-19.56-7.76-29.86-9.56-12.93-2.21-26.18-0.2-38.56 3.79z"/>
   <path id="path9" d="m129.24 69.27c8.87-4.7 20.07-3.24 28.24 2.26 7.66 5.04 13.2 13.4 14.49 22.51 0.96 6.59-0.03 13.62-3.57 19.35-4.67 8.02-14.14 12.77-23.36 12.03-11.86-0.73-22.16-9.15-26.88-19.81-3.51 7.83-9.8 14.54-17.86 17.71-6.27 2.59-13.57 3.02-19.93 0.45-7.9-2.88-13.83-10.13-15.64-18.28-1.51-7.57-0.31-15.57 3.39-22.35 6.37-11.76 20.7-19.39 33.96-15.85 7.25 1.52 12.99 7.04 16.14 13.56 2.5-4.77 6.09-9.18 11.02-11.58m-40.88 4.31c-13.12 4.15-21.69 19.64-17.04 32.85 2.51 7.81 10.48 13.36 18.66 12.95 12.81-0.24 23.69-11.77 24.58-24.31 0.75-7.3-2.19-15.04-8.17-19.44-5.3-3.42-12.08-4-18.03-2.05m46.05-0.02c-9.61 3.33-14.5 14.83-12.15 24.33 2.12 12.97 15.57 23.91 28.82 21.01 8.4-1.59 14.66-9.52 15.14-17.91 0.8-8.81-3.37-17.66-10.25-23.09-5.93-4.76-14.24-6.91-21.56-4.34z"/>
   <path id="path11" d="m95.35 94.53c3.54-2.34 8.67 0.48 9.3 4.48 0.67 2.78-0.87 6.07-3.61 7.06-3.03 1.54-7.33 0.12-8.56-3.11-1.63-2.93-0.03-6.96 2.87-8.43z"/>
   <path id="path13" d="m136.95 93.78c4.11-0.86 8.41 3.12 7.76 7.32-0.47 4.62-6.62 7.25-10.3 4.43-4.49-3.01-2.74-10.74 2.54-11.75z"/>
   <path id="path15" d="m94.46 130.98c15.64-1.76 31.45-1.58 47.12-0.19 0.2 0.21 0.62 0.64 0.83 0.86-0.78 0.91-1.55 1.82-2.28 2.77-4.64 6.91-12.26 10.83-19.8 13.79 0.05 5.77-0.09 11.56 0.14 17.33 11.65-0.08 23.06-2.9 34.62-3.85-7.4 4.85-16.31 6.67-24.85 8.45-7.74 1.12-15.54 1.11-23.27-0.13-8.9-1.69-17.98-3.62-25.87-8.28 11.77 0.74 23.4 3.49 35.22 3.71 0.02-5.77 0.13-11.55-0.08-17.32-7.36-2.99-14.74-6.95-19.34-13.67-0.87-1.11-1.71-2.25-2.44-3.47z"/>
  </g>
  <g id="#fefefefe" fill="#fefefe">
   <path id="path54" d="m88.36 73.58c5.95-1.95 12.73-1.37 18.03 2.05 5.98 4.4 8.92 12.14 8.17 19.44-0.89 12.54-11.77 24.07-24.58 24.31-8.18 0.41-16.15-5.14-18.66-12.95-4.65-13.21 3.92-28.7 17.04-32.85m6.99 20.95c-2.9 1.47-4.5 5.5-2.87 8.43 1.23 3.23 5.53 4.65 8.56 3.11 2.74-0.99 4.28-4.28 3.61-7.06-0.63-4-5.76-6.82-9.3-4.48z"/>
   <path id="path56" d="m134.41 73.56c7.32-2.57 15.63-0.42 21.56 4.34 6.88 5.43 11.05 14.28 10.25 23.09-0.48 8.39-6.74 16.32-15.14 17.91-13.25 2.9-26.7-8.04-28.82-21.01-2.35-9.5 2.54-21 12.15-24.33m2.54 20.22c-5.28 1.01-7.03 8.74-2.54 11.75 3.68 2.82 9.83 0.19 10.3-4.43 0.65-4.2-3.65-8.18-7.76-7.32z"/>
  </g>
  <path id="path2991" d="m144.29 251.09c-1.9846-1.0889-4.9625-1.5322-9.7587-1.4524-5.9063 0.0982-7.0439-0.14963-7.8828-1.7171-1.34-2.5038-5.8896-4.7102-9.6834-4.6962-1.7278 0.007-6.5646 1.5059-10.748 3.3323-4.1838 1.8264-7.7183 3.3206-7.8546 3.3206-0.13629 0-0.25198-1.1782-0.2571-2.6182-0.01348-3.7947-4.2284-12.268-6.7823-13.635-1.2039-0.64433-4.2284-1.0993-6.7211-1.0111-5.0032 0.17709-4.7735 0.49962-5.9891-8.4098-0.31911-2.3388-1.6532-5.6592-2.9646-7.3786-1.9578-2.5668-3.0318-3.1262-6.0025-3.1262h-3.6181l-0.97878-10.761c-1.0241-11.259-2.8087-16.463-6.9205-20.181-1.6995-1.5365-3.3927-1.8936-8.7711-1.8495l-6.6651 0.0547 0.53079-5.291c0.98556-9.8244 2.3579-14.998 5.7819-21.797 1.8757-3.7247 3.4104-7.1919 3.4104-7.7049 0-1.5398-6.6392-2.2983-10.295-1.1763-1.8772 0.57612-3.5949 0.86571-3.8171 0.64351-0.70608-0.70608 3.6271-8.2315 8.0478-13.977 4.2536-5.5279 4.2635-5.5586 2.6577-8.277-1.87-3.1657-8.2659-7.6117-12.084-8.4002-1.4509-0.29963-2.8409-0.87306-3.0889-1.2743-0.24798-0.40123 0.93913-2.8069 2.638-5.346 2.9415-4.3961 5.0168-5.713 14.477-9.1858 0.50323-0.18474-0.84388-2.4479-2.9936-5.0293s-5.0627-7.003-6.4734-9.8259c-2.2227-4.4479-2.3314-5.0335-0.81472-4.39 0.96256 0.40834 5.3918 0.93821 9.8428 1.1775 9.735 0.52335 15.207-1.2092 25.903-8.2009 7.7927-5.0939 12.539-10.035 15.14-15.762 3.1412-6.9159 2.0804-10.358-6.5464-21.246-2.673-3.3734-2.918-4.0463-1.4733-4.0463 2.6301 0 13.208 3.2277 21.603 6.5917 4.1246 1.6528 7.6967 2.8077 7.938 2.5663 0.24135-0.24135-1.043-4.2215-2.8542-8.8448-4.3762-11.171-5.7482-15.558-5.0756-16.231 0.62991-0.62992 8.8158 4.6125 17.067 10.93 3.043 2.3299 5.8278 3.9486 6.1885 3.5971 0.36071-0.35149 1.0978-4.5739 1.6381-9.3832l0.98227-8.7441 8.1274 7.8546c8.6614 8.3707 11.074 9.3637 13.554 5.579 2.0601-3.144 12.102-13.91 12.974-13.91 0.3916 0 0.72895 3.6824 0.74965 8.1832 0.0208 4.5271 0.49609 8.6416 1.0638 9.2093 1.3641 1.3641 3.344 0.30377 13.786-7.383 4.633-3.4106 9.006-6.2011 9.7176-6.2011 0.95393 0 0.45557 2.3144-1.8964 8.8067-1.7547 4.8437-3.9552 10.408-4.8899 12.365-0.93474 1.9571-1.4174 3.8404-1.0726 4.1852 0.34478 0.34479 3.0993-0.46781 6.1211-1.8058 6.5499-2.9001 20.563-7.3659 23.113-7.3659 1.4698 0 0.74588 1.4804-3.8406 7.8546-3.2783 4.5561-5.6549 8.8542-5.6593 10.235-0.013 4.0767 4.4005 12.089 9.1911 16.686 12.388 11.887 28.743 17.365 41.186 13.797 1.7946-0.51469 3.3942-0.80454 3.5546-0.64411 0.68291 0.68291-4.7041 10.04-8.2283 14.293-3.8458 4.6407-4.1519 6.3104-1.1638 6.3492 3.5712 0.0464 9.706 3.8086 12.5 7.6657 3.3653 4.6456 3.5376 5.5053 1.2488 6.2291-7.6595 2.4221-14.519 7.831-14.519 11.448 0 0.8228 1.2313 3.0572 2.7362 4.9653 3.8834 4.9239 8.6887 12.682 8.6887 14.027 0 0.85583-0.94493 0.90064-3.786 0.1795-3.4382-0.87272-10.495-0.36324-10.495 0.75771 0 0.25302 1.2371 2.9113 2.7492 5.9073 3.6735 7.2787 5.6208 14.128 6.3712 22.409l0.62097 6.8526-6.6956-0.007c-5.7727-0.006-7.0332 0.31055-9.1453 2.2927-4.1548 3.8994-6.2775 11.272-6.2775 21.802v9.2722l-3.7565-0.35823c-3.0131-0.28736-4.2223 0.10752-6.1102 1.9954-2.6393 2.6393-4.4012 7.957-4.4091 13.308l-0.005 3.5703h-5.6138c-5.2042 0-5.8235 0.23876-8.487 3.2724-1.8 2.0501-3.3159 5.2506-4.0584 8.5687-0.6519 2.913-1.2832 5.2963-1.4029 5.2963s-3.1111-1.354-6.6475-3.0089-8.4559-3.2036-10.932-3.4415c-4.1013-0.39408-4.8343-0.13257-8.2319 2.937-3.6183 3.2689-3.9046 3.3537-9.5854 2.8386-4.8122-0.43636-6.5501-0.16905-9.7523 1.5-4.5995 2.3974-4.4707 2.3912-8.1223 0.38765zm21.422-15.189c27.066-5.5057 42.307-12.761 48.331-23.008 2.5508-4.3392 2.6162-4.8393 3.1298-23.949l0.52453-19.518 5.3757-10.949c4.5353-9.2372 5.5518-12.288 6.5023-19.518 1.292-9.827 0.64272-23.898-1.4938-32.371-2.3138-9.1758-8.4717-20.384-15.325-27.893-4.8564-5.321-7.849-7.6126-13.89-10.636-20.396-10.209-49.298-14.348-70.285-10.066-12.05 2.4585-27.373 7.6444-33.815 11.444-18.824 11.104-30.508 36.785-28.597 62.857 0.88692 12.099 1.8994 15.805 7.2869 26.672 5.6545 11.405 6.5227 16.176 6.5496 35.99 0.0115 8.4722 0.44378 14.936 1.0824 16.185 2.0012 3.9141 8.9316 10.308 14.646 13.513 7.4482 4.1768 17.919 7.5638 33.799 10.933 19.615 4.1621 17.351 4.1425 36.179 0.3126z" transform="scale(.8)" fill="#ffd400"/>
  <path id="path2993" d="m277.5 176.26-4.5486-4.1181 1.6927-6.1167c3.3612-12.146 14.812-32.894 19.052-34.521 5.4646-2.097 0.55523 36.789-5.8999 46.732-2.0953 3.2274-5.2093 2.6298-10.296-1.9759z" transform="scale(.8)" fill="#ffd400"/>
  <path id="path2995" d="m84.024 310.62c-0.81537-0.81536-1.1425-6.8126-1.1425-20.946v-19.803h-4.2843-4.2843v15.233c0 8.3782-0.32132 15.23-0.71406 15.227-1.7971-0.0168-16.751-3.9098-18.392-4.7882-1.7847-0.95512-1.8397-2.5824-1.8397-54.384 0-45.207 0.20088-53.233 1.3094-52.313 3.4399 2.8549 4.8224 16.752 3.2063 32.231-0.39639 3.7964-0.38853 6.9025 0.01745 6.9025s2.812-1.7137 5.3467-3.8083 5.2152-3.8083 5.9566-3.8083c2.1341 0 3.2957 4.4762 3.8914 14.995 0.30396 5.3674 0.77191 9.759 1.0399 9.759s2.5406-1.3176 5.0502-2.928c2.6113-1.6757 5.4975-2.7955 6.7479-2.6182 3.2073 0.45483 5.7358 6.4004 6.2714 14.747 0.24653 3.8414 0.5791 6.9844 0.73905 6.9844s5.237-2.5706 11.282-5.7124c6.0454-3.1418 11.838-5.7124 12.872-5.7124 1.0345 0 3.0773 1.5423 4.5397 3.4273 1.4623 1.885 3.3722 4.3485 4.244 5.4744l1.5852 2.0472 2.2844-2.1422c1.7189-1.6118 3.4253-2.1422 6.8928-2.1422 4.138 0 4.9782 0.38876 8.2312 3.8083 1.9925 2.0946 3.9612 3.7821 4.3749 3.7501 0.41372-0.032 2.0524-1.8528 3.6416-4.0463 2.4521-3.3845 3.4654-4.0309 6.6947-4.2708 3.0611-0.22733 4.2508 0.19164 6.0833 2.1422 1.2529 1.3336 2.6182 2.4248 3.034 2.4248 0.41585 0 2.4968-2.3564 4.6244-5.2364 2.3878-3.2323 4.5784-5.2364 5.7236-5.2364 1.0204 0 6.8766 2.5561 13.014 5.6803 6.1372 3.1242 11.346 5.4932 11.574 5.2644 0.22871-0.22871 0.75096-4.0927 1.1606-8.5866 1.1896-13.052 4.2583-15.521 12.418-9.9921 2.3043 1.5614 4.4478 2.8467 4.7634 2.8562 0.3156 0.01 0.86539-4.4923 1.2217-10.004 0.66269-10.25 1.8749-14.733 3.9842-14.733 0.65439 0 3.4048 1.7508 6.1119 3.8907 2.7072 2.1399 5.1368 3.676 5.3992 3.4136 0.26243-0.26242 0.0727-4.691-0.42153-9.8412-1.393-14.514 0.95712-29.834 4.5767-29.834 0.59107 0 0.92762 19.332 0.92762 53.283 0 49.781-0.1095 53.34-1.6661 54.149-1.3472 0.70049-18.348 4.9132-19.827 4.9132-0.22227 0-0.40413-6.8549-0.40413-15.233v-15.233h-4.2843-4.2843v19.44c0 10.692-0.26005 20.117-0.5779 20.946-0.34269 0.89305-1.6989 1.506-3.3323 1.506-2.5216 0-2.7544-0.28625-2.7544-3.3867 0-4.104-1.856-11.846-2.8398-11.846-0.7895 0-1.9205 7.0869-1.9205 12.034 0 2.9956-0.20349 3.1994-3.1956 3.1994h-3.1955l-0.63052-6.7842c-0.34679-3.7313-0.89603-7.2138-1.2206-7.7389-1.0422-1.6864-2.2775 1.8804-2.8779 8.3099l-0.5802 6.2131h-4.9083c-2.6996 0-5.4224-0.51412-6.0508-1.1425-0.81536-0.81536-1.1425-6.8126-1.1425-20.946v-19.803h-4.2843-4.2843v18.896 18.896l-11.489 0.57765c-6.3189 0.31772-15.744 0.3184-20.946 0.002l-9.4567-0.5765v-18.898-18.898h-4.2843-4.2843v19.803c0 14.133-0.32713 20.13-1.1425 20.946-0.62837 0.62837-3.3512 1.1425-6.0508 1.1425h-4.9083l-0.55676-5.9622c-1.0922-11.697-3.1126-12.52-4.0604-1.6544l-0.66441 7.6166h-3.2093c-3.1233 0-3.2123-0.10847-3.322-4.0463-0.31752-11.406-3.2197-13.58-4.1976-3.1449-0.65585 6.9989-0.74217 7.1912-3.2278 7.1912-1.4047 0-3.0681-0.51412-3.6964-1.1425z" transform="scale(.8)" fill="#eae485"/>
  <path id="path2997" d="m32.422 289.51c0-6.724-0.94621-11.227-2.2686-10.795-0.585 0.19074-1.5162 3.5278-2.0694 7.4158l-1.0058 7.069-2.0849-3.3323c-2.0428-3.265-2.085-4.012-2.0885-36.984-0.0031-29.285 0.19612-33.99 1.5355-36.257 2.3643-4.0025 4.9621-5.1218 12.98-5.5925l7.3786-0.43322v42.014c0 41.379-0.02877 42.014-1.9041 42.014-1.6362 0-1.9049-0.63649-1.9095-4.5224-0.0059-5.0532-1.5737-11.663-2.7663-11.663-0.87952 0-1.9888 6.9776-1.9888 12.51 0 3.0407-0.32883 3.6754-1.9041 3.6754-1.668 0-1.9041-0.63472-1.9041-5.1174z" transform="scale(.8)" fill="#eae485"/>
  <path id="path2999" d="m58.509 69.145c-5.0954-3.6953-9.9016-9.3573-9.9016-11.665 0-2.4982 3.8614-6.3012 8.3398-8.2138 7.8689-3.3605 28.315-0.40236 28.315 4.0967 0 1.6254-0.78919 1.8214-7.6166 1.8912-4.1891 0.04284-9.2219 0.61117-11.184 1.263-6.5942 2.1906-8.3609 7.9638-3.8711 12.65 3.4471 3.598 0.89132 3.5839-4.0816-0.02255v0.000003z" transform="scale(.8)" fill="#eae485"/>
  <path id="path3001" d="m66.773 65.73-2.1601-2.2993 2.2321-1.393c4.156-2.5936 13.181-3.015 13.181-0.61546 0 1.1075-8.1276 6.607-9.7643 6.607-0.73075 0-2.3007-1.0347-3.4887-2.2993z" transform="scale(.8)" fill="#eae485"/>
  <path id="path3003" d="m234.55 69.033c3.742-4.4471 3.337-7.7758-1.3771-11.318-2.3517-1.7673-11.164-2.903-16.329-2.1043-3.9593 0.6122-4.697 0.46133-5.5516-1.1354-1.2382-2.3135-1.2713-2.2852 5.4401-4.6441 6.9382-2.4386 18.305-2.6946 23.482-0.52888 4.1696 1.7444 8.3299 5.9002 8.3299 8.321 0 3.2481-9.2593 12.185-14.232 13.736l-2.3313 0.72734 2.5693-3.0535z" transform="scale(.8)" fill="#eae485"/>
  <path id="path3005" d="m221.17 65.236c-5.1757-3.7493-5.6818-4.7867-2.4363-4.9943 10.393-0.66486 15.391 2.1753 10.93 6.212-2.4475 2.2149-4.0779 1.9812-8.4938-1.2177z" transform="scale(.8)" fill="#eae485"/>
  <path id="path3007" d="m252.35 252.73v-41.891h6.2358c3.6702 0 7.3677 0.58533 8.9869 1.4227 5.8156 3.0074 5.723 2.3521 5.723 40.469 0 31.308-0.16365 35.037-1.6297 37.13l-1.6297 2.3267-0.65562-2.3528c-0.36059-1.2941-0.69833-4.1484-0.75053-6.343-0.19547-8.2184-3.9032-4.4432-3.9032 3.9742 0 4.9352-0.72704 7.1564-2.3423 7.1564-0.79102 0-1.3932-2.4452-1.8066-7.3353-0.56779-6.717-1.6952-9.9877-2.9948-8.6881-0.28102 0.28101-0.78009 4.0012-1.1091 8.2672-0.51661 6.6993-0.83837 7.7562-2.3612 7.7562-1.6893 0-1.763-1.7524-1.763-41.891z" transform="scale(.8)" fill="#eae485"/>
  <path id="path3009" d="m261.65 202.53-3.55-0.37225 5.2241-10.417c2.8732-5.7291 5.4802-10.417 5.7932-10.417s2.3445 1.3679 4.5144 3.0399c2.1699 1.6719 4.0633 3.111 4.2076 3.1978 0.25583 0.1541-4.7593 9.2417-7.46 13.518-0.75943 1.2024-2.1922 2.072-3.2661 1.9821-1.0522-0.088-3.5107-0.32756-5.4632-0.5323z" transform="scale(.8)" fill="#eae485"/>
  <path id="path3011" d="m135.72 229.92c-6.8073-1.4214-15.764-3.551-19.904-4.7324-14.235-4.062-25.709-11.002-27.979-16.922-0.56027-1.461-1.2289-10.368-1.4859-19.794-0.52427-19.23-0.97498-21.251-7.7466-34.734-3.9176-7.8004-4.6022-10.083-5.4987-18.332-2.3761-21.863 3.5882-40.275 17.473-53.943 5.9597-5.8664 11.021-8.6374 22.816-12.492 28.166-9.2041 57.385-7.4147 82.307 5.0404 16.631 8.3115 28.131 29.79 28.067 52.421-0.0342 12.179-1.4522 18.418-6.517 28.676-6.264 12.687-6.949 15.716-6.8756 30.402 0.0952 19.063-0.44229 22.058-4.8091 26.795-3.7867 4.1081-11.92 8.6449-21.258 11.858-4.2727 1.47-25.235 6.3561-34.307 7.9965-1.0473 0.18938-7.4738-0.81866-14.281-2.2401zm34.751-18.504c14.011-3.1792 30.849-10.941 20.708-9.5459-22.782 3.1344-31.872 4.2149-35.457 4.2149h-4.2917v-4.1447c0-2.2796-0.27173-6.7444-0.60384-9.9219l-0.60384-5.7772 7.9824-4.0096c5.8091-2.9179 9.6025-5.6847 13.933-10.162 3.2728-3.3839 5.9505-6.7237 5.9505-7.4217 0-1.4392-4.3413-2.0225-20.47-2.75-10.468-0.47221-38.295 0.76234-39.275 1.7424-0.83769 0.83769 4.5822 8.068 8.7624 11.689 2.1199 1.8365 6.9606 4.889 10.757 6.7832l6.9025 3.4441v10.264 10.264h-3.6612c-2.0136 0-10.047-0.82367-17.851-1.8304-20.875-2.6926-22.283-2.8193-22.283-2.0046 0 0.82234 6.4476 3.716 13.805 6.1956 17.038 5.7423 38.448 6.8841 55.696 2.9703zm-45.1-56.871c6.6601-2.4918 14.454-8.9187 18.853-15.547l3.5199-5.3029 3.9042 5.8466c10.268 15.377 29.814 21.737 45.24 14.722 22.015-10.012 25.393-41.261 6.4726-59.881-16.443-16.182-40.606-15.536-52.886 1.4153l-2.6383 3.6421-2.7089-3.5639c-4.1685-5.4841-7.0791-7.9234-12.264-10.278-15.445-7.0144-33.871-1.2612-45.722 14.275-6.4669 8.4785-9.132 25.882-5.5107 35.986 6.2698 17.493 25.253 25.603 43.74 18.686z" transform="scale(.8)" fill="#eae485"/>
 </g>
</svg>
