<?xml version="1.0" encoding="UTF-8" standalone="no"?>
<svg id="svg2" xmlns:rdf="http://www.w3.org/1999/02/22-rdf-syntax-ns#" xmlns="http://www.w3.org/2000/svg" height="256pt" width="256pt" version="1.1" xmlns:cc="http://creativecommons.org/ns#" xmlns:dc="http://purl.org/dc/elements/1.1/" viewBox="0 0 256 256">
 <metadata id="metadata43">
  <rdf:RDF>
   <cc:Work rdf:about="">
    <dc:format>image/svg+xml</dc:format>
    <dc:type rdf:resource="http://purl.org/dc/dcmitype/StillImage"/>
   </cc:Work>
  </rdf:RDF>
 </metadata>
 <g id="g2999" transform="matrix(.85 0 0 .85 19.152 30.4)">
  <g id="#303030ff" fill="#303030">
   <path id="path5" d="m124.92 0h0.3c3.15 5.58 4.26 11.96 6.49 17.9 5.44-6.08 11.46-11.65 16.68-17.9h0.36c-0.27 6.42-1.87 12.68-2.58 19.06 5.82-2.79 11.65-5.58 17.72-7.79-3.12 5.9-7.24 11.2-10.27 17.15 6.45-0.78 12.68-3.76 19.21-3.3-1.33 5.63-5.28 10.09-7.53 15.32 1.07 0.97 2.24 1.82 3.39 2.68 8.37-6.77 19.86-9.37 30.34-6.93 5.16 1.24 10.24 4.18 12.73 9.03 1.89 3.58 0.87 7.99-1.41 11.13-4.25 6.04-10.84 9.76-17.2 13.2 7.62 12.72 12.49 26.98 14.62 41.64 4.77 2.7 9.25 6.36 11.49 11.51 3.05 6.1 2.57 13.2 0.82 19.61 3.37 1.17 6.99 2.47 9.21 5.45 2.63 3.09 3.42 7.26 3.34 11.21-0.06 23.02 0.04 46.05-0.04 69.07 0.09 6.08-3.98 11.95-9.86 13.68-6.3 1.68-12.95-0.2-19.27 1.43-5.86 1.56-11.77 2.93-17.68 4.26-1.18 4-3.68 7.7-8.02 8.59h-25.98c-1.98-0.95-3.87-2.06-5.75-3.18-12.27 0.82-24.59 0.8-36.86 0.13-1.84 1.07-3.68 2.14-5.6 3.05h-25.35c-4.65-0.48-7.35-4.41-8.67-8.51-5.88-1.28-11.72-2.75-17.53-4.33-6.4-1.7-13.17 0.31-19.54-1.49-5.78-1.85-9.8-7.63-9.7-13.68-0.11-23 0.02-46-0.06-69-0.05-4.34 0.96-8.94 4.15-12.08 2.32-2.64 5.79-3.66 9.03-4.65-1.31-5.28-2.15-10.89-0.44-16.19 1.71-6.38 6.52-11.39 12.18-14.57 2.06-14.81 7.11-29.1 14.6-42.04-6.28-3.26-12.72-6.91-16.98-12.73-2.38-3.18-3.61-7.64-1.73-11.36 2.45-4.93 7.59-7.9 12.78-9.18 10.5-2.49 21.88 0.26 30.39 6.82 2-1.32 4.01-2.64 6.03-3.95-1.06-6.68-1.43-13.43-1.63-20.19 4.28 2.45 8.55 4.92 12.91 7.24 1.73-7.94 3.79-15.84 7.04-23.3 2.48 5.8 4.48 11.8 7.1 17.54 2.56-6.67 4.88-13.45 6.77-20.35m-42.69 54.22c-17.06 15.93-26.58 38.61-29.16 61.56-3.55 1.59-7.25 3.41-9.39 6.83-5.49 7.55-3.83 19.36 3.87 24.77 6.95 4.19 15.11 5.56 22.52 8.63 1.18 1.74 0.95 4 1.18 6 0.18 7.77 1.84 15.6 5.36 22.56 1.78 3.49 5.94 4.4 9.35 5.53 14.01 3.8 28.64 3.56 43.02 4.21 13.73-0.62 27.71-0.49 41.08-4.16 3.44-1.08 7.54-2.13 9.33-5.62 3.08-5.99 4.62-12.69 5.17-19.37 0.27-2.87 0.06-5.84 0.96-8.61 1.06-1.27 2.89-1.44 4.35-2.03 6.1-1.86 12.27-3.75 17.91-6.78 8.29-5.06 10.15-17.38 4.56-25.12-2.26-3.59-6.2-5.46-9.99-6.99-2.64-24.13-13.22-48.03-31.97-63.91-11.97-10.23-27.53-16.61-43.39-16.26-16.67 0.01-32.71 7.48-44.76 18.76m-30.56-9.59c-1.9 1.38-3.96 3.77-2.87 6.27 1.91 4.55 6.37 7.27 10.32 9.88 2.39 1.35 5.13 3.5 7.99 2.22-2.97-1.93-6.5-3.46-8.42-6.59-1.45-2.98 1.19-5.81 3.76-6.95 4.94-2.4 10.5-0.95 15.71-0.61 1.4 0.39 2.23-1.09 3.09-1.87-2.93-3.06-7.19-4.28-11.21-5.21-6.15-1.2-13.09-0.84-18.37 2.86m122.13 2.12c0.98 0.82 1.96 1.65 2.95 2.47 4.97-1.06 10.31-1.88 15.23-0.17 2.69 1 5.93 3.49 4.81 6.77-1.3 3.93-6.18 4.67-8.16 8.14 5.42-1.28 10.19-4.43 14.31-8.08 1.89-1.85 3.91-4.08 3.99-6.87-1-3.42-4.35-5.48-7.54-6.58-8.59-2.85-18.27-0.77-25.59 4.32m-110.51 5.45c-1.21 0.53-3.1 2.51-1.34 3.6 1.87 1.95 4.36 3.44 7.05 3.88 2.83-2.34 4.98-5.34 7.17-8.25-4.25-0.38-8.9-1.28-12.88 0.77m115.89-0.57c2.4 2.82 4.86 5.58 7.29 8.38 2.77-1.57 6.9-2.47 7.72-5.99-3.75-4.28-10.04-3.2-15.01-2.39m-147.65 98.91c-2.82 2.26-2.84 6.11-2.82 9.4 0.15 11.02 0.01 22.05 0.17 33.07 0.49 9.86 0.5 19.74 0.48 29.62 5.71-0.13 11.42-0.12 17.13-0.04-0.15-22.83 0.37-45.66 0.18-68.49-2.4-1.79-4.72-3.7-6.9-5.77-2.83 0.18-6.09 0.01-8.24 2.21m177.18 3.69c-0.19 13.93 0 27.86 0.05 41.79 0.58 8.85 0.68 17.73 0.6 26.6 5.39-0.12 10.78-0.12 16.18-0.01 0.27-4.19 0.82-8.36 0.86-12.56 0.08-17.01 0.16-34.02 0.31-51.03 0.08-3.11-0.43-6.61-3.07-8.63-1.98-1.94-4.89-1.84-7.45-2.09-2.27 2.24-4.79 4.22-7.48 5.93m-155.99 2.53c0.07 15.42-0.4 30.86 0.54 46.26 0.14 11.38-0.05 22.76 0.25 34.14 5.41 1.11 10.72 2.66 16.14 3.73-0.1-8.12 0.01-16.24 0.02-24.35 2.24-0.01 4.48-0.01 6.73-0.01-0.05 6.72-0.23 13.43-0.21 20.14 9.56-0.09 19.13-0.09 28.69 0 0.05-6.71-0.17-13.41-0.2-20.12 2.23-0.01 4.46-0.02 6.69-0.02 0.04 10.02 0.15 20.04 0.04 30.05 10.74 0.02 21.48 0 32.22 0 0.15-9.86-0.43-19.77 0.38-29.59 2.09-0.68 4.32-0.5 6.48-0.65 0.13 6.74-0.09 13.48-0.06 20.23 9.61 0.06 19.22 0.07 28.82-0.01 0.57-6.74-1.04-13.49 0.04-20.18 2.06 0.06 4.13 0.1 6.19 0.15 0.06 8.1 0.14 16.19 1 24.26 5.03-1.25 10.07-2.51 15.17-3.49 1.23-6.37 0.59-12.86 0.75-19.29 0-20.37 0.24-40.75 0.05-61.12-3.73 1.22-7.46 2.42-11.21 3.56-0.78 9.82-2.1 19.95-7.17 28.6-1.68 3.11-5.11 4.55-8.21 5.83-10.17 3.81-21.11 4.67-31.85 5.44-18.01 0.26-36.2 0.86-53.97-2.65-4.79-1.05-9.6-2.36-13.96-4.67-4.17-2.1-5.73-6.83-7.36-10.86-2.69-6.91-3.31-14.34-3.97-21.65-3.99-1.29-8-2.56-12.03-3.73z"/>
   <path id="path7" d="m144.97 70.12c14.42-2.62 28.92 7.49 33.51 21 2.69 7.47 2.47 16.08-1.2 23.18-3.83 7.54-11.79 12.8-20.24 13.26-8.15 0.59-16.31-2.75-22.15-8.37-3.29-3.02-5.56-6.89-7.85-10.66-3.33 6.16-7.8 11.94-14.06 15.32-7.95 4.57-18.34 5.23-26.4 0.57-7.66-4.21-12.41-12.75-12.67-21.4-0.72-12.42 6.74-24.66 17.81-30.17 8.37-4.37 19.31-4.32 27.08 1.33 3.58 2.42 5.96 6.11 8.25 9.68 3.82-6.74 10.01-12.53 17.92-13.74m-45.76 6.11c-12.91 3.26-22.06 17.56-18.81 30.62 1.73 8.51 9.92 15.19 18.66 14.8 13.32-0.03 24.61-12.58 24.5-25.67 0.13-6.82-3.12-13.86-8.96-17.57-4.5-2.92-10.26-3.56-15.39-2.18m44.14 0.33c-6.64 2.25-11.36 8.59-12.44 15.42-2.43 13.62 8.15 28.09 21.98 29.56 7.06 0.95 14.55-2.41 18.29-8.52 4.18-6.56 4.13-15.14 0.89-22.07-4.62-10.61-17.24-18.24-28.72-14.39z"/>
   <path id="path9" d="m104.35 97.42c3.4-2.33 8.5-0.2 9.47 3.74 1.93 5.09-4.77 10.2-9.27 7.26-4.21-2.05-4.14-8.7-0.2-11z"/>
   <path id="path11" d="m143.28 97.35c4.06-2.7 9.83 0.94 9.5 5.69 0.22 4.73-5.73 7.93-9.59 5.23-4.25-2.14-3.97-8.74 0.09-10.92z"/>
   <path id="path13" d="m93.15 170.34c4.62-1.36 10.04-0.47 13.67 2.78 2.48 2.22 2.56 6.56 0.09 8.82-4.23 3.78-10.75 4.55-15.83 2.07-2.39-1.09-4.87-3.13-4.86-6-0.53-4.1 3.51-6.69 6.93-7.67z"/>
   <path id="path15" d="m154.3 170.31c4.58-1.3 9.92-0.43 13.52 2.79 2.57 2.16 2.66 6.65 0.09 8.84-5.11 4.62-13.68 4.67-18.81 0.07-2.03-1.74-2.33-4.85-1.32-7.2 1.37-2.38 3.98-3.73 6.52-4.5z"/>
  </g>
  <g id="#ffffffff" fill="#fff">
   <path id="path35" d="m99.21 76.23c5.13-1.38 10.89-0.74 15.39 2.18 5.84 3.71 9.09 10.75 8.96 17.57 0.11 13.09-11.18 25.64-24.5 25.67-8.74 0.39-16.93-6.29-18.66-14.8-3.25-13.06 5.9-27.36 18.81-30.62m5.14 21.19c-3.94 2.3-4.01 8.95 0.2 11 4.5 2.94 11.2-2.17 9.27-7.26-0.97-3.94-6.07-6.07-9.47-3.74z"/>
   <path id="path37" d="m143.35 76.56c11.48-3.85 24.1 3.78 28.72 14.39 3.24 6.93 3.29 15.51-0.89 22.07-3.74 6.11-11.23 9.47-18.29 8.52-13.83-1.47-24.41-15.94-21.98-29.56 1.08-6.83 5.8-13.17 12.44-15.42m-0.07 20.79c-4.06 2.18-4.34 8.78-0.09 10.92 3.86 2.7 9.81-0.5 9.59-5.23 0.33-4.75-5.44-8.39-9.5-5.69z"/>
  </g>
  <path id="path2991" d="m134.24 241.1c-15.152-1.7378-25.774-3.8193-30.9-6.0553-7.2876-3.1786-10.607-9.9862-12.673-25.99-0.79709-6.1757-1.8682-12.076-2.3802-13.111-0.512-1.0353-6.5664-3.8412-13.454-6.2354-18.089-6.2877-24.165-12.962-22.984-25.25 0.76527-7.9643 3.547-12.395 10.561-16.823 4.0021-2.5264 5.3894-4.2995 5.3894-6.8881 0-7.7619 5.9447-26.483 12.875-40.548 11.93-24.21 32.028-43.203 53.758-50.803 12.004-4.1982 31.49-5.1602 43.089-2.1273 36.881 9.6442 65.599 44.58 73.381 89.27 1.3448 7.7222 1.9116 8.7156 6.3648 11.154 6.4136 3.5113 9.8807 8.4088 10.799 15.254 0.97514 7.2702-0.14389 11.347-4.553 16.587-3.8232 4.5436-4.8378 5.0748-20.753 10.865-5.568 2.0258-10.54 4.5258-11.048 5.5555-0.50855 1.0298-1.5921 7.0305-2.408 13.335-1.7057 13.181-6.0137 23.036-11.13 25.462-8.6982 4.1238-23.954 6.0432-51.392 6.4657-15.288 0.23539-29.932 0.18305-32.542-0.11634v0.00003zm-4.8114-10.617c6.0963-2.5472 8.2576-6.5937 6.1892-11.587-1.8898-4.5623-6.446-6.8325-13.712-6.8325-14.12 0-20.326 12.531-8.977 18.126 5.4378 2.6811 10.567 2.7723 16.5 0.2935zm78.834-1.4276c9.838-6.4461 3.1836-16.992-10.722-16.992-9.6578 0-16.552 7.1674-13.1 13.618 3.4566 6.4586 16.331 8.282 23.822 3.3738zm-67.25-73.71c5.1842-2.5679 9.0665-5.8536 12.748-10.789l5.2938-7.0969 2.3402 3.7492c3.439 5.5096 10.677 11.909 17.363 15.353 8.5647 4.4109 21.894 4.3497 30.008-0.13773 20.576-11.38 22.877-40.849 4.5684-58.518-15.007-14.483-38.624-14.534-50.514-0.11022l-3.9549 4.7979-4.3897-4.9996c-6.49-7.388-13.68-10.574-23.72-10.516-21.51 0.124-37.311 15.891-38.324 38.221-0.41148 9.0716-0.04005 10.972 3.4404 17.604 8.6847 16.548 26.78 21.537 45.137 12.445z" transform="scale(.8)" fill="#eae485"/>
  <path id="path3763" d="m139.25 288.68v-18.305h-4.7458-4.7458v12.203 12.203h-16.949-16.949v-12.203-12.203h-4.7458-4.7458v15.06c0 11.653-0.39136 14.91-1.7297 14.397-0.95134-0.36506-5.1249-1.3686-9.2746-2.2301l-7.5449-1.5663-0.92974-48.954c-0.51136-26.924-0.71275-49.171-0.44754-49.436 0.26521-0.26521 3.5483 0.42834 7.2958 1.5412l6.8136 2.0234 0.81842 8.4804c1.6993 17.608 7.3639 29.697 15.537 33.156 15.337 6.4915 41.029 9.2606 74.886 8.0714 25.473-0.8947 39.02-2.9952 50.123-7.7713 5.7576-2.4769 7.5513-4.1232 10.211-9.3725 2.6759-5.2806 5.7259-17.239 7.7461-30.371 0.26254-1.7066 2.3219-3.1326 6.1572-4.2637l5.7627-1.6995v49.182 49.182l-8.4371 2.1253c-4.6404 1.1689-8.759 1.8048-9.1525 1.413-0.39352-0.39174-0.92357-7.0696-1.1779-14.84l-0.46242-14.128h-4.6223-4.6224v12.203 12.203h-17.822-17.822l0.92123-12.203 0.92124-12.203h-4.6363c-5.8642 0-6.2658 1.3635-6.29 21.356l-0.0185 15.254h-19.661-19.661v-18.305z" transform="scale(.8)" fill="#eae485"/>
  <path id="path3769" d="m229.68 69.96c-2.0039-2.0917-3.6435-4.2272-3.6435-4.7458 0-1.802 10.345-0.93036 12.961 1.092 2.5829 1.9968 2.5723 2.0854-0.56902 4.7458-4.1074 3.4785-4.4054 3.4413-8.7486-1.092z" transform="scale(.8)" fill="#eae485"/>
  <path id="path3771" d="m80.76 71.052c-3.1413-2.6604-3.1519-2.7489-0.56902-4.7458 2.7425-2.1202 12.961-2.8554 12.961-0.93255 0 1.2344-7.1628 8.3893-8.3986 8.3893-0.4359 0-2.233-1.2199-3.9936-2.711z" transform="scale(.8)" fill="#eae485"/>
  <path id="path3784" d="m70.109 72.302c-2.9793-2.2537-6.3103-5.57-7.4022-7.3697-1.8271-3.0112-1.7266-3.5475 1.2607-6.7274 6.0446-6.4342 19.028-7.645 30.514-2.8458 7.526 3.1445 5.8075 4.7859-4.9056 4.6856-7.5749-0.07092-10.449 0.48358-13.22 2.5508-4.7057 3.5098-5.1178 6.6466-1.3939 10.611 4.2367 4.5097 1.673 4.032-4.8525-0.90417z" transform="scale(.8)" stroke="#ffd400" stroke-width="2.7119" fill="#ffd400"/>
  <path id="path3786" d="m244.23 73.206c3.7584-4.0006 3.3085-7.1032-1.5559-10.732-2.9815-2.2239-5.5763-2.7276-13.311-2.5842-11.41 0.21156-12.105-1.8114-1.8793-5.4705 11.225-4.0169 25.531-1.4942 29.074 5.1271 2.0072 3.7504-0.438 7.6639-8.3354 13.341-6.2235 4.4735-8.032 4.6178-3.993 0.31844z" transform="scale(.8)" stroke="#ffd400" stroke-width="2.7119" fill="#ffd400"/>
  <path id="path3772" d="m36.866 246.64c-0.54711-16.78-0.7281-36.086-0.40219-42.903 0.52118-10.901 0.9676-12.698 3.7059-14.915 4.2891-3.4731 8.6294-3.1564 13.556 0.98935l4.1718 3.5104v41.913 41.913h-10.019-10.019l-0.99475-30.509z" transform="scale(.8)" stroke="#eae485" stroke-width="2.7119" fill="#eae485"/>
  <path id="path3774" d="m262.18 259.86c-0.48494-9.5085-0.88419-28.351-0.88722-41.873l-0.005-24.585 4.6553-3.5508c5.5327-4.22 8.8344-4.4611 13.161-0.96096 3.1439 2.5436 3.2093 3.0822 3.6636 30.17 0.25441 15.169 0.0417 34.444-0.47275 42.834l-0.93531 15.254h-9.1485-9.1485l-0.88172-17.288z" transform="scale(.8)" stroke="#eae485" stroke-width="2.7119" fill="#eae485"/>
 </g>
</svg>
