<?xml version="1.0" encoding="UTF-8" standalone="no"?>
<svg id="svg2" xmlns:rdf="http://www.w3.org/1999/02/22-rdf-syntax-ns#" xmlns="http://www.w3.org/2000/svg" xmlns:osb="http://www.openswatchbook.org/uri/2009/osb" height="256pt" width="256pt" version="1.1" xmlns:cc="http://creativecommons.org/ns#" viewBox="0 0 256 256" xmlns:dc="http://purl.org/dc/elements/1.1/">
 <metadata id="metadata40">
  <rdf:RDF>
   <cc:Work rdf:about="">
    <dc:format>image/svg+xml</dc:format>
    <dc:type rdf:resource="http://purl.org/dc/dcmitype/StillImage"/>
   </cc:Work>
  </rdf:RDF>
 </metadata>
 <g id="g3007" transform="matrix(.85 0 0 .85 19.166 30.4)">
  <g id="#0e0e0dff" fill="#0e0e0d">
   <path id="path5" d="m121.3 0h1.47c5.77 2.18 6.12 9.32 8.27 14.26 4.19-2.2 8.03-5.73 12.93-6.11 2.54-0.38 5.34 2.05 4.64 4.68-0.91 3.77-3.32 6.92-5.19 10.24 15.03 3.16 29.3 10.35 40.21 21.25 12.88 12.49 21.15 29.75 22.29 47.7 0.65 9.76 0.02 19.55 0.38 29.32 16.46 9.85 26.21 28.23 29.21 46.76 0.47 4.06 1.85 8.91-0.86 12.47-2.15 2.65-5.79 0.81-8.41 0.09 0.7 6.01 2.22 12.46-0.17 18.29-0.97 2.55-3.69 3.48-5.92 4.61-1.26-0.5-2.52-0.98-3.79-1.47-1.15 5.22-2.1 11.23-6.55 14.77-4.05 3.19-10.35 1.67-13.02-2.58-4.27-6.57-4.77-14.68-5.65-22.25-11.57 7.28-24.89 11.2-38.31 13.3-2.37 0.39-4.75 0.7-7.14 0.94-11.98 1.16-24.12 1.5-36.06-0.19-0.73-0.13-2.18-0.39-2.9-0.52-14.89-1.3-29.72-5.59-42.41-13.63-0.94 7.49-1.4 15.5-5.52 22.07-2.54 4.27-8.68 6.1-12.85 3.09-4.67-3.4-5.72-9.49-6.86-14.76-3.4 1.41-7.63 0.73-9.44-2.76-2.72-5.97-1.08-12.76-0.57-19.02-2.19 0.72-4.52 1.95-6.86 1.16-2.16-0.92-2.96-3.47-2.95-5.64-0.11-7.1 1.63-14.1 3.83-20.81 4.67-13.83 13.57-26.49 26.15-34.17 0.04-8.67-0.09-17.34 0.06-26.01 0.39-14.63 5.35-29.04 13.93-40.88 9.19-12.91 22.56-22.56 37.39-28-0.85-5.67-1.98-11.53-0.79-17.24 0.65-2.55 3.32-5.15 6.11-4.06 3.73 1.43 5.86 5.07 8.31 8 2-4.48 3.9-9.07 7.04-12.9m1.27 8.28c-1.97 3.82-3.17 8.09-5.82 11.53-0.87 1.21-2.5 1.03-3.78 1.38-2.39-3.6-4.72-7.28-7.84-10.29-0.73 6.45 0.92 12.78 2.02 19.08-12.25 3.71-23.71 10.26-32.6 19.52-11.84 12.05-19.05 28.58-19.54 45.49-0.05 24 0.1 48.01 0.21 72.01 0.02 8.73 6.27 15.98 13.3 20.42 13.24 8.38 29.02 11.45 44.38 13.08 19.18 0.85 38.82 0.74 57.24-5.38 9.72-3.21 19.65-7.77 25.96-16.16 3.09-3.94 4.17-9.03 4.15-13.94-0.01-23 0.08-46 0.08-69-0.06-16.37-6.68-32.46-17.64-44.55-12.15-13.62-29.59-22.11-47.7-23.94 1.86-4.39 4.4-8.44 6.46-12.73-4.23 2.18-8.12 4.95-12.46 6.91-3.57-3.74-3.8-9.17-6.42-13.43m83.49 119.59c-0.17 13.4 0.02 26.81-0.05 40.2-0.08 7.66-4.31 14.45-9.5 19.78 1.17 7.17 1.27 14.69 4.32 21.41 0.72 1.32 1.62 3.01 3.26 3.27 1.96 0.45 3.22-1.6 4.02-3.06 2.92-7.09 2.85-14.87 3.38-22.38-0.12-2.99 4.9-4.17 5.68-1.01 1.27 3.71 1.29 7.81 3.38 11.24 2.19-7.06-0.6-14.31-0.32-21.46-0.08-2.01 1.61-3.94 3.71-3.6 2.39 0.7 4.4 2.29 6.54 3.51-1.01-18.29-9.12-37.15-24.42-47.9m-181.08 48.06c1.8-1.18 3.53-2.48 5.49-3.37 1.78-0.97 4.48 0.28 4.57 2.38 0.82 7.43-2.64 15.16 0.17 22.38 1.6-3.82 1.75-8.08 3.36-11.88 1.24-2.49 5.3-0.97 5.38 1.54 0.62 7.54 0.22 15.46 3.42 22.52 0.67 1.14 1.25 2.76 2.74 3.01 2.98 0.67 4.25-2.82 5.21-4.97 2.06-6.31 2.94-13 3.36-19.6-1.9-2.94-4.54-5.35-6.12-8.49-2.79-5-3.54-10.83-3.38-16.47 0.01-11.66 0.2-23.31 0.02-34.96-15.26 10.72-23.38 29.64-24.22 47.91z"/>
   <path id="path7" d="m75.33 90.93c-0.21-15.59 13.73-30.8 29.74-29.7 9.08-0.51 17.13 5.87 21.08 13.67 4.27-7.49 11.8-14.12 20.92-13.67 14.05-1.16 26.78 10.38 29.59 23.73 2.81 10.74-1.7254 23.596-11.825 28.716-5.01 3.02-11.395 2.2042-16.965 1.8142-9.89-1.84-17.35-9.64-21.67-18.35-3.92 8.8-11.54 16.23-21.12 18.3-5.64 0.45-11.79 1.04-16.92-1.88-8.32-4.07-13.23-13.51-12.83-22.63m25.06-24.36c-13.22 2.53-22.71 17.27-19.16 30.32 1.94 7.91 9.53 14.19 17.8 13.86 13.75 0.23 25.11-13.46 23.99-26.8-0.65-5.97-3.67-11.89-8.95-15.01-3.99-2.69-9.04-3.14-13.68-2.37m43.99-0.02c-6.53 1.23-11.98 6.5-13.85 12.82-2.52 7.84-0.01 16.67 5.24 22.82 5.82 7.07 16.13 10.77 24.85 7.24 8.65-3.39 13.14-13.77 11.07-22.57-2.1-12.35-14.53-22.8-27.31-20.31z"/>
   <path id="path9" d="m104.38 87.54c3.85-2.72 9.8 0.95 9.21 5.56-0.16 4.38-5.71 7.34-9.35 4.73-3.64-2.23-3.67-8.21 0.14-10.29z"/>
   <path id="path11" d="m142.26 87.31c3.82-2.3 9.42 1.23 8.54 5.77 0.29 4.37-5.15 7.23-8.75 4.94-4.18-2.22-4.28-8.82 0.21-10.71z"/>
   <path id="path13" d="m119.65 112.91c6.59-0.96 14.08-1.25 19.91 2.48 5.69 3.99 5.26 11.55 5.12 17.69 0.13 7.22-5.53 12.67-10.68 16.92-2.76 1.94-6.38 4.89-9.84 2.79-5.42-2.88-10.39-6.97-13.62-12.25-3.19-4.91-2.23-11.04-1.98-16.56 0.41-5.8 5.47-10.34 11.09-11.07m-0.53 5.23c-3.07 0.78-5.49 3.64-5.53 6.85-0.15 4.72-1.05 10.17 2.3 14.06 2.88 3.61 6.53 7.13 10.94 8.64 5.57-2.09 10.44-6.97 12.46-12.62 0.37-5.72 1.9-14.56-5.13-16.84-4.91-1.02-10.12-0.92-15.04-0.09z"/>
  </g>
  <g id="#ffffffff" fill="#fff">
   <path id="path23" d="m122.06 33.68c8.05-0.75 16.15 0.36 23.93 2.46 1.74 0.54 3.48 1.09 5.24 1.6 5.51 2.61 11.02 5.33 15.82 9.13 4.24 3.05 7.64 7.03 11.38 10.63 0.05 1.07 0.11 2.13 0.18 3.2l-2-0.1c-0.14-0.79-0.44-2.38-0.58-3.17-0.24 0.7-0.71 2.09-0.94 2.79-0.34-0.44-1-1.33-1.33-1.77-4.89 0.05-9.78 0.14-14.66-0.05-1.41-1.17-2.8-1.17-4.18 0-0.78 0.03-2.35 0.1-3.14 0.13-1.08-0.79-1.97-2.22-3.49-2.04-6.73-0.06-13.47 0.12-20.21-0.08-2.26-1.37-5.17 0.53-7.63-0.95l0.08-1.05c-7.99 0.25-15.98-0.08-23.97 0.17l-0.19-1.61c-0.92 0.44-2.74 1.31-3.66 1.75-0.3-1.03-0.63-2.06-0.97-3.07-0.08 0.62-0.25 1.86-0.34 2.47-1.96-2.56-5.34-1.47-8.05-1.49 0.06-0.42 0.17-1.26 0.23-1.67 5.55-4.83 11.59-9.12 18.32-12.15 0.96-0.34 1.92-0.7 2.88-1.06 3.34-1.24 6.78-2.17 10.22-3.09 2.38-0.09 4.79-0.17 7.06-0.98z"/>
   <path id="path25" d="m100.39 66.57c4.64-0.77 9.69-0.32 13.68 2.37 5.28 3.12 8.3 9.04 8.95 15.01 1.12 13.34-10.24 27.03-23.99 26.8-8.27 0.33-15.86-5.95-17.8-13.86-3.55-13.05 5.94-27.79 19.16-30.32m3.99 20.97c-3.81 2.08-3.78 8.06-0.14 10.29 3.64 2.61 9.19-0.35 9.35-4.73 0.59-4.61-5.36-8.28-9.21-5.56z"/>
   <path id="path27" d="m144.38 66.55c12.78-2.49 25.21 7.96 27.31 20.31 2.07 8.8-2.42 19.18-11.07 22.57-8.72 3.53-19.03-0.17-24.85-7.24-5.25-6.15-7.76-14.98-5.24-22.82 1.87-6.32 7.32-11.59 13.85-12.82m-2.12 20.76c-4.49 1.89-4.39 8.49-0.21 10.71 3.6 2.29 9.04-0.57 8.75-4.94 0.88-4.54-4.72-8.07-8.54-5.77z"/>
  </g>
  <g id="#a85700ff" fill="#a85700">
   <path id="path30" d="m119.12 118.14c4.92-0.83 10.13-0.93 15.04 0.09 7.03 2.28 5.5 11.12 5.13 16.84-2.02 5.65-6.89 10.53-12.46 12.62-4.41-1.51-8.06-5.03-10.94-8.64-3.35-3.89-2.45-9.34-2.3-14.06 0.04-3.21 2.46-6.07 5.53-6.85z"/>
   <path id="path32" d="m145.69 206.27c2.39-0.24 4.77-0.55 7.14-0.94 0.17 8.74-0.11 17.48-0.63 26.2 10.71 2.65 21.86 5.29 30.65 12.36-0.35 0.66-1.05 1.98-1.39 2.64-7.87-2.62-15.97-4.4-24.02-6.33 2.84 4.8 5.59 10.03 5.14 15.8h-1.98c-4.44-5.62-8.56-11.5-13.09-17.06-4.31 3.62-8.66 7.23-12.72 11.14-0.39-0.55-1.17-1.66-1.56-2.22 0.26-5.25 4.25-9.31 7.75-12.83 1.58-1.8 4.18-3.3 4.16-5.98 0.45-7.59 0.54-15.19 0.55-22.78z"/>
   <path id="path34" d="m102.36 206.63c1.42-0.47 2.89-0.82 4.37-1.07 0.72 0.13 2.17 0.39 2.9 0.52 0.27 8.41 0.46 16.83 0.98 25.24 5.2 4.72 10.72 9.79 12.3 16.96-0.68 0.34-2.04 1.01-2.72 1.34-3.82-3.76-7.97-7.16-11.97-10.73-3.35 4.11-6.7 8.23-9.74 12.58-1.51 1.99-2.8 4.9-5.88 4.11 0.38-5.55 2.68-10.63 5.44-15.36-8.07 1.89-16.15 3.82-24.06 6.3-0.3-0.65-0.9-1.94-1.2-2.59 8.76-7.2 20.01-9.8 30.7-12.7-0.76-8.18-0.6-16.41-1.12-24.6z"/>
  </g>
  <path id="path3005" d="m206.22 142.02c0-0.006 0.0816-0.052 0.18135-0.10211 0.71901-0.36151 1.9402-1.107 2.7936-1.7055 1.2951-0.9082 2.3322-1.7861 3.5578-3.0117 1.2852-1.2852 2.3007-2.5003 3.3166-3.9687l0.26107-0.37735v0.32584 0.32583l-0.23838 0.31993c-1.5301 2.0535-3.1935 3.7536-5.1859 5.3002-1.2889 1.0005-2.9165 2.0297-4.327 2.7361-0.33447 0.16751-0.35917 0.17834-0.35917 0.15746z" transform="scale(.8)"/>
  <path id="path3007" d="m207.23 141.49c0-0.005 0.10821-0.0723 0.24046-0.1496 1.4655-0.85618 2.9776-1.9661 4.2332-3.1073 0.4217-0.38329 1.7646-1.7324 2.1262-2.136 0.82382-0.91953 1.5113-1.7878 2.2132-2.7952l0.2796-0.40131 0.006 0.29645 0.006 0.29645-0.38651 0.50511c-1.4651 1.9147-2.8801 3.3749-4.67 4.8193-1.1229 0.90613-2.465 1.8095-3.7948 2.5541-0.21672 0.12136-0.25389 0.13864-0.25389 0.11801z" transform="scale(.8)"/>
  <path id="path3023" d="m61.176 263.92c-2.8175-2.8175-4.7152-11.444-5.6953-25.892-0.37287-5.4958-0.60097-6.2846-2.1018-7.268-1.0133-0.66394-2.3612-0.933-3.3858-0.67584-1.8184 0.45637-3.1251 3.4768-4.6644 10.781-0.46523 2.2077-1.0678 3.5082-1.5013 3.2403-0.48559-0.30012-0.55614-4.704-0.21417-13.368 0.46547-11.794 0.40191-13.04-0.72848-14.289-1.6805-1.8569-4.0303-1.7196-7.736 0.45201l-3.1064 1.8205 0.0064-3.0482c0.0092-4.3981 3.0316-17.075 5.6008-23.492 4.0297-10.064 9.083-17.774 16.531-25.222 7.6492-7.6492 6.9749-9.5443 6.9749 19.603 0 31.182 0.43652 33.519 8.1695 43.736l3.5306 4.6646-0.46844 5.668c-0.9464 11.451-4.3266 22.628-7.3294 24.235-1.848 0.989-1.9804 0.95676-3.882-0.94482z" transform="scale(.8)" fill="none"/>
  <path id="path5261" d="m61.781 264.53c-3.0824-2.159-5.3249-11.342-6.2175-25.459-0.42109-6.6601-0.59229-7.3145-2.1869-8.3593-1.2926-0.84696-2.204-0.96797-3.6048-0.47864-1.6664 0.5821-2.0749 1.4298-3.6747 7.6247-1.1343 4.3926-2.0094 6.6307-2.3666 6.0528-0.3117-0.50434-0.33751-6.5847-0.05734-13.512 0.4636-11.463 0.39856-12.717-0.72364-13.957-1.7337-1.9158-4.4247-1.6956-8.1496 0.66661l-3.1995 2.0291 0.30723-3.2568c1.8741-19.867 11.758-40.281 24.93-51.491l3.9207-3.3367 0.29998 26.487c0.31194 27.543 0.33285 27.751 3.5494 35.256 0.57875 1.3504 2.6727 4.6652 4.6533 7.366l3.601 4.9107-0.45444 5.2615c-0.95329 11.037-3.5672 20.606-6.4036 23.442-2.1206 2.1206-2.2417 2.1422-4.2232 0.75429z" transform="scale(.8)" fill="#eae485"/>
  <path id="path5263" d="m253.18 263.58c-2.7768-2.9726-4.9277-10.983-6.7124-24.999-0.43111-3.3857-0.33761-3.6396 2.6893-7.302 3.9802-4.816 7.2409-11.271 8.1424-16.12 0.38644-2.0783 0.70261-15.122 0.70261-28.986v-25.207l2.0032 1.4264c3.6022 2.565 10.2 9.832 13.939 15.354 6.6266 9.7849 11.932 24.325 13.186 36.139l0.50635 4.7696-3.8493-1.8879c-2.7279-1.3379-4.395-1.7509-5.7224-1.4177-2.9956 0.75186-3.5078 3.1256-2.6072 12.084 0.9601 9.5508 1.0056 16.188 0.11482 16.738-0.64798 0.40046-1.138-1.0184-2.9004-8.3981-1.3694-5.7342-3.7109-7.3269-6.9343-4.7167-1.34 1.085-1.6215 2.2877-2.176 9.2952-1.1048 13.963-2.6532 20.388-5.6936 23.625-1.9459 2.0713-2.4198 2.0311-4.6886-0.39766z" transform="scale(.8)" fill="#eae485"/>
  <path id="path3012" d="m142.11 250.09c-9.9384-0.69578-22.154-2.7774-30.516-5.2002-24.767-7.1755-39.05-18.311-41.73-32.536-0.43704-2.3191-0.71102-21.83-0.70929-50.51 0.0031-51.257 0.18592-54.135 4.2006-66.118 7.7019-22.989 23.087-40.542 45.254-51.634 3.0867-1.5444 7.6642-3.5317 10.172-4.4162 2.508-0.88445 4.7663-1.7938 5.0185-2.0207 0.2522-0.22695-0.131-3.7274-0.85156-7.7787-0.72055-4.0513-1.3215-9.0784-1.3354-11.171l-0.0254-3.8053 1.6619 1.5612c0.91403 0.85868 3.0348 3.5858 4.7128 6.0603 2.6975 3.9778 3.2567 4.4504 4.8273 4.079 2.8655-0.6775 4.2444-2.3193 7.4413-8.8604 3.4189-6.9954 3.0251-7.1182 6.5528 2.0436 3.2929 8.5521 3.3124 8.5592 11.284 4.1124 3.6655-2.0448 6.7595-3.6243 6.8756-3.5098 0.1161 0.11443-1.2906 3.2312-3.1261 6.9261s-3.1693 6.886-2.964 7.0912c0.20523 0.20523 3.1904 0.86347 6.6337 1.4628 7.4037 1.2886 18.756 4.9674 24.971 8.0926 26.642 13.395 44.709 37.725 48.663 65.529 1.4578 10.252 1.4587 96.766 0.001 103.64-1.2399 5.8509-3.5096 9.7962-8.3887 14.582-17.5 17.164-54.184 25.488-98.623 22.376zm22.838-60.36c4.84-3.0686 11.837-10.401 14.123-14.8 1.7608-3.3882 1.9228-4.3668 1.9474-11.763 0.0166-4.996-0.3552-9.3845-0.97666-11.526-1.2692-4.3744-5.027-8.2203-9.5947-9.8195-7.2829-2.5498-20.965-2.0434-26.924 0.99666-3.5307 1.8012-6.7178 5.7599-7.6646 9.5202-0.94981 3.772-0.9651 14.366-0.0266 18.436 1.4222 6.1675 7.861 13.581 16.451 18.941 4.7119 2.9402 8.0462 2.9443 12.666 0.0156v0.00002zm-26.066-47.856c6.5051-3.2154 13.174-9.4163 16.525-15.365l2.2738-4.0365 2.7203 4.2088c5.6482 8.7389 12.088 14.078 20.331 16.856 3.8792 1.3072 5.7189 1.4877 12.94 1.2698 7.9889-0.24108 8.6412-0.3743 12.787-2.6118 2.403-1.2968 5.4871-3.4436 6.8535-4.7706 2.969-2.8835 6.2872-9.213 7.7263-14.738 4.3035-16.522-5.5656-36.477-21.53-43.532-8.4752-3.7456-19.835-4.0004-26.784-0.60078-4.4666 2.1853-10.867 7.7274-13.104 11.346-0.82048 1.3276-1.7028 2.4053-1.9607 2.3949-0.25791-0.01038-1.2582-1.309-2.2228-2.8857-2.4381-3.9854-7.7589-8.6075-12.48-10.841-4.7815-2.262-13.671-3.033-19.945-1.7297-9.2935 1.9307-19.404 9.6833-24.309 18.64-7.5728 13.828-6.2093 30.342 3.3492 40.56 6.4575 6.9036 11.882 8.9337 23.255 8.7032 7.8396-0.15883 8.2835-0.2526 13.571-2.8662z" transform="scale(.8)" stroke="#eae485" stroke-width="1.4031" fill="#eae485"/>
 </g>
</svg>
