<?xml version="1.0" encoding="UTF-8" standalone="no"?>
<svg id="svg2" xmlns:rdf="http://www.w3.org/1999/02/22-rdf-syntax-ns#" xmlns="http://www.w3.org/2000/svg" height="256pt" width="256pt" version="1.1" xmlns:cc="http://creativecommons.org/ns#" xmlns:dc="http://purl.org/dc/elements/1.1/" viewBox="0 0 256 256">
 <metadata id="metadata93">
  <rdf:RDF>
   <cc:Work rdf:about="">
    <dc:format>image/svg+xml</dc:format>
    <dc:type rdf:resource="http://purl.org/dc/dcmitype/StillImage"/>
   </cc:Work>
  </rdf:RDF>
 </metadata>
 <g id="g3011" transform="matrix(.85 0 0 .85 19.2 30.4)">
  <g id="#302e2eff" fill="#302e2e">
   <path id="path5" d="m22.83 0h60.31c8.77 0.56 16.05 7.24 18.31 15.57 16.74-6.53 35.75-6.47 52.55-0.18 2.3-8.13 9.41-14.45 17.87-15.39h60.8c9.67 0.89 17.82 9.41 17.89 19.17 0.12 27.93 0.06 55.87 0.03 83.79 0.12 7.89-5.11 15.46-12.56 18.08-7.06 2.33-14.63 0.88-21.92 1.27-0.02 3.58-0.02 7.16-0.01 10.74 6.95 0.11 13.9-0.17 20.84 0.12 8.01 0.41 14.48 7.92 14.36 15.82 0.05 23.66-0.03 47.33 0.03 70.99-0.04 3.72 0.33 7.6-1.03 11.16-2.03 5.52-7.4 9.63-13.27 10.08-7.91 0.45-15.86-0.27-23.76 0.3-5.69 1.1-11.23 2.88-16.91 4.01-0.34 4.94-3.55 9.37-8.52 10.47h-43.61c-3.07-0.93-5.82-3.19-9.19-2.77-5.01 0.13-10.03 0.05-15.04 0.04-2.89-0.13-5.28 1.79-7.89 2.73h-43.59c-5.15-0.79-8.4-5.37-8.94-10.29-4.52-1.03-9.02-2.14-13.48-3.42-5.53-1.68-11.37-0.74-17.05-0.95-5.23-0.16-10.85 0.78-15.7-1.72-5.39-2.65-8.89-8.54-8.67-14.55 0-23.35 0.03-46.7-0.01-70.04 0.02-4.29-0.37-8.81 1.53-12.79 2.36-5.33 7.9-9.08 13.76-9.12 6.64-0.18 13.29 0.01 19.93-0.07 0.01-3.58 0.01-7.16 0-10.74-5.64-0.08-11.29 0.18-16.93-0.1-7.34-0.47-14.23-5.34-16.88-12.23-1.8-4.43-1.38-9.29-1.4-13.96 0.03-25.31-0.02-50.63 0.02-75.95-0.19-10.11 8.15-19.06 18.13-20.07m-11.65 20.97c-0.01 16.12 0.22 32.23 0.16 48.35-0.24 9.55 0.11 19.12-0.03 28.68 0.08 3.29-0.41 6.77 0.97 9.88 1.9 4.59 6.71 7.76 11.67 7.78 5.31 0.11 10.63-0.03 15.94 0.04-0.05-2.04-0.09-4.08-0.14-6.12-5.66-0.44-12.21 1.57-17.03-2.33-3.17-2.36-5.59-6.21-5.34-10.28-0.08-9.07 0.15-18.15-0.07-27.22 0.01-14.6-0.01-29.21 0.03-43.81-0.22-6.67 5.94-12.87 12.63-12.6 15.69-0.02 31.39-0.02 47.08 0 5.24-0.18 9.85 3.56 11.96 8.17 2.14-1.08 4.25-2.22 6.32-3.43-1.19-5.94-6.08-11.34-12.4-11.48-19.63-0.09-39.27-0.05-58.91-0.02-7.39-0.01-13.5 7.12-12.84 14.39m155.96-12.78c-3.75 1.98-6.16 5.77-7.01 9.86 2.3 1.18 4.59 2.38 6.87 3.57 1.86-4.83 6.73-8.54 12.01-8.29 15.34-0.01 30.68 0.02 46.02-0.01 6.96-0.63 13.82 5.59 13.63 12.62 0.02 14.6 0.05 29.19 0.01 43.78-0.23 9.72 0.13 19.45-0.15 29.17-0.74 4.8-4.78 8.74-9.23 10.41-4.31 0.66-8.71 0.19-13.05 0.28-0.06 2.04-0.1 4.08-0.14 6.12 5.59-0.11 11.18 0.16 16.77-0.12 6.21-0.51 11.33-6.33 11.16-12.54 0.03-13.16 0.16-26.32-0.06-39.47 0.1-13.21 0.12-26.42 0.14-39.62-0.05-3.49 0.3-7.24-1.48-10.39-2.17-4.25-6.79-7.19-11.61-7-17.67-0.02-35.34 0.02-53.01-0.02-3.66 0.01-7.6-0.34-10.87 1.65m-140.98 9.84c-3.6 1.86-5.59 5.99-5.48 9.97 0.05 10.41-0.09 20.84 0.09 31.25l0.92 0.57-1.07 0.51c-0.11 11.2 0.04 22.42-0.04 33.62-0.19 3.81 1.14 7.86 4.29 10.18 4.14 3.22 9.72 2.19 14.57 2.2l0.88-0.84c1.09-14.51 5.38-28.58 11.25-41.84l0.16 0.01c1.53-3.59 3.57-6.93 5.47-10.33 7.33-11.95 17.36-21.99 28.68-30.16-1.59-2.02-3.11-4.33-5.57-5.38-2.88-1.42-6.17-1.09-9.28-1.13-11.68 0.03-23.36 0.03-35.04 0-3.3 0.03-6.83-0.32-9.83 1.37m143.94 5.17c1.35 1.24 2.77 2.41 4.26 3.49 9.81 7.2 17.89 16.55 24.39 26.8 1.85 3.34 3.84 6.61 5.43 10.09h0.11c6 13.55 10.38 27.95 11.41 42.79 3.46-0.02 6.93 0.22 10.38-0.14 5.33-0.7 9.55-5.88 9.31-11.23 0-11.21 0.08-22.42-0.01-33.62l-1.06-0.56c1.9-0.72 0.64-3.3 1.01-4.83-0.1-9.69 0.09-19.38-0.06-29.07-0.12-5.77-5.54-10.57-11.26-10.24-14.68 0.02-29.36-0.05-44.03 0.04-4.29 0.01-7.85 2.88-9.88 6.48m-60.24-3.37c-16.97 4.71-31.65 15.94-42.05 29.99-14.38 19.21-21.23 43.38-21.25 67.22 0.01 13.92 0.09 27.84 0.02 41.76-0.09 25.53 0.05 51.06-0.02 76.59 4.36 1.34 8.79 2.4 13.22 3.47 0.15-8.33-0.14-16.67 0.12-24.98 1.91-0.95 4.44-0.25 6.58-0.42-0.01 2.36-0.01 4.73 0.02 7.1 0.08 6.14-0.1 12.29-0.06 18.44 0.01 2.71-0.15 5.44 0.1 8.15 0.44 1.47 1.88 2.47 3.43 2.27 14.1 0.07 28.2 0.02 42.3 0.01 0.6-1.06 1.57-2.04 1.47-3.35 0.07-5.42-0.09-10.84-0.05-16.27-0.01-3.08-0.1-6.17-0.03-9.25 0.05-2.37 0.05-4.73 0.03-7.1 2.23 0 4.45 0.01 6.68 0.02-0.01 11.01-0.01 22.02 0 33.03 5.08 0.19 10.17 0.08 15.25-0.08 0.04-10.99 0-21.98 0.02-32.98 2.23 0 4.47 0.03 6.7 0.07-0.04 2.34-0.06 4.67 0 7.01 0.08 3.1-0.04 6.19-0.02 9.3 0.01 5.38-0.12 10.77-0.06 16.16-0.12 1.34 0.87 2.36 1.48 3.44 14.11 0.01 28.21 0.06 42.32-0.01 1.54 0.19 3.01-0.81 3.39-2.3 0.26-2.74 0.09-5.49 0.11-8.23 0.03-6.12-0.14-12.24-0.07-18.36 0.04-2.36 0.04-4.71 0.03-7.06 2.19-0.01 4.38-0.03 6.57-0.07 0.23 8.39 0.03 16.79 0.11 25.18 4.37-1.1 8.79-2.03 13.12-3.29-0.04-30.42-0.02-60.84 0.05-91.26-0.03-1.57-0.13-3.12-0.28-4.67 0.51-5.75 0.05-11.56 0.21-17.32 0.34-17.65-2.34-35.54-9.49-51.77-8.2-18.93-22.21-35.86-40.78-45.3-14.99-7.77-32.91-9.79-49.17-5.14m-98.65 129.16c0.06 12.96 0.03 25.93 0.2 38.89-0.49 12.37 0.08 24.78-0.1 37.16-0.51 4.93 3.7 9.69 8.67 9.63 6.62 0.12 13.25-0.03 19.87 0.04v-4.01c-8.21-0.03-16.42 0.06-24.63-0.06-2.16-5.01 2.14-11.72 7.74-11.18 2.83 0.09 4.74 2.35 6.19 4.51 2.05-3.93 6.77-5.89 10.76-3.38-0.28-12.32 0.47-24.66-0.16-36.97 0.23-14.67 0.22-29.36 0.23-44.05-6.65-0.02-13.3-0.09-19.95 0.01-4.92-0.09-9.03 4.58-8.82 9.41m204.78-9.41c0.02 15.01 0.06 30.04 0.25 45.05-0.63 11.97 0.13 23.98-0.15 35.97 1.89-0.69 3.9-1.57 5.95-0.96 2.25 0.62 3.49 2.7 4.81 4.44 1.37-2.26 3.35-4.51 6.2-4.62 4.31-0.47 7.8 3.53 8.3 7.54 0.05 1.19 0.31 3.56-1.47 3.59-7.9 0.3-15.82 0.01-23.73 0.11-0.01 1.34-0.01 2.67-0.01 4.01 6.63-0.07 13.26 0.07 19.89-0.04 4.54 0.03 8.72-4.02 8.63-8.59-0.03-11.42 0.2-22.84 0.04-34.26-0.13-14.27 0.12-28.54 0.09-42.81 0.21-4.82-3.85-9.5-8.77-9.44-6.67-0.09-13.35-0.02-20.03 0.01m-198.11 87.77c2.95 0.05 5.89 0.04 8.83 0.01-0.5-1.18-0.99-2.36-1.48-3.54-3.13-2.51-6.7 0.06-7.35 3.53m14.06 0.03c2.71 0.02 5.41 0.02 8.12-0.04-0.79-1.84-1.66-4.48-4.05-4.59-2.56-0.32-3.63 2.62-4.07 4.63m184-0.04c2.7 0.06 5.41 0.06 8.12 0.03-0.42-2.13-1.58-4.92-4.23-4.69-2.27 0.48-3.14 2.75-3.89 4.66m13.25-0.01c2.97 0.07 5.94 0.07 8.92 0.02-0.76-2.23-2.35-5.21-5.2-4.58-2.19 0.52-2.85 2.79-3.72 4.56z"/>
   <path id="path7" d="m71.96 75.81c5.15-13.06 18.8-22.84 33.08-21.62 9.58 0.32 18.21 6.6 22.18 15.22 2.12-3.8 4.67-7.46 8.21-10.08 8.09-6.25 19.65-6.68 28.76-2.5 13.58 5.96 22.47 21.25 20.43 36.02-1.22 9.05-6.82 17.6-15.23 21.46-10.58 5.16-23.76 2.3-32.42-5.28-4.26-3.58-7.44-8.23-9.81-13.22-3.06 6.59-7.78 12.5-14.04 16.31-7.34 4.61-16.7 6.18-25 3.47-6.53-2.06-12.01-6.88-15.28-12.84-4.4-8.24-4.4-18.38-0.88-26.94m25.33-14.64c-12.65 3.04-22.26 15.8-21.19 28.85-0.13 9.95 7.93 19.19 17.85 20.29 11.09 1.33 21.85-5.89 26.56-15.69 4.28-8.5 3.99-19.57-2.14-27.12-4.87-6.2-13.65-8.23-21.08-6.33m48.98-0.02c-8.52 2.06-14.56 10.27-15.2 18.82-1.57 14.6 10.2 29.34 24.96 30.43 7.4 0.66 15.09-3.03 18.95-9.42 4.87-7.77 4.28-18.08-0.13-25.91-5.38-9.89-17.27-16.8-28.58-13.92z"/>
   <path id="path9" d="m103.51 83.68c5.01-2.26 10.86 3.08 9.2 8.29-1.11 5.32-9.03 6.75-12.13 2.42-2.81-3.43-1.22-9.16 2.93-10.71z"/>
   <path id="path11" d="m145.61 83.76c5.05-2.47 11.36 2.82 9.67 8.2-1.51 5.68-10.06 6.73-13.1 1.84-2.54-3.5-0.46-8.62 3.43-10.04z"/>
   <path id="path13" d="m106.56 159.56c-0.14-7.65-0.1-15.3-0.1-22.95 2.21 0.02 4.41 0.03 6.62 0.05-0.06 16.12 0.16 32.25 0.14 48.37 0.04 1.44 0 2.91 0.35 4.32 1.01 2.01 3.37 2.27 5.37 2.22 14.85-0.03 29.71-0.03 44.56-0.01l0.03 5.28c4.91 0.02 9.81 0.02 14.72 0.02v-8.05c-2.45-0.02-4.89-0.03-7.34-0.05-0.02-6.15-0.03-12.31-0.02-18.47 2.45-0.01 4.9-0.03 7.35-0.04v-8.01c-4.9 0-9.79 0-14.68-0.01-0.02 1.76-0.03 3.52-0.04 5.29-6.83 0.01-13.65 0-20.47 0.01-0.22-10.29-0.07-20.58-0.13-30.87 2.22-0.02 4.44-0.03 6.66-0.04 0.05 8.06 0.04 16.12 0.05 24.18 2.3-0.02 4.61-0.02 6.92-0.05 0.96-2.13 2.17-4.78 4.82-5.07 5.54-0.37 11.1-0.03 16.65-0.15 2.96-0.45 5.73 1.24 6.77 4.03-0.06 4.37 0.32 8.79-0.24 13.14-0.64 3.27-4.21 4.12-7.03 4.46 0 1.59 0.01 3.17 0.02 4.76 2.53 0.45 5.94 0.66 6.9 3.58 0.73 4.12 0.45 8.37 0.28 12.54 0.09 2.98-2.67 5.59-5.63 5.39-5.69 0.06-11.4 0.18-17.08-0.07-2.93-0.06-4.34-2.92-5.51-5.14-12.85-0.13-25.69 0.07-38.53-0.08-5.61 0.22-11.33-4.27-11.22-10.12-0.13-9.49 0.01-18.98-0.19-28.46z"/>
   <path id="path15" d="m70.32 239.97c1.65-2.03 3.82-4.19 6.68-3.84 2.93 0.04 4.6 2.67 6.11 4.79 1.76-2.21 3.74-4.96 6.92-4.81 3.03-0.14 4.82 2.56 6.4 4.7 1.77-2.05 3.62-4.66 6.63-4.68 3.09-0.33 5.37 2.1 7.04 4.35 0.81 2.4 0.8 4.93 0.53 7.42-13.81 0.09-27.63 0.07-41.44 0.01 0.01-2.69 0.14-5.41 1.13-7.94m1.93 4.58c2.82 0.08 5.65 0.08 8.47-0.03-0.78-2.13-1.71-5.48-4.63-5.14-2.42 0.52-3.11 3.17-3.84 5.17m13.66 0.06c2.66 0 5.32 0 7.99-0.02-0.64-2.05-1.17-5.2-3.9-5.22-2.8-0.02-3.74 2.98-4.09 5.24m13.02-0.01c2.99 0.02 5.97 0.01 8.95-0.03-0.71-2.08-1.55-4.78-4.06-5.18-2.97-0.3-4.21 2.89-4.89 5.21z"/>
   <path id="path17" d="m146.01 240.32c1.66-2.2 3.94-4.5 6.95-4.19 2.99 0.02 4.83 2.64 6.6 4.67 1.61-2.14 3.41-4.85 6.45-4.7 3.16-0.12 5.13 2.61 6.87 4.82 1.52-2.14 3.23-4.77 6.18-4.79 2.88-0.33 5.02 1.86 6.66 3.91 0.95 2.51 1.08 5.21 1.11 7.87-13.74 0.13-27.48-0.07-41.22 0.11-0.58-2.57-0.61-5.23 0.4-7.7m2.11 4.26c2.98 0.04 5.96 0.04 8.94 0.02-0.67-2.34-1.94-5.55-4.93-5.21-2.48 0.46-3.31 3.11-4.01 5.19m13.98 0.01c2.67 0.02 5.34 0.02 8.01 0.02-0.33-2.27-1.31-5.24-4.1-5.23-2.72 0.03-3.29 3.16-3.91 5.21m13.22-0.04c2.8 0.07 5.61 0.07 8.42 0-0.73-2-1.41-4.73-3.89-5.16-2.89-0.3-3.82 3.03-4.53 5.16z"/>
  </g>
  <path id="path3816" d="m30.826 128.25-3.9485-3.9485 0.0082-46.333c0.0093-52.221 0.13243-52.972 9.1223-55.655 7.868-2.3483 61.13-1.2168 65.051 1.3819 4.4437 2.9452 4.9061 5.5492 1.4125 7.953-6.0262 4.1463-19.046 17.284-25.069 25.296-13.47 17.918-23.566 43.571-26.816 68.136l-0.94184 7.1186h-7.4347c-6.403 0-7.9826-0.54795-11.383-3.9485z" transform="scale(.8)" fill="#eae485"/>
  <path id="path3818" d="m269.11 124.41c-1.12-10.5-5.68-27.457-10.42-38.779-7.31-17.434-14.65-28.015-29.91-43.127l-14.589-14.446 3.3837-3.1815c3.297-3.1 4.1187-3.1924 32.091-3.6054 33.509-0.49479 38.168 0.38069 41.943 7.8815 2.1607 4.2936 2.3545 9.0516 2.0339 49.943l-0.35434 45.197-4.4282 3.9552c-3.7208 3.3234-5.5852 3.9552-11.671 3.9552h-7.2431l-0.8316-7.7966z" transform="scale(.8)" fill="#eae485"/>
  <path id="path3820" d="m302.1 284.4c0-8.0117-8.7787-13.223-14.789-8.7788-3.5962 2.6588-3.6644 2.6593-6.8781 0.0571-2.0935-1.6952-4.3594-2.3488-6.3824-1.8411l-3.1366 0.78723v-49.517-49.517h14.001c21.584 0 19.897-4.9715 19.897 58.651 0 33.454-0.48984 52.678-1.3559 53.213-0.78367 0.48433-1.3559-0.80465-1.3559-3.0541z" transform="scale(.8)" fill="#eae485"/>
  <path id="path3822" d="m84.814 310.41c-0.55932-0.56528-1.0169-10.689-1.0169-22.497v-21.469h-4.7458-4.7458v15.619 15.619l-3.7288-0.92384c-2.0508-0.50812-5.2542-1.3263-7.1186-1.8182l-3.3898-0.8943-0.4276-79.225c-0.471-87.14-0.065-93.73 7.099-115.3 10.157-30.593 30.466-55.3 55.7-67.768 24.359-12.036 49.123-12.226 73.676-0.5661 29.197 13.866 50.983 42.727 60.454 80.089 3.769 14.867 4.78 38.017 4.8284 110.56l0.0477 71.615-5.7745 1.4783c-3.176 0.81307-6.5372 1.7341-7.4694 2.0468-1.1592 0.3888-1.6949-1.0676-1.6949-4.6081 0-2.8471-0.39462-9.8449-0.87693-15.551l-0.87691-10.374h-4.5468-4.5468l-0.13621 22.034c-0.10318 16.697-0.44016 20.737-1.391 16.678-0.69017-2.9457-2.2489-6.4542-3.4638-7.7966-2.8129-3.1082-9.2214-3.1436-12.297-0.0679-2.2599 2.2599-2.4859 2.2599-4.7458 0-2.9929-2.9929-8.8628-3.0554-12.097-0.12881-2.3073 2.0881-2.652 2.0881-4.9593 0-3.1162-2.8201-8.2179-2.8762-12.134-0.13329-2.3554 1.6497-3.0136 3.4442-3.0136 8.2156 0 3.7246-0.52867 5.7781-1.3559 5.2668-0.81221-0.50196-1.3559-9.5056-1.3559-22.453v-21.615h-4.7458-4.7458v20.339 20.339h-8.8136-8.8136v-20.339-20.339h-4.6007c-3.1133 0-4.8922 0.75958-5.5022 2.3494-0.49586 1.2922-0.48192 9.164 0.031 17.493 0.89985 14.612 0.13329 24.908-1.8539 24.899-0.52553-0.003-0.98411-2.4106-1.0191-5.3516-0.0384-3.2344-1.0591-6.4473-2.583-8.1313-3.0643-3.3861-9.7321-3.6592-13.179-0.53994-2.3073 2.0881-2.652 2.0881-4.9593 0-3.1716-2.8702-8.1403-2.8702-11.312 0-2.3073 2.0881-2.652 2.0881-4.9593 0-1.3638-1.2342-3.993-2.2441-5.8425-2.2441-5.547 0-8.3929 3.1238-9.2239 10.125-0.41745 3.5167-1.2166 5.9316-1.7759 5.3663zm144.75-57.524c1.4692-1.2193 2.0346-4.4419 2.0346-11.595 0-10.544-1.7589-14.168-6.8765-14.168-4.2488 0-3.0335-4.524 1.8211-6.7797 4.3166-2.0056 4.3829-2.1789 4.7722-12.475 0.37566-9.9346 0.22477-10.552-3.113-12.739-5.2424-3.435-27.467-1.9186-30.719 2.096-1.2382 1.5282-3.8314 2.7786-5.7627 2.7786h-3.5115v-14.915-14.915h-5.6169-5.6169l0.87113 8.3345c0.47912 4.584 0.87112 13.431 0.87112 19.661v11.327h12.881c11.977 0 12.881-0.19031 12.881-2.7119 0-2.4337 0.90396-2.7119 8.8136-2.7119h8.8136v4.0678c0 3.745-0.37666 4.0678-4.7458 4.0678h-4.7458v12.203 12.203h4.7458c4.3691 0 4.7458 0.32285 4.7458 4.0678v4.0678h-8.8136c-7.9096 0-8.8136-0.27814-8.8136-2.7119 0-2.6234-0.90396-2.7119-27.708-2.7119-15.24 0-29.273-0.59506-31.186-1.3224l-3.4781-1.3224v-33.254-33.254h-4.7458-4.7458v33.132c0 18.223 0.58293 34.665 1.2954 36.539 2.8002 7.365 6.3838 8.255 35.198 8.741 24.03 0.40539 26.616 0.67895 28.232 2.987 1.327 1.8946 3.9265 2.68 10.222 3.0883 12.068 0.78273 19.657 0.17042 22.001-1.7752zm-96.624-108.58c9.9585-3.3548 17.002-8.6233 22.377-16.738l3.9387-5.9464 2.5234 4.6856c6.489 12.049 20.493 19.989 35.243 19.982 13.992-0.007 24.499-6.5395 31.362-19.501 3.9404-7.4416 3.4951-25.698-0.84351-34.576-4.792-9.8059-14.225-18.697-23.531-22.179-15.022-5.6206-27.899-3.1889-38.325 7.2378l-6.9422 6.9422-4.4765-5.332c-17.73-21.131-54.45-11.96-64.994 16.222-4.786 12.792-3.1319 28.406 4.0826 38.538 3.2132 4.5125 12.984 10.652 19.373 12.174 7.2665 1.7308 11.51 1.4116 20.214-1.5205z" transform="scale(.8)" fill="#eae485"/>
  <path id="path3824" d="m15.584 286.3c-0.51687-1.347-0.93977-25.308-0.93977-53.247v-50.798l3.3282-3.3282c3.1027-3.1027 4.2739-3.3282 17.288-3.3275l13.96 0.00072 0.08181 49.537c0.06828 41.345-0.22456 49.42-1.7707 48.826-1.0189-0.39098-3.9486 0.16493-6.5105 1.2354-4.049 1.6918-5.147 1.6911-8.3988-0.005-2.0574-1.0732-4.4695-1.9551-5.3601-1.9597-3.022-0.0156-8.4217 6.0725-9.5826 10.804-0.91379 3.7245-1.3526 4.1982-2.0956 2.262v0.00004z" transform="scale(.8)" fill="#eae485"/>
  <path id="path3000" d="m191.05 136.94c-5.7213-1.3045-11.253-4.5409-16.203-9.4804-5.3838-5.3719-8.8273-11.765-10.012-18.59-2.3137-13.323 2.9541-24.778 13.866-30.149 4.2695-2.1019 5.3947-2.341 10.894-2.3155 4.6667 0.02166 7.134 0.42542 10.323 1.6892 9.0141 3.5728 16.953 11.803 20.659 21.417 2.1187 5.496 2.3626 15.46 0.50788 20.748-4.344 12.385-17.305 19.583-30.033 16.681zm-1.1038-16.625c6.4412-2.6913 6.1022-12.61-0.53869-15.762-3.273-1.5531-4.4515-1.5141-8.1354 0.26924-5.1995 2.517-6.7662 8.6149-3.4 13.233 2.3204 3.1837 7.5287 4.1582 12.074 2.259z" transform="scale(.8)" stroke="#eae485" stroke-width="1.4388" fill="#fff"/>
  <path id="path3770" d="m114.33 136.8c-4.2968-1.1806-10.524-5.2333-12.971-8.4424-1.008-1.3216-2.6862-4.2671-3.7294-6.5457-1.6341-3.5693-1.8909-5.0752-1.8554-10.879 0.09797-16.01 9.6915-28.997 24.826-33.606 15.809-4.8146 30.12 4.521 32.865 21.439 2.1616 13.321-6.2702 28.919-19.01 35.166-7.8058 3.8279-13.617 4.6558-20.126 2.8673zm24.444-17.749c4.8978-4.8978 2.5998-13.187-4.1604-15.007-5.6601-1.5241-10.685 2.6287-10.685 8.8308 0 3.1274 0.31543 3.8875 2.5338 6.1059 2.4094 2.4094 2.7296 2.5176 6.5215 2.2031 3.0177-0.25025 4.4261-0.76904 5.7898-2.1328z" transform="scale(.8)" stroke="#eae485" stroke-width="1.4388" fill="#fff"/>
  <path id="path3001" d="m26.929 143.69c-5.77-1.4047-10.452-5.8635-11.807-11.243-1.2424-4.9338-1.0172-109.19 0.24347-112.73 1.479-4.1443 4.3435-7.4145 8.1267-9.2774l3.4368-1.6924h39.984 39.984l3.5217 2.1773c2.1212 1.3115 4.2913 3.4571 5.457 5.3957 3.2518 5.4079 3.2078 5.8392-0.82407 8.0676l-3.5671 1.9715-1.271-1.9668c-1.8373-2.8429-4.4581-5.103-7.7459-6.6797-2.7052-1.2973-4.8416-1.381-35.65-1.3958l-32.772-0.0158-3.7532 1.8703c-2.5286 1.2601-4.5112 2.9618-6.0765 5.2158l-2.3233 3.3456-0.19468 48.916c-0.209 52.513-0.31482 50.86 3.5761 55.884 3.4245 4.4218 6.921 5.6322 16.27 5.6322h8.0462v3.5971 3.5971l-10.252-0.0736c-5.6385-0.0405-11.223-0.31009-12.41-0.59907z" transform="scale(.8)" stroke="#eae485" stroke-width="1.4388" fill="#eae485"/>
  <path id="path3003" d="m270.45 140.76v-3.5971h7.9423c8.9021 0 11.451-0.84289 15.582-5.1528 4.7012-4.9044 4.5345-2.8585 4.5171-55.436-0.0148-44.577-0.10122-47.873-1.3264-50.563-1.7178-3.7718-6.4758-7.9984-10.103-8.9753-1.932-0.52022-13.725-0.71247-35.472-0.57828-37.107 0.22897-35.987 0.05097-40.799 6.4801l-2.4649 3.2933-3.8309-1.8788c-4.3329-2.125-4.3812-2.4948-1.0503-8.0341 1.1658-1.9387 3.3356-4.0841 5.4572-5.3957l3.5219-2.1773h40.344c37.08 0 40.53 0.10195 42.649 1.2601 3.3519 1.8328 7.2092 6.0602 8.2776 9.0718 0.72784 2.0517 0.92862 14.595 0.92862 58.013v55.396l-1.5978 2.988c-2.0738 3.8781-6.056 7.1169-9.9587 8.0996-1.7102 0.43062-7.4985 0.78296-12.863 0.78296h-9.7534v-3.5971z" transform="scale(.8)" stroke="#eae485" stroke-width="1.4388" fill="#eae485"/>
  <path id="path3005" d="m90.643 305.15c0.66042-2.6434 2.4982-5.184 4.0894-5.6533 2.1758-0.64163 3.8428 0.68211 5.3003 4.2087l0.69672 1.6858-0.88977 0.12788c-0.48937 0.0703-2.7887 0.13549-5.1095 0.14479l-4.2198 0.0169 0.13263-0.53089z" transform="scale(.8)" stroke="#eae485" stroke-width=".38610" fill="#ffd400"/>
  <path id="path3775" d="m107.55 305.41c0.0582-0.15172 0.16385-0.6078 0.23474-1.0135 0.2065-1.1819 1.37-3.437 2.1072-4.0843 1.1721-1.0291 2.9532-1.2368 4.3614-0.50857 0.30239 0.15637 0.80507 0.65534 1.1171 1.1088 0.53777 0.78161 1.7675 3.912 1.7675 4.4992 0 0.22961-0.78809 0.27419-4.8469 0.27419-4.122 0-4.8311-0.0413-4.741-0.27587z" transform="scale(.8)" stroke="#eae485" stroke-width=".38610" fill="#ffd400"/>
  <path id="path3777" d="m123.89 305.5c0-0.10376 0.22061-0.77476 0.49025-1.4911 1.9062-5.0642 5.68-6.1937 8.4569-2.5312 0.41166 0.54296 1.8637 3.7745 1.8637 4.1477 0 0.0348-2.4324 0.0633-5.4054 0.0633-3.3907 0-5.4054-0.0703-5.4054-0.18864z" transform="scale(.8)" stroke="#eae485" stroke-width=".38610" fill="#ffd400"/>
  <path id="path3779" d="m185.38 305.48c0-0.36679 1.0098-2.7571 1.5022-3.5561 0.74012-1.2008 1.2189-1.6552 2.2622-2.1472 1.7257-0.81378 3.2101-0.45397 4.6651 1.1307 0.94357 1.0277 1.3041 1.6816 1.9112 3.4666l0.44705 1.3144h-5.3939c-3.7319 0-5.3939-0.0642-5.3939-0.20839z" transform="scale(.8)" stroke="#eae485" stroke-width=".38610" fill="#ffd400"/>
  <path id="path3781" d="m202.82 305.39c0.0626-0.16321 0.2554-0.79303 0.42838-1.3996 0.42136-1.4775 1.3675-3.2364 2.0497-3.8104 0.71409-0.60087 1.9256-0.92435 2.8665-0.76538 0.93994 0.1588 2.273 1.046 2.8396 1.89 0.51438 0.76616 1.1388 2.466 1.3184 3.5892l0.1268 0.79296h-4.8716c-4.3032 0-4.8583-0.0346-4.7577-0.29673z" transform="scale(.8)" stroke="#eae485" stroke-width=".38610" fill="#ffd400"/>
  <path id="path3783" d="m219.44 305.15c0.28131-1.126 1.3181-3.3499 1.9436-4.1692 0.6803-0.89096 1.9913-1.6714 2.8046-1.6695 2.1135 0.005 3.5582 1.5046 4.9107 5.0977l0.47873 1.2719h-5.1351-5.1351l0.13263-0.53089z" transform="scale(.8)" stroke="#eae485" stroke-width=".38610" fill="#ffd400"/>
  <path id="path3785" d="m270.13 283.96c0-0.0594 0.33984-0.81955 0.75521-1.6892 1.8623-3.8991 4.7665-4.8898 7.09-2.4185 0.73339 0.78003 1.1804 1.6328 1.6278 3.1057l0.3372 1.11h-4.9051c-2.6978 0-4.9051-0.0486-4.9051-0.10803z" transform="scale(.8)" stroke="#eae485" stroke-width=".38610" fill="#ffd400"/>
  <path id="path3787" d="m286.73 283.96c0-0.37902 1.6854-3.3363 2.2726-3.9875 2.3814-2.6413 5.7465-1.6508 7.6493 2.2514 0.38272 0.78489 0.69586 1.5193 0.69586 1.632 0 0.13961-1.6927 0.20496-5.3089 0.20496-2.9199 0-5.3089-0.0454-5.3089-0.10081z" transform="scale(.8)" stroke="#eae485" stroke-width=".38610" fill="#ffd400"/>
  <path id="path3789" d="m22.688 283.4c0.69071-2.5016 3.2294-4.731 5.3991-4.7415 0.99617-0.005 2.397 0.42711 2.9862 0.92064 0.33375 0.27959 2.0208 3.9013 2.0197 4.3357-0.000212 0.0796-2.3824 0.14479-5.2937 0.14479h-5.2933l0.18215-0.65971z" transform="scale(.8)" stroke="#eae485" stroke-width=".38610" fill="#ffd400"/>
  <path id="path3791" d="m40.364 283.05c0.94189-3.1746 2.7332-4.8111 4.889-4.4663 0.89057 0.14241 2.0834 0.87472 2.692 1.6527 0.40225 0.51422 1.3949 2.4105 1.7481 3.3394l0.18544 0.48775h-4.9076-4.9076l0.3007-1.0135z" transform="scale(.8)" stroke="#eae485" stroke-width=".38610" fill="#ffd400"/>
  <path id="path3795" d="m24.309 293.21c-4.8256-0.55618-8.6356-3.9024-9.8403-8.6424-0.25414-0.99996-0.28637-6.2502-0.25983-42.326 0.01666-22.652 0.10248-41.185 0.1907-41.185s0.16172 11.185 0.16332 24.855c0.004 33.75 0.392 58.162 0.95788 60.263 0.10428 0.38728 0.32175 0.87521 0.48326 1.0843 0.29058 0.37616 0.29745 0.37566 0.65656-0.0471 0.1996-0.235 0.55142-1.1259 0.78183-1.9798 0.76225-2.8249 0.88204-2.9204 0.88204-0.70274 0 1.0733 0.11629 2.3513 0.25842 2.84l0.25842 0.88847 2.1547 0.12416c1.1851 0.0683 8.1272 0.12456 15.427 0.12504l13.272 0.00088v2.4131 2.4131l-12.403-0.0289c-6.8219-0.0159-12.664-0.059-12.983-0.0957z" transform="scale(.8)" stroke="#eae485" stroke-width=".38610" fill="#eae485"/>
  <path id="path3799" d="m270.31 290.95v-2.4046l14.913-0.079c11.896-0.063 15.019-0.13094 15.435-0.33582 0.77738-0.38281 1.1194-1.2914 1.1194-2.974 0-3.188-1.1252-5.8773-3.4187-8.1708-0.77756-0.77756-1.3237-1.4138-1.2137-1.4138 0.11002 0 0.83157 0.62983 1.6035 1.3996 2.2045 2.1985 3.0533 4.1911 3.3018 7.751 0.14245 2.0405 0.40966 2.722 1.0672 2.722 0.60547 0 0.69284-0.34459 0.96623-3.8109 0.48055-6.0929 0.62052-15.448 0.72212-48.264l0.10624-34.315h0.45344 0.45344l-0.005 38.948c-0.003 21.421-0.0699 40.347-0.14883 42.056l-0.14356 3.1081-0.81794 1.7046c-1.348 2.8094-3.8764 4.9829-6.98 6.0005-0.97222 0.31875-2.1731 0.3538-14.237 0.4155l-13.176 0.0674v-2.4046z" transform="scale(.8)" stroke="#eae485" stroke-width=".38610" fill="#eae485"/>
 </g>
</svg>
