<?xml version="1.0" encoding="UTF-8" standalone="no"?>
<svg
   xmlns:dc="http://purl.org/dc/elements/1.1/"
   xmlns:cc="http://creativecommons.org/ns#"
   xmlns:rdf="http://www.w3.org/1999/02/22-rdf-syntax-ns#"
   xmlns:svg="http://www.w3.org/2000/svg"
   xmlns="http://www.w3.org/2000/svg"
   xmlns:xlink="http://www.w3.org/1999/xlink"
   xmlns:sodipodi="http://sodipodi.sourceforge.net/DTD/sodipodi-0.dtd"
   xmlns:inkscape="http://www.inkscape.org/namespaces/inkscape"
   viewBox="0 -200 1000 1000"
   id="svg2"
   version="1.1"
   inkscape:version="0.91pre3 r13670"
   width="100%"
   height="100%"
   sodipodi:docname="bk.svg">
  <metadata
     id="metadata12">
    <rdf:RDF>
      <cc:Work
         rdf:about="">
        <dc:format>image/svg+xml</dc:format>
        <dc:type
           rdf:resource="http://purl.org/dc/dcmitype/StillImage" />
        <dc:title />
      </cc:Work>
    </rdf:RDF>
  </metadata>
  <defs
     id="defs10">
    <linearGradient
       inkscape:collect="always"
       id="linearGradient3056">
      <stop
         style="stop-color:#ff6600;stop-opacity:1;"
         offset="0"
         id="stop3058" />
      <stop
         style="stop-color:#ff6600;stop-opacity:0;"
         offset="1"
         id="stop3060" />
    </linearGradient>
    <filter
       id="filter3008"
       y="-0.25"
       height="1.5"
       inkscape:menu-tooltip="Adds a colorizable drop shadow inside"
       inkscape:menu="Shadows and Glows"
       inkscape:label="Inner Shadow"
       color-interpolation-filters="sRGB">
      <feGaussianBlur
         id="feGaussianBlur3010"
         stdDeviation="5"
         result="result6" />
      <feComposite
         id="feComposite3012"
         in2="result6"
         result="result8"
         in="SourceGraphic"
         operator="atop" />
      <feComposite
         id="feComposite3014"
         in2="SourceAlpha"
         result="result9"
         operator="over"
         in="result8" />
      <feColorMatrix
         id="feColorMatrix3016"
         values="1 0 0 0 0 0 1 0 0 0 0 0 1 0 0 0 0 0 1 0 "
         result="result10" />
      <feBlend
         id="feBlend3018"
         in2="result6"
         in="result10"
         mode="normal"
         result="fbSourceGraphic" />
      <feColorMatrix
         result="fbSourceGraphicAlpha"
         in="fbSourceGraphic"
         values="0 0 0 -1 0 0 0 0 -1 0 0 0 0 -1 0 0 0 0 1 0"
         id="feColorMatrix3032" />
      <feOffset
         id="feOffset3034"
         dx="4"
         dy="4"
         result="result11"
         in="fbSourceGraphic" />
      <feGaussianBlur
         id="feGaussianBlur3036"
         stdDeviation="4"
         result="result8" />
      <feComposite
         id="feComposite3038"
         in2="result8"
         result="result9"
         in="fbSourceGraphic"
         operator="in" />
      <feBlend
         id="feBlend3040"
         in2="result8"
         in="result9"
         mode="darken"
         result="fbSourceGraphic" />
      <feColorMatrix
         result="fbSourceGraphicAlpha"
         in="fbSourceGraphic"
         values="0 0 0 -1 0 0 0 0 -1 0 0 0 0 -1 0 0 0 0 1 0"
         id="feColorMatrix3042" />
      <feGaussianBlur
         id="feGaussianBlur3044"
         stdDeviation="4"
         result="result8"
         in="fbSourceGraphic" />
      <feOffset
         id="feOffset3046"
         dx="4"
         dy="4"
         result="result11" />
      <feComposite
         id="feComposite3048"
         in2="result11"
         result="result6"
         in="fbSourceGraphic"
         operator="in" />
      <feFlood
         id="feFlood3050"
         result="result10"
         in="result6"
         flood-opacity="1"
         flood-color="rgb(0,0,0)" />
      <feBlend
         id="feBlend3052"
         in2="result10"
         mode="normal"
         in="result6"
         result="result12" />
      <feComposite
         id="feComposite3054"
         in2="fbSourceGraphic"
         result="result2"
         operator="in" />
    </filter>
    <filter
       id="filter3022"
       inkscape:label="Cutout"
       x="0"
       y="0"
       width="1"
       height="1"
       inkscape:menu="Shadows and Glows"
       inkscape:menu-tooltip="Drop shadow under the cut-out of the shape"
       color-interpolation-filters="sRGB">
      <feGaussianBlur
         id="feGaussianBlur3024"
         in="SourceAlpha"
         stdDeviation="4.2" />
      <feOffset
         id="feOffset3026"
         dy="5"
         dx="5"
         result="result91" />
      <feComposite
         id="feComposite3028"
         in2="result91"
         operator="out"
         in="SourceGraphic" />
    </filter>
    <linearGradient
       inkscape:collect="always"
       xlink:href="#linearGradient3056"
       id="linearGradient3062"
       x1="338.98306"
       y1="427.96609"
       x2="182.20338"
       y2="665.25421"
       gradientUnits="userSpaceOnUse" />
  </defs>
  <sodipodi:namedview
     pagecolor="#ffffff"
     bordercolor="#666666"
     borderopacity="1"
     objecttolerance="10"
     gridtolerance="10"
     guidetolerance="10"
     inkscape:pageopacity="0"
     inkscape:pageshadow="2"
     inkscape:window-width="1680"
     inkscape:window-height="987"
     id="namedview8"
     showgrid="false"
     inkscape:zoom="0.6675088"
     inkscape:cx="449.47248"
     inkscape:cy="533.23237"
     inkscape:window-x="1912"
     inkscape:window-y="-8"
     inkscape:window-maximized="1"
     inkscape:current-layer="svg2"
     showguides="true"
     inkscape:guide-bbox="true">
    <sodipodi:guide
       orientation="1,0"
       position="500.36793,963.28318"
       id="guide4162" />
    <sodipodi:guide
       orientation="0,1"
       position="654.67302,77.901595"
       id="guide4164" />
  </sodipodi:namedview>
  <path
     inkscape:connector-curvature="0"
     style="fill:#000000;fill-opacity:1;fill-rule:evenodd;stroke:#000000;stroke-width:26.92499733;stroke-linecap:butt;stroke-linejoin:miter;stroke-miterlimit:3.4000001;stroke-dasharray:none;stroke-opacity:1"
     d="m 487.30034,708.74907 20.199,0 0.0162,0 174.9967,0 c 4.85724,-11.7264 -23.51457,-14.69919 -26.925,-26.925 -54.13898,-194.07874 28.6189,-316.20409 49.9427,-369.21426 l -218.22918,0 0,396.13926 z"
     id="path6157" />
  <path
     inkscape:connector-curvature="0"
     style="fill:#000000;fill-opacity:1;fill-rule:evenodd;stroke:#000000;stroke-width:26.92499733;stroke-linecap:butt;stroke-linejoin:miter;stroke-miterlimit:3.4000001;stroke-dasharray:none;stroke-opacity:1"
     d="m 419.98785,312.60981 -108.70967,0 c 22.81341,55.32247 101.27662,178.6918 48.14946,369.21426 -3.40925,12.22613 -31.78224,15.1986 -26.925,26.925 l 87.48521,0 0,-396.13926 z"
     id="path6143" />
  <path
     inkscape:connector-curvature="0"
     style="fill:#000000;fill-opacity:1;fill-rule:evenodd;stroke:#000000;stroke-width:26.92499733;stroke-linecap:butt;stroke-linejoin:miter;stroke-miterlimit:3.4000001;stroke-dasharray:none;stroke-opacity:1"
     d="m 487.30034,272.22231 207.02272,0 C 619.81643,194.35605 645.4847,158.14866 645.4847,158.14866 l -158.18436,-0.0108 0,114.08418 z"
     id="path6152" />
  <path
     inkscape:connector-curvature="0"
     style="fill:#000000;fill-opacity:1;fill-rule:evenodd;stroke:#000000;stroke-width:26.92499733;stroke-linecap:butt;stroke-linejoin:miter;stroke-miterlimit:3.4000001;stroke-dasharray:none;stroke-opacity:1"
     d="m 419.98785,158.13814 -52.48272,-0.005 c 0,0 28.27564,37.06789 -49.06975,114.08942 l 101.55247,0 0,-114.08417 z"
     id="path6136" />
  <path
     sodipodi:nodetypes="cscsc"
     inkscape:connector-curvature="0"
     id="path6026"
     d="m 474.70459,-78.639648 c 0,0 -41.53566,12.9555 -47.85229,24.8441 -4.70816,8.86126 1.96094,30.03914 1.96094,30.03914 0,0 22.96514,5.15573 30.03915,-1.96098 11.40642,-11.47529 15.8522,-52.92226 15.8522,-52.92226 z"
     style="fill:#000000;fill-opacity:1;fill-rule:evenodd;stroke:#000000;stroke-width:13.46249866;stroke-linecap:butt;stroke-linejoin:miter;stroke-miterlimit:4;stroke-dasharray:none;stroke-opacity:1" />
  <path
     sodipodi:nodetypes="cscsc"
     inkscape:connector-curvature="0"
     id="path6028"
     d="m 389.26764,-89.716648 c 0,0 9.77017,42.39812 2.6925,53.84999 -5.27536,8.53574 -26.925,13.4625 -26.925,13.4625 0,0 -16.03798,-17.2268 -13.46247,-26.92499 4.15286,-15.63788 37.69497,-40.3875 37.69497,-40.3875 z"
     style="fill:#000000;fill-opacity:1;fill-rule:evenodd;stroke:#000000;stroke-width:13.46249866;stroke-linecap:butt;stroke-linejoin:miter;stroke-miterlimit:4;stroke-dasharray:none;stroke-opacity:1" />
  <path
     sodipodi:nodetypes="cscsc"
     inkscape:connector-curvature="0"
     id="path6030"
     d="m 463.31138,100.06094 c 0,0 9.77017,-42.398098 2.6925,-53.849968 -5.27536,-8.53574 -26.925,-13.4625 -26.925,-13.4625 0,0 -16.03798,17.2268 -13.46247,26.925 4.15286,15.63787 37.69497,40.387468 37.69497,40.387468 z"
     style="fill:#000000;fill-opacity:1;fill-rule:evenodd;stroke:#000000;stroke-width:13.46249866;stroke-linecap:butt;stroke-linejoin:miter;stroke-miterlimit:4;stroke-dasharray:none;stroke-opacity:1" />
  <path
     sodipodi:nodetypes="cscsc"
     inkscape:connector-curvature="0"
     id="path6032"
     d="m 337.26661,85.539142 c 0,0 12.95548,-41.53565 24.8441,-47.85225 8.86123,-4.70816 30.03909,1.96092 30.03909,1.96092 0,0 5.15576,22.96517 -1.96095,30.03912 -11.4753,11.40646 -52.92224,15.85221 -52.92224,15.85221 z"
     style="fill:#000000;fill-opacity:1;fill-rule:evenodd;stroke:#000000;stroke-width:13.46249866;stroke-linecap:butt;stroke-linejoin:miter;stroke-miterlimit:4;stroke-dasharray:none;stroke-opacity:1" />
  <path
     sodipodi:nodetypes="cscsc"
     inkscape:connector-curvature="0"
     id="path6034"
     d="m 295.8194,-34.211928 c 0,0 38.93002,19.42959 43.2646,32.1752103 3.23081,9.5 -6.73839,29.3391497 -6.73839,29.3391497 0,0 -23.49402,1.41774 -29.33917,-6.73838 -9.42504,-13.1513797 -7.18704,-54.77598 -7.18704,-54.77598 z"
     style="fill:#000000;fill-opacity:1;fill-rule:evenodd;stroke:#000000;stroke-width:13.46249866;stroke-linecap:butt;stroke-linejoin:miter;stroke-miterlimit:4;stroke-dasharray:none;stroke-opacity:1" />
  <path
     inkscape:connector-curvature="0"
     id="path6036"
     d="m 359.40661,7.0134523 282.71246,0"
     style="fill:none;fill-rule:evenodd;stroke:#000000;stroke-width:13.46249866;stroke-linecap:butt;stroke-linejoin:miter;stroke-miterlimit:4;stroke-dasharray:none;stroke-opacity:1" />
  <circle
     r="26.924997"
     cy="7.0134687"
     cx="500.76288"
     id="circle6038"
     style="fill:#000000;fill-opacity:1;stroke:none;stroke-width:5;stroke-miterlimit:4;stroke-dasharray:none;stroke-opacity:1" />
  <path
     style="fill:#000000;fill-opacity:1;fill-rule:evenodd;stroke:#000000;stroke-width:13.46249866;stroke-linecap:butt;stroke-linejoin:miter;stroke-miterlimit:4;stroke-dasharray:none;stroke-opacity:1"
     d="m 528.3576,-78.639648 c 0,0 41.53565,12.9555 47.85229,24.8441 4.70815,8.86126 -1.96095,30.03914 -1.96095,30.03914 0,0 -22.96514,5.15573 -30.03914,-1.96098 -11.40643,-11.47529 -15.8522,-52.92226 -15.8522,-52.92226 z"
     id="path6040"
     inkscape:connector-curvature="0"
     sodipodi:nodetypes="cscsc" />
  <path
     style="fill:#000000;fill-opacity:1;fill-rule:evenodd;stroke:#000000;stroke-width:13.46249866;stroke-linecap:butt;stroke-linejoin:miter;stroke-miterlimit:4;stroke-dasharray:none;stroke-opacity:1"
     d="m 613.79454,-89.716648 c 0,0 -9.77016,42.39812 -2.6925,53.84999 5.27536,8.53574 26.925,13.4625 26.925,13.4625 0,0 16.03798,-17.2268 13.46247,-26.92499 -4.15286,-15.63788 -37.69497,-40.3875 -37.69497,-40.3875 z"
     id="path6042"
     inkscape:connector-curvature="0"
     sodipodi:nodetypes="cscsc" />
  <path
     style="fill:#000000;fill-opacity:1;fill-rule:evenodd;stroke:#000000;stroke-width:13.46249866;stroke-linecap:butt;stroke-linejoin:miter;stroke-miterlimit:4;stroke-dasharray:none;stroke-opacity:1"
     d="m 539.7508,100.06094 c 0,0 -9.77016,-42.398098 -2.6925,-53.849968 5.27536,-8.53574 26.925,-13.4625 26.925,-13.4625 0,0 16.03798,17.2268 13.46247,26.925 -4.15286,15.63787 -37.69497,40.387468 -37.69497,40.387468 z"
     id="path6044"
     inkscape:connector-curvature="0"
     sodipodi:nodetypes="cscsc" />
  <path
     style="fill:#000000;fill-opacity:1;fill-rule:evenodd;stroke:#000000;stroke-width:13.46249866;stroke-linecap:butt;stroke-linejoin:miter;stroke-miterlimit:4;stroke-dasharray:none;stroke-opacity:1"
     d="m 665.79557,85.539142 c 0,0 -12.95547,-41.53565 -24.8441,-47.85225 -8.86123,-4.70816 -30.03909,1.96092 -30.03909,1.96092 0,0 -5.15576,22.96517 1.96095,30.03912 11.4753,11.40646 52.92224,15.85221 52.92224,15.85221 z"
     id="path6046"
     inkscape:connector-curvature="0"
     sodipodi:nodetypes="cscsc" />
  <path
     style="fill:#000000;fill-opacity:1;fill-rule:evenodd;stroke:#000000;stroke-width:13.46249866;stroke-linecap:butt;stroke-linejoin:miter;stroke-miterlimit:4;stroke-dasharray:none;stroke-opacity:1"
     d="m 707.24274,-34.211928 c 0,0 -38.92998,19.42959 -43.26455,32.1752103 -3.23081,9.5 6.73838,29.3391497 6.73838,29.3391497 0,0 23.49403,1.41774 29.33917,-6.73838 9.425,-13.1513797 7.187,-54.77598 7.187,-54.77598 z"
     id="path6048"
     inkscape:connector-curvature="0"
     sodipodi:nodetypes="cscsc" />
  <path
     inkscape:connector-curvature="0"
     id="path6159"
     d="m 453.3749,144.33092 0,577.87774"
     style="fill:none;fill-rule:evenodd;stroke:#000000;stroke-width:13.77491474;stroke-linecap:butt;stroke-linejoin:miter;stroke-miterlimit:4;stroke-dasharray:none;stroke-opacity:1" />
</svg>
