<?xml version="1.0" encoding="UTF-8" standalone="no"?>
<svg id="svg2" xmlns:rdf="http://www.w3.org/1999/02/22-rdf-syntax-ns#" xmlns="http://www.w3.org/2000/svg" height="100%" width="100%" version="1.1" xmlns:cc="http://creativecommons.org/ns#" xmlns:dc="http://purl.org/dc/elements/1.1/" viewBox="0 -200 1000 1000">
 <metadata id="metadata12">
  <rdf:RDF>
   <cc:Work rdf:about="">
    <dc:format>image/svg+xml</dc:format>
    <dc:type rdf:resource="http://purl.org/dc/dcmitype/StillImage"/>
   </cc:Work>
  </rdf:RDF>
 </metadata>
 <g id="g4" transform="matrix(1 0 0 -1 0 800)">
  <path id="path6" d="m479 726q-7-2-12-6-4-3-7-5-11-5-18-17-11-14-15-24.5t-4-28.5v-18q1-3 3-12 1-5 1-6-24 26-58 41-36 14-67 14-27 0-56-13-28-15-47-39-18-21-33-54-11-36-11-68 0-45 22-83 21-32 59-75 10-12 38-33 22-17 23-21v-201h410v201q2 4 22 17 17 12 27.5 20t17.5 17q34 36 60 75 21 36 21 83 0 36-11 68-13 32-32 54-19 23-46 39-29 13-56 13-33 0-67-14-34-15-59-41 1 3 1 9 1 6 1 9 1 4 2 10t1 8q0 17-4.5 28t-16.5 27q-2 5-11 11-4 3-5 4l-2 1q-7 4-10.5 5.5t-12.5 4.5v69h121v34h-121v84h-48v-84h-121v-34h121v-69zm26-175q-1 8-10 29-3 7-5 13-5 14-6 18-5 13-5 26 0 7 1 10t5 7q3 5 9 6 1 0 2 1 7 2 9 2 4 0 10-2h2q1-1 3-2 3-2 4-4 7-8 7-18 0-13-3-27-1-3-6-15-1-4-6-16-8-20-11-28zm-169-311v33h330v-33h-330z" fill="currentColor"/>
 </g>
 <path id="path2989" d="m338.98 741.95v-14.831h163.14 163.14v14.831 14.831h-163.14-163.14v-14.831z" transform="translate(0,-200)" stroke-miterlimit="3.8" stroke-width="0" fill="#ececec"/>
 <path id="path2991" d="m502.49 434.75c-26.304-69.575-25.672-93.22 2.4923-93.22 16.652 0 26.114 15.557 22.189 36.482-4.5968 24.503-21.862 64.194-24.681 56.739z" transform="translate(0,-200)" stroke-miterlimit="3.8" stroke-width="0" fill="#ececec"/>
</svg>
