<?xml version="1.0" encoding="UTF-8" standalone="no"?>
<svg id="svg2" xmlns:rdf="http://www.w3.org/1999/02/22-rdf-syntax-ns#" xmlns="http://www.w3.org/2000/svg" height="100%" width="100%" version="1.1" xmlns:cc="http://creativecommons.org/ns#" xmlns:dc="http://purl.org/dc/elements/1.1/" viewBox="0 -200 1000 1000">
 <metadata id="metadata12">
  <rdf:RDF>
   <cc:Work rdf:about="">
    <dc:format>image/svg+xml</dc:format>
    <dc:type rdf:resource="http://purl.org/dc/dcmitype/StillImage"/>
   </cc:Work>
  </rdf:RDF>
 </metadata>
 <g id="g4" transform="matrix(1 0 0 -1 0 800)">
  <path id="path6" d="m549 466q-3-25-7-49.5t-9-35.5q-11-21-31-45l-103-110q-29-30-44-68-13-32-13-78h530v198q0 93-27 178-27 86-77 159-49 71-118 123-65 52-146 75l-165 67 44-83-202-428q-9-22-9-42 0-33 21-60 20-24 50-24 21 0 49 10 30 10 43 22zm84 249q30-17 49.5-35.5t19.5-28.5v-2l-1-2q-3-5-13-5-13 0-34.5 8t-45.5 21q-30 17-49.5 35.5t-19.5 29.5q0 1 1 2v2q3 5 12 5 13 0 35-8t46-22zm-141 62q6 0 14-3.5t13-7.5q14-9 14-17-3-15-14-15-4 0-13 2l-6 1q-15 0-34.5 8t-19.5 13q0 22 16 24 5 0 14-2 10-3 16-3z" fill="currentColor"/>
 </g>
 <path id="path2989" d="m648.22 344.41c-37.225-15.316-68.376-34.796-88.416-55.291-33.805-34.571-13.265-41.671 44.622-15.423 44.18 20.032 94.723 59.961 94.723 74.831 0 8.7826-24.363 6.813-50.929-4.1174z" transform="translate(0,-200)" stroke-miterlimit="3.8" stroke-width="0" fill="#ececec"/>
 <path id="path2991" d="m495.35 260.96c-38.061-6.4382-59.015-26.251-39.382-37.238 13.984-7.8261 66.93 8.8321 72.265 22.737 2.319 6.0433-5.4582 19.285-10.745 18.294-1.4625-0.27411-11.425-1.9811-22.138-3.7933z" transform="translate(0,-200)" stroke-miterlimit="3.8" stroke-width="0" fill="#808080"/>
</svg>
