<?xml version="1.0" encoding="UTF-8" standalone="no"?>
<svg id="svg2" xmlns:rdf="http://www.w3.org/1999/02/22-rdf-syntax-ns#" xmlns="http://www.w3.org/2000/svg" height="100%" width="100%" version="1.1" xmlns:cc="http://creativecommons.org/ns#" xmlns:dc="http://purl.org/dc/elements/1.1/" viewBox="0 -200 1000 1000">
 <metadata id="metadata12">
  <rdf:RDF>
   <cc:Work rdf:about="">
    <dc:format>image/svg+xml</dc:format>
    <dc:type rdf:resource="http://purl.org/dc/dcmitype/StillImage"/>
   </cc:Work>
  </rdf:RDF>
 </metadata>
 <g id="g4" transform="matrix(1 0 0 -1 0 800)">
  <path id="path6" d="m442 297v21h148v-21h-148zm28 315l-125-246 65-60-124-151v-75h460v75l-126 151 66 60-124 246q28 10 46 36 16 27 16 54 0 41-31 69-30 29-77 29-48 0-78-29-32-28-32-69 0-28 18-54 18-25 46-36z" fill="currentColor"/>
 </g>
 <path id="path2989" d="m479.87 702.78c20.392-0.77675 53.761-0.77675 74.153 0 20.392 0.77676 3.7076 1.4123-37.076 1.4123s-57.468-0.63552-37.076-1.4123z" transform="translate(0,-200)" stroke-miterlimit="3.8" stroke-width="0" fill="#e6e6e6"/>
 <path id="path2984" stroke-linejoin="round" d="m444.92 691.53c0-8.1422 2.8249-8.4746 72.034-8.4746s72.034 0.33233 72.034 8.4746c0 8.1422-2.8249 8.4746-72.034 8.4746s-72.034-0.33234-72.034-8.4746z" transform="translate(0,-200)" fill="#808080"/>
</svg>
