<?xml version="1.0" encoding="UTF-8" standalone="no"?>
<svg id="svg2" xmlns:rdf="http://www.w3.org/1999/02/22-rdf-syntax-ns#" xmlns="http://www.w3.org/2000/svg" height="100%" width="100%" version="1.1" xmlns:cc="http://creativecommons.org/ns#" xmlns:dc="http://purl.org/dc/elements/1.1/" viewBox="0 -200 1000 1000">
 <metadata id="metadata12">
  <rdf:RDF>
   <cc:Work rdf:about="">
    <dc:format>image/svg+xml</dc:format>
    <dc:type rdf:resource="http://purl.org/dc/dcmitype/StillImage"/>
   </cc:Work>
  </rdf:RDF>
 </metadata>
 <g id="g4" transform="matrix(1 0 0 -1 0 800)">
  <path id="path6" d="m814 185l-137 160v233l88 71v167h-122v-57h-68v57h-122v-57h-68v57h-122v-165l90-73v-233l-139-160v-109h600v109zm-429 366v27h258v-27h-258zm399-364v-33h-535v33h535z" fill="currentColor"/>
 </g>
 <path id="path2989" d="m385.59 434.75v-12.712h127.12 127.12v12.712 12.712h-127.12-127.12v-12.712z" transform="translate(0,-200)" stroke-miterlimit="3.8" stroke-width="0" fill="#ececec"/>
 <path id="path2991" d="m250 830.93v-14.831h266.95 266.95v14.831 14.831h-266.95-266.95v-14.831z" transform="translate(0,-200)" stroke-miterlimit="3.8" stroke-width="0" fill="#ececec"/>
 <path id="path2992" stroke-linejoin="round" d="m385.59 435.17v-10.593h127.12 127.12v10.593 10.593h-127.12-127.12v-10.593z" transform="translate(0,-200)" fill="#ccc"/>
</svg>
