<?xml version="1.0" encoding="UTF-8" standalone="no"?>
<svg id="svg2" xmlns:rdf="http://www.w3.org/1999/02/22-rdf-syntax-ns#" xmlns="http://www.w3.org/2000/svg" height="100%" width="100%" version="1.1" xmlns:cc="http://creativecommons.org/ns#" xmlns:dc="http://purl.org/dc/elements/1.1/" viewBox="0 -200 1000 1000">
 <metadata id="metadata12">
  <rdf:RDF>
   <cc:Work rdf:about="">
    <dc:format>image/svg+xml</dc:format>
    <dc:type rdf:resource="http://purl.org/dc/dcmitype/StillImage"/>
   </cc:Work>
  </rdf:RDF>
 </metadata>
 <g id="g4" transform="matrix(1 0 0 -1 0 800)">
  <path id="path6" d="m675 218v103q56 37 86 89 31 55 31 113 0 86-76 169-9 9-25 28-16 18-27 30-16 17-51 46-17 14-22 18-51 46-97 68-51-24-107-73-3-3-9-8-46-39-66-60-5-5-14-15-18-20-27-29-77-83-77-174 0-57 32-113 31-53 85-89v-101h137q-22-11-58-35l-2-3q-35-22-51-31-20-10-35-10-21 0-41 22-19 27-35 68l-34-44q23-52 45-77 28-30 65-30 24 0 50 13 29 12 55 31t50 33q18 11 37 11 17 0 34-10 14-7 50-31l3-3q25-19 53-31 26-13 48-13 40 0 67 30 25 28 43 77l-31 44q-18-46-36-68t-43-22q-13 0-33 10-16 8-49 31l-4 3q-23 17-56 33h135zm-320 39v54h277v-54h-277zm395 266q0-52-29-99-29-48-77-76h-299q-48 27-79 76-29 47-29 99 0 81 65 149 6 6 17 19 16 18 25 27l9 9q46 44 74 65 40 32 67 46 17-9 50-35l3-2q43-32 83-72 10-10 28-32 18-21 26-29 66-69 66-145zm-278 175v-114h-107v-46h107v-116h43v116h106v46h-106v114h-43z" fill="currentColor"/>
 </g>
 <path id="path2989" d="m320.46 631.86c-80.65-63.91-102.59-165.2-54.26-250.5 25.44-44.92 102.93-124.83 174.32-179.77 48.549-37.365 51.162-38.293 70.709-25.097 35.304 23.834 90.398 70.336 118.32 99.869 99.381 105.11 118.82 140.54 115.43 210.34-1.3691 28.134-4.4206 42.354-13.183 61.431-15.965 34.757-38.523 64.05-64.327 83.532l-22.047 16.646-152.16-0.045-152.16-0.045-20.637-16.352zm196.48-108.56v-57.203h52.966 52.966v-25.424-25.424h-52.966-52.966v-57.203-57.203h-23.305-23.305v57.203 57.203h-52.966-52.966v25.424 25.424h52.966 52.966v57.203 57.203h23.305 23.305v-57.203z" transform="translate(0,-200)" fill="#f9f9f9"/>
 <path id="path2991" d="m355.93 716.1v-25.424h137.71 137.71v25.424 25.424h-137.71-137.71v-25.424z" transform="translate(0,-200)" fill="#f9f9f9"/>
</svg>
