<?xml version="1.0" encoding="UTF-8" standalone="no"?>
<svg id="svg2" xmlns:rdf="http://www.w3.org/1999/02/22-rdf-syntax-ns#" xmlns="http://www.w3.org/2000/svg" height="100%" width="100%" version="1.1" xmlns:cc="http://creativecommons.org/ns#" xmlns:dc="http://purl.org/dc/elements/1.1/" viewBox="0 -200 1000 1000">
 <metadata id="metadata12">
  <rdf:RDF>
   <cc:Work rdf:about="">
    <dc:format>image/svg+xml</dc:format>
    <dc:type rdf:resource="http://purl.org/dc/dcmitype/StillImage"/>
   </cc:Work>
  </rdf:RDF>
 </metadata>
 <g id="g4" transform="matrix(1 0 0 -1 0 800)">
  <path id="path6" d="m479 726q-7-2-12-6-4-3-7-5-11-5-18-17-11-14-15-24.5t-4-28.5v-18q1-3 3-12 1-5 1-6-24 26-58 41-36 14-67 14-27 0-56-13-28-15-47-39-18-21-33-54-11-36-11-68 0-45 22-83 21-32 59-75 10-12 38-33 22-17 23-21v-201h410v201q2 4 22 17 17 12 27.5 20t17.5 17q34 36 60 75 21 36 21 83 0 36-11 68-13 32-32 54-19 23-46 39-29 13-56 13-33 0-67-14-34-15-59-41 1 3 1 9 1 6 1 9 1 4 2 10t1 8q0 17-4.5 28t-16.5 27q-2 5-11 11-4 3-5 4l-2 1q-7 4-10.5 5.5t-12.5 4.5v69h121v34h-121v84h-48v-84h-121v-34h121v-69zm26-252q-4 20-21 58-13 36-22 62-9 24-9 51 0 14 2 20t10 14q6 11 19 14 12 5 21 5 11 0 23-5 10-6 14-12 15-18 15-36 0-28-7-53-4-10-10-27-2-6-13-36-13-29-22-55zm-18-194h-143q-2 3-14 14t-33 31q-7 6-21 19t-19 18q-34 34-51 61-19 30-19 67 0 54 34 96 35 40 81 40 37 0 72-20 38-23 60-59 29-41 41-84 4-11 6-34.5t3.5-53 2-53.5 0.5-42zm166 0h-132q0 12 1 40t3 55.5 5 52 6 35.5q12 42 40 84 26 38 61 59 35 20 73 20 46 0 80-40 29-36 29-96 0-45-14-67-22-32-51-61-4-5-15-13.5t-41-31.5q-18-14-30.5-24t-14.5-13zm-317-169v130h330v-130h-330z" fill="currentColor"/>
 </g>
 <path id="path2989" d="m526.18 656.15c4.599-99.822 12.148-133.29 41.16-182.5 20.417-34.627 30.361-46.537 54.232-64.953 100.31-77.389 213.28-2.4353 192.33 127.61-7.2198 44.831-41.224 85.961-124.28 150.33l-41.307 32.01-62.507 0.002-62.507 0.002 2.8796-62.502z" transform="translate(0,-200)" fill="#f9f9f9"/>
 <path id="path2991" d="m291.68 666.57c-88.71-85.53-103.49-110.21-100.18-167.3 2.3324-40.291 16.196-68.892 46.677-96.297 57.632-51.816 144.55-25.243 198.9 60.806 35.807 56.697 45.754 101.13 45.908 205.07l0.0734 49.788-68.856-0.1714-68.856-0.17139-53.659-51.735z" transform="translate(0,-200)" fill="#f9f9f9"/>
 <path id="path2993" d="m490.4 476.17c-37.087-96.937-41.991-126.75-24.82-150.86 13.592-19.089 39.849-25.707 59.447-14.984 36.911 20.196 38.159 57.19 4.9006 145.32-11.781 31.216-22.111 57.448-22.956 58.293-0.84489 0.84488-8.3023-16.149-16.572-37.765z" transform="translate(0,-200)" fill="#f9f9f9"/>
 <path id="path2995" d="m338.98 824.58v-63.559h163.14 163.14v63.559 63.559h-163.14-163.14v-63.559z" transform="translate(0,-200)" fill="#f9f9f9"/>
</svg>
