<?xml version="1.0" encoding="UTF-8" standalone="no"?>
<svg id="svg2" xmlns:rdf="http://www.w3.org/1999/02/22-rdf-syntax-ns#" xmlns="http://www.w3.org/2000/svg" height="100%" width="100%" version="1.1" xmlns:cc="http://creativecommons.org/ns#" xmlns:dc="http://purl.org/dc/elements/1.1/" viewBox="0 -200 1000 1000">
 <metadata id="metadata12">
  <rdf:RDF>
   <cc:Work rdf:about="">
    <dc:format>image/svg+xml</dc:format>
    <dc:type rdf:resource="http://purl.org/dc/dcmitype/StillImage"/>
   </cc:Work>
  </rdf:RDF>
 </metadata>
 <g id="g4" transform="matrix(1 0 0 -1 0 800)">
  <path id="path6" d="m549 466q-3-25-7-49.5t-9-35.5q-11-21-31-45l-103-110q-29-30-44-68-13-32-13-78h530v198q0 93-27 178-27 86-77 159-49 71-118 123-65 52-146 75l-165 67 44-83-202-428q-9-22-9-42 0-33 21-60 20-24 50-24 21 0 49 10 30 10 43 22zm3 43l-242-206q-5-5-13-9.5t-19-8.5q-15-7-35-7-15 0-25 15-10 13-10 34 0 13 3 23l208 441 71-10q72-20 138-69 63-49 111-117 47-66 71-148 25-78 25-169v-164h-454q3 18 16 47 17 30 28 41l104 112q24 26 43 68 14 40 14 77v50h-34z" fill="currentColor"/>
 </g>
 <path id="path2989" d="m385.59 878.78c0-18.926 27.969-63.144 66.876-105.73 123-134.62 130.29-147.45 135.22-238.1l2.5925-47.669h-18.968c-18.647 0-21.076 1.7968-143.66 106.28-68.579 58.452-131.66 109.88-140.19 114.29-8.5256 4.4101-23.219 9.2527-32.653 10.761-15.278 2.443-18.562 1.3333-30.05-10.155-10.882-10.882-12.898-16.161-12.898-33.776 0-18.455 12.001-46.316 103.38-240 56.857-120.52 104.36-220.11 105.57-221.32 3.6819-3.6819 65.619 7.1315 91.162 15.916 130.59 44.91 247.48 171.34 293.38 317.33 20.315 64.616 25.439 106.06 28.153 227.75l2.481 111.23h-225.2c-204.01 0-225.2-0.64047-225.2-6.8094z" transform="translate(0,-200)" fill="#f9f9f9"/>
</svg>
