<?xml version="1.0" encoding="UTF-8" standalone="no"?>
<svg id="svg3128" xmlns:rdf="http://www.w3.org/1999/02/22-rdf-syntax-ns#" xmlns="http://www.w3.org/2000/svg" height="45" width="45" version="1.1" xmlns:cc="http://creativecommons.org/ns#" xmlns:dc="http://purl.org/dc/elements/1.1/">
 <metadata id="metadata15">
  <rdf:RDF>
   <cc:Work rdf:about="">
    <dc:format>image/svg+xml</dc:format>
    <dc:type rdf:resource="http://purl.org/dc/dcmitype/StillImage"/>
   </cc:Work>
  </rdf:RDF>
 </metadata>
 <g id="layer1" transform="matrix(1.121 0 0 1.121 -2.7188 -2.7603)" stroke-width="1.5">
  <path id="path6570" d="m22.5 11.625v-5.625" stroke="#000" stroke-linecap="round" fill="none"/>
  <path id="path5683" d="m22.5 25s4.5-7.5 3-10.5c0 0-1-2.5-3-2.5s-3 2.5-3 2.5c-1.5 3 3 10.5 3 10.5" fill-rule="evenodd" stroke="#000"/>
  <path id="path5681" stroke-linejoin="round" d="m11.5 37c5.5 3.5 15.5 3.5 21 0v-7s9-4.5 6-10.5c-4-6.5-13.5-3.5-16 4v3.5-3.5c-3.5-7.5-13-10.5-16-4-3 6 5 10 5 10v7.5z" fill-rule="evenodd" stroke="#000" stroke-linecap="round"/>
  <path id="path6572" d="m20 8h5" stroke="#000" stroke-linecap="round" fill="none"/>
  <path id="path6574" d="m11.5 29.5c5.5-2.5 15.5-2.5 21 0.5" stroke="#fff" stroke-linecap="round" fill="none"/>
  <path id="path6576" stroke-linejoin="round" d="m11.5 37c5.5-2.5 15.5-2.5 21 0" stroke="#fff" stroke-linecap="round" fill="none"/>
  <path id="path6578" stroke-linejoin="round" d="m11.5 33.5c5.5-2 15.5-2 21 0" stroke="#fff" stroke-linecap="round" fill="none"/>
  <path id="path5638" stroke-linejoin="round" d="m32 29.5s8.5-4 6.026-9.653c-3.879-5.85-13.026-1.847-15.526 4.653l0.012 2.097-0.012-2.097c-2.5-6.5-12.594-10.503-15.502-4.653-2.4975 5.653 4.8485 9 4.8485 9" stroke="#fff" stroke-linecap="round" fill="none"/>
 </g>
 <path id="path2992" d="m9.773 39.169c-0.6398-0.476-0.1657-1.002 1.423-1.58 6.0655-2.2066 15.657-2.2001 21.555 0.01459 1.5926 0.59805 2.0037 1.042 1.4645 1.5813-0.33464 0.33464-0.4592 0.32154-1.9201-0.20196-5.9693-2.139-15.373-2.1152-20.874 0.05287-1.3285 0.52364-1.142 0.50866-1.6487 0.1324z" stroke-miterlimit="3.8" stroke-width="0" fill="#ececec"/>
 <path id="path2994" d="m9.5633 34.961c-0.176-0.55453 0.031276-0.70322 1.7185-1.2328 2.9429-0.92371 5.3071-1.1856 10.687-1.184 5.3704 0.0016 7.3859 0.22468 10.609 1.1741 1.6813 0.49524 2.1401 0.90222 1.6122 1.4301-0.32827 0.32827-0.48467 0.32076-2.226-0.10698-3.7316-0.9166-4.7237-1.0158-10.102-1.0104-5.3214 0.0054-7.1365 0.19796-10.138 1.0758-1.4738 0.43101-1.9885 0.39625-2.1606-0.14592z" stroke-miterlimit="3.8" stroke-width="0" fill="#ececec"/>
 <path id="path2998" d="m32.336 31.048c-3.1467-1.6369-10.222-2.4458-15.232-1.7415-1.3828 0.19442-3.3065 0.59829-4.275 0.89749-0.96848 0.2992-2.0738 0.59483-2.4562 0.65696-0.6335 0.103-0.7068 0.057-0.8209-0.514-0.0855-0.427-0.3606-0.753-0.8659-1.025-1.3644-0.735-3.4807-3.017-4.1762-4.503-0.583-1.246-0.6391-1.548-0.5639-3.035 0.17-3.363 2.1311-5.5 5.585-6.088 3.6649-0.623 9.3439 2.147 11.936 5.822 0.49872 0.70718 0.98154 1.2858 1.0729 1.2858 0.0914 0 0.31634-0.29037 0.49986-0.64526 0.58966-1.1403 3.1081-3.6062 4.6751-4.5777 2.1991-1.3633 3.9093-1.8952 6.1172-1.9022 2.503-0.0081 3.9689 0.57342 5.5742 2.2109 1.406 1.4342 1.8125 2.545 1.6375 4.4744-0.21966 2.4224-2.3491 5.2954-5.3964 7.2808-0.76103 0.49583-1.3282 0.99122-1.2605 1.1009 0.17298 0.27989-0.3237 0.82387-0.74133 0.81193-0.19134-0.0055-0.78074-0.23512-1.3098-0.51032zm2.1064-2.3223c1.9317-1.155 3.7858-3.0083 4.5379-4.536 0.58894-1.1963 0.66323-1.539 0.58819-2.7132-0.10034-1.57-0.61613-2.4164-2.0521-3.3676-3.9645-2.626-10.839 0.15859-13.716 5.5556-0.56316 1.0566-0.65718 1.4511-0.63121 2.6489l0.03051 1.4073 0.98776 0.0037c1.8902 0.0072 7.0986 1.1035 8.1352 1.7124 0.41134 0.24164 0.6725 0.154 2.1196-0.71122v-0.000001zm-22.694 0.25208c1.2966-0.51549 4.1604-1.04 7.0677-1.2945l3.0459-0.26662v-1.2956c0-1.1137-0.11251-1.4858-0.80115-2.6499-2.1025-3.5541-6.8056-6.4379-10.499-6.4379-3.027 0-5.2275 2.1962-5.1855 5.1754 0.021119 1.5003 0.53371 2.5905 1.9174 4.0781 0.73613 0.7914 3.2238 2.6931 3.8138 2.9154 0.02174 0.0082 0.3103-0.09276 0.64125-0.22434z" stroke-miterlimit="3.8" stroke-width="0" fill="#ececec"/>
</svg>
