<?xml version="1.0" encoding="UTF-8" standalone="no"?>
<!-- Created with Inkscape (http://www.inkscape.org/) -->
<svg
   xmlns:svg="http://www.w3.org/2000/svg"
   xmlns="http://www.w3.org/2000/svg"
   version="1.0"
   width="500"
   height="500"
   id="svg2361">
  <defs
     id="defs2374" />
  <title
     id="title2363">BSicon Museumbahn</title>
  <path
     d="M 46.74875,435.77681 L 18.491937,435.47821 L 18.120467,428.80506 C 17.704937,421.3401 18.855197,419.47894 23.209027,420.57168 C 27.438597,421.63324 84.97836,421.49839 86.04938,420.42739 C 86.5782,419.89855 84.12965,418.16646 80.49452,416.49791 C 72.59088,412.87005 66.12306,405.89229 63.25077,397.89457 L 61.17928,392.1267 L 48.05525,391.8153 C 39.24812,391.60635 34.65202,391.06454 34.08243,390.16814 C 33.6156,389.43347 33.22607,382.53199 33.21682,374.83151 L 33.20001,360.83066 L 51.81938,360.83066 L 70.43875,360.83066 L 75.03101,352.96764 C 81.61505,341.6942 81.60815,341.67506 70.82515,341.2951 C 60.35749,340.92627 60.46839,341.03078 57.20361,328.45612 C 53.21132,313.07925 53.47475,291.25273 57.8037,278.73422 L 59.2232,274.62932 L 99.63545,273.53121 L 100.1845,260.90298 C 100.69347,249.19673 100.8939,248.27361 102.92977,248.25892 C 104.95223,248.24434 105.09682,247.62974 104.75727,240.49019 C 104.32365,231.37189 105.7001,225.44846 109.42619,220.39803 C 111.99442,216.91699 112.09675,216.19133 111.51258,205.6025 C 110.80584,192.792 111.7439,188.27879 116.90016,179.68119 C 123.78976,168.19338 135.88143,161.71218 150.42982,161.70907 L 158.39805,161.70738 L 159.60378,157.22961 C 162.26423,147.34948 168.98921,138.79023 177.601,134.32355 C 184.27367,130.86265 197.76992,130.41666 205.57636,133.39911 L 211.5896,135.69646 L 216.67482,130.68769 L 221.76006,125.67893 L 221.22181,115.38875 C 220.31629,98.076811 224.52161,87.182501 236.45529,75.924871 C 245.47927,67.412111 252.8505,64.260721 265.48362,63.514551 C 281.57559,62.564091 294.51935,67.689611 305.74331,79.456761 C 316.20297,90.422621 320.14892,100.89075 320.09042,117.51786 L 320.0517,128.52354 L 324.47482,133.49383 C 326.90753,136.22749 330.17992,141.18193 331.7468,144.50371 C 335.57409,152.61756 335.81781,167.56087 332.25047,175.38509 C 329.0852,182.32745 322.6917,189.11967 316.03208,192.61491 C 311.15665,195.17374 309.18708,195.53513 300.03986,195.54939 C 290.80342,195.56378 288.88586,195.21112 283.30814,192.47214 C 277.11973,189.4333 274.78341,189.35275 274.78341,192.17822 C 274.78341,194.95289 266.9699,203.78329 261.8536,206.79082 C 257.27969,209.47949 255.55831,209.84104 247.33075,209.84104 C 238.04652,209.84104 235.51714,209.12973 228.59207,204.57135 C 225.88333,202.78832 225.63317,202.82296 222.03234,205.47957 C 216.69107,209.42025 210.68696,210.74378 201.75933,209.94852 L 194.07259,209.26382 L 192.03604,214.23412 C 186.83405,226.92979 169.71092,231.63274 158.29233,223.502 C 156.64646,222.33003 154.80117,221.37115 154.19167,221.37115 C 152.90343,221.37115 134.2258,245.00134 134.2258,246.63118 C 134.2258,247.66782 135.84273,248.1883 137.91023,247.81722 C 140.97316,247.26746 141.91254,250.50731 141.91254,261.62096 C 141.91254,269.80191 142.30273,273.17425 143.28518,273.48436 C 145.40233,274.15267 202.66727,275.00795 204.29379,274.39556 C 205.08378,274.09812 206.87541,271.26506 208.27522,268.09988 C 212.36677,258.84815 220.49936,254.94065 231.40512,256.98658 C 236.41496,257.92643 243.51914,264.24406 245.16123,269.21964 C 245.84724,271.29829 247.32476,273.48937 248.44461,274.08869 C 251.38414,275.66188 323.83616,275.55443 324.81204,273.97543 C 325.22094,273.31383 325.47326,267.62479 325.37275,261.33314 C 325.23694,252.83042 325.55604,249.75428 326.6158,249.3504 L 443.16995,250.47097 L 443.48289,261.72656 L 443.79583,272.98215 L 422.98172,272.98215 C 420.66715,272.98215 418.52638,274.02028 416.34727,276.19941 L 413.13001,279.41664 L 413.74968,295.14174 C 414.09051,303.79054 414.77018,322.12618 415.2601,335.8876 C 415.75001,349.64903 416.5027,361.26151 416.93276,361.69311 C 417.36283,362.1247 428.17542,362.72489 440.96072,363.02687 L 464.20675,363.57592 L 464.20675,393.14181 L 439.39904,392.81302 C 417.47734,392.52247 414.37944,392.6961 412.76996,394.30558 C 411.76822,395.30732 410.9486,396.85255 410.9486,397.73941 C 410.9486,403.51809 401.46552,414.71111 393.63494,418.17494 C 390.75546,419.44866 389.15705,420.73822 389.73784,421.31901 C 390.28421,421.86539 414.89665,422.4305 445.03432,422.58866 L 480.01625,422.87366 L 480.34319,429.73683 L 480.6701,436.6 L 296.52341,436.33772 C 184.61128,436.19346 72.21268,435.94106 46.74875,435.77681 z M 278.6908,420.97783 C 279.13045,420.53908 278.55469,419.86185 277.41132,419.47288 C 267.15914,415.98512 257.48593,407.38512 254.947,399.50092 C 252.736,392.63501 252.84797,392.67575 236.19169,392.67575 L 220.92911,392.67575 L 219.73859,395.69554 C 216.51333,403.87652 215.26625,406.08957 211.58578,410.1634 C 209.39594,412.58729 204.85702,415.87013 201.49929,417.45859 C 198.14154,419.04705 195.91944,420.6682 196.56126,421.06114 C 198.17262,422.04763 277.69962,421.96697 278.6908,420.97783 z M 373.02508,421.28937 C 373.37698,420.71999 371.306,419.21106 368.42292,417.93617 C 365.53986,416.66131 361.75564,414.28582 360.01357,412.65732 C 355.96952,408.87691 350.55275,400.50191 350.55275,398.02973 C 350.55275,393.47777 347.84694,392.67575 332.49002,392.67575 C 316.55718,392.67575 316.58697,392.66459 314.40014,399.45722 C 312.07489,406.67986 306.17881,413.08294 298.26652,416.97814 C 292.44345,419.84483 291.404,420.71824 293.04691,421.36396 C 296.14642,422.58217 372.26996,422.51117 373.02508,421.28937 z M 181.44437,420.27759 C 181.44437,419.75569 179.22614,418.48152 176.51497,417.44611 C 170.10882,414.99959 162.80982,407.82171 159.70138,400.91154 C 158.34296,397.89175 156.85986,394.74404 156.40558,393.91662 C 155.76613,392.75193 152.26153,392.4317 140.88528,392.49842 C 132.8034,392.54583 125.8568,392.97572 125.44839,393.45376 C 125.03998,393.93179 123.87048,396.59572 122.84949,399.3736 C 120.24616,406.45664 114.34245,412.89844 107.29391,416.34697 C 103.98769,417.96455 101.28261,419.72418 101.28261,420.25727 C 101.28261,420.79982 118.92754,421.22651 141.36349,421.22651 C 163.40797,421.22651 181.44437,420.7995 181.44437,420.27759 z "
     style="fill:#000000;fill-opacity:1"
     id="path2371" />
</svg>
