<?xml version="1.0" encoding="UTF-8" standalone="no"?>
<!-- Created with Inkscape (http://www.inkscape.org/) -->
<svg
   xmlns:dc="http://purl.org/dc/elements/1.1/"
   xmlns:cc="http://creativecommons.org/ns#"
   xmlns:rdf="http://www.w3.org/1999/02/22-rdf-syntax-ns#"
   xmlns:svg="http://www.w3.org/2000/svg"
   xmlns="http://www.w3.org/2000/svg"
   xmlns:xlink="http://www.w3.org/1999/xlink"
   xmlns:sodipodi="http://sodipodi.sourceforge.net/DTD/sodipodi-0.dtd"
   xmlns:inkscape="http://www.inkscape.org/namespaces/inkscape"
   width="100"
   height="100"
   id="svg36220"
   sodipodi:version="0.32"
   inkscape:version="0.46"
   version="1.0"
   inkscape:export-filename="/home/maurizio/out/wb.png"
   inkscape:export-xdpi="90"
   inkscape:export-ydpi="90"
   sodipodi:docbase="/home/maurizio/chess_pieces/chess_set"
   sodipodi:docname="wb.svg"
   inkscape:output_extension="org.inkscape.output.svg.inkscape">
  <defs
     id="defs36222">
    <inkscape:perspective
       sodipodi:type="inkscape:persp3d"
       inkscape:vp_x="0 : 437.5 : 1"
       inkscape:vp_y="0 : 1000 : 0"
       inkscape:vp_z="875 : 437.5 : 1"
       inkscape:persp3d-origin="437.5 : 291.66667 : 1"
       id="perspective3136" />
    <linearGradient
       inkscape:collect="always"
       xlink:href="#linearGradient2507"
       id="linearGradient3296"
       gradientUnits="userSpaceOnUse"
       x1="472.81"
       y1="747.08655"
       x2="472.81"
       y2="566.33026"
       gradientTransform="matrix(9.36702e-2,0,0,9.36702e-2,6.1146898,20.349602)" />
    <linearGradient
       id="linearGradient3284">
      <stop
         style="stop-color:#808080;stop-opacity:1;"
         offset="0"
         id="stop3286" />
      <stop
         style="stop-color:#000000;stop-opacity:0;"
         offset="1"
         id="stop3288" />
    </linearGradient>
    <linearGradient
       inkscape:collect="always"
       xlink:href="#linearGradient3284"
       id="linearGradient3290"
       x1="466.62888"
       y1="160.41989"
       x2="466.62888"
       y2="546.33032"
       gradientUnits="userSpaceOnUse"
       gradientTransform="matrix(9.36702e-2,0,0,9.36702e-2,6.1146898,20.349602)" />
    <linearGradient
       inkscape:collect="always"
       xlink:href="#linearGradient3268"
       id="linearGradient3278"
       gradientUnits="userSpaceOnUse"
       x1="337.50623"
       y1="472.64157"
       x2="352.78772"
       y2="578.18219"
       gradientTransform="matrix(-9.3670189e-2,0,0,9.3670189e-2,93.54132,20.505712)" />
    <linearGradient
       id="linearGradient3268">
      <stop
         style="stop-color:#8accae;stop-opacity:1;"
         offset="0"
         id="stop3270" />
      <stop
         style="stop-color:#9fc1cd;stop-opacity:0;"
         offset="1"
         id="stop3272" />
    </linearGradient>
    <linearGradient
       inkscape:collect="always"
       xlink:href="#linearGradient3268"
       id="linearGradient3274"
       x1="337.50623"
       y1="472.64157"
       x2="352.78772"
       y2="578.18219"
       gradientUnits="userSpaceOnUse"
       gradientTransform="matrix(9.3670189e-2,0,0,9.3670189e-2,6.1146898,20.349602)" />
    <linearGradient
       inkscape:collect="always"
       xlink:href="#linearGradient2305"
       id="linearGradient2313"
       x1="2087.1404"
       y1="-485"
       x2="2033.2518"
       y2="-862.51611"
       gradientUnits="userSpaceOnUse"
       gradientTransform="matrix(2.2705477e-2,0,0,2.2705477e-2,-7.8394602,74.101902)" />
    <linearGradient
       inkscape:collect="always"
       xlink:href="#linearGradient2305"
       id="linearGradient2311"
       x1="2394.7349"
       y1="-485"
       x2="2394.7349"
       y2="-938.33337"
       gradientUnits="userSpaceOnUse"
       gradientTransform="matrix(2.2705477e-2,0,0,2.2705477e-2,-10.21678,75.277112)" />
    <linearGradient
       inkscape:collect="always"
       xlink:href="#linearGradient2305"
       id="linearGradient2317"
       gradientUnits="userSpaceOnUse"
       gradientTransform="matrix(2.2162107e-3,-2.2596962e-2,2.2596962e-2,2.2162107e-3,35.70797,124.23481)"
       x1="2470.0815"
       y1="-364.98831"
       x2="2309.7107"
       y2="-733.76135" />
    <linearGradient
       inkscape:collect="always"
       xlink:href="#linearGradient2305"
       id="linearGradient2323"
       gradientUnits="userSpaceOnUse"
       x1="2234.7434"
       y1="-614.40747"
       x2="1987.2833"
       y2="-832.36462"
       gradientTransform="matrix(9.1032114e-4,-2.2687143e-2,2.2687143e-2,9.1032114e-4,52.05624,124.99454)" />
    <linearGradient
       inkscape:collect="always"
       xlink:href="#linearGradient2305"
       id="linearGradient2333"
       gradientUnits="userSpaceOnUse"
       x1="2087.1404"
       y1="-485"
       x2="2033.2518"
       y2="-862.51611"
       gradientTransform="matrix(-2.2705477e-2,0,0,2.2705477e-2,108.18234,74.530142)" />
    <linearGradient
       inkscape:collect="always"
       xlink:href="#linearGradient2305"
       id="linearGradient2335"
       gradientUnits="userSpaceOnUse"
       gradientTransform="matrix(-2.2705477e-2,0,0,2.2705477e-2,109.80586,75.210222)"
       x1="2394.7349"
       y1="-485"
       x2="2394.7349"
       y2="-938.33337" />
    <linearGradient
       inkscape:collect="always"
       xlink:href="#linearGradient2305"
       id="linearGradient2337"
       gradientUnits="userSpaceOnUse"
       gradientTransform="matrix(-2.2162107e-3,-2.2596962e-2,-2.2596962e-2,2.2162107e-3,63.96593,124.44874)"
       x1="2437.9685"
       y1="-388.63342"
       x2="2293.6538"
       y2="-745.58392" />
    <linearGradient
       inkscape:collect="always"
       xlink:href="#linearGradient2305"
       id="linearGradient2339"
       gradientUnits="userSpaceOnUse"
       gradientTransform="matrix(-9.1032114e-4,-2.2687143e-2,-2.2687143e-2,9.1032114e-4,47.40362,125.42266)"
       x1="2234.7434"
       y1="-614.40747"
       x2="1987.2833"
       y2="-832.36462" />
    <linearGradient
       inkscape:collect="always"
       xlink:href="#linearGradient2305"
       id="linearGradient2363"
       gradientUnits="userSpaceOnUse"
       x1="1647.1403"
       y1="-382.90863"
       x2="2633.2517"
       y2="-582.90863"
       gradientTransform="matrix(2.0532197e-2,0,0,2.0532197e-2,-14.6157,62.589492)" />
    <linearGradient
       inkscape:collect="always"
       xlink:href="#linearGradient2305"
       id="linearGradient2367"
       gradientUnits="userSpaceOnUse"
       gradientTransform="matrix(-2.0532197e-2,0,0,2.0532197e-2,115.89523,62.277202)"
       x1="1647.1403"
       y1="-382.90863"
       x2="2633.2517"
       y2="-582.90863" />
    <linearGradient
       inkscape:collect="always"
       xlink:href="#linearGradient2305"
       id="linearGradient3256"
       gradientUnits="userSpaceOnUse"
       gradientTransform="matrix(2.2416722e-2,-3.6089385e-3,-3.6089385e-3,-2.2416722e-2,-5.6653202,57.729832)"
       x1="2653.51"
       y1="1167.8967"
       x2="2228.9055"
       y2="-1469.516" />
    <linearGradient
       inkscape:collect="always"
       xlink:href="#linearGradient2305"
       id="linearGradient3260"
       gradientUnits="userSpaceOnUse"
       gradientTransform="matrix(-2.2162107e-3,-2.2596962e-2,-2.2596962e-2,2.2162107e-3,62.6412,116.50056)"
       x1="2437.9685"
       y1="-388.63342"
       x2="2293.6538"
       y2="-745.58392" />
    <linearGradient
       inkscape:collect="always"
       id="linearGradient2305">
      <stop
         style="stop-color:#000000;stop-opacity:1;"
         offset="0"
         id="stop2307" />
      <stop
         style="stop-color:#000000;stop-opacity:0;"
         offset="1"
         id="stop2309" />
    </linearGradient>
    <linearGradient
       inkscape:collect="always"
       xlink:href="#linearGradient2305"
       id="linearGradient3264"
       gradientUnits="userSpaceOnUse"
       gradientTransform="matrix(2.2162107e-3,-2.2596962e-2,2.2596962e-2,2.2162107e-3,37.47423,117.16962)"
       x1="2470.0815"
       y1="-364.98831"
       x2="2309.7107"
       y2="-733.76135" />
    <linearGradient
       id="linearGradient2507">
      <stop
         style="stop-color:#ffffff;stop-opacity:1;"
         offset="0"
         id="stop2509" />
      <stop
         style="stop-color:#d0b090;stop-opacity:1;"
         offset="1"
         id="stop2511" />
    </linearGradient>
    <linearGradient
       inkscape:collect="always"
       xlink:href="#linearGradient2507"
       id="linearGradient7567"
       gradientUnits="userSpaceOnUse"
       x1="696.98621"
       y1="124.25547"
       x2="216.33333"
       y2="486.99237"
       gradientTransform="matrix(-0.1017116,0,0,8.1677269e-2,92.5085,-6.359418)" />
    <linearGradient
       inkscape:collect="always"
       xlink:href="#linearGradient2507"
       id="linearGradient7571"
       gradientUnits="userSpaceOnUse"
       gradientTransform="matrix(0.1017116,0,0,8.1677269e-2,7.7612598,2.441342)"
       x1="-32.538746"
       y1="195.9679"
       x2="575.18024"
       y2="588.12415" />
    <linearGradient
       inkscape:collect="always"
       xlink:href="#linearGradient2507"
       id="linearGradient3723"
       gradientUnits="userSpaceOnUse"
       gradientTransform="matrix(3.2673905e-2,-2.1628366e-3,4.1091218e-3,4.6357992e-2,55.56129,12.815722)"
       x1="-1567.2875"
       y1="-173.39944"
       x2="-199.66586"
       y2="439.2937" />
    <linearGradient
       inkscape:collect="always"
       xlink:href="#linearGradient2507"
       id="linearGradient3939"
       gradientUnits="userSpaceOnUse"
       gradientTransform="matrix(0.1017116,0,0,8.1677269e-2,6.7441398,-5.542628)"
       x1="-153.95351"
       y1="-67.192932"
       x2="615.71777"
       y2="620.05176" />
  </defs>
  <sodipodi:namedview
     id="base"
     pagecolor="#ffffff"
     bordercolor="#666666"
     borderopacity="1.0"
     inkscape:pageopacity="0.0"
     inkscape:pageshadow="2"
     inkscape:zoom="1.6970562"
     inkscape:cx="36.766289"
     inkscape:cy="109.06287"
     inkscape:current-layer="layer1"
     inkscape:document-units="px"
     inkscape:window-width="885"
     inkscape:window-height="701"
     inkscape:window-x="390"
     inkscape:window-y="310"
     showgrid="false" />
  <metadata
     id="metadata36225">
    <rdf:RDF>
      <cc:Work
         rdf:about="">
        <dc:format>image/svg+xml</dc:format>
        <dc:type
           rdf:resource="http://purl.org/dc/dcmitype/StillImage" />
        <dc:creator>
          <cc:Agent>
            <dc:title>Maurizio Monge</dc:title>
          </cc:Agent>
        </dc:creator>
        <dc:rights>
          <cc:Agent>
            <dc:title>Maurizio Monge</dc:title>
          </cc:Agent>
        </dc:rights>
        <cc:license
           rdf:resource="http://creativecommons.org/licenses/GPL/2.0/" />
      </cc:Work>
      <cc:License
         rdf:about="http://creativecommons.org/licenses/GPL/2.0/">
        <cc:permits
           rdf:resource="http://web.resource.org/cc/Reproduction" />
        <cc:permits
           rdf:resource="http://web.resource.org/cc/Distribution" />
        <cc:requires
           rdf:resource="http://web.resource.org/cc/Notice" />
        <cc:permits
           rdf:resource="http://web.resource.org/cc/DerivativeWorks" />
        <cc:requires
           rdf:resource="http://web.resource.org/cc/ShareAlike" />
        <cc:requires
           rdf:resource="http://web.resource.org/cc/SourceCode" />
      </cc:License>
    </rdf:RDF>
  </metadata>
  <g
     id="layer1"
     inkscape:label="Layer 1"
     inkscape:groupmode="layer">
    <path
       style="fill:url(#linearGradient3296);fill-opacity:1;fill-rule:evenodd;stroke:#000000;stroke-width:1.98201931;stroke-linecap:round;stroke-linejoin:round;stroke-miterlimit:4;stroke-dasharray:none;stroke-opacity:1"
       d="M 41.23143,50.396772 C 35.01787,47.728762 34.75756,41.920542 23.76761,39.651382 C 19.97013,38.867282 24.7086,49.085572 25.37517,57.738202 C 26.04183,66.391982 21.71873,73.964962 25.7753,80.930462 C 31.16621,90.187132 35.13078,91.092892 38.78009,94.479382 C 45.42674,100.64738 54.09169,100.16108 59.33653,95.164492 C 63.77371,90.937362 70.00753,88.824322 74.88526,79.427842 C 78.7881,71.909392 76.45068,66.272512 76.9555,58.271352 C 77.54436,48.937962 80.34853,38.442802 76.51749,39.071082 C 64.80057,40.992622 64.09948,49.812722 58.91708,51.344842 C 53.39559,52.977192 46.33995,52.590312 41.23143,50.396772 z"
       id="path3294"
       sodipodi:nodetypes="cssssssssss" />
    <path
       sodipodi:nodetypes="cssssssssss"
       id="path3280"
       d="M 41.23143,50.396772 C 35.01787,47.728762 34.75756,41.920542 23.76761,39.651382 C 19.97013,38.867282 24.7086,49.085572 25.37517,57.738202 C 26.04183,66.391982 21.71873,73.964962 25.7753,80.930462 C 31.16621,90.187132 35.13078,91.092892 38.78009,94.479382 C 45.42674,100.64738 54.09169,100.16108 59.33653,95.164492 C 63.77371,90.937362 70.00753,88.824322 74.88526,79.427842 C 78.7881,71.909392 76.45068,66.272512 76.9555,58.271352 C 77.54436,48.937962 80.34853,38.442802 76.51749,39.071082 C 64.80057,40.992622 64.09948,49.812722 58.91708,51.344842 C 53.39559,52.977192 46.33995,52.590312 41.23143,50.396772 z"
       style="fill:url(#linearGradient3290);fill-opacity:1;fill-rule:evenodd;stroke:#000000;stroke-width:1.98201931;stroke-linecap:round;stroke-linejoin:round;stroke-miterlimit:4;stroke-dasharray:none;stroke-opacity:1" />
    <path
       style="fill:url(#linearGradient3278);fill-opacity:1;fill-rule:evenodd;stroke:none;stroke-width:16.00002098;stroke-linecap:round;stroke-linejoin:round;stroke-miterlimit:4;stroke-dasharray:none;stroke-opacity:1"
       d="M 55.81214,70.582582 C 57.63142,64.741392 62.68397,62.973062 67.77015,66.825942 C 69.03758,67.786042 66.00892,75.895162 55.81214,70.582582 z"
       id="path3276"
       sodipodi:nodetypes="csc" />
    <path
       sodipodi:nodetypes="csc"
       id="path3266"
       d="M 43.84387,70.426472 C 42.02459,64.585272 36.97203,62.816942 31.88586,66.669822 C 30.61842,67.629932 33.64708,75.739042 43.84387,70.426472 z"
       style="fill:url(#linearGradient3274);fill-opacity:1;fill-rule:evenodd;stroke:none;stroke-width:16.00002098;stroke-linecap:round;stroke-linejoin:round;stroke-miterlimit:4;stroke-dasharray:none;stroke-opacity:1" />
    <path
       sodipodi:nodetypes="ccscccc"
       id="path2267"
       d="M 44.72755,82.323672 C 44.99588,83.511662 47.3633,84.605612 48.32345,84.066602 C 48.78222,86.939092 49.24834,85.627112 49.71522,85.553032 C 50.12879,85.487412 50.77117,87.130742 50.82261,84.079042 C 51.87079,84.249832 54.24832,83.856822 54.41373,82.313782 L 54.48941,82.238112 C 51.44208,81.855902 47.16945,81.898612 44.72755,82.323672 z"
       style="fill:#c1856e;fill-opacity:1;fill-rule:evenodd;stroke:#000000;stroke-width:1.98201931;stroke-linecap:round;stroke-linejoin:round;stroke-miterlimit:4;stroke-dasharray:none;stroke-opacity:1" />
    <path
       style="fill:none;fill-opacity:0.75;fill-rule:evenodd;stroke:#000000;stroke-width:1.98201931;stroke-linecap:round;stroke-linejoin:round;stroke-miterlimit:4;stroke-dasharray:none;stroke-opacity:1"
       d="M 44.24478,83.676122 C 37.96662,81.748852 31.85625,81.667122 25.77767,81.935372"
       id="path2281"
       sodipodi:nodetypes="cc" />
    <path
       sodipodi:nodetypes="cc"
       id="path2283"
       d="M 39.47659,84.481742 C 32.95741,83.688012 26.9278,84.681612 20.99101,86.014122"
       style="fill:none;fill-opacity:0.75;fill-rule:evenodd;stroke:#000000;stroke-width:1.98201954;stroke-linecap:round;stroke-linejoin:round;stroke-miterlimit:4;stroke-dasharray:none;stroke-opacity:1" />
    <path
       style="fill:none;fill-opacity:0.75;fill-rule:evenodd;stroke:#000000;stroke-width:1.98201931;stroke-linecap:round;stroke-linejoin:round;stroke-miterlimit:4;stroke-dasharray:none;stroke-opacity:1"
       d="M 43.10917,85.515862 C 36.55351,85.906972 30.15852,86.897942 24.55799,89.275962"
       id="path2285"
       sodipodi:nodetypes="cc" />
    <path
       sodipodi:nodetypes="csss"
       id="path2289"
       d="M 60.70991,90.469052 C 55.10108,92.502452 49.3225,89.850362 49.91814,87.335242 C 50.29739,85.733872 48.925,86.170622 49.27968,87.334222 C 49.90302,89.379222 42.19106,92.522172 38.16951,90.420782"
       style="fill:none;fill-opacity:0.75;fill-rule:evenodd;stroke:#000000;stroke-width:1.98201931;stroke-linecap:round;stroke-linejoin:round;stroke-miterlimit:4;stroke-dasharray:none;stroke-opacity:1" />
    <path
       style="fill:none;fill-opacity:0.75;fill-rule:evenodd;stroke:#000000;stroke-width:1.98201931;stroke-linecap:round;stroke-linejoin:round;stroke-miterlimit:4;stroke-dasharray:none;stroke-opacity:1"
       d="M 45.19309,81.656212 C 44.84317,79.557162 46.92584,77.961282 44.98125,71.717752 C 43.16197,65.876552 37.7752,62.612642 31.88587,66.669842 C 30.93497,67.324922 32.67783,75.681592 42.80341,70.964952"
       id="path2291"
       sodipodi:nodetypes="cssc" />
    <path
       style="fill:#000000;fill-opacity:1;fill-rule:evenodd;stroke:#000000;stroke-width:1.9820174;stroke-linecap:round;stroke-linejoin:round;stroke-miterlimit:4;stroke-dasharray:none;stroke-opacity:1"
       d="M 37.09172,66.731072 C 38.46667,67.899372 38.1406,69.311582 37.45989,70.774662 C 36.85221,69.683522 36.45397,68.481502 37.09172,66.731072 z"
       id="path2293"
       sodipodi:nodetypes="ccc" />
    <path
       style="fill:url(#linearGradient2313);fill-opacity:1;fill-rule:evenodd;stroke:none;stroke-width:16;stroke-linecap:round;stroke-linejoin:round;stroke-miterlimit:4;stroke-dasharray:none;stroke-opacity:1"
       d="M 34.5655,57.432752 C 37.18472,59.783382 37.20556,60.174262 39.08506,63.089812 C 40.38133,59.658772 40.96343,56.227732 44.53437,52.796692 L 34.5655,57.432752 z"
       id="path2299"
       sodipodi:nodetypes="cccc" />
    <path
       style="fill:url(#linearGradient2311);fill-opacity:1;fill-rule:evenodd;stroke:none;stroke-width:16;stroke-linecap:round;stroke-linejoin:round;stroke-miterlimit:4;stroke-dasharray:none;stroke-opacity:1"
       d="M 43.08635,54.471342 L 45.01297,65.174782 L 45.22704,54.257272 L 43.08635,54.471342 z"
       id="path2303" />
    <path
       id="path2315"
       d="M 25.34194,73.222662 C 27.37088,71.704032 30.04185,70.827422 31.04466,68.282662 C 28.34183,68.616522 28.82197,65.602652 24.24597,70.147872 L 25.34194,73.222662 z"
       style="fill:url(#linearGradient2317);fill-opacity:1;fill-rule:evenodd;stroke:none;stroke-width:16;stroke-linecap:round;stroke-linejoin:round;stroke-miterlimit:4;stroke-dasharray:none;stroke-opacity:1"
       sodipodi:nodetypes="cccc" />
    <path
       sodipodi:nodetypes="cccc"
       id="path2321"
       d="M 37.95687,80.242792 C 40.41063,77.719902 39.94575,79.427302 42.93432,77.666202 C 39.558,76.233432 37.86561,75.086092 31.36945,73.735222 C 27.64289,76.879592 33.55738,77.640142 37.95687,80.242792 z"
       style="fill:url(#linearGradient2323);fill-opacity:1;fill-rule:evenodd;stroke:none;stroke-width:16;stroke-linecap:round;stroke-linejoin:round;stroke-miterlimit:4;stroke-dasharray:none;stroke-opacity:1" />
    <path
       sodipodi:nodetypes="cccc"
       id="path2325"
       d="M 65.77748,57.860872 C 63.15826,60.211522 63.13741,60.602402 61.25791,63.517952 C 59.96165,60.086912 59.37956,56.655872 55.80861,53.224832 L 65.77748,57.860872 z"
       style="fill:url(#linearGradient2333);fill-opacity:1;fill-rule:evenodd;stroke:none;stroke-width:16;stroke-linecap:round;stroke-linejoin:round;stroke-miterlimit:4;stroke-dasharray:none;stroke-opacity:1" />
    <path
       id="path2327"
       d="M 56.50283,54.404342 L 54.57621,65.107782 L 54.36214,54.190272 L 56.50283,54.404342 z"
       style="fill:url(#linearGradient2335);fill-opacity:1;fill-rule:evenodd;stroke:none;stroke-width:16;stroke-linecap:round;stroke-linejoin:round;stroke-miterlimit:4;stroke-dasharray:none;stroke-opacity:1" />
    <path
       sodipodi:nodetypes="cccc"
       style="fill:url(#linearGradient2337);fill-opacity:1;fill-rule:evenodd;stroke:none;stroke-width:16;stroke-linecap:round;stroke-linejoin:round;stroke-miterlimit:4;stroke-dasharray:none;stroke-opacity:1"
       d="M 74.33198,73.436732 C 72.30303,71.918102 69.63208,71.041492 68.62925,68.496732 C 71.33209,68.830592 72.97112,68.238632 77.54712,72.783852 L 74.33198,73.436732 z"
       id="path2329" />
    <path
       style="fill:url(#linearGradient2339);fill-opacity:1;fill-rule:evenodd;stroke:none;stroke-width:16;stroke-linecap:round;stroke-linejoin:round;stroke-miterlimit:4;stroke-dasharray:none;stroke-opacity:1"
       d="M 61.50298,80.670912 C 59.04923,78.148042 59.5141,79.855442 56.52553,78.094342 C 59.90184,76.661572 61.59424,75.514232 68.09039,74.163362 C 71.81696,77.307732 65.90247,78.068282 61.50298,80.670912 z"
       id="path2331"
       sodipodi:nodetypes="cccc" />
    <path
       style="fill:none;fill-opacity:0.75;fill-rule:evenodd;stroke:#000000;stroke-width:1.98201954;stroke-linecap:round;stroke-linejoin:round;stroke-miterlimit:4;stroke-dasharray:none;stroke-opacity:1"
       d="M 41.84967,87.442832 C 35.87938,90.178752 31.26174,94.181362 26.9006,98.424162"
       id="path2341"
       sodipodi:nodetypes="cc" />
    <path
       style="fill:none;fill-opacity:0.75;fill-rule:evenodd;stroke:#000000;stroke-width:1.98201954;stroke-linecap:round;stroke-linejoin:round;stroke-miterlimit:4;stroke-dasharray:none;stroke-opacity:1"
       d="M 40.02112,87.209402 C 33.61138,88.639412 28.26023,91.590462 23.10982,94.829942"
       id="path2343"
       sodipodi:nodetypes="cc" />
    <path
       sodipodi:nodetypes="cc"
       id="path2345"
       d="M 55.67023,83.462052 C 61.94838,81.534782 68.05877,81.453052 74.13734,81.721302"
       style="fill:none;fill-opacity:0.75;fill-rule:evenodd;stroke:#000000;stroke-width:1.98201931;stroke-linecap:round;stroke-linejoin:round;stroke-miterlimit:4;stroke-dasharray:none;stroke-opacity:1" />
    <path
       style="fill:none;fill-opacity:0.75;fill-rule:evenodd;stroke:#000000;stroke-width:1.98201954;stroke-linecap:round;stroke-linejoin:round;stroke-miterlimit:4;stroke-dasharray:none;stroke-opacity:1"
       d="M 60.43842,84.267672 C 66.95759,83.473942 72.98721,84.467542 78.92399,85.800052"
       id="path2347"
       sodipodi:nodetypes="cc" />
    <path
       sodipodi:nodetypes="cc"
       id="path2349"
       d="M 56.80583,85.301792 C 63.36149,85.692912 69.75649,86.683872 75.35702,89.061892"
       style="fill:none;fill-opacity:0.75;fill-rule:evenodd;stroke:#000000;stroke-width:1.98201931;stroke-linecap:round;stroke-linejoin:round;stroke-miterlimit:4;stroke-dasharray:none;stroke-opacity:1" />
    <path
       sodipodi:nodetypes="cc"
       id="path2351"
       d="M 58.06532,87.228762 C 64.03562,89.964672 68.65326,93.967292 73.0144,98.210092"
       style="fill:none;fill-opacity:0.75;fill-rule:evenodd;stroke:#000000;stroke-width:1.98201954;stroke-linecap:round;stroke-linejoin:round;stroke-miterlimit:4;stroke-dasharray:none;stroke-opacity:1" />
    <path
       sodipodi:nodetypes="cc"
       id="path2353"
       d="M 59.89389,86.995332 C 66.30363,88.425342 71.65477,91.376392 76.80519,94.615872"
       style="fill:none;fill-opacity:0.75;fill-rule:evenodd;stroke:#000000;stroke-width:1.98201954;stroke-linecap:round;stroke-linejoin:round;stroke-miterlimit:4;stroke-dasharray:none;stroke-opacity:1" />
    <path
       sodipodi:nodetypes="cccc"
       id="path2361"
       d="M 24.39342,42.664992 C 24.84562,44.516892 26.66538,52.732522 27.81746,59.201682 C 28.98965,56.099032 34.71752,56.007792 37.94667,52.905142 C 30.53921,40.986312 26.61339,42.961542 24.39342,42.664992 z"
       style="fill:url(#linearGradient2363);fill-opacity:1;fill-rule:evenodd;stroke:none;stroke-width:16;stroke-linecap:round;stroke-linejoin:round;stroke-miterlimit:4;stroke-dasharray:none;stroke-opacity:1" />
    <path
       style="fill:url(#linearGradient2367);fill-opacity:1;fill-rule:evenodd;stroke:none;stroke-width:16;stroke-linecap:round;stroke-linejoin:round;stroke-miterlimit:4;stroke-dasharray:none;stroke-opacity:1"
       d="M 76.61181,41.425552 C 76.15961,43.277442 75.52232,52.420282 74.37023,58.889442 C 73.19805,55.786802 66.56196,55.695552 63.33281,52.592912 C 70.74026,40.674082 73.76737,41.722102 76.61181,41.425552 z"
       id="path2365"
       sodipodi:nodetypes="cccc" />
    <path
       sodipodi:nodetypes="cccc"
       id="path7569"
       d="M 34.03677,54.987012 C 32.18695,42.807862 29.32212,42.728762 46.75073,23.132902 C 71.04972,37.661882 63.67403,42.502182 65.24177,54.905792 C 50.38772,53.429672 46.702,53.710082 34.03677,54.987012 z"
       style="fill:url(#linearGradient7571);fill-opacity:1;fill-rule:evenodd;stroke:#000000;stroke-width:1.9820174;stroke-linecap:round;stroke-linejoin:round;stroke-miterlimit:4;stroke-dasharray:none;stroke-opacity:1" />
    <path
       sodipodi:nodetypes="cssc"
       id="path3250"
       d="M 54.5209,81.368552 C 54.87083,79.269492 52.78815,77.673602 54.73274,71.430092 C 56.55202,65.588892 61.9388,62.324982 67.82812,66.382182 C 68.77902,67.037262 67.03617,75.393922 56.91058,70.677282"
       style="fill:none;fill-opacity:0.75;fill-rule:evenodd;stroke:#000000;stroke-width:1.98201931;stroke-linecap:round;stroke-linejoin:round;stroke-miterlimit:4;stroke-dasharray:none;stroke-opacity:1" />
    <path
       sodipodi:nodetypes="ccc"
       id="path3252"
       d="M 62.24759,66.068722 C 60.87265,67.237022 61.19871,68.649242 61.87942,70.112312 C 62.4871,69.021172 62.88535,67.819152 62.24759,66.068722 z"
       style="fill:#000000;fill-opacity:1;fill-rule:evenodd;stroke:#000000;stroke-width:1.9820174;stroke-linecap:round;stroke-linejoin:round;stroke-miterlimit:4;stroke-dasharray:none;stroke-opacity:1" />
    <path
       style="fill:url(#linearGradient3256);fill-opacity:1;fill-rule:evenodd;stroke:none;stroke-width:16;stroke-linecap:round;stroke-linejoin:round;stroke-miterlimit:4;stroke-dasharray:none;stroke-opacity:1"
       d="M 47.92544,76.668052 C 45.16011,66.929872 45.34483,54.327562 50.15582,54.397922 C 54.0147,54.456252 53.35984,69.887292 52.10246,77.631962 C 52.10246,77.631962 49.51491,82.265382 47.92544,76.668052 z"
       id="path3254"
       sodipodi:nodetypes="cscs" />
    <path
       sodipodi:nodetypes="cccc"
       id="path7565"
       d="M 67.73809,46.174342 C 75.44773,29.991982 72.03271,15.501842 58.8273,1.820242 C 50.43852,7.016862 34.75607,28.208652 33.68525,41.966272 C 47.56187,39.627322 53.98124,43.236792 67.73809,46.174342 z"
       style="fill:url(#linearGradient7567);fill-opacity:1;fill-rule:evenodd;stroke:#000000;stroke-width:1.9820174;stroke-linecap:round;stroke-linejoin:round;stroke-miterlimit:4;stroke-dasharray:none;stroke-opacity:1" />
    <path
       style="fill:url(#linearGradient3939);fill-opacity:1;fill-rule:evenodd;stroke:#000000;stroke-width:1.9820174;stroke-linecap:round;stroke-linejoin:round;stroke-miterlimit:4;stroke-dasharray:none;stroke-opacity:1"
       d="M 31.90565,49.031752 C 21.29009,37.649662 29.01185,16.066992 41.25831,0.99155201 C 60.94673,16.522152 71.96136,33.629542 67.27352,49.006052 C 53.3969,46.667092 45.66251,46.094202 31.90565,49.031752 z"
       id="path5801"
       sodipodi:nodetypes="cccc" />
    <path
       style="opacity:0.98999999;fill:url(#linearGradient3723);fill-opacity:1;fill-rule:evenodd;stroke:#000000;stroke-width:1.9820174;stroke-linecap:round;stroke-linejoin:round;stroke-miterlimit:4;stroke-dasharray:none;stroke-dashoffset:0;stroke-opacity:1"
       d="M 45.11921,23.662122 C 43.58872,23.625582 42.2576,24.903662 42.37577,26.208142 C 42.35881,26.959202 42.32073,27.709742 42.28771,28.460362 C 41.26157,28.405902 40.21823,28.201272 39.19627,28.366192 C 37.84173,28.676212 36.83731,29.958352 37.17256,31.162132 C 37.42338,32.264842 38.67364,33.111012 39.97223,33.067822 C 40.87061,33.108092 41.76654,33.179792 42.66251,33.247972 C 42.88728,35.178632 43.31607,37.090382 43.88318,38.966562 C 44.11182,40.201362 45.57635,41.201302 47.02907,40.976302 C 48.50172,40.803022 49.64649,39.466492 49.3465,38.196652 C 49.21799,37.562172 48.9539,36.954002 48.83164,36.317642 C 48.56488,35.257422 48.33755,34.186982 48.21287,33.108152 C 49.31083,33.013832 50.46967,33.095772 51.49906,32.698422 C 52.66765,32.182852 53.3461,30.891922 52.86878,29.807932 C 52.45652,28.755972 51.13727,28.062982 49.86579,28.196442 C 49.17183,28.219932 48.48221,28.295032 47.78994,28.339122 C 47.80601,28.057142 47.7697,27.767762 47.7975,27.482552 C 47.81117,26.866582 47.91435,26.248072 47.86523,25.633512 C 47.6096,24.546532 46.43674,23.616892 45.11921,23.662122 z"
       id="rect3643" />
    <path
       style="fill:none;fill-opacity:0.75;fill-rule:evenodd;stroke:#000000;stroke-width:1.9820174;stroke-linecap:round;stroke-linejoin:round;stroke-miterlimit:4;stroke-dasharray:none;stroke-opacity:1"
       d="M 46.62649,49.531872 C 45.42918,52.227272 52.52073,52.976712 51.88976,49.572692"
       id="path3941"
       sodipodi:nodetypes="cc" />
    <path
       id="path3258"
       d="M 73.00729,65.488552 C 70.97834,63.969932 68.30738,63.093312 67.30456,60.548562 C 70.00738,60.882412 71.64642,60.290472 76.22242,64.835672 L 73.00729,65.488552 z"
       style="fill:url(#linearGradient3260);fill-opacity:1;fill-rule:evenodd;stroke:none;stroke-width:16;stroke-linecap:round;stroke-linejoin:round;stroke-miterlimit:4;stroke-dasharray:none;stroke-opacity:1"
       sodipodi:nodetypes="cccc" />
    <path
       sodipodi:nodetypes="cccc"
       style="fill:url(#linearGradient3264);fill-opacity:1;fill-rule:evenodd;stroke:none;stroke-width:16;stroke-linecap:round;stroke-linejoin:round;stroke-miterlimit:4;stroke-dasharray:none;stroke-opacity:1"
       d="M 27.1082,66.157622 C 29.13714,64.638982 31.80811,63.762372 32.81092,61.217612 C 30.10809,61.551472 30.58823,58.537612 26.01223,63.082832 L 27.1082,66.157622 z"
       id="path3262" />
  </g>
</svg>
