<?xml version="1.0" encoding="UTF-8" standalone="no"?>
<svg id="svg2" xmlns:rdf="http://www.w3.org/1999/02/22-rdf-syntax-ns#" xmlns="http://www.w3.org/2000/svg" height="100%" width="100%" version="1.1" xmlns:cc="http://creativecommons.org/ns#" xmlns:dc="http://purl.org/dc/elements/1.1/" viewBox="0 -410 2048 2048">
 <metadata id="metadata12">
  <rdf:RDF>
   <cc:Work rdf:about="">
    <dc:format>image/svg+xml</dc:format>
    <dc:type rdf:resource="http://purl.org/dc/dcmitype/StillImage"/>
   </cc:Work>
  </rdf:RDF>
 </metadata>
 <g id="g4" transform="matrix(1 0 0 -1 0 1638)">
  <path id="path6" d="m1582 1195h-1120q-19 180-70 360 251-97 523-113v31q0 74-22 156-5 28-5 45 0 55 39.5 95t96.5 40q56 0 95.5-40t39.5-95q0-17-5-45-22-82-22-156 0-21 1-31 271 16 523 113-55-186-74-360zm-4-67q-7-100-7-172 0-24 2-35h-1096q0 8-0.5 17t-0.5 18q0 92-7 172h1109zm-3-275q0-18 1-35t2-33h-1110q2 16 3 33t4 35h1100zm12-136q9-105 30-204l-1189 1q25 99 36 203h1123zm43-275q15-62 35-122t41-117h-1365q44 119 75 239h1214z" fill="currentColor"/>
 </g>
 <path id="path2989" d="m464.12 842.23c11.962 86.126 11.962 88.519 11.962 88.519" transform="translate(0,-410)" stroke="#000" stroke-width="1px" fill="none"/>
 <path id="path2991" d="m478.48 1117.4c4.7848 81.341 4.7848 81.341 4.7848 81.341" transform="translate(0,-410)" stroke="#000" stroke-width="1px" fill="none"/>
 <path id="path2993" d="m473.69 1251.3c-7.1772 93.303-7.1772 93.303-7.1772 93.303" transform="translate(0,-410)" stroke="#000" stroke-width="1px" fill="none"/>
 <path id="path2995" d="m430.63 1526.5c-9.5696 86.126-11.962 86.126-11.962 86.126" transform="translate(0,-410)" stroke="#000" stroke-width="1px" fill="none"/>
 <path id="path2997" d="m1576.6 847.02l-7.1772 78.949" transform="translate(0,-410)" stroke="#000" stroke-width="1px" fill="none"/>
 <path id="path2999" d="m1564.6 1119.8c4.7847 86.126 4.7847 86.126 4.7847 86.126" transform="translate(0,-410)" stroke="#000" stroke-width="1px" fill="none"/>
 <path id="path3001" d="m1571.8 1258.5c7.1772 76.557 7.1772 78.949 7.1772 78.949" transform="translate(0,-410)" stroke="#000" stroke-width="1px" fill="none"/>
 <path id="path3003" d="m1610.1 1531.2l14.354 83.734" transform="translate(0,-410)" stroke="#000" stroke-width="1px" fill="none"/>
 <path id="path3005" stroke-linejoin="round" d="m475.11 908.81c-0.80091-4.9343-2.8824-19.468-4.6255-32.297l-3.1694-23.326h553.78 553.78l-1.4187 11.364c-0.7804 6.2501-2.1437 20.784-3.0296 32.297l-1.6109 20.933h-546.12-546.12l-1.4562-8.9715z" transform="translate(0,-410)" fill="#ececec"/>
 <path id="path3007" stroke-linejoin="round" d="m484.64 1189.9c-0.50815-1.6448-1.5812-16.178-2.3846-32.297l-1.4607-29.307h541.94 541.94l0.017 16.149c0.01 8.8817 0.7033 23.416 1.5421 32.297l1.5252 16.149h-541.1c-430.79 0-541.29-0.6096-542.03-2.9905z" transform="translate(0,-410)" fill="#ececec"/>
 <path id="path3009" stroke-linejoin="round" d="m469.87 1320.3c0.7287-4.9343 2.0279-19.468 2.8872-32.297l1.5623-23.326h548.44 548.44l1.6524 23.326c0.9088 12.829 2.2704 27.363 3.0259 32.297l1.3736 8.9715h-554.35-554.35l1.3249-8.9715z" transform="translate(0,-410)" fill="#ececec"/>
 <path id="path3011" stroke-linejoin="round" d="m424.43 1590.6c0.86989-7.5659 2.7738-23.176 4.231-34.69l2.6494-20.933h588.87 588.87l5.3768 31.699c2.9572 17.434 5.356 33.045 5.3307 34.69-0.037 2.3843-121.35 2.9905-598.47 2.9905h-598.43l1.5816-13.756z" transform="translate(0,-410)" fill="#ececec"/>
</svg>
