<?xml version="1.0" encoding="UTF-8" standalone="no"?>
<svg id="svg2" xmlns:rdf="http://www.w3.org/1999/02/22-rdf-syntax-ns#" xmlns="http://www.w3.org/2000/svg" height="100%" width="100%" version="1.1" xmlns:cc="http://creativecommons.org/ns#" xmlns:dc="http://purl.org/dc/elements/1.1/" viewBox="0 -410 2048 2048">
 <metadata id="metadata12">
  <rdf:RDF>
   <cc:Work rdf:about="">
    <dc:format>image/svg+xml</dc:format>
    <dc:type rdf:resource="http://purl.org/dc/dcmitype/StillImage"/>
   </cc:Work>
  </rdf:RDF>
 </metadata>
 <g id="g4" transform="matrix(1 0 0 -1 0 1638)">
  <path id="path6" d="m341 1508q-33 12-64-76-34-88-1-101 32-13 65 77 30 89 0 100zm1527-620h-1212q33 90 33 197 0 127-52 231-37-18-80-24-54-27-57-88-4-53 19-78 23-69 14-152-7-60-46-100.5t-90-40.5h-20q-68 3-125 26.5t-81 68.5v821q59 1 121-36v8q0 65 22 120 6 1 38 1 80 0 143-47t88-117q237 15 451-147.5t265-499.5q68 13 139 13h143q43 0 89.5-4t85.5-16q91-46 112-136zm-18-446q-28-144-89-239h-1386q0 120 36 239h1439zm23 379q3-20 0-39 1-28 0-33h-1292q26 36 47 72h1245zm-1437-308q30 75 90 168h1346q-2-96-11-168h-1425z" fill="currentColor"/>
 </g>
 <path id="path2989" stroke-linejoin="round" d="m269.02 679.07c0-40.826 41.367-126.85 62.915-130.83 24.309-4.4913 19.615 56.035-8.678 111.89-30.023 59.274-54.237 67.728-54.237 18.935z" transform="translate(0,-410)" fill="#ececec"/>
 <path id="path2991" d="m662.89 1153c-35.897 90.939-35.897 90.939-35.897 90.939" transform="translate(0,-410)" stroke="#000" stroke-width="1px" fill="none"/>
 <path id="path2993" d="m593.49 1289.4c-67.007 88.546-67.007 88.546-67.007 88.546" transform="translate(0,-410)" stroke="#000" stroke-width="1px" fill="none"/>
 <path id="path2995" d="m409.22 1612.5l33.504-86.152" transform="translate(0,-410)" stroke="#000" stroke-width="1px" fill="none"/>
 <path id="path2997" d="m1852.3 1526.3c-7.1794 88.546-7.1794 88.546-7.1794 88.546" transform="translate(0,-410)" stroke="#000" stroke-width="1px" fill="none"/>
 <path id="path2999" d="m1866.6 1289.4c-2.3931 78.973-2.3931 83.759-2.3931 83.759" transform="translate(0,-410)" stroke="#000" stroke-width="1px" fill="none"/>
 <path id="path3001" d="m1859.5 1153c7.1793 78.973 7.1793 78.973 7.1793 78.973" transform="translate(0,-410)" stroke="#000" stroke-width="1px" fill="none"/>
 <path id="path3003" stroke-linejoin="round" d="m1161.1 1192.7v-32.315l348.8 0.6063 348.8 0.6063 1.6354 19.145c0.8994 10.53 2.255 24.799 3.0123 31.709l1.3769 12.564h-351.81-351.81v-32.315z" transform="translate(0,-410)" fill="#ececec"/>
 <path id="path3005" stroke-linejoin="round" d="m1161.1 1332.7v-33.504h351.79 351.79v15.194c0 8.3568-0.6965 23.434-1.5478 33.504l-1.5477 18.31h-350.24-350.24v-33.504z" transform="translate(0,-410)" fill="#ececec"/>
 <path id="path3007" stroke-linejoin="round" d="m1161.1 1570.8v-34.708h344.57 344.57l-1.354 13.76c-0.7446 7.5682-2.0743 22.914-2.9547 34.102l-1.6008 20.342-341.62 0.6064-341.62 0.6065v-34.708z" transform="translate(0,-410)" fill="#ececec"/>
 <path id="path2994" stroke-linejoin="round" d="m637.46 1224c0-0.5592 5.4743-15.097 12.165-32.307l12.165-31.29h248.69 248.69v32.307 32.307h-260.85c-143.47 0-260.85-0.4575-260.85-1.0168z" transform="translate(0,-410)" fill="#ececec"/>
 <path id="path2996" stroke-linejoin="round" d="m539.74 1364.4c0.43873-0.9871 11.552-16.064 24.696-33.504l23.898-31.709h285.41 285.41v33.504 33.504h-310.11c-170.56 0-309.75-0.8077-309.31-1.7949z" transform="translate(0,-410)" fill="#ececec"/>
 <path id="path2998" stroke-linejoin="round" d="m416.1 1600.7c0.8388-2.6428 6.6966-17.989 13.017-34.102l11.492-29.297 359.27-0.6061 359.27-0.606v34.708 34.708h-372.29c-371.69 0-372.29-0.01-370.77-4.8051z" transform="translate(0,-410)" fill="#ececec"/>
</svg>
