<?xml version="1.0" encoding="UTF-8" standalone="no"?>
<svg id="svg2" xmlns:rdf="http://www.w3.org/1999/02/22-rdf-syntax-ns#" xmlns="http://www.w3.org/2000/svg" height="100%" width="100%" version="1.1" xmlns:cc="http://creativecommons.org/ns#" xmlns:dc="http://purl.org/dc/elements/1.1/" viewBox="0 -410 2048 2048">
 <metadata id="metadata12">
  <rdf:RDF>
   <cc:Work rdf:about="">
    <dc:format>image/svg+xml</dc:format>
    <dc:type rdf:resource="http://purl.org/dc/dcmitype/StillImage"/>
   </cc:Work>
  </rdf:RDF>
 </metadata>
 <g id="g4" transform="matrix(1 0 0 -1 0 1638)">
  <path id="path6" d="m1218 1160h-386l31 74q-77 67-77 174 0 98 69.5 168t168.5 70q98 0 168-70t70-168q0-103-76-174zm303-718l103-240-1201 1 103 239h995zm-245 582h-503l30 68h445zm-721-511l190 443h556l192-442z" fill="currentColor"/>
 </g>
 <path id="path2989" d="m839.73 878.85c-34.275 83.783-34.275 83.783-34.275 83.783" transform="translate(0,-410)" stroke="#000" stroke-width="1px" fill="none"/>
 <path id="path2991" d="m780.7 1017.9c-34.275 81.878-34.275 81.878-34.275 81.878" transform="translate(0,-410)" stroke="#000" stroke-width="1px" fill="none"/>
 <path id="path2993" d="m561.72 1528.2c-34.275 83.783-34.275 83.783-34.275 83.783" transform="translate(0,-410)" stroke="#000" stroke-width="1px" fill="none"/>
 <path id="path2995" d="m1517.6 1611.9c-32.37-87.591-32.37-87.591-32.37-87.591" transform="translate(0,-410)" stroke="#000" stroke-width="1px" fill="none"/>
 <path id="path2997" d="m1268.2 1019.8c32.37 79.974 32.37 79.974 32.37 79.974" transform="translate(0,-410)" stroke="#000" stroke-width="1px" fill="none"/>
 <path id="path2999" d="m1211 884.56c36.179 79.974 36.179 78.07 36.179 78.07" transform="translate(0,-410)" stroke="#000" stroke-width="1px" fill="none"/>
 <path id="path3001" stroke-linejoin="round" d="m811.32 952.31c1.8439-4.4209 24.55-59.484 25.523-61.894 0.76639-1.8984 39.344-2.2897 187.71-1.9042l186.74 0.48534 14.891 32.268c8.1898 17.748 14.891 32.529 14.891 32.847 0 0.31796-96.918 0.57812-215.37 0.57812-171.56 0-215.17-0.48422-214.38-2.3802z" transform="translate(0,-410)" fill="#ececec"/>
 <path id="path3003" stroke-linejoin="round" d="m754.22 1085.6c1.4087-3.4036 7.606-18.399 13.772-33.323l11.211-27.134 244.74 0.014 244.74 0.014 12.876 31.881c7.0815 17.534 12.865 32.524 12.853 33.309-0.011 0.7855-122.14 1.4281-271.39 1.4281h-271.37l2.5612-6.1885z" transform="translate(0,-410)" fill="#ececec"/>
 <path id="path3005" stroke-linejoin="round" d="m533.07 1603.4c0.33862-1.3554 6.6137-17.201 13.945-35.213l13.329-32.749 463.73-0.014 463.73-0.014 12.31 33.583c6.7702 18.47 12.595 34.323 12.944 35.227 0.3552 0.92-215.45 1.644-489.98 1.644-400.49 0-490.5-0.4527-490-2.4645z" transform="translate(0,-410)" fill="#ececec"/>
</svg>
