<?xml version="1.0" encoding="UTF-8" standalone="no"?>
<svg id="svg2" xmlns:rdf="http://www.w3.org/1999/02/22-rdf-syntax-ns#" xmlns="http://www.w3.org/2000/svg" height="100%" width="100%" version="1.1" xmlns:cc="http://creativecommons.org/ns#" xmlns:dc="http://purl.org/dc/elements/1.1/" viewBox="0 -410 2048 2048">
 <metadata id="metadata12">
  <rdf:RDF>
   <cc:Work rdf:about="">
    <dc:format>image/svg+xml</dc:format>
    <dc:type rdf:resource="http://purl.org/dc/dcmitype/StillImage"/>
   </cc:Work>
  </rdf:RDF>
 </metadata>
 <g id="g4" transform="matrix(1 0 0 -1 0 1638)">
  <path id="path6" d="m1436 956l114-443h-1056l118 443h824zm-36 135l18-67h-790l19 68zm175-649l62-239h-1230l66 239h1102zm-501 1010q-16 25-16 57 0 28 11 57l26 56q42 91 125.5 148t187.5 57q127 0 222-84.5t116-210.5l68-383-347 93q-11 3-21 3-67 0-67-68 0-9 2-13l2-4h-718l3 7q1 4 1 10 0 68-68 68-10 0-20-3l-346-93 67 383q19 126 114.5 210.5t223.5 84.5q103 0 187-57t126-148l26-57q11-27 11-56 0-33-17-57-29-25-29-59 0-79 80-79 79 0 79 79 0 35-29 59z" fill="currentColor"/>
 </g>
 <path id="path2989" d="m670.07 880.16l-16.752 81.366" transform="translate(0,-410)" stroke="#000" stroke-width="1px" fill="none"/>
 <path id="path2991" d="m631.78 1014.2l-14.359 83.759" transform="translate(0,-410)" stroke="#000" stroke-width="1px" fill="none"/>
 <path id="path2993" d="m500.16 1528.7l-23.931 86.152" transform="translate(0,-410)" stroke="#000" stroke-width="1px" fill="none"/>
 <path id="path2995" d="m1541.2 1526.3c26.324 86.152 26.324 86.152 26.324 86.152" transform="translate(0,-410)" stroke="#000" stroke-width="1px" fill="none"/>
 <path id="path2997" d="m1407.2 1014.2c21.538 88.546 23.931 88.546 23.931 88.546" transform="translate(0,-410)" stroke="#000" stroke-width="1px" fill="none"/>
 <path id="path2999" d="m1376 880.16l19.145 83.759" transform="translate(0,-410)" stroke="#000" stroke-width="1px" fill="none"/>
 <path id="path3001" stroke-linejoin="round" d="m657.85 951.93c0-1.7933 2.6923-16.48 5.9828-32.636 3.2906-16.157 5.9828-29.766 5.9828-30.243 0-0.4771 158.8-0.86746 352.89-0.86746h352.89l2.3811 8.9742c3.4958 13.176 12.162 52.805 12.162 55.615 0 1.6186-121.09 2.4184-366.15 2.4184-307.44 0-366.15-0.52276-366.15-3.2606z" transform="translate(0,-410)" fill="#ececec"/>
 <path id="path3003" stroke-linejoin="round" d="m625.8 1059.9c3.0828-17.44 5.6326-32.517 5.6662-33.504 0.0336-0.9872 174.79-1.7917 388.35-1.7877l388.28 0.01 8.6822 33.497 8.6822 33.496h-402.63-402.63l5.6051-31.709z" transform="translate(0,-410)" fill="#ececec"/>
 <path id="path3005" stroke-linejoin="round" d="m481.9 1600.7c0.545-1.6452 3.1087-10.53 5.6972-19.743 2.5884-9.2135 6.4464-22.944 8.5733-30.512l3.8671-13.76h521.19 521.19l8.9534 29.316c4.9244 16.124 9.5045 31.2 10.178 33.504 1.1636 3.9798-25.663 4.1879-539.71 4.1879-431.68 0-540.73-0.6041-539.94-2.9914z" transform="translate(0,-410)" fill="#ececec"/>
</svg>
