<?xml version="1.0" encoding="UTF-8" standalone="no"?>
<svg id="svg2" xmlns:rdf="http://www.w3.org/1999/02/22-rdf-syntax-ns#" xmlns="http://www.w3.org/2000/svg" height="100%" width="100%" version="1.1" xmlns:cc="http://creativecommons.org/ns#" xmlns:dc="http://purl.org/dc/elements/1.1/" viewBox="0 -410 2048 2048">
 <metadata id="metadata12">
  <rdf:RDF>
   <cc:Work rdf:about="">
    <dc:format>image/svg+xml</dc:format>
    <dc:type rdf:resource="http://purl.org/dc/dcmitype/StillImage"/>
   </cc:Work>
  </rdf:RDF>
 </metadata>
 <g id="g4" transform="matrix(1 0 0 -1 0 1638)">
  <path id="path6" d="m1598 1513q-64-68-127-136l-126-136 221-1038h-1118l218 1024 2 276q0 139 99.5 239t240.5 100q142 0 236-107-4-102 30-175 23-12 130.5-25t193.5-22zm-144-52q-57 2-137.5 14.5t-95.5 27.5q-41 102-41 195-72 76-172 76-113 0-193-80t-80-191v-207h566q39 41 76.5 81.5t76.5 83.5zm28-1190l-39 172h-872l-38-172h949zm-177 820h-598l-124-580h846zm-15 68l-15 68h-541l-14-68h570z" fill="currentColor"/>
 </g>
 <path id="path2989" stroke-linejoin="round" d="m738.88 615.7c2.9189-124.18 4.6118-135.4 27.448-181.93 61.911-126.15 215.81-188.24 331.43-133.71 62.203 29.333 79.193 52.002 85.354 113.88 6.4969 65.247 29.083 132.47 47.855 142.42 7.8738 4.1757 45.557 12.137 83.74 17.691 38.183 5.5543 82.262 12.033 97.954 14.397l28.53 4.2979-70.967 77.647-70.967 77.647h-281.74-281.74l3.1108-132.34z" transform="translate(0,-410)" fill="#f9f9f9"/>
 <path id="path2991" stroke-linejoin="round" d="m728.95 870.24c0-45.67-9.9213-44.1 278.62-44.1 208.62 0 268.11 2.4061 268.21 10.847 0.065 5.9661 2.4732 19.634 5.3511 30.373l5.2326 19.525h-278.71c-268.96 0-278.71-0.58212-278.71-16.646z" transform="translate(0,-410)" fill="#f9f9f9"/>
 <path id="path2993" stroke-linejoin="round" d="m593.09 1509.5c2.6811-10.739 28.61-130.82 57.619-266.85s54.838-254.16 57.397-262.51c4.3112-14.073 26.204-15.186 298.53-15.186 272.47 0 294.19 1.1063 298.16 15.186 2.3523 8.3525 28.22 128.43 57.484 266.85 29.264 138.41 55.201 258.49 57.639 266.85 4.1768 14.314-19.574 15.186-413.64 15.186h-418.07l4.8747-19.525z" transform="translate(0,-410)" fill="#f9f9f9"/>
 <path id="path2995" stroke-linejoin="round" d="m540.29 1761.2c2.2631-5.9661 11.056-43.064 19.54-82.441l15.425-71.593h431.77 431.77l14.065 62.915c7.7356 34.603 16.393 71.702 19.239 82.441l5.1745 19.525h-470.55c-372.85 0-469.7-2.2523-466.44-10.848z" transform="translate(0,-410)" fill="#f9f9f9"/>
</svg>
