<?xml version="1.0" encoding="UTF-8" standalone="no"?>
<svg id="svg2" xmlns:rdf="http://www.w3.org/1999/02/22-rdf-syntax-ns#" xmlns="http://www.w3.org/2000/svg" height="100%" width="100%" version="1.1" xmlns:cc="http://creativecommons.org/ns#" xmlns:dc="http://purl.org/dc/elements/1.1/" viewBox="0 -410 2048 2048">
 <metadata id="metadata12">
  <rdf:RDF>
   <cc:Work rdf:about="">
    <dc:format>image/svg+xml</dc:format>
    <dc:type rdf:resource="http://purl.org/dc/dcmitype/StillImage"/>
   </cc:Work>
  </rdf:RDF>
 </metadata>
 <g id="g4" transform="matrix(1 0 0 -1 0 1638)">
  <path id="path6" d="m1024 203h-683q135 360 135 753 0 308-84 599 251-97 523-113v31q0 74-22 156-5 28-5 45 0 55 39.5 95t96.5 40q56 0 95.5-40t39.5-95q0-17-5-45-22-82-22-156 0-21 1-31 271 16 523 113-85-294-85-599 0-389 135-753h-682zm489 992q13 131 42 257-237-71-485-78-5 61-5 99 0 72 21 165 6 32 6 36 0 68-68 68t-68-68q0-12 6-36 21-93 21-165 0-15-2-43.5t-2-55.5q-250 7-487 78 30-134 43-257h978zm-969-67q3-43 3.5-86.5t0.5-85.5v-35h953q-1 12-1 35 0 92 7 172h-963zm959-276l-957 1q-2-36-6-68h968q-5 36-5 67zm-968-135q-10-95-34-204h1044q-20 88-33 204h-977zm1026-275h-1072q-10-43-23-85t-25-83h1166q-25 73-46 168z" fill="currentColor"/>
 </g>
 <path id="path2989" stroke-linejoin="round" d="m533.31 804.01c-3.1829-22.671-12.595-77.534-20.916-121.92-11.307-60.31-12.43-79.661-4.4452-76.597 57.753 22.162 266.7 57.668 413.22 70.216l57.706 4.9423 5.7802-50.051c5.1101-44.249 0.79603-97.823-18.139-225.26-2.9712-19.996-2.9907-45.966-0.0434-57.709 11.628-46.33 103.45-46.257 115.09 0.0912 2.96 11.794 2.6625 39.715-0.6612 62.048-18.989 127.59-22.13 167.37-17.082 216.3l5.5932 54.204 61.908-4.8535c105.56-8.2757 240.41-28.904 328.76-50.289 50.785-12.294 84.61-16.898 84.61-11.516 0 4.9311-5.5875 40.511-12.417 79.066-6.8291 38.555-14.878 88.649-17.888 111.32l-5.4712 41.22h-484.9-484.9l-5.787-41.22z" transform="translate(0,-410)" fill="#f9f9f9"/>
 <path id="path2991" stroke-linejoin="round" d="m555.31 1068.7c-0.0415-29.83-2.538-74.739-5.5477-99.797l-5.4723-45.559h478.5 478.5l-0.078 54.237c-0.043 29.831-2.5379 74.739-5.5477 99.797l-5.4696 45.559h-467.4-467.4l-0.0754-54.237z" transform="translate(0,-410)" fill="#f9f9f9"/>
 <path id="path2993" stroke-linejoin="round" d="m546.71 1231.4v-30.373h477.29 477.29v30.373 30.373h-477.29-477.29v-30.373z" transform="translate(0,-410)" fill="#f9f9f9"/>
 <path id="path2995" stroke-linejoin="round" d="m516.54 1476.6c6.107-29.83 13.807-74.739 17.111-99.797l6.0069-45.559h483.8 483.8l9.8661 67.254c5.4263 36.99 12.403 81.898 15.504 99.797l5.6382 32.542h-516.41-516.41l11.104-54.237z" transform="translate(0,-410)" fill="#f9f9f9"/>
 <path id="path2997" stroke-linejoin="round" d="m451.59 1762.9c0.18546-5.9661 9.5119-42.088 20.725-80.271l20.388-69.424 532.84-2.235 532.84-2.235 15.628 62.981c8.5954 34.639 17.682 71.767 20.193 82.506l4.5649 19.526h-573.76c-453.4 0-573.69-2.2755-573.42-10.848z" transform="translate(0,-410)" fill="#f9f9f9"/>
</svg>
