<?xml version="1.0" encoding="UTF-8" standalone="no"?>
<svg id="svg2" xmlns:rdf="http://www.w3.org/1999/02/22-rdf-syntax-ns#" xmlns="http://www.w3.org/2000/svg" height="100%" width="100%" version="1.1" xmlns:cc="http://creativecommons.org/ns#" xmlns:dc="http://purl.org/dc/elements/1.1/" viewBox="0 -410 2048 2048">
 <metadata id="metadata12">
  <rdf:RDF>
   <cc:Work rdf:about="">
    <dc:format>image/svg+xml</dc:format>
    <dc:type rdf:resource="http://purl.org/dc/dcmitype/StillImage"/>
   </cc:Work>
  </rdf:RDF>
 </metadata>
 <g id="g4" transform="matrix(1 0 0 -1 0 1638)">
  <path id="path6" d="m1783 442h-1294q-31-93-37-168h1270q38 73 61 168zm14 71q10 72 14 168h-1192q-72-91-105-168h1283zm12 236q-1 18-1 36v36h-1102q-9-18-19.5-37t-18.5-35h1141zm-1451 748q26-11 0-88-30-77-56-66-29 9 0 87 26 76 56 67zm1442-609q-15 39-58 70-34 12-77 15.5t-84 3.5q-87 0-173.5 0.5t-163.5-23.5q-6 35-9 50-54 336-257.5 489t-444.5 109q-5 66-52.5 115.5t-115.5 55.5q-6-26-6-52 0-42 16-85 3-6 3-15 0-39-36-39-23 0-29 20-31 47-73 62v-693q16-62 141-69h18q63 15 74 74 5 29 1.5 59.5t-8.5 50.5q-37 59-34 121 6 111 108 150 77 10 119 60 98-139 98-332 0-51-4-100.5t-19-96.5h1066zm-39-685h-1386q0 155 55 294.5t151 250.5q108 154 108 337 0 127-52 231-37-18-80-24-54-27-57-88-4-53 19-78 23-69 14-152-7-60-46-100.5t-90-40.5h-20q-68 3-125 26.5t-81 68.5v821q59 1 121-36v8q0 65 22 120 6 1 38 1 80 0 143-47t88-117q237 15 451-147.5t265-499.5q68 13 139 13h143q43 0 89.5-4t85.5-16q119-60 119-183 0-15 0.5-29.5t-2.5-29.5v-23q0-153-17-294.5t-95-261.5z" fill="currentColor"/>
 </g>
 <path id="path2989" stroke-linejoin="round" d="m747.44 1129.4c4.7297-15.512 9.0091-80.922 9.5098-145.36 1.0139-130.49-10.971-193.44-53.692-282.03-38.82-80.504-37.429-79.448-70.993-53.88-16.029 12.211-47.222 26.745-69.317 32.299-46.514 11.691-97.144 50.247-117.68 89.616-21.542 41.299-19.134 121.89 5.291 177.07 26.215 59.216 23.049 139.94-6.652 169.61-38 37.958-166.79 19.018-192.09-28.249-5.9379-11.095-8.2577-133.81-6.7657-357.88l2.2706-340.99 42.65 41.22c44.932 43.426 65.051 50.047 83.72 27.553 9.12-10.989 9.3282-23.419 1.0626-63.438-14.668-71.018-13.509-113.81 3.0827-113.81 47.642 0 127.22 72.154 142.61 129.3l9.1755 34.075 97.495-0.25001c140.39-0.35996 245.1 35.929 355.13 123.08 122.64 97.132 220.62 282.85 245.24 464.85 8.5388 63.114 12.312 66.865 57.582 57.239 69.478-14.774 175.26-18.63 309.81-11.293l132.64 7.2335 30.067 29.142c16.537 16.028 30.067 32.282 30.067 36.118 0 3.8366-235.98 6.9756-524.41 6.9756h-524.41l8.5995-28.203zm-395.67-468.57c11.666-25.058 21.249-60.203 21.296-78.102 0.0755-29.106-2.2486-32.542-22.009-32.542-18.174 0-25.857 8.0825-43.305 45.559-11.666 25.058-21.249 60.203-21.296 78.102-0.0759 29.106 2.2486 32.542 22.009 32.542 18.174 0 25.857-8.0825 43.305-45.559z" transform="translate(0,-410)" fill="#f9f9f9"/>
 <path id="path2991" stroke-linejoin="round" d="m694.24 1261.8 17.709-34.712h546.54 546.54v34.712 34.712h-564.24-564.24l17.709-34.712z" transform="translate(0,-410)" fill="#f9f9f9"/>
 <path id="path2993" stroke-linejoin="round" d="m538.6 1498.3c10.633-17.898 33.079-53.044 49.879-78.102l30.546-45.559h594.21 594.21l-5.4724 45.559c-3.0097 25.058-5.5062 60.203-5.5477 78.102l-0.075 32.542h-638.54-638.54l19.333-32.542z" transform="translate(0,-410)" fill="#f9f9f9"/>
 <path id="path2995" stroke-linejoin="round" d="m460.52 1749.9c0.32092-13.126 7.3008-49.248 15.511-80.271l14.927-56.407 643.24-2.2249 643.24-2.2249-15.388 49.954c-8.4631 27.475-22.504 64.598-31.201 82.496l-15.814 32.542h-627.55-627.55l0.58349-23.864z" transform="translate(0,-410)" fill="#f9f9f9"/>
</svg>
