<?xml version="1.0" encoding="UTF-8" standalone="no"?>
<svg id="svg2" xmlns:rdf="http://www.w3.org/1999/02/22-rdf-syntax-ns#" xmlns="http://www.w3.org/2000/svg" height="100%" width="100%" version="1.1" xmlns:cc="http://creativecommons.org/ns#" xmlns:dc="http://purl.org/dc/elements/1.1/" viewBox="0 -410 2048 2048">
 <metadata id="metadata12">
  <rdf:RDF>
   <cc:Work rdf:about="">
    <dc:format>image/svg+xml</dc:format>
    <dc:type rdf:resource="http://purl.org/dc/dcmitype/StillImage"/>
   </cc:Work>
  </rdf:RDF>
 </metadata>
 <g id="g4" transform="matrix(1 0 0 -1 0 1638)">
  <path id="path6" d="m1024 203v71h496l-71 168h-425v72h392q-46 110-92.5 220.5t-91.5 221.5h-208v68h177q-8 17-15.5 33.5t-14.5 34.5h-147v68h121l-42 97q91 48 91 151 0 70-50 120.5t-120 50.5v67q98 0 168-70t70-168q0-106-77-174l439-1031h-600zh-601l440 1031q-77 67-77 174 0 98 69.5 168t168.5 70v-67q-71 0-121-50.5t-50-120.5q0-103 91-151l-41-97h121v-68h-148q-8-18-15.5-34.5t-14.5-33.5h178v-68h-208q-47-111-93-221.5t-92-220.5h393v-72h-425l-71-168h496v-71z" fill="currentColor"/>
 </g>
 <path id="path2989" stroke-linejoin="round" d="m912.63 878.6c1.591-3.602 10.124-24.731 18.962-46.954l16.069-40.405-35.111-31.72c-110.89-100.18-37.96-282.23 113.05-282.23 148.44 0 221.05 192.72 106.92 283.79-35.329 28.189-36.42 34.925-13.074 80.687 9.5458 18.711 17.356 36.129 17.356 38.705 0 2.5766-51.092 4.6847-113.54 4.6847-62.445 0-112.23-2.9471-110.64-6.5491z" transform="translate(0,-410)" fill="#f9f9f9"/>
 <path id="path2991" stroke-linejoin="round" d="m865.21 993.63 14.484-30.373h144.31 144.31l14.484 30.373 14.484 30.373h-173.28-173.28l14.484-30.373z" transform="translate(0,-410)" fill="#f9f9f9"/>
 <path id="path2993" stroke-linejoin="round" d="m646.13 1512.1c3.2002-8.3525 43.645-105.94 89.878-216.85l84.059-201.67 203.93-0.018 203.93-0.017 86.78 209.64c47.729 115.3 88.081 212.9 89.672 216.87 1.5909 3.9761-169.67 7.2292-380.59 7.2292-361.65 0-383.15-0.8645-377.66-15.186z" transform="translate(0,-410)" fill="#f9f9f9"/>
 <path id="path2995" stroke-linejoin="round" d="m540.39 1759.5c2.3196-5.9661 16.947-41.112 32.505-78.102l28.287-67.254h422.81 422.81l28.287 67.254c15.558 36.99 30.185 72.136 32.504 78.102 3.3434 8.5994-96.883 10.848-483.61 10.848-386.72 0-486.95-2.2481-483.61-10.848z" transform="translate(0,-410)" fill="#f9f9f9"/>
</svg>
