<?xml version="1.0" encoding="UTF-8" standalone="no"?>
<svg id="svg2" xmlns:rdf="http://www.w3.org/1999/02/22-rdf-syntax-ns#" xmlns="http://www.w3.org/2000/svg" height="100%" width="100%" version="1.1" xmlns:cc="http://creativecommons.org/ns#" xmlns:dc="http://purl.org/dc/elements/1.1/" viewBox="0 -410 2048 2048">
 <metadata id="metadata12">
  <rdf:RDF>
   <cc:Work rdf:about="">
    <dc:format>image/svg+xml</dc:format>
    <dc:type rdf:resource="http://purl.org/dc/dcmitype/StillImage"/>
   </cc:Work>
  </rdf:RDF>
 </metadata>
 <g id="g4" transform="matrix(1 0 0 -1 0 1638)">
  <path id="path6" d="m1312 1160q-1 6-1 17 0 56 39.5 96t95.5 40q10 0 32-2l246-65-54 313q-24 87-96.5 143.5t-165.5 56.5q-165 0-242-148l-35-75q-6-14-6-27 0-19 12-39 22-37 22-77 0-56-39.5-96t-95.5-40q-57 0-96.5 40t-39.5 96q0 39 23 77 11 18 11 39 0 13-6 27l-35 75q-76 148-241 148-94 0-166-56.5t-96-143.5l-54-313 245 64q18 3 32 3 56 0 96-40t40-96q0-5 0.5-9t0.5-8h574zm35-136l-19 68h-610l-16-68h645zm135-511l-117 443h-681l-119-443h917zm64-239l-44 168h-954l-45-168h1043zm-1139-71l261 964q1 4 1 10 0 68-68 68-10 0-20-3l-346-93 67 383q19 126 114.5 210.5t223.5 84.5q103 0 187-57t126-148l26-57q11-27 11-56 0-36-19-72-15-22-15-44 0-68 68-68t68 68q0 22-15 44-19 36-19 72 0 28 11 57l26 56q42 91 125.5 148t187.5 57q127 0 222-84.5t116-210.5l68-383-347 93q-11 3-21 3-67 0-67-68 0-9 2-13l256-961h-1230z" fill="currentColor"/>
 </g>
 <path id="path2989" stroke-linejoin="round" d="m737.63 858.69c0-58.275-53.649-116.62-115.02-125.1-27.212-3.7572-70.382 3.6345-165.19 28.284l-128.35 33.371 4.4237-22.301c2.433-12.266 14.818-82.83 27.521-156.81 25.479-148.38 43.709-195.05 96.048-245.92 45.492-44.212 97.933-67.76 162.43-72.937 121.69-9.7683 204.93 42.418 266.8 167.26l36.041 72.733-19.534 45.408c-46.462 108 12.361 210.59 120.53 210.2 108.67-0.39095 166.59-97.68 122.64-205.98l-19.094-47.045 19.654-46.476c28.944-68.445 53.873-105.2 95.53-140.86 93.658-80.168 243-75.571 338.65 10.425 61.985 55.73 79.584 97.65 106.29 253.18 12.704 73.98 25.122 144.7 27.597 157.16l4.4997 22.647-128.42-34.27c-138.39-36.93-178.5-38.524-218.79-8.6933-34.441 25.501-61.497 70.856-61.497 103.09v29.09h-286.37-286.37v-26.465z" transform="translate(0,-410)" fill="#f9f9f9"/>
 <path id="path2991" stroke-linejoin="round" d="m711.71 1013.2c0.0652-5.9661 2.4732-19.634 5.3511-30.373l5.2326-19.525h301.26 301.26l9.3217 30.373 9.3217 30.373h-315.93c-247.02 0-315.91-2.366-315.81-10.848z" transform="translate(0,-410)" fill="#f9f9f9"/>
 <path id="path2993" stroke-linejoin="round" d="m576.06 1512.1c2.4681-8.3525 28.782-105.98 58.474-216.95l53.987-201.76h336.96c185.33 0 336.96 2.0371 336.96 4.5269 0 4.5487 100.63 385.77 109.33 414.18 4.3879 14.328-20.907 15.186-447.77 15.186-426.8 0-452.17-0.8599-447.94-15.186z" transform="translate(0,-410)" fill="#f9f9f9"/>
 <path id="path2995" stroke-linejoin="round" d="m512 1765c0-2.907 8.5941-38.053 19.098-78.102l19.098-72.816h474.18 474.18l18.717 68.298c10.295 37.564 18.717 72.71 18.717 78.102 0 7.1753-137.26 9.8036-512 9.8036-281.6 0-512-2.3785-512-5.2856z" transform="translate(0,-410)" fill="#f9f9f9"/>
</svg>
