<?xml version="1.0" encoding="UTF-8" standalone="no"?>
<svg
   xmlns:dc="http://purl.org/dc/elements/1.1/"
   xmlns:cc="http://creativecommons.org/ns#"
   xmlns:rdf="http://www.w3.org/1999/02/22-rdf-syntax-ns#"
   xmlns:svg="http://www.w3.org/2000/svg"
   xmlns="http://www.w3.org/2000/svg"
   xmlns:sodipodi="http://sodipodi.sourceforge.net/DTD/sodipodi-0.dtd"
   xmlns:inkscape="http://www.inkscape.org/namespaces/inkscape"
   version="1.0"
   width="300.000000pt"
   height="300.000000pt"
   viewBox="0 0 300.000000 300.000000"
   preserveAspectRatio="xMidYMid meet"
   id="svg2"
   inkscape:version="0.92.2 (5c3e80d, 2017-08-06)"
   sodipodi:docname="bb.svg">
  <defs
     id="defs12">
    <filter
       style="color-interpolation-filters:sRGB;"
       inkscape:label="Drawing"
       id="filter18775">
      <feGaussianBlur
         in="SourceGraphic"
         stdDeviation="5.99659"
         result="blur1"
         id="feGaussianBlur18721" />
      <feConvolveMatrix
         in="blur1"
         targetX="1"
         targetY="1"
         order="3 3"
         kernelMatrix="0 250 0 250 -1010 250 0 250 0 "
         result="convolve1"
         id="feConvolveMatrix18723" />
      <feComposite
         in="convolve1"
         in2="convolve1"
         k1="1"
         k2="1"
         k4="0.04"
         operator="arithmetic"
         result="composite1"
         id="feComposite18725" />
      <feColorMatrix
         in="composite1"
         values="0 0 0 0 0 0 0 0 0 0 0 0 0 0 0 -0.2125 -0.7154 -0.0721 1 0 "
         result="color1"
         id="feColorMatrix18727" />
      <feGaussianBlur
         stdDeviation="0.61"
         result="blur2"
         id="feGaussianBlur18729" />
      <feColorMatrix
         values="1 0 0 0 0 0 1 0 0 0 0 0 1 0 0 0 0 0 2.7 -1 "
         result="color2"
         id="feColorMatrix18731" />
      <feFlood
         flood-color="rgb(255,255,255)"
         result="flood1"
         id="feFlood18733" />
      <feBlend
         in2="color2"
         mode="multiply"
         result="blend1"
         id="feBlend18735" />
      <feComponentTransfer
         in="blend1"
         result="component1"
         id="feComponentTransfer18743">
        <feFuncR
           type="discrete"
           tableValues="0 1 1 1"
           id="feFuncR18737" />
        <feFuncG
           type="discrete"
           tableValues="0 1 1 1"
           id="feFuncG18739" />
        <feFuncB
           type="discrete"
           tableValues="0 1 1 1"
           id="feFuncB18741" />
      </feComponentTransfer>
      <feGaussianBlur
         stdDeviation="0.61"
         result="blur3"
         id="feGaussianBlur18745" />
      <feColorMatrix
         in="blur3"
         values="0 0 0 0 0 0 0 0 0 0 0 0 0 0 0 -0.2125 -0.7154 -0.0721 1 0 "
         result="color3"
         id="feColorMatrix18747" />
      <feColorMatrix
         values="1 0 0 0 0 0 1 0 0 0 0 0 1 0 0 0 0 0 1.9 -0.5 "
         result="color4"
         id="feColorMatrix18749" />
      <feFlood
         flood-color="rgb(0,0,0)"
         result="flood2"
         id="feFlood18751" />
      <feComposite
         in="flood2"
         in2="color4"
         operator="in"
         result="composite2"
         id="feComposite18753" />
      <feComposite
         in="composite2"
         in2="composite2"
         operator="arithmetic"
         k2="1"
         result="composite3"
         id="feComposite18755" />
      <feOffset
         dx="0"
         dy="0"
         result="offset1"
         id="feOffset18757" />
      <feFlood
         in="color4"
         flood-color="rgb(66,66,66)"
         result="flood3"
         id="feFlood18759" />
      <feComposite
         in="flood3"
         in2="color4"
         operator="out"
         result="composite4"
         id="feComposite18761" />
      <feComposite
         in="composite4"
         in2="composite4"
         operator="arithmetic"
         k2="1"
         result="composite5"
         id="feComposite18763" />
      <feMerge
         result="merge1"
         id="feMerge18769">
        <feMergeNode
           in="composite5"
           id="feMergeNode18765" />
        <feMergeNode
           in="offset1"
           id="feMergeNode18767" />
      </feMerge>
      <feColorMatrix
         values="1 0 0 0 0 0 1 0 0 0 0 0 1 0 0 0 0 0 1.3 0 "
         result="color5"
         flood-opacity="0.56"
         id="feColorMatrix18771" />
      <feComposite
         in="color5"
         in2="SourceGraphic"
         operator="in"
         result="composite8"
         id="feComposite18773" />
    </filter>
  </defs>
  <sodipodi:namedview
     pagecolor="#ffffff"
     bordercolor="#666666"
     borderopacity="1"
     objecttolerance="10"
     gridtolerance="10"
     guidetolerance="10"
     inkscape:pageopacity="0"
     inkscape:pageshadow="2"
     inkscape:window-width="1334"
     inkscape:window-height="1002"
     id="namedview10"
     showgrid="false"
     inkscape:zoom="2.1195502"
     inkscape:cx="213.75051"
     inkscape:cy="124.42273"
     inkscape:window-x="565"
     inkscape:window-y="18"
     inkscape:window-maximized="0"
     inkscape:current-layer="svg2"
     inkscape:pagecheckerboard="true"
     inkscape:measure-start="0,0"
     inkscape:measure-end="0,0">
    <inkscape:grid
       type="xygrid"
       id="grid22745" />
  </sodipodi:namedview>
  <metadata
     id="metadata4">
Created by potrace 1.12, written by Peter Selinger 2001-2015
<rdf:RDF>
  <cc:Work
     rdf:about="">
    <dc:format>image/svg+xml</dc:format>
    <dc:type
       rdf:resource="http://purl.org/dc/dcmitype/StillImage" />
    <dc:title />
  </cc:Work>
</rdf:RDF>
</metadata>
  <g
     id="g847"
     style="display:inline;filter:url(#filter18775)"
     transform="matrix(1.0358044,0,0,1.0472396,-5.4265776,4.9012566)" />
  <path
     style="display:inline;fill:#fffffa;stroke-width:2.60101795;fill-opacity:1"
     d="M 182.89844,-1.4316406 C 176.89382,-1.329174 171.10692,1.3176433 166.70117,5.3261719 153.02458,-7.3285906 126.34168,-0.16376927 123.0918,18.902344 121.94652,24.384768 122.88982,30.160028 125.11914,35.25 92.06487,53.204805 70.762294,94.12825 81.441406,131.25977 c 5.18682,16.88953 16.785577,32.2745 15.494141,50.71093 -0.584752,14.65965 -10.002102,30.05598 -2.744141,44.46485 6.035294,11.42236 19.481444,15.9223 31.539064,17.42773 -19.89782,6.15121 -37.788549,-9.10721 -57.125001,-11.77734 -18.820536,-2.90266 -39.335444,-0.31171 -55.5625,10.09375 -7.2938261,4.39828 -11.6515461,14.63494 -6.1113284,22.04492 1.2236825,2.35505 4.8692214,3.47575 3.0800784,6.51758 -1.7038817,8.02092 3.688441,19.3748 13.097656,17.88672 13.265241,-1.58013 23.728918,-15.21429 37.778415,-10.78922 19.408819,4.30687 37.904922,17.49366 58.64151,13.32437 11.98608,-1.45567 23.06168,-7.14951 32.55273,-14.41211 20.66972,18.11112 52.14941,19.08256 76.10938,7.17383 10.20366,-4.27145 23.98262,-10.17385 33.72656,-1.65234 6.98564,5.31933 18.12198,10.14169 25.67383,3.28515 4.87396,-4.49438 4.0561,-12.03255 3.20117,-17.55859 7.86898,-6.16167 6.85393,-20.0497 -2.10547,-24.67578 -19.07868,-14.568 -45.8337,-13.66913 -67.53095,-6.01657 -13.41912,4.471 -27.43994,10.51259 -41.63702,7.02438 13.51072,-1.8994 29.53965,-8.11047 33.50195,-22.56445 2.48059,-13.14965 -5.04893,-25.62262 -3.75195,-38.82422 0.69292,-24.84334 17.64274,-45.48257 20.54374,-69.93095 4.25583,-24.976319 -7.75116,-49.005729 -21.53122,-68.969963 -2.60119,-2.703458 -3.2398,-5.317607 -0.83478,-8.233853 8.4914,-16.578922 -5.5405,-39.1253667 -24.54883,-37.2402346 z"
     id="use843"
     inkscape:connector-curvature="0"
     sodipodi:nodetypes="ccccccccccccccccccccccccccccc" />
  <path
     style="display:inline;fill:#000000;stroke-width:2.60101795"
     d="m 80.315946,271.30568 c -20.053827,-7.5636 -21.843851,-6.17743 -28.361504,-5.97972 -3.83322,0.11628 -10.247082,1.9167 -17.395924,5.61006 -5.360491,2.76944 -8.744421,5.63167 -12.144327,5.71494 -1.22515,-1.24745 -1.102345,-5.16728 2.258331,-9.75834 6.476561,-7.43279 2.37139,-7.10247 -3.684091,-7.80732 -12.3875208,-1.44189 2.813879,-10.34999 7.843294,-11.83486 14.704447,-4.34131 34.288812,-8.34809 60.237236,3.95909 19.279739,8.54287 43.601349,9.16871 51.434449,-4.58217 3.26691,-10.11401 3.43417,-12.48924 -6.99182,-13.87213 -9.26084,-0.99203 -18.11328,-2.56139 -24.14022,-6.8421 -8.23405,-6.55697 -6.7141,-12.63495 -3.42955,-25.38752 3.29166,-15.04838 3.20418,-18.2238 2.21167,-29.44466 -0.93317,-9.01888 -5.05137,-20.50148 -8.87926,-28.04749 -8.250577,-13.22592 -9.710787,-32.81751 -7.816478,-43.077165 3.982149,-21.567466 20.307688,-44.203549 38.505978,-53.390236 12.09976,-6.108089 12.41062,-6.544533 8.53228,-11.979623 -7.74716,-10.856835 -3.38141,-22.294863 9.63426,-23.663233 11.17607,-1.1749692 20.56418,12.333337 10.90917,23.437303 -4.43838,5.104466 -0.0524,9.453779 8.56948,8.616841 8.5739,-0.832284 8.08488,-5.214019 3.78478,-16.315731 -2.77605,-7.634211 3.67267,-16.44275 13.35656,-15.982237 5.61637,0.267083 11.98264,3.58546 12.7728,11.698762 0.46616,4.786513 -0.92944,9.613932 -2.47855,11.134493 -4.13664,4.060422 -3.43383,10.908774 1.53395,14.947306 2.39278,1.945194 8.29974,11.621378 13.12658,21.50263 12.51011,25.610046 12.11352,39.61346 -2.08952,73.7788 -10.42219,25.07051 -10.9744,31.51292 -9.74877,45.96895 0.91649,10.80974 2.85586,21.86579 3.69134,24.78177 2.76732,9.65846 -12.59812,17.68194 -27.29036,18.17579 -11.23083,1.06134 -13.29818,2.32072 -11.55702,10.53473 2.15305,10.15711 11.36054,13.70817 24.55138,14.32834 7.2511,0.34091 17.44783,-1.53979 31.79195,-6.88776 23.59455,-8.79684 33.87013,-7.36663 47.00309,-4.95994 10.78603,1.9766 25.11549,11.6595 14.71903,13.68389 -12.8558,0.43084 -4.34458,4.76336 -2.48884,10.64161 4.02648,12.75432 -1.62975,6.79827 -13.58376,-0.35582 -10.15671,-6.07845 -18.46533,-4.89827 -33.28927,0.23557 -5.89738,2.04238 -18.60974,7.8523 -29.45818,9.33339 -22.8251,3.11617 -36.85077,-6.43099 -43.79262,-13.52487 l -5.92584,-6.05562 -5.97592,5.96647 c -6.05519,6.04562 -19.28107,14.06431 -35.08794,14.18693 -15.437953,-0.80187 -23.854105,-5.84756 -30.857844,-8.48912 z m 78.632184,-61.31281 c 7.94158,0.34986 17.1017,0.76322 21.39381,1.12201 5.55765,0.46461 9.41793,-0.5956 10.04949,-3.68341 1.31345,-6.41977 -12.20436,-9.8484 -38.29544,-9.26997 -22.18222,0.49177 -29.77435,2.46443 -32.7751,3.99806 -9.95939,6.47795 -5.33968,10.53653 10.75068,9.02685 8.15284,-0.76494 20.93498,-1.54339 28.87656,-1.19354 z m -0.84082,-19.57459 c 5.39153,-2.90757 5.9907,-6.58792 1.42272,-8.95104 -4.75086,-3.74552 -9.32001,-3.23182 -14.08492,0.11284 -5.02222,3.52528 -2.06088,5.96883 1.45599,8.68188 6.37466,2.88813 5.77911,2.34342 11.20621,0.15632 z m 30.24029,-18.38034 c 2.85704,-7.77343 -10.73247,-10.47892 -36.68193,-10.18309 -24.38845,0.58915 -34.42322,2.85719 -35.00847,8.8336 -0.37045,7.07091 7.04887,3.66992 35.26654,2.33826 25.33027,0.49939 34.78008,3.24529 36.42386,-0.98877 z m -32.87405,-49.1753 c -0.45769,-17.73458 -0.51732,-16.05631 9.75154,-15.88728 7.52293,0.12383 10.89566,0.0301 10.75359,-6.82942 -0.18393,-8.880846 -2.68232,-7.387186 -10.53647,-7.623866 -11.24866,-0.04599 -9.18522,1.009217 -9.45618,-11.534786 -0.22858,-10.020435 1.52558,-12.454153 -5.75601,-12.240489 -6.15734,0.180676 -6.67843,-3.03201 -6.72395,11.192226 -0.0497,15.540906 2.26178,13.171185 -10.03108,13.176169 -10.6728,0.0044 -9.50523,-0.182999 -9.50523,6.710504 0,6.939492 0.77119,7.575282 9.18861,7.575282 11.21152,-0.90838 10.45687,0.56229 10.6267,13.99283 -0.38959,18.03194 -1.74898,16.88966 6.8754,16.93051 5.72503,0.0271 4.57287,-2.90712 4.81308,-15.46168 z m 51.62431,-17.64241 c 0.40001,-20.998859 -8.82382,-37.245337 -18.59946,-51.290866 -2.99775,-4.307142 -6.25359,-8.375072 -8.35904,-8.375072 -6.36497,0 -7.17698,7.508217 -1.68037,13.66008 11.49339,12.863527 17.4247,30.772119 19.0196,38.142889 1.01912,4.709829 2.57714,11.957929 1.70789,18.978279 -2.46371,19.89781 7.50772,10.0749 7.91138,-11.11531 z"
     id="path22778"
     inkscape:connector-curvature="0"
     sodipodi:nodetypes="sssccsscccccccsssssscssccsssscsssscscssscscscccscscccsccccccccssccssssccscsssssss" />
</svg>
