<?xml version="1.0" encoding="UTF-8" standalone="no"?>
<svg
   xmlns:dc="http://purl.org/dc/elements/1.1/"
   xmlns:cc="http://creativecommons.org/ns#"
   xmlns:rdf="http://www.w3.org/1999/02/22-rdf-syntax-ns#"
   xmlns:svg="http://www.w3.org/2000/svg"
   xmlns="http://www.w3.org/2000/svg"
   xmlns:sodipodi="http://sodipodi.sourceforge.net/DTD/sodipodi-0.dtd"
   xmlns:inkscape="http://www.inkscape.org/namespaces/inkscape"
   version="1.0"
   width="300.000000pt"
   height="300.000000pt"
   viewBox="0 0 300.000000 300.000000"
   preserveAspectRatio="xMidYMid meet"
   id="svg2"
   inkscape:version="0.92.2 (5c3e80d, 2017-08-06)"
   sodipodi:docname="bk.svg">
  <defs
     id="defs12">
    <filter
       style="color-interpolation-filters:sRGB;"
       inkscape:label="Drawing"
       id="filter18775">
      <feGaussianBlur
         in="SourceGraphic"
         stdDeviation="5.99659"
         result="blur1"
         id="feGaussianBlur18721" />
      <feConvolveMatrix
         in="blur1"
         targetX="1"
         targetY="1"
         order="3 3"
         kernelMatrix="0 250 0 250 -1010 250 0 250 0 "
         result="convolve1"
         id="feConvolveMatrix18723" />
      <feComposite
         in="convolve1"
         in2="convolve1"
         k1="1"
         k2="1"
         k4="0.04"
         operator="arithmetic"
         result="composite1"
         id="feComposite18725" />
      <feColorMatrix
         in="composite1"
         values="0 0 0 0 0 0 0 0 0 0 0 0 0 0 0 -0.2125 -0.7154 -0.0721 1 0 "
         result="color1"
         id="feColorMatrix18727" />
      <feGaussianBlur
         stdDeviation="0.61"
         result="blur2"
         id="feGaussianBlur18729" />
      <feColorMatrix
         values="1 0 0 0 0 0 1 0 0 0 0 0 1 0 0 0 0 0 2.7 -1 "
         result="color2"
         id="feColorMatrix18731" />
      <feFlood
         flood-color="rgb(255,255,255)"
         result="flood1"
         id="feFlood18733" />
      <feBlend
         in2="color2"
         mode="multiply"
         result="blend1"
         id="feBlend18735" />
      <feComponentTransfer
         in="blend1"
         result="component1"
         id="feComponentTransfer18743">
        <feFuncR
           type="discrete"
           tableValues="0 1 1 1"
           id="feFuncR18737" />
        <feFuncG
           type="discrete"
           tableValues="0 1 1 1"
           id="feFuncG18739" />
        <feFuncB
           type="discrete"
           tableValues="0 1 1 1"
           id="feFuncB18741" />
      </feComponentTransfer>
      <feGaussianBlur
         stdDeviation="0.61"
         result="blur3"
         id="feGaussianBlur18745" />
      <feColorMatrix
         in="blur3"
         values="0 0 0 0 0 0 0 0 0 0 0 0 0 0 0 -0.2125 -0.7154 -0.0721 1 0 "
         result="color3"
         id="feColorMatrix18747" />
      <feColorMatrix
         values="1 0 0 0 0 0 1 0 0 0 0 0 1 0 0 0 0 0 1.9 -0.5 "
         result="color4"
         id="feColorMatrix18749" />
      <feFlood
         flood-color="rgb(0,0,0)"
         result="flood2"
         id="feFlood18751" />
      <feComposite
         in="flood2"
         in2="color4"
         operator="in"
         result="composite2"
         id="feComposite18753" />
      <feComposite
         in="composite2"
         in2="composite2"
         operator="arithmetic"
         k2="1"
         result="composite3"
         id="feComposite18755" />
      <feOffset
         dx="0"
         dy="0"
         result="offset1"
         id="feOffset18757" />
      <feFlood
         in="color4"
         flood-color="rgb(66,66,66)"
         result="flood3"
         id="feFlood18759" />
      <feComposite
         in="flood3"
         in2="color4"
         operator="out"
         result="composite4"
         id="feComposite18761" />
      <feComposite
         in="composite4"
         in2="composite4"
         operator="arithmetic"
         k2="1"
         result="composite5"
         id="feComposite18763" />
      <feMerge
         result="merge1"
         id="feMerge18769">
        <feMergeNode
           in="composite5"
           id="feMergeNode18765" />
        <feMergeNode
           in="offset1"
           id="feMergeNode18767" />
      </feMerge>
      <feColorMatrix
         values="1 0 0 0 0 0 1 0 0 0 0 0 1 0 0 0 0 0 1.3 0 "
         result="color5"
         flood-opacity="0.56"
         id="feColorMatrix18771" />
      <feComposite
         in="color5"
         in2="SourceGraphic"
         operator="in"
         result="composite8"
         id="feComposite18773" />
    </filter>
  </defs>
  <sodipodi:namedview
     pagecolor="#ffffff"
     bordercolor="#666666"
     borderopacity="1"
     objecttolerance="10"
     gridtolerance="10"
     guidetolerance="10"
     inkscape:pageopacity="0"
     inkscape:pageshadow="2"
     inkscape:window-width="1618"
     inkscape:window-height="1002"
     id="namedview10"
     showgrid="false"
     inkscape:zoom="2.0341568"
     inkscape:cx="117.16849"
     inkscape:cy="192.46929"
     inkscape:window-x="6"
     inkscape:window-y="0"
     inkscape:window-maximized="0"
     inkscape:current-layer="svg2"
     inkscape:pagecheckerboard="true">
    <inkscape:grid
       type="xygrid"
       id="grid22745" />
  </sodipodi:namedview>
  <metadata
     id="metadata4">
Created by potrace 1.12, written by Peter Selinger 2001-2015
<rdf:RDF>
  <cc:Work
     rdf:about="">
    <dc:format>image/svg+xml</dc:format>
    <dc:type
       rdf:resource="http://purl.org/dc/dcmitype/StillImage" />
    <dc:title />
  </cc:Work>
</rdf:RDF>
</metadata>
  <g
     id="g847"
     style="filter:url(#filter18775)"
     transform="matrix(1.1294498,0,0,1.1779494,-22.210911,-11.340324)" />
  <path
     style="fill:#fffff8;fill-opacity:1;stroke-width:2.8439188"
     d="m 115.96875,12.902344 c -0.30389,18.294375 -0.0705,36.840292 -0.39844,54.976562 -23.545405,-18.434053 -61.057165,-19.884008 -83.068357,1.826172 -20.536829,19.523196 -23.3798982,53.190402 -9.25,77.128902 5.699454,10.69553 14.925835,19.72133 23.402344,27.51563 -11.263376,7.44293 -14.780207,24.50551 -6.087891,35.21094 5.021604,7.24488 13.114199,11.34815 20.070313,16.375 2.049298,14.52471 -3.480506,31.42305 6.220703,44.33398 7.056698,9.45402 19.799892,10.83164 30.339967,14.00064 38.685711,8.71691 79.482161,6.99426 117.769411,-2.85415 12.46063,-3.97596 23.92677,-15.26859 22.89648,-29.1543 0.68561,-10.22041 -2.26671,-22.61084 5.85547,-30.50391 10.37397,-6.58825 21.04745,-17.35084 19.08203,-30.72461 -0.70064,-6.67661 -6.5585,-12.31551 -10.88672,-15.67382 16.77185,-14.71495 31.57143,-34.22 33.05469,-57.28907 2.62366,-22.641962 -8.09513,-47.307843 -29.02734,-57.728513 -21.61242,-11.699076 -50.303,-9.26667 -69.16993,6.673828 0.0128,-18.69922 -0.0269,-37.398439 -0.002,-56.097656 -23.59505,0 -47.1901,0 -70.78515,0 l -0.008,0.999969 z"
     id="use843"
     inkscape:connector-curvature="0" />
  <path
     style="display:inline;fill:#000000;stroke-width:2.8439188"
     d="m 120.60646,276.5685 c -17.27073,-3.02829 -34.94871,-6.98926 -41.017382,-10.57462 -5.894515,-3.4825 -6.538805,-6.04356 -6.538805,-25.99178 0,-21.33014 -0.288639,-22.27158 -7.998736,-26.08975 -12.772222,-6.32499 -19.085594,-14.52219 -17.079648,-22.17597 0.971147,-3.70544 4.388946,-7.3941 7.595114,-8.197 11.877398,-6.51872 9.715294,-9.38555 -4.538713,-21.92021 C 34.080341,146.71554 26.699473,131.8577 26.615922,112.47667 26.483681,81.801139 54.618927,59.630173 84.268481,67.045656 c 17.742389,4.437445 26.967759,9.171292 36.602469,24.946282 l 6.73634,11.029462 0.0109,-39.053493 0.27523,-41.049746 h 23.7004 23.17139 V 62.357769 101.79737 L 183.825,88.699014 c 10.75538,-15.549848 22.85943,-23.498107 42.14504,-23.498107 21.6072,0 34.09853,10.160634 41.51229,22.807209 4.61301,7.868987 6.68287,15.003094 5.04974,29.966034 -1.97651,18.1093 -6.94859,26.88065 -26.19019,46.20262 -11.11278,10.41883 -14.96199,11.73423 -2.7191,20.02011 4.081,3.24726 7.71501,6.68712 7.66418,10.41673 -0.16906,4.10551 -6.46244,12.71516 -14.66174,17.45556 -7.4197,4.28968 -8.3394,6.72418 -11.00262,29.12458 -0.10935,17.91394 3.47496,21.79799 -17.43683,29.80157 -17.17885,5.82312 -67.10254,8.59709 -87.57914,5.57318 z m 30.21796,-20.19857 c 13.58619,0 26.8869,0.294 42.52767,2.46326 12.63108,2.45584 16.73536,2.76111 18.21498,-0.93139 0.9749,-2.4329 -0.46238,-7.49683 -3.9511,-8.48313 -14.42936,-4.07933 -23.22434,-6.58803 -57.0199,-5.965 -34.79542,0.64147 -44.35727,3.36852 -55.520615,5.88202 -7.412717,1.66903 -7.214249,5.71884 -4.439435,8.92066 2.662534,3.07227 6.6687,1.6606 19.37336,0.52941 12.80517,-1.1401 27.22887,-2.41583 40.81504,-2.41583 z m -46.69524,-20.33607 8.15392,-6.74397 -8.48947,-3.10893 c -10.875301,-3.98267 -17.334844,-2.7425 -18.604689,3.57199 -2.764145,13.74504 6.286645,16.74644 18.940239,6.28091 z m 109.82227,0.59506 c 0.9702,-2.4212 1.49948,-5.21779 1.49948,-8.34958 0,-5.13237 -1.2078,-5.50919 -12.24198,-3.81949 -6.73308,1.03104 -12.89384,2.4989 -13.69056,3.26189 -1.87995,1.8003 15.00328,13.57745 19.3473,13.70833 1.82697,0.0549 4.11555,-2.37994 5.08576,-4.80115 z m -48.07321,-4.75201 10.00312,-5.10153 -9.13227,-4.52244 c -5.02273,-2.48732 -10.03777,-6.19521 -15.76214,-5.77009 -6.98932,0.51906 -22.72009,11.19411 -22.72009,11.19411 5.01515,2.81881 15.4222,7.57167 23.24909,9.30919 2.39756,-0.004 8.86061,-2.30338 14.36229,-5.10924 z M 116.98808,209.3385 c 24.62362,-4.07723 40.15339,-4.64463 72.37562,0.41261 20.55347,4.72492 28.4725,6.58144 29.39282,3.56834 1.77505,-5.81137 1.17423,-7.86727 -9.0009,-12.49115 -9.72602,-2.07207 -30.15664,-7.01095 -56.73996,-7.29204 -25.91884,0.62637 -74.372466,4.95504 -70.271003,17.04959 2.397395,7.06949 12.054208,1.68231 34.243423,-1.24735 z M 86.45451,192.56859 c 2.053915,-3.67521 1.581399,-7.66366 -2.962816,-10.46373 -3.792814,-2.33707 -8.764034,-1.64871 -11.943186,2.68444 -3.470909,4.73081 -0.176334,11.45644 5.053161,12.42455 4.02734,0.74558 8.260159,-1.79537 9.852841,-4.64526 z m 142.90545,-0.75639 c 0.97517,-2.43362 -0.39953,-6.7862 -1.88052,-8.20447 -4.21816,-4.03947 -13.30457,-1.14941 -14.46068,4.5994 -1.97156,9.80389 12.52803,13.12107 16.3412,3.60507 z m -107.56495,-9.81201 c 0,-2.91281 -2.96729,-6.4488 -7.21051,-6.48512 -7.23134,0.55942 -9.35094,9.49474 -4.2449,13.33489 3.64269,2.73959 11.45541,-0.67495 11.45541,-6.84977 z m 71.27535,1.61099 c 2.93666,-8.72244 -7.46569,-10.87284 -11.53763,-6.9508 -4.01285,3.86511 -2.52461,7.72562 0.0618,10.26593 3.08975,3.03464 10.38139,2.89844 11.47577,-3.31513 z m -32.09643,-2.97498 c 1.04346,-8.2577 -2.00772,-13.45067 -13.55597,-11.43459 -8.1805,1.77434 -7.13943,12.9325 -2.58253,16.15639 4.30894,3.04847 15.2375,2.40847 16.1385,-4.7218 z m -53.9741,-11.59805 c 11.03275,-2.33154 20.3405,-2.84882 22.45898,-3.34337 8.95876,-2.09129 3.23865,-29.11836 -7.62643,-45.67651 C 110.48914,102.73139 99.020403,94.978248 78.862545,95.665416 67.343414,96.058094 59.153357,102.49144 54.849116,109.19221 c -8.782656,13.67266 -5.838716,25.20341 9.743885,48.44552 8.621045,12.85864 13.737843,18.5082 18.794481,16.55543 2.451022,-0.94655 11.630229,-2.62283 23.612348,-5.15501 z M 83.189819,156.48372 c -4.36312,-3.25689 -10.68873,-9.40168 -13.501038,-14.45247 -9.821813,-17.63957 -4.653301,-34.99643 12.927747,-34.34459 3.814976,0.14144 14.289133,1.58828 21.665232,9.34053 10.17273,10.69149 13.9442,20.26501 15.2667,34.32362 1.05295,11.19328 -6.23775,9.02374 -9.54025,-3.38543 -4.7186,-17.73019 -26.957362,-34.39181 -30.968671,-21.70349 -1.619776,5.12358 -0.290473,13.22623 8.63895,22.96548 10.161685,11.08326 10.878451,18.72725 -4.48867,7.25635 z m 4.391134,-11.45498 c -3.514491,-2.55432 -2.794154,-4.94996 0.817743,-2.74044 2.847318,-0.0234 6.723192,-1.4221 6.849728,-4.21716 0.318339,-7.03188 6.460156,-4.85967 6.863206,2.78303 0.72063,13.66457 -6.872293,9.74059 -14.530677,4.17457 z m 142.519097,20.66128 c 21.60326,-23.56249 25.8393,-52.45824 9.49511,-64.76999 -18.21665,-13.722228 -52.96136,0.58278 -62.65032,24.4784 -15.25391,37.62031 -9.95251,40.90485 11.75106,43.75497 10.67557,1.4019 21.45133,2.99827 23.8489,4.29843 6.40008,1.86738 7.43933,3.27156 17.55525,-7.76181 z m -20.46138,-6.06244 c 0,-1.34324 1.96164,-4.00134 4.3592,-5.90684 6.769,-5.3798 6.63563,-11.08505 -2.90615,-5.56606 -2.53234,1.46472 -8.60258,5.80005 -8.85233,-6.3328 -0.17205,-8.35899 2.46945,-8.40486 6.03031,-3.72486 5.98522,7.86632 15.23639,4.62055 15.09102,-6.71446 -0.30336,-23.65543 -21.69719,-5.27898 -28.60825,16.81096 -1.90883,6.1013 -4.49421,11.09328 -5.74526,11.09328 -4.80853,0 -5.44676,-5.63595 -2.25314,-19.89651 2.31477,-10.33623 6.17522,-17.53615 12.80841,-23.88837 10.44072,-9.99846 19.74533,-11.48618 29.7725,-4.76038 12.56846,8.43038 6.23192,33.90778 -5.87048,44.32093 -12.04475,10.36355 -13.82583,7.64983 -13.82583,4.56511 z m -52.75291,-6.28325 c 1.77715,-6.50789 -5.74011,-12.24786 -10.58865,-7.60471 -2.03594,1.94969 -2.98587,6.48322 -0.71686,10.54331 3.77893,6.76189 8.99925,5.50706 11.30551,-2.9386 z m 0.3688,-21.73142 c 5.80653,-7.68671 3.17714,-12.46873 -0.50757,-16.01033 -8.9199,-8.57343 -21.90575,5.28173 -13.8337,14.59593 4.47096,5.15899 8.67834,6.83744 14.34127,1.4144 z M 46.910604,110.01256 c 0.8313,-2.68362 -3.835858,-7.88362 -6.542167,-7.88362 -2.695832,0 -6.423791,3.87669 -6.423791,7.2952 0,6.78236 10.493976,8.56853 12.965958,0.58842 z m 219.800256,0.28346 c 2.35924,-4.77459 -1.8747,-9.76832 -5.17227,-9.91066 -8.75424,-0.37786 -10.24372,8.2711 -6.27,12.07653 2.8258,2.7061 10.16651,3.2176 11.44227,-2.16587 z M 165.55037,91.999214 c 1.23785,-14.057131 -4.79116,-19.485512 -13.82529,-19.735045 -7.218,0.0062 -10.22728,1.682924 -12.86417,7.869466 -2.55305,5.727247 0.86204,6.961467 7.90118,2.465924 4.80718,-3.070106 8.09172,-0.615525 9.47186,2.828731 2.88248,7.193398 -4.75195,12.242747 -10.60281,6.670069 -4.67096,-4.448872 -8.65674,-4.097 -7.32673,2.44172 1.08489,5.333715 6.91422,8.756471 14.56015,8.522201 6.01644,-0.18434 11.89633,-4.447496 12.68581,-11.063066 z m -62.37615,-6.188857 c 0.69134,-4.640495 -3.702819,-7.231523 -7.948815,-7.231523 -5.97313,0 -7.31526,5.933519 -4.342855,10.539244 3.04803,4.722903 11.3303,3.145281 12.29167,-3.307721 z m -34.248945,1.848876 c 2.76552,-6.473757 -1.801323,-13.432928 -7.86346,-13.322451 -9.040987,0.164767 -11.542246,8.041103 -8.19038,14.353202 2.733039,5.146744 13.593937,4.727597 16.05384,-1.030751 z M 213.86729,83.895369 c 0,-3.710712 -3.52442,-6.065133 -7.39926,-6.065133 -3.87485,0 -6.60578,2.853486 -6.60578,6.564197 0,3.710712 2.99545,7.063262 6.87028,7.063262 3.87484,0 7.13476,-3.851615 7.13476,-7.562326 z m 32.57853,5.196968 c 3.44332,-4.329844 2.27868,-12.797826 -3.68103,-15.020043 -6.47071,-2.41975 -14.43054,3.634443 -11.88842,12.136129 1.51433,5.064344 11.49422,8.008376 15.56945,2.883914 z M 156.91767,59.497933 c 10.63524,8.430258 13.08601,-0.622697 5.87083,-6.450234 -5.94598,-4.80242 -6.55714,-5.780345 -1.78904,-9.119195 2.77594,-1.943833 4.55858,-5.023627 5.04716,-6.706225 1.587,-5.465435 -4.74323,-7.28431 -11.40658,0.306809 -3.0805,2.783032 -4.22476,2.922 -5.80512,1.262798 -1.57514,-1.653722 -1.85085,-2.140245 -6.21812,-5.475053 -6.0556,-4.623978 -10.7374,2.335573 -2.95542,8.743434 7.04686,5.802562 3.10871,8.079362 -1.2203,11.540084 -7.28514,7.605869 -2.55223,13.535538 6.35265,6.263649 5.34448,-5.979364 6.91402,-5.980488 12.12387,-0.366067 z"
     id="path854"
     inkscape:connector-curvature="0"
     sodipodi:nodetypes="scssscsssscccccccsssscccscccssccsssssscsssccscccccssscccssccscssssssscssccsccssccsscscsssssscssssssscssssssssscssccsssssscssscccccsscscssccscccccssssccsscsssssssssscsscccsccssccccc" />
</svg>
