<?xml version="1.0" encoding="UTF-8" standalone="no"?>
<svg
   xmlns:dc="http://purl.org/dc/elements/1.1/"
   xmlns:cc="http://creativecommons.org/ns#"
   xmlns:rdf="http://www.w3.org/1999/02/22-rdf-syntax-ns#"
   xmlns:svg="http://www.w3.org/2000/svg"
   xmlns="http://www.w3.org/2000/svg"
   xmlns:sodipodi="http://sodipodi.sourceforge.net/DTD/sodipodi-0.dtd"
   xmlns:inkscape="http://www.inkscape.org/namespaces/inkscape"
   version="1.0"
   width="300.000000pt"
   height="300.000000pt"
   viewBox="0 0 300.000000 300.000000"
   preserveAspectRatio="xMidYMid meet"
   id="svg2"
   inkscape:version="0.92.2 (5c3e80d, 2017-08-06)"
   sodipodi:docname="bn.svg">
  <defs
     id="defs12">
    <filter
       style="color-interpolation-filters:sRGB;"
       inkscape:label="Drawing"
       id="filter18775">
      <feGaussianBlur
         in="SourceGraphic"
         stdDeviation="5.99659"
         result="blur1"
         id="feGaussianBlur18721" />
      <feConvolveMatrix
         in="blur1"
         targetX="1"
         targetY="1"
         order="3 3"
         kernelMatrix="0 250 0 250 -1010 250 0 250 0 "
         result="convolve1"
         id="feConvolveMatrix18723" />
      <feComposite
         in="convolve1"
         in2="convolve1"
         k1="1"
         k2="1"
         k4="0.04"
         operator="arithmetic"
         result="composite1"
         id="feComposite18725" />
      <feColorMatrix
         in="composite1"
         values="0 0 0 0 0 0 0 0 0 0 0 0 0 0 0 -0.2125 -0.7154 -0.0721 1 0 "
         result="color1"
         id="feColorMatrix18727" />
      <feGaussianBlur
         stdDeviation="0.61"
         result="blur2"
         id="feGaussianBlur18729" />
      <feColorMatrix
         values="1 0 0 0 0 0 1 0 0 0 0 0 1 0 0 0 0 0 2.7 -1 "
         result="color2"
         id="feColorMatrix18731" />
      <feFlood
         flood-color="rgb(255,255,255)"
         result="flood1"
         id="feFlood18733" />
      <feBlend
         in2="color2"
         mode="multiply"
         result="blend1"
         id="feBlend18735" />
      <feComponentTransfer
         in="blend1"
         result="component1"
         id="feComponentTransfer18743">
        <feFuncR
           type="discrete"
           tableValues="0 1 1 1"
           id="feFuncR18737" />
        <feFuncG
           type="discrete"
           tableValues="0 1 1 1"
           id="feFuncG18739" />
        <feFuncB
           type="discrete"
           tableValues="0 1 1 1"
           id="feFuncB18741" />
      </feComponentTransfer>
      <feGaussianBlur
         stdDeviation="0.61"
         result="blur3"
         id="feGaussianBlur18745" />
      <feColorMatrix
         in="blur3"
         values="0 0 0 0 0 0 0 0 0 0 0 0 0 0 0 -0.2125 -0.7154 -0.0721 1 0 "
         result="color3"
         id="feColorMatrix18747" />
      <feColorMatrix
         values="1 0 0 0 0 0 1 0 0 0 0 0 1 0 0 0 0 0 1.9 -0.5 "
         result="color4"
         id="feColorMatrix18749" />
      <feFlood
         flood-color="rgb(0,0,0)"
         result="flood2"
         id="feFlood18751" />
      <feComposite
         in="flood2"
         in2="color4"
         operator="in"
         result="composite2"
         id="feComposite18753" />
      <feComposite
         in="composite2"
         in2="composite2"
         operator="arithmetic"
         k2="1"
         result="composite3"
         id="feComposite18755" />
      <feOffset
         dx="0"
         dy="0"
         result="offset1"
         id="feOffset18757" />
      <feFlood
         in="color4"
         flood-color="rgb(66,66,66)"
         result="flood3"
         id="feFlood18759" />
      <feComposite
         in="flood3"
         in2="color4"
         operator="out"
         result="composite4"
         id="feComposite18761" />
      <feComposite
         in="composite4"
         in2="composite4"
         operator="arithmetic"
         k2="1"
         result="composite5"
         id="feComposite18763" />
      <feMerge
         result="merge1"
         id="feMerge18769">
        <feMergeNode
           in="composite5"
           id="feMergeNode18765" />
        <feMergeNode
           in="offset1"
           id="feMergeNode18767" />
      </feMerge>
      <feColorMatrix
         values="1 0 0 0 0 0 1 0 0 0 0 0 1 0 0 0 0 0 1.3 0 "
         result="color5"
         flood-opacity="0.56"
         id="feColorMatrix18771" />
      <feComposite
         in="color5"
         in2="SourceGraphic"
         operator="in"
         result="composite8"
         id="feComposite18773" />
    </filter>
  </defs>
  <sodipodi:namedview
     pagecolor="#ffffff"
     bordercolor="#666666"
     borderopacity="1"
     objecttolerance="10"
     gridtolerance="10"
     guidetolerance="10"
     inkscape:pageopacity="0"
     inkscape:pageshadow="2"
     inkscape:window-width="1720"
     inkscape:window-height="1002"
     id="namedview10"
     showgrid="false"
     inkscape:zoom="2.0596828"
     inkscape:cx="103.41714"
     inkscape:cy="207.50037"
     inkscape:window-x="6"
     inkscape:window-y="0"
     inkscape:window-maximized="0"
     inkscape:current-layer="svg2"
     inkscape:pagecheckerboard="true">
    <inkscape:grid
       type="xygrid"
       id="grid22745" />
  </sodipodi:namedview>
  <metadata
     id="metadata4">
Created by potrace 1.12, written by Peter Selinger 2001-2015
<rdf:RDF>
  <cc:Work
     rdf:about="">
    <dc:format>image/svg+xml</dc:format>
    <dc:type
       rdf:resource="http://purl.org/dc/dcmitype/StillImage" />
    <dc:title />
  </cc:Work>
</rdf:RDF>
</metadata>
  <g
     id="g847"
     style="filter:url(#filter18775)"
     transform="matrix(1.0405845,0,0,1.123766,-9.503782,-7.6511176)" />
  <path
     style="fill:#fffff8;fill-opacity:1;stroke-width:2.70247507"
     d="M 122.04883,7.1464844 C 113.6001,7.0581106 108.15999,15.882036 108.24805,23.595703 97.659397,20.811057 85.228724,29.374719 86.421875,40.808594 86.530233,47.94492 92.171562,53.77427 96.449219,58.265625 88.605614,63.703531 83.037923,71.874251 76.714844,78.951172 59.18019,101.09346 44.660813,125.42482 27.720056,147.99755 c -7.199303,11.28977 -14.933335,24.88149 -11.479822,38.68995 4.078935,11.73188 12.409115,23.45436 24.72461,27.20703 3.01109,0.82294 6.839193,-1.31303 9.136718,-0.38476 4.560568,10.32226 17.866971,11.26651 27.376954,8.46289 10.167803,-2.6945 18.169938,-12.47984 17.052734,-23.23047 0.01428,-5.15755 4.47808,-7.68808 8.71484,-9.20508 5.61561,-3.44135 10.98529,-8.65157 18.14453,-7.54297 5.50548,-0.28366 11.80931,-2.28426 16.33008,-3.91797 -15.17442,17.78362 -36.98094,28.38406 -51.712596,46.7311 -11.049293,13.26389 -20.697502,28.04506 -27.123338,44.0814 -2.489918,6.83546 -0.986286,16.64834 7.146484,18.6875 10.731521,3.17544 22.013656,0.5136 32.986034,1.72151 46.389576,0.27081 92.986346,1.49531 139.219046,-2.44026 2.12503,-1.03419 3.29934,-3.72851 5.30664,-1.0332 13.0212,8.71916 32.34205,-0.13629 35.88281,-15.00391 3.12189,-8.96622 0.62877,-18.90027 -3.41016,-26.91015 3.09042,-5.95363 8.43587,-12.01921 6.33594,-19.3125 -0.65874,-5.54274 -7.49222,-9.94879 -4.20703,-15.58008 3.31911,-7.87834 2.40037,-17.41486 -3.72461,-23.69922 -1.6069,-2.48618 2.02808,-5.50536 1.52539,-8.54492 0.89345,-7.10889 -2.51572,-14.11885 -6.66015,-19.41992 2.52192,-8.01088 2.51012,-18.57327 -5.52531,-23.49028 -2.63354,-1.43412 -3.53351,-4.09268 -2.01962,-6.60347 1.08535,-8.64238 -4.86507,-16.34133 -11.49414,-20.86329 -1.90887,-6.856474 -3.62093,-15.440949 -11.12695,-18.308589 -6.83353,-6.858489 -9.07218,-19.290585 -20.07226,-21.207032 -7.85964,-2.883822 -11.26306,-12.196079 -19.76172,-14.207031 -3.46061,-0.764032 -6.7733,-1.099505 -8.8086,-4.513672 -4.41972,-5.218229 -11.25561,-6.299878 -17.67332,-6.628708 -6.41033,-0.614309 -12.10709,-4.190145 -15.00308,-9.969949 C 148.58235,20.397838 137.37649,8.4733531 122.04883,7.1464844 Z"
     id="use843"
     inkscape:connector-curvature="0" />
  <path
     style="display:inline;fill:#000000;stroke-width:2.70247507"
     d="m 69.50068,276.3708 c -1.489356,-0.96595 3.792016,-11.81059 12.162768,-24.97476 11.672442,-18.35653 19.112922,-26.56115 35.252172,-38.87257 24.78069,-18.90335 35.97496,-31.00699 39.80374,-43.03721 4.93353,-15.50142 -0.62839,-24.03456 -10.54493,-11.32196 -2.81105,4.43083 -15.66359,11.20087 -24.70137,11.68755 -13.6878,0.73709 -12.02784,-0.0734 -15.22788,2.97409 -2.90657,2.76797 -6.17607,5.15462 -9.792847,6.55484 -3.961422,1.53368 -13.69253,7.23769 -13.723908,17.08673 -0.04001,12.55849 -4.712126,13.99638 -14.879232,14.35713 -10.855053,1.10551 -6.342764,-5.76161 -5.636672,-15.82899 0.249493,-3.55727 2.059184,-9.60495 4.697592,-14.08482 4.367822,-7.41631 -4.919757,-2.22705 -10.106474,7.91038 -6.140192,12.001 -10.418762,13.22801 -14.127088,13.22801 -3.508596,0 -12.742101,-11.75131 -15.63596,-19.8996 -2.135475,-6.01288 7.114772,-24.20079 23.518347,-46.24196 7.065895,-9.49429 14.630205,-19.98258 16.809578,-23.30732 13.567853,-20.698363 27.284085,-37.996605 34.237074,-43.178136 9.74806,-7.264481 10.16511,-13.602501 1.45838,-22.162976 -4.85761,-4.776007 -5.840544,-7.382142 -3.769359,-9.99399 3.662269,-4.618272 9.709939,-2.213863 20.101689,7.991945 l 6.97817,5.63513 1.31825,-5.840216 c -0.87824,-5.483199 0.76497,-4.866496 -2.59895,-12.352235 -6.90674,-9.776905 -5.83344,-15.30014 0.18867,-13.119928 6.50938,2.356619 16.81117,11.140203 23.97001,20.35866 4.71625,6.073125 7.17781,10.797616 18.44181,12.817575 10.20576,1.830185 13.66438,1.142923 15.90748,5.529372 1.64239,3.211757 5.53117,5.529371 9.27788,5.529371 3.9653,0 8.11738,2.662765 10.77752,6.911716 2.37996,3.801444 6.62749,6.561029 9.39581,6.911715 6.10435,0.773286 8.23783,4.167122 10.38459,9.429505 2.26406,5.549937 6.93221,10.078592 8.90763,10.871929 1.97541,0.793338 4.86892,1.974411 5.34517,9.797983 0.99639,4.74777 3.95552,9.08698 6.85327,10.0495 4.54937,2.81727 6.0928,4.1475 4.61931,11.66119 -1.20104,6.12443 1.30235,9.53413 5.22338,12.09689 4.30778,2.81555 5.76159,5.99554 3.41178,11.44068 -2.3498,5.44514 -1.77198,10.63953 3.42733,14.57992 3.41351,2.58701 3.42549,6.03071 1.71983,10.72591 -1.5494,4.26495 -4.31546,7.73652 0.44081,12.21748 3.61544,6.33911 7.26496,5.64363 2.24574,17.48008 -4.7284,11.15057 5.12192,13.63976 5.00128,20.05394 -0.0862,4.58553 -7.05732,8.25932 -7.10429,16.4013 -0.33511,6.24943 5.32798,9.36927 5.52457,17.01808 -0.21496,6.62325 -5.42367,14.23378 -8.86163,15.12646 -13.77201,0.34756 -12.51582,2.51437 -10.83539,-23.00554 1.07323,-16.29852 1.75659,-30.06786 0.81465,-46.85111 -0.29522,-12.87518 -0.913,-24.89671 -2.44535,-35.63508 -1.6208,-11.35827 -10.0467,-44.35886 -31.45227,-71.34163 -10.276,-12.953387 -33.63714,-28.735469 -43.87198,-27.063316 -5.13436,0.838845 -4.33461,1.876026 5.71084,7.406376 24.49833,13.487121 44.36658,40.7268 55.76052,84.62707 6.4769,24.95514 2.99501,107.63913 -0.1655,110.963 -5.85618,2.09818 -161.040476,2.73523 -164.20656,0.68184 z M 196.6038,177.0287 c 7.85757,-3.73081 10.80868,-6.45948 9.01558,-8.33608 -1.79311,-1.8766 -4.05925,-3.14001 -9.87195,0.0776 -3.96347,1.57708 -7.63175,3.40199 -12.97808,4.19857 -7.70777,0.0565 -13.48382,2.85017 -11.23764,6.6538 2.70826,4.58613 11.96748,3.62817 25.07209,-2.59393 z M 49.548644,168.61074 c 5.617219,-10.32877 3.46825,-15.83732 -3.575698,-9.16577 -4.839893,4.58402 -7.098801,17.74041 -3.039825,17.70459 1.089687,-0.009 4.066672,-3.85208 6.615523,-8.53882 z m 143.959336,-8.11369 c 9.38209,-5.63114 12.86591,-10.22668 13.86874,-13.79748 3.10164,-11.04413 -4.57961,-9.84013 -11.59287,0.13287 -5.09569,5.22126 -7.64383,6.60393 -13.81872,9.46912 -10.94202,5.07717 -13.40995,6.96132 -9.8106,10.7283 2.0551,2.89617 8.53433,-0.36797 21.35345,-6.53281 z m -8.87514,-13.99698 c 9.29457,-7.65158 15.26589,-20.97974 11.87242,-29.15815 -2.86587,-6.90689 -8.21316,-5.8278 -9.52745,7.8149 -0.78146,8.11195 -4.96959,13.49141 -10.01816,18.06323 -14.08075,12.03138 -4.09981,12.97194 7.67319,3.28002 z M 127.65012,97.465766 c 0.92291,-6.564254 -2.35962,-7.569139 -10.26366,-3.142033 -6.35623,3.560176 -6.56297,7.399287 -0.48674,9.038507 7.28473,1.96523 9.84227,0.56245 10.7504,-5.896474 z m -17.30708,-6.003994 c 2.48804,-3.041154 7.43707,-5.529371 10.99784,-5.529371 7.72827,0 11.10403,-4.264517 5.23999,-6.619553 -6.6974,-2.689723 -16.3476,1.105372 -20.76918,8.167815 -6.80421,10.868143 -3.48728,13.782297 4.53135,3.981109 z"
     id="path22811"
     inkscape:connector-curvature="0"
     sodipodi:nodetypes="cssscsccscssssssssssscccssssscsscccsczsccsscccscssssscccsccccccccccscsccssscssssssssss" />
</svg>
