<?xml version="1.0" encoding="UTF-8" standalone="no"?>
<svg
   xmlns:dc="http://purl.org/dc/elements/1.1/"
   xmlns:cc="http://creativecommons.org/ns#"
   xmlns:rdf="http://www.w3.org/1999/02/22-rdf-syntax-ns#"
   xmlns:svg="http://www.w3.org/2000/svg"
   xmlns="http://www.w3.org/2000/svg"
   xmlns:sodipodi="http://sodipodi.sourceforge.net/DTD/sodipodi-0.dtd"
   xmlns:inkscape="http://www.inkscape.org/namespaces/inkscape"
   version="1.0"
   width="300.000000pt"
   height="300.000000pt"
   viewBox="0 0 300.000000 300.000000"
   preserveAspectRatio="xMidYMid meet"
   id="svg2"
   inkscape:version="0.92.2 (5c3e80d, 2017-08-06)"
   sodipodi:docname="bp.svg">
  <defs
     id="defs12">
    <filter
       style="color-interpolation-filters:sRGB;"
       inkscape:label="Drawing"
       id="filter18775">
      <feGaussianBlur
         in="SourceGraphic"
         stdDeviation="5.99659"
         result="blur1"
         id="feGaussianBlur18721" />
      <feConvolveMatrix
         in="blur1"
         targetX="1"
         targetY="1"
         order="3 3"
         kernelMatrix="0 250 0 250 -1010 250 0 250 0 "
         result="convolve1"
         id="feConvolveMatrix18723" />
      <feComposite
         in="convolve1"
         in2="convolve1"
         k1="1"
         k2="1"
         k4="0.04"
         operator="arithmetic"
         result="composite1"
         id="feComposite18725" />
      <feColorMatrix
         in="composite1"
         values="0 0 0 0 0 0 0 0 0 0 0 0 0 0 0 -0.2125 -0.7154 -0.0721 1 0 "
         result="color1"
         id="feColorMatrix18727" />
      <feGaussianBlur
         stdDeviation="0.61"
         result="blur2"
         id="feGaussianBlur18729" />
      <feColorMatrix
         values="1 0 0 0 0 0 1 0 0 0 0 0 1 0 0 0 0 0 2.7 -1 "
         result="color2"
         id="feColorMatrix18731" />
      <feFlood
         flood-color="rgb(255,255,255)"
         result="flood1"
         id="feFlood18733" />
      <feBlend
         in2="color2"
         mode="multiply"
         result="blend1"
         id="feBlend18735" />
      <feComponentTransfer
         in="blend1"
         result="component1"
         id="feComponentTransfer18743">
        <feFuncR
           type="discrete"
           tableValues="0 1 1 1"
           id="feFuncR18737" />
        <feFuncG
           type="discrete"
           tableValues="0 1 1 1"
           id="feFuncG18739" />
        <feFuncB
           type="discrete"
           tableValues="0 1 1 1"
           id="feFuncB18741" />
      </feComponentTransfer>
      <feGaussianBlur
         stdDeviation="0.61"
         result="blur3"
         id="feGaussianBlur18745" />
      <feColorMatrix
         in="blur3"
         values="0 0 0 0 0 0 0 0 0 0 0 0 0 0 0 -0.2125 -0.7154 -0.0721 1 0 "
         result="color3"
         id="feColorMatrix18747" />
      <feColorMatrix
         values="1 0 0 0 0 0 1 0 0 0 0 0 1 0 0 0 0 0 1.9 -0.5 "
         result="color4"
         id="feColorMatrix18749" />
      <feFlood
         flood-color="rgb(0,0,0)"
         result="flood2"
         id="feFlood18751" />
      <feComposite
         in="flood2"
         in2="color4"
         operator="in"
         result="composite2"
         id="feComposite18753" />
      <feComposite
         in="composite2"
         in2="composite2"
         operator="arithmetic"
         k2="1"
         result="composite3"
         id="feComposite18755" />
      <feOffset
         dx="0"
         dy="0"
         result="offset1"
         id="feOffset18757" />
      <feFlood
         in="color4"
         flood-color="rgb(66,66,66)"
         result="flood3"
         id="feFlood18759" />
      <feComposite
         in="flood3"
         in2="color4"
         operator="out"
         result="composite4"
         id="feComposite18761" />
      <feComposite
         in="composite4"
         in2="composite4"
         operator="arithmetic"
         k2="1"
         result="composite5"
         id="feComposite18763" />
      <feMerge
         result="merge1"
         id="feMerge18769">
        <feMergeNode
           in="composite5"
           id="feMergeNode18765" />
        <feMergeNode
           in="offset1"
           id="feMergeNode18767" />
      </feMerge>
      <feColorMatrix
         values="1 0 0 0 0 0 1 0 0 0 0 0 1 0 0 0 0 0 1.3 0 "
         result="color5"
         flood-opacity="0.56"
         id="feColorMatrix18771" />
      <feComposite
         in="color5"
         in2="SourceGraphic"
         operator="in"
         result="composite8"
         id="feComposite18773" />
    </filter>
  </defs>
  <sodipodi:namedview
     pagecolor="#ffffff"
     bordercolor="#666666"
     borderopacity="1"
     objecttolerance="10"
     gridtolerance="10"
     guidetolerance="10"
     inkscape:pageopacity="0"
     inkscape:pageshadow="2"
     inkscape:window-width="1505"
     inkscape:window-height="1002"
     id="namedview10"
     showgrid="false"
     inkscape:zoom="2.0875"
     inkscape:cx="118.32335"
     inkscape:cy="200"
     inkscape:window-x="4"
     inkscape:window-y="0"
     inkscape:window-maximized="0"
     inkscape:current-layer="svg2"
     inkscape:pagecheckerboard="true">
    <inkscape:grid
       type="xygrid"
       id="grid22745" />
  </sodipodi:namedview>
  <metadata
     id="metadata4">
Created by potrace 1.12, written by Peter Selinger 2001-2015
<rdf:RDF>
  <cc:Work
     rdf:about="">
    <dc:format>image/svg+xml</dc:format>
    <dc:type
       rdf:resource="http://purl.org/dc/dcmitype/StillImage" />
    <dc:title />
  </cc:Work>
</rdf:RDF>
</metadata>
  <g
     id="g847"
     style="filter:url(#filter18775)"
     transform="matrix(1.0358044,0,0,1.0686092,-8.1442315,-2.2936263)" />
  <path
     style="fill:#ffffff;fill-opacity:1;stroke-width:2.62568498"
     d="m 151.09375,11.669922 c -23.58609,-0.47539 -44.38383,26.016553 -35.20898,48.582031 0.30543,2.464756 5.22899,5.15935 0.88671,6.246094 -15.22306,9.74 -34.368326,15.901884 -44.666011,31.753906 -4.798974,9.713557 3.335246,22.141037 14.142578,21.832027 6.754592,0.41563 13.530188,-1.04311 20.220703,-1.0996 -14.831701,16.6692 -22.633137,43.09656 -10.732909,63.50466 3.585974,6.11905 8.541159,11.34342 14.043459,15.77658 -18.118939,12.29998 -38.400877,25.9654 -45.027347,48.0879 -3.524789,11.23415 -5.562291,24.11188 -0.847656,35.24804 5.76886,8.5864 17.484969,5.37892 26.028362,5.97189 48.637901,0.67474 97.512511,2.41775 145.985311,-1.94259 8.91375,-4.21716 7.38476,-15.74866 6.98047,-23.80078 -1.35068,-25.95328 -20.84163,-47.01296 -42.18946,-59.65235 -2.04788,-1.803 -4.84773,-2.71002 -6.91796,-4.29882 10.21709,-7.54395 20.00896,-18.04137 20.26562,-31.50782 1.87779,-17.04039 -4.90508,-34.0772 -15.29297,-47.34375 10.7225,0.86527 23.59612,2.33454 32.29492,-5.3457 7.62339,-8.63973 3.0021,-23.514709 -7.54101,-27.398437 C 211.86773,77.926288 198.79774,71.873159 186.89844,64.007812 198.99577,40.392108 177.33068,9.349305 151.09375,11.669922 Z"
     id="use851"
     inkscape:connector-curvature="0" />
  <path
     style="fill:#000000;stroke-width:2.62568498"
     d="m 73.643402,264.90065 c 0,-20.27875 11.541733,-36.00411 37.249888,-52.62784 21.03816,-13.60395 18.27404,-14.31308 2.03221,-27.48188 -10.79205,-8.75015 -12.19367,-21.9837 -9.72715,-35.16705 0.97332,-5.20234 5.03433,-14.02105 12.49769,-23.0135 7.84044,-9.4468 18.94354,-18.32328 17.25445,-19.37002 -1.53659,-0.95224 -18.76145,-0.48731 -29.83182,0.0255 -18.475614,0.8559 -20.297802,1.70373 -20.297802,-2.96675 0,-3.68281 7.231494,-8.7924 25.732892,-19.382464 14.05877,-8.047136 24.73132,-13.662215 25.39431,-16.753678 0.88044,-2.78078 -0.69498,-3.612351 -3.9288,-7.416663 -3.77312,-4.887027 -3.9332,-7.587473 -3.9332,-13.234422 0,-20.254909 27.3827,-31.446382 43.2075,-17.659167 8.94104,7.789802 12.01603,24.008446 5.39781,30.787394 -2.5512,2.613155 -4.2325,5.061699 -3.05583,7.445781 0.81782,1.326852 12.73301,8.775231 26.4782,16.551954 13.74518,7.776724 24.99125,15.494505 24.99125,17.150595 0,6.87639 -5.85718,6.30059 -20.54945,5.31233 -14.37315,-0.9668 -25.41551,-1.07175 -30.16201,-0.51456 1.75015,4.01513 10.95096,13.00883 15.09536,18.46432 9.09236,9.17108 12.20515,18.5254 13.26431,24.27137 3.84914,20.88158 -0.0419,26.9281 -9.50321,34.90655 -16.69853,13.4892 -18.59337,13.84214 2.53576,27.86745 19.96424,12.65714 37.18563,28.69619 37.18564,53.48539 v 9.23414 c 0,0 -20.19663,1.4717 -78.664,1.52868 -58.467368,0.057 -78.663998,-1.35883 -78.663998,-1.35883 z"
     id="path22743"
     inkscape:connector-curvature="0"
     sodipodi:nodetypes="ssssscsssccssscsssccsccsczcs" />
</svg>
