<?xml version="1.0" encoding="UTF-8" standalone="no"?>
<svg
   xmlns:dc="http://purl.org/dc/elements/1.1/"
   xmlns:cc="http://creativecommons.org/ns#"
   xmlns:rdf="http://www.w3.org/1999/02/22-rdf-syntax-ns#"
   xmlns:svg="http://www.w3.org/2000/svg"
   xmlns="http://www.w3.org/2000/svg"
   xmlns:sodipodi="http://sodipodi.sourceforge.net/DTD/sodipodi-0.dtd"
   xmlns:inkscape="http://www.inkscape.org/namespaces/inkscape"
   version="1.0"
   width="300.000000pt"
   height="300.000000pt"
   viewBox="0 0 300.000000 300.000000"
   preserveAspectRatio="xMidYMid meet"
   id="svg2"
   inkscape:version="0.92.2 (5c3e80d, 2017-08-06)"
   sodipodi:docname="bq.svg">
  <defs
     id="defs12">
    <filter
       style="color-interpolation-filters:sRGB;"
       inkscape:label="Drawing"
       id="filter18775">
      <feGaussianBlur
         in="SourceGraphic"
         stdDeviation="5.99659"
         result="blur1"
         id="feGaussianBlur18721" />
      <feConvolveMatrix
         in="blur1"
         targetX="1"
         targetY="1"
         order="3 3"
         kernelMatrix="0 250 0 250 -1010 250 0 250 0 "
         result="convolve1"
         id="feConvolveMatrix18723" />
      <feComposite
         in="convolve1"
         in2="convolve1"
         k1="1"
         k2="1"
         k4="0.04"
         operator="arithmetic"
         result="composite1"
         id="feComposite18725" />
      <feColorMatrix
         in="composite1"
         values="0 0 0 0 0 0 0 0 0 0 0 0 0 0 0 -0.2125 -0.7154 -0.0721 1 0 "
         result="color1"
         id="feColorMatrix18727" />
      <feGaussianBlur
         stdDeviation="0.61"
         result="blur2"
         id="feGaussianBlur18729" />
      <feColorMatrix
         values="1 0 0 0 0 0 1 0 0 0 0 0 1 0 0 0 0 0 2.7 -1 "
         result="color2"
         id="feColorMatrix18731" />
      <feFlood
         flood-color="rgb(255,255,255)"
         result="flood1"
         id="feFlood18733" />
      <feBlend
         in2="color2"
         mode="multiply"
         result="blend1"
         id="feBlend18735" />
      <feComponentTransfer
         in="blend1"
         result="component1"
         id="feComponentTransfer18743">
        <feFuncR
           type="discrete"
           tableValues="0 1 1 1"
           id="feFuncR18737" />
        <feFuncG
           type="discrete"
           tableValues="0 1 1 1"
           id="feFuncG18739" />
        <feFuncB
           type="discrete"
           tableValues="0 1 1 1"
           id="feFuncB18741" />
      </feComponentTransfer>
      <feGaussianBlur
         stdDeviation="0.61"
         result="blur3"
         id="feGaussianBlur18745" />
      <feColorMatrix
         in="blur3"
         values="0 0 0 0 0 0 0 0 0 0 0 0 0 0 0 -0.2125 -0.7154 -0.0721 1 0 "
         result="color3"
         id="feColorMatrix18747" />
      <feColorMatrix
         values="1 0 0 0 0 0 1 0 0 0 0 0 1 0 0 0 0 0 1.9 -0.5 "
         result="color4"
         id="feColorMatrix18749" />
      <feFlood
         flood-color="rgb(0,0,0)"
         result="flood2"
         id="feFlood18751" />
      <feComposite
         in="flood2"
         in2="color4"
         operator="in"
         result="composite2"
         id="feComposite18753" />
      <feComposite
         in="composite2"
         in2="composite2"
         operator="arithmetic"
         k2="1"
         result="composite3"
         id="feComposite18755" />
      <feOffset
         dx="0"
         dy="0"
         result="offset1"
         id="feOffset18757" />
      <feFlood
         in="color4"
         flood-color="rgb(66,66,66)"
         result="flood3"
         id="feFlood18759" />
      <feComposite
         in="flood3"
         in2="color4"
         operator="out"
         result="composite4"
         id="feComposite18761" />
      <feComposite
         in="composite4"
         in2="composite4"
         operator="arithmetic"
         k2="1"
         result="composite5"
         id="feComposite18763" />
      <feMerge
         result="merge1"
         id="feMerge18769">
        <feMergeNode
           in="composite5"
           id="feMergeNode18765" />
        <feMergeNode
           in="offset1"
           id="feMergeNode18767" />
      </feMerge>
      <feColorMatrix
         values="1 0 0 0 0 0 1 0 0 0 0 0 1 0 0 0 0 0 1.3 0 "
         result="color5"
         flood-opacity="0.56"
         id="feColorMatrix18771" />
      <feComposite
         in="color5"
         in2="SourceGraphic"
         operator="in"
         result="composite8"
         id="feComposite18773" />
    </filter>
  </defs>
  <sodipodi:namedview
     pagecolor="#ffffff"
     bordercolor="#666666"
     borderopacity="1"
     objecttolerance="10"
     gridtolerance="10"
     guidetolerance="10"
     inkscape:pageopacity="0"
     inkscape:pageshadow="2"
     inkscape:window-width="1577"
     inkscape:window-height="1002"
     id="namedview10"
     showgrid="false"
     inkscape:zoom="4.1282881"
     inkscape:cx="199.61546"
     inkscape:cy="118.21373"
     inkscape:window-x="6"
     inkscape:window-y="0"
     inkscape:window-maximized="0"
     inkscape:current-layer="svg2"
     inkscape:pagecheckerboard="true">
    <inkscape:grid
       type="xygrid"
       id="grid22745" />
  </sodipodi:namedview>
  <metadata
     id="metadata4">
Created by potrace 1.12, written by Peter Selinger 2001-2015
<rdf:RDF>
  <cc:Work
     rdf:about="">
    <dc:format>image/svg+xml</dc:format>
    <dc:type
       rdf:resource="http://purl.org/dc/dcmitype/StillImage" />
    <dc:title />
  </cc:Work>
</rdf:RDF>
</metadata>
  <g
     id="g847"
     style="display:inline;filter:url(#filter18775)"
     transform="matrix(1.1480907,0,0,1.2503329,-23.995861,-13.858311)" />
  <path
     style="display:inline;fill:#fffff9;fill-opacity:1;stroke-width:2.74024487"
     d="M 152.94141,7.5898438 C 133.25007,6.928634 119.91856,33.791575 132.95703,48.796875 c 6.03201,8.737463 1.00567,19.606075 1.66561,29.369705 -1.49914,18.861357 -2.8905,37.76384 -4.46248,56.59904 C 122.51195,115.9701 116.8031,96.270831 112.14453,76.611328 113.96992,68.682741 116.55994,60.139566 112.8418,52.296875 107.84886,38.962993 90.622684,32.561224 78.105469,39.367188 65.541249,45.05576 58.967202,61.451917 65.798828,73.833984 c 2.05031,5.565211 7.333201,9.009422 10.859375,13.142578 6.642691,17.007798 10.597314,35.661348 12.183594,53.560548 -9.443957,-11.14027 -18.419813,-22.73458 -26,-35.23828 0.583422,-10.32498 -0.984295,-22.972255 -11.330078,-28.179689 -15.44649,-9.623838 -40.18663,1.065966 -40.623047,20.162109 -1.6570067,12.72651 7.842026,24.76675 19.533203,28.80859 10.280752,11.65608 16.40251,26.21016 25.011719,39.03907 2.263891,3.3563 3.736308,7.09846 0.919922,10.42968 -7.522538,13.09694 -1.824211,28.04666 6.125,39.11719 5.437421,10.09188 6.757446,22.96728 0.554687,33.03906 -4.355307,12.58669 3.072284,27.75393 15.941406,31.5586 19.079961,8.16741 40.314401,7.61779 60.589841,9.7539 31.64148,1.54087 64.44244,0.14655 94.04688,-12.1582 10.533,-7.02895 10.34521,-21.38977 7.32473,-32.30029 -1.79678,-12.6711 -3.71003,-27.93427 6.0991,-38.13526 7.09967,-9.79211 10.55161,-25.36818 1.09765,-34.80664 -3.41953,-2.19392 2.42159,-5.06275 2.64649,-7.82812 7.57715,-12.46194 15.27901,-25.00073 23.29101,-37.1211 7.258,-5.1631 16.43134,-9.97492 18.51172,-19.63281 4.46279,-13.313846 -3.58452,-29.303705 -17.37305,-32.798826 -13.8417,-4.35363 -31.46347,4.75398 -32.67578,20.009765 -0.83624,8.338861 -1.5569,17.271081 -7.78125,23.583981 -5.07071,7.82215 -10.48759,15.02989 -16.375,22.25782 2.77018,-18.57463 5.24703,-37.33521 11.36719,-55.068363 6.54259,-5.201517 11.89461,-12.524665 11.85742,-21.208985 0.67639,-15.012914 -13.24687,-29.161386 -28.50781,-27.091796 -14.46184,1.059072 -26.74225,16.531775 -21.75391,30.828125 2.11093,6.699842 1.87959,13.763729 -0.70043,20.25368 -3.37829,14.863609 -7.64206,29.420409 -13.18629,43.593979 -1.70097,-23.84116 -4.19826,-47.881766 -5.47433,-71.646328 -0.69933,-8.625634 7.40455,-14.428543 7.50754,-22.953284 C 181.73501,21.247654 168.79215,6.5980097 152.94141,7.5898438 Z"
     id="use843"
     inkscape:connector-curvature="0"
     sodipodi:nodetypes="cccccccccccccccccccccccccccccccccccccccc" />
  <path
     style="display:inline;fill:#000000;stroke-width:2.74024487"
     d="M 107.73327,274.13827 C 76.01076,269.691 68.509451,262.5271 77.187398,244.9664 c 3.065345,-6.20302 3.190774,-10.32298 0.669687,-21.997 -1.706152,-7.90044 -5.18125,-16.82786 -7.789902,-19.77972 -7.952243,-14.66478 -6.042024,-19.78545 -0.289931,-26.43664 4.130736,-4.7764 2.698722,-6.24537 -12.348118,-31.66074 C 43.946438,122.31891 39.233568,114.84842 31.6013,112.90958 22.090342,110.49349 18.332167,92.912965 30.940518,86.96171 41.992787,81.744939 52.5,90 50.670542,100.17554 c -1.786714,9.93779 1.88879,13.45274 21.834909,39.16582 12.659538,16.31976 24.371761,29.17169 26.027165,28.55984 C 108.82743,166.77738 94.98838,92.01606 85.301385,76.862518 72.290985,71.567211 73.372451,55.751655 80.9931,51.450845 c 14.682843,-8.286448 27.26525,4.603284 19.06254,20.642035 -1.939599,3.792497 2.0299,16.805677 11.99952,48.08707 7.33698,23.02101 15.66911,38.03389 17.10341,39.5348 1.43431,1.50093 3.17172,3.95761 5.32884,3.09139 2.98721,-1.19954 6.70552,-8.78749 8.4073,-34.00509 2.95613,-43.804899 3.1206,-39.966748 4.27876,-56.980259 1.5444,-18.349504 0.26577,-24.31857 -1.84376,-26.297111 -7.09721,-6.656518 -6.83236,-17.912908 -0.77189,-22.581881 5.55968,-4.283185 13.0467,-4.198686 18.43996,-0.169019 5.95266,4.447631 5.98664,16.583375 -0.11527,22.75983 -5.49385,5.560966 -2.61896,20.411402 -1.11986,40.954327 2.84088,24.220453 2.86002,77.348513 12.55743,76.558763 7.27924,-0.59282 31.6284,-72.904149 30.84675,-90.762717 -6.28229,-13.135688 -1.05172,-24.660268 12.18185,-23.244955 13.3495,1.427712 17.84248,20.066664 2.40378,27.594689 -3.20276,4.386913 -4.75974,14.251817 -9.05406,36.086833 -9.05722,46.05269 -6.47656,54.40589 -2.79904,54.94774 4.30576,0.46964 21.98518,-22.66699 28.92263,-31.50798 14.4911,-21.44483 17.80918,-25.89104 16.97012,-33.97986 -1.33262,-12.846803 9.75949,-19.94235 18.86753,-15.969524 14.61457,6.374713 9.2363,22.918564 1.02046,25.900634 -8.32827,3.32902 -8.96087,6.45846 -24.88955,32.01273 -16.69485,26.7834 -18.01752,28.63249 -12.34551,32.57348 7.80327,5.4218 7.19804,15.06137 -1.635,26.04074 -6.37728,7.92695 -7.32425,11.43782 -7.05161,26.14428 0.1732,9.34325 1.17993,20.84372 2.23716,25.55663 2.6309,11.72792 -1.26725,14.40373 -28.26063,19.39883 -26.09816,4.82945 -60.90514,4.94092 -94.00165,0.30102 z m 46.34826,-17.20472 c 14.52918,-0.19846 27.57615,1.20669 40.79583,2.25642 17.28304,1.3724 24.1846,1.73474 23.1905,-3.04247 -0.80497,-3.86832 -2.02832,-6.37543 -6.02718,-7.18176 -38.48739,-7.76048 -57.4209,-6.38953 -93.12256,-4.28842 -22.45639,1.32159 -34.777017,7.02076 -30.871284,13.6339 1.315754,2.2278 7.97172,2.51575 22.416604,0.96977 11.29986,-1.20937 32.56827,-2.40844 43.61809,-2.34744 z m 61.34436,-28.25882 c 1.72445,-13.27302 -2.53399,-12.61292 -14.77265,-9.07671 l -10.55646,3.05015 8.84078,8.26612 c 10.28156,9.61325 15.07679,8.62504 16.48833,-2.23956 z m -110.46136,3.02005 c 9.18636,-9.8069 9.16294,-9.26161 -4.02794,-13.41672 -11.984456,-3.77509 -14.85574,0.95313 -11.969019,10.69646 2.540342,8.57422 4.885035,11.71537 15.996959,2.72026 z m 58.9033,-3.99314 9.48,-6.53983 -9.63118,-6.97547 c -9.57072,-6.93168 -9.09936,-8.11567 -19.39018,-1.2156 -5.036,3.86183 -11.03724,7.04365 -11.03462,8.16863 5.81955,4.18349 17.61329,13.08265 20.0726,12.37861 1.98252,0.14094 6.02008,-2.72351 10.50338,-5.81634 z m -39.75878,-26.44827 c 19.75014,-3.78544 38.40786,-3.68091 59.05842,-0.89443 24.39371,3.29158 23.81073,7.42613 32.93804,5.66128 3.50943,-0.67858 12.37381,-8.28431 0.18567,-12.20587 -12.91034,-4.15395 -30.25321,-10.15176 -62.80696,-9.55777 -36.13661,-0.1504 -54.295557,7.37014 -65.561518,10.42293 -5.010982,1.35785 -6.834771,5.30622 -3.812191,9.11736 1.956424,2.46683 7.722929,3.44034 7.722929,3.44034 3.924609,-0.2235 13.36301,-2.35895 32.27557,-5.98384 z"
     id="path887"
     inkscape:connector-curvature="0"
     sodipodi:nodetypes="cssccsssssccsssccscsssscscscccccsccsssssscsscscscsccssccsccssscccscssscscssc" />
</svg>
