<?xml version="1.0" encoding="UTF-8" standalone="no"?>
<svg
   xmlns:dc="http://purl.org/dc/elements/1.1/"
   xmlns:cc="http://creativecommons.org/ns#"
   xmlns:rdf="http://www.w3.org/1999/02/22-rdf-syntax-ns#"
   xmlns:svg="http://www.w3.org/2000/svg"
   xmlns="http://www.w3.org/2000/svg"
   xmlns:sodipodi="http://sodipodi.sourceforge.net/DTD/sodipodi-0.dtd"
   xmlns:inkscape="http://www.inkscape.org/namespaces/inkscape"
   version="1.0"
   width="300.000000pt"
   height="300.000000pt"
   viewBox="0 0 300.000000 300.000000"
   preserveAspectRatio="xMidYMid meet"
   id="svg2"
   inkscape:version="0.92.2 (5c3e80d, 2017-08-06)"
   sodipodi:docname="br.svg">
  <defs
     id="defs12">
    <filter
       style="color-interpolation-filters:sRGB;"
       inkscape:label="Drawing"
       id="filter18775">
      <feGaussianBlur
         in="SourceGraphic"
         stdDeviation="5.99659"
         result="blur1"
         id="feGaussianBlur18721" />
      <feConvolveMatrix
         in="blur1"
         targetX="1"
         targetY="1"
         order="3 3"
         kernelMatrix="0 250 0 250 -1010 250 0 250 0 "
         result="convolve1"
         id="feConvolveMatrix18723" />
      <feComposite
         in="convolve1"
         in2="convolve1"
         k1="1"
         k2="1"
         k4="0.04"
         operator="arithmetic"
         result="composite1"
         id="feComposite18725" />
      <feColorMatrix
         in="composite1"
         values="0 0 0 0 0 0 0 0 0 0 0 0 0 0 0 -0.2125 -0.7154 -0.0721 1 0 "
         result="color1"
         id="feColorMatrix18727" />
      <feGaussianBlur
         stdDeviation="0.61"
         result="blur2"
         id="feGaussianBlur18729" />
      <feColorMatrix
         values="1 0 0 0 0 0 1 0 0 0 0 0 1 0 0 0 0 0 2.7 -1 "
         result="color2"
         id="feColorMatrix18731" />
      <feFlood
         flood-color="rgb(255,255,255)"
         result="flood1"
         id="feFlood18733" />
      <feBlend
         in2="color2"
         mode="multiply"
         result="blend1"
         id="feBlend18735" />
      <feComponentTransfer
         in="blend1"
         result="component1"
         id="feComponentTransfer18743">
        <feFuncR
           type="discrete"
           tableValues="0 1 1 1"
           id="feFuncR18737" />
        <feFuncG
           type="discrete"
           tableValues="0 1 1 1"
           id="feFuncG18739" />
        <feFuncB
           type="discrete"
           tableValues="0 1 1 1"
           id="feFuncB18741" />
      </feComponentTransfer>
      <feGaussianBlur
         stdDeviation="0.61"
         result="blur3"
         id="feGaussianBlur18745" />
      <feColorMatrix
         in="blur3"
         values="0 0 0 0 0 0 0 0 0 0 0 0 0 0 0 -0.2125 -0.7154 -0.0721 1 0 "
         result="color3"
         id="feColorMatrix18747" />
      <feColorMatrix
         values="1 0 0 0 0 0 1 0 0 0 0 0 1 0 0 0 0 0 1.9 -0.5 "
         result="color4"
         id="feColorMatrix18749" />
      <feFlood
         flood-color="rgb(0,0,0)"
         result="flood2"
         id="feFlood18751" />
      <feComposite
         in="flood2"
         in2="color4"
         operator="in"
         result="composite2"
         id="feComposite18753" />
      <feComposite
         in="composite2"
         in2="composite2"
         operator="arithmetic"
         k2="1"
         result="composite3"
         id="feComposite18755" />
      <feOffset
         dx="0"
         dy="0"
         result="offset1"
         id="feOffset18757" />
      <feFlood
         in="color4"
         flood-color="rgb(66,66,66)"
         result="flood3"
         id="feFlood18759" />
      <feComposite
         in="flood3"
         in2="color4"
         operator="out"
         result="composite4"
         id="feComposite18761" />
      <feComposite
         in="composite4"
         in2="composite4"
         operator="arithmetic"
         k2="1"
         result="composite5"
         id="feComposite18763" />
      <feMerge
         result="merge1"
         id="feMerge18769">
        <feMergeNode
           in="composite5"
           id="feMergeNode18765" />
        <feMergeNode
           in="offset1"
           id="feMergeNode18767" />
      </feMerge>
      <feColorMatrix
         values="1 0 0 0 0 0 1 0 0 0 0 0 1 0 0 0 0 0 1.3 0 "
         result="color5"
         flood-opacity="0.56"
         id="feColorMatrix18771" />
      <feComposite
         in="color5"
         in2="SourceGraphic"
         operator="in"
         result="composite8"
         id="feComposite18773" />
    </filter>
  </defs>
  <sodipodi:namedview
     pagecolor="#ffffff"
     bordercolor="#666666"
     borderopacity="1"
     objecttolerance="10"
     gridtolerance="10"
     guidetolerance="10"
     inkscape:pageopacity="0"
     inkscape:pageshadow="2"
     inkscape:window-width="1785"
     inkscape:window-height="1002"
     id="namedview10"
     showgrid="false"
     inkscape:zoom="2.1056948"
     inkscape:cx="99.528031"
     inkscape:cy="204.89169"
     inkscape:window-x="11"
     inkscape:window-y="0"
     inkscape:window-maximized="0"
     inkscape:current-layer="svg2"
     inkscape:pagecheckerboard="true">
    <inkscape:grid
       type="xygrid"
       id="grid842" />
  </sodipodi:namedview>
  <metadata
     id="metadata4">
Created by potrace 1.12, written by Peter Selinger 2001-2015
<rdf:RDF>
  <cc:Work
     rdf:about="">
    <dc:format>image/svg+xml</dc:format>
    <dc:type
       rdf:resource="http://purl.org/dc/dcmitype/StillImage" />
    <dc:title />
  </cc:Work>
</rdf:RDF>
</metadata>
  <g
     id="g847"
     style="filter:url(#filter18775)"
     transform="matrix(1.0358044,0,0,1.0791577,-8.1442315,-2.3726535)" />
  <path
     style="fill:#ffffff;fill-opacity:1;stroke-width:2.58054876"
     d="m 152.46094,10.988281 c -12.05936,0.971391 -27.06256,-2.2716873 -36.17774,7.923828 -4.46313,6.077054 -3.60803,14.0416 -3.18945,21.107422 -2.5352,-0.229388 -8.08299,3.010349 -6.78516,-1.498047 0.63657,-8.238056 -1.22155,-19.661136 -10.705074,-21.83789 -13.10179,-3.102297 -25.970594,3.114131 -39.003907,3.705078 -4.180674,1.868477 -8.7441,1.926304 -12.529297,5.591797 0.806091,22.205722 -1.851869,47.769653 4.03711,53.675781 4.511186,6.946648 13.278252,9.043494 18.558594,15.177734 -0.37108,34.989286 0.860926,69.983726 -0.08594,104.968746 -11.794481,4.11035 -21.287241,16.73923 -18.791016,29.32422 -11.264356,5.17389 -18.805994,16.77122 -19.320312,29.13477 -0.126452,8.98259 1.184658,20.46175 4.263865,27.57243 7.71757,0.99309 14.207543,1.34803 21.375559,1.52939 35.923028,2.19976 71.947828,0.98498 107.913298,1.58325 35.58744,-0.12465 71.17425,-0.796 106.74025,-2.00148 4.03439,-17.57016 5.98547,-38.44676 -5.64649,-53.61914 -2.22323,-2.59441 -8.93938,-2.06442 -7.62304,-6.62695 -0.23432,-11.80465 -9.35918,-21.63906 -19.8125,-26.02734 -2.2843,-35.66413 -2.59825,-71.39852 -3.49219,-107.142583 10.14935,-6.387852 22.76001,-14.516804 23.10547,-27.916016 0.0473,-12.901033 1.04923,-26.328074 -1.99024,-38.861328 -5.95742,-9.479392 -18.75448,-7.244435 -28.11839,-9.756363 -9.51935,-1.904597 -22.33268,-4.184723 -29.20582,4.605972 -3.4731,5.207359 -2.65372,11.916933 -2.56836,17.677735 -2.38346,-0.301614 -7.90194,1.76062 -6.19141,-2.591797 1.03512,-9.538435 -2.36656,-21.470038 -12.69531,-24.236328 -7.11801,-2.392857 -14.73408,-0.97797 -22.0625,-1.462891 z"
     id="use843"
     inkscape:connector-curvature="0"
     sodipodi:nodetypes="cccccccccccccccccccccccccccc" />
  <path
     style="fill:#000000;stroke-width:2.58054876"
     d="m 42.186582,274.81483 c -2.961919,-2.99523 -1.856146,-23.05051 1.496925,-27.14955 1.764233,-2.15674 6.458416,-5.95989 10.431517,-8.45145 5.955174,-3.73453 6.952104,-5.78113 5.676639,-11.65361 -1.692263,-7.79149 3.090894,-13.87856 13.402661,-17.05632 L 78.96818,208.72457 78.811377,148.56522 78.654575,88.405869 67.905206,80.523489 C 53.820521,70.195364 56.723658,74.827519 56.406257,55.630463 56.21032,43.779808 56.184343,37.65828 56.210053,32.603034 c 13.201476,-1.999738 35.310264,-6.330144 37.21809,-4.400859 0.732538,0.740775 0.804269,7.741031 0.804269,13.925831 0,10.655881 -1.460092,12.312191 7.377698,11.245088 4.02912,-0.486488 10.96311,-0.856748 15.39695,-1.621888 9.48693,-1.637143 8.01925,2.331656 8.01925,-14.075008 -0.37605,-15.619859 -2.48236,-13.543845 24.58716,-14.703688 29.11079,-0.296207 25.20401,0.835407 25.34709,13.19078 0.20714,17.888728 -3.18138,13.625858 17.42739,15.254119 13.07908,0.210594 13.33065,3.923409 13.06684,-10.297664 0,-13.582506 -1.1665,-14.538332 4.61185,-13.954754 1.85387,0.187233 9.32791,0.902416 18.53318,2.449956 l 14.19697,2.386717 0.74372,20.045255 c -0.75584,20.200213 3.12745,15.166179 -10.95499,26.783415 l -12.57624,8.671391 1.41985,60.137545 c 0.78093,33.07565 2.24635,60.43411 3.25649,60.79659 1.01015,0.36247 5.58965,2.97276 10.17665,5.80065 6.77187,4.17485 8.34002,6.79734 8.34002,13.94749 0,7.24687 1.3025,9.35146 7.357,11.88753 6.54742,2.74252 7.52067,4.68531 8.84435,17.65477 0.81804,8.01521 0.25998,14.89284 -0.43342,17.52706 C 198.75,277.5 79.004862,277.70781 42.186562,274.81483 Z M 245.76844,255.87599 c 0,-10.61629 -5.25687,-13.26506 -94.72863,-13.1403 -89.793561,0.1252 -95.167052,1.82513 -95.167052,13.36674 0,4.6786 30.543409,3.83553 94.947852,3.40146 65.36079,-0.44053 94.94783,1.34853 94.94783,-3.6279 z m -17.96309,-28.45117 c 1.21554,-8.96202 -12.70983,-8.66194 -25.39702,-9.44927 -41.26453,-2.56072 -93.01342,-0.33294 -119.280789,1.95693 -8.134506,1.52043 -9.291678,2.43515 -9.291678,5.94524 0,8.47969 11.822627,6.72646 79.095217,6.09097 56.48061,-0.53356 74.06848,1.39708 74.87427,-4.54387 z m -16.59713,-22.19147 c 0.1397,-7.52603 -5.21519,-5.33724 -20.12183,-7.03724 -7.80313,-0.82466 -11.27441,0.10831 -10.95838,-8.00177 0.47508,-12.19213 -1.94743,-12.29319 14.73254,-10.99913 14.32197,1.11113 16.09452,3.18568 15.98828,-2.5105 -0.0395,-2.11643 -1.1661,-3.5572 -4.73171,-4.2569 -3.56561,-0.69968 -4.03883,-0.0746 -3.97336,-11.27993 0.05,-8.5499 -0.26349,-10.57711 3.67373,-10.09563 4.81679,0.58903 4.59414,-2.72881 4.59414,-4.84251 0,-4.03283 -6.5493,-4.46003 -20.47811,-6.44427 -8.72282,-1.24263 -10.69838,0.29517 -10.39977,-9.21138 0.36767,-11.70532 -3.67976,-15.53235 17.92563,-11.68502 9.56503,1.70328 12.0956,3.18758 12.38286,0.57871 0.69027,-6.26892 -2.19669,-6.25573 -3.68276,-6.75667 -4.58981,-1.76489 -5.2691,1.06324 -5.43983,-9.20701 -0.2425,-7.691119 -0.14383,-12.529044 4.29924,-11.458964 10.07512,2.426517 8.99069,-6.136623 -7.96801,-8.903206 -37.31068,-6.086733 -77.18558,-2.8163 -101.133563,1.287943 -10.012749,1.716001 -8.92162,9.131397 -1.934767,7.888527 3.537376,-0.629253 4.102601,1.728538 4.250902,7.136307 0.342815,12.500763 -1.166966,11.630383 -5.502559,12.558543 -3.602226,0.77116 -3.594947,2.55807 -3.622191,4.66261 -0.04665,3.6038 0.774988,4.88491 13.749628,2.39979 18.40661,-1.91691 19.21739,-5.06049 19.73453,9.20718 0.47224,13.02841 -0.64315,10.97826 -13.94194,13.32366 -14.412876,2.54188 -18.783309,1.86302 -18.783309,7.4683 0,2.07242 0.850057,4.22049 4.839498,3.70012 5.710891,-0.74492 5.299181,0.71007 5.269511,6.99364 -0.057,12.07194 0.35534,11.64124 -5.098099,12.72469 -4.219841,0.83837 -4.473048,0.77 -4.396828,4.7543 0.09984,5.21913 2.601357,4.05838 13.075737,2.86218 18.41125,-2.1026 17.86174,-1.58828 17.97696,9.33489 0.10996,10.42408 -3.98272,8.51423 -15.50282,9.74827 -13.067634,1.39982 -15.352267,1.04844 -15.335828,5.24358 0.01954,7.22786 1.758636,4.84749 32.364578,3.33692 22.36597,-1.1039 48.33532,-1.13095 63.367,-0.43609 20.2296,0.93513 24.70712,1.8907 24.7809,-2.08394 z m -81.04099,-15.46819 c -0.49643,-12.01386 -1.55362,-12.09436 19.95106,-12.5413 25.55031,-0.17846 20.88042,0.96899 21.23158,12.66543 0.53803,10.00118 -1.2688,6.7649 -20.79965,7.84071 -16.46185,-0.58843 -20.99707,2.67974 -20.38299,-7.96484 z m -21.94844,-20.6636 c -0.77308,-2.03729 -1.0308,-7.00885 -0.57269,-11.04791 0.21307,-8.1314 -3.2604,-8.83452 17.93969,-10.64809 22.29712,-2.03741 19.9649,-0.63276 20.1025,11.19673 -0.42093,13.38744 1.6378,10.77593 -21.76725,12.39161 -10.871,0.75044 -14.61044,0.98487 -15.70225,-1.89234 z m 60.56492,1.09769 c -14.44876,-0.76924 -14.79358,0.28583 -14.91153,-11.09993 -0.0949,-13.78859 -0.16676,-13.40199 22.09943,-12.28702 17.2053,0.86156 19.01708,-0.18471 19.07774,12.6845 0.0552,11.7094 0.36786,11.47704 -6.24785,11.71741 -1.41139,-0.21079 -12.51404,-0.8785 -20.01779,-1.01496 z M 132.0807,138.0537 c -1.71163,-0.45605 -1.73871,-4.36434 -1.78936,-9.80809 -0.12411,-13.33932 -0.54172,-11.95576 19.74642,-13.03931 20.66071,0.52197 21.51863,-1.52074 21.0825,13.11171 0.12804,13.03906 0.86734,9.104 -21.02249,10.05044 -8.26436,0.0424 -16.29265,0.85762 -18.01707,-0.31475 z m -26.83945,-34.62523 c -0.57726,-15.593404 0.1319,-12.069389 19.1244,-14.809056 9.86524,-0.896432 16.94096,-1.45111 18.73276,-0.243933 1.62131,1.092321 1.53648,2.646064 1.53648,7.557247 0,8.094742 1.42037,10.706952 -6.28691,11.409142 -4.02052,0.36631 -12.60097,1.60751 -19.11429,2.1586 -15.51408,1.31265 -12.92934,1.28901 -13.99244,-6.072 z m 62.3835,4.4043 c -13.8036,-1.09474 -14.57934,1.16808 -14.64346,-10.519877 -0.38641,-12.802445 0.3537,-10.948111 21.05837,-9.554285 19.04338,1.320376 20.95226,1.756472 20.01369,12.858982 0.38728,9.01832 -0.30954,9.39266 -6.23873,8.81034 -2.44304,-0.23992 -11.72155,-0.76465 -20.18987,-1.59516 z M 125.3346,71.744889 c 15.58648,-1.249905 31.55753,-0.900882 44.90776,-0.06203 42.84694,2.692265 43.29852,7.855135 50.37771,2.734228 8.17257,-5.911836 -8.0313,-9.912697 -36.1935,-12.128517 -43.97508,-3.459991 -86.615243,0.874108 -105.270424,7.686421 -6.380851,2.330097 1.081404,9.915342 11.298331,6.427888 5.158098,-1.309845 19.293643,-3.408086 34.880123,-4.65799 z"
     id="path22710"
     inkscape:connector-curvature="0"
     sodipodi:nodetypes="csssscccsscssssccsccssccccsccscscccssssssscsssscssszsssssssccssssssscsssssssssscssscccccscccssccsscccsccccccssssccccccczcssccz" />
</svg>
