<?xml version="1.0" encoding="UTF-8" standalone="no"?>
<svg
   xmlns:dc="http://purl.org/dc/elements/1.1/"
   xmlns:cc="http://creativecommons.org/ns#"
   xmlns:rdf="http://www.w3.org/1999/02/22-rdf-syntax-ns#"
   xmlns:svg="http://www.w3.org/2000/svg"
   xmlns="http://www.w3.org/2000/svg"
   xmlns:sodipodi="http://sodipodi.sourceforge.net/DTD/sodipodi-0.dtd"
   xmlns:inkscape="http://www.inkscape.org/namespaces/inkscape"
   version="1.0"
   width="300.000000pt"
   height="300.000000pt"
   viewBox="0 0 300.000000 300.000000"
   preserveAspectRatio="xMidYMid meet"
   id="svg2"
   inkscape:version="0.92.2 (5c3e80d, 2017-08-06)"
   sodipodi:docname="wk.svg">
  <defs
     id="defs12">
    <filter
       style="color-interpolation-filters:sRGB;"
       inkscape:label="Drawing"
       id="filter18775">
      <feGaussianBlur
         in="SourceGraphic"
         stdDeviation="5.99659"
         result="blur1"
         id="feGaussianBlur18721" />
      <feConvolveMatrix
         in="blur1"
         targetX="1"
         targetY="1"
         order="3 3"
         kernelMatrix="0 250 0 250 -1010 250 0 250 0 "
         result="convolve1"
         id="feConvolveMatrix18723" />
      <feComposite
         in="convolve1"
         in2="convolve1"
         k1="1"
         k2="1"
         k4="0.04"
         operator="arithmetic"
         result="composite1"
         id="feComposite18725" />
      <feColorMatrix
         in="composite1"
         values="0 0 0 0 0 0 0 0 0 0 0 0 0 0 0 -0.2125 -0.7154 -0.0721 1 0 "
         result="color1"
         id="feColorMatrix18727" />
      <feGaussianBlur
         stdDeviation="0.61"
         result="blur2"
         id="feGaussianBlur18729" />
      <feColorMatrix
         values="1 0 0 0 0 0 1 0 0 0 0 0 1 0 0 0 0 0 2.7 -1 "
         result="color2"
         id="feColorMatrix18731" />
      <feFlood
         flood-color="rgb(255,255,255)"
         result="flood1"
         id="feFlood18733" />
      <feBlend
         in2="color2"
         mode="multiply"
         result="blend1"
         id="feBlend18735" />
      <feComponentTransfer
         in="blend1"
         result="component1"
         id="feComponentTransfer18743">
        <feFuncR
           type="discrete"
           tableValues="0 1 1 1"
           id="feFuncR18737" />
        <feFuncG
           type="discrete"
           tableValues="0 1 1 1"
           id="feFuncG18739" />
        <feFuncB
           type="discrete"
           tableValues="0 1 1 1"
           id="feFuncB18741" />
      </feComponentTransfer>
      <feGaussianBlur
         stdDeviation="0.61"
         result="blur3"
         id="feGaussianBlur18745" />
      <feColorMatrix
         in="blur3"
         values="0 0 0 0 0 0 0 0 0 0 0 0 0 0 0 -0.2125 -0.7154 -0.0721 1 0 "
         result="color3"
         id="feColorMatrix18747" />
      <feColorMatrix
         values="1 0 0 0 0 0 1 0 0 0 0 0 1 0 0 0 0 0 1.9 -0.5 "
         result="color4"
         id="feColorMatrix18749" />
      <feFlood
         flood-color="rgb(0,0,0)"
         result="flood2"
         id="feFlood18751" />
      <feComposite
         in="flood2"
         in2="color4"
         operator="in"
         result="composite2"
         id="feComposite18753" />
      <feComposite
         in="composite2"
         in2="composite2"
         operator="arithmetic"
         k2="1"
         result="composite3"
         id="feComposite18755" />
      <feOffset
         dx="0"
         dy="0"
         result="offset1"
         id="feOffset18757" />
      <feFlood
         in="color4"
         flood-color="rgb(66,66,66)"
         result="flood3"
         id="feFlood18759" />
      <feComposite
         in="flood3"
         in2="color4"
         operator="out"
         result="composite4"
         id="feComposite18761" />
      <feComposite
         in="composite4"
         in2="composite4"
         operator="arithmetic"
         k2="1"
         result="composite5"
         id="feComposite18763" />
      <feMerge
         result="merge1"
         id="feMerge18769">
        <feMergeNode
           in="composite5"
           id="feMergeNode18765" />
        <feMergeNode
           in="offset1"
           id="feMergeNode18767" />
      </feMerge>
      <feColorMatrix
         values="1 0 0 0 0 0 1 0 0 0 0 0 1 0 0 0 0 0 1.3 0 "
         result="color5"
         flood-opacity="0.56"
         id="feColorMatrix18771" />
      <feComposite
         in="color5"
         in2="SourceGraphic"
         operator="in"
         result="composite8"
         id="feComposite18773" />
    </filter>
  </defs>
  <sodipodi:namedview
     pagecolor="#ffffff"
     bordercolor="#666666"
     borderopacity="1"
     objecttolerance="10"
     gridtolerance="10"
     guidetolerance="10"
     inkscape:pageopacity="0"
     inkscape:pageshadow="2"
     inkscape:window-width="1591"
     inkscape:window-height="962"
     id="namedview10"
     showgrid="false"
     inkscape:zoom="2.0281288"
     inkscape:cx="187.82831"
     inkscape:cy="207.94273"
     inkscape:window-x="62"
     inkscape:window-y="16"
     inkscape:window-maximized="0"
     inkscape:current-layer="svg2"
     inkscape:pagecheckerboard="true">
    <inkscape:grid
       type="xygrid"
       id="grid842" />
  </sodipodi:namedview>
  <metadata
     id="metadata4">
Created by potrace 1.12, written by Peter Selinger 2001-2015
<rdf:RDF>
  <cc:Work
     rdf:about="">
    <dc:format>image/svg+xml</dc:format>
    <dc:type
       rdf:resource="http://purl.org/dc/dcmitype/StillImage" />
    <dc:title />
  </cc:Work>
</rdf:RDF>
</metadata>
  <g
     id="g847"
     style="filter:url(#filter18775)"
     transform="matrix(1.0134306,0,0,1.0149849,-4.4177076,-2.9521427)" />
  <path
     style="fill:#fffffa;fill-opacity:1;stroke-width:2.66396213"
     d="m 169.04297,11.876953 c -17.91032,-0.150402 -35.70292,-0.197818 -53.54102,0.285156 -0.6478,13.888297 -0.0956,27.851854 -0.71875,41.691407 C 87.458874,39.090863 49.385363,41.64685 28.005859,65.617188 11.225105,85.008875 10.458123,114.40337 21.837891,136.65234 c 7.301378,18.72103 18.362648,35.77562 30.55664,51.58399 1.563483,8.87617 1.646779,18.66031 7.6875,25.95508 3.742238,7.24901 4.834184,16.85206 -1.113281,23.27734 -6.062297,11.86651 0.535026,26.23602 10.865234,33.3125 20.241849,16.46247 47.695086,18.86332 72.751186,20.20562 28.84815,0.54068 58.33582,-3.13434 85.10038,-14.26226 14.03176,-7.40812 24.67604,-25.55056 17.48828,-41.08008 -2.41766,-4.18806 -7.02954,-8.64947 -4.11133,-13.81055 3.75205,-12.19673 9.67466,-23.65609 13.12305,-35.93554 7.20152,-14.4769 19.34756,-26.22827 24.08896,-41.99255 10.20062,-24.23326 12.06714,-54.498634 -3.8292,-76.778937 C 258.04003,45.023287 226.232,39.72268 201.36523,48.957031 c -6.1614,2.036712 -12.09683,4.716824 -17.80859,7.78711 -0.37478,-12.846179 -0.38075,-30.715502 -0.52942,-44.64285 -4.13054,-0.05719 -9.27579,-0.203686 -13.98425,-0.224338 z"
     id="use843"
     inkscape:connector-curvature="0"
     sodipodi:nodetypes="cccccccccccccccccccc" />
  <path
     style="fill:#000000;stroke-width:2.66396213"
     d="m 120.78258,277.28232 c -35.119682,-3.59343 -61.462704,-23.52261 -49.122345,-37.16238 3.851395,-4.25693 4.404713,-7.78347 2.917889,-18.59699 -1.009109,-7.33915 -3.528483,-14.74998 -5.598611,-16.46852 -2.070126,-1.71853 -3.763867,-7.58778 -3.763867,-13.04277 0,-6.61244 -1.818427,-11.56429 -5.455824,-14.85701 C 51.137517,169.34938 36.496308,143.03504 30.515299,125.72618 25.698252,111.78579 23.800771,104.75239 29.015929,87.862691 32.153764,77.700717 37.770288,72.658416 42.32634,68.526883 60,52.5 95.5764,53.421076 115.19223,68.386994 c 4.93471,3.764934 9.48357,6.333804 10.1086,5.708597 0.62503,-0.625205 1.25726,-7.640251 1.40494,-15.588991 0.14776,-7.948741 0.0875,-17.399718 0.55766,-22.92259 l 0.0203,-11.535656 23.40087,0.02348 h 21.07459 l 0.0407,21.980766 c 0.0605,32.6974 -0.83316,32.190455 15.07544,22.702129 20.11259,-11.995705 42.54777,-16.0427 61.25431,-7.546942 12.55289,5.701019 19.11214,12.824225 24.30582,30.086358 6.39786,21.264375 -4.00399,55.618905 -24.38645,80.542075 -4.91705,6.01246 -7.28164,13.87285 -7.28164,16.67339 0,2.80053 -4.81577,11.38311 -7.74572,19.40135 -6.36289,17.41303 -6.70087,24.85051 -1.33179,29.30769 5.56403,4.61902 4.98328,14.01113 -1.36556,22.08464 -6.6545,8.46218 -23.83098,14.20941 -53.16813,17.78999 -24.23112,2.95739 -29.15595,2.9739 -56.37369,0.1889 z m 78.27841,-13.86867 c 14.8422,-7.65297 -6.8697,-13.94655 -48.6105,-14.09059 -26.64285,-0.092 -35.10614,0.81664 -42.36075,4.54769 -11.406438,5.86632 -11.454708,5.86065 -10.430388,-1.22614 1.34841,-9.32895 19.212698,-13.45756 57.221838,-13.22452 38.30294,0.23485 51.50468,4.07474 51.50468,14.98078 0,7.76581 4.18023,8.63607 12.72528,2.64921 7.9392,-5.56239 8.34392,-11.26601 -1.92346,-17.96628 -22.98875,-15.00196 -91.27886,-14.47645 -114.9755,-5.9445 -9.354604,3.36811 -23.301136,8.01032 -23.301136,15.8121 0,8.30293 25.107206,16.02318 48.898936,17.54485 28.6018,1.82931 64.75863,0.26511 71.251,-3.0826 z M 99.824752,211.24138 c 0.0186,-3.54486 -12.231506,-4.70357 -14.083958,-1.33217 -0.603878,1.09904 -1.688193,2.69606 -0.333623,7.70103 3.213759,11.85722 5.829918,10.91265 9.280766,4.72934 2.815595,-4.27228 5.127165,-9.26647 5.136815,-11.0982 z m 118.297488,-0.23971 c -3.59832,-10.44576 -21.53067,-16.29089 -45.46512,-18.99249 -16.00588,-1.80666 -17.43227,0.31405 -13.31923,3.17447 14.20669,9.88005 13.93131,9.52532 10.25774,13.21404 -2.89049,2.90241 -4.69854,1.95488 -6.87346,-1.90083 -6.41462,-9.04819 -10.67447,-6.55761 -17.35739,-2.59147 -5.02364,2.98141 5.71426,10.12495 11.31656,6.80802 4.04887,-2.39719 6.32539,0.78838 3.71925,3.18336 -1.21632,3.17056 2.20314,4.22492 17.5763,5.41947 10.49752,0.81569 21.48365,2.31659 24.41359,3.33531 6.68407,2.64193 5.88452,1.16711 -2.66358,-4.91314 -8.7273,-7.38897 -7.60799,-12.13417 4.66127,-15.02678 7.8563,-1.85221 8.83769,4.23092 2.61848,5.98723 -3.89433,1.09975 -5.66788,2.14311 1.37691,6.42802 4.07612,2.47925 5.25091,5.01463 3.32948,6.51811 -3.59031,2.80935 0.30064,4.99623 4.42529,0.87042 3.38507,-3.38602 3.85141,-6.09247 1.98391,-11.51374 z m -71.37677,5.01192 c 0.19935,-1.91528 -3.12215,-1.94984 -6.78286,-3.67317 -9.79098,-4.60925 -10.69116,-8.41536 -0.44624,-12.88478 15.28135,-6.66659 15.43405,-10.19856 -3.50882,-7.6371 -22.71105,3.071 -47.011549,10.15039 -38.828838,10.21896 10.125178,0.0849 13.692558,5.52361 10.598388,11.30675 -1.43419,2.68055 -9.493613,12.44145 -8.614943,12.18096 30.080533,-8.91754 47.214873,-5.75988 47.583313,-9.51162 z M 95.846922,192.27484 c 7.324868,-2.73687 23.326758,-6.9186 35.443908,-8.05279 16.33696,-1.52917 25.93566,-3.19939 50.0093,0.76175 15.07625,2.48069 29.86209,6.61062 34.07312,8.78883 6.84584,3.54112 8.10477,3.51192 11.89144,-0.2758 3.71079,-3.71184 3.75223,-4.67235 0.33476,-7.75967 -9.04702,-8.173 -62.85748,-18.78101 -92.63322,-14.09157 -20.43158,3.21781 -52.065791,9.76946 -57.452215,14.98157 -2.598435,2.51435 -0.358408,10.62724 2.933672,10.62512 1.144709,-7.4e-4 8.074363,-2.24059 15.399235,-4.97744 z M 78.533591,170.5903 c 0,-2.76878 -3.57199,-8.01422 -6.932872,-12.49835 -10.683982,-14.25472 -17.784266,-26.94971 -18.651788,-43.60239 -0.419161,-8.04607 0.805712,-15.191599 9.415244,-22.752978 8.206044,-7.20702 19.644811,-7.777648 23.048921,-7.795536 5.811363,-0.03054 19.728334,3.246881 23.555954,4.264393 6.06842,1.613194 9.26696,3.134251 12.23877,4.785236 6.41653,3.564694 5.45157,-0.90075 4.78973,-5.286994 C 124.89006,80.363996 95.936232,69.472172 77.366619,69.409747 48.975784,69.314307 31.897788,96.093046 41.541113,125.58507 c 11.639431,35.5967 36.992478,66.44134 36.992478,45.00523 z M 244.24829,158.02298 c 28.55372,-43.11294 21.68952,-84.514156 -14.99957,-90.469644 -13.40292,-2.175602 -54.82592,13.57262 -54.82592,20.843751 0,5.99124 2.607,6.155851 15.06057,0.950958 5.25927,-2.198077 16.83164,-5.611334 26.04484,-5.611334 15.43545,0 19.19806,2.517808 25.25938,9.273981 4.0806,4.548387 7.84212,11.082318 5.69762,30.973708 -1.22037,11.3196 -9.30917,28.71769 -18.51457,37.0508 -6.31972,5.72087 -7.02914,9.74736 -2.51327,14.26451 4.20598,4.20716 5.11671,3.36982 18.79092,-17.27673 z m -137.98958,8.56195 c 7.19145,-2.18222 17.10905,-3.43538 21.97461,-3.96767 6.44648,-0.70525 10.09842,-0.43646 6.23564,-14.65384 l -2.28916,-5.32867 -0.27192,5.32867 c -0.25513,4.99948 -0.98922,6.53669 -3.81035,0.66608 -2.43461,-3.54781 -6.39834,-2.92039 -7.42716,1.1742 0.0477,8.54126 -1.67146,10.96425 -8.21381,-5.32867 -2.7417,-6.82788 -7.07239,-8.20493 -8.35986,-8.20493 -4.08856,0 -5.056668,3.3747 -3.03025,11.81682 0.93593,4.55922 4.06189,15.75605 0.16021,10.94918 -2.114142,-2.91039 -1.676518,-2.94134 -4.157838,-5.0644 -2.6948,-2.3057 -9.653436,-1.97827 -9.306002,8.16979 -0.687751,10.65479 1.103994,9.72093 18.4959,4.44344 z m 108.52479,-5.34927 c 0.3992,-7.69851 -3.60844,-13.51826 -10.03794,-4.66612 -4.5145,7.15671 -4.32193,2.24897 -3.67068,-3.4867 3.19431,-16.4443 -2.27788,-21.46852 -7.13911,-15.06295 -3.24024,5.91902 -4.08197,7.18838 -5.0178,12.4904 -2.1128,7.98111 -4.12165,7.28106 -4.71246,-1.64381 -0.45551,-2.61648 -7.87684,-6.11604 -9.42628,2.23865 -0.89774,4.84064 -4.14149,1.15928 -3.79924,-4.43428 0.45287,-7.40144 2.87675,-9.75024 7.51975,-9.80202 7.80966,-0.0871 7.27681,10.43449 10.16359,-1.2185 0.65617,-2.64876 1.1962,-6.35293 3.47405,-9.60577 6.13089,-6.47757 12.51072,-4.17002 14.4745,-0.0305 1.62135,3.24274 1.54582,5.86912 0.99427,10.39214 -0.71147,5.83445 -0.21804,10.73196 1.79609,7.37876 2.44818,-4.07583 11.55044,-1.78825 10.7095,7.08157 -1.36789,14.42786 3.73359,4.63247 8.50768,-2.65575 7.50662,-11.45976 11.45967,-29.87718 7.87979,-40.72739 -4.41656,-13.386059 -16.35728,-19.27566 -35.96613,-13.138174 -23.93061,7.490174 -28.14256,3.898975 -29.36788,33.070934 -0.59778,14.23178 -2.63637,25.12227 -3.33096,27.50544 -2.39357,8.21246 1.54744,7.19978 13.84511,9.72437 8.46117,1.73701 17.78119,3.66301 20.71113,4.28 13.66816,2.79408 11.74968,4.7163 12.39302,-7.69028 z M 84.424265,148.52053 c 1.098436,-4.59405 3.151017,-7.25489 5.64795,-5.83751 7.785167,3.5756 3.109449,-2.28597 3.109449,-6.77525 0,-4.39615 0.439293,-9.23628 1.959892,-10.93944 6.172164,-6.91317 15.366794,2.71148 18.035854,9.99249 5.29972,12.96364 5.20168,6.00825 6.41124,4.0506 1.30735,-2.11592 3.40182,-2.24027 6.82923,-0.40546 4.48587,2.40143 7.13228,3.39872 4.94355,-9.7285 C 126.2986,98.512401 123.26306,100.14382 94.867749,93.158493 69.910523,87.018944 57.241245,106.50055 65.342723,127.9809 c 5.770007,16.41569 16.664774,38.05923 17.864092,30.63986 0.473752,-2.93077 0.499054,-6.74317 1.21745,-10.10023 z m 76.743175,3.2069 c 0,0 3.15679,-17.67918 3.43215,-25.97727 l 0.50064,-16.07009 -14.36074,0.16426 -14.11507,-0.0814 1.29181,16.06743 c 2.14407,26.66776 6.26751,36.78692 13.88859,36.78692 5.27196,0 6.95948,-1.96279 9.36262,-10.88983 z m 4.5029,-58.007494 c 7.47393,-8.917357 4.61545,-13.562433 0.0958,-18.363798 -9.56192,-10.157915 -19.85235,-10.326619 -27.44926,-3.187699 -7.91145,7.434503 -10.26586,13.475346 -1.09538,23.368699 3.3958,4.083409 6.58055,6.741012 13.9739,7.036232 5.96442,-0.37611 11.23143,-4.983509 14.47495,-8.853434 z M 149.68017,93.26046 c -4.5892,-3.356643 -4.52416,-3.743236 1.3185,-7.836745 6.52504,-4.571599 10.60487,-3.816138 10.60487,1.9637 0,6.494472 -6.61739,9.753969 -11.92337,5.873045 z m -0.75912,-36.329961 c 0.93726,-2.443116 1.61221,-4.798723 -1.04682,-7.193706 -4.89164,-4.981037 -11.06561,-8.525311 3.46413,-7.014616 16.19053,-1.726302 11.1953,1.704141 5.55233,7.260298 -4.8368,4.762393 -0.36448,11.957885 5.91535,9.547416 3.06184,-1.175265 3.56615,-4.046928 2.19471,-12.497222 -0.97932,-6.034231 -2.70342,-11.957878 -3.83134,-13.163658 -3.45813,-3.696855 -21.51907,-4.290308 -19.88155,3.191877 0.69184,3.161166 -2.17421,8.517191 -4.56483,11.15954 -5.36624,5.931293 -1.23956,13.152096 5.63122,13.152096 2.67449,0 5.62954,-1.998912 6.56679,-4.442025 z"
     id="path18911"
     inkscape:connector-curvature="0"
     sodipodi:nodetypes="csscssscssccscccsssscssscscccsscsssssssccccccsscccsscsccsssssscssssssccsscscscccsssssssssssssssssssssssccsccssccscssccccccssssccsssssscscsccssccsssssccscccssccscccccscccccccssscssccccc" />
</svg>
