<?xml version="1.0" encoding="UTF-8" standalone="no"?>
<svg
   xmlns:dc="http://purl.org/dc/elements/1.1/"
   xmlns:cc="http://creativecommons.org/ns#"
   xmlns:rdf="http://www.w3.org/1999/02/22-rdf-syntax-ns#"
   xmlns:svg="http://www.w3.org/2000/svg"
   xmlns="http://www.w3.org/2000/svg"
   xmlns:sodipodi="http://sodipodi.sourceforge.net/DTD/sodipodi-0.dtd"
   xmlns:inkscape="http://www.inkscape.org/namespaces/inkscape"
   version="1.0"
   width="300.000000pt"
   height="300.000000pt"
   viewBox="0 0 300.000000 300.000000"
   preserveAspectRatio="xMidYMid meet"
   id="svg2"
   inkscape:version="0.92.2 (5c3e80d, 2017-08-06)"
   sodipodi:docname="wn.svg">
  <defs
     id="defs12">
    <filter
       style="color-interpolation-filters:sRGB;"
       inkscape:label="Drawing"
       id="filter18775">
      <feGaussianBlur
         in="SourceGraphic"
         stdDeviation="5.99659"
         result="blur1"
         id="feGaussianBlur18721" />
      <feConvolveMatrix
         in="blur1"
         targetX="1"
         targetY="1"
         order="3 3"
         kernelMatrix="0 250 0 250 -1010 250 0 250 0 "
         result="convolve1"
         id="feConvolveMatrix18723" />
      <feComposite
         in="convolve1"
         in2="convolve1"
         k1="1"
         k2="1"
         k4="0.04"
         operator="arithmetic"
         result="composite1"
         id="feComposite18725" />
      <feColorMatrix
         in="composite1"
         values="0 0 0 0 0 0 0 0 0 0 0 0 0 0 0 -0.2125 -0.7154 -0.0721 1 0 "
         result="color1"
         id="feColorMatrix18727" />
      <feGaussianBlur
         stdDeviation="0.61"
         result="blur2"
         id="feGaussianBlur18729" />
      <feColorMatrix
         values="1 0 0 0 0 0 1 0 0 0 0 0 1 0 0 0 0 0 2.7 -1 "
         result="color2"
         id="feColorMatrix18731" />
      <feFlood
         flood-color="rgb(255,255,255)"
         result="flood1"
         id="feFlood18733" />
      <feBlend
         in2="color2"
         mode="multiply"
         result="blend1"
         id="feBlend18735" />
      <feComponentTransfer
         in="blend1"
         result="component1"
         id="feComponentTransfer18743">
        <feFuncR
           type="discrete"
           tableValues="0 1 1 1"
           id="feFuncR18737" />
        <feFuncG
           type="discrete"
           tableValues="0 1 1 1"
           id="feFuncG18739" />
        <feFuncB
           type="discrete"
           tableValues="0 1 1 1"
           id="feFuncB18741" />
      </feComponentTransfer>
      <feGaussianBlur
         stdDeviation="0.61"
         result="blur3"
         id="feGaussianBlur18745" />
      <feColorMatrix
         in="blur3"
         values="0 0 0 0 0 0 0 0 0 0 0 0 0 0 0 -0.2125 -0.7154 -0.0721 1 0 "
         result="color3"
         id="feColorMatrix18747" />
      <feColorMatrix
         values="1 0 0 0 0 0 1 0 0 0 0 0 1 0 0 0 0 0 1.9 -0.5 "
         result="color4"
         id="feColorMatrix18749" />
      <feFlood
         flood-color="rgb(0,0,0)"
         result="flood2"
         id="feFlood18751" />
      <feComposite
         in="flood2"
         in2="color4"
         operator="in"
         result="composite2"
         id="feComposite18753" />
      <feComposite
         in="composite2"
         in2="composite2"
         operator="arithmetic"
         k2="1"
         result="composite3"
         id="feComposite18755" />
      <feOffset
         dx="0"
         dy="0"
         result="offset1"
         id="feOffset18757" />
      <feFlood
         in="color4"
         flood-color="rgb(66,66,66)"
         result="flood3"
         id="feFlood18759" />
      <feComposite
         in="flood3"
         in2="color4"
         operator="out"
         result="composite4"
         id="feComposite18761" />
      <feComposite
         in="composite4"
         in2="composite4"
         operator="arithmetic"
         k2="1"
         result="composite5"
         id="feComposite18763" />
      <feMerge
         result="merge1"
         id="feMerge18769">
        <feMergeNode
           in="composite5"
           id="feMergeNode18765" />
        <feMergeNode
           in="offset1"
           id="feMergeNode18767" />
      </feMerge>
      <feColorMatrix
         values="1 0 0 0 0 0 1 0 0 0 0 0 1 0 0 0 0 0 1.3 0 "
         result="color5"
         flood-opacity="0.56"
         id="feColorMatrix18771" />
      <feComposite
         in="color5"
         in2="SourceGraphic"
         operator="in"
         result="composite8"
         id="feComposite18773" />
    </filter>
  </defs>
  <sodipodi:namedview
     pagecolor="#ffffff"
     bordercolor="#666666"
     borderopacity="1"
     objecttolerance="10"
     gridtolerance="10"
     guidetolerance="10"
     inkscape:pageopacity="0"
     inkscape:pageshadow="2"
     inkscape:window-width="1417"
     inkscape:window-height="1002"
     id="namedview10"
     showgrid="false"
     inkscape:zoom="2.0576879"
     inkscape:cx="185.36446"
     inkscape:cy="206.14534"
     inkscape:window-x="4"
     inkscape:window-y="9"
     inkscape:window-maximized="0"
     inkscape:current-layer="svg2"
     inkscape:pagecheckerboard="true" />
  <metadata
     id="metadata4">
Created by potrace 1.12, written by Peter Selinger 2001-2015
<rdf:RDF>
  <cc:Work
     rdf:about="">
    <dc:format>image/svg+xml</dc:format>
    <dc:type
       rdf:resource="http://purl.org/dc/dcmitype/StillImage" />
    <dc:title />
  </cc:Work>
</rdf:RDF>
</metadata>
  <g
     id="g847"
     style="filter:url(#filter18775)"
     transform="matrix(1.0383142,0,0,1.078436,-8.8289829,-6.7822313)" />
  <path
     style="fill:#ffffff;fill-opacity:1;stroke-width:2.68883371"
     d="M 109.30772,4.6989291 C 106.0181,7.6098087 108.5952,19.630428 109.7168,27.583984 102.04408,23.152475 89.999314,22.891801 85.396484,31.724609 80.64549,40.051433 84.956709,49.932469 89.054688,57.40625 77.078715,70.574922 67.801295,85.977438 56.988586,100.0975 c -9.842971,14.22781 -21.300313,27.30943 -32.076477,40.6857 -11.902612,18.01432 -14.9840972,43.8566 -1.916015,62.06446 4.29415,5.40117 12.07826,7.63608 18.310547,6.46093 2.526571,9.29837 12.870661,13.74569 21.83789,12.59375 13.680443,0.24694 28.67986,-9.07882 29.951172,-23.60742 3.878648,-9.08392 13.981707,-13.07854 22.153477,-17.43085 4.47523,-1.74273 11.04325,-3.82066 14.56332,-3.06329 -18.71581,24.48191 -46.307059,40.62953 -64.234375,65.74805 -6.946678,11.19907 -11.995978,26.25591 -5.697266,38.75195 7.015185,8.77159 19.475667,5.63585 29.192084,6.82925 57.358747,2.08165 114.758047,0.34535 172.134087,0.41294 7.99277,-8.8983 20.15917,-18.32769 18.30664,-31.81055 0.60607,-5.35496 -5.19082,-9.06495 -6.11914,-13.24023 7.01237,-7.63069 9.53915,-21.8715 0.27149,-28.7461 7.19338,-7.64633 6.92167,-21.55246 -1.66993,-28.05078 4.98424,-7.81562 3.09219,-18.77712 -3.24023,-25.27148 3.68392,-6.78238 2.59395,-15.48927 -2.80859,-20.92383 -4.41219,-4.10516 -0.77879,-10.40071 -3.52735,-15.33594 -1.08412,-3.88084 -4.52962,-6.74638 -7.06445,-9.19531 0.36588,-7.11059 -3.7892,-13.38685 -8.80469,-17.951172 C 244.51716,93.02596 241.20082,87.185913 235.16406,84.5 c -1.15067,-5.683035 -4.91833,-11.290448 -10.80664,-13.09375 -1.74374,-5.189078 -5.92899,-9.500834 -11.59375,-9.787109 -4.2239,-2.777652 -7.07533,-7.337001 -12.20898,-8.853516 -8.20143,-3.011827 -16.19617,-6.572018 -24.2573,-9.791644 C 166.2544,40.198277 155.00391,36.641471 149.64093,26.916575 144.56188,18.005414 116.39706,2.6884799 109.30772,4.6989291 Z"
     id="use842"
     inkscape:connector-curvature="0"
     sodipodi:nodetypes="cccccccccccccccccccccccccccccccc" />
  <path
     style="fill:#000000;stroke-width:2.68883371"
     d="m 69.547739,275.64066 c -0.805424,-1.35117 -0.694509,-6.58736 0.246481,-11.63595 1.317336,-7.06776 5.917406,-20.85542 36.4527,-44.77156 48.69094,-44.15977 52.9555,-66.52023 37.47847,-56.65145 -4.43365,2.59495 -13.28932,3.26299 -18.89443,3.26299 -13.95773,0 -43.567794,19.62346 -43.567794,28.87365 0,9.41043 -6.90527,14.93227 -18.673359,14.93227 -11.600882,0 -12.066378,-1.30728 -6.336925,-17.79617 2.092942,-6.0233 3.823243,-11.50952 3.845111,-12.19156 0.02192,-0.68209 -4.744468,3.60349 -10.591853,9.52346 -13.02409,13.18576 -18.530933,11.21459 -22.172349,-7.93657 -1.956775,-10.29122 -0.662464,-15.69578 2.151664,-22.78742 7.158763,-18.04018 19.322073,-26.29344 28.535844,-38.85226 10.01992,-13.65764 19.721908,-29.678359 40.060111,-54.480434 5.13229,-6.258737 5.30367,-6.455571 0.6008,-15.509687 -6.756015,-13.006899 -3.4501,-16.880937 8.28132,-9.704471 13.09733,8.012042 17.66127,5.550788 15.51477,-8.366837 l -1.69666,-11.00081 7.62313,4.087162 c 4.19271,2.247938 11.04608,8.47566 15.22973,13.839381 6.31336,8.094187 11.08603,10.727224 28.07185,15.486982 11.25589,3.154115 21.02073,11.236217 14.0003,6.89746 -7.58291,-4.686382 4.76714,1.897823 7.49486,2.245132 3.43509,0.437375 7.18797,1.713064 9.04449,6.267989 0.836,2.258742 4.78298,3.385184 7.00712,3.385184 2.22414,0 4.04389,1.848061 4.04389,4.106803 0,2.258742 3.22443,4.593927 5.27549,5.266593 3.14347,1.030924 4.45956,1.760179 4.75052,5.26702 0.41502,5.310957 2.42334,6.368987 5.22156,7.649134 2.85052,1.304073 5.31306,2.343231 5.74092,6.084659 0.22273,6.08489 2.80327,7.21666 5.09309,8.1277 2.53665,1.00923 3.85191,3.83924 3.85191,8.94841 0,5.00069 0.30745,5.75384 3.44551,8.17027 5.16571,2.13357 5.8109,6.41011 4.7515,9.87084 -0.98916,3.23131 -0.28916,7.83794 2.87496,10.51691 4.32332,3.66043 6.08716,6.04474 2.95022,11.62092 -1.64808,5.27036 -2.76422,6.4188 2.57796,12.57951 2.61572,3.87194 5.75866,4.86145 0.12809,12.92037 -3.20788,6.47348 -1.87961,7.04341 4.61319,13.48273 3.49227,5.52608 3.85807,5.43804 -1.63422,11.99704 -4.98018,4.28534 -4.42944,7.19219 0.60432,13.32254 5.36825,4.65524 6.04165,7.37213 0.72462,13.46374 -3.98968,4.5708 -7.18277,8.40091 -1.68856,14.76885 5.89501,6.83248 7.19851,11.64518 1.65985,17.32484 -3.10836,4.49209 -4.68092,4.95714 -8.51105,9.30825 l -88.27597,0.54307 c -54.08393,0.33272 -97.081811,-1.07893 -97.903083,-2.45668 z M 248.84353,228.80282 C 248.66421,164.23785 234.5383,118.78211 206.35369,92.074874 191.20525,77.720486 168.37092,64.543533 158.64465,64.543533 c -7.48506,0 -12.8147,-10.203931 -16.64591,-16.427216 -10.46233,-16.994662 -10.46353,-10.281131 -10.51826,1.932199 -0.0368,8.194983 -6.30737,6.963023 -10.8618,4.014055 -14.915,-7.919099 -10.81832,-3.96545 -9.7978,5.781657 0,5.74261 -3.29119,10.403804 -8.43455,15.743023 -5.519209,5.729375 -8.492617,10.087666 -11.71021,14.87276 -2.363655,3.515146 -18.391906,27.505629 -24.526428,35.375529 -9.789244,12.55849 -23.280504,24.25519 -27.559941,35.52163 -3.465941,11.23564 -3.565361,20.92934 1.995115,22.80915 1.313666,0.44409 8.828631,-5.34463 16.699924,-12.86388 7.871289,-7.51925 15.100143,-13.67134 16.064117,-13.67134 5.160358,0 4.407152,5.01034 -2.685345,17.86299 -8.553129,15.49954 -10.173765,25.94291 -4.025902,25.94291 2.259207,0 5.022639,-4.4796 6.665349,-10.80468 2.808225,-10.8128 8.171221,-16.58092 23.589988,-25.37202 10.746653,-6.12727 16.370343,-6.29859 9.712263,-21.75077 -2.93929,-6.82155 -2.52825,-11.40211 -1.18242,-14.92527 3.36549,-8.81034 2.88494,3.15359 5.281,9.2848 2.39926,5.94436 3.72338,8.30984 7.05519,12.46755 6.44508,8.04267 17.76374,6.90689 36.12275,-2.36769 15.66918,-7.91573 25.7655,-20.49425 28.85748,-34.49118 1.97911,-8.95924 0.49312,-17.209797 3.05889,-17.147645 12.24825,0.296696 2.96126,37.254025 -12.87575,52.377445 -6.13371,5.85734 -12.03863,5.22538 -13.93473,24.1788 -0.7485,7.48216 -7.53998,18.04891 -31.1539,40.40904 -34.466212,32.63625 -42.278461,38.73688 -44.203079,49.94109 0.0019,3.75917 8.136088,-1.76353 71.232839,-0.0461 l 94.08261,2.56084 z m -75.432,-58.46254 c 0,-2.11527 5.16719,-8.87323 12.52276,-18.2586 12.54841,-16.01126 12.71133,-22.22552 15.26064,-33.30845 1.75455,-7.62784 3.85954,-12.65356 6.94278,-7.48116 2.85814,4.79477 0.34133,17.77524 -5.96881,30.86158 -9.74857,17.07718 -35.44694,36.2779 -4.11949,17.33142 10.02858,-7.3714 11.41772,-13.16786 14.68347,-21.01907 l 3.12241,-11.13414 2.08811,11.82429 c 1.48415,8.40426 -6.11422,20.73023 -16.27522,27.633 -9.36651,6.36306 -28.25665,8.53404 -28.25665,3.55113 z M 49.575043,153.88331 c 0,-2.31225 7.129827,-12.53167 15.844061,-22.70984 8.714234,-10.17817 11.714192,-15.23201 15.844062,-22.03382 0.996563,-1.64134 1.188304,-3.52808 2.640677,-3.52808 5.5707,0 2.0773,7.61125 -13.191991,28.74206 -16.169023,22.37593 -21.136809,26.96598 -21.136809,19.52968 z m 57.896007,-52.62942 c 0.0562,-3.323286 -5.17183,-3.629606 -5.17183,-5.368026 0,-8.821527 24.45469,-17.532563 34.12612,-13.758465 2.84369,1.109698 4.97612,3.836503 -0.52704,6.62852 -5.31194,2.301155 -15.08822,1.14668 -11.40518,10.908625 -4.77262,7.552046 -17.12492,7.670746 -17.02207,1.589346 z"
     id="path18955"
     inkscape:connector-curvature="0"
     sodipodi:nodetypes="ssccsssscsssssssscssssscssscsccscsscccccccsccscssssscscssscssssssssscsssssscscsssscscccssssssssssccscsc" />
</svg>
