<?xml version="1.0" encoding="UTF-8" standalone="no"?>
<svg
   xmlns:dc="http://purl.org/dc/elements/1.1/"
   xmlns:cc="http://creativecommons.org/ns#"
   xmlns:rdf="http://www.w3.org/1999/02/22-rdf-syntax-ns#"
   xmlns:svg="http://www.w3.org/2000/svg"
   xmlns="http://www.w3.org/2000/svg"
   xmlns:sodipodi="http://sodipodi.sourceforge.net/DTD/sodipodi-0.dtd"
   xmlns:inkscape="http://www.inkscape.org/namespaces/inkscape"
   version="1.0"
   width="300.000000pt"
   height="300.000000pt"
   viewBox="0 0 300.000000 300.000000"
   preserveAspectRatio="xMidYMid meet"
   id="svg2"
   inkscape:version="0.92.2 (5c3e80d, 2017-08-06)"
   sodipodi:docname="wq.svg">
  <defs
     id="defs12">
    <filter
       style="color-interpolation-filters:sRGB;"
       inkscape:label="Drawing"
       id="filter18775">
      <feGaussianBlur
         in="SourceGraphic"
         stdDeviation="5.99659"
         result="blur1"
         id="feGaussianBlur18721" />
      <feConvolveMatrix
         in="blur1"
         targetX="1"
         targetY="1"
         order="3 3"
         kernelMatrix="0 250 0 250 -1010 250 0 250 0 "
         result="convolve1"
         id="feConvolveMatrix18723" />
      <feComposite
         in="convolve1"
         in2="convolve1"
         k1="1"
         k2="1"
         k4="0.04"
         operator="arithmetic"
         result="composite1"
         id="feComposite18725" />
      <feColorMatrix
         in="composite1"
         values="0 0 0 0 0 0 0 0 0 0 0 0 0 0 0 -0.2125 -0.7154 -0.0721 1 0 "
         result="color1"
         id="feColorMatrix18727" />
      <feGaussianBlur
         stdDeviation="0.61"
         result="blur2"
         id="feGaussianBlur18729" />
      <feColorMatrix
         values="1 0 0 0 0 0 1 0 0 0 0 0 1 0 0 0 0 0 2.7 -1 "
         result="color2"
         id="feColorMatrix18731" />
      <feFlood
         flood-color="rgb(255,255,255)"
         result="flood1"
         id="feFlood18733" />
      <feBlend
         in2="color2"
         mode="multiply"
         result="blend1"
         id="feBlend18735" />
      <feComponentTransfer
         in="blend1"
         result="component1"
         id="feComponentTransfer18743">
        <feFuncR
           type="discrete"
           tableValues="0 1 1 1"
           id="feFuncR18737" />
        <feFuncG
           type="discrete"
           tableValues="0 1 1 1"
           id="feFuncG18739" />
        <feFuncB
           type="discrete"
           tableValues="0 1 1 1"
           id="feFuncB18741" />
      </feComponentTransfer>
      <feGaussianBlur
         stdDeviation="0.61"
         result="blur3"
         id="feGaussianBlur18745" />
      <feColorMatrix
         in="blur3"
         values="0 0 0 0 0 0 0 0 0 0 0 0 0 0 0 -0.2125 -0.7154 -0.0721 1 0 "
         result="color3"
         id="feColorMatrix18747" />
      <feColorMatrix
         values="1 0 0 0 0 0 1 0 0 0 0 0 1 0 0 0 0 0 1.9 -0.5 "
         result="color4"
         id="feColorMatrix18749" />
      <feFlood
         flood-color="rgb(0,0,0)"
         result="flood2"
         id="feFlood18751" />
      <feComposite
         in="flood2"
         in2="color4"
         operator="in"
         result="composite2"
         id="feComposite18753" />
      <feComposite
         in="composite2"
         in2="composite2"
         operator="arithmetic"
         k2="1"
         result="composite3"
         id="feComposite18755" />
      <feOffset
         dx="0"
         dy="0"
         result="offset1"
         id="feOffset18757" />
      <feFlood
         in="color4"
         flood-color="rgb(66,66,66)"
         result="flood3"
         id="feFlood18759" />
      <feComposite
         in="flood3"
         in2="color4"
         operator="out"
         result="composite4"
         id="feComposite18761" />
      <feComposite
         in="composite4"
         in2="composite4"
         operator="arithmetic"
         k2="1"
         result="composite5"
         id="feComposite18763" />
      <feMerge
         result="merge1"
         id="feMerge18769">
        <feMergeNode
           in="composite5"
           id="feMergeNode18765" />
        <feMergeNode
           in="offset1"
           id="feMergeNode18767" />
      </feMerge>
      <feColorMatrix
         values="1 0 0 0 0 0 1 0 0 0 0 0 1 0 0 0 0 0 1.3 0 "
         result="color5"
         flood-opacity="0.56"
         id="feColorMatrix18771" />
      <feComposite
         in="color5"
         in2="SourceGraphic"
         operator="in"
         result="composite8"
         id="feComposite18773" />
    </filter>
  </defs>
  <sodipodi:namedview
     pagecolor="#ffffff"
     bordercolor="#666666"
     borderopacity="1"
     objecttolerance="10"
     gridtolerance="10"
     guidetolerance="10"
     inkscape:pageopacity="0"
     inkscape:pageshadow="2"
     inkscape:window-width="1379"
     inkscape:window-height="953"
     id="namedview10"
     showgrid="false"
     inkscape:zoom="1.9783034"
     inkscape:cx="187.30668"
     inkscape:cy="210.62656"
     inkscape:window-x="78"
     inkscape:window-y="24"
     inkscape:window-maximized="0"
     inkscape:current-layer="svg2"
     inkscape:pagecheckerboard="true">
    <inkscape:grid
       type="xygrid"
       id="grid842" />
  </sodipodi:namedview>
  <metadata
     id="metadata4">
Created by potrace 1.12, written by Peter Selinger 2001-2015
<rdf:RDF>
  <cc:Work
     rdf:about="">
    <dc:format>image/svg+xml</dc:format>
    <dc:type
       rdf:resource="http://purl.org/dc/dcmitype/StillImage" />
    <dc:title />
  </cc:Work>
</rdf:RDF>
</metadata>
  <g
     id="g847"
     style="filter:url(#filter18775)"
     transform="matrix(1.052428,0,0,1.0818779,-11.242011,-6.9612257)" />
  <path
     style="fill:#ffffff;fill-opacity:1;stroke-width:2.66872406"
     d="M 150.4043,7.7871094 C 128.57967,7.1625618 114.63627,36.304868 127.67578,53.402344 c 1.84707,2.805708 6.7024,4.972214 4.05883,8.843637 -2.96186,15.375666 -5.01186,30.929045 -6.08617,46.550899 -4.2721,-10.354158 -10.09342,-20.572709 -12,-31.605474 3.73303,-12.895936 0.42708,-29.218017 -12.31641,-35.84375 -12.963156,-7.553824 -31.786231,-2.529938 -37.951171,11.552735 -7.230476,13.559959 -2.001916,34.129933 13.820313,38.640625 3.587691,3.552828 0.536974,9.625144 1.948252,14.098784 0.399314,5.64344 0.992723,11.27027 1.555654,16.89926 C 73.562325,115.85452 63.757567,108.53037 64.746094,97.621094 64.151465,86.550496 56.953698,75.847027 45.839844,73.166016 29.079977,68.012717 8.0413622,81.088315 8.9921875,99.546875 8.6932829,113.92882 21.021247,126.6768 34.949219,128.41602 c 2.861538,6.68309 3.045205,14.29288 6.998047,20.58203 4.068873,9.49818 12.563063,17.5945 13.222656,28.18164 -1.86802,10.72348 -0.872014,22.43535 6.098269,31.24076 5.451444,9.42979 11.626606,21.60815 5.684934,32.3315 -4.257564,10.14326 -5.608928,24.63248 4.484375,31.79883 18.702202,13.56689 42.80168,14.94745 64.91992,17.79492 30.59975,2.13326 62.44111,-0.39545 90.64649,-13.2207 12.49295,-6.35078 15.68785,-19.33141 10.29934,-30.28844 -3.21268,-11.16494 -5.06806,-24.30542 3.70328,-34.83712 7.37354,-11.53449 12.67894,-23.84919 8.41925,-36.50139 1.0817,-12.10878 10.2721,-21.29835 14.00977,-32.57617 2.28095,-4.78772 3.38048,-10.75808 7.24609,-14.49024 12.43304,-3.57215 22.506,-15.39089 21.44336,-28.708984 -0.37016,-15.607476 -14.59173,-30.317191 -30.70312,-28.242187 -16.18764,0.787011 -29.04909,18.180179 -24.83594,33.867191 -1.29485,8.29875 -9.92405,12.53932 -14.53711,18.42773 1.20112,-9.91269 1.62939,-20.16338 3.67969,-29.847656 11.12357,-6.997961 19.57502,-20.621888 15.46093,-33.988281 C 237.3484,43.784505 217.85704,32.462572 202.375,40.197266 c -15.47454,6.584143 -22.06424,27.601521 -13.35352,41.861328 -1.2879,6.620162 -5.87963,12.097835 -7.40175,18.717356 -1.1067,1.99041 -3.01352,9.99596 -3.08653,4.91936 -1.47256,-15.870029 -3.60121,-31.718041 -7.34375,-47.22656 15.48011,-13.993668 9.31436,-43.832888 -11.04297,-49.5742188 -3.15896,-0.8981417 -6.46452,-1.2341113 -9.74218,-1.1074218 z"
     id="use843"
     inkscape:connector-curvature="0"
     sodipodi:nodetypes="ccccccccccccccccccccccccccccccccccccccc" />
  <path
     style="fill:#000000;stroke-width:2.66872406"
     d="M 125.84462,277.42349 C 99.966342,273.73384 78.226625,267.1054 75.850963,259.41532 c -0.801117,-2.59323 0.502535,-9.7454 2.896998,-15.8937 5.328929,-13.68313 3.133228,-21.70348 -6.928176,-40.99637 -4.821396,-9.2451 -6.883493,-8.95072 -4.59012,-23.35268 0.693466,-4.35484 3.54743,-6.57615 -8.137795,-23.68816 -4.81322,-7.04855 -8.855297,-18.0706 -10.587601,-23.51998 -2.474241,-7.78334 -1.061447,-14.77046 -13.559653,-16.12647 -11.269325,-2.536 -13.355773,-10.13574 -13.744456,-15.06323 -0.415672,-5.269646 1.656851,-13.149271 11.785063,-16.132824 8.222691,-2.422226 20.950125,2.865866 19.701972,15.824824 -1.115427,11.58092 2.260366,13.22874 22.190335,33.35405 C 90,146.25 97.5,161.25 94.681199,141.87241 93.821168,134.43358 92.099233,118.47123 91.392656,106.36374 90,82.5 89.430952,84.273017 81.462381,80.665953 75.112419,77.791571 73.073013,74.999788 72.443495,68.319816 71.027217,53.291402 85.390084,45.266073 96.735267,52.560015 c 4.091183,2.630264 6.556183,9.650373 6.312283,15.225763 -0.45463,10.392059 -7.069064,5.030452 3.90405,28.175484 1.49165,3.146274 7.9476,17.298858 13.48595,31.920508 5.53835,14.62165 8.69549,25.57702 12.19283,24.34528 3.24309,-3.63598 3.49176,-14.57447 4.21861,-27.61521 2.18535,-39.208224 4.48234,-48.935604 5.77557,-53.519421 4.07694,-22.675661 2.58092,-15.931403 -2.3314,-21.303564 -12.88073,-14.086502 -1.34245,-34.240059 16.6414,-29.246688 5.4625,1.516709 10.93442,8.338712 10.94526,15.246875 0.0135,8.564186 -2.91083,11.796532 -5.28745,13.915579 -4.70846,4.198166 -5.09283,-0.06839 -1.55475,20.708783 1.79174,8.383252 3.97447,12.185335 6.40445,47.313126 1.18084,17.0703 1.94283,29.45736 3.26871,33.19998 3.06814,3.13092 6.3292,-2.51599 9.17884,-10.84279 1.40134,-4.09477 13.30483,-38.32844 21.12803,-53.993558 1.20489,-2.412666 1.19272,-5.455825 -0.0271,-6.762578 -4.52901,-7.567171 -3.99604,-16.096271 -2.47716,-19.574078 2.46048,-5.085648 8.10006,-9.751503 14.71946,-9.751503 16.5671,0 23.06845,21.469335 8.84575,31.50575 -11.26302,7.947887 -7.89988,2.980418 -10.33826,26.570107 -3.97404,38.44627 -5.01989,43.26216 -2.51108,43.26216 1.38026,0 10.74597,-8.32886 20.8127,-18.50859 16.72368,-16.91142 19.42689,-19.52516 18.30313,-29.56213 -1.59889,-14.28066 6.50113,-19.687326 15.57742,-19.555049 10.39486,0.151494 16.56609,7.864443 16.01744,18.140729 -0.36901,6.91169 -5.54559,13.1528 -12.43,14.70481 -11.65189,2.62678 -7.99223,7.42105 -13.89906,18.9437 -5.06834,9.887 -10.63274,22.45324 -13.21086,27.0854 -3.52382,6.33132 -3.72836,11.75449 -2.66647,16.03415 2.91955,11.76653 0.092,15.33467 -6.28418,25.77645 -10.29177,16.85415 -12.47857,26.09086 -4.25066,50.16892 1.36556,3.99616 -0.77532,8.13103 -6.07601,11.69933 -15.70909,10.93125 -65.38166,15.41834 -95.27809,11.15575 z m 53.2385,-10.26412 c 28.36177,-3.63887 37.86308,-8.12124 36.55723,-12.93916 -2.08433,-7.6901 -16.18132,-13.22403 -64.33156,-13.24974 -44.25898,-0.0236 -61.084313,6.90798 -62.482264,13.12704 -2.180043,9.69836 47.634044,18.53041 90.256594,13.06186 z m -53.74944,-33.45804 c 17.53585,-1.48773 55.89213,-2.43087 74.86047,3.78277 10.18983,3.33799 12.82346,2.57498 10.28712,-5.45781 -1.42905,-2.70762 -2.95773,-6.09386 -9.68829,-11.45289 -12.84668,-10.22884 -27.13991,-7.62307 -35.04419,-3.88062 -4.9803,2.84938 -6.33163,5.11401 -8.22006,8.32437 -5.00977,8.75371 -6.36316,8.16238 -12.35048,-1.12131 -5.98732,-9.2837 -17.97169,-10.61706 -27.17063,-9.057 -13.0686,2.21635 -24.615918,12.43797 -25.003873,19.28032 -0.347311,6.1255 0.817709,6.85824 5.924039,5.23715 3.258224,-1.03438 19.027404,-5.02902 26.405894,-5.655 z m 11.13061,-28.27937 c 4.08857,-2.88932 9.83049,-8.71726 10.3532,-10.10831 3.52676,-9.38557 7.45164,-4.89873 9.45803,0.10746 5.87512,7.88405 13.85622,13.76988 30.81735,15.3622 10.60411,0.80326 28.57583,-5.51384 29.4178,-11.71625 -3.49288,-3.58855 -40.97777,-10.99839 -65.73833,-10.53815 -25.18183,0.0885 -62.155526,7.36933 -65.426932,10.73035 -0.810526,0.83273 1.065318,3.18013 3.694373,6.16478 6.502244,7.38173 29.312169,10.71929 47.424509,-0.002 z m -28.00954,-22.29452 c 22.35423,-4.00037 55.35189,-5.06054 80.54474,-0.81519 9.94712,2.00035 24.45546,4.91925 29.12474,6.57809 8.6369,3.06841 9.8396,0.91575 8.45232,-8.13367 -1.08599,-7.08408 0.65931,-12.96165 7.79168,-26.23961 5.05514,-9.41086 8.53463,-17.78518 7.7322,-18.60959 -0.80243,-0.82441 -9.59515,6.57108 -19.53938,16.43442 -18.25226,18.10379 -22.71294,20.71593 -24.85007,14.55205 -1.27087,-3.66538 1.71055,-41.60565 4.30446,-54.77687 1.55418,-7.89172 1.47701,-7.8545 -2.8035,1.35251 -2.4209,5.20719 -6.90276,17.17252 -9.95967,26.58964 -6.77311,20.8652 -16.24409,29.03832 -24.62246,21.24828 -4.17497,-3.88181 -5.27422,-10.07773 -6.69517,-37.73749 -1.90656,-37.112357 -4.32987,-52.591329 -7.58215,-43.883841 -2.05062,7.964118 -2.57035,23.876381 -3.93293,43.516701 -2.71312,39.10727 -6.04405,41.74677 -15.58063,41.1329 -5.05799,-0.32558 -8.50051,-4.46528 -17.35617,-26.52091 l -12.41853,-32.0187 3.62043,34.1252 c 3.80663,35.88028 0.66746,37.97552 -22.908715,14.48991 -23.186244,-23.09718 -24.733967,-21.95042 -7.848051,6.08287 6.523438,10.82994 5.109635,18.24514 3.852218,22.8679 -1.045748,6.56349 -0.20282,9.07646 10.609417,4.75712 5.633365,-1.54436 11.077493,-3.38333 20.065221,-4.99172 z M 42.104767,98.02513 c -0.87662,-2.347012 -3.408251,-3.490755 -5.625844,-3.490755 -4.249527,0 -6.323488,5.394991 -4.256862,8.769915 2.226497,3.636 7.027799,2.7598 8.369727,1.59079 1.341927,-1.16902 2.907294,-3.22869 1.512979,-6.86995 z m 227.308093,3.73946 c 0.87822,-4.19183 -1.51388,-7.454661 -5.08591,-7.489063 -4.404,-0.04241 -8.69063,4.197983 -4.64713,10.526163 2.25585,2.4463 8.66293,2.07061 9.73304,-3.0371 z m -51.2227,-31.920233 c 2.99141,-4.015782 0.17167,-9.465692 -4.81288,-9.465692 -3.30625,0 -5.94867,4.251049 -5.40149,6.813475 1.2153,5.691102 6.71183,7.354178 10.21437,2.652217 z M 92.909715,64.636711 c -0.46274,-3.347474 -3.136795,-4.601034 -5.308941,-4.601034 -2.172148,0 -4.81374,2.070845 -5.232608,5.424011 -0.403625,3.231141 2.266944,6.524411 5.369771,6.474301 3.370288,-0.05443 5.819315,-2.612989 5.171778,-7.297278 z M 157.36339,35.719244 c -0.1,-4.264105 -3.55816,-6.121685 -6.07769,-6.121685 -5.49827,0 -8.18289,6.89665 -4.20673,10.982422 4.17039,4.285354 9.84376,0.946167 10.28442,-4.860737 z"
     id="path22677"
     inkscape:connector-curvature="0"
     sodipodi:nodetypes="csssssscsssccssssssscscsssscscssccsssssssssccsssccssssssscssczssscscsccccssccscsscscscssscssscssssccscsszcsscsssssscsssccsc" />
</svg>
