<?xml version="1.0" encoding="UTF-8" standalone="no"?>
<svg
   xmlns:dc="http://purl.org/dc/elements/1.1/"
   xmlns:cc="http://creativecommons.org/ns#"
   xmlns:rdf="http://www.w3.org/1999/02/22-rdf-syntax-ns#"
   xmlns:svg="http://www.w3.org/2000/svg"
   xmlns="http://www.w3.org/2000/svg"
   xmlns:sodipodi="http://sodipodi.sourceforge.net/DTD/sodipodi-0.dtd"
   xmlns:inkscape="http://www.inkscape.org/namespaces/inkscape"
   version="1.0"
   width="300.000000pt"
   height="300.000000pt"
   viewBox="0 0 300.000000 300.000000"
   preserveAspectRatio="xMidYMid meet"
   id="svg2"
   inkscape:version="0.92.2 (5c3e80d, 2017-08-06)"
   sodipodi:docname="wr.svg">
  <defs
     id="defs12">
    <filter
       style="color-interpolation-filters:sRGB;"
       inkscape:label="Drawing"
       id="filter18775">
      <feGaussianBlur
         in="SourceGraphic"
         stdDeviation="5.99659"
         result="blur1"
         id="feGaussianBlur18721" />
      <feConvolveMatrix
         in="blur1"
         targetX="1"
         targetY="1"
         order="3 3"
         kernelMatrix="0 250 0 250 -1010 250 0 250 0 "
         result="convolve1"
         id="feConvolveMatrix18723" />
      <feComposite
         in="convolve1"
         in2="convolve1"
         k1="1"
         k2="1"
         k4="0.04"
         operator="arithmetic"
         result="composite1"
         id="feComposite18725" />
      <feColorMatrix
         in="composite1"
         values="0 0 0 0 0 0 0 0 0 0 0 0 0 0 0 -0.2125 -0.7154 -0.0721 1 0 "
         result="color1"
         id="feColorMatrix18727" />
      <feGaussianBlur
         stdDeviation="0.61"
         result="blur2"
         id="feGaussianBlur18729" />
      <feColorMatrix
         values="1 0 0 0 0 0 1 0 0 0 0 0 1 0 0 0 0 0 2.7 -1 "
         result="color2"
         id="feColorMatrix18731" />
      <feFlood
         flood-color="rgb(255,255,255)"
         result="flood1"
         id="feFlood18733" />
      <feBlend
         in2="color2"
         mode="multiply"
         result="blend1"
         id="feBlend18735" />
      <feComponentTransfer
         in="blend1"
         result="component1"
         id="feComponentTransfer18743">
        <feFuncR
           type="discrete"
           tableValues="0 1 1 1"
           id="feFuncR18737" />
        <feFuncG
           type="discrete"
           tableValues="0 1 1 1"
           id="feFuncG18739" />
        <feFuncB
           type="discrete"
           tableValues="0 1 1 1"
           id="feFuncB18741" />
      </feComponentTransfer>
      <feGaussianBlur
         stdDeviation="0.61"
         result="blur3"
         id="feGaussianBlur18745" />
      <feColorMatrix
         in="blur3"
         values="0 0 0 0 0 0 0 0 0 0 0 0 0 0 0 -0.2125 -0.7154 -0.0721 1 0 "
         result="color3"
         id="feColorMatrix18747" />
      <feColorMatrix
         values="1 0 0 0 0 0 1 0 0 0 0 0 1 0 0 0 0 0 1.9 -0.5 "
         result="color4"
         id="feColorMatrix18749" />
      <feFlood
         flood-color="rgb(0,0,0)"
         result="flood2"
         id="feFlood18751" />
      <feComposite
         in="flood2"
         in2="color4"
         operator="in"
         result="composite2"
         id="feComposite18753" />
      <feComposite
         in="composite2"
         in2="composite2"
         operator="arithmetic"
         k2="1"
         result="composite3"
         id="feComposite18755" />
      <feOffset
         dx="0"
         dy="0"
         result="offset1"
         id="feOffset18757" />
      <feFlood
         in="color4"
         flood-color="rgb(66,66,66)"
         result="flood3"
         id="feFlood18759" />
      <feComposite
         in="flood3"
         in2="color4"
         operator="out"
         result="composite4"
         id="feComposite18761" />
      <feComposite
         in="composite4"
         in2="composite4"
         operator="arithmetic"
         k2="1"
         result="composite5"
         id="feComposite18763" />
      <feMerge
         result="merge1"
         id="feMerge18769">
        <feMergeNode
           in="composite5"
           id="feMergeNode18765" />
        <feMergeNode
           in="offset1"
           id="feMergeNode18767" />
      </feMerge>
      <feColorMatrix
         values="1 0 0 0 0 0 1 0 0 0 0 0 1 0 0 0 0 0 1.3 0 "
         result="color5"
         flood-opacity="0.56"
         id="feColorMatrix18771" />
      <feComposite
         in="color5"
         in2="SourceGraphic"
         operator="in"
         result="composite8"
         id="feComposite18773" />
    </filter>
  </defs>
  <sodipodi:namedview
     pagecolor="#ffffff"
     bordercolor="#666666"
     borderopacity="1"
     objecttolerance="10"
     gridtolerance="10"
     guidetolerance="10"
     inkscape:pageopacity="0"
     inkscape:pageshadow="2"
     inkscape:window-width="1709"
     inkscape:window-height="900"
     id="namedview10"
     showgrid="false"
     inkscape:zoom="1.8927582"
     inkscape:cx="182.84631"
     inkscape:cy="206.36724"
     inkscape:window-x="-3"
     inkscape:window-y="52"
     inkscape:window-maximized="0"
     inkscape:current-layer="svg2"
     inkscape:pagecheckerboard="true">
    <inkscape:grid
       type="xygrid"
       id="grid842" />
  </sodipodi:namedview>
  <metadata
     id="metadata4">
Created by potrace 1.12, written by Peter Selinger 2001-2015
<rdf:RDF>
  <cc:Work
     rdf:about="">
    <dc:format>image/svg+xml</dc:format>
    <dc:type
       rdf:resource="http://purl.org/dc/dcmitype/StillImage" />
    <dc:title />
  </cc:Work>
</rdf:RDF>
</metadata>
  <g
     id="g847"
     style="filter:url(#filter18775)" />
  <path
     style="fill:#ffffff;fill-opacity:1;stroke-width:2.65008211"
     d="m 119.88477,11.050781 c -8.48799,-0.261845 -11.35776,9.732215 -10.5293,16.623047 -0.81852,2.780051 1.11952,7.523553 -1.08594,9.166016 -2.93347,1.188495 -0.71638,-3.850257 -1.625,-5.611328 C 106.29945,22.871564 100.30026,13.958417 91.125,14.384766 80.983035,14.038422 71.23067,17.902357 61.220703,17.847656 50.383188,19.80204 41.029376,29.99766 42.66846,41.396277 c 0.316707,11.561715 -1.482973,23.847305 2.724118,34.875207 3.264438,7.434393 10.710244,11.528629 16.703125,16.199219 5.283966,9.495487 1.883276,20.762367 3.431177,31.075177 0.563247,25.39964 0.74209,50.85495 0.279761,76.23146 -10.694011,1.20806 -18.859981,12.10974 -16.458985,22.72461 1.142954,2.99941 -0.60943,3.93939 -3.402344,3.98828 -9.63013,1.89834 -18.084417,11.10946 -15.96875,21.28907 0.463532,11.62296 -2.225959,25.23534 5.285157,35.19726 8.809115,8.23603 21.904293,4.03678 32.638792,5.65173 64.460679,2.27231 129.125839,3.14804 193.478399,-1.78063 10.59807,-3.02864 14.23964,-15.6041 12.35192,-25.4096 0.64459,-10.77956 2.45179,-25.24842 -7.9281,-32.47712 -3.44297,-2.25218 -7.56474,-3.12031 -11.59765,-3.55664 0.774,-10.04018 -3.17263,-22.56524 -14.3086,-24.83594 -2.71941,-1.33959 -8.45632,0.83667 -6.98392,-3.9082 0.0957,-34.35684 -1.39768,-68.91171 0.78471,-103.130863 6.64871,-7.155041 19.00368,-10.853935 20.17578,-21.96875 1.87399,-14.070075 1.67189,-34.735516 -0.83751,-43.022343 -5.41004,-9.280608 -17.52848,-9.567419 -27.31312,-11.471798 -9.23736,-1.840439 -20.57415,-5.498646 -27.87086,2.074219 -4.38724,4.413513 -4.94592,11.112174 -4.47851,16.994141 -1.47442,-0.0013 -5.06724,0.675487 -3.92383,-2.007813 -0.66139,-7.539483 -0.80618,-15.203496 -2.90625,-22.53125 -22.21646,-0.431714 -44.43759,-0.629322 -66.6582,-0.544922 z"
     id="use843"
     inkscape:connector-curvature="0"
     sodipodi:nodetypes="ccccccccccccccccccccccccccccccc" />
  <path
     style="fill:#000000;stroke-width:2.65008211"
     d="m 45.077742,275.46414 c -2.505584,-0.28985 -3.170611,-4.86826 -3.006112,-18.19233 -0.08564,-13.86683 -3.388269,-18.03811 9.958451,-19.26631 8.965271,-1.29928 9.237331,-1.73766 9.237331,-13.43125 0,-11.60451 0.290127,-12.03971 8.565776,-12.84887 l 8.565774,-0.83752 -0.53988,-60.41933 C 77.272509,84.823916 78.120354,88.636982 61.518065,76.976997 55.203818,72.542426 54.546693,70.686519 54.68963,52.33786 54.879569,27.955572 50.03213,31.945228 88.60131,26.371045 c 6.810748,-0.984319 5.369409,0.85167 6.075042,12.092961 0.744739,11.864296 -0.01684,12.254968 6.577778,11.380498 3.25745,-0.43195 7.93333,-1.380175 11.83359,-1.400221 8.64981,-1.72134 7.14841,-0.937702 7.89334,-12.715091 1.50788,-13.983609 -1.92245,-12.678644 28.42862,-12.678644 29.63245,-0.05599 26.85834,-2.661296 28.18248,12.201286 1.31224,11.981011 0.27331,11.033082 13.25755,12.642177 C 206.25,48.75 205.11873,51.636313 205.43895,37.5422 c 0.0292,-12.470243 0.11074,-11.418465 7.07608,-10.833619 4.71812,1.029475 14.69902,2.678413 20.50745,3.465579 10.23143,2.630678 11.51117,-1.365275 10.56257,20.05838 0.16495,22.191854 -0.48076,20.061462 -12.6033,29.897998 -12.54515,9.288965 -10.11166,2.703602 -10.3103,67.194872 0.24475,31.47171 -0.29748,60.36358 0.39756,62.20102 0.50753,2.02494 6.0052,1.50838 11.35806,2.19356 7.45917,0.95478 9.29058,-0.0801 9.58517,12.18696 0.30275,12.60662 0.8756,12.68481 10.78505,13.51411 10.52876,0.85427 9.27796,4.28894 9.2089,18.68432 -0.49206,21.43191 2.19953,19.10368 -16.75356,20.15097 -8.89094,0.77963 -34.59944,1.27703 -49.472,1.70296 C 151.15648,278.95138 131.32224,278.25595 93.75,277.5 90.425834,277.24364 58.236862,277.16179 45.077742,275.46414 Z M 235.4864,264.32436 c 17.39534,-0.3573 14.81673,-1.77756 15.22112,-9.06569 0.4155,-7.48822 -2.71514,-8.33437 -13.86198,-9.13005 -21.78917,-1.55535 -150.857781,-1.30152 -170.973681,0.962 -13.0343,1.46667 -13.428004,1.54057 -13.428004,9.66509 0,5.39918 2.485247,7.02264 5.733807,7.1607 59.519408,2.5296 144.901218,1.07359 177.308738,0.40795 z m -78.56143,-30.59545 c 31.83646,0 57.44191,1.13461 61.84031,1.33459 10.68365,0.48574 12.36837,0.43727 12.36837,-6.97715 0,-7.44372 -7.68837,-8.79823 -13.31504,-9.31992 -41.15956,-3.81617 -116.26737,-2.34212 -131.276854,0 -12.181901,1.90089 -17.999415,7.52182 -15.265429,14.74958 1.347443,3.56219 3.473744,2.1342 15.732075,1.61469 11.680766,-0.49504 38.080098,-1.40179 69.916568,-1.40179 z m 53.22889,-30.50816 c 0.6312,-10.97502 1.57429,-114.586322 -0.81753,-117.254827 -1.35527,-1.512052 -15.08806,-3.943292 -33.22602,-5.49725 -15.60901,-1.041034 -34.03123,-0.868468 -36.86373,-0.744465 -12.26095,0.536765 -47.183531,4.616908 -49.52805,6.995355 -1.787528,1.813393 -2.069603,113.196507 -0.63751,119.540777 1.198268,3.92405 4.88328,0.46473 61.3913,0.0267 56.02306,-0.43428 60.0545,3.52085 59.68154,-3.06628 z m -63.37529,-8.98892 c 0,-3.69114 1.26278,-7.50289 2.80617,-8.47056 2.73371,-1.55177 4.432,1.92449 4.92312,8.74339 0.31223,4.33516 -0.76653,8.52928 -2.93734,9.18572 -3.41848,0.72195 -4.79195,-4.47598 -4.79195,-9.45855 z M 97.709503,181.75632 c -1.847682,-5.64575 15.201617,-8.45878 53.033557,-8.78461 45.01614,-0.3877 53.26746,3.3047 51.61015,8.18161 -0.64096,1.88613 -26.07567,1.14641 -51.68293,1.3919 -25.60726,0.24549 -52.14479,1.70442 -52.960777,-0.7889 z m 20.850407,-15.68891 c -1.31088,-6.0912 -0.85401,-15.99874 3.32801,-14.87374 2.43137,0.65406 3.54753,5.06985 3.46675,9.14045 -0.1875,9.44845 -4.99379,14.10174 -6.79476,5.73329 z m 58.48393,-2.1106 c -0.79578,-6.64093 -0.0658,-12.03701 3.60011,-12.57564 3.82838,-0.5625 3.99813,8.95162 3.07576,14.17865 -1.29081,7.46014 -5.78892,5.79877 -6.67587,-1.60301 z M 97.586696,146.32292 c -2.404871,-3.95217 1.335297,-5.10477 24.730014,-7.621 25.67213,-1.59586 52.90273,-0.9643 60.21523,0.0291 17.625,2.2451 19.95246,3.05586 20.15778,7.265 0.11274,2.31123 -26.22716,1.27472 -52.34829,1.32977 -26.12112,0.055 -51.30719,1.20165 -52.754734,-1.0029 z m 49.191874,-22.06565 c 0,-8.36182 6.55408,-12.3216 7.41856,1.0988 0.25004,3.88176 -0.73388,8.7966 -3.47639,8.7966 -2.68643,0 -3.94217,-5.40982 -3.94217,-9.8954 z M 96.154908,111.92675 c -1.301582,-5.45745 19.200322,-7.89681 54.452882,-8.7072 26.94751,-0.2026 45.65426,2.45595 49.37992,4.68778 2.83569,1.02211 4.56415,4.47043 4.13713,4.83132 -2.06369,1.7441 -22.28422,0.4577 -52.83974,-0.10081 -27.31397,0.25187 -53.642058,2.23442 -55.130192,-0.71109 z M 117.83633,92.449439 c 0,-4.507962 0.94885,-9.454459 3.10139,-9.005673 2.93389,0.61169 4.09928,3.10288 4.09928,8.225478 0,2.691431 -0.37889,8.229539 -2.97428,8.660866 -3.07608,0.51122 -4.22639,-3.372708 -4.22639,-7.880671 z m 59.03906,3.859822 c -1.19056,-3.185342 -1.20548,-12.669215 2.76293,-12.176104 4.83224,0.60045 4.72231,14.911981 0.0265,16.353173 0,0 -1.94778,-0.70625 -2.78943,-4.177069 z M 104.68077,72.215867 c 25.99286,-3.581509 69.29925,-4.029471 92.5172,0.158123 9.89822,1.785246 18.10168,3.638053 26.19528,-0.863223 7.70117,-4.283022 10.45484,-6.277489 10.20593,-18.043561 -0.34307,-16.216617 3.10242,-11.745533 -12.68257,-15.103858 -7.05667,-1.138572 -6.68576,-2.582162 -7.1671,10.973915 -0.27167,7.57054 0.12305,10.377641 -3.28889,10.173781 -3.56611,-0.213072 -13.83962,-1.329672 -23.98748,-2.474499 -6.21984,-0.701688 -12.75024,-1.41398 -16.60788,-1.93533 -0.46933,-5.171762 -0.62931,-9.226473 -1.39446,-12.27269 -0.89974,-12.854961 -2.04934,-10.231438 -19.25972,-10.081254 -22.19539,0.809286 -16.64213,-4.226981 -20.08702,22.615699 -5.54026,1.047678 -8.31786,1.11004 -27.86993,3.911456 C 85.539451,61.602357 86.432709,62.165881 85.894836,49.86866 86.138727,33.640319 85.733186,36.393173 65.66599,40.170398 65.203523,66.256825 63.646474,68.105201 80.750769,75.017303 82.891204,75.882285 93.827431,73.71133 104.68077,72.215867 Z"
     id="path18834"
     inkscape:connector-curvature="0"
     sodipodi:nodetypes="cccsscssssssccccccccccccssccccccssssssssssssssssscscscssscsssssssscsscsscssccsscsccscscsscssscsssssssssscsscccccccsss" />
</svg>
