<?xml version="1.0" encoding="UTF-8" standalone="no"?>
<svg id="svg3128" xmlns:rdf="http://www.w3.org/1999/02/22-rdf-syntax-ns#" xmlns="http://www.w3.org/2000/svg" height="45" width="45" version="1.1" xmlns:cc="http://creativecommons.org/ns#" xmlns:dc="http://purl.org/dc/elements/1.1/">
 <metadata id="metadata15">
  <rdf:RDF>
   <cc:Work rdf:about="">
    <dc:format>image/svg+xml</dc:format>
    <dc:type rdf:resource="http://purl.org/dc/dcmitype/StillImage"/>
   </cc:Work>
  </rdf:RDF>
 </metadata>
 <g id="layer1" stroke-width="1.5">
  <path id="path6570" d="m22.5 11.625v-5.625" stroke="#000" stroke-linecap="round" fill="none"/>
  <path id="path5683" d="m22.5 25s4.5-7.5 3-10.5c0 0-1-2.5-3-2.5s-3 2.5-3 2.5c-1.5 3 3 10.5 3 10.5" fill-rule="evenodd" stroke="#000"/>
  <path id="path5681" stroke-linejoin="round" d="m11.5 37c5.5 3.5 15.5 3.5 21 0v-7s9-4.5 6-10.5c-4-6.5-13.5-3.5-16 4v3.5-3.5c-3.5-7.5-13-10.5-16-4-3 6 5 10 5 10v7.5z" fill-rule="evenodd" stroke="#000" stroke-linecap="round"/>
  <path id="path6572" d="m20 8h5" stroke="#000" stroke-linecap="round" fill="none"/>
  <path id="path6574" d="m11.5 29.5c5.5-2.5 15.5-2.5 21 0.5" stroke="#fff" stroke-linecap="round" fill="none"/>
  <path id="path6576" stroke-linejoin="round" d="m11.5 37c5.5-2.5 15.5-2.5 21 0" stroke="#fff" stroke-linecap="round" fill="none"/>
  <path id="path6578" stroke-linejoin="round" d="m11.5 33.5c5.5-2 15.5-2 21 0" stroke="#fff" stroke-linecap="round" fill="none"/>
  <path id="path5638" stroke-linejoin="round" d="m32 29.5s8.5-4 6.026-9.653c-3.879-5.85-13.026-1.847-15.526 4.653l0.012 2.097-0.012-2.097c-2.5-6.5-12.594-10.503-15.502-4.653-2.498 5.653 4.848 9 4.848 9" stroke="#fff" stroke-linecap="round" fill="none"/>
 </g>
 <path id="path2992" d="m11.143 37.403c-0.57073-0.42381-0.14781-0.89323 1.2691-1.4087 5.4108-1.9684 13.967-1.9626 19.229 0.01302 1.4207 0.53349 1.7875 0.9295 1.3064 1.4106-0.29852 0.29852-0.40964 0.28683-1.7129-0.18016-5.325-1.9081-13.714-1.8869-18.621 0.04716-1.1851 0.46712-1.0187 0.45376-1.4707 0.11811z" stroke-miterlimit="3.8" stroke-width="0" fill="#ececec"/>
 <path id="path2994" d="m10.956 33.65c-0.157-0.49467 0.0279-0.62732 1.533-1.0997 2.6252-0.82401 4.7343-1.0577 9.5339-1.0562 4.7907 0.0014 6.5887 0.20043 9.4641 1.0474 1.4998 0.44179 1.9091 0.80483 1.4382 1.2758-0.29284 0.29284-0.43236 0.28614-1.9857-0.09543-3.3288-0.81766-4.2138-0.90618-9.0119-0.90136-4.747 0.0048-6.3662 0.17659-9.0441 0.95972-1.3148 0.38448-1.7739 0.35348-1.9274-0.13017z" stroke-miterlimit="3.8" stroke-width="0" fill="#ececec"/>
 <path id="path2998" d="m31.271 30.159c-2.807-1.4602-9.1191-2.1818-13.588-1.5535-1.2335 0.17343-2.9496 0.53371-3.8136 0.80062-0.86394 0.26691-1.8499 0.53062-2.1911 0.58604-0.56483 0.09175-0.63028 0.05081-0.73204-0.45799-0.07625-0.38124-0.32165-0.67179-0.77242-0.91455-1.2171-0.656-3.105-2.692-3.7254-4.017-0.5201-1.112-0.5702-1.381-0.5031-2.708 0.1517-3 1.9011-4.906 4.9825-5.43 3.2697-0.55605 8.3357 1.9149 10.648 5.1935 0.44489 0.63085 0.8756 1.147 0.95713 1.147s0.28219-0.25902 0.4459-0.57561c0.52601-1.0172 2.7726-3.217 4.1704-4.0836 1.9617-1.2162 3.4874-1.6906 5.457-1.6969 2.2328-0.0072 3.5405 0.51153 4.9725 1.9723 1.2542 1.2794 1.6169 2.2703 1.4608 3.9915-0.19595 2.161-2.0955 4.7239-4.8139 6.495-0.67888 0.44231-1.1849 0.88422-1.1244 0.98203 0.15431 0.24968-0.28876 0.73494-0.66131 0.72429-0.17069-0.0049-0.69646-0.20974-1.1684-0.45523zm1.879-2.0716c1.7232-1.0303 3.3772-2.6836 4.0481-4.0464 0.52537-1.0672 0.59164-1.3729 0.5247-2.4203-0.08951-1.4005-0.54963-2.1556-1.8306-3.0041-3.5366-2.3426-9.6692 0.14147-12.235 4.956-0.50237 0.94254-0.58624 1.2945-0.56307 2.3629l0.02722 1.2554 0.88114 0.0033c1.6861 0.0064 6.3324 0.98439 7.2571 1.5276 0.36694 0.21556 0.59991 0.13738 1.8908-0.63445v-0.000001zm-20.244 0.22487c1.1566-0.45985 3.7114-0.92777 6.3048-1.1548l2.7172-0.23784v-1.1558c0-0.99346-0.10037-1.3254-0.71468-2.3639-1.8756-3.1704-6.071-5.743-9.366-5.743-2.7003 0-4.6632 1.9591-4.6258 4.6168 0.018839 1.3383 0.4761 2.3109 1.7104 3.6379 0.65668 0.70598 2.8758 2.4024 3.4021 2.6007 0.01939 0.0073 0.27681-0.08275 0.57203-0.20012z" stroke-miterlimit="3.8" stroke-width="0" fill="#ececec"/>
</svg>
