<?xml version="1.0" encoding="UTF-8" standalone="no"?>
<svg id="svg3128" xmlns:rdf="http://www.w3.org/1999/02/22-rdf-syntax-ns#" xmlns="http://www.w3.org/2000/svg" height="45" width="45" version="1.1" xmlns:cc="http://creativecommons.org/ns#" xmlns:dc="http://purl.org/dc/elements/1.1/">
 <metadata id="metadata18">
  <rdf:RDF>
   <cc:Work rdf:about="">
    <dc:format>image/svg+xml</dc:format>
    <dc:type rdf:resource="http://purl.org/dc/dcmitype/StillImage"/>
   </cc:Work>
  </rdf:RDF>
 </metadata>
 <g id="layer1" stroke-linejoin="round">
  <path id="path5571" d="m8 12a2 2 0 1 1 -4 0 2 2 0 1 1 4 0z" stroke="#000" stroke-linecap="round"/>
  <path id="path5573" d="m9 13a2 2 0 1 1 -4 0 2 2 0 1 1 4 0z" transform="translate(15.5,-5.5)" stroke="#000" stroke-linecap="round"/>
  <path id="path5575" d="m9 13a2 2 0 1 1 -4 0 2 2 0 1 1 4 0z" transform="translate(32,-1)" stroke="#000" stroke-linecap="round"/>
  <path id="path5577" d="m9 13a2 2 0 1 1 -4 0 2 2 0 1 1 4 0z" transform="translate(7,-4.5)" stroke="#000" stroke-linecap="round"/>
  <path id="path5579" d="m9 13a2 2 0 1 1 -4 0 2 2 0 1 1 4 0z" transform="translate(24,-4)" stroke="#000" stroke-linecap="round"/>
  <path id="path5581" d="m9 26c8.5-1.5 21-1.5 27 0l2-12-7 11v-14l-5.5 13.5-3-15-3 15-5.5-14v14.5l-7-11 2 12z" fill-rule="evenodd" stroke="#000" stroke-width="1px"/>
  <path id="path5583" d="m9 26c0 2 1.5 2 2.5 4 1 1.5 1 1 0.5 3.5-1.5 1-1.5 2.5-1.5 2.5-1.5 1.5 0.5 2.5 0.5 2.5 6.5 1 16.5 1 23 0 0 0 1.5-1 0-2.5 0 0 0.5-1.5-1-2.5-0.5-2.5-0.5-2 0.5-3.5 1-2 2.5-2 2.5-4-8.5-1.5-18.5-1.5-27 0z" fill-rule="evenodd" stroke="#000" stroke-width="1px"/>
  <path id="path5585" d="m11.5 30c3.5-1 18.5-1 22 0" stroke="#fff" stroke-linecap="round" stroke-width="1px" fill="none"/>
  <path id="path5587" d="m12 33.5c6-1 15-1 21 0" stroke="#fff" stroke-linecap="round" stroke-width="1px" fill="none"/>
  <path id="path5589" d="m10.5 36c5-1 18.5-1 23.5 0" stroke="#fff" stroke-linecap="round" stroke-width="1px" fill="none"/>
 </g>
 <path id="path2995" d="m10.216 36.176c-0.24477-0.39604 0.06833-0.54986 1.556-0.76444 3.9161-0.56484 10.724-0.72484 16.463-0.38688 4.4105 0.25976 5.9618 0.5198 6.0573 1.0154 0.06388 0.33169-0.01895 0.34974-1.0465 0.22801-3.6376-0.43093-5.7228-0.53138-11.031-0.53138-5.2586 0-7.5191 0.11035-10.891 0.53164-0.63925 0.07988-1.0209 0.04807-1.1077-0.09231z" stroke-miterlimit="3.8" stroke-width="0" fill="#ececec"/>
 <path id="path2997" d="m11.716 33.657c-0.25176-0.40736 0.27482-0.58029 2.6996-0.88657 3.4249-0.43262 12.743-0.43262 16.168 0 2.4784 0.31305 3.0572 0.5162 2.6451 0.9283-0.16061 0.16061-0.588 0.16044-1.6712-0.000671-3.0384-0.45191-8.884-0.64298-12.917-0.4222-2.1248 0.11632-4.3781 0.2958-5.0074 0.39885-1.4623 0.23949-1.7598 0.23674-1.917-0.01771z" stroke-miterlimit="3.8" stroke-width="0" fill="#ececec"/>
 <path id="path2999" d="m11.186 30.159c-0.334-0.87 2.477-1.157 11.314-1.157 7.2083 0 10.158 0.18515 11.116 0.69766 0.31132 0.16662 0.32837 0.23746 0.10866 0.45157-0.19449 0.18953-0.47825 0.21177-1.1186 0.08767-3.8963-0.75506-17.1-0.68794-20.807 0.10577-0.34675 0.07425-0.53467 0.01723-0.6126-0.18585z" stroke-miterlimit="3.8" stroke-width="0" fill="#ececec"/>
</svg>
