<?xml version="1.0" encoding="UTF-8" standalone="no"?>
<svg id="svg3128" xmlns:rdf="http://www.w3.org/1999/02/22-rdf-syntax-ns#" xmlns="http://www.w3.org/2000/svg" height="45" width="45" version="1.1" xmlns:cc="http://creativecommons.org/ns#" xmlns:dc="http://purl.org/dc/elements/1.1/">
 <metadata id="metadata18">
  <rdf:RDF>
   <cc:Work rdf:about="">
    <dc:format>image/svg+xml</dc:format>
    <dc:type rdf:resource="http://purl.org/dc/dcmitype/StillImage"/>
   </cc:Work>
  </rdf:RDF>
 </metadata>
 <g id="layer1">
  <path id="path3119" stroke-linejoin="round" d="m9 39h27v-3h-27v3z" fill-rule="evenodd" stroke="#000" stroke-width="1.5"/>
  <path id="path3123" stroke-linejoin="round" d="m12.5 32l1.5-2.5h17l1.5 2.5h-20z" fill-rule="evenodd" stroke="#000" stroke-width="1.5"/>
  <path id="path3121" stroke-linejoin="round" d="m12 36v-4h21v4h-21z" fill-rule="evenodd" stroke="#000" stroke-width="1.5"/>
  <path id="path3125" d="m14 29.5v-13h17v13h-17z" fill-rule="evenodd" stroke="#000" stroke-width="1.5"/>
  <path id="path3127" stroke-linejoin="round" d="m14 16.5l-3-2.5h23l-3 2.5h-17z" fill-rule="evenodd" stroke="#000" stroke-width="1.5"/>
  <path id="path3129" stroke-linejoin="round" d="m11 14v-5h4v2h5v-2h5v2h5v-2h4v5h-23z" fill-rule="evenodd" stroke="#000" stroke-width="1.5"/>
  <path id="path4967" d="m12 35.5h21v0" stroke="#fff" stroke-linecap="round" stroke-width="1px" fill="none"/>
  <path id="path4969" d="m13 31.5h19" stroke="#fff" stroke-linecap="round" stroke-width="1px" fill="none"/>
  <path id="path4971" d="m14 29.5h17" stroke="#fff" stroke-linecap="round" stroke-width="1px" fill="none"/>
  <path id="path5050" d="m14 16.5h17" stroke="#fff" stroke-linecap="round" stroke-width="1px" fill="none"/>
  <path id="path5052" d="m11 14h23" stroke="#fff" stroke-linecap="round" stroke-width="1px" fill="none"/>
 </g>
 <path id="path2995" d="m11.87 35.874c-0.33554-0.1354-0.2966-0.57328 0.06327-0.71137 0.39401-0.1512 20.74-0.1512 21.134 0 0.3887 0.14916 0.3887 0.57275 0 0.72191-0.36037 0.13828-20.854 0.12809-21.197-0.01054z" stroke-miterlimit="3.8" stroke-width="0" fill="#ececec"/>
 <path id="path2997" d="m12.803 31.743c-0.54729-0.65945 0.02709-0.70097 9.6967-0.70097s10.244 0.04152 9.6967 0.70097c-0.30885 0.37214-19.085 0.37214-19.393 0z" stroke-miterlimit="3.8" stroke-width="0" fill="#ececec"/>
 <path id="path2999" d="m13.729 29.517c0-0.37583 0.12712-0.38136 8.7712-0.38136s8.7712 0.0055 8.7712 0.38136c0 0.37583-0.12712 0.38136-8.7712 0.38136s-8.7712-0.0055-8.7712-0.38136z" stroke-miterlimit="3.8" stroke-width="0" fill="#ececec"/>
 <path id="path3001" d="m18.257 16.98c2.3334-0.03034 6.1517-0.03034 8.4852 0 2.3334 0.03034 0.42426 0.05516-4.2426 0.05516-4.6668 0-6.576-0.02482-4.2426-0.05516z" stroke-miterlimit="3.8" stroke-width="0" fill="#ececec"/>
 <path id="path3003" d="m10.74 14.148c-0.06443-0.16789 0.0026-0.38109 0.14899-0.47378 0.34775-0.22019 22.875-0.22019 23.223 0 0.14637 0.09268 0.21342 0.30588 0.14899 0.47378-0.106 0.275-1.261 0.305-11.761 0.305s-11.655-0.02998-11.76-0.30526z" stroke-miterlimit="3.8" stroke-width="0" fill="#ececec"/>
 <path id="path3005" d="m13.858 16.807c-0.07097-0.07097-0.12904-0.24345-0.12904-0.38328 0-0.20819 1.5913-0.25424 8.7852-0.25424 8.2642 0 8.7814 0.01979 8.7209 0.33369-0.05987 0.31103-0.64768 0.33705-8.6561 0.38328-4.7255 0.02727-8.65-0.0085-8.7209-0.07945z" stroke-miterlimit="3.8" stroke-width="0" fill="#ececec"/>
</svg>
