<?xml version="1.0" encoding="UTF-8" standalone="no"?>
<svg id="svg3128" xmlns:rdf="http://www.w3.org/1999/02/22-rdf-syntax-ns#" xmlns="http://www.w3.org/2000/svg" height="45" width="45" version="1.1" xmlns:cc="http://creativecommons.org/ns#" xmlns:dc="http://purl.org/dc/elements/1.1/">
 <metadata id="metadata15">
  <rdf:RDF>
   <cc:Work rdf:about="">
    <dc:format>image/svg+xml</dc:format>
    <dc:type rdf:resource="http://purl.org/dc/dcmitype/StillImage"/>
   </cc:Work>
  </rdf:RDF>
 </metadata>
 <g id="layer1" stroke="#000" stroke-width="1.5" fill="#f9f9f9">
  <path id="path4582" stroke-linejoin="round" d="m9 36c3.385-0.972 10.115 0.431 13.5-2 3.385 2.431 10.115 1.028 13.5 2 0 0 1.646 0.542 3 2-0.677 0.972-1.646 0.986-3 0.5-3.385-0.972-10.115 0.458-13.5-1-3.385 1.458-10.115 0.028-13.5 1-1.3541 0.486-2.3229 0.472-3-0.5 1.3541-1.945 3-2 3-2z" fill-rule="evenodd"/>
  <path id="path4584" stroke-linejoin="round" d="m15 32c2.5 2.5 12.5 2.5 15 0 0.5-1.5 0-2 0-2 0-2.5-2.5-4-2.5-4 5.5-1.5 6-11.5-5-15.5-11 4-10.5 14-5 15.5 0 0-2.5 1.5-2.5 4 0 0-0.5 0.5 0 2z" fill-rule="evenodd"/>
  <path id="path4586" stroke-linejoin="round" d="m25 10a2.5 2.5 0 1 1 -5 0 2.5 2.5 0 1 1 5 0z" transform="translate(0,-2)"/>
  <path id="path4588" d="m17.5 26h10" fill-rule="evenodd" fill-opacity=".75"/>
  <path id="path4590" d="m15 30h15" fill-rule="evenodd" fill-opacity=".75"/>
  <path id="path4592" d="m22.5 15.5v5" fill-rule="evenodd" fill-opacity=".75" stroke-linecap="round"/>
  <path id="path4594" d="m20 18h5" fill-rule="evenodd" fill-opacity=".75" stroke-linecap="round"/>
 </g>
</svg>
