<?xml version="1.0" encoding="UTF-8" standalone="no"?>
<svg id="svg2" xmlns:rdf="http://www.w3.org/1999/02/22-rdf-syntax-ns#" xmlns="http://www.w3.org/2000/svg" height="45" width="45" version="1.1" xmlns:cc="http://creativecommons.org/ns#" xmlns:dc="http://purl.org/dc/elements/1.1/">
 <metadata id="metadata24">
  <rdf:RDF>
   <cc:Work rdf:about="">
    <dc:format>image/svg+xml</dc:format>
    <dc:type rdf:resource="http://purl.org/dc/dcmitype/StillImage"/>
   </cc:Work>
  </rdf:RDF>
 </metadata>
 <g id="g6" fill-rule="evenodd" stroke="#000" stroke-width="1.5" fill="#f9f9f9">
  <path id="path8" d="m22.5 11.625v-5.625" fill-opacity=".75" stroke-linecap="round"/>
  <path id="path10" d="m22.5 25s4.5-7.5 3-10.5c0 0-1-2.5-3-2.5s-3 2.5-3 2.5c-1.5 3 3 10.5 3 10.5"/>
  <path id="path12" stroke-linejoin="round" d="m11.5 37c5.5 3.5 15.5 3.5 21 0v-7s9-4.5 6-10.5c-4-6.5-13.5-3.5-16 4v3.5-3.5c-3.5-7.5-13-10.5-16-4-3 6 5 10 5 10v7.5z" stroke-linecap="round"/>
  <path id="path14" d="m20 8h5" fill-opacity=".75" stroke-linecap="round"/>
  <path id="path16" d="m11.5 29.5c5.5-2.5 15.5-2.5 21 0.5" fill-opacity=".75" stroke-linecap="round"/>
  <path id="path18" stroke-linejoin="round" d="m11.5 37c5.5-2.5 15.5-2.5 21 0" fill-opacity=".75" stroke-linecap="round"/>
  <path id="path20" stroke-linejoin="round" d="m11.5 33.5c5.5-2 15.5-2 21 0" fill-opacity=".75" stroke-linecap="round"/>
 </g>
</svg>
