<?xml version="1.0" encoding="UTF-8" standalone="no"?>
<svg id="svg3128" xmlns:rdf="http://www.w3.org/1999/02/22-rdf-syntax-ns#" xmlns="http://www.w3.org/2000/svg" height="45" width="45" version="1.1" xmlns:cc="http://creativecommons.org/ns#" xmlns:dc="http://purl.org/dc/elements/1.1/">
 <metadata id="metadata17">
  <rdf:RDF>
   <cc:Work rdf:about="">
    <dc:format>image/svg+xml</dc:format>
    <dc:type rdf:resource="http://purl.org/dc/dcmitype/StillImage"/>
   </cc:Work>
  </rdf:RDF>
 </metadata>
 <g id="layer1" stroke-linejoin="round" stroke="#000" fill="#f9f9f9">
  <path id="path5571" d="m9 13a2 2 0 1 1 -4 0 2 2 0 1 1 4 0z" transform="translate(-1,-1)" stroke-linecap="round" stroke-width="1.5"/>
  <path id="path5573" d="m9 13a2 2 0 1 1 -4 0 2 2 0 1 1 4 0z" transform="translate(15.5,-5.5)" stroke-linecap="round" stroke-width="1.5"/>
  <path id="path5575" d="m9 13a2 2 0 1 1 -4 0 2 2 0 1 1 4 0z" transform="translate(32,-1)" stroke-linecap="round" stroke-width="1.5"/>
  <path id="path5577" d="m9 13a2 2 0 1 1 -4 0 2 2 0 1 1 4 0z" transform="translate(7,-4.5)" stroke-linecap="round" stroke-width="1.5"/>
  <path id="path5579" d="m9 13a2 2 0 1 1 -4 0 2 2 0 1 1 4 0z" transform="translate(24,-4)" stroke-linecap="round" stroke-width="1.5"/>
  <path id="path5581" d="m9 26c8.5-1.5 21-1.5 27 0l2-12-7 11v-14l-5.5 13.5-3-15-3 15-5.5-14v14.5l-7-11 2 12z" fill-rule="evenodd" stroke-width="1.5"/>
  <path id="path5583" d="m9 26c0 2 1.5 2 2.5 4 1 1.5 1 1 0.5 3.5-1.5 1-1.5 2.5-1.5 2.5-1.5 1.5 0.5 2.5 0.5 2.5 6.5 1 16.5 1 23 0 0 0 1.5-1 0-2.5 0 0 0.5-1.5-1-2.5-0.5-2.5-0.5-2 0.5-3.5 1-2 2.5-2 2.5-4-8.5-1.5-18.5-1.5-27 0z" fill-rule="evenodd" stroke-width="1.5"/>
  <path id="path5585" d="m11.5 30c3.5-1 18.5-1 22 0" fill-rule="evenodd" fill-opacity=".75" stroke-linecap="round" stroke-width="1px"/>
  <path id="path5587" d="m12 33.5c6-1 15-1 21 0" fill-rule="evenodd" fill-opacity=".75" stroke-linecap="round" stroke-width="1px"/>
  <path id="path5589" d="m10.5 36c5-1 18.5-1 23.5 0" fill-rule="evenodd" fill-opacity=".75" stroke-linecap="round" stroke-width="1px"/>
 </g>
</svg>
