<?xml version="1.0" encoding="UTF-8" standalone="no"?>
<svg
   xmlns:dc="http://purl.org/dc/elements/1.1/"
   xmlns:cc="http://creativecommons.org/ns#"
   xmlns:rdf="http://www.w3.org/1999/02/22-rdf-syntax-ns#"
   xmlns:svg="http://www.w3.org/2000/svg"
   xmlns="http://www.w3.org/2000/svg"
   xmlns:sodipodi="http://sodipodi.sourceforge.net/DTD/sodipodi-0.dtd"
   xmlns:inkscape="http://www.inkscape.org/namespaces/inkscape"
   id="svg2"
   height="256pt"
   viewBox="0 0 256 256"
   width="256pt"
   version="1.1"
   sodipodi:docname="bp.svg"
   inkscape:version="0.92.0 r15299">
  <defs
     id="defs15" />
  <sodipodi:namedview
     pagecolor="#ffffff"
     bordercolor="#666666"
     borderopacity="1"
     objecttolerance="10"
     gridtolerance="10"
     guidetolerance="10"
     inkscape:pageopacity="0"
     inkscape:pageshadow="2"
     inkscape:window-width="1920"
     inkscape:window-height="1137"
     id="namedview13"
     showgrid="false"
     inkscape:zoom="0.69140625"
     inkscape:cx="170.66667"
     inkscape:cy="170.66667"
     inkscape:window-x="-8"
     inkscape:window-y="-8"
     inkscape:window-maximized="1"
     inkscape:current-layer="svg2" />
  <metadata
     id="metadata24">
    <rdf:RDF>
      <cc:Work
         rdf:about="">
        <dc:format>image/svg+xml</dc:format>
        <dc:type
           rdf:resource="http://purl.org/dc/dcmitype/StillImage" />
      </cc:Work>
    </rdf:RDF>
  </metadata>
  <g
     id="#d8d8d8ff"
     fill="#f2f2f2"
     transform="matrix(.846 0 0 .846 19.786 26.734)">
    <path
       id="path5"
       fill="#f2f2f2"
       d="m88.94 66.97c0.57-20.57 19.44-38.65 40.07-38.04 20.6-0.04 39.1 18.46 39.06 39.06 0.54 14.76-8.74 28.7-21.53 35.56-2.12 0.66-1.81 3.24-0.91 4.78 1.43 2.84 2.75 5.82 4.84 8.24 2.4 1.4 5.32 1.21 7.92 2.06 12.98 3.78 24.57 10.99 36.05 17.93 2.09 1.52 5.27 3.19 4.6 6.28 0.04 1.59-1.68 2.44-3.08 2.18-12.32 0.05-24.65-0.16-36.97 0.08 0.75 8.31 3.18 16.41 4.26 24.69 2.62 10.71 7.11 20.85 12.5 30.43 1.13 2.26 3.85 1.57 5.88 2.05 2.21 1.85 4.22 3.94 6.16 6.08 0.51 3.12 0 6.3 0.33 9.44 4.25-0.46 6.4 3.47 9.12 5.97 2.15 2.23 4.52 4.25 6.56 6.58 0.47 6.49 0.13 13.03 0.17 19.54 0.15 1.59-1.66 2.37-3 2.13-48.32-0.01-96.63-0.02-144.94 0.01-1.86 0.42-3.47-1.2-3.05-3.05 0.14-6.21-0.29-12.45 0.23-18.63 3.58-3.79 7.39-7.36 11.02-11.11 1.1-1.47 3.07-1.07 4.65-1.45 0.33-3.14-0.18-6.32 0.33-9.43 1.94-2.13 3.95-4.22 6.16-6.08 2.01-0.5 4.76 0.2 5.89-2.05 6.11-10.76 10.85-22.32 13.51-34.43 0.45-6.99 2.75-13.72 3.24-20.68-12.91-0.36-25.84 0.15-38.75-0.23-3.29-2.5-0.04-6.49 2.56-8.06 13.37-7.95 26.65-17.32 42.43-19.56 3.13-0.05 4.05-3.37 5.42-5.58 1.01-2.25 3.09-4.62 2.1-7.23-3.37-2.36-7.15-4.19-10.06-7.16-8.3-7.69-13.3-18.96-12.77-30.32m34.52-31.31c-9.28 1.91-18.65 6.85-23.22 15.49-5.24 8.54-6.73 19.38-3.18 28.84 2.76 6.09 6.17 12.33 12.11 15.85 11.05 8.3 27.7 8.59 38.65-0.01 4.87-2.79 7.84-7.65 10.74-12.26 7.94-15.23 1.57-36.37-14.01-43.98-6.25-3.82-13.91-5.09-21.09-3.93m-5.16 70.42c-1.21 3.72-3.24 7.12-4.36 10.85 9.7 0.14 19.42 0.14 29.12 0-1.1-3.73-3.17-7.12-4.36-10.84-1.68-0.33-3.3 0.36-4.92 0.65-5.18 1.03-10.38-0.24-15.48-0.66m-9.4 16.74c-12.08 0.98-23.41 6.08-33.46 12.63-1.74 1.3-4.18 1.78-5.52 3.53 38.72 0.05 77.45 0.06 116.16 0-0.28-1.34-1.75-1.72-2.73-2.38-11.2-6.51-23.08-12.81-36.25-13.78-7.26-1.6-14.73-0.53-22.1-0.83-5.38 0.1-10.82-0.49-16.1 0.83m-4.76 21.26c-0.17 7.07-2.85 13.78-3.31 20.82-0.72 6.76-3.46 13.04-5.47 19.48-2.11 6.5-5.39 12.5-8.34 18.64 27.66-0.02 55.31-0.02 82.96 0.01-5.44-10.23-9.59-21.1-12.71-32.24-0.97-8.99-3.74-17.69-4.41-26.7-16.23-0.18-32.49-0.16-48.72-0.01m-28.03 65.18c-0.3 3.21-0.23 6.46-0.04 9.68 34.95 0.11 69.91 0.12 104.86-0.01 0.18-3.22 0.26-6.46-0.03-9.67-0.29-0.29-0.87-0.87-1.15-1.16-33.25-0.28-66.52 0.02-99.77-0.15-1.4 0.05-3.15-0.25-3.87 1.31m-8.78 14.93c-2.47 2.28-4.85 4.67-7.14 7.14-0.47 4.84-0.19 9.75-0.13 14.61 45.62 0.12 91.26 0.11 136.89 0 0.06-4.86 0.32-9.76-0.14-14.61-2.29-2.47-4.68-4.86-7.15-7.14-0.65-0.06-1.97-0.17-2.63-0.23-36.68 0.07-73.35 0.01-110.03 0.03-3.22 0.06-6.47-0.27-9.67 0.2z" />
  </g>
  <g
     id="#686868ff"
     fill="#4d4d4d"
     transform="matrix(.846 0 0 .846 19.786 26.734)"
     style="fill:#323232;fill-opacity:1">
    <path
       id="path8"
       d="m123.46 35.66c7.18-1.16 14.84 0.11 21.09 3.93 15.58 7.61 21.95 28.75 14.01 43.98-2.9 4.61-5.87 9.47-10.74 12.26-10.95 8.6-27.6 8.31-38.65 0.01-5.94-3.52-9.35-9.76-12.11-15.85-3.55-9.46-2.06-20.3 3.18-28.84 4.57-8.64 13.94-13.58 23.22-15.49z"
       style="fill:#323232;fill-opacity:1" />
    <path
       id="path10"
       d="m118.3 106.08c5.1 0.42 10.3 1.69 15.48 0.66 1.62-0.29 3.24-0.98 4.92-0.65 1.19 3.72 3.26 7.11 4.36 10.84-9.7 0.14-19.42 0.14-29.12 0 1.12-3.73 3.15-7.13 4.36-10.85z"
       style="fill:#323232;fill-opacity:1" />
    <path
       id="path12"
       d="m108.9 122.82c5.28-1.32 10.72-0.73 16.1-0.83 7.37 0.3 14.84-0.77 22.1 0.83 13.17 0.97 25.05 7.27 36.25 13.78 0.98 0.66 2.45 1.04 2.73 2.38-38.71 0.06-77.44 0.05-116.16 0 1.34-1.75 3.78-2.23 5.52-3.53 10.05-6.55 21.38-11.65 33.46-12.63z"
       style="fill:#323232;fill-opacity:1" />
    <path
       id="path14"
       d="m104.14 144.08c16.23-0.15 32.49-0.17 48.72 0.01 0.67 9.01 3.44 17.71 4.41 26.7 3.12 11.14 7.27 22.01 12.71 32.24-27.65-0.03-55.3-0.03-82.96-0.01 2.95-6.14 6.23-12.14 8.34-18.64 2.01-6.44 4.75-12.72 5.47-19.48 0.46-7.04 3.14-13.75 3.31-20.82z"
       style="fill:#323232;fill-opacity:1" />
    <path
       id="path16"
       d="m76.11 209.26c0.72-1.56 2.47-1.26 3.87-1.31 33.25 0.17 66.52-0.13 99.77 0.15 0.28 0.29 0.86 0.87 1.15 1.16 0.29 3.21 0.21 6.45 0.03 9.67-34.95 0.13-69.91 0.12-104.86 0.01-0.19-3.22-0.26-6.47 0.04-9.68z"
       style="fill:#323232;fill-opacity:1" />
    <path
       id="path18"
       d="m67.33 224.19c3.2-0.47 6.45-0.14 9.67-0.2 36.68-0.02 73.35 0.04 110.03-0.03 0.66 0.06 1.98 0.17 2.63 0.23 2.47 2.28 4.86 4.67 7.15 7.14 0.46 4.85 0.2 9.75 0.14 14.61-45.63 0.11-91.27 0.12-136.89 0-0.06-4.86-0.34-9.77 0.13-14.61 2.29-2.47 4.67-4.86 7.14-7.14z"
       style="fill:#323232;fill-opacity:1" />
  </g>
</svg>
