<?xml version="1.0" encoding="UTF-8" standalone="no"?>
<svg id="svg2" xmlns:rdf="http://www.w3.org/1999/02/22-rdf-syntax-ns#" xmlns="http://www.w3.org/2000/svg" height="256pt" viewBox="0 0 256 256" width="256pt" version="1.1" xmlns:cc="http://creativecommons.org/ns#" xmlns:dc="http://purl.org/dc/elements/1.1/">
 <metadata id="metadata42">
  <rdf:RDF>
   <cc:Work rdf:about="">
    <dc:format>image/svg+xml</dc:format>
    <dc:type rdf:resource="http://purl.org/dc/dcmitype/StillImage"/>
   </cc:Work>
  </rdf:RDF>
 </metadata>
 <g id="#d8d8d8ff" fill="#ececec" transform="matrix(.9024 0 0 .9024 12.542 12.667)">
  <path id="path5" d="m47 27.01c1.77-1.29 3.97-0.88 6.01-0.93 10.34 0.04 20.69 0 31.04 0.01 1.06 0 2.05 0.31 2.95 0.93-0.2 6.69-0.04 13.38-0.1 20.08 6.4-0.01 12.8 0 19.2-0.01 0.04-6.37-0.09-12.75 0.03-19.12 0.22-0.49 0.66-1.48 0.88-1.97 14.32 0.16 28.65 0.16 42.98 0 0.22 0.5 0.66 1.51 0.88 2.01 0.12 6.36-0.01 12.72 0.04 19.09 6.39-0.01 12.79-0.01 19.19 0 0.04-6.38-0.09-12.75 0.03-19.13 0.22-0.49 0.66-1.47 0.88-1.97 12.01 0.22 24.02 0.04 36.02 0.09 1.07-0.01 2.06 0.3 2.97 0.92-0.17 14.2-0.12 28.4-0.03 42.6-5.91 5.66-11.7 11.46-17.37 17.37-1.56-0.05-3.12-0.08-4.68-0.1-0.03 38.41-0.01 76.82-0.01 115.24 1.56-0.03 3.13-0.05 4.69-0.1 2.01 2.23 4.14 4.36 6.37 6.37-0.09 3.25-0.07 6.49-0.05 9.74 1.22-0.04 2.44-0.08 3.67-0.12 4 4.24 8.14 8.37 12.38 12.38-0.09 6.86-0.14 13.73 0.03 20.59-0.9 0.61-1.87 0.92-2.92 0.93-55.73-0.01-111.45-0.01-167.18 0.01-1.04-0.02-2.01-0.33-2.9-0.93 0.17-6.87 0.12-13.73 0.03-20.6 4.24-4 8.37-8.13 12.38-12.37 1.22 0.03 2.45 0.07 3.67 0.1 0.02-3.24 0.04-6.49-0.05-9.73 2.23-2.01 4.36-4.14 6.37-6.37 1.56 0.05 3.12 0.07 4.69 0.1 0-38.41 0.03-76.82-0.01-115.24-1.57 0.02-3.13 0.05-4.69 0.09-5.66-5.91-11.45-11.7-17.36-17.36 0.09-14.2 0.14-28.4-0.03-42.6m1.44 0.43c-0.16 13.99-0.03 27.99-0.07 41.98 4.8 4.95 9.7 9.79 14.57 14.66 1.41 1.89 3.86 1.5 5.91 1.57 0.57 1.08 1.65 2.02 1.49 3.37 0.12 37.44-0.09 74.88 0.1 112.32-0.59 0.65-1.19 1.29-1.78 1.94-4.19-0.81-6.83 2.56-9.3 5.31-0.27 3.56 1.06 7.69-1.46 10.69-1.78 0.09-3.76 0.11-4.97 1.65-3.13 3.24-6.62 6.18-9.38 9.75-0.46 6.6-0.1 13.26-0.11 19.88 56.7 0.12 113.41 0.11 170.11 0.01 0.01-6.63 0.35-13.28-0.1-19.89-2.74-3.56-6.23-6.47-9.33-9.71-1.18-1.58-3.19-1.54-4.94-1.68-2.7-2.9-1.23-7.13-1.54-10.69-2.47-2.78-5.15-6.14-9.35-5.33-0.58-0.65-1.16-1.31-1.73-1.96 0.19-37.44-0.02-74.89 0.1-112.32-0.11-1.31 0.9-2.25 1.44-3.33 1.83-0.18 4.05 0.43 5.45-1.13 5.11-4.97 10.14-10.04 15.1-15.16-0.09-13.98 0.1-27.96-0.1-41.94-12.37-0.1-24.74-0.11-37.1 0-0.3 6.43 0.23 12.88-0.25 19.29-0.36 0.37-1.08 1.11-1.44 1.48-6.17 0.44-12.37 0.04-18.55 0.16l-1.64-2.08c0.09-6.28 0.12-12.57-0.02-18.85-14.03-0.1-28.07-0.1-42.1 0-0.17 6.46-0.04 12.92-0.09 19.37-0.52 0.41-1.56 1.22-2.09 1.63-6.01-0.26-12.05 0.24-18.05-0.24-0.35-0.35-1.04-1.07-1.39-1.42-0.54-6.42 0.03-12.89-0.28-19.33-12.37-0.12-24.74-0.12-37.11 0z"/>
  <path id="path7" d="m54 32h26v22h32v-22h32v22h32v-22h27v36.67c-3.85 3.7-7.64 7.48-11.34 11.33h-126.31c-3.71-3.85-7.5-7.63-11.35-11.34v-36.66z"/>
  <path id="path9" d="m75 86h107v10h-107v-10z"/>
  <path id="path11" d="m75 102h27v21h-27v-21z"/>
  <path id="path13" d="m107 102h43v21h-43v-21z"/>
  <path id="path15" d="m155 102h27v21h-27v-21z"/>
  <path id="path17" d="m75 128h53c0 7.33 0 14.66-0.01 21.99-17.66-0.01-35.32-0.01-52.98 0.01-0.01-7.34-0.01-14.67-0.01-22z"/>
  <path id="path19" d="m134 128h48c0 7.33 0 14.66-0.01 21.99-16-0.01-31.99-0.01-47.98 0 0-7.33-0.02-14.66-0.01-21.99z"/>
  <path id="path21" d="m75.01 155.02c8.99 0.01 17.98 0.02 26.97-0.01-0.02 6.99-0.05 13.97-0.02 20.95-8.97-0.04-17.95-0.04-26.92 0 0.03-6.98 0-13.96-0.03-20.94z"/>
  <path id="path23" d="m107.02 155.02c14.32 0.01 28.64 0.02 42.96-0.01-0.02 6.98-0.05 13.96-0.02 20.94-14.3-0.03-28.61-0.04-42.92 0.01 0.03-6.98 0-13.96-0.02-20.94z"/>
  <path id="path25" d="m155.02 155.02c8.98 0.01 17.97 0.02 26.96-0.01-0.01 6.98-0.06 13.96-0.02 20.94-8.97-0.03-17.95-0.03-26.92 0.01 0.03-6.99 0-13.96-0.02-20.94z"/>
  <path id="path27" d="m75.05 182.05c17.63 0.04 35.27 0.04 52.9 0-0.05 6.96-0.08 13.92-0.03 20.88-17.61-0.07-35.23-0.07-52.84 0 0.04-6.96 0.02-13.92-0.03-20.88z"/>
  <path id="path29" d="m134.04 182.06c15.97 0.03 31.94 0.04 47.91-0.01-0.05 6.96-0.08 13.91-0.02 20.87-15.95-0.05-31.9-0.07-47.85 0.01 0.04-6.96 0.03-13.91-0.04-20.87z"/>
  <path id="path31" d="m65.25 209.32c0.65-0.98 1.57-1.38 2.74-1.2 40.36 0.01 80.71 0 121.07 0 1.16-0.17 2.06 0.23 2.69 1.2 0.3 3.18 0.08 6.39 0.14 9.59-42.26-0.09-84.52-0.09-126.78 0 0.06-3.2-0.16-6.41 0.14-9.59z"/>
  <path id="path33" d="m56.4 224.14c48.06 0.01 96.13 0.02 144.19 0 2.37 2.48 4.79 4.9 7.27 7.28-0.05 4.82-0.08 9.63 0.01 14.45-52.92-0.11-105.83-0.09-158.74-0.01 0.09-4.82 0.04-9.65 0.03-14.48 2.47-2.35 4.89-4.77 7.24-7.24z"/>
 </g>
 <g id="#404040ff" fill="#1a1a1a" transform="matrix(.9024 0 0 .9024 12.542 12.667)">
  <path id="path36" fill="#1a1a1a" d="m48.44 27.44c12.37-0.12 24.74-0.12 37.11 0 0.31 6.44-0.26 12.91 0.28 19.33 0.35 0.35 1.04 1.07 1.39 1.42 6 0.48 12.04-0.02 18.05 0.24 0.53-0.41 1.57-1.22 2.09-1.63 0.05-6.45-0.08-12.91 0.09-19.37 14.03-0.1 28.07-0.1 42.1 0 0.14 6.28 0.11 12.57 0.02 18.85l1.64 2.08c6.18-0.12 12.38 0.28 18.55-0.16 0.36-0.37 1.08-1.11 1.44-1.48 0.48-6.41-0.05-12.86 0.25-19.29 12.36-0.11 24.73-0.1 37.1 0 0.2 13.98 0.01 27.96 0.1 41.94-4.96 5.12-9.99 10.19-15.1 15.16-1.4 1.56-3.62 0.95-5.45 1.13-0.54 1.08-1.55 2.02-1.44 3.33-0.12 37.43 0.09 74.88-0.1 112.32 0.57 0.65 1.15 1.31 1.73 1.96 4.2-0.81 6.88 2.55 9.35 5.33 0.31 3.56-1.16 7.79 1.54 10.69 1.75 0.14 3.76 0.1 4.94 1.68 3.1 3.24 6.59 6.15 9.33 9.71 0.45 6.61 0.11 13.26 0.1 19.89-56.7 0.1-113.41 0.11-170.11-0.01 0.01-6.62-0.35-13.28 0.11-19.88 2.76-3.57 6.25-6.51 9.38-9.75 1.21-1.54 3.19-1.56 4.97-1.65 2.52-3 1.19-7.13 1.46-10.69 2.47-2.75 5.11-6.12 9.3-5.31 0.59-0.65 1.19-1.29 1.78-1.94-0.19-37.44 0.02-74.88-0.1-112.32 0.16-1.35-0.92-2.29-1.49-3.37-2.05-0.07-4.5 0.32-5.91-1.57-4.87-4.87-9.77-9.71-14.57-14.66 0.04-13.99-0.09-27.99 0.07-41.98m5.56 4.56v36.66c3.85 3.71 7.64 7.49 11.35 11.34h126.31c3.7-3.85 7.49-7.63 11.34-11.33v-36.67h-27v22h-32v-22h-32v22h-32v-22h-26m21 54v10h107v-10h-107m0 16v21h27v-21h-27m32 0v21h43v-21h-43m48 0v21h27v-21h-27m-80 26c0 7.33 0 14.66 0.01 22 17.66-0.02 35.32-0.02 52.98-0.01 0.01-7.33 0.01-14.66 0.01-21.99h-53m59 0c-0.01 7.33 0.01 14.66 0.01 21.99 15.99-0.01 31.98-0.01 47.98 0 0.01-7.33 0.01-14.66 0.01-21.99h-48m-58.99 27.02c0.03 6.98 0.06 13.96 0.03 20.94 8.97-0.04 17.95-0.04 26.92 0-0.03-6.98 0-13.96 0.02-20.95-8.99 0.03-17.98 0.02-26.97 0.01m32.01 0c0.02 6.98 0.05 13.96 0.02 20.94 14.31-0.05 28.62-0.04 42.92-0.01-0.03-6.98 0-13.96 0.02-20.94-14.32 0.03-28.64 0.02-42.96 0.01m48 0c0.02 6.98 0.05 13.95 0.02 20.94 8.97-0.04 17.95-0.04 26.92-0.01-0.04-6.98 0.01-13.96 0.02-20.94-8.99 0.03-17.98 0.02-26.96 0.01m-79.97 27.03c0.05 6.96 0.07 13.92 0.03 20.88 17.61-0.07 35.23-0.07 52.84 0-0.05-6.96-0.02-13.92 0.03-20.88-17.63 0.04-35.27 0.04-52.9 0m58.99 0.01c0.07 6.96 0.08 13.91 0.04 20.87 15.95-0.08 31.9-0.06 47.85-0.01-0.06-6.96-0.03-13.91 0.02-20.87-15.97 0.05-31.94 0.04-47.91 0.01m-68.79 27.26c-0.3 3.18-0.08 6.39-0.14 9.59 42.26-0.09 84.52-0.09 126.78 0-0.06-3.2 0.16-6.41-0.14-9.59-0.63-0.97-1.53-1.37-2.69-1.2-40.36 0-80.71 0.01-121.07 0-1.17-0.18-2.09 0.22-2.74 1.2m-8.85 14.82c-2.35 2.47-4.77 4.89-7.24 7.24 0.01 4.83 0.06 9.66-0.03 14.48 52.91-0.08 105.82-0.1 158.74 0.01-0.09-4.82-0.06-9.63-0.01-14.45-2.48-2.38-4.9-4.8-7.27-7.28-48.06 0.02-96.13 0.01-144.19 0z"/>
 </g>
</svg>
