<?xml version="1.0" encoding="UTF-8" standalone="no"?>
<!-- Created with Inkscape (http://www.inkscape.org/) -->
<svg
   xmlns:dc="http://purl.org/dc/elements/1.1/"
   xmlns:cc="http://creativecommons.org/ns#"
   xmlns:rdf="http://www.w3.org/1999/02/22-rdf-syntax-ns#"
   xmlns:svg="http://www.w3.org/2000/svg"
   xmlns="http://www.w3.org/2000/svg"
   xmlns:xlink="http://www.w3.org/1999/xlink"
   xmlns:sodipodi="http://sodipodi.sourceforge.net/DTD/sodipodi-0.dtd"
   xmlns:inkscape="http://www.inkscape.org/namespaces/inkscape"
   width="48px"
   height="48px"
   id="svg1306"
   sodipodi:version="0.32"
   inkscape:version="0.46"
   sodipodi:docbase="/home/marco/Scrivania/UltimateGnome/scalable/status"
   sodipodi:docname="weather-showers-scattered.svg"
   inkscape:output_extension="org.inkscape.output.svg.inkscape">
  <sodipodi:namedview
     id="base"
     pagecolor="#ffffff"
     bordercolor="#000000"
     borderopacity="1"
     inkscape:pageopacity="0.0"
     inkscape:pageshadow="2"
     inkscape:zoom="16"
     inkscape:cx="15.323777"
     inkscape:cy="20.830023"
     inkscape:current-layer="layer1"
     showgrid="true"
     inkscape:grid-bbox="true"
     inkscape:document-units="px"
     inkscape:window-width="1272"
     inkscape:window-height="922"
     inkscape:window-x="0"
     inkscape:window-y="25"
     inkscape:showpageshadow="false"
     showborder="true"
     showguides="true"
     inkscape:guide-bbox="true" />
  <defs
     id="defs1308">
    <linearGradient
       id="linearGradient3159">
      <stop
         offset="0"
         id="stop3161"
         style="stop-color:#ffffff;stop-opacity:1;" />
      <stop
         offset="1"
         id="stop3165"
         style="stop-color:#38a9b5;stop-opacity:1;" />
    </linearGradient>
    <linearGradient
       id="linearGradient3389">
      <stop
         offset="0"
         id="stop3391"
         style="stop-color:white;stop-opacity:1" />
      <stop
         offset="1"
         id="stop3393"
         style="stop-color:#bdb79e;stop-opacity:1;" />
    </linearGradient>
    <linearGradient
       id="linearGradient3159-217">
      <stop
         offset="0"
         id="stop3181"
         style="stop-color:#ffffff;stop-opacity:1" />
      <stop
         offset="1"
         id="stop3183"
         style="stop-color:#ffffff;stop-opacity:0;" />
    </linearGradient>
    <radialGradient
       inkscape:collect="always"
       xlink:href="#linearGradient3389"
       id="radialGradient3310"
       gradientUnits="userSpaceOnUse"
       gradientTransform="matrix(2.7083131,0,0,1.8681311,-14.93104,-78.767719)"
       cx="14.760593"
       cy="51.811821"
       fx="14.760593"
       fy="51.811821"
       r="23.227217" />
    <radialGradient
       inkscape:collect="always"
       xlink:href="#linearGradient3159-217"
       id="radialGradient3312"
       gradientUnits="userSpaceOnUse"
       gradientTransform="matrix(2.7083131,0,0,1.8681311,-14.914433,-79.013553)"
       cx="14.401598"
       cy="35.867077"
       fx="14.401598"
       fy="35.867077"
       r="23.227217" />
    <radialGradient
       inkscape:collect="always"
       xlink:href="#linearGradient3159"
       id="radialGradient3438"
       gradientUnits="userSpaceOnUse"
       gradientTransform="matrix(1.2849271,2.741939e-2,-4.9265621e-2,2.3086851,-0.3919605,-51.580158)"
       cx="8.3008327"
       cy="40.051701"
       fx="8.3008327"
       fy="40.051701"
       r="3.9483805" />
    <radialGradient
       inkscape:collect="always"
       xlink:href="#linearGradient3159-217"
       id="radialGradient3440"
       gradientUnits="userSpaceOnUse"
       gradientTransform="matrix(1.3007564,0.1065658,-0.1885527,2.3014999,5.1410896,-53.555548)"
       cx="9.4788084"
       cy="37.79076"
       fx="9.4788084"
       fy="37.79076"
       r="3.9483805" />
    <radialGradient
       inkscape:collect="always"
       xlink:href="#linearGradient3159"
       id="radialGradient3448"
       gradientUnits="userSpaceOnUse"
       gradientTransform="matrix(1.2849271,2.741939e-2,-4.9265621e-2,2.3086851,-0.3919605,-51.580158)"
       cx="8.3008327"
       cy="40.051701"
       fx="8.3008327"
       fy="40.051701"
       r="3.9483805" />
    <radialGradient
       inkscape:collect="always"
       xlink:href="#linearGradient3159-217"
       id="radialGradient3450"
       gradientUnits="userSpaceOnUse"
       gradientTransform="matrix(1.3007564,0.1065658,-0.1885527,2.3014999,5.1410896,-53.555548)"
       cx="9.4788084"
       cy="37.79076"
       fx="9.4788084"
       fy="37.79076"
       r="3.9483805" />
    <radialGradient
       inkscape:collect="always"
       xlink:href="#linearGradient3159"
       id="radialGradient3458"
       gradientUnits="userSpaceOnUse"
       gradientTransform="matrix(1.2849271,2.741939e-2,-4.9265621e-2,2.3086851,-0.3919605,-51.580158)"
       cx="8.3008327"
       cy="40.051701"
       fx="8.3008327"
       fy="40.051701"
       r="3.9483805" />
    <radialGradient
       inkscape:collect="always"
       xlink:href="#linearGradient3159-217"
       id="radialGradient3460"
       gradientUnits="userSpaceOnUse"
       gradientTransform="matrix(1.3007564,0.1065658,-0.1885527,2.3014999,5.1410896,-53.555548)"
       cx="9.4788084"
       cy="37.79076"
       fx="9.4788084"
       fy="37.79076"
       r="3.9483805" />
    <radialGradient
       inkscape:collect="always"
       xlink:href="#linearGradient3159"
       id="radialGradient3468"
       gradientUnits="userSpaceOnUse"
       gradientTransform="matrix(1.2849271,2.741939e-2,-4.9265621e-2,2.3086851,-0.3919605,-51.580158)"
       cx="8.3008327"
       cy="40.051701"
       fx="8.3008327"
       fy="40.051701"
       r="3.9483805" />
    <radialGradient
       inkscape:collect="always"
       xlink:href="#linearGradient3159-217"
       id="radialGradient3470"
       gradientUnits="userSpaceOnUse"
       gradientTransform="matrix(1.3007564,0.1065658,-0.1885527,2.3014999,5.1410896,-53.555548)"
       cx="9.4788084"
       cy="37.79076"
       fx="9.4788084"
       fy="37.79076"
       r="3.9483805" />
    <radialGradient
       inkscape:collect="always"
       xlink:href="#linearGradient3159"
       id="radialGradient3478"
       gradientUnits="userSpaceOnUse"
       gradientTransform="matrix(1.2849271,2.741939e-2,-4.9265621e-2,2.3086851,-0.3919605,-51.580158)"
       cx="8.3008327"
       cy="40.051701"
       fx="8.3008327"
       fy="40.051701"
       r="3.9483805" />
    <radialGradient
       inkscape:collect="always"
       xlink:href="#linearGradient3159-217"
       id="radialGradient3480"
       gradientUnits="userSpaceOnUse"
       gradientTransform="matrix(1.3007564,0.1065658,-0.1885527,2.3014999,5.1410896,-53.555548)"
       cx="9.4788084"
       cy="37.79076"
       fx="9.4788084"
       fy="37.79076"
       r="3.9483805" />
  </defs>
  <metadata
     id="metadata1311">
    <rdf:RDF>
      <cc:Work
         rdf:about="">
        <dc:format>image/svg+xml</dc:format>
        <dc:type
           rdf:resource="http://purl.org/dc/dcmitype/StillImage" />
        <cc:license
           rdf:resource="http://creativecommons.org/licenses/GPL/2.0/" />
        <dc:creator>
          <cc:Agent>
            <dc:title>Marco Tessarotto</dc:title>
          </cc:Agent>
        </dc:creator>
      </cc:Work>
    </rdf:RDF>
  </metadata>
  <g
     inkscape:groupmode="layer"
     id="layer1"
     inkscape:label="Layer 1"
     style="display:inline">
    <g
       style="display:inline"
       id="g3303"
       transform="translate(-1.594629,16.91483)">
      <path
         sodipodi:nodetypes="czccccczccc"
         style="fill:url(#radialGradient3310);fill-opacity:1;fill-rule:evenodd;stroke:#000000;stroke-width:1px;stroke-linecap:butt;stroke-linejoin:miter;stroke-opacity:0.66120217"
         d="M 13.948223,3.755204 C 6.8033872,6.891138 2.6976743,1.769998 3.125,-4.25 C 3.5523257,-10.269998 14.824827,-9.028131 13.771447,-7.946699 C 11.075251,-10.746934 15.659922,-14.690915 18.804379,-11.43198 C 21.614173,-13.664162 23.872534,-13.769387 25.036612,-9.653806 C 23.866398,-14.518482 38.06404,-20.189405 36.06434,-11.12868 C 40.632521,-10.69727 40.288415,-8.456825 38.970748,-6.02468 C 39.670538,-7.596834 46.749788,-5.851779 47.799174,-2.918971 C 48.848561,0.013836972 50.339183,6.690874 40.213388,4.661612 C 45.675421,13.58146 28.356632,21.332173 24.547912,14.153806 C 11.92661,17.421741 10.858653,4.835053 13.948223,3.755204 z "
         id="path2169" />
      <path
         style="opacity:0.58080809;fill:url(#radialGradient3312);fill-opacity:1;fill-rule:evenodd;stroke:#0a0a0a;stroke-width:1px;stroke-linecap:butt;stroke-linejoin:miter;stroke-opacity:0"
         d="M 32.254822,-14.108469 C 28.087371,-13.700287 25.6914,-9.745099 26.348572,-5.670969 C 24.096099,-6.621662 23.740494,-10.579925 21.848572,-11.139719 C 19.681903,-9.954441 18.441323,-8.711184 16.536072,-10.827219 C 13.395777,-11.18203 17.175877,-8.029318 15.192322,-6.795969 C 13.541194,-3.643438 11.830051,-8.812979 8.8798224,-6.983469 C 2.1284534,-7.083869 5.3531044,4.24012 11.036072,2.329031 C 14.353254,1.478877 21.988155,-0.58570203 16.200864,3.804331 C 11.585738,7.219002 17.311945,14.17912 22.098572,12.329031 C 24.721482,11.320049 25.879866,12.404268 27.598572,14.204031 C 32.513506,16.366104 41.639364,11.353984 38.504822,5.485281 C 33.312699,-0.27745503 40.37744,2.994593 44.067322,2.766531 C 48.314804,2.907565 46.721979,-4.018611 43.286072,-4.264719 C 39.729714,-6.433 37.185901,-2.125887 34.317322,-0.73346903 C 34.700107,-3.310123 38.367751,-6.858134 37.473572,-9.077219 C 34.773912,-9.329578 32.840695,-9.649033 34.254822,-12.733469 C 34.55801,-14.133809 33.409808,-14.322331 32.254822,-14.108469 z "
         id="path3151" />
    </g>
    <g
       id="g3434"
       transform="matrix(0.395719,9.539021e-2,-0.1014998,0.3718998,10.702466,17.428615)">
      <path
         sodipodi:nodetypes="czzzc"
         id="path3414"
         d="M 11,32.0625 C 7.1169953,35.134255 5.7823967,35.88244 6,38 C 6.2176033,40.11756 7.7978654,41.83014 9.75,41.5 C 11.702135,41.16986 12.205213,40.344322 12.75,38.9375 C 13.294787,37.530678 11.926019,35.702425 11,32.0625 z "
         style="fill:url(#radialGradient3438);fill-opacity:1;fill-rule:evenodd;stroke:#000000;stroke-width:1px;stroke-linecap:butt;stroke-linejoin:miter;stroke-opacity:0.72677594" />
      <path
         id="path3426"
         d="M 10.251412,34.023753 C 7.3016016,34.512822 8.4679834,39.378955 10.876412,37.617503 C 11.859944,36.535415 10.603438,34.761259 10.251412,34.023753 z "
         style="opacity:0.69696966;fill:url(#radialGradient3440);fill-opacity:1;fill-rule:evenodd;stroke:#000000;stroke-width:1px;stroke-linecap:butt;stroke-linejoin:miter;stroke-opacity:0;display:inline" />
    </g>
    <g
       style="display:inline"
       id="g3442"
       transform="matrix(0.6039149,0.1664096,-0.1549009,0.6487844,10.619068,14.113333)">
      <path
         sodipodi:nodetypes="czzzc"
         id="path3444"
         d="M 11,32.0625 C 7.1169953,35.134255 5.7823967,35.88244 6,38 C 6.2176033,40.11756 7.7978654,41.83014 9.75,41.5 C 11.702135,41.16986 12.205213,40.344322 12.75,38.9375 C 13.294787,37.530678 11.926019,35.702425 11,32.0625 z "
         style="fill:url(#radialGradient3448);fill-opacity:1;fill-rule:evenodd;stroke:#000000;stroke-width:1px;stroke-linecap:butt;stroke-linejoin:miter;stroke-opacity:0.72677594" />
      <path
         id="path3446"
         d="M 10.251412,34.023753 C 7.3016016,34.512822 8.4679834,39.378955 10.876412,37.617503 C 11.859944,36.535415 10.603438,34.761259 10.251412,34.023753 z "
         style="opacity:0.69696966;fill:url(#radialGradient3450);fill-opacity:1;fill-rule:evenodd;stroke:#000000;stroke-width:1px;stroke-linecap:butt;stroke-linejoin:miter;stroke-opacity:0;display:inline" />
    </g>
    <g
       style="display:inline"
       id="g3452"
       transform="matrix(0.5468329,0.1402596,-0.1402596,0.5468329,23.361212,17.642716)">
      <path
         sodipodi:nodetypes="czzzc"
         id="path3454"
         d="M 11,32.0625 C 7.1169953,35.134255 5.7823967,35.88244 6,38 C 6.2176033,40.11756 7.7978654,41.83014 9.75,41.5 C 11.702135,41.16986 12.205213,40.344322 12.75,38.9375 C 13.294787,37.530678 11.926019,35.702425 11,32.0625 z "
         style="fill:url(#radialGradient3458);fill-opacity:1;fill-rule:evenodd;stroke:#000000;stroke-width:1px;stroke-linecap:butt;stroke-linejoin:miter;stroke-opacity:0.72677594" />
      <path
         id="path3456"
         d="M 10.251412,34.023753 C 7.3016016,34.512822 8.4679834,39.378955 10.876412,37.617503 C 11.859944,36.535415 10.603438,34.761259 10.251412,34.023753 z "
         style="opacity:0.69696966;fill:url(#radialGradient3460);fill-opacity:1;fill-rule:evenodd;stroke:#000000;stroke-width:1px;stroke-linecap:butt;stroke-linejoin:miter;stroke-opacity:0;display:inline" />
    </g>
    <g
       style="display:inline"
       id="g3462"
       transform="matrix(0.5447991,0.139738,-0.139738,0.5447991,18.352433,13.733306)">
      <path
         sodipodi:nodetypes="czzzc"
         id="path3464"
         d="M 11,32.0625 C 7.1169953,35.134255 5.7823967,35.88244 6,38 C 6.2176033,40.11756 7.7978654,41.83014 9.75,41.5 C 11.702135,41.16986 12.205213,40.344322 12.75,38.9375 C 13.294787,37.530678 11.926019,35.702425 11,32.0625 z "
         style="fill:url(#radialGradient3468);fill-opacity:1;fill-rule:evenodd;stroke:#000000;stroke-width:1px;stroke-linecap:butt;stroke-linejoin:miter;stroke-opacity:0.72677594" />
      <path
         id="path3466"
         d="M 10.251412,34.023753 C 7.3016016,34.512822 8.4679834,39.378955 10.876412,37.617503 C 11.859944,36.535415 10.603438,34.761259 10.251412,34.023753 z "
         style="opacity:0.69696966;fill:url(#radialGradient3470);fill-opacity:1;fill-rule:evenodd;stroke:#000000;stroke-width:1px;stroke-linecap:butt;stroke-linejoin:miter;stroke-opacity:0;display:inline" />
    </g>
    <g
       style="display:inline"
       id="g3472"
       transform="matrix(0.4763583,0.1200065,-0.1221833,0.4678716,6.2760233,9.4679132)">
      <path
         sodipodi:nodetypes="czzzc"
         id="path3474"
         d="M 11,32.0625 C 7.1169953,35.134255 5.7823967,35.88244 6,38 C 6.2176033,40.11756 7.7978654,41.83014 9.75,41.5 C 11.702135,41.16986 12.205213,40.344322 12.75,38.9375 C 13.294787,37.530678 11.926019,35.702425 11,32.0625 z "
         style="fill:url(#radialGradient3478);fill-opacity:1;fill-rule:evenodd;stroke:#000000;stroke-width:1px;stroke-linecap:butt;stroke-linejoin:miter;stroke-opacity:0.72677594" />
      <path
         id="path3476"
         d="M 10.251412,34.023753 C 7.3016016,34.512822 8.4679834,39.378955 10.876412,37.617503 C 11.859944,36.535415 10.603438,34.761259 10.251412,34.023753 z "
         style="opacity:0.69696966;fill:url(#radialGradient3480);fill-opacity:1;fill-rule:evenodd;stroke:#000000;stroke-width:1px;stroke-linecap:butt;stroke-linejoin:miter;stroke-opacity:0;display:inline" />
    </g>
  </g>
</svg>
