<?xml version="1.0" encoding="UTF-8" standalone="no"?>
<!-- Created with Inkscape (http://www.inkscape.org/) -->
<svg id="svg4200" xmlns:rdf="http://www.w3.org/1999/02/22-rdf-syntax-ns#" xmlns="http://www.w3.org/2000/svg" height="45" width="45" version="1.1" xmlns:cc="http://creativecommons.org/ns#" xmlns:dc="http://purl.org/dc/elements/1.1/">
 <metadata id="metadata4205">
  <rdf:RDF>
   <cc:Work rdf:about="">
    <dc:format>image/svg+xml</dc:format>
    <dc:type rdf:resource="http://purl.org/dc/dcmitype/StillImage"/>
    <dc:title/>
   </cc:Work>
  </rdf:RDF>
 </metadata>
 <g id="layer1" transform="translate(0 -1007.4)">
  <g id="g921" transform="matrix(.18476 0 0 .18476 6.9894 1003.1)">
   <rect id="rect923" y="144.74" x="51.222" height="81.661" width="63.54"/>
   <g id="g925">
    <path id="path927" fill="#f8f3f9" d="m114.76 225.02h-63.54c0.47 0.463 0.94 0.924 1.41 1.386v-81.661c-0.47 0.462-0.94 0.923-1.41 1.385h63.54c-0.471-0.462-0.94-0.923-1.41-1.385v81.661c0 1.787 2.82 1.787 2.82 0v-81.661c0-0.756-0.641-1.386-1.41-1.386h-63.54c-0.77 0-1.41 0.629-1.41 1.386v81.661c0 0.755 0.64 1.386 1.41 1.386h63.54c1.818 0 1.818-2.772 0-2.772z"/>
   </g>
  </g>
  <g id="g929" transform="matrix(.18476 0 0 .18476 6.9894 1003.1)">
   <path id="path931" d="m94.186 52.903c-7.59 6.451-18.051 1.081-19.995-8.103-0.537-2.533 1.144-5.309 2.868-7.131 3.694-3.906 11.766-3.429 15.852-0.198 3.182 2.518 5.834 5.856 5.016 10.058-0.306 1.563-3.741 5.374-3.741 5.374"/>
   <g id="g933">
    <path id="path935" fill="#f8f3f9" d="m93.188 51.923c-11.22 8.651-25.039-10.331-12.025-15.137 4.594-1.698 9.482 0.333 12.76 3.467 4.246 4.06 2.536 7.994-0.735 11.67-1.192 1.339 0.795 3.307 1.995 1.96 3.959-4.449 6.228-9.437 1.621-14.598-4.875-5.459-13.15-7.96-19.662-3.535-6.521 4.431-4.652 12.186-0.126 17.129 4.923 5.378 12.683 5.233 18.168 1.004 1.428-1.102-0.582-3.049-1.996-1.96z"/>
   </g>
  </g>
  <g id="g937" transform="matrix(.18476 0 0 .18476 6.9894 1003.1)">
   <path id="path939" d="m113.15 87.042c0-6.274-2.256-17.687-4.378-24.47-2.282-7.299-11.691-8.306-18.903-9.278-12.678-1.709-22.117 5.623-28.691 15.389-14.344 21.311-8.854 49.431-9.208 73.129 3.498 0.683 23.801 0.06 29.583 0.025 10.89-0.065 21.918 0.412 32.789-0.038 0.24-4.249 0.222-8.236 0.113-12.5-0.226-8.654 1.643-13.82-1.767-17.306-4.591-4.694-26.127 0.241-30.237 5.058-0.374-8.039 4.826-12.346 12.052-16.338 5.145-2.843 13.108-1.851 18.802-2.135 0.113-3.704-0.155-7.813-0.155-11.536"/>
   <g id="g941">
    <path id="path943" fill="#f8f3f9" d="m114.56 87.042c-0.134-6.417-1.395-12.798-2.848-19.035-1.362-5.844-2.837-10.312-8.534-13.122-10.144-5.002-24.519-4.469-33.464 2.508-25.897 20.2-18.888 56.159-19.153 84.421-0.005 0.563 0.429 1.241 1.034 1.337 7.575 1.181 15.755 0.325 23.388 0.182 13.12-0.247 26.245 0.325 39.359-0.145 0.795-0.029 1.374-0.609 1.41-1.385 0.386-8.181 0.774-16.757 0.357-24.935-0.209-4.102-2.612-6.892-6.596-7.799-8.025-1.826-22.22 0.989-28.06 7.005 0.803 0.327 1.605 0.654 2.408 0.98-0.007-7.013 4.227-10.894 9.937-14.337 5.887-3.551 12.921-2.537 19.507-2.75 0.776-0.025 1.398-0.612 1.41-1.386 0.058-3.85-0.115-7.692-0.155-11.539-0.018-1.786-2.838-1.789-2.82 0 0.04 3.847 0.212 7.69 0.155 11.538 0.471-0.462 0.94-0.923 1.41-1.386-8.11 0.263-15.142-0.363-22.287 3.948-6.083 3.668-9.983 8.759-9.976 15.913 0.001 1.187 1.549 1.864 2.407 0.98 5.216-5.373 16.593-6.808 23.694-6.491 6.383 0.287 6.334 5.71 6.073 10.708-0.34 6.516 0.024 13.031-0.284 19.551l1.41-1.386c-16.989 0.608-34.073 0.173-51.08 0.319-2.952 0.026-5.905 0.024-8.854-0.09-1.941-0.074-1.011-0.115-1.013-2.167-0.002-2.272-0.071-4.543-0.137-6.813-0.274-9.403-0.83-18.785-0.483-28.194 0.662-18.02 7.044-41.173 26.34-47.939 7.308-2.562 22.184-1.239 27.269 5.285 2.467 3.164 2.913 9.075 3.691 12.865 0.904 4.399 1.571 8.868 1.666 13.358 0.038 1.786 2.858 1.79 2.819 0.001z"/>
   </g>
  </g>
  <g id="g945" transform="matrix(.18476 0 0 .18476 6.9894 1003.1)">
   <line id="line947" y2="81.525" x2="86.615" y1="69.985" x1="86.615" fill="none"/>
   <g id="g949">
    <path id="path951" fill="#f8f3f9" d="m85.206 69.985v11.54c0 1.787 2.82 1.787 2.82 0v-11.54c-0.001-1.786-2.82-1.786-2.82 0z"/>
   </g>
  </g>
  <g id="g953" transform="matrix(.18476 0 0 .18476 6.9894 1003.1)">
   <line id="line955" y2="80.861" x2="95.252" y1="69.985" x1="95.406" fill="none"/>
   <g id="g957">
    <path id="path959" fill="#f8f3f9" d="m93.996 69.985c-0.05 3.626-0.102 7.251-0.154 10.876-0.025 1.788 2.795 1.786 2.82 0 0.051-3.625 0.103-7.25 0.154-10.876 0.025-1.787-2.795-1.785-2.82 0z"/>
   </g>
  </g>
  <g id="g961" transform="matrix(.18476 0 0 .18476 6.9894 1003.1)">
   <rect id="rect963" y="226.4" x="42.861" height="9.978" width="81.781"/>
   <g id="g965">
    <path id="path967" fill="#f8f3f9" d="m124.64 235h-81.781c0.47 0.462 0.939 0.924 1.41 1.386v-9.978c-0.471 0.463-0.94 0.923-1.41 1.386h81.781c-0.47-0.462-0.939-0.923-1.41-1.386v9.978c0 1.787 2.82 1.787 2.82 0v-9.978c0-0.756-0.641-1.386-1.41-1.386h-81.781c-0.769 0-1.41 0.63-1.41 1.386v9.978c0 0.756 0.641 1.386 1.41 1.386h81.781c1.819 0 1.819-2.772 0-2.772z"/>
   </g>
  </g>
  <g id="g969" transform="matrix(.18476 0 0 .18476 6.9894 1003.1)">
   <rect id="rect971" y="236.38" x="36.771" height="12.749" width="94.355"/>
   <g id="g973">
    <path id="path975" fill="#f8f3f9" d="m131.13 247.75h-94.355c0.47 0.462 0.939 0.924 1.41 1.386v-12.749c-0.47 0.462-0.939 0.924-1.41 1.386h94.355c-0.47-0.462-0.939-0.923-1.41-1.386v12.749c0 1.787 2.82 1.787 2.82 0v-12.749c0-0.756-0.64-1.386-1.41-1.386h-94.355c-0.769 0-1.41 0.63-1.41 1.386v12.749c0 0.756 0.641 1.386 1.41 1.386h94.355c1.819 0 1.819-2.772 0-2.772z"/>
   </g>
  </g>
  <g id="g977" transform="matrix(.18476 0 0 .18476 6.9894 1003.1)">
   <path id="path979" d="m55.39 136.9c-1.37-0.149-4.449-0.171-6.289-0.111-2.107 0.071-5.324-0.402-7.4 0.173-1.836 0.507-2.289 3.371-2.047 5.858 0.389 3.989 5.883 3.857 8.49 4.064 7.036 0.562 14.187 0.409 21.238 0.41 16.958 0.002 33.832 0.78 50.787-0.184 2.491-0.142 4.036-0.428 6.587-2.326 2.619-1.951 0.761-4.217-1.246-5.471-4.294-2.682-11.565-1.961-16.712-1.954-7.545 0.01-15.119-0.583-22.613-0.151-11.395 0.659-19.941-0.092-30.795-0.308"/>
   <g id="g981">
    <path id="path983" fill="#f8f3f9" d="m55.39 135.51c-4.583-0.342-13.643-2.115-16.489 2.313-2.875 4.474 0.473 9.031 4.866 10.023 8.797 1.986 18.876 0.817 27.827 0.834 12.511 0.026 25.017 0.423 37.528 0.221 3.574-0.059 19.013 1.343 20.065-4.949 0.986-5.903-6.286-7.499-10.897-7.961-4.477-0.45-9.112 0.009-13.608-0.064-5.488-0.089-10.96-0.333-16.45-0.199-10.989 0.267-21.854 0.034-32.842-0.218-1.819-0.042-1.815 2.73 0 2.772 13.701 0.314 27.369-0.039 41.055 0.203 6.738 0.118 13.476 0.079 20.211 0.192 1.479 0.033 2.95 0.184 4.407 0.451 1.369 0.225 8.103 2.36 3.558 5.414-3.336 2.241-9.434 1.426-13.291 1.538-15.39 0.448-30.796-0.217-46.189-0.163-6.828 0.023-13.847 0.224-20.625-0.743-1.95-0.185-3.12-1.475-3.508-3.873-0.148-4.019 4.654-3.224 6.713-3.138 2.559 0.106 5.109-0.071 7.668 0.12 1.816 0.134 1.802-2.637 0.001-2.773z"/>
   </g>
  </g>
 </g>
</svg>
