<?xml version="1.0" encoding="UTF-8" standalone="no"?>
<!-- Created with Inkscape (http://www.inkscape.org/) -->
<svg id="svg4200" xmlns:rdf="http://www.w3.org/1999/02/22-rdf-syntax-ns#" xmlns="http://www.w3.org/2000/svg" height="45" width="45" version="1.1" xmlns:cc="http://creativecommons.org/ns#" xmlns:dc="http://purl.org/dc/elements/1.1/">
 <metadata id="metadata4205">
  <rdf:RDF>
   <cc:Work rdf:about="">
    <dc:format>image/svg+xml</dc:format>
    <dc:type rdf:resource="http://purl.org/dc/dcmitype/StillImage"/>
    <dc:title/>
   </cc:Work>
  </rdf:RDF>
 </metadata>
 <g id="layer1" transform="translate(0 -1007.4)">
  <g id="g585" transform="matrix(.20095 0 0 .14704 5.8228 937.35)">
   <polygon id="polygon587" points="75.452 491.29 80.729 491.29 86.011 491.29 91.289 491.29 91.289 509.82 101.19 509.98 101.18 522.15 89.685 522.53 89.334 550.68 81.13 550.68 70.88 550.68 70.706 522.53 58.14 522.53 58.14 509.26 70.169 509.83 70.169 491.29"/>
   <g id="g589">
    <path id="path591" fill="#f4f3fa" d="m88.165 522.53c-0.117 9.382-0.234 18.761-0.35 28.142 0.507-0.509 1.013-1.018 1.52-1.526h-18.456c0.507 0.509 1.012 1.018 1.52 1.526-0.058-9.381-0.117-18.76-0.176-28.142-0.004-0.837-0.687-1.527-1.52-1.527h-12.565c0.506 0.508 1.013 1.016 1.519 1.527v-13.265c-0.506 0.507-1.013 1.016-1.519 1.526 4.009 0.187 8.02 0.376 12.031 0.562 0.829 0.04 1.52-0.725 1.52-1.526v-18.537c-0.507 0.509-1.013 1.015-1.52 1.527h21.118c-0.506-0.513-1.011-1.019-1.519-1.527v18.535c0 0.843 0.692 1.517 1.519 1.526 3.3 0.053 6.602 0.104 9.904 0.154-0.506-0.512-1.012-1.02-1.519-1.527-0.003 4.058-0.009 8.11-0.015 12.169 0.508-0.508 1.013-1.017 1.521-1.527-3.831 0.128-7.664 0.254-11.494 0.384-1.956 0.066-1.961 3.119 0 3.055 3.83-0.129 7.663-0.255 11.494-0.384 0.828-0.025 1.518-0.673 1.519-1.527 0.003-4.059 0.009-8.111 0.014-12.169 0.001-0.844-0.692-1.516-1.52-1.527-3.3-0.051-6.601-0.104-9.904-0.154 0.507 0.511 1.014 1.021 1.521 1.528v-18.535c0-0.833-0.692-1.528-1.521-1.528h-21.118c-0.828 0-1.52 0.695-1.52 1.528v18.537c0.509-0.51 1.014-1.02 1.52-1.526-4.01-0.189-8.021-0.38-12.031-0.564-0.828-0.041-1.52 0.724-1.52 1.529v13.265c0 0.832 0.692 1.527 1.52 1.527h12.565c-0.506-0.509-1.011-1.021-1.52-1.527 0.059 9.382 0.117 18.761 0.175 28.142 0.004 0.836 0.686 1.527 1.519 1.527h18.456c0.836 0 1.509-0.691 1.52-1.527 0.116-9.381 0.232-18.76 0.35-28.142 0.026-1.972-3.013-1.97-3.038-0.002z"/>
   </g>
  </g>
  <g id="g593" transform="matrix(.20095 0 0 .14704 5.8228 937.35)">
   <polygon id="polygon595" points="48.418 600.39 45.379 539.75 121.66 539.75 117.41 600.39"/>
   <g id="g597">
    <path id="path599" fill="#f4f3fa" d="m117.41 598.86h-68.993c0.506 0.511 1.013 1.02 1.52 1.529-1.014-20.213-2.026-40.424-3.04-60.64-0.506 0.514-1.012 1.021-1.52 1.53h76.287c-0.506-0.51-1.012-1.017-1.52-1.53-1.418 20.216-2.836 40.427-4.254 60.64-0.139 1.967 2.902 1.952 3.039 0 1.418-20.213 2.837-40.424 4.257-60.64 0.058-0.829-0.736-1.527-1.521-1.527h-76.287c-0.796 0-1.561 0.698-1.52 1.527 1.012 20.216 2.026 40.427 3.039 60.64 0.042 0.832 0.659 1.525 1.52 1.525h68.993c1.962 0.001 1.962-3.054 0-3.054z"/>
   </g>
  </g>
  <g id="g729" transform="matrix(.20095 0 0 .14704 5.8228 937.35)">
   <rect id="rect731" y="607.74" x="47.99" height="114.46" width="69.262"/>
   <g id="g733">
    <path id="path735" fill="#f4f3fa" d="m117.25 720.67h-69.262c0.508 0.511 1.013 1.02 1.52 1.528v-114.46c-0.507 0.511-1.012 1.018-1.52 1.53h69.262c-0.507-0.513-1.013-1.02-1.52-1.53v114.46c0 1.971 3.039 1.971 3.039 0v-114.46c0-0.831-0.691-1.526-1.519-1.526h-69.262c-0.828 0-1.52 0.695-1.52 1.526v114.46c0 0.835 0.692 1.526 1.52 1.526h69.262c1.959 0.001 1.959-3.054 0-3.054z"/>
   </g>
  </g>
  <g id="g737" transform="matrix(.20095 0 0 .14704 5.8228 937.35)">
   <path id="path739" d="m49.095 595.18c-1.584-0.179-5.149-0.204-7.277-0.133-2.441 0.086-6.162-0.477-8.563 0.209-2.123 0.603-2.649 4.019-2.369 6.989 0.45 4.762 6.809 4.602 9.827 4.849 8.142 0.669 16.417 0.487 24.577 0.489 19.625 0.002 39.158 0.931 58.775-0.218 2.885-0.173 4.673-0.515 7.625-2.778 3.034-2.328 0.883-5.028-1.442-6.529-4.966-3.2-13.383-2.338-19.34-2.329-8.733 0.013-17.5-0.697-26.168-0.178-13.195 0.784-23.082-0.116-35.645-0.371"/>
   <g id="g741">
    <path id="path743" fill="#f4f3fa" d="m49.095 593.65c-4.147-0.317-8.336-0.158-12.491-0.271-2.552-0.068-5.828 0.411-6.646 3.333-1.815 6.472 0.569 11.016 7.386 11.646 11.639 1.084 23.334 0.69 35.005 0.785 13.32 0.107 26.633 0.471 39.952 0.207 6.408-0.121 19.725 1.492 22.343-6.755 1.99-6.27-10.272-8.178-13.697-8.435-4.897-0.364-9.898 0.068-14.807-0.016-7.144-0.12-14.258-0.463-21.404-0.125-11.905 0.563-23.739-0.089-35.641-0.369-1.96-0.046-1.956 3.01 0 3.054 15.854 0.373 31.675-0.044 47.51 0.241 7.54 0.141 15.062 0.158 22.598 0.208 2.154 0.018 4.238 0.251 6.356 0.66 1.711 0.332 8.974 2.949 3.709 6.593-3.699 2.562-10.326 1.693-14.618 1.831-17.932 0.575-35.887-0.236-53.822-0.177-7.442 0.027-14.828-0.155-22.254-0.643-2.891-0.188-6.077-0.593-6.235-4.986-0.174-4.925 5.412-3.979 7.882-3.873 2.961 0.125 5.911-0.079 8.874 0.144 1.956 0.155 1.944-2.901 0-3.052z"/>
   </g>
  </g>
  <g id="g745" transform="matrix(.20095 0 0 .14704 5.8228 937.35)">
   <rect id="rect747" y="722.2" x="35.644" height="12.934" width="92.572"/>
   <g id="g749">
    <path id="path751" fill="#f4f3fa" d="m128.22 733.6h-92.572c0.508 0.51 1.013 1.017 1.52 1.53v-12.934c-0.507 0.512-1.012 1.019-1.52 1.526h92.572c-0.507-0.508-1.012-1.015-1.52-1.526v12.934c0 1.968 3.04 1.968 3.04 0v-12.934c0-0.833-0.691-1.528-1.521-1.528h-92.572c-0.829 0-1.52 0.695-1.52 1.528v12.934c0 0.831 0.691 1.526 1.52 1.526h92.572c1.961 0 1.961-3.056 0.001-3.056z"/>
   </g>
  </g>
  <g id="g753" transform="matrix(.20095 0 0 .14704 5.8228 937.35)">
   <rect id="rect755" y="735.13" x="29.504" height="12.858" width="105.29"/>
   <g id="g757">
    <path id="path759" fill="#f4f3fa" d="m134.8 746.46h-105.29c0.506 0.509 1.012 1.017 1.52 1.528v-12.858c-0.508 0.508-1.014 1.016-1.52 1.526h105.29c-0.508-0.511-1.013-1.019-1.52-1.526v12.858c0 1.968 3.04 1.968 3.04 0v-12.858c0-0.833-0.692-1.53-1.52-1.53h-105.29c-0.828 0-1.52 0.697-1.52 1.53v12.858c0 0.832 0.692 1.526 1.52 1.526h105.29c1.959 0.001 1.959-3.054 0-3.054z"/>
   </g>
  </g>
  <g id="g761" transform="matrix(.20095 0 0 .14704 5.8228 937.35)">
   <rect id="rect763" y="746.77" x="23.799" height="13.508" width="118.39"/>
   <g id="g765">
    <path id="path767" fill="#f4f3fa" d="m142.19 758.75h-118.39c0.507 0.51 1.012 1.019 1.52 1.526v-13.508c-0.507 0.51-1.013 1.017-1.52 1.527h118.39c-0.506-0.511-1.012-1.018-1.521-1.527v13.508c0 1.972 3.041 1.972 3.041 0v-13.508c0-0.834-0.693-1.527-1.521-1.527h-118.39c-0.828 0-1.52 0.693-1.52 1.527v13.508c0 0.836 0.692 1.528 1.52 1.528h118.39c1.959 0.001 1.959-3.054 0.001-3.054z"/>
   </g>
  </g>
  <g id="g769" transform="matrix(.20095 0 0 .14704 5.8228 937.35)">
   <line id="line771" y2="567.59" x2="66.996" y1="555.62" x1="66.996" fill="none"/>
   <g id="g773">
    <path id="path775" fill="#f4f3fa" d="m65.478 555.62v11.975c0 1.968 3.04 1.968 3.04 0v-11.975c-0.002-1.971-3.04-1.971-3.04 0z"/>
   </g>
  </g>
  <g id="g777" transform="matrix(.20095 0 0 .14704 5.8228 937.35)">
   <line id="line779" y2="566.49" x2="75.966" y1="555.62" x1="76.144" fill="none"/>
   <g id="g781">
    <path id="path783" fill="#f4f3fa" d="m74.624 555.62c-0.059 3.624-0.119 7.246-0.178 10.869-0.032 1.97 3.007 1.967 3.039 0 0.059-3.623 0.118-7.245 0.179-10.869 0.033-1.973-3.008-1.968-3.04 0z"/>
   </g>
  </g>
  <g id="g785" transform="matrix(.20095 0 0 .14704 5.8228 937.35)">
   <polyline id="polyline787" points="61.277 577.89 62 578.46 62.67 578.88 63.118 579.03 63.602 579.19 64.234 579.43 64.901 579.76 65.352 579.98 65.986 580.26 66.531 580.38 67.074 580.62 67.618 580.81 68.011 580.9 68.523 581.04 69.098 581.14 70.004 581.26 70.783 581.26 71.756 581.26 72.706 581.26 73.519 581.04 75.066 580.76 76.266 580.37 77.384 579.95 78.811 579.19 79.336 578.41 79.882 577.96 80.29 577.63"/>
   <g id="g789">
    <path id="path791" fill="#f4f3fa" d="m60.202 578.97c2.526 1.992 6.161 3.338 9.348 3.756 2.279 0.302 4.635-0.088 6.809-0.778 2.211-0.702 3.294-1.847 5.004-3.238 1.523-1.242-0.64-3.387-2.15-2.16-2.829 2.304-5.258 3.182-9.21 3.182-2.302 0-5.895-1.538-7.654-2.922-1.522-1.202-3.689 0.946-2.147 2.16z"/>
   </g>
  </g>
 </g>
</svg>
