<?xml version="1.0" encoding="UTF-8" standalone="no"?>
<!-- Created with Inkscape (http://www.inkscape.org/) -->
<svg id="svg4200" xmlns:rdf="http://www.w3.org/1999/02/22-rdf-syntax-ns#" xmlns="http://www.w3.org/2000/svg" height="45" width="45" version="1.1" xmlns:cc="http://creativecommons.org/ns#" xmlns:dc="http://purl.org/dc/elements/1.1/">
 <metadata id="metadata4205">
  <rdf:RDF>
   <cc:Work rdf:about="">
    <dc:format>image/svg+xml</dc:format>
    <dc:type rdf:resource="http://purl.org/dc/dcmitype/StillImage"/>
    <dc:title/>
   </cc:Work>
  </rdf:RDF>
 </metadata>
 <g id="layer1" transform="translate(0 -1007.4)">
  <g id="g985" transform="matrix(.19057 0 0 .19057 -78.64 1002.3)">
   <polygon id="polygon987" points="542.65 79.872 512.97 84.126 522.28 37.368"/>
   <g id="g989">
    <path id="path991" fill="#f8f3f9" d="m542.28 78.534c-9.896 1.42-19.789 2.838-29.684 4.256 0.577 0.569 1.154 1.137 1.733 1.705 3.104-15.587 6.21-31.174 9.312-46.76-0.858 0.109-1.718 0.22-2.575 0.331 6.789 14.167 13.578 28.335 20.369 42.504 0.774 1.616 3.205 0.208 2.435-1.399-6.79-14.169-13.58-28.336-20.37-42.505-0.512-1.065-2.351-0.81-2.577 0.331-3.104 15.587-6.209 31.173-9.312 46.76-0.224 1.116 0.645 1.861 1.733 1.706 9.894-1.419 19.788-2.838 29.683-4.256 1.794-0.257 1.03-2.928-0.748-2.673z"/>
   </g>
  </g>
  <g id="g993" transform="matrix(.19057 0 0 .19057 -78.64 1002.3)">
   <polygon id="polygon995" points="562.75 83.073 529.99 82.5 547.19 37.724"/>
   <g id="g997">
    <path id="path999" fill="#f8f3f9" d="m562.75 81.688c-10.921-0.19-21.843-0.382-32.764-0.573 0.453 0.584 0.907 1.169 1.357 1.755 5.734-14.925 11.469-29.852 17.199-44.775h-2.718c5.187 15.116 10.376 30.232 15.563 45.349 0.577 1.684 3.303 0.96 2.719-0.738-5.188-15.116-10.375-30.232-15.564-45.349-0.464-1.353-2.228-1.28-2.718 0-5.734 14.926-11.467 29.852-17.199 44.776-0.334 0.869 0.51 1.739 1.359 1.755 10.921 0.19 21.843 0.382 32.764 0.574 1.82 0.029 1.817-2.742 0.002-2.774z"/>
   </g>
  </g>
  <g id="g1001" transform="matrix(.19057 0 0 .19057 -78.64 1002.3)">
   <path id="path1003" d="m592.7 128.94c0-3.768 1.76-14.803-1.057-24.365-4.441-9.545-7.525-16.642-11.785-20.371-4.749-3.188-12.384-9.352-20.123-12.473-7.738-3.122-25.801-3.799-30.3-4.286-7.907-0.855-11.437 1.168-17.383 4.009-5.945 2.84-23.677 52.392-25.383 81.856-1.704 29.464-2.671 58.151-2.892 70.001 2.183 0.342 8.21 0.55 16.614 0.711 8.402 0.162 13.06 0.162 16.663 0.146 6.795-0.033 12.33 0.252 17.864 0.49s2.202 0.704 8.982 0.479c0.148-2.125 0.409-0.305 0.878-3.88 0.472-3.576 0.853-22.362 1.584-30.488 0.73-8.126-1.105-43.746-1.105-43.746l-0.44-11.594s2.612 2.922 6.645 5.787c4.032 2.865 5.817 3.897 8.692 4.758 4.173 1.247 13.056 1.506 20.896 0.988 7.841-0.515 11.65-16.16 11.65-18.022"/>
   <g id="g1005">
    <path id="path1007" fill="#f8f3f9" d="m594.11 128.94c0.138-5.719 0.736-11.318 0.298-17.054-0.551-7.185-3.868-13.351-7.134-19.681-5.188-10.05-16.596-17.883-27.162-21.81-9.427-3.502-20.149-3.424-30.071-4.275-7.259-0.623-17.158 0.748-21.584 7.221-4.728 6.913-7.478 15.558-10.231 23.349-4.137 11.7-7.477 23.696-10.012 35.827-2.789 13.351-3.322 26.799-3.988 40.383-0.719 14.659-1.303 29.328-1.705 44-0.059 2.138-0.107 4.276-0.148 6.415-0.012 0.552 0.433 1.256 1.034 1.337 10.069 1.332 20.57 0.9 30.711 0.913 9.923 0.012 19.918 1.23 29.79 0.963 0.837-0.023 1.32-0.619 1.41-1.386 3.523-29.878 2.058-59.677 0.917-89.708-0.803 0.326-1.605 0.653-2.407 0.979 3.641 3.961 8.609 8.081 13.683 10.084 7.267 2.869 15.901 2.293 23.547 1.855 8.055-0.462 12.618-12.778 13.052-19.412 0.117-1.784-2.702-1.774-2.82 0-0.194 2.97-1.51 6.128-2.69 8.817-2.425 5.523-5.357 7.77-11.525 8.017-5.823 0.232-12.135 0.308-17.717-1.516-5.101-1.667-10.011-5.967-13.538-9.805-0.821-0.891-2.453-0.203-2.407 0.98 1.142 30.031 2.607 59.841-0.916 89.708 0.47-0.462 0.939-0.923 1.409-1.386-10.623 0.289-21.418-0.933-32.097-0.968-6.858-0.023-13.722-0.156-20.575-0.38-0.807-0.026-6.018-0.521-6.027-0.013 0.054-2.694 0.128-5.388 0.207-8.083 0.822-28.87 0.326-58.64 6.805-86.927 2.72-11.863 6.303-23.564 10.55-34.983 1.639-4.407 3.434-8.764 5.507-12.994 1.016-2.072 2.35-5.534 4.491-6.755 10.416-5.942 22.846-3.623 34.26-2.251 6.764 0.814 12.607 2.439 18.542 5.807 6.044 3.43 13.166 7.715 17.036 13.513 4.311 6.453 8.11 14.523 8.985 22.165 0.65 5.698-0.161 11.363-0.299 17.054-0.044 1.789 2.776 1.785 2.819 0z"/>
   </g>
  </g>
  <g id="g1009" transform="matrix(.19057 0 0 .19057 -78.64 1002.3)">
   <rect id="rect1011" y="222.82" x="474.35" height="9.978" width="81.781"/>
   <g id="g1013">
    <path id="path1015" fill="#f8f3f9" d="m556.13 231.41h-81.781c0.471 0.462 0.939 0.924 1.409 1.386v-9.978c-0.47 0.462-0.938 0.924-1.409 1.386h81.781c-0.471-0.462-0.938-0.924-1.41-1.386v9.978c0 1.787 2.819 1.787 2.819 0v-9.978c0-0.756-0.639-1.385-1.409-1.385h-81.781c-0.77 0-1.409 0.629-1.409 1.385v9.978c0 0.756 0.641 1.386 1.409 1.386h81.781c1.819 0 1.819-2.772 0-2.772z"/>
   </g>
  </g>
  <g id="g1017" transform="matrix(.19057 0 0 .19057 -78.64 1002.3)">
   <rect id="rect1019" y="232.8" x="468.26" height="12.75" width="94.354"/>
   <g id="g1021">
    <path id="path1023" fill="#f8f3f9" d="m562.62 244.16h-94.354c0.472 0.462 0.94 0.923 1.41 1.386v-12.75c-0.47 0.462-0.938 0.923-1.41 1.386h94.354c-0.47-0.462-0.939-0.924-1.409-1.386v12.75c0 1.787 2.819 1.787 2.819 0v-12.75c0-0.756-0.641-1.386-1.41-1.386h-94.354c-0.77 0-1.41 0.629-1.41 1.386v12.75c0 0.756 0.642 1.386 1.41 1.386h94.354c1.821-0.001 1.821-2.772 0-2.772z"/>
   </g>
  </g>
  <g id="g1025" transform="matrix(.19057 0 0 .19057 -78.64 1002.3)">
   <line id="line1027" y2="111.18" x2="560.28" y1="97.555" x1="560.28" fill="none"/>
   <g id="g1029">
    <path id="path1031" fill="#f8f3f9" d="m558.87 97.555v13.625c0 1.787 2.82 1.787 2.82 0v-13.625c0-1.786-2.82-1.786-2.82 0z"/>
   </g>
  </g>
  <g id="g1033" transform="matrix(.19057 0 0 .19057 -78.64 1002.3)">
   <line id="line1035" y2="111.74" x2="569.07" y1="97.555" x1="569.22" fill="none"/>
   <g id="g1037">
    <path id="path1039" fill="#f8f3f9" d="m567.81 97.555c-0.052 4.729-0.104 9.457-0.156 14.185-0.021 1.788 2.801 1.786 2.819 0 0.054-4.729 0.105-9.457 0.157-14.185 0.022-1.787-2.798-1.785-2.82 0z"/>
   </g>
  </g>
  <g id="g1041" transform="matrix(.19057 0 0 .19057 -78.64 1002.3)">
   <line id="line1043" y2="138.73" x2="573.1" y1="138.28" x1="573.1" fill="none"/>
   <g id="g1045">
    <path id="path1047" fill="#f8f3f9" d="m570.28 138.28v0.45c0 1.511 1.283 2.771 2.819 2.771s2.819-1.26 2.819-2.771v-0.45c0-1.511-1.283-2.771-2.819-2.771s-2.819 1.26-2.819 2.771z"/>
   </g>
  </g>
  <g id="g1049" transform="matrix(.19057 0 0 .19057 -78.64 1002.3)">
   <line id="line1051" y2="138.73" x2="581.73" y1="138.28" x1="581.89" fill="none"/>
   <g id="g1053">
    <path id="path1055" fill="#f8f3f9" d="m579.17 137.54c-0.051 0.149-0.104 0.3-0.154 0.45-0.489 1.433 0.553 3.025 1.971 3.409 1.545 0.418 2.979-0.505 3.47-1.936 0.051-0.149 0.103-0.301 0.153-0.45 0.49-1.432-0.552-3.025-1.97-3.409-1.545-0.417-2.98 0.505-3.47 1.936z"/>
   </g>
  </g>
  <g id="g1057" transform="matrix(.19057 0 0 .19057 -78.64 1002.3)">
   <line id="line1059" y2="82.916" x2="528.6" y1="68.731" x1="528.6" fill="none"/>
   <g id="g1061">
    <path id="path1063" fill="#f8f3f9" d="m527.19 68.731v14.184c0 1.788 2.82 1.788 2.82 0v-14.184c0.002-1.787-2.82-1.787-2.82 0z"/>
   </g>
  </g>
  <g id="g1065" transform="matrix(.19057 0 0 .19057 -78.64 1002.3)">
   <line id="line1067" y2="135.52" x2="504.27" y1="134.38" x1="489.88" fill="none"/>
   <g id="g1069">
    <path id="path1071" fill="#f8f3f9" d="m489.88 135.77c4.796 0.378 9.59 0.758 14.385 1.137 1.813 0.144 1.801-2.629 0-2.771-4.795-0.379-9.589-0.759-14.385-1.137-1.814-0.144-1.8 2.629 0 2.771z"/>
   </g>
  </g>
  <g id="g1073" transform="matrix(.19057 0 0 .19057 -78.64 1002.3)">
   <line id="line1075" y2="85.523" x2="518.17" y1="73.322" x1="510.81" fill="none"/>
   <g id="g1077">
    <path id="path1079" fill="#f8f3f9" d="m509.59 74.023c2.453 4.065 4.907 8.133 7.36 12.2 0.925 1.536 3.362 0.142 2.434-1.4-2.454-4.066-4.906-8.134-7.358-12.2-0.927-1.535-3.366-0.141-2.436 1.4z"/>
   </g>
  </g>
  <g id="g1081" transform="matrix(.19057 0 0 .19057 -78.64 1002.3)">
   <line id="line1083" y2="97.555" x2="512.78" y1="90.295" x1="503.62" fill="none"/>
   <g id="g1085">
    <path id="path1087" fill="#f8f3f9" d="m502.62 91.275c3.056 2.42 6.109 4.84 9.164 7.26 1.399 1.111 3.409-0.837 1.993-1.96-3.056-2.42-6.108-4.84-9.163-7.26-1.401-1.111-3.41 0.837-1.994 1.96z"/>
   </g>
  </g>
  <g id="g1089" transform="matrix(.19057 0 0 .19057 -78.64 1002.3)">
   <line id="line1091" y2="83.84" x2="541.95" y1="69.654" x1="541.95" fill="none"/>
   <g id="g1093">
    <path id="path1095" fill="#f8f3f9" d="m540.54 69.654v14.185c0 1.786 2.82 1.786 2.82 0v-14.185c0-1.787-2.82-1.787-2.82 0z"/>
   </g>
  </g>
  <g id="g1097" transform="matrix(.19057 0 0 .19057 -78.64 1002.3)">
   <line id="line1099" y2="85.104" x2="556.16" y1="70.975" x1="557.44" fill="none"/>
   <g id="g1101">
    <path id="path1103" fill="#f8f3f9" d="m556.03 70.975c-0.428 4.709-0.853 9.42-1.278 14.13-0.161 1.78 2.659 1.766 2.821 0 0.425-4.709 0.851-9.42 1.276-14.13 0.162-1.781-2.658-1.767-2.819 0z"/>
   </g>
  </g>
  <g id="g1105" transform="matrix(.19057 0 0 .19057 -78.64 1002.3)">
   <line id="line1107" y2="110.18" x2="507.43" y1="104.7" x1="497.07" fill="none"/>
   <g id="g1109">
    <path id="path1111" fill="#f8f3f9" d="m496.36 105.9c3.451 1.828 6.905 3.657 10.36 5.485 1.601 0.848 3.025-1.545 1.423-2.392-3.452-1.83-6.907-3.658-10.36-5.487-1.6-0.848-3.025 1.546-1.423 2.394z"/>
   </g>
  </g>
  <g id="g1113" transform="matrix(.19057 0 0 .19057 -78.64 1002.3)">
   <line id="line1115" y2="122.26" x2="504.51" y1="118.93" x1="493.24" fill="none"/>
   <g id="g1117">
    <path id="path1119" fill="#f8f3f9" d="m492.87 120.27c3.757 1.111 7.512 2.221 11.27 3.332 1.747 0.516 2.486-2.159 0.749-2.673-3.757-1.11-7.513-2.222-11.271-3.333-1.746-0.517-2.485 2.159-0.748 2.674z"/>
   </g>
  </g>
  <g id="g1121" transform="matrix(.19057 0 0 .19057 -78.64 1002.3)">
   <line id="line1123" y2="150.18" x2="502.56" y1="148.91" x1="488.18" fill="none"/>
   <g id="g1125">
    <path id="path1127" fill="#f8f3f9" d="m488.18 150.3c4.793 0.424 9.582 0.848 14.374 1.271 1.812 0.161 1.797-2.613 0-2.771-4.792-0.423-9.581-0.848-14.374-1.271-1.812-0.16-1.795 2.612 0 2.771z"/>
   </g>
  </g>
  <g id="g1129" transform="matrix(.19057 0 0 .19057 -78.64 1002.3)">
   <line id="line1131" y2="162.46" x2="501.56" y1="161.19" x1="487.18" fill="none"/>
   <g id="g1133">
    <path id="path1135" fill="#f8f3f9" d="m487.18 162.58c4.791 0.424 9.583 0.848 14.374 1.271 1.812 0.161 1.796-2.613 0-2.772-4.791-0.423-9.583-0.848-14.374-1.271-1.813-0.16-1.796 2.612 0 2.772z"/>
   </g>
  </g>
  <g id="g1137" transform="matrix(.19057 0 0 .19057 -78.64 1002.3)">
   <line id="line1139" y2="174.76" x2="500.43" y1="173.49" x1="486.05" fill="none"/>
   <g id="g1141">
    <path id="path1143" fill="#f8f3f9" d="m486.06 174.87c4.791 0.424 9.583 0.848 14.374 1.272 1.812 0.161 1.796-2.612 0-2.772-4.791-0.423-9.583-0.848-14.374-1.271-1.813-0.162-1.796 2.612 0 2.771z"/>
   </g>
  </g>
  <g id="g1145" transform="matrix(.19057 0 0 .19057 -78.64 1002.3)">
   <line id="line1147" y2="203.3" x2="499.29" y1="202.03" x1="484.91" fill="none"/>
   <g id="g1149">
    <path id="path1151" fill="#f8f3f9" d="m484.91 203.42c4.792 0.422 9.582 0.848 14.375 1.271 1.811 0.161 1.795-2.612 0-2.771-4.793-0.423-9.583-0.849-14.375-1.271-1.811-0.163-1.796 2.612 0 2.771z"/>
   </g>
  </g>
  <g id="g1153" transform="matrix(.19057 0 0 .19057 -78.64 1002.3)">
   <line id="line1155" y2="188.06" x2="500.41" y1="186.79" x1="486.04" fill="none"/>
   <g id="g1157">
    <path id="path1159" fill="#f8f3f9" d="m486.04 188.17c4.792 0.423 9.582 0.848 14.375 1.271 1.811 0.161 1.796-2.612 0-2.771-4.793-0.424-9.583-0.848-14.375-1.272-1.811-0.16-1.796 2.613 0 2.772z"/>
   </g>
  </g>
  <g id="g1161" transform="matrix(.19057 0 0 .19057 -78.64 1002.3)">
   <line id="line1163" y2="217.87" x2="499.29" y1="216.6" x1="484.91" fill="none"/>
   <g id="g1165">
    <path id="path1167" fill="#f8f3f9" d="m484.91 217.99c4.792 0.423 9.582 0.848 14.375 1.271 1.811 0.161 1.795-2.613 0-2.771-4.793-0.423-9.583-0.848-14.375-1.271-1.811-0.16-1.796 2.612 0 2.771z"/>
   </g>
  </g>
  <g id="g1169" transform="matrix(.19057 0 0 .19057 -78.64 1002.3)">
   <polyline id="polyline1171" points="546.26 125.12 546.83 128.36 547.81 129.46 549.14 132.56 550.97 134.41 553.79 136.31 556.16 137.62 559.06 139.01 563.07 139.01"/>
   <g id="g1173">
    <path id="path1175" fill="#f8f3f9" d="m544.91 125.48c0.656 3.765 2.418 8.144 5.797 10.417 1.836 1.237 3.664 2.388 5.665 3.354 2.403 1.161 3.99 1.144 6.7 1.144 1.816 0 1.816-2.771 0-2.771h-2.974c-0.458 0-1.289-0.273-0.452 0.129-0.617-0.298-1.233-0.597-1.854-0.895-1.637-0.791-3.19-1.688-4.695-2.702-2.058-1.386-2.883-2.652-3.861-4.917-0.21-0.485-1.181-2.04-1.065-1.388-0.181-1.037-0.36-2.073-0.543-3.11-0.308-1.757-3.023-1.009-2.718 0.739z"/>
   </g>
  </g>
 </g>
</svg>
