<?xml version="1.0" encoding="UTF-8" standalone="no"?>
<!-- Created with Inkscape (http://www.inkscape.org/) -->
<svg id="svg4200" xmlns:rdf="http://www.w3.org/1999/02/22-rdf-syntax-ns#" xmlns="http://www.w3.org/2000/svg" height="45" width="45" version="1.1" xmlns:cc="http://creativecommons.org/ns#" xmlns:dc="http://purl.org/dc/elements/1.1/">
 <metadata id="metadata4205">
  <rdf:RDF>
   <cc:Work rdf:about="">
    <dc:format>image/svg+xml</dc:format>
    <dc:type rdf:resource="http://purl.org/dc/dcmitype/StillImage"/>
    <dc:title/>
   </cc:Work>
  </rdf:RDF>
 </metadata>
 <g id="layer1" transform="translate(0 -1007.4)">
  <g id="g793" transform="matrix(.26321 0 0 .19462 -113.09 961.9)">
   <ellipse id="ellipse795" d="m 544.27898,332.668 c 0,16.69502 -13.77172,30.229 -30.76,30.229 -16.98828,0 -30.76,-13.53398 -30.76,-30.229 0,-16.69502 13.77172,-30.229 30.76,-30.229 16.98828,0 30.76,13.53398 30.76,30.229 z" cx="513.52" rx="30.76" cy="332.67" ry="30.229"/>
   <g id="g797">
    <path id="path799" fill="#efeff8" d="m481.35 332.67c0.45 17.542 14.318 31.172 32.166 31.615 17.847 0.443 31.735-14.738 32.169-31.615 0.45-17.538-14.995-31.188-32.169-31.615-17.846-0.443-31.733 14.739-32.166 31.615-0.047 1.789 2.773 1.784 2.819 0 0.412-16.023 13.044-28.438 29.347-28.843 16.302-0.405 28.951 13.433 29.351 28.843 0.411 16.021-13.668 28.453-29.351 28.844-16.299 0.404-28.949-13.433-29.347-28.844-0.046-1.783-2.866-1.788-2.819 0z"/>
   </g>
  </g>
  <g id="g801" transform="matrix(.26321 0 0 .19462 -113.09 961.9)">
   <rect id="rect803" y="361.07" x="488.27" height="62.618" width="51.515"/>
   <g id="g805">
    <path id="path807" fill="#efeff8" d="m539.78 422.3h-51.515c0.472 0.464 0.939 0.925 1.41 1.386v-62.618c-0.471 0.462-0.938 0.923-1.41 1.386h51.515c-0.472-0.462-0.939-0.923-1.41-1.386v62.618c0 1.789 2.819 1.789 2.819 0v-62.618c0-0.755-0.641-1.386-1.409-1.386h-51.515c-0.769 0-1.409 0.631-1.409 1.386v62.618c0 0.756 0.642 1.388 1.409 1.388h51.515c1.818-0.002 1.818-2.774 0-2.774z"/>
   </g>
  </g>
  <g id="g809" transform="matrix(.26321 0 0 .19462 -113.09 961.9)">
   <path id="path811" d="m487.72 355.67c-1.264-0.15-4.104-0.171-5.802-0.111-1.945 0.071-4.911-0.401-6.826 0.173-1.692 0.507-2.109 3.371-1.888 5.859 0.357 3.988 5.426 3.856 7.83 4.063 6.489 0.562 13.085 0.41 19.589 0.41 15.64 0.002 31.203 0.782 46.842-0.183 2.299-0.142 3.725-0.429 6.076-2.328 2.418-1.95 0.703-4.216-1.148-5.47-3.962-2.682-10.668-1.961-15.414-1.954-6.961 0.011-13.945-0.583-20.857-0.151-10.509 0.659-18.392-0.095-28.402-0.308"/>
   <g id="g813">
    <path id="path815" fill="#efeff8" d="m487.72 354.28c-4.27-0.317-12.738-2.015-15.305 2.312-2.42 4.086-0.01 8.663 4.109 9.926 2.7 0.83 6.09 0.647 8.854 0.795 5.813 0.312 11.661 0.124 17.481 0.138 11.896 0.029 23.783 0.443 35.679 0.188 3.36-0.07 16.447 0.949 17.353-4.919 0.794-5.137-4.801-7.503-9.265-7.875-9.295-0.775-19.104-0.576-28.427-0.357-10.205 0.24-20.274 0.049-30.479-0.208-1.819-0.045-1.815 2.726 0 2.771 12.269 0.307 24.473 0.029 36.728 0.178 6.296 0.078 12.573 0.192 18.869 0.193 1.757 0 14.211 1.51 8.202 5.887-2.729 1.988-7.551 1.375-10.747 1.494-14.096 0.529-28.217-0.152-42.316-0.125-6.467 0.012-12.882-0.086-19.333-0.552-2.422 0.077-3.938-1.275-4.557-4.059-0.138-4 4.043-3.23 6.082-3.138 2.359 0.106 4.712-0.056 7.074 0.12 1.813 0.138 1.799-2.634-0.002-2.769z"/>
   </g>
  </g>
  <g id="g817" transform="matrix(.26321 0 0 .19462 -113.09 961.9)">
   <rect id="rect819" y="423.69" x="476" height="10.839" width="77.904"/>
   <g id="g821">
    <path id="path823" fill="#efeff8" d="m553.9 433.14h-77.904c0.471 0.465 0.939 0.925 1.411 1.389v-10.839c-0.472 0.465-0.94 0.925-1.411 1.387h77.904c-0.472-0.462-0.939-0.922-1.41-1.387v10.839c0 1.784 2.818 1.784 2.818 0v-10.839c0-0.757-0.641-1.387-1.408-1.387h-77.904c-0.77 0-1.409 0.63-1.409 1.387v10.839c0 0.755 0.641 1.386 1.409 1.386h77.904c1.82-0.002 1.82-2.775 0-2.775z"/>
   </g>
  </g>
  <g id="g825" transform="matrix(.26321 0 0 .19462 -113.09 961.9)">
   <rect id="rect827" y="434.52" x="470.2" height="13.848" width="89.885"/>
   <g id="g829">
    <path id="path831" fill="#efeff8" d="m560.08 446.99h-89.885c0.471 0.464 0.938 0.926 1.411 1.386v-13.846c-0.473 0.46-0.94 0.922-1.411 1.386h89.885c-0.47-0.464-0.939-0.926-1.409-1.386v13.846c0 1.789 2.819 1.789 2.819 0v-13.846c0-0.761-0.641-1.389-1.41-1.389h-89.885c-0.771 0-1.41 0.628-1.41 1.389v13.846c0 0.759 0.64 1.387 1.41 1.387h89.885c1.819 0 1.819-2.773 0-2.773z"/>
   </g>
  </g>
  <g id="g833" transform="matrix(.26321 0 0 .19462 -113.09 961.9)">
   <line id="line835" y2="330.45" x2="509.43" y1="318.91" x1="509.43" fill="none"/>
   <g id="g837">
    <path id="path839" fill="#efeff8" d="m508.02 318.91v11.539c0 1.787 2.819 1.787 2.819 0v-11.539c0-1.788-2.819-1.788-2.819 0z"/>
   </g>
  </g>
  <g id="g841" transform="matrix(.26321 0 0 .19462 -113.09 961.9)">
   <line id="line843" y2="329.11" x2="518.06" y1="318.91" x1="518.22" fill="none"/>
   <g id="g845">
    <path id="path847" fill="#efeff8" d="m516.81 318.91c-0.052 3.4-0.103 6.801-0.153 10.202-0.026 1.789 2.795 1.786 2.819 0 0.053-3.4 0.104-6.8 0.154-10.202 0.027-1.788-2.794-1.786-2.82 0z"/>
   </g>
  </g>
  <g id="g849" transform="matrix(.26321 0 0 .19462 -113.09 961.9)">
   <polyline id="polyline851" points="502.43 341.67 503.27 342.5 504.05 343.12 504.57 343.33 505.14 343.58 505.88 343.92 506.65 344.4 507.18 344.72 507.92 345.14 508.56 345.31 509.19 345.66 509.82 345.93 510.28 346.07 510.88 346.28 511.55 346.42 512.61 346.59 513.52 346.59 514.65 346.59 515.57 346.28 516.35 345.86 517.16 345.48 517.79 345.14 518.22 344.96 518.78 344.68 519.41 344.44 520.3 343.94 520.92 343.63 521.41 343.43 522.28 343.15 522.9 342.78 523.5 342.43 524.14 341.77 524.61 341.29"/>
   <g id="g853">
    <path id="path855" fill="#efeff8" d="m501.43 342.65c2.658 2.623 7.752 5.326 11.636 5.326 3.81 0 9.901-3.004 12.543-5.707 1.258-1.289-0.732-3.251-1.995-1.96-2.069 2.12-7.562 4.895-10.55 4.895-3.125 0-7.521-2.422-9.642-4.514-1.283-1.267-3.277 0.693-1.992 1.96z"/>
   </g>
  </g>
 </g>
</svg>
