<?xml version="1.0" encoding="UTF-8" standalone="no"?>
<!-- Created with Inkscape (http://www.inkscape.org/) -->
<svg id="svg4200" xmlns:rdf="http://www.w3.org/1999/02/22-rdf-syntax-ns#" xmlns="http://www.w3.org/2000/svg" height="45" width="45" version="1.1" xmlns:cc="http://creativecommons.org/ns#" xmlns:dc="http://purl.org/dc/elements/1.1/">
 <metadata id="metadata4205">
  <rdf:RDF>
   <cc:Work rdf:about="">
    <dc:format>image/svg+xml</dc:format>
    <dc:type rdf:resource="http://purl.org/dc/dcmitype/StillImage"/>
    <dc:title/>
   </cc:Work>
  </rdf:RDF>
 </metadata>
 <g id="layer1" transform="translate(0 -1007.4)">
  <g id="g601" transform="matrix(.15141 0 0 .15141 -34.705 934.87)">
   <ellipse id="ellipse603" d="m 385.87301,503.186 c 0,5.71615 -4.1145,10.35001 -9.19,10.35001 -5.07549,0 -9.19,-4.63386 -9.19,-10.35001 0,-5.71614 4.11451,-10.35 9.19,-10.35 5.0755,0 9.19,4.63386 9.19,10.35 z" cx="376.68" rx="9.19" cy="503.19" ry="10.35"/>
   <g id="g605">
    <path id="path607" fill="#f4f3fa" d="m365.97 503.19c0.322 6.287 4.217 11.455 10.711 11.878 6.475 0.422 10.422-6.239 10.711-11.878 0.32-6.273-4.686-11.487-10.711-11.88-6.477-0.421-10.422 6.241-10.711 11.88-0.102 1.969 2.938 1.959 3.04 0 0.232-4.535 2.874-8.514 7.671-8.825 4.783-0.311 7.463 4.759 7.672 8.825 0.23 4.522-3.225 8.533-7.672 8.823-4.782 0.309-7.463-4.761-7.671-8.823-0.103-1.961-3.142-1.973-3.04 0z"/>
   </g>
  </g>
  <g id="g609" transform="matrix(.15141 0 0 .15141 -34.705 934.87)">
   <path id="path611" d="m410.26 603.19h-66.34s-3.476-60.84 9.672-78.882c10.001-13.722 44.755-12.13 51.668 3.507 9.181 20.767 5 75.375 5 75.375z"/>
   <g id="g613">
    <path id="path615" fill="#f4f3fa" d="m410.26 601.66h-66.34c0.508 0.512 1.012 1.02 1.52 1.529-0.777-13.847-0.594-27.826 0.45-41.652 0.734-9.746 1.999-19.644 5.206-28.908 3.702-10.698 12.451-15.067 23.285-16.016 9.757-0.849 22.583 1.391 28.537 10.049 5.491 7.985 5.607 21.161 6.229 30.418 1.032 15.292 0.746 30.824-0.408 46.109-0.148 1.962 2.891 1.95 3.04 0 1.338-17.706 1.545-35.735-0.194-53.409-0.869-8.841-1.878-19.552-7.59-26.731-6.06-7.624-17.794-9.595-26.867-9.603-8.649-0.011-19.585 2.519-24.853 10.09-5.305 7.628-6.938 17.56-8.211 26.572-2.445 17.319-2.563 35.146-1.693 52.603 0.011 0.161 0.018 0.316 0.027 0.481 0.047 0.83 0.656 1.525 1.52 1.525h66.338c1.963-0.002 1.963-3.057 0.004-3.057z"/>
   </g>
  </g>
  <g id="g617" transform="matrix(.15141 0 0 .15141 -34.705 934.87)">
   <rect id="rect619" y="613.25" x="343.92" height="105.72" width="65.541"/>
   <g id="g621">
    <path id="path623" fill="#f4f3fa" d="m409.46 717.44h-65.541c0.508 0.508 1.012 1.018 1.52 1.527v-105.72c-0.508 0.507-1.012 1.016-1.52 1.525h65.541c-0.508-0.51-1.014-1.019-1.521-1.525v105.72c0 1.969 3.04 1.969 3.04 0v-105.72c0-0.833-0.693-1.528-1.52-1.528h-65.541c-0.828 0-1.52 0.695-1.52 1.528v105.72c0 0.832 0.691 1.525 1.52 1.525h65.541c1.961 0.001 1.961-3.052 0.001-3.052z"/>
   </g>
  </g>
  <g id="g625" transform="matrix(.15141 0 0 .15141 -34.705 934.87)">
   <path id="path627" d="m346.5 601.64c-1.464-0.164-4.756-0.188-6.723-0.123-2.253 0.078-5.692-0.438-7.911 0.193-1.961 0.556-2.446 3.711-2.189 6.455 0.418 4.399 6.291 4.25 9.078 4.478 7.521 0.618 15.166 0.448 22.701 0.45 18.129 0.003 36.168 0.861 54.292-0.2 2.663-0.159 4.315-0.473 7.042-2.565 2.802-2.15 0.814-4.647-1.334-6.03-4.587-2.956-12.363-2.161-17.863-2.153-8.067 0.012-16.163-0.644-24.174-0.166-12.184 0.727-21.316-0.101-32.919-0.339"/>
   <g id="g629">
    <path id="path631" fill="#f4f3fa" d="m346.5 600.12c-4.909-0.38-14.604-2.317-17.638 2.548-3.063 4.915 0.474 9.944 5.208 11.048 9.396 2.185 20.186 0.897 29.75 0.922 13.374 0.028 26.741 0.465 40.118 0.241 3.847-0.066 20.338 1.463 21.459-5.457 1.051-6.478-6.69-8.26-11.66-8.776-4.786-0.494-9.742 0.016-14.549-0.069-5.865-0.098-11.715-0.366-17.582-0.22-11.748 0.297-23.361 0.04-35.106-0.237-1.962-0.048-1.957 3.007 0 3.055 14.647 0.345 29.256-0.044 43.885 0.223 7.204 0.13 14.407 0.086 21.605 0.21 1.583 0.036 3.151 0.203 4.709 0.497 1.495 0.254 8.652 2.608 3.8 5.969-3.557 2.462-10.082 1.573-14.2 1.694-16.45 0.493-32.92-0.237-49.374-0.178-7.297 0.024-14.801 0.244-22.045-0.82-2.095-0.208-3.342-1.631-3.742-4.267-0.155-4.429 4.947-3.555 7.165-3.462 2.735 0.117 5.462-0.074 8.198 0.132 1.954 0.152 1.939-2.905-0.001-3.053z"/>
   </g>
  </g>
  <g id="g633" transform="matrix(.15141 0 0 .15141 -34.705 934.87)">
   <rect id="rect635" y="718.97" x="334.08" height="11.941" width="85.508"/>
   <g id="g637">
    <path id="path639" fill="#f4f3fa" d="m419.58 729.39h-85.508c0.508 0.51 1.012 1.018 1.521 1.527v-11.943c-0.509 0.511-1.013 1.019-1.521 1.525h85.508c-0.508-0.507-1.014-1.015-1.52-1.525v11.943c0 1.97 3.039 1.97 3.039 0v-11.943c0-0.833-0.691-1.527-1.52-1.527h-85.508c-0.828 0-1.521 0.694-1.521 1.527v11.943c0 0.833 0.692 1.528 1.521 1.528h85.508c1.961 0 1.961-3.055 0.001-3.055z"/>
   </g>
  </g>
  <g id="g641" transform="matrix(.15141 0 0 .15141 -34.705 934.87)">
   <rect id="rect643" y="730.91" x="328.4" height="12.385" width="97.26"/>
   <g id="g645">
    <path id="path647" fill="#f4f3fa" d="m425.66 741.77h-97.26c0.508 0.513 1.013 1.02 1.521 1.529v-12.384c-0.509 0.509-1.014 1.016-1.521 1.526h97.26c-0.506-0.511-1.012-1.018-1.52-1.526v12.384c0 1.969 3.04 1.969 3.04 0v-12.384c0-0.834-0.692-1.528-1.521-1.528h-97.26c-0.826 0-1.519 0.694-1.519 1.528v12.384c0 0.832 0.692 1.526 1.519 1.526h97.26c1.96-0.001 1.96-3.055 0.001-3.055z"/>
   </g>
  </g>
  <g id="g649" transform="matrix(.15141 0 0 .15141 -34.705 934.87)">
   <rect id="rect651" y="742.51" x="323.14" height="12.087" width="109.35"/>
   <g id="g653">
    <path id="path655" fill="#f4f3fa" d="m432.49 753.07h-109.35c0.506 0.511 1.012 1.02 1.52 1.527v-12.087c-0.508 0.509-1.014 1.017-1.52 1.528h109.35c-0.507-0.512-1.012-1.02-1.521-1.528v12.087c0 1.97 3.04 1.97 3.04 0v-12.087c0-0.834-0.69-1.527-1.52-1.527h-109.35c-0.828 0-1.521 0.693-1.521 1.527v12.087c0 0.834 0.692 1.527 1.521 1.527h109.35c1.963 0.001 1.963-3.054 0.001-3.054z"/>
   </g>
  </g>
  <g id="g657" transform="matrix(.15141 0 0 .15141 -34.705 934.87)">
   <path id="path659" d="m410.1 552.7-63.509-0.942c0.776-5.994 2.374-29.21 17.608-37.06 10.438-5.372 26.746-2.736 33.96 3.389 11.216 9.518 12.653 38.465 11.941 34.613z"/>
   <g id="g661">
    <path id="path663" fill="#f4f3fa" d="m410.1 551.17c-21.17-0.313-42.34-0.63-63.509-0.941 0.507 0.507 1.012 1.017 1.519 1.527 0.975-7.851 2.168-15.566 5.414-22.853 5.544-12.434 17.176-16.947 30.164-15.109 12.004 1.696 18.119 9.015 21.656 20.046 1.266 3.943 2.079 8.039 2.723 12.128 0.252 1.594 0.428 3.195 0.568 4.801 0.198 2.276-0.5 1.353 1.15 0.8 0.623 0.354 1.246 0.711 1.869 1.067-0.047-0.11-0.076-0.224-0.091-0.34-0.419-1.926-3.347-1.109-2.93 0.81 0.012 0.121 0.044 0.231 0.091 0.342 0.281 0.745 1.027 1.351 1.87 1.065 0.009-0.002 0.021-0.007 0.03-0.01 0.469-0.157 0.975-0.534 1.061-1.067 1.158-7.05-2.024-16.483-4.264-22.972-4.125-11.946-12.203-18.1-24.631-19.857-12.188-1.723-23.258 2.582-29.923 13.05-5.301 8.328-6.608 18.507-7.798 28.1-0.104 0.839 0.77 1.515 1.52 1.528 21.169 0.313 42.338 0.629 63.508 0.943 1.962 0.025 1.96-3.03 0.003-3.058z"/>
   </g>
  </g>
  <g id="g665" transform="matrix(.15141 0 0 .15141 -34.705 934.87)">
   <line id="line667" y2="552" x2="362.85" y1="515.34" x1="363.03" fill="none"/>
   <g id="g669">
    <path id="path671" fill="#f4f3fa" d="m361.51 515.34c-0.061 12.218-0.121 24.435-0.181 36.654-0.01 1.97 3.031 1.97 3.039 0 0.062-12.22 0.123-24.437 0.181-36.654 0.01-1.972-3.03-1.969-3.039 0z"/>
   </g>
  </g>
  <g id="g673" transform="matrix(.15141 0 0 .15141 -34.705 934.87)">
   <line id="line675" y2="550.75" x2="377.14" y1="512.34" x1="377.31" fill="none"/>
   <g id="g677">
    <path id="path679" fill="#f4f3fa" d="m375.8 512.34c-0.061 12.805-0.119 25.606-0.18 38.411-0.008 1.968 3.031 1.968 3.039 0 0.06-12.804 0.119-25.605 0.18-38.411 0.01-1.969-3.029-1.969-3.039 0z"/>
   </g>
  </g>
  <g id="g681" transform="matrix(.15141 0 0 .15141 -34.705 934.87)">
   <line id="line683" y2="551.62" x2="392.02" y1="515.09" x1="392.2" fill="none"/>
   <g id="g685">
    <path id="path687" fill="#f4f3fa" d="m390.68 515.1c-0.061 12.172-0.119 24.348-0.179 36.525-0.011 1.967 3.029 1.965 3.038 0 0.06-12.178 0.119-24.354 0.18-36.525 0.01-1.969-3.031-1.968-3.039 0z"/>
   </g>
  </g>
  <g id="g689" transform="matrix(.15141 0 0 .15141 -34.705 934.87)">
   <line id="line691" y2="552" x2="403.77" y1="526.58" x1="403.95" fill="none"/>
   <g id="g693">
    <path id="path695" fill="#f4f3fa" d="m402.43 526.58c-0.061 8.472-0.119 16.942-0.179 25.415-0.015 1.97 3.026 1.97 3.04 0 0.059-8.473 0.119-16.943 0.178-25.415 0.014-1.969-3.026-1.967-3.039 0z"/>
   </g>
  </g>
  <g id="g697" transform="matrix(.15141 0 0 .15141 -34.705 934.87)">
   <line id="line699" y2="552" x2="353.41" y1="525.53" x1="353.59" fill="none"/>
   <g id="g701">
    <path id="path703" fill="#f4f3fa" d="m352.07 525.53c-0.06 8.82-0.119 17.645-0.181 26.467-0.012 1.97 3.027 1.97 3.041 0 0.059-8.822 0.12-17.646 0.18-26.467 0.014-1.968-3.025-1.967-3.04 0z"/>
   </g>
  </g>
  <g id="g705" transform="matrix(.15141 0 0 .15141 -34.705 934.87)">
   <line id="line707" y2="574.07" x2="360.6" y1="562.32" x1="360.6" fill="none"/>
   <g id="g709">
    <path id="path711" fill="#f4f3fa" d="m359.08 562.32v11.75c0 1.967 3.039 1.967 3.039 0v-11.75c0-1.969-3.039-1.969-3.039 0z"/>
   </g>
  </g>
  <g id="g713" transform="matrix(.15141 0 0 .15141 -34.705 934.87)">
   <line id="line715" y2="572.54" x2="368.89" y1="562.32" x1="369.05" fill="none"/>
   <g id="g717">
    <path id="path719" fill="#f4f3fa" d="m367.53 562.32c-0.055 3.406-0.11 6.814-0.167 10.222-0.031 1.968 3.008 1.966 3.039 0 0.055-3.408 0.111-6.816 0.168-10.222 0.032-1.973-3.009-1.966-3.04 0z"/>
   </g>
  </g>
  <g id="g721" transform="matrix(.15141 0 0 .15141 -34.705 934.87)">
   <polyline id="polyline723" points="355.32 584.14 356.04 585.54 356.71 586.58 357.15 586.94 357.63 587.35 358.26 587.94 358.93 588.74 359.38 589.28 360.01 589.98 360.55 590.27 361.09 590.86 361.63 591.33 362.02 591.56 362.54 591.91 363.11 592.14 364.01 592.44 364.78 592.44 365.76 592.44 366.7 592.44 367.51 591.9 369.05 591.2 370.25 590.26 371.36 589.21 372.78 587.34 373.3 585.42 373.85 584.31 374.25 583.49"/>
   <g id="g725">
    <path id="path727" fill="#f4f3fa" d="m354.01 584.91c1.555 3.022 6.13 9.055 10.004 9.055 3.016 0 4.921-0.745 7.312-2.621 2.424-1.896 2.956-4.478 4.242-7.079 0.867-1.762-1.752-3.308-2.625-1.544-1.033 2.097-1.478 4.301-3.209 5.938-1.6 1.513-3.161 2.252-5.333 2.252-2.823 0-6.638-5.347-7.767-7.543-0.9-1.751-3.521-0.204-2.624 1.542z"/>
   </g>
  </g>
 </g>
</svg>
