<?xml version="1.0" encoding="UTF-8" standalone="no"?>
<!-- Created with Inkscape (http://www.inkscape.org/) -->
<svg id="svg4200" xmlns:rdf="http://www.w3.org/1999/02/22-rdf-syntax-ns#" xmlns="http://www.w3.org/2000/svg" height="45" width="45" version="1.1" xmlns:cc="http://creativecommons.org/ns#" xmlns:dc="http://purl.org/dc/elements/1.1/">
 <metadata id="metadata4205">
  <rdf:RDF>
   <cc:Work rdf:about="">
    <dc:format>image/svg+xml</dc:format>
    <dc:type rdf:resource="http://purl.org/dc/dcmitype/StillImage"/>
    <dc:title/>
   </cc:Work>
  </rdf:RDF>
 </metadata>
 <g id="layer1" transform="translate(0 -1007.4)">
  <g id="g857" transform="matrix(.20656 0 0 .20656 -25.799 953.5)">
   <polygon id="polygon859" points="214.89 303.78 214.84 307.64 220.95 307.66 227.06 307.69 227.08 299.95 227.1 292.2 230.09 292.22 232.77 292.22 235.16 292.16 237.82 292.2 237.69 300.02 237.57 307.84 248.75 307.93 248.93 292.05 261.62 292.2 263.84 292.2 266.05 292.2 268.27 292.2 268.27 294.91 268.27 297.62 268.27 300.33 268.27 303.04 268.27 305.75 268.27 308.46 268.27 311.17 268.27 313.88 268.27 316.59 268.27 319.3 268.27 322.02 268.27 324.72 268.27 327.44 268.27 330.14 268.27 332.86 268.27 335.56 268.27 338.28 268.27 340.99 268.27 343.7 268.27 346.41 268.27 349.12 268.27 351.83 197.28 351.83 197.28 318.59 197.28 297.67 197.28 292.2 199.49 292.2 201.71 292.2 203.93 292.2 206.15 292.2 208.37 292.2 210.59 292.2 212.81 292.2 215.02 292.2 214.98 296.06 214.93 299.92"/>
   <g id="g861">
    <path id="path863" fill="#f8f3f9" d="m198.68 351.83v-59.625c-0.471 0.462-0.94 0.924-1.41 1.386h17.75c-0.471-0.462-0.94-0.923-1.41-1.386-0.063 5.146-0.122 10.294-0.185 15.44-0.009 0.758 0.648 1.384 1.41 1.386 4.074 0.016 8.148 0.032 12.223 0.049 0.77 0.004 1.408-0.633 1.41-1.386 0.014-5.163 0.028-10.326 0.04-15.489-0.471 0.462-0.94 0.924-1.41 1.386 3.572 0.021 7.145-0.052 10.717 0-0.47-0.462-0.939-0.923-1.41-1.386-0.083 5.212-0.168 10.423-0.253 15.635-0.012 0.76 0.651 1.379 1.41 1.386 3.729 0.032 7.458 0.064 11.186 0.097 0.775 0.006 1.402-0.635 1.41-1.386 0.059-5.293 0.118-10.587 0.176-15.882-0.47 0.462-0.939 0.923-1.41 1.386 6.449 0.077 12.896 0.151 19.343 0.151-0.471-0.462-0.939-0.923-1.411-1.386v59.625c0.471-0.462 0.94-0.923 1.411-1.386h-70.998c-1.819 0-1.819 2.772 0 2.772h70.998c0.769 0 1.41-0.63 1.41-1.386v-59.625c0-0.755-0.641-1.386-1.41-1.386-6.449 0-12.895-0.074-19.343-0.151-0.775-0.008-1.402 0.638-1.41 1.386-0.059 5.294-0.118 10.588-0.176 15.882 0.47-0.462 0.939-0.923 1.41-1.386-3.728-0.032-7.458-0.064-11.186-0.096 0.471 0.462 0.94 0.923 1.41 1.386 0.085-5.212 0.169-10.423 0.253-15.635 0.013-0.764-0.651-1.375-1.41-1.386-3.572-0.052-7.144 0.021-10.717 0-0.771-0.004-1.409 0.634-1.411 1.386-0.012 5.163-0.025 10.326-0.039 15.489 0.47-0.462 0.939-0.923 1.41-1.385-4.075-0.017-8.149-0.034-12.223-0.05 0.47 0.463 0.939 0.924 1.41 1.386 0.063-5.146 0.122-10.294 0.185-15.44 0.009-0.756-0.648-1.386-1.41-1.386h-17.75c-0.768 0-1.41 0.631-1.41 1.386v59.625c0 1.787 2.82 1.787 2.82-0.001z"/>
   </g>
  </g>
  <g id="g865" transform="matrix(.20656 0 0 .20656 -25.799 953.5)">
   <rect id="rect867" y="358.1" x="197.96" height="81.897" width="69.617"/>
   <g id="g869">
    <path id="path871" fill="#f8f3f9" d="m267.58 438.61h-69.617c0.47 0.462 0.94 0.923 1.41 1.387v-81.897c-0.47 0.462-0.94 0.923-1.41 1.386h69.617c-0.47-0.462-0.939-0.923-1.41-1.386v81.897c0 1.786 2.82 1.786 2.82 0v-81.897c0-0.756-0.641-1.386-1.41-1.386h-69.617c-0.768 0-1.41 0.63-1.41 1.386v81.897c0 0.755 0.643 1.386 1.41 1.386h69.617c1.818 0 1.818-2.773 0-2.773z"/>
   </g>
  </g>
  <g id="g873" transform="matrix(.20656 0 0 .20656 -25.799 953.5)">
   <rect id="rect875" y="439.99" x="188.81" height="9.978" width="89.603"/>
   <g id="g877">
    <path id="path879" fill="#f8f3f9" d="m278.41 448.59h-89.603c0.47 0.461 0.939 0.922 1.41 1.386v-9.978c-0.47 0.461-0.939 0.922-1.41 1.386h89.603c-0.471-0.464-0.94-0.925-1.41-1.386v9.978c0 1.786 2.82 1.786 2.82 0v-9.978c0-0.756-0.641-1.387-1.41-1.387h-89.603c-0.769 0-1.41 0.631-1.41 1.387v9.978c0 0.755 0.642 1.387 1.41 1.387h89.603c1.82-0.002 1.82-2.773 0-2.773z"/>
   </g>
  </g>
  <g id="g881" transform="matrix(.20656 0 0 .20656 -25.799 953.5)">
   <rect id="rect883" y="449.97" x="182.13" height="12.749" width="103.38"/>
   <g id="g885">
    <path id="path887" fill="#f8f3f9" d="m285.51 461.34h-103.38c0.47 0.462 0.94 0.923 1.41 1.386v-12.749c-0.47 0.462-0.94 0.923-1.41 1.387h103.38c-0.471-0.464-0.94-0.925-1.41-1.387v12.749c0 1.786 2.82 1.786 2.82 0v-12.749c0-0.755-0.64-1.386-1.41-1.386h-103.38c-0.769 0-1.41 0.631-1.41 1.386v12.749c0 0.756 0.641 1.387 1.41 1.387h103.38c1.819-0.002 1.819-2.773 0-2.773z"/>
   </g>
  </g>
  <g id="g889" transform="matrix(.20656 0 0 .20656 -25.799 953.5)">
   <path id="path891" d="m201.54 352.05c-1.499-0.151-4.874-0.17-6.89-0.11-2.309 0.069-5.833-0.402-8.106 0.171-2.011 0.506-2.509 3.371-2.244 5.858 0.426 3.989 6.447 3.857 9.303 4.064 7.708 0.562 15.542 0.41 23.269 0.41 18.581 0.002 37.066 0.78 55.646-0.185 2.73-0.14 4.422-0.428 7.215-2.326 2.871-1.951 0.834-4.216-1.364-5.471-4.703-2.682-12.672-1.961-18.311-1.954-8.268 0.011-16.566-0.582-24.777-0.151-12.484 0.66-21.847-0.092-33.741-0.306"/>
   <g id="g893">
    <path id="path895" fill="#f8f3f9" d="m201.54 350.67c-3.928-0.268-7.891-0.132-11.826-0.227-2.326-0.057-5.441 0.268-6.266 2.87-1.92 6.063 1.057 9.126 6.965 9.896 10.876 1.417 22.203 0.578 33.143 0.655 12.609 0.089 25.213 0.393 37.823 0.176 5.264-0.091 19.703 1.517 21.105-6.141 1.096-5.98-11.16-6.747-14.571-6.853-22.107-0.69-44.25 0.082-66.373-0.376-1.819-0.038-1.816 2.734 0 2.771 15.38 0.319 30.745-0.079 46.108 0.226 6.761 0.135 13.507 0.111 20.266 0.151 2.035 0.012 4.021 0.207 6.027 0.55 1.198 0.205 8.366 2.358 3.519 5.333-3.599 2.207-9.769 1.403-13.854 1.519-16.979 0.482-33.976-0.2-50.958-0.145-7.041 0.023-14.039-0.129-21.069-0.539-2.459-0.143-5.781-0.359-5.93-4.075-0.164-4.035 5.396-3.218 7.49-3.139 2.802 0.107 5.597-0.071 8.402 0.121 1.815 0.122 1.803-2.649-0.001-2.773z"/>
   </g>
  </g>
  <g id="g897" transform="matrix(.20656 0 0 .20656 -25.799 953.5)">
   <line id="line899" y2="328.65" x2="226.43" y1="317.11" x1="226.43" fill="none"/>
   <g id="g901">
    <path id="path903" fill="#f8f3f9" d="m225.02 317.11v11.539c0 1.787 2.82 1.787 2.82 0v-11.539c0-1.787-2.82-1.787-2.82 0z"/>
   </g>
  </g>
  <g id="g905" transform="matrix(.20656 0 0 .20656 -25.799 953.5)">
   <line id="line907" y2="328.16" x2="235.06" y1="317.11" x1="235.22" fill="none"/>
   <g id="g909">
    <path id="path911" fill="#f8f3f9" d="m233.81 317.11c-0.05 3.682-0.102 7.365-0.154 11.046-0.025 1.789 2.795 1.786 2.82 0 0.051-3.682 0.103-7.365 0.155-11.046 0.024-1.787-2.796-1.786-2.821 0z"/>
   </g>
  </g>
  <g id="g913" transform="matrix(.20656 0 0 .20656 -25.799 953.5)">
   <polyline id="polyline915" points="221.36 339.51 222.07 339.85 222.72 340.11 223.16 340.2 223.63 340.29 224.24 340.43 224.89 340.63 225.33 340.76 225.95 340.93 226.48 341 227.01 341.15 227.54 341.26 227.92 341.32 228.42 341.4 228.98 341.46 229.86 341.53 230.62 341.53 231.56 341.53 232.33 341.4 232.98 341.23 233.66 341.08 234.19 340.93 234.54 340.86 235.01 340.75 235.54 340.65 236.27 340.44 236.8 340.32 237.21 340.24 237.93 340.12 238.45 339.97 238.95 339.82 239.48 339.55 239.88 339.35"/>
   <g id="g917">
    <path id="path919" fill="#f8f3f9" d="m220.65 340.71c5.985 2.905 13.987 2.831 19.932-0.157 1.62-0.813 0.192-3.205-1.424-2.392-4.984 2.504-12.064 2.592-17.084 0.156-1.626-0.788-3.055 1.603-1.424 2.393z"/>
   </g>
  </g>
 </g>
</svg>
