<?xml version="1.0" encoding="UTF-8" standalone="no"?>
<!-- Created with Inkscape (http://www.inkscape.org/) -->
<svg id="svg4200" xmlns:rdf="http://www.w3.org/1999/02/22-rdf-syntax-ns#" xmlns="http://www.w3.org/2000/svg" height="45" width="45" version="1.1" xmlns:cc="http://creativecommons.org/ns#" xmlns:dc="http://purl.org/dc/elements/1.1/">
 <metadata id="metadata4205">
  <rdf:RDF>
   <cc:Work rdf:about="">
    <dc:format>image/svg+xml</dc:format>
    <dc:type rdf:resource="http://purl.org/dc/dcmitype/StillImage"/>
    <dc:title/>
   </cc:Work>
  </rdf:RDF>
 </metadata>
 <g id="layer1" transform="translate(0 -1007.4)">
  <g id="g35" transform="matrix(.18476 0 0 .18476 -18.76 1003.9)">
   <rect id="rect37" height="81.661" width="63.539" y="143.38" x="190.59" fill="#fff"/>
   <g id="g39">
    <path id="path41" d="m254.13 223.66h-63.539c0.47 0.462 0.939 0.923 1.41 1.385v-81.661c-0.47 0.462-0.939 0.923-1.41 1.386h63.539c-0.47-0.462-0.939-0.924-1.41-1.386v81.661c0 1.788 2.82 1.788 2.82 0v-81.661c0-0.756-0.642-1.387-1.41-1.387h-63.539c-0.769 0-1.41 0.63-1.41 1.387v81.661c0 0.756 0.641 1.387 1.41 1.387h63.539c1.819 0 1.819-2.772 0-2.772z"/>
   </g>
  </g>
  <g id="g43" transform="matrix(.18476 0 0 .18476 -18.76 1003.9)">
   <path id="path45" fill="#fff" d="m233.55 51.544c-7.59 6.451-18.05 1.08-19.995-8.103-0.536-2.534 1.144-5.308 2.867-7.131 3.694-3.905 11.766-3.428 15.851-0.197 3.182 2.518 5.834 5.856 5.015 10.058-0.303 1.562-3.738 5.373-3.738 5.373"/>
   <g id="g47">
    <path id="path49" d="m232.56 50.563c-11.221 8.651-25.039-10.33-12.025-15.137 4.593-1.697 9.481 0.334 12.759 3.468 4.247 4.06 2.537 7.996-0.734 11.669-1.193 1.339 0.794 3.307 1.994 1.96 3.96-4.45 6.228-9.438 1.621-14.597-4.874-5.459-13.151-7.961-19.661-3.536-6.521 4.431-4.653 12.186-0.127 17.129 4.923 5.378 12.682 5.233 18.167 1.004 1.428-1.102-0.581-3.048-1.994-1.96z"/>
   </g>
  </g>
  <g id="g51" transform="matrix(.18476 0 0 .18476 -18.76 1003.9)">
   <path id="path53" fill="#fff" d="m252.51 85.684c0-6.276-2.256-17.688-4.376-24.47-2.283-7.3-11.691-8.307-18.904-9.279-12.677-1.708-22.117 5.624-28.691 15.389-14.343 21.312-8.853 49.431-9.208 73.129 3.497 0.683 23.8 0.06 29.581 0.026 10.89-0.065 21.918 0.412 32.791-0.038 0.239-4.25 0.222-8.236 0.111-12.5-0.225-8.654 1.644-13.82-1.766-17.307-4.59-4.694-26.126 0.241-30.236 5.059-0.374-8.039 4.826-12.346 12.051-16.338 5.145-2.842 13.109-1.851 18.802-2.135 0.113-3.706-0.155-7.814-0.155-11.536"/>
   <g id="g55">
    <path id="path57" d="m253.92 85.684c-0.135-6.417-1.396-12.798-2.848-19.035-1.362-5.845-2.837-10.312-8.534-13.123-10.143-5.001-24.518-4.468-33.463 2.508-25.896 20.199-18.887 56.159-19.152 84.42-0.006 0.563 0.428 1.243 1.034 1.337 7.575 1.182 15.754 0.325 23.386 0.182 13.12-0.248 26.244 0.325 39.36-0.145 0.795-0.028 1.374-0.609 1.41-1.386 0.385-8.18 0.773-16.757 0.356-24.936-0.21-4.1-2.611-6.892-6.596-7.798-8.026-1.827-22.218 0.989-28.06 7.005 0.802 0.326 1.604 0.653 2.408 0.98-0.007-7.013 4.225-10.895 9.935-14.338 5.888-3.551 12.921-2.537 19.507-2.75 0.776-0.024 1.399-0.611 1.41-1.386 0.059-3.847-0.114-7.689-0.153-11.535-0.018-1.787-2.838-1.789-2.82 0 0.04 3.847 0.212 7.69 0.155 11.537 0.47-0.462 0.939-0.923 1.41-1.386-8.109 0.262-15.142-0.364-22.286 3.945-6.083 3.67-9.983 8.761-9.975 15.914 0.001 1.188 1.548 1.864 2.407 0.98 5.216-5.372 16.593-6.809 23.694-6.49 6.383 0.287 6.334 5.711 6.073 10.708-0.341 6.516 0.023 13.031-0.283 19.551 0.47-0.462 0.939-0.924 1.41-1.386-16.989 0.607-34.073 0.173-51.082 0.319-2.952 0.026-5.905 0.024-8.855-0.09-1.939-0.074-1.011-0.115-1.012-2.167-0.002-2.271-0.071-4.543-0.137-6.813-0.275-9.403-0.829-18.785-0.484-28.194 0.663-18.019 7.044-41.173 26.34-47.939 7.308-2.562 22.183-1.239 27.269 5.285 2.467 3.165 2.911 9.075 3.69 12.866 0.903 4.398 1.572 8.868 1.666 13.359 0.037 1.785 2.857 1.788 2.82 0.001z"/>
   </g>
  </g>
  <g id="g59" transform="matrix(.18476 0 0 .18476 -18.76 1003.9)">
   <line id="line61" y2="80.165" x2="225.98" y1="68.626" x1="225.98" fill="none"/>
   <g id="g63">
    <path id="path65" d="m224.57 68.626v11.539c0 1.787 2.82 1.787 2.82 0v-11.539c0-1.786-2.82-1.786-2.82 0z"/>
   </g>
  </g>
  <g id="g67" transform="matrix(.18476 0 0 .18476 -18.76 1003.9)">
   <line id="line69" y2="79.502" x2="234.62" y1="68.626" x1="234.78" fill="none"/>
   <g id="g71">
    <path id="path73" d="m233.37 68.626c-0.05 3.625-0.102 7.25-0.154 10.875-0.025 1.789 2.795 1.787 2.82 0 0.051-3.625 0.103-7.25 0.155-10.875 0.023-1.787-2.796-1.785-2.821 0z"/>
   </g>
  </g>
  <g id="g75" transform="matrix(.18476 0 0 .18476 -18.76 1003.9)">
   <rect id="rect77" height="9.978" width="81.781" y="225.04" x="182.23" fill="#fff"/>
   <g id="g79">
    <path id="path81" d="m264.01 233.64h-81.781c0.471 0.462 0.94 0.924 1.41 1.386v-9.978c-0.47 0.462-0.939 0.924-1.41 1.387h81.781c-0.47-0.463-0.939-0.924-1.41-1.387v9.978c0 1.787 2.82 1.787 2.82 0v-9.978c0-0.756-0.641-1.385-1.41-1.385h-81.781c-0.77 0-1.41 0.629-1.41 1.385v9.978c0 0.756 0.64 1.386 1.41 1.386h81.781c1.818 0 1.818-2.772 0-2.772z"/>
   </g>
  </g>
  <g id="g83" transform="matrix(.18476 0 0 .18476 -18.76 1003.9)">
   <rect id="rect85" height="12.75" width="94.355" y="235.02" x="176.14" fill="#fff"/>
   <g id="g87">
    <path id="path89" d="m270.5 246.39h-94.355c0.47 0.462 0.939 0.923 1.41 1.386v-12.75c-0.471 0.462-0.94 0.923-1.41 1.386h94.355c-0.471-0.463-0.94-0.924-1.41-1.386v12.75c0 1.787 2.82 1.787 2.82 0v-12.75c0-0.756-0.64-1.386-1.41-1.386h-94.355c-0.77 0-1.41 0.629-1.41 1.386v12.75c0 0.756 0.641 1.386 1.41 1.386h94.355c1.818 0 1.818-2.772 0-2.772z"/>
   </g>
  </g>
  <g id="g123" transform="matrix(.18476 0 0 .18476 -18.76 1003.9)">
   <path id="path125" fill="#fff" d="m194.76 135.54c-1.369-0.149-4.45-0.171-6.289-0.111-2.108 0.071-5.325-0.401-7.4 0.173-1.835 0.507-2.289 3.371-2.047 5.857 0.389 3.989 5.883 3.858 8.49 4.065 7.036 0.561 14.186 0.409 21.237 0.41 16.959 0.002 33.832 0.78 50.788-0.184 2.491-0.142 4.036-0.428 6.587-2.327 2.619-1.951 0.761-4.216-1.245-5.47-4.295-2.683-11.566-1.961-16.712-1.955-7.545 0.011-15.12-0.582-22.613-0.15-11.396 0.658-19.942-0.093-30.796-0.308"/>
   <g id="g127">
    <path id="path129" d="m194.76 134.15c-4.583-0.342-13.644-2.115-16.49 2.313-2.875 4.473 0.474 9.031 4.866 10.023 8.798 1.986 18.876 0.817 27.826 0.835 12.511 0.026 25.016 0.422 37.528 0.22 3.574-0.058 19.013 1.343 20.065-4.949 0.986-5.902-6.287-7.499-10.896-7.961-4.478-0.45-9.112 0.009-13.609-0.064-5.487-0.088-10.959-0.333-16.449-0.199-10.988 0.267-21.852 0.034-32.841-0.218-1.819-0.042-1.815 2.729 0 2.772 13.701 0.313 27.37-0.04 41.054 0.203 6.739 0.118 13.477 0.079 20.21 0.191 1.48 0.034 2.949 0.185 4.407 0.452 1.369 0.226 8.102 2.36 3.558 5.413-3.336 2.24-9.434 1.426-13.29 1.539-15.39 0.447-30.796-0.218-46.188-0.163-6.828 0.023-13.847 0.224-20.625-0.743-1.951-0.186-3.121-1.475-3.509-3.872-0.148-4.019 4.654-3.224 6.714-3.139 2.559 0.106 5.109-0.071 7.669 0.12 1.815 0.135 1.802-2.637 0-2.773z"/>
   </g>
  </g>
 </g>
</svg>
