<?xml version="1.0" encoding="UTF-8" standalone="no"?>
<!-- Created with Inkscape (http://www.inkscape.org/) -->
<svg id="svg4200" xmlns:rdf="http://www.w3.org/1999/02/22-rdf-syntax-ns#" xmlns="http://www.w3.org/2000/svg" height="45" width="45" version="1.1" xmlns:cc="http://creativecommons.org/ns#" xmlns:dc="http://purl.org/dc/elements/1.1/">
 <metadata id="metadata4205">
  <rdf:RDF>
   <cc:Work rdf:about="">
    <dc:format>image/svg+xml</dc:format>
    <dc:type rdf:resource="http://purl.org/dc/dcmitype/StillImage"/>
    <dc:title/>
   </cc:Work>
  </rdf:RDF>
 </metadata>
 <g id="layer1" transform="translate(0 -1007.4)">
  <g id="g3" transform="matrix(.14741 0 0 .14741 -11.494 938.32)">
   <polygon id="polygon5" points="217.79 486.54 223.07 486.54 228.35 486.54 233.63 486.54 238.91 486.54 238.91 505.08 248.81 505.23 248.8 517.4 237.31 517.79 236.96 545.93 228.75 545.93 218.5 545.93 218.33 517.79 205.76 517.79 205.76 504.52 217.79 505.08" fill="#fff"/>
   <g id="g7">
    <path id="path9" d="m235.79 517.79c-0.116 9.38-0.232 18.759-0.351 28.141 0.508-0.51 1.012-1.018 1.521-1.528h-18.454c0.507 0.511 1.012 1.019 1.518 1.528-0.057-9.382-0.114-18.761-0.174-28.141-0.004-0.837-0.686-1.528-1.519-1.528h-12.565c0.507 0.509 1.012 1.018 1.521 1.528v-13.268c-0.509 0.509-1.014 1.017-1.521 1.528 4.011 0.186 8.02 0.375 12.031 0.562 0.827 0.038 1.519-0.723 1.519-1.525v-18.539c-0.508 0.509-1.012 1.017-1.519 1.529h21.117c-0.507-0.513-1.013-1.02-1.519-1.529v18.537c0 0.842 0.69 1.515 1.519 1.525 3.301 0.051 6.603 0.104 9.903 0.154-0.508-0.512-1.012-1.02-1.52-1.528-0.007 4.058-0.01 8.111-0.014 12.169 0.506-0.508 1.012-1.017 1.518-1.526-3.827 0.128-7.661 0.255-11.492 0.384-1.952 0.065-1.96 3.119 0 3.055 3.831-0.13 7.665-0.254 11.492-0.383 0.833-0.025 1.521-0.674 1.521-1.529 0.005-4.058 0.008-8.111 0.012-12.169 0.003-0.842-0.689-1.515-1.518-1.525-3.301-0.051-6.604-0.104-9.903-0.154 0.509 0.511 1.013 1.02 1.521 1.528v-18.537c0-0.833-0.691-1.526-1.521-1.526h-21.117c-0.83 0-1.521 0.693-1.521 1.526v18.539c0.509-0.511 1.014-1.02 1.521-1.528-4.012-0.188-8.021-0.377-12.031-0.562-0.829-0.041-1.52 0.722-1.52 1.526v13.268c0 0.831 0.69 1.526 1.52 1.526h12.565c-0.507-0.51-1.011-1.019-1.521-1.526 0.06 9.38 0.116 18.759 0.176 28.141 0.005 0.835 0.688 1.528 1.52 1.528h18.454c0.838 0 1.509-0.693 1.52-1.528 0.116-9.382 0.233-18.761 0.349-28.141 0.028-1.975-3.013-1.971-3.038-0.002z"/>
   </g>
  </g>
  <g id="g11" transform="matrix(.14741 0 0 .14741 -11.494 938.32)">
   <polygon id="polygon13" points="265.03 595.65 196.04 595.65 193 535.01 269.29 535.01" fill="#fff"/>
   <g id="g15">
    <path id="path17" d="m265.03 594.12h-68.992c0.507 0.51 1.012 1.02 1.519 1.527-1.012-20.212-2.025-40.423-3.039-60.637-0.508 0.512-1.012 1.02-1.521 1.527h76.288c-0.507-0.508-1.012-1.016-1.519-1.527-1.418 20.214-2.837 40.425-4.254 60.637-0.139 1.966 2.901 1.954 3.038 0 1.418-20.212 2.835-40.423 4.254-60.637 0.06-0.83-0.734-1.528-1.52-1.528h-76.288c-0.794 0-1.56 0.698-1.517 1.528 1.011 20.214 2.025 40.425 3.037 60.637 0.042 0.833 0.66 1.527 1.521 1.527h68.992c1.962 0.001 1.962-3.054 0.001-3.054z"/>
   </g>
  </g>
  <g id="g521" transform="matrix(.14741 0 0 .14741 -11.494 938.32)">
   <rect id="rect523" height="114.46" width="69.262" y="603" x="195.61" fill="#fff"/>
   <g id="g525">
    <path id="path527" d="m264.87 715.93h-69.262c0.508 0.51 1.012 1.02 1.519 1.528v-114.46c-0.507 0.509-1.011 1.017-1.519 1.527h69.262c-0.507-0.511-1.013-1.019-1.521-1.527v114.46c0 1.971 3.039 1.971 3.039 0v-114.46c0-0.831-0.691-1.528-1.519-1.528h-69.262c-0.829 0-1.519 0.697-1.519 1.528v114.46c0 0.835 0.69 1.527 1.519 1.527h69.262c1.961-0.001 1.961-3.055 0.001-3.055z"/>
   </g>
  </g>
  <g id="g529" transform="matrix(.14741 0 0 .14741 -11.494 938.32)">
   <path id="path531" fill="#fff" d="m196.72 590.44c-1.583-0.179-5.148-0.205-7.278-0.133-2.438 0.086-6.162-0.478-8.563 0.208-2.122 0.603-2.647 4.019-2.368 6.991 0.45 4.76 6.808 4.601 9.828 4.848 8.141 0.669 16.415 0.486 24.576 0.488 19.625 0.004 39.155 0.931 58.774-0.218 2.886-0.174 4.674-0.515 7.622-2.779 3.034-2.325 0.884-5.028-1.442-6.527-4.964-3.2-13.385-2.339-19.339-2.331-8.733 0.014-17.498-0.695-26.168-0.177-13.192 0.784-23.08-0.116-35.642-0.37"/>
   <g id="g533">
    <path id="path535" d="m196.72 588.91c-4.147-0.318-8.333-0.157-12.491-0.27-2.551-0.068-5.829 0.41-6.648 3.331-1.815 6.473 0.57 11.017 7.388 11.648 11.64 1.083 23.334 0.69 35.007 0.784 13.318 0.105 26.631 0.468 39.951 0.207 6.404-0.121 19.724 1.493 22.34-6.757 1.99-6.269-10.271-8.177-13.698-8.433-4.897-0.365-9.897 0.066-14.807-0.017-7.145-0.118-14.257-0.463-21.401-0.127-11.908 0.567-23.741-0.087-35.641-0.366-1.96-0.047-1.956 3.009 0 3.055 15.856 0.373 31.676-0.046 47.509 0.241 7.542 0.138 15.063 0.157 22.6 0.208 2.152 0.017 4.239 0.25 6.357 0.66 1.71 0.332 8.974 2.949 3.71 6.592-3.7 2.562-10.326 1.693-14.62 1.832-17.931 0.573-35.886-0.237-53.82-0.176-7.441 0.026-14.829-0.156-22.255-0.644-2.892-0.187-6.078-0.594-6.235-4.986-0.175-4.925 5.412-3.979 7.883-3.873 2.961 0.124 5.911-0.08 8.873 0.144 1.952 0.154 1.939-2.901-0.002-3.053z"/>
   </g>
  </g>
  <g id="g537" transform="matrix(.14741 0 0 .14741 -11.494 938.32)">
   <rect id="rect539" height="12.934" width="92.572" y="717.45" x="183.27" fill="#fff"/>
   <g id="g541">
    <path id="path543" d="m275.84 728.86h-92.572c0.506 0.51 1.013 1.016 1.52 1.527v-12.931c-0.507 0.511-1.014 1.019-1.52 1.527h92.572c-0.507-0.509-1.011-1.017-1.519-1.527v12.931c0 1.97 3.038 1.97 3.038 0v-12.931c0-0.835-0.688-1.528-1.52-1.528h-92.572c-0.829 0-1.519 0.693-1.519 1.528v12.931c0 0.833 0.69 1.528 1.519 1.528h92.572c1.961 0.001 1.961-3.055 0.001-3.055z"/>
   </g>
  </g>
  <g id="g545" transform="matrix(.14741 0 0 .14741 -11.494 938.32)">
   <rect id="rect547" height="12.86" width="105.29" y="730.39" x="177.13" fill="#fff"/>
   <g id="g549">
    <path id="path551" d="m282.42 741.72h-105.29c0.507 0.509 1.011 1.016 1.519 1.529v-12.86c-0.508 0.509-1.012 1.018-1.519 1.528h105.29c-0.507-0.511-1.012-1.02-1.519-1.528v12.86c0 1.968 3.037 1.968 3.037 0v-12.86c0-0.831-0.69-1.527-1.519-1.527h-105.29c-0.83 0-1.52 0.696-1.52 1.527v12.86c0 0.831 0.691 1.527 1.52 1.527h105.29c1.961 0 1.961-3.056 0.001-3.056z"/>
   </g>
  </g>
  <g id="g553" transform="matrix(.14741 0 0 .14741 -11.494 938.32)">
   <rect id="rect555" height="13.507" width="118.39" y="742.02" x="171.42" fill="#fff"/>
   <g id="g557">
    <path id="path559" d="m289.81 754h-118.39c0.508 0.513 1.013 1.019 1.521 1.529v-13.508c-0.509 0.509-1.014 1.017-1.521 1.526h118.39c-0.507-0.51-1.011-1.018-1.52-1.526v13.508c0 1.97 3.04 1.97 3.04 0v-13.508c0-0.835-0.69-1.529-1.521-1.529h-118.39c-0.832 0-1.518 0.694-1.518 1.529v13.508c0 0.834 0.687 1.527 1.518 1.527h118.39c1.961 0 1.961-3.056 0.001-3.056z"/>
   </g>
  </g>
  <g id="g561" transform="matrix(.14741 0 0 .14741 -11.494 938.32)">
   <line id="line563" y2="562.85" x2="214.62" y1="550.88" x1="214.62" fill="none"/>
   <g id="g565">
    <path id="path567" d="m213.1 550.88v11.973c0 1.971 3.038 1.971 3.038 0v-11.973c0-1.973-3.038-1.973-3.038 0z"/>
   </g>
  </g>
  <g id="g569" transform="matrix(.14741 0 0 .14741 -11.494 938.32)">
   <line id="line571" y2="561.74" x2="223.59" y1="550.88" x1="223.77" fill="none"/>
   <g id="g573">
    <path id="path575" d="m222.25 550.88c-0.06 3.623-0.12 7.246-0.179 10.869-0.031 1.971 3.008 1.969 3.037 0 0.062-3.623 0.122-7.246 0.181-10.869 0.033-1.974-3.007-1.969-3.039 0z"/>
   </g>
  </g>
  <g id="g577" transform="matrix(.14741 0 0 .14741 -11.494 938.32)">
   <polyline id="polyline579" points="208.9 573.15 209.62 573.71 210.29 574.14 210.74 574.28 211.22 574.45 211.86 574.69 212.52 575.02 212.98 575.23 213.61 575.52 214.15 575.64 214.7 575.87 215.24 576.06 215.63 576.16 216.15 576.3 216.72 576.39 217.62 576.51 218.4 576.51 219.38 576.51 220.33 576.51 221.14 576.3 222.69 576.01 223.89 575.63 225.01 575.2 226.43 574.45 226.96 573.66 227.5 573.22 227.91 572.88" fill="#fff"/>
   <g id="g581">
    <path id="path583" d="m207.82 574.22c2.526 1.991 6.161 3.338 9.348 3.755 2.279 0.303 4.635-0.088 6.809-0.776 2.212-0.703 3.295-1.847 5.005-3.238 1.524-1.242-0.641-3.389-2.148-2.162-2.828 2.303-5.259 3.183-9.212 3.183-2.302 0-5.895-1.538-7.653-2.92-1.523-1.202-3.692 0.945-2.149 2.158z"/>
   </g>
  </g>
 </g>
</svg>
