<?xml version="1.0" encoding="UTF-8" standalone="no"?>
<!-- Created with Inkscape (http://www.inkscape.org/) -->
<svg id="svg4200" xmlns:rdf="http://www.w3.org/1999/02/22-rdf-syntax-ns#" xmlns="http://www.w3.org/2000/svg" height="45" width="45" version="1.1" xmlns:cc="http://creativecommons.org/ns#" xmlns:dc="http://purl.org/dc/elements/1.1/">
 <metadata id="metadata4205">
  <rdf:RDF>
   <cc:Work rdf:about="">
    <dc:format>image/svg+xml</dc:format>
    <dc:type rdf:resource="http://purl.org/dc/dcmitype/StillImage"/>
    <dc:title/>
   </cc:Work>
  </rdf:RDF>
 </metadata>
 <g id="layer1" transform="translate(0 -1007.4)">
  <g id="g219" transform="matrix(.19010 0 0 .19010 -50.291 1003.5)">
   <polygon id="polygon221" points="365.16 81.57 374.47 34.811 394.84 77.314" fill="#fff"/>
   <g id="g223">
    <path id="path225" d="m394.47 75.978c-9.894 1.419-19.789 2.838-29.684 4.257 0.579 0.568 1.156 1.136 1.733 1.705 3.105-15.587 6.209-31.174 9.314-46.76-0.859 0.11-1.717 0.22-2.577 0.33 6.79 14.169 13.579 28.336 20.37 42.504 0.775 1.616 3.204 0.208 2.435-1.399-6.788-14.168-13.577-28.335-20.369-42.503-0.511-1.066-2.351-0.81-2.576 0.33-3.105 15.588-6.21 31.174-9.313 46.761-0.224 1.116 0.645 1.861 1.732 1.705 9.895-1.419 19.789-2.838 29.684-4.256 1.795-0.258 1.029-2.929-0.749-2.674z"/>
   </g>
  </g>
  <g id="g227" transform="matrix(.19010 0 0 .19010 -50.291 1003.5)">
   <polygon id="polygon229" points="382.18 79.943 399.38 35.168 414.94 80.517" fill="#fff"/>
   <g id="g231">
    <path id="path233" d="m414.94 79.131c-10.92-0.191-21.84-0.383-32.76-0.574 0.452 0.584 0.906 1.17 1.359 1.755 5.734-14.925 11.466-29.851 17.199-44.775h-2.72c5.188 15.117 10.376 30.233 15.564 45.349 0.578 1.684 3.303 0.961 2.719-0.738-5.188-15.116-10.376-30.232-15.563-45.349-0.464-1.354-2.229-1.28-2.72 0-5.732 14.926-11.467 29.851-17.198 44.776-0.334 0.868 0.511 1.739 1.358 1.755 10.922 0.191 21.842 0.382 32.764 0.573 1.823 0.032 1.82-2.74 0.002-2.772z"/>
   </g>
  </g>
  <g id="g235" transform="matrix(.19010 0 0 .19010 -50.291 1003.5)">
   <path id="path237" fill="#fff" d="m444.89 126.38c0-3.769 1.762-14.804-1.055-24.366-4.441-9.544-7.525-16.642-11.786-20.371-4.749-3.188-12.384-9.352-20.122-12.472-7.736-3.121-25.803-3.799-30.301-4.287-7.907-0.854-11.436 1.169-17.382 4.009s-23.677 52.392-25.381 81.857c-1.706 29.465-2.672 58.152-2.895 70.001 2.186 0.341 8.211 0.55 16.615 0.711 8.403 0.163 13.058 0.163 16.664 0.146 6.793-0.032 12.331 0.253 17.862 0.49 5.533 0.237 2.202 0.704 8.983 0.48 0.148-2.125 0.408-0.305 0.878-3.88 0.471-3.576 0.852-22.361 1.584-30.488 0.731-8.126-1.104-43.746-1.104-43.746l-0.441-11.594s2.611 2.922 6.645 5.787c4.032 2.865 5.816 3.898 8.692 4.758 4.172 1.248 13.057 1.506 20.896 0.988 7.84-0.517 11.648-16.162 11.648-18.023"/>
   <g id="g239">
    <path id="path241" d="m446.3 126.38c0.139-5.72 0.737-11.319 0.299-17.055-0.553-7.185-3.866-13.35-7.134-19.68-5.188-10.05-16.595-17.884-27.163-21.81-9.425-3.502-20.148-3.425-30.07-4.275-7.259-0.623-17.159 0.748-21.584 7.22-4.727 6.915-7.479 15.559-10.231 23.35-4.137 11.7-7.477 23.696-10.012 35.827-2.789 13.352-3.323 26.799-3.988 40.383-0.718 14.66-1.301 29.328-1.705 44-0.059 2.139-0.107 4.276-0.149 6.414-0.012 0.553 0.433 1.256 1.035 1.337 10.068 1.332 20.569 0.9 30.713 0.913 9.922 0.012 19.915 1.23 29.789 0.963 0.836-0.023 1.318-0.619 1.409-1.385 3.523-29.878 2.057-59.677 0.916-89.708-0.802 0.326-1.604 0.653-2.406 0.98 3.642 3.962 8.608 8.081 13.684 10.084 7.265 2.868 15.899 2.292 23.546 1.854 8.055-0.464 12.616-12.78 13.051-19.412 0.118-1.786-2.702-1.775-2.818 0-0.196 2.97-1.512 6.127-2.692 8.817-2.423 5.523-5.357 7.77-11.525 8.017-5.822 0.233-12.135 0.308-17.716-1.516-5.099-1.667-10.011-5.967-13.539-9.805-0.818-0.891-2.452-0.203-2.405 0.98 1.141 30.031 2.605 59.842-0.918 89.708 0.471-0.463 0.938-0.924 1.41-1.386-10.624 0.288-21.417-0.933-32.097-0.969-6.857-0.024-13.721-0.157-20.576-0.379-0.806-0.026-6.016-0.52-6.025-0.014 0.054-2.694 0.128-5.387 0.206-8.082 0.82-28.87 0.326-58.64 6.807-86.927 2.716-11.863 6.3-23.564 10.546-34.982 1.64-4.408 3.434-8.765 5.507-12.995 1.017-2.072 2.353-5.534 4.494-6.756 10.416-5.942 22.845-3.623 34.258-2.251 6.766 0.813 12.608 2.439 18.543 5.808 6.043 3.43 13.165 7.715 17.037 13.513 4.309 6.453 8.109 14.523 8.984 22.165 0.65 5.698-0.16 11.363-0.298 17.055-0.045 1.786 2.775 1.782 2.817-0.001z"/>
   </g>
  </g>
  <g id="g243" transform="matrix(.19010 0 0 .19010 -50.291 1003.5)">
   <rect id="rect245" height="9.978" width="81.781" y="220.26" x="326.54" fill="#fff"/>
   <g id="g247">
    <path id="path249" d="m408.32 228.85h-81.781c0.471 0.462 0.938 0.924 1.41 1.386v-9.979c-0.472 0.462-0.939 0.924-1.41 1.386h81.781c-0.471-0.462-0.939-0.923-1.41-1.386v9.979c0 1.787 2.82 1.787 2.82 0v-9.979c0-0.755-0.642-1.385-1.41-1.385h-81.781c-0.769 0-1.41 0.63-1.41 1.385v9.979c0 0.756 0.643 1.386 1.41 1.386h81.781c1.819-0.001 1.819-2.772 0-2.772z"/>
   </g>
  </g>
  <g id="g251" transform="matrix(.19010 0 0 .19010 -50.291 1003.5)">
   <rect id="rect253" height="12.75" width="94.354" y="230.24" x="320.45" fill="#fff"/>
   <g id="g255">
    <path id="path257" d="m414.81 241.6h-94.354c0.471 0.461 0.938 0.923 1.41 1.386v-12.75c-0.472 0.462-0.939 0.923-1.41 1.386h94.354c-0.47-0.462-0.938-0.923-1.409-1.386v12.75c0 1.788 2.819 1.788 2.819 0v-12.75c0-0.756-0.64-1.386-1.41-1.386h-94.354c-0.771 0-1.409 0.63-1.409 1.386v12.75c0 0.756 0.64 1.386 1.409 1.386h94.354c1.818 0 1.818-2.772 0-2.772z"/>
   </g>
  </g>
  <g id="g259" transform="matrix(.19010 0 0 .19010 -50.291 1003.5)">
   <line id="line261" y2="108.62" x2="412.47" y1="94.999" x1="412.47" fill="none"/>
   <g id="g263">
    <path id="path265" d="m411.06 94.999v13.625c0 1.787 2.82 1.787 2.82 0v-13.625c0-1.787-2.82-1.787-2.82 0z"/>
   </g>
  </g>
  <g id="g267" transform="matrix(.19010 0 0 .19010 -50.291 1003.5)">
   <line id="line269" y2="109.18" x2="421.26" y1="94.999" x1="421.41" fill="none"/>
   <g id="g271">
    <path id="path273" d="m420 94.999c-0.052 4.729-0.104 9.457-0.156 14.184-0.021 1.788 2.8 1.786 2.819 0 0.052-4.729 0.105-9.457 0.157-14.184 0.02-1.788-2.801-1.786-2.82 0z"/>
   </g>
  </g>
  <g id="g275" transform="matrix(.19010 0 0 .19010 -50.291 1003.5)">
   <line id="line277" y2="136.17" x2="425.29" y1="135.72" x1="425.29" fill="none"/>
   <g id="g279">
    <path id="path281" d="m422.47 135.72v0.45c0 1.511 1.283 2.771 2.82 2.771 1.538 0 2.82-1.26 2.82-2.771v-0.45c0-1.511-1.282-2.772-2.82-2.772-1.537 0-2.82 1.261-2.82 2.772z"/>
   </g>
  </g>
  <g id="g283" transform="matrix(.19010 0 0 .19010 -50.291 1003.5)">
   <line id="line285" y2="136.17" x2="433.92" y1="135.72" x1="434.08" fill="none"/>
   <g id="g287">
    <path id="path289" d="m431.36 134.98c-0.052 0.15-0.104 0.3-0.154 0.451-0.49 1.433 0.553 3.025 1.97 3.409 1.546 0.418 2.979-0.506 3.471-1.937 0.051-0.149 0.103-0.3 0.153-0.449 0.492-1.432-0.552-3.026-1.97-3.409-1.546-0.419-2.978 0.505-3.47 1.935z"/>
   </g>
  </g>
  <g id="g291" transform="matrix(.19010 0 0 .19010 -50.291 1003.5)">
   <line id="line293" y2="80.358" x2="380.79" y1="66.174" x1="380.79" fill="none"/>
   <g id="g295">
    <path id="path297" d="m379.38 66.174v14.184c0 1.788 2.819 1.788 2.819 0v-14.184c0-1.786-2.819-1.786-2.819 0z"/>
   </g>
  </g>
  <g id="g299" transform="matrix(.19010 0 0 .19010 -50.291 1003.5)">
   <line id="line301" y2="132.96" x2="356.46" y1="131.82" x1="342.07" fill="none"/>
   <g id="g303">
    <path id="path305" d="m342.07 133.21c4.796 0.379 9.589 0.758 14.385 1.137 1.812 0.144 1.8-2.629 0-2.771-4.796-0.378-9.589-0.758-14.385-1.137-1.814-0.143-1.8 2.629 0 2.771z"/>
   </g>
  </g>
  <g id="g307" transform="matrix(.19010 0 0 .19010 -50.291 1003.5)">
   <line id="line309" y2="82.967" x2="370.36" y1="70.766" x1="363" fill="none"/>
   <g id="g311">
    <path id="path313" d="m361.78 71.464c2.454 4.067 4.908 8.134 7.359 12.201 0.926 1.536 3.363 0.142 2.435-1.398-2.453-4.067-4.907-8.134-7.359-12.201-0.926-1.535-3.363-0.143-2.435 1.398z"/>
   </g>
  </g>
  <g id="g315" transform="matrix(.19010 0 0 .19010 -50.291 1003.5)">
   <line id="line317" y2="94.999" x2="364.97" y1="87.738" x1="355.81" fill="none"/>
   <g id="g319">
    <path id="path321" d="m354.81 88.717c3.055 2.42 6.106 4.84 9.161 7.26 1.401 1.111 3.41-0.836 1.994-1.96-3.054-2.42-6.106-4.84-9.163-7.26-1.399-1.11-3.409 0.838-1.992 1.96z"/>
   </g>
  </g>
  <g id="g323" transform="matrix(.19010 0 0 .19010 -50.291 1003.5)">
   <line id="line325" y2="81.281" x2="394.14" y1="67.098" x1="394.14" fill="none"/>
   <g id="g327">
    <path id="path329" d="m392.73 67.098v14.184c0 1.788 2.82 1.788 2.82 0v-14.184c0-1.787-2.82-1.787-2.82 0z"/>
   </g>
  </g>
  <g id="g331" transform="matrix(.19010 0 0 .19010 -50.291 1003.5)">
   <line id="line333" y2="82.548" x2="408.35" y1="68.418" x1="409.63" fill="none"/>
   <g id="g335">
    <path id="path337" d="m408.22 68.418c-0.427 4.71-0.852 9.42-1.277 14.13-0.161 1.781 2.659 1.766 2.819 0 0.427-4.709 0.853-9.42 1.277-14.13 0.161-1.78-2.66-1.766-2.819 0z"/>
   </g>
  </g>
  <g id="g339" transform="matrix(.19010 0 0 .19010 -50.291 1003.5)">
   <line id="line341" y2="107.63" x2="359.62" y1="102.14" x1="349.26" fill="none"/>
   <g id="g343">
    <path id="path345" d="m348.55 103.34c3.453 1.828 6.908 3.657 10.361 5.486 1.601 0.848 3.025-1.545 1.424-2.393-3.454-1.829-6.908-3.657-10.362-5.487-1.6-0.847-3.025 1.545-1.423 2.394z"/>
   </g>
  </g>
  <g id="g347" transform="matrix(.19010 0 0 .19010 -50.291 1003.5)">
   <line id="line349" y2="119.71" x2="356.7" y1="116.38" x1="345.43" fill="none"/>
   <g id="g351">
    <path id="path353" d="m345.06 117.71c3.757 1.11 7.514 2.221 11.271 3.332 1.746 0.516 2.487-2.159 0.75-2.672-3.757-1.111-7.515-2.221-11.271-3.333-1.747-0.516-2.489 2.159-0.75 2.673z"/>
   </g>
  </g>
  <g id="g355" transform="matrix(.19010 0 0 .19010 -50.291 1003.5)">
   <line id="line357" y2="147.63" x2="354.75" y1="146.36" x1="340.38" fill="none"/>
   <g id="g359">
    <path id="path361" d="m340.38 147.74c4.791 0.424 9.583 0.848 14.374 1.272 1.812 0.16 1.796-2.614 0-2.772-4.791-0.423-9.583-0.848-14.374-1.271-1.813-0.159-1.796 2.613 0 2.771z"/>
   </g>
  </g>
  <g id="g363" transform="matrix(.19010 0 0 .19010 -50.291 1003.5)">
   <line id="line365" y2="159.9" x2="353.75" y1="158.63" x1="339.37" fill="none"/>
   <g id="g367">
    <path id="path369" d="m339.37 160.02c4.792 0.423 9.582 0.848 14.375 1.271 1.812 0.161 1.796-2.613 0-2.771-4.793-0.424-9.583-0.849-14.375-1.272-1.811-0.16-1.796 2.612 0 2.772z"/>
   </g>
  </g>
  <g id="g371" transform="matrix(.19010 0 0 .19010 -50.291 1003.5)">
   <line id="line373" y2="172.2" x2="352.62" y1="170.93" x1="338.24" fill="none"/>
   <g id="g375">
    <path id="path377" d="m338.24 172.32c4.792 0.424 9.582 0.848 14.375 1.272 1.812 0.16 1.795-2.613 0-2.771-4.793-0.424-9.583-0.848-14.375-1.272-1.811-0.16-1.795 2.612 0 2.771z"/>
   </g>
  </g>
  <g id="g379" transform="matrix(.19010 0 0 .19010 -50.291 1003.5)">
   <line id="line381" y2="200.74" x2="351.48" y1="199.47" x1="337.1" fill="none"/>
   <g id="g383">
    <path id="path385" d="m337.1 200.86c4.792 0.424 9.583 0.848 14.374 1.272 1.812 0.161 1.797-2.613 0-2.772-4.791-0.423-9.582-0.847-14.374-1.271-1.814-0.161-1.795 2.612 0 2.771z"/>
   </g>
  </g>
  <g id="g387" transform="matrix(.19010 0 0 .19010 -50.291 1003.5)">
   <line id="line389" y2="185.5" x2="352.6" y1="184.23" x1="338.23" fill="none"/>
   <g id="g391">
    <path id="path393" d="m338.23 185.62c4.791 0.424 9.582 0.848 14.374 1.271 1.812 0.161 1.796-2.613 0-2.771-4.792-0.423-9.583-0.848-14.374-1.271-1.814-0.162-1.795 2.611 0 2.771z"/>
   </g>
  </g>
  <g id="g395" transform="matrix(.19010 0 0 .19010 -50.291 1003.5)">
   <line id="line397" y2="215.32" x2="351.48" y1="214.04" x1="337.1" fill="none"/>
   <g id="g399">
    <path id="path401" d="m337.1 215.43c4.792 0.424 9.583 0.848 14.374 1.271 1.812 0.161 1.797-2.612 0-2.771-4.791-0.424-9.582-0.848-14.374-1.272-1.814-0.16-1.795 2.613 0 2.772z"/>
   </g>
  </g>
  <g id="g403" transform="matrix(.19010 0 0 .19010 -50.291 1003.5)">
   <polyline id="polyline405" points="398.46 122.56 399.02 125.81 400 126.9 401.33 130 403.16 131.85 405.98 133.75 408.35 135.06 411.25 136.46 415.26 136.46" fill="#fff"/>
   <g id="g407">
    <path id="path409" d="m397.1 122.93c0.658 3.765 2.417 8.143 5.797 10.417 1.837 1.238 3.664 2.388 5.664 3.354 2.406 1.161 3.991 1.144 6.701 1.144 1.819 0 1.819-2.771 0-2.771h-2.972c-0.459 0-1.289-0.274-0.453 0.13-0.618-0.298-1.235-0.597-1.854-0.895-1.639-0.791-3.19-1.688-4.695-2.702-2.059-1.385-2.883-2.652-3.86-4.917-0.211-0.486-1.182-2.04-1.065-1.387-0.182-1.037-0.362-2.074-0.545-3.111-0.306-1.758-3.023-1.01-2.718 0.738z"/>
   </g>
  </g>
 </g>
</svg>
