<?xml version="1.0" encoding="UTF-8" standalone="no"?>
<!-- Created with Inkscape (http://www.inkscape.org/) -->
<svg id="svg4200" xmlns:rdf="http://www.w3.org/1999/02/22-rdf-syntax-ns#" xmlns="http://www.w3.org/2000/svg" height="45" width="45" version="1.1" xmlns:cc="http://creativecommons.org/ns#" xmlns:dc="http://purl.org/dc/elements/1.1/">
 <metadata id="metadata4205">
  <rdf:RDF>
   <cc:Work rdf:about="">
    <dc:format>image/svg+xml</dc:format>
    <dc:type rdf:resource="http://purl.org/dc/dcmitype/StillImage"/>
    <dc:title/>
   </cc:Work>
  </rdf:RDF>
 </metadata>
 <g id="layer1" transform="translate(0 -1007.4)">
  <g id="g27" transform="matrix(.26321 0 0 .19328 -77.374 964.16)">
   <ellipse id="ellipse29" d="m 408.57699,324.10699 c 0,16.69502 -13.77127,30.229 -30.759,30.229 -16.98772,0 -30.759,-13.53398 -30.759,-30.229 0,-16.69501 13.77128,-30.229 30.759,-30.229 16.98773,0 30.759,13.53399 30.759,30.229 z" cx="377.82" rx="30.759" cy="324.11" ry="30.229" fill="#fff"/>
   <g id="g31">
    <path id="path33" d="m345.65 324.11c0.449 17.542 14.318 31.172 32.167 31.615 17.846 0.443 31.732-14.738 32.168-31.615 0.45-17.539-14.995-31.188-32.168-31.615-17.845-0.442-31.732 14.74-32.167 31.615-0.046 1.789 2.772 1.784 2.818 0 0.413-16.023 13.043-28.438 29.349-28.843 16.3-0.405 28.95 13.432 29.348 28.843 0.412 16.021-13.667 28.453-29.348 28.843-16.301 0.404-28.951-13.432-29.349-28.843-0.044-1.784-2.864-1.788-2.818 0z"/>
   </g>
  </g>
  <g id="g91" transform="matrix(.26321 0 0 .19328 -77.374 964.16)">
   <rect id="rect93" height="62.62" width="51.514" y="352.51" x="352.56" fill="#fff"/>
   <g id="g95">
    <path id="path97" d="m404.08 413.74h-51.514c0.472 0.461 0.939 0.922 1.41 1.386v-62.621c-0.471 0.462-0.938 0.924-1.41 1.386h51.514l-1.41-1.386v62.621c0 1.783 2.82 1.783 2.82 0v-62.621c0-0.756-0.643-1.385-1.41-1.385h-51.514c-0.77 0-1.409 0.629-1.409 1.385v62.621c0 0.756 0.641 1.386 1.409 1.386h51.514c1.818 0 1.818-2.772 0-2.772z"/>
   </g>
  </g>
  <g id="g99" transform="matrix(.26321 0 0 .19328 -77.374 964.16)">
   <path id="path101" fill="#fff" d="m352.02 347.11c-1.264-0.149-4.105-0.171-5.802-0.111-1.944 0.071-4.912-0.401-6.825 0.173-1.693 0.506-2.11 3.37-1.89 5.857 0.358 3.989 5.427 3.857 7.831 4.064 6.489 0.561 13.085 0.409 19.588 0.41 15.642 0.002 31.204 0.78 46.843-0.184 2.299-0.142 3.725-0.428 6.076-2.328 2.416-1.95 0.703-4.215-1.149-5.469-3.96-2.682-10.667-1.961-15.414-1.955-6.96 0.011-13.944-0.582-20.856-0.15-10.51 0.66-18.391-0.092-28.402-0.307"/>
   <g id="g103">
    <path id="path105" d="m352.02 345.72c-4.27-0.316-12.739-2.016-15.305 2.313-2.422 4.085-0.011 8.663 4.108 9.926 2.702 0.83 6.091 0.646 8.854 0.794 5.813 0.311 11.66 0.125 17.481 0.139 11.896 0.028 23.783 0.444 35.679 0.19 3.36-0.072 16.447 0.947 17.354-4.919 0.792-5.138-4.802-7.504-9.266-7.876-9.295-0.775-19.104-0.576-28.427-0.357-10.204 0.238-20.273 0.046-30.478-0.21-1.819-0.045-1.815 2.727 0 2.772 12.268 0.307 24.473 0.029 36.727 0.179 6.296 0.077 12.573 0.192 18.87 0.193 1.757 0 14.211 1.51 8.202 5.887-2.729 1.986-7.55 1.374-10.748 1.495-14.097 0.529-28.215-0.153-42.315-0.125-6.467 0.012-12.882-0.085-19.335-0.553-2.42 0.078-3.938-1.274-4.555-4.057-0.137-4.001 4.043-3.231 6.082-3.139 2.359 0.106 4.712-0.056 7.074 0.12 1.813 0.135 1.8-2.638-0.002-2.772z"/>
   </g>
  </g>
  <g id="g107" transform="matrix(.26321 0 0 .19328 -77.374 964.16)">
   <rect id="rect109" height="10.835" width="77.903" y="415.13" x="340.3" fill="#fff"/>
   <g id="g111">
    <path id="path113" d="m418.2 424.58h-77.904c0.472 0.462 0.939 0.924 1.411 1.387v-10.838c-0.472 0.461-0.939 0.924-1.411 1.386h77.904c-0.472-0.462-0.94-0.925-1.41-1.386v10.838c0 1.788 2.819 1.788 2.819 0v-10.838c0-0.757-0.642-1.386-1.409-1.386h-77.904c-0.769 0-1.411 0.629-1.411 1.386v10.838c0 0.755 0.644 1.385 1.411 1.385h77.904c1.816 0 1.816-2.772 0-2.772z"/>
   </g>
  </g>
  <g id="g115" transform="matrix(.26321 0 0 .19328 -77.374 964.16)">
   <rect id="rect117" height="13.849" width="89.885" y="425.97" x="334.5" fill="#fff"/>
   <g id="g119">
    <path id="path121" d="m424.38 438.43h-89.885c0.47 0.462 0.938 0.923 1.409 1.387v-13.849c-0.471 0.46-0.939 0.925-1.409 1.385h89.885c-0.471-0.46-0.938-0.925-1.411-1.385v13.849c0 1.786 2.82 1.786 2.82 0v-13.849c0-0.757-0.641-1.387-1.409-1.387h-89.885c-0.771 0-1.41 0.63-1.41 1.387v13.849c0 0.757 0.64 1.387 1.41 1.387h89.885c1.818-0.002 1.818-2.774 0-2.774z"/>
   </g>
  </g>
  <g id="g131" transform="matrix(.26321 0 0 .19328 -77.374 964.16)">
   <line id="line133" y2="321.89" x2="373.73" y1="310.35" x1="373.73" fill="none"/>
   <g id="g135">
    <path id="path137" d="m372.32 310.35v11.538c0 1.788 2.819 1.788 2.819 0v-11.538c0.002-1.788-2.819-1.788-2.819 0z"/>
   </g>
  </g>
  <g id="g139" transform="matrix(.26321 0 0 .19328 -77.374 964.16)">
   <line id="line141" y2="320.55" x2="382.36" y1="310.35" x1="382.52" fill="none"/>
   <g id="g143">
    <path id="path145" d="m381.11 310.35c-0.053 3.4-0.104 6.8-0.154 10.201-0.027 1.789 2.793 1.786 2.82 0 0.052-3.4 0.103-6.8 0.153-10.201 0.029-1.789-2.793-1.787-2.819 0z"/>
   </g>
  </g>
  <g id="g147" transform="matrix(.26321 0 0 .19328 -77.374 964.16)">
   <polyline id="polyline149" points="366.73 333.11 367.57 333.94 368.35 334.56 368.87 334.77 369.44 335.02 370.18 335.36 370.95 335.84 371.48 336.16 372.22 336.57 372.86 336.75 373.49 337.09 374.12 337.37 374.58 337.51 375.18 337.72 375.85 337.86 376.91 338.03 377.82 338.03 378.95 338.03 379.87 337.72 380.65 337.3 381.46 336.92 382.09 336.57 382.52 336.4 383.08 336.12 383.71 335.88 384.59 335.38 385.22 335.07 385.71 334.87 386.58 334.58 387.2 334.22 387.8 333.87 388.44 333.21 388.91 332.73" fill="#fff"/>
   <g id="g151">
    <path id="path153" d="m365.73 334.09c2.659 2.623 7.754 5.326 11.636 5.326 3.811 0 9.902-3.004 12.543-5.706 1.259-1.29-0.731-3.251-1.994-1.96-2.069 2.12-7.562 4.895-10.55 4.895-3.127 0-7.521-2.422-9.643-4.513-1.283-1.269-3.277 0.692-1.992 1.958z"/>
   </g>
  </g>
 </g>
</svg>
