<?xml version="1.0" encoding="UTF-8" standalone="no"?>
<!-- Created with Inkscape (http://www.inkscape.org/) -->
<svg id="svg4200" xmlns:rdf="http://www.w3.org/1999/02/22-rdf-syntax-ns#" xmlns="http://www.w3.org/2000/svg" height="45" width="45" version="1.1" xmlns:cc="http://creativecommons.org/ns#" xmlns:dc="http://purl.org/dc/elements/1.1/">
 <metadata id="metadata4205">
  <rdf:RDF>
   <cc:Work rdf:about="">
    <dc:format>image/svg+xml</dc:format>
    <dc:type rdf:resource="http://purl.org/dc/dcmitype/StillImage"/>
    <dc:title/>
   </cc:Work>
  </rdf:RDF>
 </metadata>
 <g id="layer1" transform="translate(0 -1007.4)">
  <g id="g19" transform="matrix(.15141 0 0 .15141 -55.702 934.64)">
   <ellipse id="ellipse21" d="m 524.54201,504.71399 c 0,5.71615 -4.11495,10.35 -9.191,10.35 -5.07605,0 -9.191,-4.63385 -9.191,-10.35 0,-5.71615 4.11495,-10.35 9.191,-10.35 5.07605,0 9.191,4.63385 9.191,10.35 z" cx="515.35" rx="9.191" cy="504.71" ry="10.35" fill="#fff"/>
   <g id="g23">
    <path id="path25" d="m504.64 504.71c0.322 6.287 4.217 11.456 10.711 11.878 6.477 0.424 10.42-6.236 10.71-11.878 0.323-6.272-4.685-11.485-10.71-11.878-6.478-0.422-10.422 6.238-10.711 11.878-0.102 1.969 2.938 1.96 3.038 0 0.233-4.531 2.875-8.512 7.673-8.824 4.781-0.311 7.463 4.761 7.67 8.824 0.231 4.525-3.222 8.534-7.67 8.824-4.783 0.31-7.464-4.762-7.673-8.824-0.101-1.959-3.14-1.969-3.038 0z"/>
   </g>
  </g>
  <g id="g411" transform="matrix(.15141 0 0 .15141 -55.702 934.64)">
   <path id="path413" fill="#fff" d="m548.92 605.94h-66.34s-3.656-61.472 9.493-79.515c10-13.719 45.483-12.896 52.397 2.737 9.179 20.771 4.45 76.778 4.45 76.778z"/>
   <g id="g415">
    <path id="path417" d="m548.92 604.41h-66.34c0.507 0.513 1.014 1.021 1.521 1.528-0.83-14.168-0.679-28.475 0.38-42.621 0.749-9.998 2.02-20.232 5.519-29.678 3.878-10.468 13.449-14.349 23.936-15.246 9.835-0.839 23.275 1.26 28.752 10.581 4.948 8.423 5.013 20.869 5.551 30.298 0.88 15.495 0.452 31.202-0.838 46.666-0.163 1.963 2.877 1.947 3.038 0 1.454-17.392 1.812-35.073 0.447-52.474-0.706-8.998-1.436-20.181-6.723-27.831-5.291-7.655-16.114-9.906-24.734-10.376-9.395-0.512-20.119 1.684-27.055 8.45-6.055 5.911-7.782 16.354-9.134 24.281-3.133 18.395-3.122 37.522-2.273 56.124 0.028 0.608 0.058 1.217 0.093 1.825 0.049 0.831 0.654 1.527 1.52 1.527h66.339c1.962 0.002 1.962-3.054 0.001-3.054z"/>
   </g>
  </g>
  <g id="g419" transform="matrix(.15141 0 0 .15141 -55.702 934.64)">
   <rect id="rect421" height="105.72" width="65.541" y="614.77" x="482.58" fill="#fff"/>
   <g id="g423">
    <path id="path425" d="m548.12 718.97h-65.541c0.507 0.513 1.013 1.02 1.521 1.529v-105.72c-0.508 0.51-1.014 1.019-1.521 1.527h65.541c-0.507-0.509-1.012-1.018-1.518-1.527v105.72c0 1.971 3.038 1.971 3.038 0v-105.72c0-0.833-0.691-1.529-1.521-1.529h-65.541c-0.828 0-1.519 0.696-1.519 1.529v105.72c0 0.831 0.691 1.527 1.519 1.527h65.541c1.962 0 1.962-3.056 0.001-3.056z"/>
   </g>
  </g>
  <g id="g427" transform="matrix(.15141 0 0 .15141 -55.702 934.64)">
   <path id="path429" fill="#fff" d="m485.17 603.17c-1.464-0.165-4.756-0.188-6.723-0.119-2.254 0.076-5.691-0.442-7.91 0.189-1.962 0.559-2.447 3.713-2.19 6.454 0.419 4.397 6.291 4.251 9.078 4.48 7.521 0.617 15.166 0.451 22.702 0.453 18.128 0.002 36.169 0.857 54.291-0.205 2.663-0.159 4.314-0.473 7.042-2.566 2.802-2.146 0.814-4.647-1.333-6.028-4.588-2.959-12.362-2.162-17.863-2.155-8.066 0.015-16.164-0.641-24.173-0.163-12.182 0.727-21.317-0.103-32.921-0.34"/>
   <g id="g431">
    <path id="path433" d="m485.17 601.64c-4.91-0.379-14.604-2.318-17.638 2.55-3.062 4.911 0.473 9.941 5.21 11.044 9.396 2.187 20.185 0.9 29.75 0.922 13.373 0.028 26.741 0.464 40.118 0.24 3.848-0.064 20.338 1.462 21.459-5.454 1.052-6.479-6.691-8.26-11.661-8.776-4.785-0.495-9.742 0.013-14.548-0.07-5.866-0.096-11.717-0.368-17.584-0.22-11.747 0.297-23.358 0.039-35.106-0.236-1.96-0.047-1.956 3.008 0 3.055 14.647 0.347 29.257-0.044 43.886 0.224 7.203 0.132 14.407 0.086 21.604 0.209 1.583 0.04 3.152 0.205 4.709 0.5 1.491 0.253 8.653 2.605 3.799 5.966-3.556 2.463-10.082 1.572-14.2 1.697-16.451 0.49-32.921-0.238-49.375-0.182-7.296 0.024-14.804 0.247-22.044-0.818-2.095-0.206-3.342-1.629-3.741-4.268-0.159-4.427 4.945-3.554 7.161-3.46 2.736 0.115 5.462-0.077 8.199 0.133 1.959 0.15 1.944-2.908 0.002-3.056z"/>
   </g>
  </g>
  <g id="g435" transform="matrix(.15141 0 0 .15141 -55.702 934.64)">
   <rect id="rect437" height="11.943" width="85.507" y="720.5" x="472.74" fill="#fff"/>
   <g id="g439">
    <path id="path441" d="m558.25 730.91h-85.507c0.507 0.512 1.012 1.02 1.519 1.528v-11.943c-0.507 0.511-1.012 1.019-1.519 1.527h85.507c-0.507-0.509-1.012-1.017-1.519-1.527v11.943c0 1.969 3.039 1.969 3.039 0v-11.943c0-0.835-0.69-1.529-1.521-1.529h-85.507c-0.83 0-1.52 0.694-1.52 1.529v11.943c0 0.833 0.69 1.528 1.52 1.528h85.507c1.962 0 1.962-3.056 0.001-3.056z"/>
   </g>
  </g>
  <g id="g443" transform="matrix(.15141 0 0 .15141 -55.702 934.64)">
   <rect id="rect445" height="12.384" width="97.26" y="732.44" x="467.07" fill="#fff"/>
   <g id="g447">
    <path id="path449" d="m564.33 743.3h-97.26c0.509 0.511 1.013 1.02 1.521 1.527v-12.384c-0.508 0.513-1.012 1.021-1.521 1.528h97.26c-0.51-0.508-1.016-1.016-1.521-1.528v12.384c0 1.97 3.039 1.97 3.039 0v-12.384c0-0.834-0.691-1.528-1.518-1.528h-97.26c-0.832 0-1.52 0.694-1.52 1.528v12.384c0 0.833 0.689 1.527 1.52 1.527h97.26c1.959 0.001 1.959-3.054 0-3.054z"/>
   </g>
  </g>
  <g id="g451" transform="matrix(.15141 0 0 .15141 -55.702 934.64)">
   <rect id="rect453" height="12.088" width="109.36" y="744.04" x="461.8" fill="#fff"/>
   <g id="g455">
    <path id="path457" d="m571.16 754.6h-109.36c0.508 0.509 1.012 1.02 1.52 1.526v-12.088c-0.508 0.51-1.012 1.017-1.52 1.528h109.36c-0.509-0.512-1.014-1.019-1.521-1.528v12.088c0 1.973 3.039 1.973 3.039 0v-12.088c0-0.831-0.689-1.525-1.519-1.525h-109.36c-0.83 0-1.521 0.694-1.521 1.525v12.088c0 0.834 0.691 1.528 1.521 1.528h109.36c1.96 0 1.96-3.054 0.001-3.054z"/>
   </g>
  </g>
  <g id="g459" transform="matrix(.15141 0 0 .15141 -55.702 934.64)">
   <path id="path461" fill="#fff" d="m548.77 554.23-63.507-0.942c0.776-5.994 2.375-29.214 17.607-37.061 10.439-5.374 26.745-2.737 33.962 3.39 11.212 9.515 12.651 38.466 11.938 34.613z"/>
   <g id="g463">
    <path id="path465" d="m548.77 552.7c-21.168-0.316-42.337-0.63-63.507-0.941 0.506 0.508 1.011 1.015 1.52 1.526 0.972-7.854 2.164-15.567 5.412-22.854 5.546-12.432 17.176-16.944 30.163-15.11 12.004 1.696 18.12 9.017 21.657 20.047 1.268 3.943 2.08 8.04 2.724 12.127 0.249 1.593 0.428 3.196 0.567 4.803 0.199 2.274-0.498 1.353 1.15 0.8 0.624 0.355 1.247 0.712 1.867 1.065-0.046-0.108-0.074-0.219-0.091-0.341-0.417-1.923-3.347-1.107-2.93 0.812 0.015 0.12 0.043 0.232 0.092 0.342 0.284 0.742 1.027 1.349 1.868 1.065 0.011-0.003 0.022-0.008 0.032-0.01 0.467-0.157 0.973-0.536 1.061-1.066 1.157-7.052-2.027-16.484-4.267-22.974-4.125-11.944-12.201-18.101-24.631-19.86-12.188-1.721-23.26 2.583-29.922 13.053-5.303 8.329-6.61 18.507-7.799 28.101-0.104 0.835 0.771 1.517 1.521 1.527 21.169 0.315 42.338 0.628 63.506 0.942 1.969 0.03 1.964-3.027 0.007-3.054z"/>
   </g>
  </g>
  <g id="g467" transform="matrix(.15141 0 0 .15141 -55.702 934.64)">
   <g id="g469">
    <path id="path471" d="m500.18 516.87c-0.061 12.219-0.122 24.436-0.183 36.654-0.009 1.971 3.03 1.969 3.042 0 0.06-12.219 0.119-24.436 0.181-36.654 0.009-1.97-3.03-1.97-3.04 0z"/>
   </g>
  </g>
  <g id="g473" transform="matrix(.15141 0 0 .15141 -55.702 934.64)">
   <g id="g475">
    <path id="path477" d="m514.46 513.87c-0.058 12.804-0.118 25.604-0.178 38.411-0.008 1.969 3.031 1.969 3.04 0 0.059-12.806 0.12-25.606 0.179-38.411 0.011-1.971-3.029-1.969-3.041 0z"/>
   </g>
  </g>
  <g id="g479" transform="matrix(.15141 0 0 .15141 -55.702 934.64)">
   <g id="g481">
    <path id="path483" d="m529.35 516.62c-0.061 12.173-0.118 24.349-0.18 36.521-0.01 1.969 3.029 1.969 3.04 0 0.061-12.173 0.12-24.349 0.179-36.521 0.009-1.972-3.031-1.969-3.039 0z"/>
   </g>
  </g>
  <g id="g485" transform="matrix(.15141 0 0 .15141 -55.702 934.64)">
   <g id="g487">
    <path id="path489" d="m541.09 528.11c-0.059 8.472-0.118 16.943-0.179 25.415-0.016 1.971 3.025 1.969 3.039 0 0.061-8.472 0.12-16.943 0.18-25.415 0.015-1.967-3.025-1.967-3.04 0z"/>
   </g>
  </g>
  <g id="g491" transform="matrix(.15141 0 0 .15141 -55.702 934.64)">
   <g id="g493">
    <path id="path495" d="m490.74 527.06c-0.061 8.821-0.12 17.641-0.179 26.466-0.014 1.969 3.027 1.969 3.038 0 0.062-8.825 0.119-17.645 0.18-26.466 0.015-1.97-3.024-1.97-3.039 0z"/>
   </g>
  </g>
  <g id="g497" transform="matrix(.15141 0 0 .15141 -55.702 934.64)">
   <line id="line499" y2="575.59" x2="499.27" y1="563.85" x1="499.27" fill="none"/>
   <g id="g501">
    <path id="path503" d="m497.75 563.85v11.749c0 1.971 3.038 1.971 3.038 0v-11.749c0-1.971-3.038-1.971-3.038 0z"/>
   </g>
  </g>
  <g id="g505" transform="matrix(.15141 0 0 .15141 -55.702 934.64)">
   <line id="line507" y2="574.07" x2="507.55" y1="563.85" x1="507.72" fill="none"/>
   <g id="g509">
    <path id="path511" d="m506.2 563.85c-0.055 3.407-0.11 6.814-0.166 10.221-0.031 1.973 3.007 1.97 3.038 0 0.057-3.407 0.112-6.814 0.167-10.221 0.032-1.971-3.007-1.967-3.039 0z"/>
   </g>
  </g>
  <g id="g513" transform="matrix(.15141 0 0 .15141 -55.702 934.64)">
   <polyline id="polyline515" points="493.99 585.67 494.71 587.07 495.38 588.11 495.82 588.47 496.3 588.88 496.93 589.46 497.6 590.27 498.04 590.81 498.68 591.51 499.22 591.8 499.76 592.39 500.3 592.85 500.69 593.09 501.2 593.44 501.78 593.67 502.68 593.97 503.45 593.97 504.42 593.97 505.37 593.97 506.18 593.43 507.72 592.73 508.92 591.79 510.03 590.74 511.45 588.87 511.97 586.95 512.52 585.84 512.92 585.02" fill="#fff"/>
   <g id="g517">
    <path id="path519" d="m492.68 586.44c1.554 3.024 6.129 9.057 10.005 9.057 3.013 0 4.919-0.749 7.312-2.622 2.423-1.898 2.956-4.479 4.243-7.081 0.868-1.759-1.754-3.309-2.626-1.541-1.036 2.095-1.478 4.3-3.211 5.935-1.601 1.512-3.162 2.253-5.333 2.253-2.822 0-6.638-5.349-7.767-7.541-0.898-1.751-3.522-0.207-2.623 1.54z"/>
   </g>
  </g>
 </g>
</svg>
