<?xml version="1.0" encoding="UTF-8" standalone="no"?>
<!-- Created with Inkscape (http://www.inkscape.org/) -->
<svg id="svg4200" xmlns:rdf="http://www.w3.org/1999/02/22-rdf-syntax-ns#" xmlns="http://www.w3.org/2000/svg" height="45" width="45" version="1.1" xmlns:cc="http://creativecommons.org/ns#" xmlns:dc="http://purl.org/dc/elements/1.1/">
 <metadata id="metadata4205">
  <rdf:RDF>
   <cc:Work rdf:about="">
    <dc:format>image/svg+xml</dc:format>
    <dc:type rdf:resource="http://purl.org/dc/dcmitype/StillImage"/>
    <dc:title/>
   </cc:Work>
  </rdf:RDF>
 </metadata>
 <g id="layer1" transform="translate(0 -1007.4)">
  <g id="g155" transform="matrix(.20679 0 0 .20679 3.6965 952.27)">
   <polygon id="polygon157" points="69.911 297.6 72.13 297.6 72.083 301.46 72.038 305.32 71.993 309.18 71.945 313.04 78.058 313.06 84.168 313.09 84.189 305.35 84.208 297.6 87.192 297.62 89.879 297.62 92.268 297.56 94.925 297.6 94.798 305.42 94.672 313.24 105.86 313.33 106.03 297.45 118.72 297.6 120.94 297.6 123.16 297.6 125.38 297.6 125.38 300.31 125.38 303.02 125.38 305.73 125.38 308.44 125.38 311.15 125.38 313.86 125.38 316.57 125.38 319.28 125.38 321.99 125.38 324.7 125.38 327.41 125.38 330.12 125.38 332.83 125.38 335.54 125.38 338.26 125.38 340.96 125.38 343.68 125.38 346.39 125.38 349.1 125.38 351.81 125.38 354.52 125.38 357.23 54.379 357.23 54.379 323.99 54.379 303.07 54.379 297.6 56.6 297.6 58.817 297.6 61.037 297.6 63.254 297.6 65.472 297.6 67.693 297.6" fill="#fff"/>
   <g id="g159">
    <path id="path161" d="m55.79 357.23v-59.625c-0.471 0.462-0.939 0.923-1.411 1.386h17.75c-0.47-0.462-0.939-0.923-1.41-1.386-0.063 5.146-0.123 10.293-0.186 15.439-0.009 0.759 0.649 1.383 1.41 1.386 4.074 0.016 8.149 0.032 12.223 0.048 0.771 0.003 1.408-0.633 1.41-1.386 0.015-5.163 0.027-10.326 0.04-15.488-0.47 0.462-0.939 0.923-1.41 1.386 3.574 0.02 7.146-0.053 10.718 0-0.47-0.462-0.94-0.923-1.41-1.386-0.083 5.211-0.167 10.423-0.253 15.635-0.013 0.761 0.651 1.379 1.41 1.386 3.729 0.032 7.456 0.063 11.185 0.096 0.776 0.007 1.401-0.636 1.411-1.386 0.058-5.294 0.117-10.587 0.176-15.883-0.471 0.462-0.94 0.924-1.41 1.386 6.449 0.077 12.896 0.151 19.343 0.151-0.47-0.462-0.939-0.923-1.41-1.386v59.625c0.47-0.462 0.939-0.923 1.41-1.386h-70.998c-1.818 0-1.818 2.771 0 2.771h70.998c0.77 0 1.41-0.63 1.41-1.386v-59.625c0-0.756-0.641-1.386-1.41-1.386-6.449 0-12.895-0.074-19.343-0.151-0.776-0.009-1.401 0.638-1.41 1.386-0.059 5.294-0.117 10.588-0.176 15.883 0.47-0.462 0.939-0.923 1.41-1.385-3.729-0.033-7.456-0.065-11.185-0.097 0.47 0.462 0.939 0.923 1.41 1.385 0.084-5.211 0.168-10.424 0.252-15.635 0.012-0.764-0.651-1.375-1.41-1.386-3.572-0.052-7.144 0.02-10.718 0-0.77-0.004-1.408 0.634-1.41 1.386-0.013 5.162-0.025 10.326-0.04 15.488 0.47-0.463 0.939-0.923 1.41-1.386-4.074-0.016-8.149-0.033-12.223-0.049 0.47 0.462 0.939 0.923 1.41 1.386 0.063-5.146 0.122-10.293 0.185-15.439 0.009-0.756-0.649-1.386-1.41-1.386h-17.75c-0.769 0-1.41 0.63-1.41 1.386v59.625c0.001 1.79 2.822 1.79 2.822 0.003z"/>
   </g>
  </g>
  <g id="g163" transform="matrix(.20679 0 0 .20679 3.6965 952.27)">
   <rect id="rect165" height="81.896" width="69.617" y="363.5" x="55.071" fill="#fff"/>
   <g id="g167">
    <path id="path169" d="m124.69 444.01h-69.617c0.471 0.462 0.94 0.925 1.41 1.387v-81.896c-0.47 0.462-0.939 0.924-1.41 1.386h69.617c-0.471-0.462-0.94-0.924-1.41-1.386v81.896c0 1.786 2.82 1.786 2.82 0v-81.896c0-0.756-0.641-1.385-1.41-1.385h-69.617c-0.769 0-1.41 0.629-1.41 1.385v81.896c0 0.756 0.641 1.386 1.41 1.386h69.617c1.819-0.002 1.819-2.773 0-2.773z"/>
   </g>
  </g>
  <g id="g171" transform="matrix(.20679 0 0 .20679 3.6965 952.27)">
   <rect id="rect173" height="9.979" width="89.604" y="445.39" x="45.91" fill="#fff"/>
   <g id="g175">
    <path id="path177" d="m135.51 453.98h-89.604c0.47 0.462 0.939 0.925 1.41 1.387v-9.979c-0.471 0.46-0.94 0.926-1.41 1.386h89.604c-0.471-0.46-0.939-0.926-1.41-1.386v9.979c0 1.786 2.82 1.786 2.82 0v-9.979c0-0.757-0.641-1.387-1.41-1.387h-89.604c-0.769 0-1.41 0.63-1.41 1.387v9.979c0 0.755 0.641 1.385 1.41 1.385h89.604c1.818 0 1.818-2.772 0-2.772z"/>
   </g>
  </g>
  <g id="g179" transform="matrix(.20679 0 0 .20679 3.6965 952.27)">
   <rect id="rect181" height="12.749" width="103.38" y="455.37" x="39.239" fill="#fff"/>
   <g id="g183">
    <path id="path185" d="m142.62 466.73h-103.38c0.47 0.463 0.939 0.926 1.41 1.387v-12.749c-0.47 0.46-0.939 0.925-1.41 1.385h103.38c-0.47-0.46-0.939-0.925-1.41-1.385v12.749c0 1.786 2.82 1.786 2.82 0v-12.749c0-0.756-0.641-1.387-1.41-1.387h-103.38c-0.77 0-1.41 0.631-1.41 1.387v12.749c0 0.755 0.641 1.386 1.41 1.386h103.38c1.819 0 1.819-2.773 0-2.773z"/>
   </g>
  </g>
  <g id="g187" transform="matrix(.20679 0 0 .20679 3.6965 952.27)">
   <path id="path189" fill="#fff" d="m58.65 357.45c-1.5-0.15-4.874-0.17-6.89-0.11-2.309 0.069-5.833-0.401-8.107 0.171-2.012 0.505-2.509 3.37-2.244 5.858 0.427 3.989 6.447 3.857 9.303 4.064 7.709 0.561 15.543 0.409 23.269 0.409 18.581 0.002 37.067 0.781 55.646-0.184 2.729-0.141 4.421-0.428 7.215-2.327 2.871-1.95 0.835-4.216-1.364-5.47-4.704-2.682-12.671-1.96-18.311-1.954-8.267 0.011-16.566-0.582-24.775-0.151-12.485 0.659-21.848-0.092-33.742-0.306"/>
   <g id="g191">
    <path id="path193" d="m58.65 356.07c-3.928-0.269-7.89-0.132-11.827-0.227-2.326-0.057-5.44 0.267-6.265 2.87-1.919 6.064 1.057 9.127 6.966 9.897 10.875 1.416 22.201 0.577 33.142 0.656 12.609 0.089 25.214 0.392 37.823 0.175 5.262-0.091 19.703 1.515 21.107-6.141 1.096-5.979-11.161-6.748-14.571-6.854-22.108-0.69-44.251 0.083-66.375-0.376-1.819-0.04-1.815 2.732 0 2.771 15.381 0.318 30.745-0.08 46.108 0.225 6.761 0.135 13.507 0.111 20.267 0.151 2.032 0.012 4.019 0.207 6.026 0.549 1.198 0.206 8.366 2.359 3.518 5.333-3.6 2.208-9.768 1.404-13.853 1.52-16.98 0.481-33.977-0.199-50.958-0.146-7.041 0.021-14.04-0.13-21.069-0.538-2.458-0.144-5.78-0.359-5.931-4.075-0.164-4.037 5.395-3.219 7.492-3.14 2.802 0.107 5.597-0.07 8.401 0.121 1.815 0.123 1.803-2.649-0.001-2.771z"/>
   </g>
  </g>
  <g id="g195" transform="matrix(.20679 0 0 .20679 3.6965 952.27)">
   <line id="line197" y2="334.05" x2="83.533" y1="322.51" x1="83.533" fill="none"/>
   <g id="g199">
    <path id="path201" d="m82.123 322.51v11.539c0 1.787 2.82 1.787 2.82 0v-11.539c0-1.787-2.82-1.787-2.82 0z"/>
   </g>
  </g>
  <g id="g203" transform="matrix(.20679 0 0 .20679 3.6965 952.27)">
   <line id="line205" y2="333.56" x2="92.169" y1="322.51" x1="92.324" fill="none"/>
   <g id="g207">
    <path id="path209" d="m90.914 322.51c-0.051 3.682-0.103 7.365-0.155 11.046-0.024 1.789 2.795 1.787 2.82 0 0.051-3.681 0.103-7.365 0.155-11.046 0.025-1.787-2.796-1.785-2.82 0z"/>
   </g>
  </g>
  <g id="g211" transform="matrix(.20679 0 0 .20679 3.6965 952.27)">
   <polyline id="polyline213" points="78.471 344.91 79.173 345.25 79.828 345.5 80.261 345.59 80.733 345.69 81.349 345.83 82 346.03 82.438 346.16 83.054 346.33 83.584 346.4 84.114 346.54 84.643 346.66 85.027 346.71 85.525 346.8 86.084 346.86 86.968 346.93 87.724 346.93 88.671 346.93 89.436 346.8 90.085 346.63 90.76 346.48 91.291 346.33 91.646 346.26 92.113 346.15 92.644 346.05 93.379 345.84 93.902 345.72 94.312 345.63 95.034 345.52 95.553 345.37 96.052 345.22 96.584 344.95 96.979 344.75" fill="#fff"/>
   <g id="g215">
    <path id="path217" d="m77.759 346.11c5.98 2.902 13.993 2.837 19.932-0.156 1.62-0.815 0.192-3.208-1.423-2.392-4.979 2.507-12.069 2.589-17.085 0.156-1.626-0.79-3.054 1.602-1.424 2.392z"/>
   </g>
  </g>
 </g>
</svg>
